solid OpenSCAD_Model
  facet normal -1 0 0
    outer loop
      vertex -27.5 -26 -12.5
      vertex -27.5 -26 12.5
      vertex -27.5 26 -12.5
    endloop
  endfacet
  facet normal -1 0 0
    outer loop
      vertex -27.5 26 -12.5
      vertex -27.5 -26 12.5
      vertex -27.5 26 12.5
    endloop
  endfacet
  facet normal 0 -1 0
    outer loop
      vertex -27.5 -26 12.5
      vertex -27.5 -26 -12.5
      vertex 27.5 -26 -12.5
    endloop
  endfacet
  facet normal 0 -1 0
    outer loop
      vertex 27.5 -26 12.5
      vertex -27.5 -26 12.5
      vertex 27.5 -26 -12.5
    endloop
  endfacet
  facet normal 0 0 -1
    outer loop
      vertex -27.5 -26 -12.5
      vertex -27.5 26 -12.5
      vertex 27.5 -26 -12.5
    endloop
  endfacet
  facet normal 0 0 -1
    outer loop
      vertex 27.5 -26 -12.5
      vertex -27.5 26 -12.5
      vertex 27.5 26 -12.5
    endloop
  endfacet
  facet normal 0 1 0
    outer loop
      vertex -27.5 26 -12.5
      vertex -27.5 26 12.5
      vertex 27.5 26 -12.5
    endloop
  endfacet
  facet normal 0 1 0
    outer loop
      vertex 27.5 26 -12.5
      vertex -27.5 26 12.5
      vertex 27.5 26 12.5
    endloop
  endfacet
  facet normal 0 0 1
    outer loop
      vertex -26.5 -24.5 12.5
      vertex -27.5 -26 12.5
      vertex 27.5 -26 12.5
    endloop
  endfacet
  facet normal 0 0 1
    outer loop
      vertex -27.5 26 12.5
      vertex -27.5 -26 12.5
      vertex -26.5 -24.5 12.5
    endloop
  endfacet
  facet normal 0 0 1
    outer loop
      vertex -26.5 24.5 12.5
      vertex 26.5 24.5 12.5
      vertex -27.5 26 12.5
    endloop
  endfacet
  facet normal 0 0 1
    outer loop
      vertex -27.5 26 12.5
      vertex -26.5 -24.5 12.5
      vertex -26.5 24.5 12.5
    endloop
  endfacet
  facet normal 0 0 1
    outer loop
      vertex 27.5 26 12.5
      vertex 26.5 24.5 12.5
      vertex 27.5 -26 12.5
    endloop
  endfacet
  facet normal 0 0 1
    outer loop
      vertex 27.5 26 12.5
      vertex -27.5 26 12.5
      vertex 26.5 24.5 12.5
    endloop
  endfacet
  facet normal 0 0 1
    outer loop
      vertex 26.5 24.5 12.5
      vertex 26.5 -24.5 12.5
      vertex 27.5 -26 12.5
    endloop
  endfacet
  facet normal 0 0 1
    outer loop
      vertex 26.5 -24.5 12.5
      vertex -26.5 -24.5 12.5
      vertex 27.5 -26 12.5
    endloop
  endfacet
  facet normal 1 0 0
    outer loop
      vertex 27.5 -26 12.5
      vertex 27.5 -26 -12.5
      vertex 27.5 26 -12.5
    endloop
  endfacet
  facet normal 1 0 0
    outer loop
      vertex 27.5 26 12.5
      vertex 27.5 -26 12.5
      vertex 27.5 26 -12.5
    endloop
  endfacet
  facet normal 1 0 0
    outer loop
      vertex -26.5 24.5 -9.5
      vertex -26.5 24.5 12.5
      vertex -26.5 -24.5 12.5
    endloop
  endfacet
  facet normal 1 0 0
    outer loop
      vertex -26.5 -24.5 -9.5
      vertex -26.5 24.5 -9.5
      vertex -26.5 -24.5 12.5
    endloop
  endfacet
  facet normal 0 1 0
    outer loop
      vertex 26.5 -24.5 12.5
      vertex 26.5 -24.5 -9.5
      vertex -26.5 -24.5 12.5
    endloop
  endfacet
  facet normal 0 1 0
    outer loop
      vertex -26.5 -24.5 12.5
      vertex 26.5 -24.5 -9.5
      vertex -26.5 -24.5 -9.5
    endloop
  endfacet
  facet normal -1 0 0
    outer loop
      vertex 26.5 24.5 12.5
      vertex 26.5 24.5 -9.5
      vertex 26.5 -24.5 12.5
    endloop
  endfacet
  facet normal -1 0 0
    outer loop
      vertex 26.5 -24.5 12.5
      vertex 26.5 24.5 -9.5
      vertex 26.5 -24.5 -9.5
    endloop
  endfacet
  facet normal 0 -1 0
    outer loop
      vertex 26.5 24.5 -9.5
      vertex 26.5 24.5 12.5
      vertex -26.5 24.5 12.5
    endloop
  endfacet
  facet normal 0 -1 0
    outer loop
      vertex -26.5 24.5 -9.5
      vertex 26.5 24.5 -9.5
      vertex -26.5 24.5 12.5
    endloop
  endfacet
  facet normal 0 0 1
    outer loop
      vertex 26.5 -24.5 -9.5
      vertex 26.5 24.5 -9.5
      vertex -26.5 24.5 -9.5
    endloop
  endfacet
  facet normal 0 0 1
    outer loop
      vertex -26.5 -24.5 -9.5
      vertex 26.5 -24.5 -9.5
      vertex -26.5 24.5 -9.5
    endloop
  endfacet
endsolid OpenSCAD_Model
