solid OpenSCAD_Model
  facet normal -1 0 0
    outer loop
      vertex -27.5 -32.5 -1
      vertex -27.5 -32.5 1
      vertex -27.5 32.5 -1
    endloop
  endfacet
  facet normal -1 0 0
    outer loop
      vertex -27.5 32.5 -1
      vertex -27.5 -32.5 1
      vertex -27.5 32.5 1
    endloop
  endfacet
  facet normal 0 -1 0
    outer loop
      vertex -27.5 -32.5 1
      vertex -27.5 -32.5 -1
      vertex 27.5 -32.5 -1
    endloop
  endfacet
  facet normal 0 -1 0
    outer loop
      vertex 27.5 -32.5 1
      vertex -27.5 -32.5 1
      vertex 27.5 -32.5 -1
    endloop
  endfacet
  facet normal 0 0 -1
    outer loop
      vertex 17.5 -22.5 -1
      vertex 27.5 -32.5 -1
      vertex 12.5 -22.5 -1
    endloop
  endfacet
  facet normal 0 0 -1
    outer loop
      vertex -17.5 22.5 -1
      vertex -27.5 32.5 -1
      vertex 27.5 32.5 -1
    endloop
  endfacet
  facet normal 0 0 -1
    outer loop
      vertex -27.5 -32.5 -1
      vertex -27.5 32.5 -1
      vertex -17.5 -17.5 -1
    endloop
  endfacet
  facet normal 0 0 -1
    outer loop
      vertex -7.5 -22.5 -1
      vertex -2.5 -22.5 -1
      vertex 27.5 -32.5 -1
    endloop
  endfacet
  facet normal 0 0 -1
    outer loop
      vertex -27.5 -32.5 -1
      vertex -17.5 -17.5 -1
      vertex -17.5 -22.5 -1
    endloop
  endfacet
  facet normal 0 0 -1
    outer loop
      vertex -27.5 -32.5 -1
      vertex -17.5 -22.5 -1
      vertex 27.5 -32.5 -1
    endloop
  endfacet
  facet normal 0 0 -1
    outer loop
      vertex -17.5 -22.5 -1
      vertex -12.5 -22.5 -1
      vertex 27.5 -32.5 -1
    endloop
  endfacet
  facet normal 0 0 -1
    outer loop
      vertex 12.5 -22.5 -1
      vertex 27.5 -32.5 -1
      vertex 7.5 -22.5 -1
    endloop
  endfacet
  facet normal 0 0 -1
    outer loop
      vertex -17.5 -17.5 -1
      vertex -27.5 32.5 -1
      vertex -17.5 -12.5 -1
    endloop
  endfacet
  facet normal 0 0 -1
    outer loop
      vertex -17.5 7.5 -1
      vertex -27.5 32.5 -1
      vertex -17.5 12.5 -1
    endloop
  endfacet
  facet normal 0 0 -1
    outer loop
      vertex -27.5 32.5 -1
      vertex -17.5 -7.5 -1
      vertex -17.5 -12.5 -1
    endloop
  endfacet
  facet normal 0 0 -1
    outer loop
      vertex -17.5 -17.5 -1
      vertex -17.5 -12.5 -1
      vertex -12.5 -17.5 -1
    endloop
  endfacet
  facet normal 0 0 -1
    outer loop
      vertex -17.5 2.5 -1
      vertex -17.5 7.5 -1
      vertex -12.5 2.5 -1
    endloop
  endfacet
  facet normal 0 0 -1
    outer loop
      vertex -7.5 2.5 -1
      vertex -7.5 7.5 -1
      vertex -2.5 2.5 -1
    endloop
  endfacet
  facet normal 0 0 -1
    outer loop
      vertex -12.5 -2.5 -1
      vertex -12.5 -7.5 -1
      vertex -17.5 -2.5 -1
    endloop
  endfacet
  facet normal 0 0 -1
    outer loop
      vertex 2.5 -22.5 -1
      vertex -2.5 -17.5 -1
      vertex 2.5 -17.5 -1
    endloop
  endfacet
  facet normal 0 0 -1
    outer loop
      vertex 7.5 -12.5 -1
      vertex 12.5 -17.5 -1
      vertex 2.5 -12.5 -1
    endloop
  endfacet
  facet normal 0 0 -1
    outer loop
      vertex -17.5 12.5 -1
      vertex -27.5 32.5 -1
      vertex -17.5 17.5 -1
    endloop
  endfacet
  facet normal 0 0 -1
    outer loop
      vertex -17.5 -7.5 -1
      vertex -27.5 32.5 -1
      vertex -17.5 -2.5 -1
    endloop
  endfacet
  facet normal 0 0 -1
    outer loop
      vertex -12.5 -12.5 -1
      vertex -12.5 -17.5 -1
      vertex -17.5 -12.5 -1
    endloop
  endfacet
  facet normal 0 0 -1
    outer loop
      vertex 12.5 2.5 -1
      vertex 17.5 7.5 -1
      vertex 17.5 2.5 -1
    endloop
  endfacet
  facet normal 0 0 -1
    outer loop
      vertex -2.5 2.5 -1
      vertex 2.5 -7.5 -1
      vertex -2.5 -2.5 -1
    endloop
  endfacet
  facet normal 0 0 -1
    outer loop
      vertex -7.5 7.5 -1
      vertex -12.5 17.5 -1
      vertex -7.5 12.5 -1
    endloop
  endfacet
  facet normal 0 0 -1
    outer loop
      vertex -2.5 -7.5 -1
      vertex -7.5 -2.5 -1
      vertex 2.5 -7.5 -1
    endloop
  endfacet
  facet normal 0 0 -1
    outer loop
      vertex -12.5 7.5 -1
      vertex -12.5 2.5 -1
      vertex -17.5 7.5 -1
    endloop
  endfacet
  facet normal 0 0 -1
    outer loop
      vertex -17.5 17.5 -1
      vertex -27.5 32.5 -1
      vertex -17.5 22.5 -1
    endloop
  endfacet
  facet normal 0 0 -1
    outer loop
      vertex -2.5 -2.5 -1
      vertex 2.5 -7.5 -1
      vertex -7.5 -2.5 -1
    endloop
  endfacet
  facet normal 0 0 -1
    outer loop
      vertex -12.5 17.5 -1
      vertex -12.5 12.5 -1
      vertex -17.5 17.5 -1
    endloop
  endfacet
  facet normal 0 0 -1
    outer loop
      vertex -12.5 22.5 -1
      vertex -17.5 22.5 -1
      vertex 27.5 32.5 -1
    endloop
  endfacet
  facet normal 0 0 -1
    outer loop
      vertex 2.5 -22.5 -1
      vertex 27.5 -32.5 -1
      vertex -2.5 -22.5 -1
    endloop
  endfacet
  facet normal 0 0 -1
    outer loop
      vertex -7.5 22.5 -1
      vertex -12.5 22.5 -1
      vertex 27.5 32.5 -1
    endloop
  endfacet
  facet normal 0 0 -1
    outer loop
      vertex -12.5 -17.5 -1
      vertex -12.5 -12.5 -1
      vertex -7.5 -17.5 -1
    endloop
  endfacet
  facet normal 0 0 -1
    outer loop
      vertex -7.5 2.5 -1
      vertex -12.5 12.5 -1
      vertex -7.5 7.5 -1
    endloop
  endfacet
  facet normal 0 0 -1
    outer loop
      vertex -17.5 -7.5 -1
      vertex -17.5 -2.5 -1
      vertex -12.5 -7.5 -1
    endloop
  endfacet
  facet normal 0 0 -1
    outer loop
      vertex -12.5 -22.5 -1
      vertex -7.5 -22.5 -1
      vertex 27.5 -32.5 -1
    endloop
  endfacet
  facet normal 0 0 -1
    outer loop
      vertex -17.5 -2.5 -1
      vertex -27.5 32.5 -1
      vertex -17.5 2.5 -1
    endloop
  endfacet
  facet normal 0 0 -1
    outer loop
      vertex -17.5 12.5 -1
      vertex -17.5 17.5 -1
      vertex -12.5 12.5 -1
    endloop
  endfacet
  facet normal 0 0 -1
    outer loop
      vertex -12.5 -12.5 -1
      vertex -7.5 -12.5 -1
      vertex -2.5 -17.5 -1
    endloop
  endfacet
  facet normal 0 0 -1
    outer loop
      vertex -12.5 -12.5 -1
      vertex -2.5 -17.5 -1
      vertex -7.5 -17.5 -1
    endloop
  endfacet
  facet normal 0 0 -1
    outer loop
      vertex -12.5 -7.5 -1
      vertex -12.5 -2.5 -1
      vertex -7.5 -7.5 -1
    endloop
  endfacet
  facet normal 0 0 -1
    outer loop
      vertex 17.5 7.5 -1
      vertex 27.5 32.5 -1
      vertex 17.5 2.5 -1
    endloop
  endfacet
  facet normal 0 0 -1
    outer loop
      vertex -12.5 -12.5 -1
      vertex -12.5 -7.5 -1
      vertex -7.5 -12.5 -1
    endloop
  endfacet
  facet normal 0 0 -1
    outer loop
      vertex 2.5 -12.5 -1
      vertex 7.5 -17.5 -1
      vertex -2.5 -12.5 -1
    endloop
  endfacet
  facet normal 0 0 -1
    outer loop
      vertex -12.5 -2.5 -1
      vertex -7.5 -2.5 -1
      vertex -2.5 -7.5 -1
    endloop
  endfacet
  facet normal 0 0 -1
    outer loop
      vertex 2.5 -2.5 -1
      vertex -2.5 7.5 -1
      vertex 2.5 2.5 -1
    endloop
  endfacet
  facet normal 0 0 -1
    outer loop
      vertex -12.5 7.5 -1
      vertex -12.5 12.5 -1
      vertex -7.5 2.5 -1
    endloop
  endfacet
  facet normal 0 0 -1
    outer loop
      vertex -12.5 7.5 -1
      vertex -7.5 2.5 -1
      vertex -12.5 2.5 -1
    endloop
  endfacet
  facet normal 0 0 -1
    outer loop
      vertex -12.5 -2.5 -1
      vertex -12.5 2.5 -1
      vertex -7.5 -2.5 -1
    endloop
  endfacet
  facet normal 0 0 -1
    outer loop
      vertex -7.5 -2.5 -1
      vertex -12.5 2.5 -1
      vertex -7.5 2.5 -1
    endloop
  endfacet
  facet normal 0 0 -1
    outer loop
      vertex -2.5 7.5 -1
      vertex 2.5 -2.5 -1
      vertex -2.5 2.5 -1
    endloop
  endfacet
  facet normal 0 0 -1
    outer loop
      vertex 7.5 17.5 -1
      vertex -2.5 12.5 -1
      vertex 2.5 17.5 -1
    endloop
  endfacet
  facet normal 0 0 -1
    outer loop
      vertex 17.5 -12.5 -1
      vertex 17.5 -17.5 -1
      vertex 12.5 -12.5 -1
    endloop
  endfacet
  facet normal 0 0 -1
    outer loop
      vertex -7.5 17.5 -1
      vertex -12.5 17.5 -1
      vertex -7.5 22.5 -1
    endloop
  endfacet
  facet normal 0 0 -1
    outer loop
      vertex 12.5 17.5 -1
      vertex 2.5 12.5 -1
      vertex 7.5 17.5 -1
    endloop
  endfacet
  facet normal 0 0 -1
    outer loop
      vertex -12.5 17.5 -1
      vertex -12.5 22.5 -1
      vertex -7.5 22.5 -1
    endloop
  endfacet
  facet normal 0 0 -1
    outer loop
      vertex -2.5 22.5 -1
      vertex -7.5 22.5 -1
      vertex 27.5 32.5 -1
    endloop
  endfacet
  facet normal 0 0 -1
    outer loop
      vertex -7.5 12.5 -1
      vertex -12.5 17.5 -1
      vertex -7.5 17.5 -1
    endloop
  endfacet
  facet normal 0 0 -1
    outer loop
      vertex 12.5 -22.5 -1
      vertex 7.5 -17.5 -1
      vertex 12.5 -17.5 -1
    endloop
  endfacet
  facet normal 0 0 -1
    outer loop
      vertex -7.5 12.5 -1
      vertex -7.5 17.5 -1
      vertex -2.5 17.5 -1
    endloop
  endfacet
  facet normal 0 0 -1
    outer loop
      vertex 17.5 -17.5 -1
      vertex 27.5 -32.5 -1
      vertex 17.5 -22.5 -1
    endloop
  endfacet
  facet normal 0 0 -1
    outer loop
      vertex -2.5 22.5 -1
      vertex 2.5 22.5 -1
      vertex -2.5 17.5 -1
    endloop
  endfacet
  facet normal 0 0 -1
    outer loop
      vertex 12.5 -12.5 -1
      vertex 7.5 -2.5 -1
      vertex 12.5 -7.5 -1
    endloop
  endfacet
  facet normal 0 0 -1
    outer loop
      vertex 7.5 -17.5 -1
      vertex 2.5 -12.5 -1
      vertex 12.5 -17.5 -1
    endloop
  endfacet
  facet normal 0 0 -1
    outer loop
      vertex -2.5 -17.5 -1
      vertex 2.5 -22.5 -1
      vertex -2.5 -22.5 -1
    endloop
  endfacet
  facet normal 0 0 -1
    outer loop
      vertex 7.5 -17.5 -1
      vertex 12.5 -22.5 -1
      vertex 7.5 -22.5 -1
    endloop
  endfacet
  facet normal 0 0 -1
    outer loop
      vertex -7.5 -7.5 -1
      vertex -12.5 -2.5 -1
      vertex -2.5 -7.5 -1
    endloop
  endfacet
  facet normal 0 0 -1
    outer loop
      vertex 2.5 -7.5 -1
      vertex 2.5 -2.5 -1
      vertex 7.5 -7.5 -1
    endloop
  endfacet
  facet normal 0 0 -1
    outer loop
      vertex -7.5 -12.5 -1
      vertex -12.5 -7.5 -1
      vertex -7.5 -7.5 -1
    endloop
  endfacet
  facet normal 0 0 -1
    outer loop
      vertex -2.5 -17.5 -1
      vertex -7.5 -12.5 -1
      vertex 2.5 -17.5 -1
    endloop
  endfacet
  facet normal 0 0 -1
    outer loop
      vertex 12.5 22.5 -1
      vertex 27.5 32.5 -1
      vertex 17.5 22.5 -1
    endloop
  endfacet
  facet normal 0 0 -1
    outer loop
      vertex 7.5 -2.5 -1
      vertex 7.5 -7.5 -1
      vertex 2.5 -2.5 -1
    endloop
  endfacet
  facet normal 0 0 -1
    outer loop
      vertex -2.5 7.5 -1
      vertex -2.5 2.5 -1
      vertex -7.5 7.5 -1
    endloop
  endfacet
  facet normal 0 0 -1
    outer loop
      vertex -7.5 -22.5 -1
      vertex -12.5 -17.5 -1
      vertex -7.5 -17.5 -1
    endloop
  endfacet
  facet normal 0 0 -1
    outer loop
      vertex 2.5 -17.5 -1
      vertex -2.5 -12.5 -1
      vertex 7.5 -17.5 -1
    endloop
  endfacet
  facet normal 0 0 -1
    outer loop
      vertex 7.5 -2.5 -1
      vertex 12.5 -12.5 -1
      vertex 7.5 -7.5 -1
    endloop
  endfacet
  facet normal 0 0 -1
    outer loop
      vertex 2.5 17.5 -1
      vertex -7.5 12.5 -1
      vertex -2.5 17.5 -1
    endloop
  endfacet
  facet normal 0 0 -1
    outer loop
      vertex -12.5 17.5 -1
      vertex -7.5 7.5 -1
      vertex -12.5 12.5 -1
    endloop
  endfacet
  facet normal 0 0 -1
    outer loop
      vertex -2.5 -12.5 -1
      vertex 2.5 -17.5 -1
      vertex -7.5 -12.5 -1
    endloop
  endfacet
  facet normal 0 0 -1
    outer loop
      vertex -2.5 7.5 -1
      vertex -2.5 12.5 -1
      vertex 2.5 12.5 -1
    endloop
  endfacet
  facet normal 0 0 -1
    outer loop
      vertex 2.5 7.5 -1
      vertex -2.5 7.5 -1
      vertex 2.5 12.5 -1
    endloop
  endfacet
  facet normal 0 0 -1
    outer loop
      vertex 2.5 2.5 -1
      vertex -2.5 7.5 -1
      vertex 2.5 7.5 -1
    endloop
  endfacet
  facet normal 0 0 -1
    outer loop
      vertex 2.5 17.5 -1
      vertex -2.5 17.5 -1
      vertex 2.5 22.5 -1
    endloop
  endfacet
  facet normal 0 0 -1
    outer loop
      vertex 7.5 2.5 -1
      vertex 2.5 2.5 -1
      vertex 7.5 7.5 -1
    endloop
  endfacet
  facet normal 0 0 -1
    outer loop
      vertex 7.5 7.5 -1
      vertex 2.5 2.5 -1
      vertex 2.5 7.5 -1
    endloop
  endfacet
  facet normal 0 0 -1
    outer loop
      vertex 12.5 12.5 -1
      vertex 17.5 17.5 -1
      vertex 17.5 12.5 -1
    endloop
  endfacet
  facet normal 0 0 -1
    outer loop
      vertex 2.5 22.5 -1
      vertex 27.5 32.5 -1
      vertex 7.5 22.5 -1
    endloop
  endfacet
  facet normal 0 0 -1
    outer loop
      vertex 2.5 -7.5 -1
      vertex -2.5 2.5 -1
      vertex 2.5 -2.5 -1
    endloop
  endfacet
  facet normal 0 0 -1
    outer loop
      vertex -2.5 12.5 -1
      vertex -7.5 12.5 -1
      vertex 2.5 17.5 -1
    endloop
  endfacet
  facet normal 0 0 -1
    outer loop
      vertex 12.5 -17.5 -1
      vertex 12.5 -12.5 -1
      vertex 17.5 -17.5 -1
    endloop
  endfacet
  facet normal 0 0 -1
    outer loop
      vertex 2.5 12.5 -1
      vertex -2.5 12.5 -1
      vertex 7.5 17.5 -1
    endloop
  endfacet
  facet normal 0 0 -1
    outer loop
      vertex 12.5 17.5 -1
      vertex 7.5 17.5 -1
      vertex 12.5 22.5 -1
    endloop
  endfacet
  facet normal 0 0 -1
    outer loop
      vertex 2.5 -12.5 -1
      vertex -2.5 -7.5 -1
      vertex 2.5 -7.5 -1
    endloop
  endfacet
  facet normal 0 0 -1
    outer loop
      vertex -2.5 -7.5 -1
      vertex 2.5 -12.5 -1
      vertex -2.5 -12.5 -1
    endloop
  endfacet
  facet normal 0 0 -1
    outer loop
      vertex 7.5 -7.5 -1
      vertex 12.5 -17.5 -1
      vertex 7.5 -12.5 -1
    endloop
  endfacet
  facet normal 0 0 -1
    outer loop
      vertex 12.5 12.5 -1
      vertex 7.5 7.5 -1
      vertex 12.5 17.5 -1
    endloop
  endfacet
  facet normal 0 0 -1
    outer loop
      vertex 27.5 -32.5 -1
      vertex 17.5 -17.5 -1
      vertex 27.5 32.5 -1
    endloop
  endfacet
  facet normal 0 0 -1
    outer loop
      vertex -2.5 22.5 -1
      vertex 27.5 32.5 -1
      vertex 2.5 22.5 -1
    endloop
  endfacet
  facet normal 0 0 -1
    outer loop
      vertex 2.5 12.5 -1
      vertex 12.5 17.5 -1
      vertex 7.5 12.5 -1
    endloop
  endfacet
  facet normal 0 0 -1
    outer loop
      vertex 17.5 12.5 -1
      vertex 27.5 32.5 -1
      vertex 17.5 7.5 -1
    endloop
  endfacet
  facet normal 0 0 -1
    outer loop
      vertex 17.5 -17.5 -1
      vertex 17.5 -12.5 -1
      vertex 27.5 32.5 -1
    endloop
  endfacet
  facet normal 0 0 -1
    outer loop
      vertex 17.5 -12.5 -1
      vertex 17.5 -7.5 -1
      vertex 27.5 32.5 -1
    endloop
  endfacet
  facet normal 0 0 -1
    outer loop
      vertex 12.5 -2.5 -1
      vertex 7.5 -2.5 -1
      vertex 12.5 2.5 -1
    endloop
  endfacet
  facet normal 0 0 -1
    outer loop
      vertex 12.5 -7.5 -1
      vertex 7.5 -2.5 -1
      vertex 12.5 -2.5 -1
    endloop
  endfacet
  facet normal 0 0 -1
    outer loop
      vertex 17.5 22.5 -1
      vertex 27.5 32.5 -1
      vertex 17.5 17.5 -1
    endloop
  endfacet
  facet normal 0 0 -1
    outer loop
      vertex 17.5 -7.5 -1
      vertex 12.5 -7.5 -1
      vertex 17.5 -2.5 -1
    endloop
  endfacet
  facet normal 0 0 -1
    outer loop
      vertex 17.5 -7.5 -1
      vertex 17.5 -2.5 -1
      vertex 27.5 32.5 -1
    endloop
  endfacet
  facet normal 0 0 -1
    outer loop
      vertex 17.5 17.5 -1
      vertex 27.5 32.5 -1
      vertex 17.5 12.5 -1
    endloop
  endfacet
  facet normal 0 0 -1
    outer loop
      vertex 17.5 -2.5 -1
      vertex 17.5 2.5 -1
      vertex 27.5 32.5 -1
    endloop
  endfacet
  facet normal 0 0 -1
    outer loop
      vertex 7.5 2.5 -1
      vertex 7.5 7.5 -1
      vertex 12.5 12.5 -1
    endloop
  endfacet
  facet normal 0 0 -1
    outer loop
      vertex 7.5 -2.5 -1
      vertex 7.5 2.5 -1
      vertex 12.5 7.5 -1
    endloop
  endfacet
  facet normal 0 0 -1
    outer loop
      vertex 12.5 7.5 -1
      vertex 7.5 2.5 -1
      vertex 12.5 12.5 -1
    endloop
  endfacet
  facet normal 0 0 -1
    outer loop
      vertex 17.5 17.5 -1
      vertex 12.5 12.5 -1
      vertex 12.5 17.5 -1
    endloop
  endfacet
  facet normal 0 0 -1
    outer loop
      vertex 17.5 -2.5 -1
      vertex 12.5 -7.5 -1
      vertex 12.5 -2.5 -1
    endloop
  endfacet
  facet normal 0 0 -1
    outer loop
      vertex 7.5 22.5 -1
      vertex 12.5 22.5 -1
      vertex 7.5 17.5 -1
    endloop
  endfacet
  facet normal 0 0 -1
    outer loop
      vertex 7.5 22.5 -1
      vertex 27.5 32.5 -1
      vertex 12.5 22.5 -1
    endloop
  endfacet
  facet normal 0 0 -1
    outer loop
      vertex 7.5 12.5 -1
      vertex 12.5 17.5 -1
      vertex 7.5 7.5 -1
    endloop
  endfacet
  facet normal 0 0 -1
    outer loop
      vertex 12.5 2.5 -1
      vertex 7.5 -2.5 -1
      vertex 12.5 7.5 -1
    endloop
  endfacet
  facet normal 0 0 -1
    outer loop
      vertex 17.5 7.5 -1
      vertex 12.5 2.5 -1
      vertex 12.5 7.5 -1
    endloop
  endfacet
  facet normal 0 0 -1
    outer loop
      vertex 12.5 -17.5 -1
      vertex 7.5 -7.5 -1
      vertex 12.5 -12.5 -1
    endloop
  endfacet
  facet normal 0 0 -1
    outer loop
      vertex 7.5 -22.5 -1
      vertex 27.5 -32.5 -1
      vertex 2.5 -22.5 -1
    endloop
  endfacet
  facet normal 0 0 -1
    outer loop
      vertex -12.5 -17.5 -1
      vertex -7.5 -22.5 -1
      vertex -12.5 -22.5 -1
    endloop
  endfacet
  facet normal 0 0 -1
    outer loop
      vertex -17.5 2.5 -1
      vertex -27.5 32.5 -1
      vertex -17.5 7.5 -1
    endloop
  endfacet
  facet normal 0 1 0
    outer loop
      vertex -27.5 32.5 -1
      vertex -27.5 32.5 1
      vertex 27.5 32.5 -1
    endloop
  endfacet
  facet normal 0 1 0
    outer loop
      vertex 27.5 32.5 -1
      vertex -27.5 32.5 1
      vertex 27.5 32.5 1
    endloop
  endfacet
  facet normal 0 0 1
    outer loop
      vertex -17.5 -22.5 1
      vertex -27.5 -32.5 1
      vertex 27.5 -32.5 1
    endloop
  endfacet
  facet normal 0 0 1
    outer loop
      vertex -2.5 -7.5 1
      vertex -2.5 -12.5 1
      vertex 2.5 -12.5 1
    endloop
  endfacet
  facet normal 0 0 1
    outer loop
      vertex -12.5 -22.5 1
      vertex -17.5 -22.5 1
      vertex 27.5 -32.5 1
    endloop
  endfacet
  facet normal 0 0 1
    outer loop
      vertex -27.5 32.5 1
      vertex -27.5 -32.5 1
      vertex -17.5 -22.5 1
    endloop
  endfacet
  facet normal 0 0 1
    outer loop
      vertex 7.5 22.5 1
      vertex 7.5 17.5 1
      vertex 12.5 22.5 1
    endloop
  endfacet
  facet normal 0 0 1
    outer loop
      vertex -27.5 32.5 1
      vertex -17.5 -22.5 1
      vertex -17.5 -17.5 1
    endloop
  endfacet
  facet normal 0 0 1
    outer loop
      vertex 7.5 -22.5 1
      vertex 2.5 -22.5 1
      vertex 27.5 -32.5 1
    endloop
  endfacet
  facet normal 0 0 1
    outer loop
      vertex -17.5 -12.5 1
      vertex -17.5 -17.5 1
      vertex -12.5 -17.5 1
    endloop
  endfacet
  facet normal 0 0 1
    outer loop
      vertex -7.5 -22.5 1
      vertex -12.5 -22.5 1
      vertex 27.5 -32.5 1
    endloop
  endfacet
  facet normal 0 0 1
    outer loop
      vertex -27.5 32.5 1
      vertex -17.5 -17.5 1
      vertex -17.5 -12.5 1
    endloop
  endfacet
  facet normal 0 0 1
    outer loop
      vertex -27.5 32.5 1
      vertex -17.5 -12.5 1
      vertex -17.5 -7.5 1
    endloop
  endfacet
  facet normal 0 0 1
    outer loop
      vertex -7.5 -7.5 1
      vertex -2.5 -7.5 1
      vertex -12.5 -2.5 1
    endloop
  endfacet
  facet normal 0 0 1
    outer loop
      vertex -2.5 -17.5 1
      vertex -12.5 -12.5 1
      vertex -7.5 -17.5 1
    endloop
  endfacet
  facet normal 0 0 1
    outer loop
      vertex -12.5 -2.5 1
      vertex -17.5 -2.5 1
      vertex -12.5 -7.5 1
    endloop
  endfacet
  facet normal 0 0 1
    outer loop
      vertex -17.5 -7.5 1
      vertex -12.5 -7.5 1
      vertex -17.5 -2.5 1
    endloop
  endfacet
  facet normal 0 0 1
    outer loop
      vertex -27.5 32.5 1
      vertex -17.5 -7.5 1
      vertex -17.5 -2.5 1
    endloop
  endfacet
  facet normal 0 0 1
    outer loop
      vertex -17.5 2.5 1
      vertex -17.5 7.5 1
      vertex -27.5 32.5 1
    endloop
  endfacet
  facet normal 0 0 1
    outer loop
      vertex -17.5 7.5 1
      vertex -17.5 12.5 1
      vertex -27.5 32.5 1
    endloop
  endfacet
  facet normal 0 0 1
    outer loop
      vertex -7.5 -2.5 1
      vertex -7.5 2.5 1
      vertex -12.5 2.5 1
    endloop
  endfacet
  facet normal 0 0 1
    outer loop
      vertex -17.5 2.5 1
      vertex -12.5 2.5 1
      vertex -17.5 7.5 1
    endloop
  endfacet
  facet normal 0 0 1
    outer loop
      vertex 2.5 -2.5 1
      vertex 2.5 2.5 1
      vertex -2.5 7.5 1
    endloop
  endfacet
  facet normal 0 0 1
    outer loop
      vertex -17.5 17.5 1
      vertex -17.5 22.5 1
      vertex -27.5 32.5 1
    endloop
  endfacet
  facet normal 0 0 1
    outer loop
      vertex -12.5 7.5 1
      vertex -17.5 7.5 1
      vertex -12.5 2.5 1
    endloop
  endfacet
  facet normal 0 0 1
    outer loop
      vertex -17.5 17.5 1
      vertex -17.5 12.5 1
      vertex -12.5 12.5 1
    endloop
  endfacet
  facet normal 0 0 1
    outer loop
      vertex -7.5 2.5 1
      vertex -12.5 7.5 1
      vertex -12.5 2.5 1
    endloop
  endfacet
  facet normal 0 0 1
    outer loop
      vertex 2.5 -22.5 1
      vertex -2.5 -22.5 1
      vertex 27.5 -32.5 1
    endloop
  endfacet
  facet normal 0 0 1
    outer loop
      vertex -27.5 32.5 1
      vertex -17.5 12.5 1
      vertex -17.5 17.5 1
    endloop
  endfacet
  facet normal 0 0 1
    outer loop
      vertex -7.5 2.5 1
      vertex -2.5 2.5 1
      vertex -7.5 7.5 1
    endloop
  endfacet
  facet normal 0 0 1
    outer loop
      vertex 27.5 32.5 1
      vertex -27.5 32.5 1
      vertex -17.5 22.5 1
    endloop
  endfacet
  facet normal 0 0 1
    outer loop
      vertex 27.5 32.5 1
      vertex -17.5 22.5 1
      vertex -12.5 22.5 1
    endloop
  endfacet
  facet normal 0 0 1
    outer loop
      vertex -7.5 12.5 1
      vertex -2.5 12.5 1
      vertex -7.5 17.5 1
    endloop
  endfacet
  facet normal 0 0 1
    outer loop
      vertex -2.5 -22.5 1
      vertex -7.5 -22.5 1
      vertex 27.5 -32.5 1
    endloop
  endfacet
  facet normal 0 0 1
    outer loop
      vertex -17.5 -2.5 1
      vertex -17.5 2.5 1
      vertex -27.5 32.5 1
    endloop
  endfacet
  facet normal 0 0 1
    outer loop
      vertex 12.5 -22.5 1
      vertex 7.5 -22.5 1
      vertex 27.5 -32.5 1
    endloop
  endfacet
  facet normal 0 0 1
    outer loop
      vertex -12.5 -12.5 1
      vertex -12.5 -17.5 1
      vertex -7.5 -17.5 1
    endloop
  endfacet
  facet normal 0 0 1
    outer loop
      vertex -2.5 -12.5 1
      vertex -7.5 -12.5 1
      vertex 2.5 -17.5 1
    endloop
  endfacet
  facet normal 0 0 1
    outer loop
      vertex -7.5 -12.5 1
      vertex -12.5 -12.5 1
      vertex -2.5 -17.5 1
    endloop
  endfacet
  facet normal 0 0 1
    outer loop
      vertex 17.5 -17.5 1
      vertex 17.5 -22.5 1
      vertex 27.5 -32.5 1
    endloop
  endfacet
  facet normal 0 0 1
    outer loop
      vertex 12.5 -22.5 1
      vertex 12.5 -17.5 1
      vertex 7.5 -17.5 1
    endloop
  endfacet
  facet normal 0 0 1
    outer loop
      vertex -12.5 -7.5 1
      vertex -12.5 -12.5 1
      vertex -7.5 -12.5 1
    endloop
  endfacet
  facet normal 0 0 1
    outer loop
      vertex -12.5 -2.5 1
      vertex -12.5 -7.5 1
      vertex -7.5 -7.5 1
    endloop
  endfacet
  facet normal 0 0 1
    outer loop
      vertex -2.5 -7.5 1
      vertex 2.5 -7.5 1
      vertex -7.5 -2.5 1
    endloop
  endfacet
  facet normal 0 0 1
    outer loop
      vertex -7.5 -2.5 1
      vertex -12.5 -2.5 1
      vertex -2.5 -7.5 1
    endloop
  endfacet
  facet normal 0 0 1
    outer loop
      vertex 2.5 -12.5 1
      vertex -2.5 -12.5 1
      vertex 7.5 -17.5 1
    endloop
  endfacet
  facet normal 0 0 1
    outer loop
      vertex 2.5 -7.5 1
      vertex 2.5 -2.5 1
      vertex -2.5 2.5 1
    endloop
  endfacet
  facet normal 0 0 1
    outer loop
      vertex -12.5 2.5 1
      vertex -12.5 -2.5 1
      vertex -7.5 -2.5 1
    endloop
  endfacet
  facet normal 0 0 1
    outer loop
      vertex 12.5 -12.5 1
      vertex 12.5 -7.5 1
      vertex 7.5 -2.5 1
    endloop
  endfacet
  facet normal 0 0 1
    outer loop
      vertex -12.5 12.5 1
      vertex -12.5 7.5 1
      vertex -7.5 2.5 1
    endloop
  endfacet
  facet normal 0 0 1
    outer loop
      vertex -7.5 -22.5 1
      vertex -7.5 -17.5 1
      vertex -12.5 -17.5 1
    endloop
  endfacet
  facet normal 0 0 1
    outer loop
      vertex -7.5 12.5 1
      vertex -7.5 17.5 1
      vertex -12.5 22.5 1
    endloop
  endfacet
  facet normal 0 0 1
    outer loop
      vertex -7.5 7.5 1
      vertex -7.5 12.5 1
      vertex -12.5 17.5 1
    endloop
  endfacet
  facet normal 0 0 1
    outer loop
      vertex -2.5 12.5 1
      vertex -2.5 7.5 1
      vertex 2.5 2.5 1
    endloop
  endfacet
  facet normal 0 0 1
    outer loop
      vertex -12.5 22.5 1
      vertex -12.5 17.5 1
      vertex -7.5 12.5 1
    endloop
  endfacet
  facet normal 0 0 1
    outer loop
      vertex 2.5 -7.5 1
      vertex 7.5 -7.5 1
      vertex 2.5 -2.5 1
    endloop
  endfacet
  facet normal 0 0 1
    outer loop
      vertex -2.5 17.5 1
      vertex -7.5 17.5 1
      vertex -2.5 12.5 1
    endloop
  endfacet
  facet normal 0 0 1
    outer loop
      vertex -7.5 22.5 1
      vertex -12.5 22.5 1
      vertex -7.5 17.5 1
    endloop
  endfacet
  facet normal 0 0 1
    outer loop
      vertex 27.5 32.5 1
      vertex -12.5 22.5 1
      vertex -7.5 22.5 1
    endloop
  endfacet
  facet normal 0 0 1
    outer loop
      vertex 2.5 -22.5 1
      vertex 2.5 -17.5 1
      vertex -2.5 -17.5 1
    endloop
  endfacet
  facet normal 0 0 1
    outer loop
      vertex 27.5 32.5 1
      vertex -7.5 22.5 1
      vertex -2.5 22.5 1
    endloop
  endfacet
  facet normal 0 0 1
    outer loop
      vertex 2.5 17.5 1
      vertex -2.5 17.5 1
      vertex -2.5 12.5 1
    endloop
  endfacet
  facet normal 0 0 1
    outer loop
      vertex 17.5 -12.5 1
      vertex 17.5 -17.5 1
      vertex 27.5 -32.5 1
    endloop
  endfacet
  facet normal 0 0 1
    outer loop
      vertex 7.5 -7.5 1
      vertex 7.5 -12.5 1
      vertex 12.5 -17.5 1
    endloop
  endfacet
  facet normal 0 0 1
    outer loop
      vertex -7.5 -12.5 1
      vertex -7.5 -7.5 1
      vertex -12.5 -7.5 1
    endloop
  endfacet
  facet normal 0 0 1
    outer loop
      vertex 7.5 -17.5 1
      vertex 12.5 -17.5 1
      vertex 2.5 -12.5 1
    endloop
  endfacet
  facet normal 0 0 1
    outer loop
      vertex 2.5 -17.5 1
      vertex 7.5 -17.5 1
      vertex -2.5 -12.5 1
    endloop
  endfacet
  facet normal 0 0 1
    outer loop
      vertex 7.5 -17.5 1
      vertex 7.5 -22.5 1
      vertex 12.5 -22.5 1
    endloop
  endfacet
  facet normal 0 0 1
    outer loop
      vertex -2.5 2.5 1
      vertex -2.5 -2.5 1
      vertex 2.5 -7.5 1
    endloop
  endfacet
  facet normal 0 0 1
    outer loop
      vertex -2.5 7.5 1
      vertex -7.5 7.5 1
      vertex -2.5 2.5 1
    endloop
  endfacet
  facet normal 0 0 1
    outer loop
      vertex 2.5 2.5 1
      vertex 7.5 2.5 1
      vertex 2.5 7.5 1
    endloop
  endfacet
  facet normal 0 0 1
    outer loop
      vertex 12.5 -17.5 1
      vertex 17.5 -17.5 1
      vertex 12.5 -12.5 1
    endloop
  endfacet
  facet normal 0 0 1
    outer loop
      vertex 7.5 -2.5 1
      vertex 2.5 -2.5 1
      vertex 7.5 -7.5 1
    endloop
  endfacet
  facet normal 0 0 1
    outer loop
      vertex -2.5 7.5 1
      vertex -2.5 2.5 1
      vertex 2.5 -2.5 1
    endloop
  endfacet
  facet normal 0 0 1
    outer loop
      vertex -7.5 2.5 1
      vertex -7.5 7.5 1
      vertex -12.5 12.5 1
    endloop
  endfacet
  facet normal 0 0 1
    outer loop
      vertex -2.5 -2.5 1
      vertex -7.5 -2.5 1
      vertex 2.5 -7.5 1
    endloop
  endfacet
  facet normal 0 0 1
    outer loop
      vertex -2.5 22.5 1
      vertex -2.5 17.5 1
      vertex 2.5 22.5 1
    endloop
  endfacet
  facet normal 0 0 1
    outer loop
      vertex 7.5 -12.5 1
      vertex 2.5 -12.5 1
      vertex 12.5 -17.5 1
    endloop
  endfacet
  facet normal 0 0 1
    outer loop
      vertex 7.5 17.5 1
      vertex 2.5 17.5 1
      vertex -2.5 12.5 1
    endloop
  endfacet
  facet normal 0 0 1
    outer loop
      vertex 2.5 22.5 1
      vertex 7.5 22.5 1
      vertex 27.5 32.5 1
    endloop
  endfacet
  facet normal 0 0 1
    outer loop
      vertex 7.5 7.5 1
      vertex 2.5 7.5 1
      vertex 7.5 2.5 1
    endloop
  endfacet
  facet normal 0 0 1
    outer loop
      vertex 2.5 12.5 1
      vertex -2.5 12.5 1
      vertex 2.5 7.5 1
    endloop
  endfacet
  facet normal 0 0 1
    outer loop
      vertex 7.5 17.5 1
      vertex -2.5 12.5 1
      vertex 2.5 12.5 1
    endloop
  endfacet
  facet normal 0 0 1
    outer loop
      vertex 12.5 17.5 1
      vertex 2.5 12.5 1
      vertex 7.5 12.5 1
    endloop
  endfacet
  facet normal 0 0 1
    outer loop
      vertex 12.5 12.5 1
      vertex 7.5 7.5 1
      vertex 7.5 2.5 1
    endloop
  endfacet
  facet normal 0 0 1
    outer loop
      vertex 12.5 17.5 1
      vertex 7.5 12.5 1
      vertex 7.5 7.5 1
    endloop
  endfacet
  facet normal 0 0 1
    outer loop
      vertex 7.5 22.5 1
      vertex 12.5 22.5 1
      vertex 27.5 32.5 1
    endloop
  endfacet
  facet normal 0 0 1
    outer loop
      vertex -2.5 -17.5 1
      vertex 2.5 -17.5 1
      vertex -7.5 -12.5 1
    endloop
  endfacet
  facet normal 0 0 1
    outer loop
      vertex 27.5 32.5 1
      vertex -2.5 22.5 1
      vertex 2.5 22.5 1
    endloop
  endfacet
  facet normal 0 0 1
    outer loop
      vertex 17.5 -22.5 1
      vertex 12.5 -22.5 1
      vertex 27.5 -32.5 1
    endloop
  endfacet
  facet normal 0 0 1
    outer loop
      vertex 2.5 17.5 1
      vertex 2.5 22.5 1
      vertex -2.5 17.5 1
    endloop
  endfacet
  facet normal 0 0 1
    outer loop
      vertex 2.5 -12.5 1
      vertex 2.5 -7.5 1
      vertex -2.5 -7.5 1
    endloop
  endfacet
  facet normal 0 0 1
    outer loop
      vertex 7.5 -2.5 1
      vertex 7.5 -7.5 1
      vertex 12.5 -12.5 1
    endloop
  endfacet
  facet normal 0 0 1
    outer loop
      vertex 12.5 -7.5 1
      vertex 17.5 -7.5 1
      vertex 12.5 -2.5 1
    endloop
  endfacet
  facet normal 0 0 1
    outer loop
      vertex 12.5 -7.5 1
      vertex 12.5 -2.5 1
      vertex 7.5 2.5 1
    endloop
  endfacet
  facet normal 0 0 1
    outer loop
      vertex 12.5 7.5 1
      vertex 12.5 12.5 1
      vertex 7.5 2.5 1
    endloop
  endfacet
  facet normal 0 0 1
    outer loop
      vertex 2.5 2.5 1
      vertex 2.5 7.5 1
      vertex -2.5 12.5 1
    endloop
  endfacet
  facet normal 0 0 1
    outer loop
      vertex 12.5 2.5 1
      vertex 17.5 2.5 1
      vertex 17.5 7.5 1
    endloop
  endfacet
  facet normal 0 0 1
    outer loop
      vertex 7.5 2.5 1
      vertex 7.5 -2.5 1
      vertex 12.5 -7.5 1
    endloop
  endfacet
  facet normal 0 0 1
    outer loop
      vertex 27.5 32.5 1
      vertex 17.5 -7.5 1
      vertex 27.5 -32.5 1
    endloop
  endfacet
  facet normal 0 0 1
    outer loop
      vertex 17.5 12.5 1
      vertex 17.5 7.5 1
      vertex 27.5 32.5 1
    endloop
  endfacet
  facet normal 0 0 1
    outer loop
      vertex 17.5 -7.5 1
      vertex 17.5 -12.5 1
      vertex 27.5 -32.5 1
    endloop
  endfacet
  facet normal 0 0 1
    outer loop
      vertex 17.5 -2.5 1
      vertex 12.5 -2.5 1
      vertex 17.5 -7.5 1
    endloop
  endfacet
  facet normal 0 0 1
    outer loop
      vertex 12.5 2.5 1
      vertex 7.5 2.5 1
      vertex 12.5 -2.5 1
    endloop
  endfacet
  facet normal 0 0 1
    outer loop
      vertex 17.5 17.5 1
      vertex 12.5 17.5 1
      vertex 12.5 12.5 1
    endloop
  endfacet
  facet normal 0 0 1
    outer loop
      vertex 12.5 7.5 1
      vertex 7.5 2.5 1
      vertex 12.5 2.5 1
    endloop
  endfacet
  facet normal 0 0 1
    outer loop
      vertex 27.5 32.5 1
      vertex 17.5 -2.5 1
      vertex 17.5 -7.5 1
    endloop
  endfacet
  facet normal 0 0 1
    outer loop
      vertex 27.5 32.5 1
      vertex 17.5 2.5 1
      vertex 17.5 -2.5 1
    endloop
  endfacet
  facet normal 0 0 1
    outer loop
      vertex 12.5 12.5 1
      vertex 12.5 17.5 1
      vertex 7.5 7.5 1
    endloop
  endfacet
  facet normal 0 0 1
    outer loop
      vertex 17.5 17.5 1
      vertex 17.5 12.5 1
      vertex 27.5 32.5 1
    endloop
  endfacet
  facet normal 0 0 1
    outer loop
      vertex 12.5 17.5 1
      vertex 7.5 17.5 1
      vertex 2.5 12.5 1
    endloop
  endfacet
  facet normal 0 0 1
    outer loop
      vertex 12.5 12.5 1
      vertex 17.5 12.5 1
      vertex 17.5 17.5 1
    endloop
  endfacet
  facet normal 0 0 1
    outer loop
      vertex 17.5 22.5 1
      vertex 17.5 17.5 1
      vertex 27.5 32.5 1
    endloop
  endfacet
  facet normal 0 0 1
    outer loop
      vertex 27.5 32.5 1
      vertex 17.5 7.5 1
      vertex 17.5 2.5 1
    endloop
  endfacet
  facet normal 0 0 1
    outer loop
      vertex 17.5 7.5 1
      vertex 12.5 7.5 1
      vertex 12.5 2.5 1
    endloop
  endfacet
  facet normal 0 0 1
    outer loop
      vertex 12.5 22.5 1
      vertex 17.5 22.5 1
      vertex 27.5 32.5 1
    endloop
  endfacet
  facet normal 0 0 1
    outer loop
      vertex 12.5 -17.5 1
      vertex 12.5 -12.5 1
      vertex 7.5 -7.5 1
    endloop
  endfacet
  facet normal 0 0 1
    outer loop
      vertex 12.5 17.5 1
      vertex 12.5 22.5 1
      vertex 7.5 17.5 1
    endloop
  endfacet
  facet normal 0 0 1
    outer loop
      vertex -2.5 -17.5 1
      vertex -2.5 -22.5 1
      vertex 2.5 -22.5 1
    endloop
  endfacet
  facet normal 0 0 1
    outer loop
      vertex -12.5 -17.5 1
      vertex -12.5 -22.5 1
      vertex -7.5 -22.5 1
    endloop
  endfacet
  facet normal 0 0 1
    outer loop
      vertex -12.5 -12.5 1
      vertex -17.5 -12.5 1
      vertex -12.5 -17.5 1
    endloop
  endfacet
  facet normal 0 0 1
    outer loop
      vertex 17.5 -12.5 1
      vertex 12.5 -12.5 1
      vertex 17.5 -17.5 1
    endloop
  endfacet
  facet normal 0 0 1
    outer loop
      vertex -12.5 17.5 1
      vertex -12.5 12.5 1
      vertex -7.5 7.5 1
    endloop
  endfacet
  facet normal 0 0 1
    outer loop
      vertex -12.5 17.5 1
      vertex -17.5 17.5 1
      vertex -12.5 12.5 1
    endloop
  endfacet
  facet normal 1 0 0
    outer loop
      vertex 27.5 -32.5 1
      vertex 27.5 -32.5 -1
      vertex 27.5 32.5 -1
    endloop
  endfacet
  facet normal 1 0 0
    outer loop
      vertex 27.5 32.5 1
      vertex 27.5 -32.5 1
      vertex 27.5 32.5 -1
    endloop
  endfacet
  facet normal 1 0 0
    outer loop
      vertex -17.5 -22.5 1
      vertex -17.5 -22.5 -1
      vertex -17.5 -17.5 -1
    endloop
  endfacet
  facet normal 1 0 0
    outer loop
      vertex -17.5 -17.5 1
      vertex -17.5 -22.5 1
      vertex -17.5 -17.5 -1
    endloop
  endfacet
  facet normal 0 -1 0
    outer loop
      vertex -17.5 -17.5 1
      vertex -17.5 -17.5 -1
      vertex -12.5 -17.5 -1
    endloop
  endfacet
  facet normal 0 -1 0
    outer loop
      vertex -12.5 -17.5 1
      vertex -17.5 -17.5 1
      vertex -12.5 -17.5 -1
    endloop
  endfacet
  facet normal -1 0 0
    outer loop
      vertex -12.5 -22.5 -1
      vertex -12.5 -22.5 1
      vertex -12.5 -17.5 -1
    endloop
  endfacet
  facet normal -1 0 0
    outer loop
      vertex -12.5 -17.5 -1
      vertex -12.5 -22.5 1
      vertex -12.5 -17.5 1
    endloop
  endfacet
  facet normal 0 1 0
    outer loop
      vertex -17.5 -22.5 -1
      vertex -17.5 -22.5 1
      vertex -12.5 -22.5 -1
    endloop
  endfacet
  facet normal 0 1 0
    outer loop
      vertex -12.5 -22.5 -1
      vertex -17.5 -22.5 1
      vertex -12.5 -22.5 1
    endloop
  endfacet
  facet normal 1 0 0
    outer loop
      vertex -17.5 -12.5 1
      vertex -17.5 -12.5 -1
      vertex -17.5 -7.5 -1
    endloop
  endfacet
  facet normal 1 0 0
    outer loop
      vertex -17.5 -7.5 1
      vertex -17.5 -12.5 1
      vertex -17.5 -7.5 -1
    endloop
  endfacet
  facet normal 0 -1 0
    outer loop
      vertex -17.5 -7.5 1
      vertex -17.5 -7.5 -1
      vertex -12.5 -7.5 -1
    endloop
  endfacet
  facet normal 0 -1 0
    outer loop
      vertex -12.5 -7.5 1
      vertex -17.5 -7.5 1
      vertex -12.5 -7.5 -1
    endloop
  endfacet
  facet normal -1 0 0
    outer loop
      vertex -12.5 -12.5 -1
      vertex -12.5 -12.5 1
      vertex -12.5 -7.5 -1
    endloop
  endfacet
  facet normal -1 0 0
    outer loop
      vertex -12.5 -7.5 -1
      vertex -12.5 -12.5 1
      vertex -12.5 -7.5 1
    endloop
  endfacet
  facet normal 0 1 0
    outer loop
      vertex -17.5 -12.5 -1
      vertex -17.5 -12.5 1
      vertex -12.5 -12.5 -1
    endloop
  endfacet
  facet normal 0 1 0
    outer loop
      vertex -12.5 -12.5 -1
      vertex -17.5 -12.5 1
      vertex -12.5 -12.5 1
    endloop
  endfacet
  facet normal 1 0 0
    outer loop
      vertex -17.5 -2.5 1
      vertex -17.5 -2.5 -1
      vertex -17.5 2.5 -1
    endloop
  endfacet
  facet normal 1 0 0
    outer loop
      vertex -17.5 2.5 1
      vertex -17.5 -2.5 1
      vertex -17.5 2.5 -1
    endloop
  endfacet
  facet normal 0 -1 0
    outer loop
      vertex -17.5 2.5 1
      vertex -17.5 2.5 -1
      vertex -12.5 2.5 -1
    endloop
  endfacet
  facet normal 0 -1 0
    outer loop
      vertex -12.5 2.5 1
      vertex -17.5 2.5 1
      vertex -12.5 2.5 -1
    endloop
  endfacet
  facet normal -1 0 0
    outer loop
      vertex -12.5 -2.5 -1
      vertex -12.5 -2.5 1
      vertex -12.5 2.5 -1
    endloop
  endfacet
  facet normal -1 0 0
    outer loop
      vertex -12.5 2.5 -1
      vertex -12.5 -2.5 1
      vertex -12.5 2.5 1
    endloop
  endfacet
  facet normal 0 1 0
    outer loop
      vertex -17.5 -2.5 -1
      vertex -17.5 -2.5 1
      vertex -12.5 -2.5 -1
    endloop
  endfacet
  facet normal 0 1 0
    outer loop
      vertex -12.5 -2.5 -1
      vertex -17.5 -2.5 1
      vertex -12.5 -2.5 1
    endloop
  endfacet
  facet normal 1 0 0
    outer loop
      vertex -17.5 7.5 1
      vertex -17.5 7.5 -1
      vertex -17.5 12.5 -1
    endloop
  endfacet
  facet normal 1 0 0
    outer loop
      vertex -17.5 12.5 1
      vertex -17.5 7.5 1
      vertex -17.5 12.5 -1
    endloop
  endfacet
  facet normal 0 -1 0
    outer loop
      vertex -17.5 12.5 1
      vertex -17.5 12.5 -1
      vertex -12.5 12.5 -1
    endloop
  endfacet
  facet normal 0 -1 0
    outer loop
      vertex -12.5 12.5 1
      vertex -17.5 12.5 1
      vertex -12.5 12.5 -1
    endloop
  endfacet
  facet normal -1 0 0
    outer loop
      vertex -12.5 7.5 -1
      vertex -12.5 7.5 1
      vertex -12.5 12.5 -1
    endloop
  endfacet
  facet normal -1 0 0
    outer loop
      vertex -12.5 12.5 -1
      vertex -12.5 7.5 1
      vertex -12.5 12.5 1
    endloop
  endfacet
  facet normal 0 1 0
    outer loop
      vertex -17.5 7.5 -1
      vertex -17.5 7.5 1
      vertex -12.5 7.5 -1
    endloop
  endfacet
  facet normal 0 1 0
    outer loop
      vertex -12.5 7.5 -1
      vertex -17.5 7.5 1
      vertex -12.5 7.5 1
    endloop
  endfacet
  facet normal 1 0 0
    outer loop
      vertex -17.5 17.5 1
      vertex -17.5 17.5 -1
      vertex -17.5 22.5 -1
    endloop
  endfacet
  facet normal 1 0 0
    outer loop
      vertex -17.5 22.5 1
      vertex -17.5 17.5 1
      vertex -17.5 22.5 -1
    endloop
  endfacet
  facet normal 0 -1 0
    outer loop
      vertex -17.5 22.5 1
      vertex -17.5 22.5 -1
      vertex -12.5 22.5 -1
    endloop
  endfacet
  facet normal 0 -1 0
    outer loop
      vertex -12.5 22.5 1
      vertex -17.5 22.5 1
      vertex -12.5 22.5 -1
    endloop
  endfacet
  facet normal -1 0 0
    outer loop
      vertex -12.5 17.5 -1
      vertex -12.5 17.5 1
      vertex -12.5 22.5 -1
    endloop
  endfacet
  facet normal -1 0 0
    outer loop
      vertex -12.5 22.5 -1
      vertex -12.5 17.5 1
      vertex -12.5 22.5 1
    endloop
  endfacet
  facet normal 0 1 0
    outer loop
      vertex -17.5 17.5 -1
      vertex -17.5 17.5 1
      vertex -12.5 17.5 -1
    endloop
  endfacet
  facet normal 0 1 0
    outer loop
      vertex -12.5 17.5 -1
      vertex -17.5 17.5 1
      vertex -12.5 17.5 1
    endloop
  endfacet
  facet normal 1 0 0
    outer loop
      vertex -7.5 -22.5 1
      vertex -7.5 -22.5 -1
      vertex -7.5 -17.5 -1
    endloop
  endfacet
  facet normal 1 0 0
    outer loop
      vertex -7.5 -17.5 1
      vertex -7.5 -22.5 1
      vertex -7.5 -17.5 -1
    endloop
  endfacet
  facet normal 0 -1 0
    outer loop
      vertex -7.5 -17.5 1
      vertex -7.5 -17.5 -1
      vertex -2.5 -17.5 -1
    endloop
  endfacet
  facet normal 0 -1 0
    outer loop
      vertex -2.5 -17.5 1
      vertex -7.5 -17.5 1
      vertex -2.5 -17.5 -1
    endloop
  endfacet
  facet normal -1 0 0
    outer loop
      vertex -2.5 -22.5 -1
      vertex -2.5 -22.5 1
      vertex -2.5 -17.5 -1
    endloop
  endfacet
  facet normal -1 0 0
    outer loop
      vertex -2.5 -17.5 -1
      vertex -2.5 -22.5 1
      vertex -2.5 -17.5 1
    endloop
  endfacet
  facet normal 0 1 0
    outer loop
      vertex -7.5 -22.5 -1
      vertex -7.5 -22.5 1
      vertex -2.5 -22.5 -1
    endloop
  endfacet
  facet normal 0 1 0
    outer loop
      vertex -2.5 -22.5 -1
      vertex -7.5 -22.5 1
      vertex -2.5 -22.5 1
    endloop
  endfacet
  facet normal 1 0 0
    outer loop
      vertex -7.5 -12.5 1
      vertex -7.5 -12.5 -1
      vertex -7.5 -7.5 -1
    endloop
  endfacet
  facet normal 1 0 0
    outer loop
      vertex -7.5 -7.5 1
      vertex -7.5 -12.5 1
      vertex -7.5 -7.5 -1
    endloop
  endfacet
  facet normal 0 -1 0
    outer loop
      vertex -7.5 -7.5 1
      vertex -7.5 -7.5 -1
      vertex -2.5 -7.5 -1
    endloop
  endfacet
  facet normal 0 -1 0
    outer loop
      vertex -2.5 -7.5 1
      vertex -7.5 -7.5 1
      vertex -2.5 -7.5 -1
    endloop
  endfacet
  facet normal -1 0 0
    outer loop
      vertex -2.5 -12.5 -1
      vertex -2.5 -12.5 1
      vertex -2.5 -7.5 -1
    endloop
  endfacet
  facet normal -1 0 0
    outer loop
      vertex -2.5 -7.5 -1
      vertex -2.5 -12.5 1
      vertex -2.5 -7.5 1
    endloop
  endfacet
  facet normal 0 1 0
    outer loop
      vertex -7.5 -12.5 -1
      vertex -7.5 -12.5 1
      vertex -2.5 -12.5 -1
    endloop
  endfacet
  facet normal 0 1 0
    outer loop
      vertex -2.5 -12.5 -1
      vertex -7.5 -12.5 1
      vertex -2.5 -12.5 1
    endloop
  endfacet
  facet normal 1 0 0
    outer loop
      vertex -7.5 -2.5 1
      vertex -7.5 -2.5 -1
      vertex -7.5 2.5 -1
    endloop
  endfacet
  facet normal 1 0 0
    outer loop
      vertex -7.5 2.5 1
      vertex -7.5 -2.5 1
      vertex -7.5 2.5 -1
    endloop
  endfacet
  facet normal 0 -1 0
    outer loop
      vertex -7.5 2.5 1
      vertex -7.5 2.5 -1
      vertex -2.5 2.5 -1
    endloop
  endfacet
  facet normal 0 -1 0
    outer loop
      vertex -2.5 2.5 1
      vertex -7.5 2.5 1
      vertex -2.5 2.5 -1
    endloop
  endfacet
  facet normal -1 0 0
    outer loop
      vertex -2.5 -2.5 -1
      vertex -2.5 -2.5 1
      vertex -2.5 2.5 -1
    endloop
  endfacet
  facet normal -1 0 0
    outer loop
      vertex -2.5 2.5 -1
      vertex -2.5 -2.5 1
      vertex -2.5 2.5 1
    endloop
  endfacet
  facet normal 0 1 0
    outer loop
      vertex -7.5 -2.5 -1
      vertex -7.5 -2.5 1
      vertex -2.5 -2.5 -1
    endloop
  endfacet
  facet normal 0 1 0
    outer loop
      vertex -2.5 -2.5 -1
      vertex -7.5 -2.5 1
      vertex -2.5 -2.5 1
    endloop
  endfacet
  facet normal 1 0 0
    outer loop
      vertex -7.5 7.5 1
      vertex -7.5 7.5 -1
      vertex -7.5 12.5 -1
    endloop
  endfacet
  facet normal 1 0 0
    outer loop
      vertex -7.5 12.5 1
      vertex -7.5 7.5 1
      vertex -7.5 12.5 -1
    endloop
  endfacet
  facet normal 0 -1 0
    outer loop
      vertex -7.5 12.5 1
      vertex -7.5 12.5 -1
      vertex -2.5 12.5 -1
    endloop
  endfacet
  facet normal 0 -1 0
    outer loop
      vertex -2.5 12.5 1
      vertex -7.5 12.5 1
      vertex -2.5 12.5 -1
    endloop
  endfacet
  facet normal -1 0 0
    outer loop
      vertex -2.5 7.5 -1
      vertex -2.5 7.5 1
      vertex -2.5 12.5 -1
    endloop
  endfacet
  facet normal -1 0 0
    outer loop
      vertex -2.5 12.5 -1
      vertex -2.5 7.5 1
      vertex -2.5 12.5 1
    endloop
  endfacet
  facet normal 0 1 0
    outer loop
      vertex -7.5 7.5 -1
      vertex -7.5 7.5 1
      vertex -2.5 7.5 -1
    endloop
  endfacet
  facet normal 0 1 0
    outer loop
      vertex -2.5 7.5 -1
      vertex -7.5 7.5 1
      vertex -2.5 7.5 1
    endloop
  endfacet
  facet normal 1 0 0
    outer loop
      vertex -7.5 17.5 1
      vertex -7.5 17.5 -1
      vertex -7.5 22.5 -1
    endloop
  endfacet
  facet normal 1 0 0
    outer loop
      vertex -7.5 22.5 1
      vertex -7.5 17.5 1
      vertex -7.5 22.5 -1
    endloop
  endfacet
  facet normal 0 -1 0
    outer loop
      vertex -7.5 22.5 1
      vertex -7.5 22.5 -1
      vertex -2.5 22.5 -1
    endloop
  endfacet
  facet normal 0 -1 0
    outer loop
      vertex -2.5 22.5 1
      vertex -7.5 22.5 1
      vertex -2.5 22.5 -1
    endloop
  endfacet
  facet normal -1 0 0
    outer loop
      vertex -2.5 17.5 -1
      vertex -2.5 17.5 1
      vertex -2.5 22.5 -1
    endloop
  endfacet
  facet normal -1 0 0
    outer loop
      vertex -2.5 22.5 -1
      vertex -2.5 17.5 1
      vertex -2.5 22.5 1
    endloop
  endfacet
  facet normal 0 1 0
    outer loop
      vertex -7.5 17.5 -1
      vertex -7.5 17.5 1
      vertex -2.5 17.5 -1
    endloop
  endfacet
  facet normal 0 1 0
    outer loop
      vertex -2.5 17.5 -1
      vertex -7.5 17.5 1
      vertex -2.5 17.5 1
    endloop
  endfacet
  facet normal 1 0 0
    outer loop
      vertex 2.5 -22.5 1
      vertex 2.5 -22.5 -1
      vertex 2.5 -17.5 -1
    endloop
  endfacet
  facet normal 1 0 0
    outer loop
      vertex 2.5 -17.5 1
      vertex 2.5 -22.5 1
      vertex 2.5 -17.5 -1
    endloop
  endfacet
  facet normal 0 -1 0
    outer loop
      vertex 2.5 -17.5 1
      vertex 2.5 -17.5 -1
      vertex 7.5 -17.5 -1
    endloop
  endfacet
  facet normal 0 -1 0
    outer loop
      vertex 7.5 -17.5 1
      vertex 2.5 -17.5 1
      vertex 7.5 -17.5 -1
    endloop
  endfacet
  facet normal -1 0 0
    outer loop
      vertex 7.5 -22.5 -1
      vertex 7.5 -22.5 1
      vertex 7.5 -17.5 -1
    endloop
  endfacet
  facet normal -1 0 0
    outer loop
      vertex 7.5 -17.5 -1
      vertex 7.5 -22.5 1
      vertex 7.5 -17.5 1
    endloop
  endfacet
  facet normal 0 1 0
    outer loop
      vertex 2.5 -22.5 -1
      vertex 2.5 -22.5 1
      vertex 7.5 -22.5 -1
    endloop
  endfacet
  facet normal 0 1 0
    outer loop
      vertex 7.5 -22.5 -1
      vertex 2.5 -22.5 1
      vertex 7.5 -22.5 1
    endloop
  endfacet
  facet normal 1 0 0
    outer loop
      vertex 2.5 -12.5 1
      vertex 2.5 -12.5 -1
      vertex 2.5 -7.5 -1
    endloop
  endfacet
  facet normal 1 0 0
    outer loop
      vertex 2.5 -7.5 1
      vertex 2.5 -12.5 1
      vertex 2.5 -7.5 -1
    endloop
  endfacet
  facet normal 0 -1 0
    outer loop
      vertex 2.5 -7.5 1
      vertex 2.5 -7.5 -1
      vertex 7.5 -7.5 -1
    endloop
  endfacet
  facet normal 0 -1 0
    outer loop
      vertex 7.5 -7.5 1
      vertex 2.5 -7.5 1
      vertex 7.5 -7.5 -1
    endloop
  endfacet
  facet normal -1 0 0
    outer loop
      vertex 7.5 -12.5 -1
      vertex 7.5 -12.5 1
      vertex 7.5 -7.5 -1
    endloop
  endfacet
  facet normal -1 0 0
    outer loop
      vertex 7.5 -7.5 -1
      vertex 7.5 -12.5 1
      vertex 7.5 -7.5 1
    endloop
  endfacet
  facet normal 0 1 0
    outer loop
      vertex 2.5 -12.5 -1
      vertex 2.5 -12.5 1
      vertex 7.5 -12.5 -1
    endloop
  endfacet
  facet normal 0 1 0
    outer loop
      vertex 7.5 -12.5 -1
      vertex 2.5 -12.5 1
      vertex 7.5 -12.5 1
    endloop
  endfacet
  facet normal 1 0 0
    outer loop
      vertex 2.5 -2.5 1
      vertex 2.5 -2.5 -1
      vertex 2.5 2.5 -1
    endloop
  endfacet
  facet normal 1 0 0
    outer loop
      vertex 2.5 2.5 1
      vertex 2.5 -2.5 1
      vertex 2.5 2.5 -1
    endloop
  endfacet
  facet normal 0 -1 0
    outer loop
      vertex 2.5 2.5 1
      vertex 2.5 2.5 -1
      vertex 7.5 2.5 -1
    endloop
  endfacet
  facet normal 0 -1 0
    outer loop
      vertex 7.5 2.5 1
      vertex 2.5 2.5 1
      vertex 7.5 2.5 -1
    endloop
  endfacet
  facet normal -1 0 0
    outer loop
      vertex 7.5 -2.5 -1
      vertex 7.5 -2.5 1
      vertex 7.5 2.5 -1
    endloop
  endfacet
  facet normal -1 0 0
    outer loop
      vertex 7.5 2.5 -1
      vertex 7.5 -2.5 1
      vertex 7.5 2.5 1
    endloop
  endfacet
  facet normal 0 1 0
    outer loop
      vertex 2.5 -2.5 -1
      vertex 2.5 -2.5 1
      vertex 7.5 -2.5 -1
    endloop
  endfacet
  facet normal 0 1 0
    outer loop
      vertex 7.5 -2.5 -1
      vertex 2.5 -2.5 1
      vertex 7.5 -2.5 1
    endloop
  endfacet
  facet normal 1 0 0
    outer loop
      vertex 2.5 7.5 1
      vertex 2.5 7.5 -1
      vertex 2.5 12.5 -1
    endloop
  endfacet
  facet normal 1 0 0
    outer loop
      vertex 2.5 12.5 1
      vertex 2.5 7.5 1
      vertex 2.5 12.5 -1
    endloop
  endfacet
  facet normal 0 -1 0
    outer loop
      vertex 2.5 12.5 1
      vertex 2.5 12.5 -1
      vertex 7.5 12.5 -1
    endloop
  endfacet
  facet normal 0 -1 0
    outer loop
      vertex 7.5 12.5 1
      vertex 2.5 12.5 1
      vertex 7.5 12.5 -1
    endloop
  endfacet
  facet normal -1 0 0
    outer loop
      vertex 7.5 7.5 -1
      vertex 7.5 7.5 1
      vertex 7.5 12.5 -1
    endloop
  endfacet
  facet normal -1 0 0
    outer loop
      vertex 7.5 12.5 -1
      vertex 7.5 7.5 1
      vertex 7.5 12.5 1
    endloop
  endfacet
  facet normal 0 1 0
    outer loop
      vertex 2.5 7.5 -1
      vertex 2.5 7.5 1
      vertex 7.5 7.5 -1
    endloop
  endfacet
  facet normal 0 1 0
    outer loop
      vertex 7.5 7.5 -1
      vertex 2.5 7.5 1
      vertex 7.5 7.5 1
    endloop
  endfacet
  facet normal 1 0 0
    outer loop
      vertex 2.5 17.5 1
      vertex 2.5 17.5 -1
      vertex 2.5 22.5 -1
    endloop
  endfacet
  facet normal 1 0 0
    outer loop
      vertex 2.5 22.5 1
      vertex 2.5 17.5 1
      vertex 2.5 22.5 -1
    endloop
  endfacet
  facet normal 0 -1 0
    outer loop
      vertex 2.5 22.5 1
      vertex 2.5 22.5 -1
      vertex 7.5 22.5 -1
    endloop
  endfacet
  facet normal 0 -1 0
    outer loop
      vertex 7.5 22.5 1
      vertex 2.5 22.5 1
      vertex 7.5 22.5 -1
    endloop
  endfacet
  facet normal -1 0 0
    outer loop
      vertex 7.5 17.5 -1
      vertex 7.5 17.5 1
      vertex 7.5 22.5 -1
    endloop
  endfacet
  facet normal -1 0 0
    outer loop
      vertex 7.5 22.5 -1
      vertex 7.5 17.5 1
      vertex 7.5 22.5 1
    endloop
  endfacet
  facet normal 0 1 0
    outer loop
      vertex 2.5 17.5 -1
      vertex 2.5 17.5 1
      vertex 7.5 17.5 -1
    endloop
  endfacet
  facet normal 0 1 0
    outer loop
      vertex 7.5 17.5 -1
      vertex 2.5 17.5 1
      vertex 7.5 17.5 1
    endloop
  endfacet
  facet normal 1 0 0
    outer loop
      vertex 12.5 -22.5 1
      vertex 12.5 -22.5 -1
      vertex 12.5 -17.5 -1
    endloop
  endfacet
  facet normal 1 0 0
    outer loop
      vertex 12.5 -17.5 1
      vertex 12.5 -22.5 1
      vertex 12.5 -17.5 -1
    endloop
  endfacet
  facet normal 0 -1 0
    outer loop
      vertex 12.5 -17.5 1
      vertex 12.5 -17.5 -1
      vertex 17.5 -17.5 -1
    endloop
  endfacet
  facet normal 0 -1 0
    outer loop
      vertex 17.5 -17.5 1
      vertex 12.5 -17.5 1
      vertex 17.5 -17.5 -1
    endloop
  endfacet
  facet normal -1 0 0
    outer loop
      vertex 17.5 -22.5 -1
      vertex 17.5 -22.5 1
      vertex 17.5 -17.5 -1
    endloop
  endfacet
  facet normal -1 0 0
    outer loop
      vertex 17.5 -17.5 -1
      vertex 17.5 -22.5 1
      vertex 17.5 -17.5 1
    endloop
  endfacet
  facet normal 0 1 0
    outer loop
      vertex 12.5 -22.5 -1
      vertex 12.5 -22.5 1
      vertex 17.5 -22.5 -1
    endloop
  endfacet
  facet normal 0 1 0
    outer loop
      vertex 17.5 -22.5 -1
      vertex 12.5 -22.5 1
      vertex 17.5 -22.5 1
    endloop
  endfacet
  facet normal 1 0 0
    outer loop
      vertex 12.5 -12.5 1
      vertex 12.5 -12.5 -1
      vertex 12.5 -7.5 -1
    endloop
  endfacet
  facet normal 1 0 0
    outer loop
      vertex 12.5 -7.5 1
      vertex 12.5 -12.5 1
      vertex 12.5 -7.5 -1
    endloop
  endfacet
  facet normal 0 -1 0
    outer loop
      vertex 12.5 -7.5 1
      vertex 12.5 -7.5 -1
      vertex 17.5 -7.5 -1
    endloop
  endfacet
  facet normal 0 -1 0
    outer loop
      vertex 17.5 -7.5 1
      vertex 12.5 -7.5 1
      vertex 17.5 -7.5 -1
    endloop
  endfacet
  facet normal -1 0 0
    outer loop
      vertex 17.5 -12.5 -1
      vertex 17.5 -12.5 1
      vertex 17.5 -7.5 -1
    endloop
  endfacet
  facet normal -1 0 0
    outer loop
      vertex 17.5 -7.5 -1
      vertex 17.5 -12.5 1
      vertex 17.5 -7.5 1
    endloop
  endfacet
  facet normal 0 1 0
    outer loop
      vertex 12.5 -12.5 -1
      vertex 12.5 -12.5 1
      vertex 17.5 -12.5 -1
    endloop
  endfacet
  facet normal 0 1 0
    outer loop
      vertex 17.5 -12.5 -1
      vertex 12.5 -12.5 1
      vertex 17.5 -12.5 1
    endloop
  endfacet
  facet normal 1 0 0
    outer loop
      vertex 12.5 -2.5 1
      vertex 12.5 -2.5 -1
      vertex 12.5 2.5 -1
    endloop
  endfacet
  facet normal 1 0 0
    outer loop
      vertex 12.5 2.5 1
      vertex 12.5 -2.5 1
      vertex 12.5 2.5 -1
    endloop
  endfacet
  facet normal 0 -1 0
    outer loop
      vertex 12.5 2.5 1
      vertex 12.5 2.5 -1
      vertex 17.5 2.5 -1
    endloop
  endfacet
  facet normal 0 -1 0
    outer loop
      vertex 17.5 2.5 1
      vertex 12.5 2.5 1
      vertex 17.5 2.5 -1
    endloop
  endfacet
  facet normal -1 0 0
    outer loop
      vertex 17.5 -2.5 -1
      vertex 17.5 -2.5 1
      vertex 17.5 2.5 -1
    endloop
  endfacet
  facet normal -1 0 0
    outer loop
      vertex 17.5 2.5 -1
      vertex 17.5 -2.5 1
      vertex 17.5 2.5 1
    endloop
  endfacet
  facet normal 0 1 0
    outer loop
      vertex 12.5 -2.5 -1
      vertex 12.5 -2.5 1
      vertex 17.5 -2.5 -1
    endloop
  endfacet
  facet normal 0 1 0
    outer loop
      vertex 17.5 -2.5 -1
      vertex 12.5 -2.5 1
      vertex 17.5 -2.5 1
    endloop
  endfacet
  facet normal 1 0 0
    outer loop
      vertex 12.5 7.5 1
      vertex 12.5 7.5 -1
      vertex 12.5 12.5 -1
    endloop
  endfacet
  facet normal 1 0 0
    outer loop
      vertex 12.5 12.5 1
      vertex 12.5 7.5 1
      vertex 12.5 12.5 -1
    endloop
  endfacet
  facet normal 0 -1 0
    outer loop
      vertex 12.5 12.5 1
      vertex 12.5 12.5 -1
      vertex 17.5 12.5 -1
    endloop
  endfacet
  facet normal 0 -1 0
    outer loop
      vertex 17.5 12.5 1
      vertex 12.5 12.5 1
      vertex 17.5 12.5 -1
    endloop
  endfacet
  facet normal -1 0 0
    outer loop
      vertex 17.5 7.5 -1
      vertex 17.5 7.5 1
      vertex 17.5 12.5 -1
    endloop
  endfacet
  facet normal -1 0 0
    outer loop
      vertex 17.5 12.5 -1
      vertex 17.5 7.5 1
      vertex 17.5 12.5 1
    endloop
  endfacet
  facet normal 0 1 0
    outer loop
      vertex 12.5 7.5 -1
      vertex 12.5 7.5 1
      vertex 17.5 7.5 -1
    endloop
  endfacet
  facet normal 0 1 0
    outer loop
      vertex 17.5 7.5 -1
      vertex 12.5 7.5 1
      vertex 17.5 7.5 1
    endloop
  endfacet
  facet normal 1 0 0
    outer loop
      vertex 12.5 17.5 1
      vertex 12.5 17.5 -1
      vertex 12.5 22.5 -1
    endloop
  endfacet
  facet normal 1 0 0
    outer loop
      vertex 12.5 22.5 1
      vertex 12.5 17.5 1
      vertex 12.5 22.5 -1
    endloop
  endfacet
  facet normal 0 -1 0
    outer loop
      vertex 12.5 22.5 1
      vertex 12.5 22.5 -1
      vertex 17.5 22.5 -1
    endloop
  endfacet
  facet normal 0 -1 0
    outer loop
      vertex 17.5 22.5 1
      vertex 12.5 22.5 1
      vertex 17.5 22.5 -1
    endloop
  endfacet
  facet normal -1 0 0
    outer loop
      vertex 17.5 17.5 -1
      vertex 17.5 17.5 1
      vertex 17.5 22.5 -1
    endloop
  endfacet
  facet normal -1 0 0
    outer loop
      vertex 17.5 22.5 -1
      vertex 17.5 17.5 1
      vertex 17.5 22.5 1
    endloop
  endfacet
  facet normal 0 1 0
    outer loop
      vertex 12.5 17.5 -1
      vertex 12.5 17.5 1
      vertex 17.5 17.5 -1
    endloop
  endfacet
  facet normal 0 1 0
    outer loop
      vertex 17.5 17.5 -1
      vertex 12.5 17.5 1
      vertex 17.5 17.5 1
    endloop
  endfacet
endsolid OpenSCAD_Model
