solid OpenSCAD_Model
  facet normal -1 0 0
    outer loop
      vertex -12.5645 0.557671 5
      vertex -12.5645 0.557671 0
      vertex -12.5645 -0.557671 5
    endloop
  endfacet
  facet normal -1 0 0
    outer loop
      vertex -12.5645 -0.557671 5
      vertex -12.5645 0.557671 0
      vertex -12.5645 -0.557671 0
    endloop
  endfacet
  facet normal -0.412357 -0.911022 0
    outer loop
      vertex -10.6878 -1.40716 0
      vertex -10.6878 -1.40716 5
      vertex -12.5645 -0.557671 5
    endloop
  endfacet
  facet normal -0.412357 -0.911022 0
    outer loop
      vertex -12.5645 -0.557671 0
      vertex -10.6878 -1.40716 0
      vertex -12.5645 -0.557671 5
    endloop
  endfacet
  facet normal 0 0 -1
    outer loop
      vertex -10.6878 1.40716 0
      vertex -10.0226 1.47179 0
      vertex -12.5645 0.557671 0
    endloop
  endfacet
  facet normal 0 0 -1
    outer loop
      vertex -12.5645 0.557671 0
      vertex -10.0226 1.47179 0
      vertex -8.88802 1.30528 0
    endloop
  endfacet
  facet normal 0 0 -1
    outer loop
      vertex -8.34983 3.31385 0
      vertex -9.4155 3.73662 0
      vertex -9.95962 4.12524 0
    endloop
  endfacet
  facet normal 0 0 -1
    outer loop
      vertex -8.34983 3.31385 0
      vertex -9.95962 4.12524 0
      vertex -11.1599 5.79938 0
    endloop
  endfacet
  facet normal 0 0 -1
    outer loop
      vertex -8.34983 3.31385 0
      vertex -11.1599 5.79938 0
      vertex -10.6022 6.76515 0
    endloop
  endfacet
  facet normal 0 0 -1
    outer loop
      vertex -8.34983 3.31385 0
      vertex -10.6022 6.76515 0
      vertex -8.55246 6.56251 0
    endloop
  endfacet
  facet normal 0 0 -1
    outer loop
      vertex -8.34983 3.31385 0
      vertex -8.55246 6.56251 0
      vertex -7.94371 6.28594 0
    endloop
  endfacet
  facet normal 0 0 -1
    outer loop
      vertex -8.34983 3.31385 0
      vertex -7.94371 6.28594 0
      vertex -7.04483 5.57445 0
    endloop
  endfacet
  facet normal 0 0 -1
    outer loop
      vertex -8.34983 3.31385 0
      vertex -7.04483 5.57445 0
      vertex -8.88802 1.30528 0
    endloop
  endfacet
  facet normal 0 0 -1
    outer loop
      vertex -8.88802 1.30528 0
      vertex -7.04483 5.57445 0
      vertex -5.57445 7.04483 0
    endloop
  endfacet
  facet normal 0 0 -1
    outer loop
      vertex -5.57445 7.04483 0
      vertex -6.28594 7.94371 0
      vertex -6.56251 8.55246 0
    endloop
  endfacet
  facet normal 0 0 -1
    outer loop
      vertex -5.57445 7.04483 0
      vertex -6.56251 8.55246 0
      vertex -6.76515 10.6022 0
    endloop
  endfacet
  facet normal 0 0 -1
    outer loop
      vertex -5.57445 7.04483 0
      vertex -6.76515 10.6022 0
      vertex -5.79938 11.1599 0
    endloop
  endfacet
  facet normal 0 0 -1
    outer loop
      vertex -5.57445 7.04483 0
      vertex -5.79938 11.1599 0
      vertex -4.12524 9.95962 0
    endloop
  endfacet
  facet normal 0 0 -1
    outer loop
      vertex -5.57445 7.04483 0
      vertex -4.12524 9.95962 0
      vertex -3.73662 9.4155 0
    endloop
  endfacet
  facet normal 0 0 -1
    outer loop
      vertex -5.57445 7.04483 0
      vertex -3.73662 9.4155 0
      vertex -8.88802 1.30528 0
    endloop
  endfacet
  facet normal 0 0 -1
    outer loop
      vertex -8.88802 1.30528 0
      vertex -3.73662 9.4155 0
      vertex -3.31385 8.34983 0
    endloop
  endfacet
  facet normal 0 0 -1
    outer loop
      vertex -8.88802 1.30528 0
      vertex -3.31385 8.34983 0
      vertex -1.30528 8.88802 0
    endloop
  endfacet
  facet normal 0 0 -1
    outer loop
      vertex -1.30528 8.88802 0
      vertex -1.47179 10.0226 0
      vertex -1.40716 10.6878 0
    endloop
  endfacet
  facet normal 0 0 -1
    outer loop
      vertex -1.30528 8.88802 0
      vertex -1.40716 10.6878 0
      vertex -0.557671 12.5645 0
    endloop
  endfacet
  facet normal 0 0 -1
    outer loop
      vertex -1.30528 8.88802 0
      vertex -0.557671 12.5645 0
      vertex 0.557671 12.5645 0
    endloop
  endfacet
  facet normal 0 0 -1
    outer loop
      vertex -1.30528 8.88802 0
      vertex 0.557671 12.5645 0
      vertex 1.40716 10.6878 0
    endloop
  endfacet
  facet normal 0 0 -1
    outer loop
      vertex -1.30528 8.88802 0
      vertex 1.40716 10.6878 0
      vertex -8.88802 1.30528 0
    endloop
  endfacet
  facet normal 0 0 -1
    outer loop
      vertex -8.88802 1.30528 0
      vertex 1.40716 10.6878 0
      vertex 1.47179 10.0226 0
    endloop
  endfacet
  facet normal 0 0 -1
    outer loop
      vertex -8.88802 1.30528 0
      vertex 1.47179 10.0226 0
      vertex 1.30528 8.88802 0
    endloop
  endfacet
  facet normal 0 0 -1
    outer loop
      vertex -8.88802 1.30528 0
      vertex 1.30528 8.88802 0
      vertex 3.31385 8.34983 0
    endloop
  endfacet
  facet normal 0 0 -1
    outer loop
      vertex 3.31385 8.34983 0
      vertex 3.73662 9.4155 0
      vertex 4.12524 9.95962 0
    endloop
  endfacet
  facet normal 0 0 -1
    outer loop
      vertex 3.31385 8.34983 0
      vertex 4.12524 9.95962 0
      vertex 5.79938 11.1599 0
    endloop
  endfacet
  facet normal 0 0 -1
    outer loop
      vertex 3.31385 8.34983 0
      vertex 5.79938 11.1599 0
      vertex 6.76515 10.6022 0
    endloop
  endfacet
  facet normal 0 0 -1
    outer loop
      vertex 3.31385 8.34983 0
      vertex 6.76515 10.6022 0
      vertex 6.56251 8.55246 0
    endloop
  endfacet
  facet normal 0 0 -1
    outer loop
      vertex 3.31385 8.34983 0
      vertex 6.56251 8.55246 0
      vertex -8.88802 1.30528 0
    endloop
  endfacet
  facet normal 0 0 -1
    outer loop
      vertex -8.88802 1.30528 0
      vertex 6.56251 8.55246 0
      vertex 6.28594 7.94371 0
    endloop
  endfacet
  facet normal 0 0 -1
    outer loop
      vertex -8.88802 1.30528 0
      vertex 6.28594 7.94371 0
      vertex 5.57445 7.04483 0
    endloop
  endfacet
  facet normal 0 0 -1
    outer loop
      vertex -8.88802 1.30528 0
      vertex 5.57445 7.04483 0
      vertex 7.04483 5.57445 0
    endloop
  endfacet
  facet normal 0 0 -1
    outer loop
      vertex 7.04483 5.57445 0
      vertex 7.94371 6.28594 0
      vertex 8.55246 6.56251 0
    endloop
  endfacet
  facet normal 0 0 -1
    outer loop
      vertex 7.04483 5.57445 0
      vertex 8.55246 6.56251 0
      vertex 10.6022 6.76515 0
    endloop
  endfacet
  facet normal 0 0 -1
    outer loop
      vertex 7.04483 5.57445 0
      vertex 10.6022 6.76515 0
      vertex 11.1599 5.79938 0
    endloop
  endfacet
  facet normal 0 0 -1
    outer loop
      vertex 7.04483 5.57445 0
      vertex 11.1599 5.79938 0
      vertex -8.88802 1.30528 0
    endloop
  endfacet
  facet normal 0 0 -1
    outer loop
      vertex -8.88802 1.30528 0
      vertex 11.1599 5.79938 0
      vertex 9.95962 4.12524 0
    endloop
  endfacet
  facet normal 0 0 -1
    outer loop
      vertex -8.88802 1.30528 0
      vertex 9.95962 4.12524 0
      vertex -12.5645 0.557671 0
    endloop
  endfacet
  facet normal 0 0 -1
    outer loop
      vertex -12.5645 0.557671 0
      vertex 9.95962 4.12524 0
      vertex 9.4155 3.73662 0
    endloop
  endfacet
  facet normal 0 0 -1
    outer loop
      vertex -12.5645 0.557671 0
      vertex 9.4155 3.73662 0
      vertex 8.34983 3.31385 0
    endloop
  endfacet
  facet normal 0 0 -1
    outer loop
      vertex 0.956136 1.15577 0
      vertex 8.34983 3.31385 0
      vertex 8.88802 1.30528 0
    endloop
  endfacet
  facet normal 0 0 -1
    outer loop
      vertex 8.88802 1.30528 0
      vertex 10.0226 1.47179 0
      vertex 10.6878 1.40716 0
    endloop
  endfacet
  facet normal 0 0 -1
    outer loop
      vertex 8.88802 1.30528 0
      vertex 10.6878 1.40716 0
      vertex 12.5645 0.557671 0
    endloop
  endfacet
  facet normal 0 0 -1
    outer loop
      vertex 0.956136 1.15577 0
      vertex 8.88802 1.30528 0
      vertex 1.09345 1.02682 0
    endloop
  endfacet
  facet normal 0 0 -1
    outer loop
      vertex 1.5 0 0
      vertex 12.5645 0.557671 0
      vertex 12.5645 -0.557671 0
    endloop
  endfacet
  facet normal 0 0 -1
    outer loop
      vertex 1.45287 -0.373035 0
      vertex 12.5645 -0.557671 0
      vertex 10.6878 -1.40716 0
    endloop
  endfacet
  facet normal 0 0 -1
    outer loop
      vertex 8.88802 -1.30528 0
      vertex 10.6878 -1.40716 0
      vertex 10.0226 -1.47179 0
    endloop
  endfacet
  facet normal 0 0 -1
    outer loop
      vertex 7.04483 -5.57445 0
      vertex 10.6022 -6.76515 0
      vertex 7.94371 -6.28594 0
    endloop
  endfacet
  facet normal 0 0 -1
    outer loop
      vertex 8.34983 -3.31385 0
      vertex 9.4155 -3.73662 0
      vertex -12.5645 0.557671 0
    endloop
  endfacet
  facet normal 0 0 -1
    outer loop
      vertex -12.5645 0.557671 0
      vertex 9.4155 -3.73662 0
      vertex 9.95962 -4.12524 0
    endloop
  endfacet
  facet normal 0 0 -1
    outer loop
      vertex -12.5645 0.557671 0
      vertex 9.95962 -4.12524 0
      vertex 11.1599 -5.79938 0
    endloop
  endfacet
  facet normal 0 0 -1
    outer loop
      vertex 7.04483 -5.57445 0
      vertex 11.1599 -5.79938 0
      vertex 10.6022 -6.76515 0
    endloop
  endfacet
  facet normal 0 0 -1
    outer loop
      vertex 7.94371 -6.28594 0
      vertex 10.6022 -6.76515 0
      vertex 8.55246 -6.56251 0
    endloop
  endfacet
  facet normal 0 0 -1
    outer loop
      vertex -8.88802 -1.30528 0
      vertex 1.47179 -10.0226 0
      vertex 1.40716 -10.6878 0
    endloop
  endfacet
  facet normal 0 0 -1
    outer loop
      vertex -12.5645 0.557671 0
      vertex 11.1599 -5.79938 0
      vertex 7.04483 -5.57445 0
    endloop
  endfacet
  facet normal 0 0 -1
    outer loop
      vertex 5.57445 -7.04483 0
      vertex -12.5645 0.557671 0
      vertex 7.04483 -5.57445 0
    endloop
  endfacet
  facet normal 0 0 -1
    outer loop
      vertex 3.31385 -8.34983 0
      vertex 6.76515 -10.6022 0
      vertex 3.73662 -9.4155 0
    endloop
  endfacet
  facet normal 0 0 -1
    outer loop
      vertex 5.57445 -7.04483 0
      vertex 6.28594 -7.94371 0
      vertex -12.5645 0.557671 0
    endloop
  endfacet
  facet normal 0 0 -1
    outer loop
      vertex -12.5645 0.557671 0
      vertex 6.28594 -7.94371 0
      vertex 6.56251 -8.55246 0
    endloop
  endfacet
  facet normal 0 0 -1
    outer loop
      vertex 3.31385 -8.34983 0
      vertex 6.56251 -8.55246 0
      vertex 6.76515 -10.6022 0
    endloop
  endfacet
  facet normal 0 0 -1
    outer loop
      vertex 4.12524 -9.95962 0
      vertex 6.76515 -10.6022 0
      vertex 5.79938 -11.1599 0
    endloop
  endfacet
  facet normal 0 0 -1
    outer loop
      vertex 3.73662 -9.4155 0
      vertex 6.76515 -10.6022 0
      vertex 4.12524 -9.95962 0
    endloop
  endfacet
  facet normal 0 0 -1
    outer loop
      vertex -10.0226 -1.47179 0
      vertex -12.5645 0.557671 0
      vertex -8.88802 -1.30528 0
    endloop
  endfacet
  facet normal 0 0 -1
    outer loop
      vertex -8.88802 -1.30528 0
      vertex 6.56251 -8.55246 0
      vertex 3.31385 -8.34983 0
    endloop
  endfacet
  facet normal 0 0 -1
    outer loop
      vertex -1.47179 -10.0226 0
      vertex 0.557671 -12.5645 0
      vertex -1.40716 -10.6878 0
    endloop
  endfacet
  facet normal 0 0 -1
    outer loop
      vertex -1.47179 -10.0226 0
      vertex 1.40716 -10.6878 0
      vertex 0.557671 -12.5645 0
    endloop
  endfacet
  facet normal 0 0 -1
    outer loop
      vertex -1.40716 -10.6878 0
      vertex 0.557671 -12.5645 0
      vertex -0.557671 -12.5645 0
    endloop
  endfacet
  facet normal 0 0 -1
    outer loop
      vertex -1.30528 -8.88802 0
      vertex 1.40716 -10.6878 0
      vertex -1.47179 -10.0226 0
    endloop
  endfacet
  facet normal 0 0 -1
    outer loop
      vertex -8.88802 -1.30528 0
      vertex 3.31385 -8.34983 0
      vertex 1.30528 -8.88802 0
    endloop
  endfacet
  facet normal 0 0 -1
    outer loop
      vertex -8.88802 -1.30528 0
      vertex 1.30528 -8.88802 0
      vertex 1.47179 -10.0226 0
    endloop
  endfacet
  facet normal 0 0 -1
    outer loop
      vertex -8.88802 -1.30528 0
      vertex -1.30528 -8.88802 0
      vertex -8.34983 -3.31385 0
    endloop
  endfacet
  facet normal 0 0 -1
    outer loop
      vertex -3.31385 -8.34983 0
      vertex -8.34983 -3.31385 0
      vertex -1.30528 -8.88802 0
    endloop
  endfacet
  facet normal 0 0 -1
    outer loop
      vertex -6.56251 -8.55246 0
      vertex -5.79938 -11.1599 0
      vertex -6.76515 -10.6022 0
    endloop
  endfacet
  facet normal 0 0 -1
    outer loop
      vertex -6.56251 -8.55246 0
      vertex -4.12524 -9.95962 0
      vertex -5.79938 -11.1599 0
    endloop
  endfacet
  facet normal 0 0 -1
    outer loop
      vertex -6.28594 -7.94371 0
      vertex -4.12524 -9.95962 0
      vertex -6.56251 -8.55246 0
    endloop
  endfacet
  facet normal 0 0 -1
    outer loop
      vertex -5.57445 -7.04483 0
      vertex -3.73662 -9.4155 0
      vertex -4.12524 -9.95962 0
    endloop
  endfacet
  facet normal 0 0 -1
    outer loop
      vertex -12.5645 -0.557671 0
      vertex -12.5645 0.557671 0
      vertex -10.6878 -1.40716 0
    endloop
  endfacet
  facet normal 0 0 -1
    outer loop
      vertex -9.4155 -3.73662 0
      vertex -7.94371 -6.28594 0
      vertex -8.55246 -6.56251 0
    endloop
  endfacet
  facet normal 0 0 -1
    outer loop
      vertex -7.94371 -6.28594 0
      vertex -9.4155 -3.73662 0
      vertex -7.04483 -5.57445 0
    endloop
  endfacet
  facet normal 0 0 -1
    outer loop
      vertex -8.34983 -3.31385 0
      vertex -5.57445 -7.04483 0
      vertex -7.04483 -5.57445 0
    endloop
  endfacet
  facet normal 0 0 -1
    outer loop
      vertex -10.6022 -6.76515 0
      vertex -9.95962 -4.12524 0
      vertex -8.55246 -6.56251 0
    endloop
  endfacet
  facet normal 0 0 -1
    outer loop
      vertex -5.57445 -7.04483 0
      vertex -4.12524 -9.95962 0
      vertex -6.28594 -7.94371 0
    endloop
  endfacet
  facet normal 0 0 -1
    outer loop
      vertex -9.95962 -4.12524 0
      vertex -10.6022 -6.76515 0
      vertex -11.1599 -5.79938 0
    endloop
  endfacet
  facet normal 0 0 -1
    outer loop
      vertex -9.4155 -3.73662 0
      vertex -8.55246 -6.56251 0
      vertex -9.95962 -4.12524 0
    endloop
  endfacet
  facet normal 0 0 -1
    outer loop
      vertex -8.34983 -3.31385 0
      vertex -7.04483 -5.57445 0
      vertex -9.4155 -3.73662 0
    endloop
  endfacet
  facet normal 0 0 -1
    outer loop
      vertex -8.34983 -3.31385 0
      vertex -3.31385 -8.34983 0
      vertex -5.57445 -7.04483 0
    endloop
  endfacet
  facet normal 0 0 -1
    outer loop
      vertex -12.5645 0.557671 0
      vertex 6.56251 -8.55246 0
      vertex -8.88802 -1.30528 0
    endloop
  endfacet
  facet normal 0 0 -1
    outer loop
      vertex -10.6878 -1.40716 0
      vertex -12.5645 0.557671 0
      vertex -10.0226 -1.47179 0
    endloop
  endfacet
  facet normal 0 0 -1
    outer loop
      vertex -8.88802 -1.30528 0
      vertex 1.40716 -10.6878 0
      vertex -1.30528 -8.88802 0
    endloop
  endfacet
  facet normal 0 0 -1
    outer loop
      vertex -1.48817 -0.188 0
      vertex -12.5645 0.557671 0
      vertex -1.5 0 0
    endloop
  endfacet
  facet normal 0 0 -1
    outer loop
      vertex 1.5 0 0
      vertex 12.5645 -0.557671 0
      vertex 1.48817 -0.188 0
    endloop
  endfacet
  facet normal 0 0 -1
    outer loop
      vertex -12.5645 0.557671 0
      vertex -1.48817 -0.188 0
      vertex -1.45287 -0.373035 0
    endloop
  endfacet
  facet normal 0 0 -1
    outer loop
      vertex -3.73662 -9.4155 0
      vertex -5.57445 -7.04483 0
      vertex -3.31385 -8.34983 0
    endloop
  endfacet
  facet normal 0 0 -1
    outer loop
      vertex 1.39467 -0.552187 0
      vertex 8.88802 -1.30528 0
      vertex 1.31446 -0.722631 0
    endloop
  endfacet
  facet normal 0 0 -1
    outer loop
      vertex -12.5645 0.557671 0
      vertex -1.39467 -0.552187 0
      vertex -1.31446 -0.722631 0
    endloop
  endfacet
  facet normal 0 0 -1
    outer loop
      vertex -12.5645 0.557671 0
      vertex -1.31446 -0.722631 0
      vertex -1.21352 -0.881678 0
    endloop
  endfacet
  facet normal 0 0 -1
    outer loop
      vertex -12.5645 0.557671 0
      vertex -1.21352 -0.881678 0
      vertex -1.09345 -1.02682 0
    endloop
  endfacet
  facet normal 0 0 -1
    outer loop
      vertex -12.5645 0.557671 0
      vertex -1.09345 -1.02682 0
      vertex -0.956136 -1.15577 0
    endloop
  endfacet
  facet normal 0 0 -1
    outer loop
      vertex -12.5645 0.557671 0
      vertex -0.956136 -1.15577 0
      vertex -0.80374 -1.26649 0
    endloop
  endfacet
  facet normal 0 0 -1
    outer loop
      vertex -12.5645 0.557671 0
      vertex -0.80374 -1.26649 0
      vertex -0.638669 -1.35724 0
    endloop
  endfacet
  facet normal 0 0 -1
    outer loop
      vertex -12.5645 0.557671 0
      vertex -0.638669 -1.35724 0
      vertex -0.463525 -1.42658 0
    endloop
  endfacet
  facet normal 0 0 -1
    outer loop
      vertex -12.5645 0.557671 0
      vertex -0.463525 -1.42658 0
      vertex -0.281072 -1.47343 0
    endloop
  endfacet
  facet normal 0 0 -1
    outer loop
      vertex -12.5645 0.557671 0
      vertex -0.281072 -1.47343 0
      vertex 8.34983 -3.31385 0
    endloop
  endfacet
  facet normal 0 0 -1
    outer loop
      vertex 0.094186 -1.49704 0
      vertex 8.34983 -3.31385 0
      vertex -0.094186 -1.49704 0
    endloop
  endfacet
  facet normal 0 0 -1
    outer loop
      vertex 0.281072 -1.47343 0
      vertex 8.34983 -3.31385 0
      vertex 0.094186 -1.49704 0
    endloop
  endfacet
  facet normal 0 0 -1
    outer loop
      vertex 0.463525 -1.42658 0
      vertex 8.34983 -3.31385 0
      vertex 0.281072 -1.47343 0
    endloop
  endfacet
  facet normal 0 0 -1
    outer loop
      vertex 0.638669 -1.35724 0
      vertex 8.34983 -3.31385 0
      vertex 0.463525 -1.42658 0
    endloop
  endfacet
  facet normal 0 0 -1
    outer loop
      vertex 0.80374 -1.26649 0
      vertex 8.34983 -3.31385 0
      vertex 0.638669 -1.35724 0
    endloop
  endfacet
  facet normal 0 0 -1
    outer loop
      vertex 0.956136 -1.15577 0
      vertex 8.34983 -3.31385 0
      vertex 0.80374 -1.26649 0
    endloop
  endfacet
  facet normal 0 0 -1
    outer loop
      vertex 1.39467 -0.552187 0
      vertex 10.6878 -1.40716 0
      vertex 8.88802 -1.30528 0
    endloop
  endfacet
  facet normal 0 0 -1
    outer loop
      vertex -0.094186 -1.49704 0
      vertex 8.34983 -3.31385 0
      vertex -0.281072 -1.47343 0
    endloop
  endfacet
  facet normal 0 0 -1
    outer loop
      vertex 1.45287 -0.373035 0
      vertex 10.6878 -1.40716 0
      vertex 1.39467 -0.552187 0
    endloop
  endfacet
  facet normal 0 0 -1
    outer loop
      vertex 1.48817 -0.188 0
      vertex 12.5645 -0.557671 0
      vertex 1.45287 -0.373035 0
    endloop
  endfacet
  facet normal 0 0 -1
    outer loop
      vertex -1.39467 -0.552187 0
      vertex -12.5645 0.557671 0
      vertex -1.45287 -0.373035 0
    endloop
  endfacet
  facet normal 0 0 -1
    outer loop
      vertex 1.48817 0.188 0
      vertex 12.5645 0.557671 0
      vertex 1.5 0 0
    endloop
  endfacet
  facet normal 0 0 -1
    outer loop
      vertex 1.31446 0.722631 0
      vertex 12.5645 0.557671 0
      vertex 1.39467 0.552187 0
    endloop
  endfacet
  facet normal 0 0 -1
    outer loop
      vertex 1.45287 0.373035 0
      vertex 12.5645 0.557671 0
      vertex 1.48817 0.188 0
    endloop
  endfacet
  facet normal 0 0 -1
    outer loop
      vertex 1.39467 0.552187 0
      vertex 12.5645 0.557671 0
      vertex 1.45287 0.373035 0
    endloop
  endfacet
  facet normal 0 0 -1
    outer loop
      vertex 8.88802 1.30528 0
      vertex 12.5645 0.557671 0
      vertex 1.31446 0.722631 0
    endloop
  endfacet
  facet normal 0 0 -1
    outer loop
      vertex 8.88802 1.30528 0
      vertex 1.31446 0.722631 0
      vertex 1.21352 0.881678 0
    endloop
  endfacet
  facet normal 0 0 -1
    outer loop
      vertex 8.88802 1.30528 0
      vertex 1.21352 0.881678 0
      vertex 1.09345 1.02682 0
    endloop
  endfacet
  facet normal 0 0 -1
    outer loop
      vertex 0.80374 1.26649 0
      vertex 8.34983 3.31385 0
      vertex 0.956136 1.15577 0
    endloop
  endfacet
  facet normal 0 0 -1
    outer loop
      vertex -0.463525 1.42658 0
      vertex -12.5645 0.557671 0
      vertex -0.281072 1.47343 0
    endloop
  endfacet
  facet normal 0 0 -1
    outer loop
      vertex 0.638669 1.35724 0
      vertex 8.34983 3.31385 0
      vertex 0.80374 1.26649 0
    endloop
  endfacet
  facet normal 0 0 -1
    outer loop
      vertex 0.463525 1.42658 0
      vertex 8.34983 3.31385 0
      vertex 0.638669 1.35724 0
    endloop
  endfacet
  facet normal 0 0 -1
    outer loop
      vertex 0.281072 1.47343 0
      vertex 8.34983 3.31385 0
      vertex 0.463525 1.42658 0
    endloop
  endfacet
  facet normal 0 0 -1
    outer loop
      vertex 0.094186 1.49704 0
      vertex 8.34983 3.31385 0
      vertex 0.281072 1.47343 0
    endloop
  endfacet
  facet normal 0 0 -1
    outer loop
      vertex -0.094186 1.49704 0
      vertex 8.34983 3.31385 0
      vertex 0.094186 1.49704 0
    endloop
  endfacet
  facet normal 0 0 -1
    outer loop
      vertex -12.5645 0.557671 0
      vertex 8.34983 3.31385 0
      vertex -0.094186 1.49704 0
    endloop
  endfacet
  facet normal 0 0 -1
    outer loop
      vertex -12.5645 0.557671 0
      vertex -0.094186 1.49704 0
      vertex -0.281072 1.47343 0
    endloop
  endfacet
  facet normal 0 0 -1
    outer loop
      vertex -0.638669 1.35724 0
      vertex -12.5645 0.557671 0
      vertex -0.463525 1.42658 0
    endloop
  endfacet
  facet normal 0 0 -1
    outer loop
      vertex -0.80374 1.26649 0
      vertex -12.5645 0.557671 0
      vertex -0.638669 1.35724 0
    endloop
  endfacet
  facet normal 0 0 -1
    outer loop
      vertex -0.956136 1.15577 0
      vertex -12.5645 0.557671 0
      vertex -0.80374 1.26649 0
    endloop
  endfacet
  facet normal 0 0 -1
    outer loop
      vertex -1.09345 1.02682 0
      vertex -12.5645 0.557671 0
      vertex -0.956136 1.15577 0
    endloop
  endfacet
  facet normal 0 0 -1
    outer loop
      vertex -1.21352 0.881678 0
      vertex -12.5645 0.557671 0
      vertex -1.09345 1.02682 0
    endloop
  endfacet
  facet normal 0 0 -1
    outer loop
      vertex -1.31446 0.722631 0
      vertex -12.5645 0.557671 0
      vertex -1.21352 0.881678 0
    endloop
  endfacet
  facet normal 0 0 -1
    outer loop
      vertex -1.39467 0.552187 0
      vertex -12.5645 0.557671 0
      vertex -1.31446 0.722631 0
    endloop
  endfacet
  facet normal 0 0 -1
    outer loop
      vertex -1.45287 0.373035 0
      vertex -12.5645 0.557671 0
      vertex -1.39467 0.552187 0
    endloop
  endfacet
  facet normal 0 0 -1
    outer loop
      vertex -1.48817 0.188 0
      vertex -12.5645 0.557671 0
      vertex -1.45287 0.373035 0
    endloop
  endfacet
  facet normal 0 0 -1
    outer loop
      vertex -1.5 0 0
      vertex -12.5645 0.557671 0
      vertex -1.48817 0.188 0
    endloop
  endfacet
  facet normal 0 0 -1
    outer loop
      vertex 8.34983 -3.31385 0
      vertex 0.956136 -1.15577 0
      vertex 1.09345 -1.02682 0
    endloop
  endfacet
  facet normal 0 0 -1
    outer loop
      vertex 8.34983 -3.31385 0
      vertex 1.09345 -1.02682 0
      vertex 1.21352 -0.881678 0
    endloop
  endfacet
  facet normal 0 0 -1
    outer loop
      vertex 8.34983 -3.31385 0
      vertex 1.21352 -0.881678 0
      vertex 1.31446 -0.722631 0
    endloop
  endfacet
  facet normal 0 0 -1
    outer loop
      vertex 8.34983 -3.31385 0
      vertex 1.31446 -0.722631 0
      vertex 8.88802 -1.30528 0
    endloop
  endfacet
  facet normal 0 0 1
    outer loop
      vertex -10.6878 -1.40716 5
      vertex -10.0226 -1.47179 5
      vertex -8.88802 -1.30528 5
    endloop
  endfacet
  facet normal 0 0 1
    outer loop
      vertex 1.21352 -0.881678 5
      vertex 1.09345 -1.02682 5
      vertex 12.5645 -0.557671 5
    endloop
  endfacet
  facet normal 0 0 1
    outer loop
      vertex -9.4155 3.73662 5
      vertex -7.94371 6.28594 5
      vertex -8.55246 6.56251 5
    endloop
  endfacet
  facet normal 0 0 1
    outer loop
      vertex -8.88802 -1.30528 5
      vertex -8.34983 -3.31385 5
      vertex -7.04483 -5.57445 5
    endloop
  endfacet
  facet normal 0 0 1
    outer loop
      vertex -8.34983 -3.31385 5
      vertex -9.4155 -3.73662 5
      vertex -9.95962 -4.12524 5
    endloop
  endfacet
  facet normal 0 0 1
    outer loop
      vertex -8.34983 -3.31385 5
      vertex -9.95962 -4.12524 5
      vertex -11.1599 -5.79938 5
    endloop
  endfacet
  facet normal 0 0 1
    outer loop
      vertex -8.34983 -3.31385 5
      vertex -11.1599 -5.79938 5
      vertex -10.6022 -6.76515 5
    endloop
  endfacet
  facet normal 0 0 1
    outer loop
      vertex -8.34983 -3.31385 5
      vertex -10.6022 -6.76515 5
      vertex -8.55246 -6.56251 5
    endloop
  endfacet
  facet normal 0 0 1
    outer loop
      vertex -8.34983 -3.31385 5
      vertex -8.55246 -6.56251 5
      vertex -7.94371 -6.28594 5
    endloop
  endfacet
  facet normal 0 0 1
    outer loop
      vertex -8.88802 -1.30528 5
      vertex -7.04483 -5.57445 5
      vertex -5.57445 -7.04483 5
    endloop
  endfacet
  facet normal 0 0 1
    outer loop
      vertex -8.34983 -3.31385 5
      vertex -7.94371 -6.28594 5
      vertex -7.04483 -5.57445 5
    endloop
  endfacet
  facet normal 0 0 1
    outer loop
      vertex -8.88802 -1.30528 5
      vertex -5.57445 -7.04483 5
      vertex -3.73662 -9.4155 5
    endloop
  endfacet
  facet normal 0 0 1
    outer loop
      vertex -5.57445 -7.04483 5
      vertex -6.28594 -7.94371 5
      vertex -6.56251 -8.55246 5
    endloop
  endfacet
  facet normal 0 0 1
    outer loop
      vertex -5.57445 -7.04483 5
      vertex -6.56251 -8.55246 5
      vertex -6.76515 -10.6022 5
    endloop
  endfacet
  facet normal 0 0 1
    outer loop
      vertex -5.57445 -7.04483 5
      vertex -6.76515 -10.6022 5
      vertex -5.79938 -11.1599 5
    endloop
  endfacet
  facet normal 0 0 1
    outer loop
      vertex -5.57445 -7.04483 5
      vertex -5.79938 -11.1599 5
      vertex -4.12524 -9.95962 5
    endloop
  endfacet
  facet normal 0 0 1
    outer loop
      vertex -5.57445 -7.04483 5
      vertex -4.12524 -9.95962 5
      vertex -3.73662 -9.4155 5
    endloop
  endfacet
  facet normal 0 0 1
    outer loop
      vertex -8.88802 -1.30528 5
      vertex -3.31385 -8.34983 5
      vertex -1.30528 -8.88802 5
    endloop
  endfacet
  facet normal 0 0 1
    outer loop
      vertex -8.88802 -1.30528 5
      vertex -3.73662 -9.4155 5
      vertex -3.31385 -8.34983 5
    endloop
  endfacet
  facet normal 0 0 1
    outer loop
      vertex -8.88802 -1.30528 5
      vertex -1.30528 -8.88802 5
      vertex 1.40716 -10.6878 5
    endloop
  endfacet
  facet normal 0 0 1
    outer loop
      vertex -1.30528 -8.88802 5
      vertex -1.47179 -10.0226 5
      vertex -1.40716 -10.6878 5
    endloop
  endfacet
  facet normal 0 0 1
    outer loop
      vertex -1.30528 -8.88802 5
      vertex -1.40716 -10.6878 5
      vertex -0.557671 -12.5645 5
    endloop
  endfacet
  facet normal 0 0 1
    outer loop
      vertex -1.30528 -8.88802 5
      vertex -0.557671 -12.5645 5
      vertex 0.557671 -12.5645 5
    endloop
  endfacet
  facet normal 0 0 1
    outer loop
      vertex -1.30528 -8.88802 5
      vertex 0.557671 -12.5645 5
      vertex 1.40716 -10.6878 5
    endloop
  endfacet
  facet normal 0 0 1
    outer loop
      vertex -8.88802 -1.30528 5
      vertex 1.40716 -10.6878 5
      vertex 1.47179 -10.0226 5
    endloop
  endfacet
  facet normal 0 0 1
    outer loop
      vertex -8.88802 -1.30528 5
      vertex 1.30528 -8.88802 5
      vertex 3.31385 -8.34983 5
    endloop
  endfacet
  facet normal 0 0 1
    outer loop
      vertex -8.88802 -1.30528 5
      vertex 1.47179 -10.0226 5
      vertex 1.30528 -8.88802 5
    endloop
  endfacet
  facet normal 0 0 1
    outer loop
      vertex -8.88802 -1.30528 5
      vertex 3.31385 -8.34983 5
      vertex 6.56251 -8.55246 5
    endloop
  endfacet
  facet normal 0 0 1
    outer loop
      vertex 3.31385 -8.34983 5
      vertex 3.73662 -9.4155 5
      vertex 4.12524 -9.95962 5
    endloop
  endfacet
  facet normal 0 0 1
    outer loop
      vertex 3.31385 -8.34983 5
      vertex 4.12524 -9.95962 5
      vertex 5.79938 -11.1599 5
    endloop
  endfacet
  facet normal 0 0 1
    outer loop
      vertex 3.31385 -8.34983 5
      vertex 5.79938 -11.1599 5
      vertex 6.76515 -10.6022 5
    endloop
  endfacet
  facet normal 0 0 1
    outer loop
      vertex 3.31385 -8.34983 5
      vertex 6.76515 -10.6022 5
      vertex 6.56251 -8.55246 5
    endloop
  endfacet
  facet normal 0 0 1
    outer loop
      vertex -8.88802 -1.30528 5
      vertex 6.56251 -8.55246 5
      vertex 6.28594 -7.94371 5
    endloop
  endfacet
  facet normal 0 0 1
    outer loop
      vertex -8.88802 -1.30528 5
      vertex 5.57445 -7.04483 5
      vertex 7.04483 -5.57445 5
    endloop
  endfacet
  facet normal 0 0 1
    outer loop
      vertex -8.88802 -1.30528 5
      vertex 6.28594 -7.94371 5
      vertex 5.57445 -7.04483 5
    endloop
  endfacet
  facet normal 0 0 1
    outer loop
      vertex -8.88802 -1.30528 5
      vertex 7.04483 -5.57445 5
      vertex 11.1599 -5.79938 5
    endloop
  endfacet
  facet normal 0 0 1
    outer loop
      vertex 7.04483 -5.57445 5
      vertex 7.94371 -6.28594 5
      vertex 8.55246 -6.56251 5
    endloop
  endfacet
  facet normal 0 0 1
    outer loop
      vertex 7.04483 -5.57445 5
      vertex 8.55246 -6.56251 5
      vertex 10.6022 -6.76515 5
    endloop
  endfacet
  facet normal 0 0 1
    outer loop
      vertex 7.04483 -5.57445 5
      vertex 10.6022 -6.76515 5
      vertex 11.1599 -5.79938 5
    endloop
  endfacet
  facet normal 0 0 1
    outer loop
      vertex -8.88802 -1.30528 5
      vertex 11.1599 -5.79938 5
      vertex 9.95962 -4.12524 5
    endloop
  endfacet
  facet normal 0 0 1
    outer loop
      vertex -8.88802 -1.30528 5
      vertex 9.95962 -4.12524 5
      vertex 9.4155 -3.73662 5
    endloop
  endfacet
  facet normal 0 0 1
    outer loop
      vertex 0.638669 -1.35724 5
      vertex 8.34983 -3.31385 5
      vertex 8.88802 -1.30528 5
    endloop
  endfacet
  facet normal 0 0 1
    outer loop
      vertex -8.88802 -1.30528 5
      vertex 9.4155 -3.73662 5
      vertex 8.34983 -3.31385 5
    endloop
  endfacet
  facet normal 0 0 1
    outer loop
      vertex 1.09345 -1.02682 5
      vertex 8.88802 -1.30528 5
      vertex 12.5645 -0.557671 5
    endloop
  endfacet
  facet normal 0 0 1
    outer loop
      vertex 8.88802 -1.30528 5
      vertex 10.0226 -1.47179 5
      vertex 10.6878 -1.40716 5
    endloop
  endfacet
  facet normal 0 0 1
    outer loop
      vertex 8.88802 -1.30528 5
      vertex 10.6878 -1.40716 5
      vertex 12.5645 -0.557671 5
    endloop
  endfacet
  facet normal 0 0 1
    outer loop
      vertex 1.39467 -0.552187 5
      vertex 12.5645 -0.557671 5
      vertex 12.5645 0.557671 5
    endloop
  endfacet
  facet normal 0 0 1
    outer loop
      vertex 1.48817 0.188 5
      vertex 12.5645 0.557671 5
      vertex 10.6878 1.40716 5
    endloop
  endfacet
  facet normal 0 0 1
    outer loop
      vertex 8.88802 1.30528 5
      vertex 10.6878 1.40716 5
      vertex 10.0226 1.47179 5
    endloop
  endfacet
  facet normal 0 0 1
    outer loop
      vertex 0.463525 1.42658 5
      vertex 8.34983 3.31385 5
      vertex 9.4155 3.73662 5
    endloop
  endfacet
  facet normal 0 0 1
    outer loop
      vertex 0.281072 1.47343 5
      vertex 9.4155 3.73662 5
      vertex 9.95962 4.12524 5
    endloop
  endfacet
  facet normal 0 0 1
    outer loop
      vertex -0.094186 1.49704 5
      vertex 9.95962 4.12524 5
      vertex 11.1599 5.79938 5
    endloop
  endfacet
  facet normal 0 0 1
    outer loop
      vertex -10.6878 -1.40716 5
      vertex 11.1599 5.79938 5
      vertex 10.6022 6.76515 5
    endloop
  endfacet
  facet normal 0 0 1
    outer loop
      vertex -1.40716 10.6878 5
      vertex -1.47179 10.0226 5
      vertex 0.557671 12.5645 5
    endloop
  endfacet
  facet normal 0 0 1
    outer loop
      vertex 7.94371 6.28594 5
      vertex 10.6022 6.76515 5
      vertex 8.55246 6.56251 5
    endloop
  endfacet
  facet normal 0 0 1
    outer loop
      vertex 4.12524 9.95962 5
      vertex 3.73662 9.4155 5
      vertex 5.79938 11.1599 5
    endloop
  endfacet
  facet normal 0 0 1
    outer loop
      vertex 7.04483 5.57445 5
      vertex 10.6022 6.76515 5
      vertex 7.94371 6.28594 5
    endloop
  endfacet
  facet normal 0 0 1
    outer loop
      vertex 3.31385 8.34983 5
      vertex 1.30528 8.88802 5
      vertex -10.6878 -1.40716 5
    endloop
  endfacet
  facet normal 0 0 1
    outer loop
      vertex -10.6878 -1.40716 5
      vertex 10.6022 6.76515 5
      vertex 7.04483 5.57445 5
    endloop
  endfacet
  facet normal 0 0 1
    outer loop
      vertex -10.6878 -1.40716 5
      vertex 5.57445 7.04483 5
      vertex 6.28594 7.94371 5
    endloop
  endfacet
  facet normal 0 0 1
    outer loop
      vertex -10.6878 -1.40716 5
      vertex 6.28594 7.94371 5
      vertex 6.56251 8.55246 5
    endloop
  endfacet
  facet normal 0 0 1
    outer loop
      vertex -10.6878 -1.40716 5
      vertex 6.56251 8.55246 5
      vertex 6.76515 10.6022 5
    endloop
  endfacet
  facet normal 0 0 1
    outer loop
      vertex 3.73662 9.4155 5
      vertex 6.76515 10.6022 5
      vertex 5.79938 11.1599 5
    endloop
  endfacet
  facet normal 0 0 1
    outer loop
      vertex -3.31385 8.34983 5
      vertex -8.88802 1.30528 5
      vertex -10.6878 -1.40716 5
    endloop
  endfacet
  facet normal 0 0 1
    outer loop
      vertex 3.31385 8.34983 5
      vertex 6.76515 10.6022 5
      vertex 3.73662 9.4155 5
    endloop
  endfacet
  facet normal 0 0 1
    outer loop
      vertex -1.30528 8.88802 5
      vertex -3.31385 8.34983 5
      vertex -10.6878 -1.40716 5
    endloop
  endfacet
  facet normal 0 0 1
    outer loop
      vertex -10.6878 -1.40716 5
      vertex 6.76515 10.6022 5
      vertex 3.31385 8.34983 5
    endloop
  endfacet
  facet normal 0 0 1
    outer loop
      vertex -10.6878 -1.40716 5
      vertex 1.30528 8.88802 5
      vertex 1.47179 10.0226 5
    endloop
  endfacet
  facet normal 0 0 1
    outer loop
      vertex -10.6878 -1.40716 5
      vertex 1.47179 10.0226 5
      vertex 1.40716 10.6878 5
    endloop
  endfacet
  facet normal 0 0 1
    outer loop
      vertex -1.47179 10.0226 5
      vertex 1.40716 10.6878 5
      vertex 0.557671 12.5645 5
    endloop
  endfacet
  facet normal 0 0 1
    outer loop
      vertex -1.40716 10.6878 5
      vertex 0.557671 12.5645 5
      vertex -0.557671 12.5645 5
    endloop
  endfacet
  facet normal 0 0 1
    outer loop
      vertex -1.30528 8.88802 5
      vertex 1.40716 10.6878 5
      vertex -1.47179 10.0226 5
    endloop
  endfacet
  facet normal 0 0 1
    outer loop
      vertex -3.31385 8.34983 5
      vertex -3.73662 9.4155 5
      vertex -8.88802 1.30528 5
    endloop
  endfacet
  facet normal 0 0 1
    outer loop
      vertex -10.6878 -1.40716 5
      vertex 1.40716 10.6878 5
      vertex -1.30528 8.88802 5
    endloop
  endfacet
  facet normal 0 0 1
    outer loop
      vertex -6.76515 10.6022 5
      vertex -6.56251 8.55246 5
      vertex -5.79938 11.1599 5
    endloop
  endfacet
  facet normal 0 0 1
    outer loop
      vertex -5.57445 7.04483 5
      vertex -3.73662 9.4155 5
      vertex -4.12524 9.95962 5
    endloop
  endfacet
  facet normal 0 0 1
    outer loop
      vertex -6.56251 8.55246 5
      vertex -4.12524 9.95962 5
      vertex -5.79938 11.1599 5
    endloop
  endfacet
  facet normal 0 0 1
    outer loop
      vertex -6.28594 7.94371 5
      vertex -5.57445 7.04483 5
      vertex -4.12524 9.95962 5
    endloop
  endfacet
  facet normal 0 0 1
    outer loop
      vertex -8.88802 1.30528 5
      vertex -10.0226 1.47179 5
      vertex -10.6878 -1.40716 5
    endloop
  endfacet
  facet normal 0 0 1
    outer loop
      vertex -6.28594 7.94371 5
      vertex -4.12524 9.95962 5
      vertex -6.56251 8.55246 5
    endloop
  endfacet
  facet normal 0 0 1
    outer loop
      vertex -8.34983 3.31385 5
      vertex -5.57445 7.04483 5
      vertex -7.04483 5.57445 5
    endloop
  endfacet
  facet normal 0 0 1
    outer loop
      vertex -10.6878 1.40716 5
      vertex -12.5645 0.557671 5
      vertex -12.5645 -0.557671 5
    endloop
  endfacet
  facet normal 0 0 1
    outer loop
      vertex -11.1599 5.79938 5
      vertex -9.95962 4.12524 5
      vertex -10.6022 6.76515 5
    endloop
  endfacet
  facet normal 0 0 1
    outer loop
      vertex -1.48817 -0.188 5
      vertex -1.5 0 5
      vertex -10.6878 -1.40716 5
    endloop
  endfacet
  facet normal 0 0 1
    outer loop
      vertex -9.95962 4.12524 5
      vertex -8.55246 6.56251 5
      vertex -10.6022 6.76515 5
    endloop
  endfacet
  facet normal 0 0 1
    outer loop
      vertex -10.0226 1.47179 5
      vertex -10.6878 1.40716 5
      vertex -10.6878 -1.40716 5
    endloop
  endfacet
  facet normal 0 0 1
    outer loop
      vertex -9.4155 3.73662 5
      vertex -8.55246 6.56251 5
      vertex -9.95962 4.12524 5
    endloop
  endfacet
  facet normal 0 0 1
    outer loop
      vertex -8.34983 3.31385 5
      vertex -3.73662 9.4155 5
      vertex -5.57445 7.04483 5
    endloop
  endfacet
  facet normal 0 0 1
    outer loop
      vertex 1.45287 -0.373035 5
      vertex 1.39467 -0.552187 5
      vertex 12.5645 0.557671 5
    endloop
  endfacet
  facet normal 0 0 1
    outer loop
      vertex 1.45287 0.373035 5
      vertex 10.6878 1.40716 5
      vertex 8.88802 1.30528 5
    endloop
  endfacet
  facet normal 0 0 1
    outer loop
      vertex 8.88802 1.30528 5
      vertex 1.39467 0.552187 5
      vertex 1.45287 0.373035 5
    endloop
  endfacet
  facet normal 0 0 1
    outer loop
      vertex 8.88802 1.30528 5
      vertex 1.31446 0.722631 5
      vertex 1.39467 0.552187 5
    endloop
  endfacet
  facet normal 0 0 1
    outer loop
      vertex 1.45287 0.373035 5
      vertex 1.48817 0.188 5
      vertex 10.6878 1.40716 5
    endloop
  endfacet
  facet normal 0 0 1
    outer loop
      vertex -10.6878 -1.40716 5
      vertex -1.5 0 5
      vertex -1.48817 0.188 5
    endloop
  endfacet
  facet normal 0 0 1
    outer loop
      vertex -10.6878 -1.40716 5
      vertex -1.48817 0.188 5
      vertex -1.45287 0.373035 5
    endloop
  endfacet
  facet normal 0 0 1
    outer loop
      vertex 0.956136 1.15577 5
      vertex 1.09345 1.02682 5
      vertex 8.34983 3.31385 5
    endloop
  endfacet
  facet normal 0 0 1
    outer loop
      vertex -10.6878 -1.40716 5
      vertex -1.45287 0.373035 5
      vertex -1.39467 0.552187 5
    endloop
  endfacet
  facet normal 0 0 1
    outer loop
      vertex 0.80374 1.26649 5
      vertex 0.956136 1.15577 5
      vertex 8.34983 3.31385 5
    endloop
  endfacet
  facet normal 0 0 1
    outer loop
      vertex -10.6878 -1.40716 5
      vertex -1.39467 0.552187 5
      vertex -1.31446 0.722631 5
    endloop
  endfacet
  facet normal 0 0 1
    outer loop
      vertex 1.09345 1.02682 5
      vertex 1.21352 0.881678 5
      vertex 8.34983 3.31385 5
    endloop
  endfacet
  facet normal 0 0 1
    outer loop
      vertex -10.6878 -1.40716 5
      vertex -1.31446 0.722631 5
      vertex -1.21352 0.881678 5
    endloop
  endfacet
  facet normal 0 0 1
    outer loop
      vertex 0.463525 1.42658 5
      vertex 0.638669 1.35724 5
      vertex 8.34983 3.31385 5
    endloop
  endfacet
  facet normal 0 0 1
    outer loop
      vertex 0.281072 1.47343 5
      vertex 0.463525 1.42658 5
      vertex 9.4155 3.73662 5
    endloop
  endfacet
  facet normal 0 0 1
    outer loop
      vertex -0.094186 1.49704 5
      vertex 0.094186 1.49704 5
      vertex 9.95962 4.12524 5
    endloop
  endfacet
  facet normal 0 0 1
    outer loop
      vertex -0.281072 1.47343 5
      vertex -0.094186 1.49704 5
      vertex 11.1599 5.79938 5
    endloop
  endfacet
  facet normal 0 0 1
    outer loop
      vertex -10.6878 -1.40716 5
      vertex -0.80374 1.26649 5
      vertex -0.638669 1.35724 5
    endloop
  endfacet
  facet normal 0 0 1
    outer loop
      vertex -10.6878 -1.40716 5
      vertex -0.463525 1.42658 5
      vertex 11.1599 5.79938 5
    endloop
  endfacet
  facet normal 0 0 1
    outer loop
      vertex -10.6878 -1.40716 5
      vertex -0.638669 1.35724 5
      vertex -0.463525 1.42658 5
    endloop
  endfacet
  facet normal 0 0 1
    outer loop
      vertex 0.094186 1.49704 5
      vertex 0.281072 1.47343 5
      vertex 9.95962 4.12524 5
    endloop
  endfacet
  facet normal 0 0 1
    outer loop
      vertex -0.463525 1.42658 5
      vertex -0.281072 1.47343 5
      vertex 11.1599 5.79938 5
    endloop
  endfacet
  facet normal 0 0 1
    outer loop
      vertex 0.638669 1.35724 5
      vertex 0.80374 1.26649 5
      vertex 8.34983 3.31385 5
    endloop
  endfacet
  facet normal 0 0 1
    outer loop
      vertex -1.09345 1.02682 5
      vertex -0.956136 1.15577 5
      vertex -10.6878 -1.40716 5
    endloop
  endfacet
  facet normal 0 0 1
    outer loop
      vertex -0.956136 1.15577 5
      vertex -0.80374 1.26649 5
      vertex -10.6878 -1.40716 5
    endloop
  endfacet
  facet normal 0 0 1
    outer loop
      vertex 7.04483 5.57445 5
      vertex 5.57445 7.04483 5
      vertex -10.6878 -1.40716 5
    endloop
  endfacet
  facet normal 0 0 1
    outer loop
      vertex -7.04483 5.57445 5
      vertex -7.94371 6.28594 5
      vertex -8.34983 3.31385 5
    endloop
  endfacet
  facet normal 0 0 1
    outer loop
      vertex -1.31446 -0.722631 5
      vertex -10.6878 -1.40716 5
      vertex -8.88802 -1.30528 5
    endloop
  endfacet
  facet normal 0 0 1
    outer loop
      vertex 1.5 0 5
      vertex 12.5645 0.557671 5
      vertex 1.48817 0.188 5
    endloop
  endfacet
  facet normal 0 0 1
    outer loop
      vertex 1.48817 -0.188 5
      vertex 12.5645 0.557671 5
      vertex 1.5 0 5
    endloop
  endfacet
  facet normal 0 0 1
    outer loop
      vertex 1.45287 -0.373035 5
      vertex 12.5645 0.557671 5
      vertex 1.48817 -0.188 5
    endloop
  endfacet
  facet normal 0 0 1
    outer loop
      vertex 1.31446 -0.722631 5
      vertex 12.5645 -0.557671 5
      vertex 1.39467 -0.552187 5
    endloop
  endfacet
  facet normal 0 0 1
    outer loop
      vertex -1.31446 -0.722631 5
      vertex -1.39467 -0.552187 5
      vertex -10.6878 -1.40716 5
    endloop
  endfacet
  facet normal 0 0 1
    outer loop
      vertex 1.21352 -0.881678 5
      vertex 12.5645 -0.557671 5
      vertex 1.31446 -0.722631 5
    endloop
  endfacet
  facet normal 0 0 1
    outer loop
      vertex -0.638669 -1.35724 5
      vertex -0.80374 -1.26649 5
      vertex -8.88802 -1.30528 5
    endloop
  endfacet
  facet normal 0 0 1
    outer loop
      vertex -0.80374 -1.26649 5
      vertex -0.956136 -1.15577 5
      vertex -8.88802 -1.30528 5
    endloop
  endfacet
  facet normal 0 0 1
    outer loop
      vertex 0.956136 -1.15577 5
      vertex 8.88802 -1.30528 5
      vertex 1.09345 -1.02682 5
    endloop
  endfacet
  facet normal 0 0 1
    outer loop
      vertex 0.80374 -1.26649 5
      vertex 8.88802 -1.30528 5
      vertex 0.956136 -1.15577 5
    endloop
  endfacet
  facet normal 0 0 1
    outer loop
      vertex -0.094186 -1.49704 5
      vertex -0.281072 -1.47343 5
      vertex -8.88802 -1.30528 5
    endloop
  endfacet
  facet normal 0 0 1
    outer loop
      vertex 0.463525 -1.42658 5
      vertex 8.34983 -3.31385 5
      vertex 0.638669 -1.35724 5
    endloop
  endfacet
  facet normal 0 0 1
    outer loop
      vertex 0.281072 -1.47343 5
      vertex 8.34983 -3.31385 5
      vertex 0.463525 -1.42658 5
    endloop
  endfacet
  facet normal 0 0 1
    outer loop
      vertex 0.094186 -1.49704 5
      vertex 8.34983 -3.31385 5
      vertex 0.281072 -1.47343 5
    endloop
  endfacet
  facet normal 0 0 1
    outer loop
      vertex -0.094186 -1.49704 5
      vertex 8.34983 -3.31385 5
      vertex 0.094186 -1.49704 5
    endloop
  endfacet
  facet normal 0 0 1
    outer loop
      vertex -0.281072 -1.47343 5
      vertex -0.463525 -1.42658 5
      vertex -8.88802 -1.30528 5
    endloop
  endfacet
  facet normal 0 0 1
    outer loop
      vertex -8.88802 -1.30528 5
      vertex 8.34983 -3.31385 5
      vertex -0.094186 -1.49704 5
    endloop
  endfacet
  facet normal 0 0 1
    outer loop
      vertex -0.463525 -1.42658 5
      vertex -0.638669 -1.35724 5
      vertex -8.88802 -1.30528 5
    endloop
  endfacet
  facet normal 0 0 1
    outer loop
      vertex -1.21352 -0.881678 5
      vertex -1.31446 -0.722631 5
      vertex -8.88802 -1.30528 5
    endloop
  endfacet
  facet normal 0 0 1
    outer loop
      vertex -0.956136 -1.15577 5
      vertex -1.09345 -1.02682 5
      vertex -8.88802 -1.30528 5
    endloop
  endfacet
  facet normal 0 0 1
    outer loop
      vertex -1.09345 -1.02682 5
      vertex -1.21352 -0.881678 5
      vertex -8.88802 -1.30528 5
    endloop
  endfacet
  facet normal 0 0 1
    outer loop
      vertex 0.80374 -1.26649 5
      vertex 0.638669 -1.35724 5
      vertex 8.88802 -1.30528 5
    endloop
  endfacet
  facet normal 0 0 1
    outer loop
      vertex -1.45287 -0.373035 5
      vertex -1.48817 -0.188 5
      vertex -10.6878 -1.40716 5
    endloop
  endfacet
  facet normal 0 0 1
    outer loop
      vertex -1.21352 0.881678 5
      vertex -1.09345 1.02682 5
      vertex -10.6878 -1.40716 5
    endloop
  endfacet
  facet normal 0 0 1
    outer loop
      vertex -1.39467 -0.552187 5
      vertex -1.45287 -0.373035 5
      vertex -10.6878 -1.40716 5
    endloop
  endfacet
  facet normal 0 0 1
    outer loop
      vertex -8.34983 3.31385 5
      vertex -8.88802 1.30528 5
      vertex -3.73662 9.4155 5
    endloop
  endfacet
  facet normal 0 0 1
    outer loop
      vertex -9.4155 3.73662 5
      vertex -8.34983 3.31385 5
      vertex -7.94371 6.28594 5
    endloop
  endfacet
  facet normal 0 0 1
    outer loop
      vertex -12.5645 -0.557671 5
      vertex -10.6878 -1.40716 5
      vertex -10.6878 1.40716 5
    endloop
  endfacet
  facet normal 0 0 1
    outer loop
      vertex 8.88802 1.30528 5
      vertex 1.21352 0.881678 5
      vertex 1.31446 0.722631 5
    endloop
  endfacet
  facet normal 0 0 1
    outer loop
      vertex 8.88802 1.30528 5
      vertex 8.34983 3.31385 5
      vertex 1.21352 0.881678 5
    endloop
  endfacet
  facet normal -0.412357 0.911022 0
    outer loop
      vertex -10.6878 1.40716 5
      vertex -10.6878 1.40716 0
      vertex -12.5645 0.557671 5
    endloop
  endfacet
  facet normal -0.412357 0.911022 0
    outer loop
      vertex -12.5645 0.557671 5
      vertex -10.6878 1.40716 0
      vertex -12.5645 0.557671 0
    endloop
  endfacet
  facet normal -0.0967021 -0.995313 0
    outer loop
      vertex -10.0226 -1.47179 0
      vertex -10.0226 -1.47179 5
      vertex -10.6878 -1.40716 5
    endloop
  endfacet
  facet normal -0.0967021 -0.995313 0
    outer loop
      vertex -10.6878 -1.40716 0
      vertex -10.0226 -1.47179 0
      vertex -10.6878 -1.40716 5
    endloop
  endfacet
  facet normal 0.145211 -0.989401 0
    outer loop
      vertex -8.88802 -1.30528 0
      vertex -8.88802 -1.30528 5
      vertex -10.0226 -1.47179 5
    endloop
  endfacet
  facet normal 0.145211 -0.989401 0
    outer loop
      vertex -10.0226 -1.47179 0
      vertex -8.88802 -1.30528 0
      vertex -10.0226 -1.47179 5
    endloop
  endfacet
  facet normal -0.965926 -0.25882 0
    outer loop
      vertex -8.34983 -3.31385 5
      vertex -8.88802 -1.30528 5
      vertex -8.34983 -3.31385 0
    endloop
  endfacet
  facet normal -0.965926 -0.25882 0
    outer loop
      vertex -8.34983 -3.31385 0
      vertex -8.88802 -1.30528 5
      vertex -8.88802 -1.30528 0
    endloop
  endfacet
  facet normal -0.368758 0.929526 0
    outer loop
      vertex -8.34983 -3.31385 5
      vertex -8.34983 -3.31385 0
      vertex -9.4155 -3.73662 5
    endloop
  endfacet
  facet normal -0.368758 0.929526 0
    outer loop
      vertex -9.4155 -3.73662 5
      vertex -8.34983 -3.31385 0
      vertex -9.4155 -3.73662 0
    endloop
  endfacet
  facet normal -0.581198 0.813762 0
    outer loop
      vertex -9.4155 -3.73662 5
      vertex -9.4155 -3.73662 0
      vertex -9.95962 -4.12524 5
    endloop
  endfacet
  facet normal -0.581198 0.813762 0
    outer loop
      vertex -9.95962 -4.12524 5
      vertex -9.4155 -3.73662 0
      vertex -9.95962 -4.12524 0
    endloop
  endfacet
  facet normal -0.812705 0.582676 0
    outer loop
      vertex -9.95962 -4.12524 5
      vertex -9.95962 -4.12524 0
      vertex -11.1599 -5.79938 5
    endloop
  endfacet
  facet normal -0.812705 0.582676 0
    outer loop
      vertex -11.1599 -5.79938 5
      vertex -9.95962 -4.12524 0
      vertex -11.1599 -5.79938 0
    endloop
  endfacet
  facet normal -0.865992 -0.500058 0
    outer loop
      vertex -10.6022 -6.76515 5
      vertex -11.1599 -5.79938 5
      vertex -10.6022 -6.76515 0
    endloop
  endfacet
  facet normal -0.865992 -0.500058 0
    outer loop
      vertex -10.6022 -6.76515 0
      vertex -11.1599 -5.79938 5
      vertex -11.1599 -5.79938 0
    endloop
  endfacet
  facet normal 0.0983777 -0.995149 0
    outer loop
      vertex -8.55246 -6.56251 0
      vertex -8.55246 -6.56251 5
      vertex -10.6022 -6.76515 5
    endloop
  endfacet
  facet normal 0.0983777 -0.995149 0
    outer loop
      vertex -10.6022 -6.76515 0
      vertex -8.55246 -6.56251 0
      vertex -10.6022 -6.76515 5
    endloop
  endfacet
  facet normal 0.413644 -0.910439 0
    outer loop
      vertex -7.94371 -6.28594 0
      vertex -7.94371 -6.28594 5
      vertex -8.55246 -6.56251 5
    endloop
  endfacet
  facet normal 0.413644 -0.910439 0
    outer loop
      vertex -8.55246 -6.56251 0
      vertex -7.94371 -6.28594 0
      vertex -8.55246 -6.56251 5
    endloop
  endfacet
  facet normal 0.620634 -0.784101 0
    outer loop
      vertex -7.04483 -5.57445 0
      vertex -7.04483 -5.57445 5
      vertex -7.94371 -6.28594 5
    endloop
  endfacet
  facet normal 0.620634 -0.784101 0
    outer loop
      vertex -7.94371 -6.28594 0
      vertex -7.04483 -5.57445 0
      vertex -7.94371 -6.28594 5
    endloop
  endfacet
  facet normal -0.707107 -0.707107 0
    outer loop
      vertex -5.57445 -7.04483 0
      vertex -5.57445 -7.04483 5
      vertex -7.04483 -5.57445 5
    endloop
  endfacet
  facet normal -0.707107 -0.707107 0
    outer loop
      vertex -7.04483 -5.57445 0
      vertex -5.57445 -7.04483 0
      vertex -7.04483 -5.57445 5
    endloop
  endfacet
  facet normal -0.784101 0.620634 0
    outer loop
      vertex -5.57445 -7.04483 5
      vertex -5.57445 -7.04483 0
      vertex -6.28594 -7.94371 5
    endloop
  endfacet
  facet normal -0.784101 0.620634 0
    outer loop
      vertex -6.28594 -7.94371 5
      vertex -5.57445 -7.04483 0
      vertex -6.28594 -7.94371 0
    endloop
  endfacet
  facet normal -0.910439 0.413644 0
    outer loop
      vertex -6.28594 -7.94371 5
      vertex -6.28594 -7.94371 0
      vertex -6.56251 -8.55246 5
    endloop
  endfacet
  facet normal -0.910439 0.413644 0
    outer loop
      vertex -6.56251 -8.55246 5
      vertex -6.28594 -7.94371 0
      vertex -6.56251 -8.55246 0
    endloop
  endfacet
  facet normal -0.995149 0.0983777 0
    outer loop
      vertex -6.56251 -8.55246 5
      vertex -6.56251 -8.55246 0
      vertex -6.76515 -10.6022 5
    endloop
  endfacet
  facet normal -0.995149 0.0983777 0
    outer loop
      vertex -6.76515 -10.6022 5
      vertex -6.56251 -8.55246 0
      vertex -6.76515 -10.6022 0
    endloop
  endfacet
  facet normal -0.500058 -0.865992 0
    outer loop
      vertex -5.79938 -11.1599 0
      vertex -5.79938 -11.1599 5
      vertex -6.76515 -10.6022 5
    endloop
  endfacet
  facet normal -0.500058 -0.865992 0
    outer loop
      vertex -6.76515 -10.6022 0
      vertex -5.79938 -11.1599 0
      vertex -6.76515 -10.6022 5
    endloop
  endfacet
  facet normal 0.582676 -0.812705 0
    outer loop
      vertex -4.12524 -9.95962 0
      vertex -4.12524 -9.95962 5
      vertex -5.79938 -11.1599 5
    endloop
  endfacet
  facet normal 0.582676 -0.812705 0
    outer loop
      vertex -5.79938 -11.1599 0
      vertex -4.12524 -9.95962 0
      vertex -5.79938 -11.1599 5
    endloop
  endfacet
  facet normal 0.813762 -0.581198 0
    outer loop
      vertex -3.73662 -9.4155 0
      vertex -3.73662 -9.4155 5
      vertex -4.12524 -9.95962 5
    endloop
  endfacet
  facet normal 0.813762 -0.581198 0
    outer loop
      vertex -4.12524 -9.95962 0
      vertex -3.73662 -9.4155 0
      vertex -4.12524 -9.95962 5
    endloop
  endfacet
  facet normal 0.929526 -0.368758 0
    outer loop
      vertex -3.31385 -8.34983 0
      vertex -3.31385 -8.34983 5
      vertex -3.73662 -9.4155 5
    endloop
  endfacet
  facet normal 0.929526 -0.368758 0
    outer loop
      vertex -3.73662 -9.4155 0
      vertex -3.31385 -8.34983 0
      vertex -3.73662 -9.4155 5
    endloop
  endfacet
  facet normal -0.25882 -0.965926 0
    outer loop
      vertex -1.30528 -8.88802 0
      vertex -1.30528 -8.88802 5
      vertex -3.31385 -8.34983 5
    endloop
  endfacet
  facet normal -0.25882 -0.965926 0
    outer loop
      vertex -3.31385 -8.34983 0
      vertex -1.30528 -8.88802 0
      vertex -3.31385 -8.34983 5
    endloop
  endfacet
  facet normal -0.989401 0.145211 0
    outer loop
      vertex -1.30528 -8.88802 5
      vertex -1.30528 -8.88802 0
      vertex -1.47179 -10.0226 5
    endloop
  endfacet
  facet normal -0.989401 0.145211 0
    outer loop
      vertex -1.47179 -10.0226 5
      vertex -1.30528 -8.88802 0
      vertex -1.47179 -10.0226 0
    endloop
  endfacet
  facet normal -0.995313 -0.0967021 0
    outer loop
      vertex -1.40716 -10.6878 5
      vertex -1.47179 -10.0226 5
      vertex -1.40716 -10.6878 0
    endloop
  endfacet
  facet normal -0.995313 -0.0967021 0
    outer loop
      vertex -1.40716 -10.6878 0
      vertex -1.47179 -10.0226 5
      vertex -1.47179 -10.0226 0
    endloop
  endfacet
  facet normal -0.911022 -0.412357 0
    outer loop
      vertex -0.557671 -12.5645 5
      vertex -1.40716 -10.6878 5
      vertex -0.557671 -12.5645 0
    endloop
  endfacet
  facet normal -0.911022 -0.412357 0
    outer loop
      vertex -0.557671 -12.5645 0
      vertex -1.40716 -10.6878 5
      vertex -1.40716 -10.6878 0
    endloop
  endfacet
  facet normal 0 -1 0
    outer loop
      vertex 0.557671 -12.5645 0
      vertex 0.557671 -12.5645 5
      vertex -0.557671 -12.5645 5
    endloop
  endfacet
  facet normal 0 -1 0
    outer loop
      vertex -0.557671 -12.5645 0
      vertex 0.557671 -12.5645 0
      vertex -0.557671 -12.5645 5
    endloop
  endfacet
  facet normal 0.911022 -0.412357 0
    outer loop
      vertex 1.40716 -10.6878 0
      vertex 1.40716 -10.6878 5
      vertex 0.557671 -12.5645 5
    endloop
  endfacet
  facet normal 0.911022 -0.412357 0
    outer loop
      vertex 0.557671 -12.5645 0
      vertex 1.40716 -10.6878 0
      vertex 0.557671 -12.5645 5
    endloop
  endfacet
  facet normal 0.995313 -0.0967021 0
    outer loop
      vertex 1.47179 -10.0226 0
      vertex 1.47179 -10.0226 5
      vertex 1.40716 -10.6878 5
    endloop
  endfacet
  facet normal 0.995313 -0.0967021 0
    outer loop
      vertex 1.40716 -10.6878 0
      vertex 1.47179 -10.0226 0
      vertex 1.40716 -10.6878 5
    endloop
  endfacet
  facet normal 0.989401 0.145211 0
    outer loop
      vertex 1.30528 -8.88802 5
      vertex 1.47179 -10.0226 5
      vertex 1.47179 -10.0226 0
    endloop
  endfacet
  facet normal 0.989401 0.145211 0
    outer loop
      vertex 1.30528 -8.88802 0
      vertex 1.30528 -8.88802 5
      vertex 1.47179 -10.0226 0
    endloop
  endfacet
  facet normal 0.25882 -0.965926 0
    outer loop
      vertex 3.31385 -8.34983 0
      vertex 3.31385 -8.34983 5
      vertex 1.30528 -8.88802 5
    endloop
  endfacet
  facet normal 0.25882 -0.965926 0
    outer loop
      vertex 1.30528 -8.88802 0
      vertex 3.31385 -8.34983 0
      vertex 1.30528 -8.88802 5
    endloop
  endfacet
  facet normal -0.929526 -0.368758 0
    outer loop
      vertex 3.73662 -9.4155 5
      vertex 3.31385 -8.34983 5
      vertex 3.73662 -9.4155 0
    endloop
  endfacet
  facet normal -0.929526 -0.368758 0
    outer loop
      vertex 3.73662 -9.4155 0
      vertex 3.31385 -8.34983 5
      vertex 3.31385 -8.34983 0
    endloop
  endfacet
  facet normal -0.813762 -0.581198 0
    outer loop
      vertex 4.12524 -9.95962 5
      vertex 3.73662 -9.4155 5
      vertex 4.12524 -9.95962 0
    endloop
  endfacet
  facet normal -0.813762 -0.581198 0
    outer loop
      vertex 4.12524 -9.95962 0
      vertex 3.73662 -9.4155 5
      vertex 3.73662 -9.4155 0
    endloop
  endfacet
  facet normal -0.582676 -0.812705 0
    outer loop
      vertex 5.79938 -11.1599 0
      vertex 5.79938 -11.1599 5
      vertex 4.12524 -9.95962 5
    endloop
  endfacet
  facet normal -0.582676 -0.812705 0
    outer loop
      vertex 4.12524 -9.95962 0
      vertex 5.79938 -11.1599 0
      vertex 4.12524 -9.95962 5
    endloop
  endfacet
  facet normal 0.500058 -0.865992 0
    outer loop
      vertex 6.76515 -10.6022 0
      vertex 6.76515 -10.6022 5
      vertex 5.79938 -11.1599 5
    endloop
  endfacet
  facet normal 0.500058 -0.865992 0
    outer loop
      vertex 5.79938 -11.1599 0
      vertex 6.76515 -10.6022 0
      vertex 5.79938 -11.1599 5
    endloop
  endfacet
  facet normal 0.995149 0.0983777 0
    outer loop
      vertex 6.56251 -8.55246 5
      vertex 6.76515 -10.6022 5
      vertex 6.76515 -10.6022 0
    endloop
  endfacet
  facet normal 0.995149 0.0983777 0
    outer loop
      vertex 6.56251 -8.55246 0
      vertex 6.56251 -8.55246 5
      vertex 6.76515 -10.6022 0
    endloop
  endfacet
  facet normal 0.910439 0.413644 0
    outer loop
      vertex 6.28594 -7.94371 5
      vertex 6.56251 -8.55246 5
      vertex 6.56251 -8.55246 0
    endloop
  endfacet
  facet normal 0.910439 0.413644 0
    outer loop
      vertex 6.28594 -7.94371 0
      vertex 6.28594 -7.94371 5
      vertex 6.56251 -8.55246 0
    endloop
  endfacet
  facet normal 0.784101 0.620634 0
    outer loop
      vertex 5.57445 -7.04483 5
      vertex 6.28594 -7.94371 5
      vertex 6.28594 -7.94371 0
    endloop
  endfacet
  facet normal 0.784101 0.620634 0
    outer loop
      vertex 5.57445 -7.04483 0
      vertex 5.57445 -7.04483 5
      vertex 6.28594 -7.94371 0
    endloop
  endfacet
  facet normal 0.707107 -0.707107 0
    outer loop
      vertex 7.04483 -5.57445 0
      vertex 7.04483 -5.57445 5
      vertex 5.57445 -7.04483 5
    endloop
  endfacet
  facet normal 0.707107 -0.707107 0
    outer loop
      vertex 5.57445 -7.04483 0
      vertex 7.04483 -5.57445 0
      vertex 5.57445 -7.04483 5
    endloop
  endfacet
  facet normal -0.620634 -0.784101 0
    outer loop
      vertex 7.94371 -6.28594 0
      vertex 7.94371 -6.28594 5
      vertex 7.04483 -5.57445 5
    endloop
  endfacet
  facet normal -0.620634 -0.784101 0
    outer loop
      vertex 7.04483 -5.57445 0
      vertex 7.94371 -6.28594 0
      vertex 7.04483 -5.57445 5
    endloop
  endfacet
  facet normal -0.413644 -0.910439 0
    outer loop
      vertex 8.55246 -6.56251 0
      vertex 8.55246 -6.56251 5
      vertex 7.94371 -6.28594 5
    endloop
  endfacet
  facet normal -0.413644 -0.910439 0
    outer loop
      vertex 7.94371 -6.28594 0
      vertex 8.55246 -6.56251 0
      vertex 7.94371 -6.28594 5
    endloop
  endfacet
  facet normal -0.0983777 -0.995149 0
    outer loop
      vertex 10.6022 -6.76515 0
      vertex 10.6022 -6.76515 5
      vertex 8.55246 -6.56251 5
    endloop
  endfacet
  facet normal -0.0983777 -0.995149 0
    outer loop
      vertex 8.55246 -6.56251 0
      vertex 10.6022 -6.76515 0
      vertex 8.55246 -6.56251 5
    endloop
  endfacet
  facet normal 0.865992 -0.500058 0
    outer loop
      vertex 11.1599 -5.79938 0
      vertex 11.1599 -5.79938 5
      vertex 10.6022 -6.76515 5
    endloop
  endfacet
  facet normal 0.865992 -0.500058 0
    outer loop
      vertex 10.6022 -6.76515 0
      vertex 11.1599 -5.79938 0
      vertex 10.6022 -6.76515 5
    endloop
  endfacet
  facet normal 0.812705 0.582676 0
    outer loop
      vertex 9.95962 -4.12524 5
      vertex 11.1599 -5.79938 5
      vertex 11.1599 -5.79938 0
    endloop
  endfacet
  facet normal 0.812705 0.582676 0
    outer loop
      vertex 9.95962 -4.12524 0
      vertex 9.95962 -4.12524 5
      vertex 11.1599 -5.79938 0
    endloop
  endfacet
  facet normal 0.581198 0.813762 0
    outer loop
      vertex 9.95962 -4.12524 5
      vertex 9.95962 -4.12524 0
      vertex 9.4155 -3.73662 5
    endloop
  endfacet
  facet normal 0.581198 0.813762 0
    outer loop
      vertex 9.4155 -3.73662 5
      vertex 9.95962 -4.12524 0
      vertex 9.4155 -3.73662 0
    endloop
  endfacet
  facet normal 0.368758 0.929526 0
    outer loop
      vertex 9.4155 -3.73662 5
      vertex 9.4155 -3.73662 0
      vertex 8.34983 -3.31385 5
    endloop
  endfacet
  facet normal 0.368758 0.929526 0
    outer loop
      vertex 8.34983 -3.31385 5
      vertex 9.4155 -3.73662 0
      vertex 8.34983 -3.31385 0
    endloop
  endfacet
  facet normal 0.965926 -0.25882 0
    outer loop
      vertex 8.88802 -1.30528 0
      vertex 8.88802 -1.30528 5
      vertex 8.34983 -3.31385 5
    endloop
  endfacet
  facet normal 0.965926 -0.25882 0
    outer loop
      vertex 8.34983 -3.31385 0
      vertex 8.88802 -1.30528 0
      vertex 8.34983 -3.31385 5
    endloop
  endfacet
  facet normal -0.145211 -0.989401 0
    outer loop
      vertex 10.0226 -1.47179 0
      vertex 10.0226 -1.47179 5
      vertex 8.88802 -1.30528 5
    endloop
  endfacet
  facet normal -0.145211 -0.989401 0
    outer loop
      vertex 8.88802 -1.30528 0
      vertex 10.0226 -1.47179 0
      vertex 8.88802 -1.30528 5
    endloop
  endfacet
  facet normal 0.0967021 -0.995313 0
    outer loop
      vertex 10.6878 -1.40716 0
      vertex 10.6878 -1.40716 5
      vertex 10.0226 -1.47179 5
    endloop
  endfacet
  facet normal 0.0967021 -0.995313 0
    outer loop
      vertex 10.0226 -1.47179 0
      vertex 10.6878 -1.40716 0
      vertex 10.0226 -1.47179 5
    endloop
  endfacet
  facet normal 0.412357 -0.911022 0
    outer loop
      vertex 12.5645 -0.557671 0
      vertex 12.5645 -0.557671 5
      vertex 10.6878 -1.40716 5
    endloop
  endfacet
  facet normal 0.412357 -0.911022 0
    outer loop
      vertex 10.6878 -1.40716 0
      vertex 12.5645 -0.557671 0
      vertex 10.6878 -1.40716 5
    endloop
  endfacet
  facet normal 1 0 0
    outer loop
      vertex 12.5645 0.557671 0
      vertex 12.5645 0.557671 5
      vertex 12.5645 -0.557671 5
    endloop
  endfacet
  facet normal 1 0 0
    outer loop
      vertex 12.5645 -0.557671 0
      vertex 12.5645 0.557671 0
      vertex 12.5645 -0.557671 5
    endloop
  endfacet
  facet normal 0.412357 0.911022 0
    outer loop
      vertex 12.5645 0.557671 5
      vertex 12.5645 0.557671 0
      vertex 10.6878 1.40716 5
    endloop
  endfacet
  facet normal 0.412357 0.911022 0
    outer loop
      vertex 10.6878 1.40716 5
      vertex 12.5645 0.557671 0
      vertex 10.6878 1.40716 0
    endloop
  endfacet
  facet normal 0.0967021 0.995313 0
    outer loop
      vertex 10.6878 1.40716 5
      vertex 10.6878 1.40716 0
      vertex 10.0226 1.47179 5
    endloop
  endfacet
  facet normal 0.0967021 0.995313 0
    outer loop
      vertex 10.0226 1.47179 5
      vertex 10.6878 1.40716 0
      vertex 10.0226 1.47179 0
    endloop
  endfacet
  facet normal -0.145211 0.989401 0
    outer loop
      vertex 10.0226 1.47179 5
      vertex 10.0226 1.47179 0
      vertex 8.88802 1.30528 5
    endloop
  endfacet
  facet normal -0.145211 0.989401 0
    outer loop
      vertex 8.88802 1.30528 5
      vertex 10.0226 1.47179 0
      vertex 8.88802 1.30528 0
    endloop
  endfacet
  facet normal 0.965926 0.25882 0
    outer loop
      vertex 8.34983 3.31385 5
      vertex 8.88802 1.30528 5
      vertex 8.88802 1.30528 0
    endloop
  endfacet
  facet normal 0.965926 0.25882 0
    outer loop
      vertex 8.34983 3.31385 0
      vertex 8.34983 3.31385 5
      vertex 8.88802 1.30528 0
    endloop
  endfacet
  facet normal 0.368758 -0.929526 0
    outer loop
      vertex 9.4155 3.73662 0
      vertex 9.4155 3.73662 5
      vertex 8.34983 3.31385 5
    endloop
  endfacet
  facet normal 0.368758 -0.929526 0
    outer loop
      vertex 8.34983 3.31385 0
      vertex 9.4155 3.73662 0
      vertex 8.34983 3.31385 5
    endloop
  endfacet
  facet normal 0.581198 -0.813762 0
    outer loop
      vertex 9.95962 4.12524 0
      vertex 9.95962 4.12524 5
      vertex 9.4155 3.73662 5
    endloop
  endfacet
  facet normal 0.581198 -0.813762 0
    outer loop
      vertex 9.4155 3.73662 0
      vertex 9.95962 4.12524 0
      vertex 9.4155 3.73662 5
    endloop
  endfacet
  facet normal 0.812705 -0.582676 0
    outer loop
      vertex 11.1599 5.79938 0
      vertex 11.1599 5.79938 5
      vertex 9.95962 4.12524 5
    endloop
  endfacet
  facet normal 0.812705 -0.582676 0
    outer loop
      vertex 9.95962 4.12524 0
      vertex 11.1599 5.79938 0
      vertex 9.95962 4.12524 5
    endloop
  endfacet
  facet normal 0.865992 0.500058 0
    outer loop
      vertex 10.6022 6.76515 5
      vertex 11.1599 5.79938 5
      vertex 11.1599 5.79938 0
    endloop
  endfacet
  facet normal 0.865992 0.500058 0
    outer loop
      vertex 10.6022 6.76515 0
      vertex 10.6022 6.76515 5
      vertex 11.1599 5.79938 0
    endloop
  endfacet
  facet normal -0.0983777 0.995149 0
    outer loop
      vertex 10.6022 6.76515 5
      vertex 10.6022 6.76515 0
      vertex 8.55246 6.56251 5
    endloop
  endfacet
  facet normal -0.0983777 0.995149 0
    outer loop
      vertex 8.55246 6.56251 5
      vertex 10.6022 6.76515 0
      vertex 8.55246 6.56251 0
    endloop
  endfacet
  facet normal -0.413644 0.910439 0
    outer loop
      vertex 8.55246 6.56251 5
      vertex 8.55246 6.56251 0
      vertex 7.94371 6.28594 5
    endloop
  endfacet
  facet normal -0.413644 0.910439 0
    outer loop
      vertex 7.94371 6.28594 5
      vertex 8.55246 6.56251 0
      vertex 7.94371 6.28594 0
    endloop
  endfacet
  facet normal -0.620634 0.784101 0
    outer loop
      vertex 7.94371 6.28594 5
      vertex 7.94371 6.28594 0
      vertex 7.04483 5.57445 5
    endloop
  endfacet
  facet normal -0.620634 0.784101 0
    outer loop
      vertex 7.04483 5.57445 5
      vertex 7.94371 6.28594 0
      vertex 7.04483 5.57445 0
    endloop
  endfacet
  facet normal 0.707107 0.707107 0
    outer loop
      vertex 7.04483 5.57445 5
      vertex 7.04483 5.57445 0
      vertex 5.57445 7.04483 5
    endloop
  endfacet
  facet normal 0.707107 0.707107 0
    outer loop
      vertex 5.57445 7.04483 5
      vertex 7.04483 5.57445 0
      vertex 5.57445 7.04483 0
    endloop
  endfacet
  facet normal 0.784101 -0.620634 0
    outer loop
      vertex 6.28594 7.94371 0
      vertex 6.28594 7.94371 5
      vertex 5.57445 7.04483 5
    endloop
  endfacet
  facet normal 0.784101 -0.620634 0
    outer loop
      vertex 5.57445 7.04483 0
      vertex 6.28594 7.94371 0
      vertex 5.57445 7.04483 5
    endloop
  endfacet
  facet normal 0.910439 -0.413644 0
    outer loop
      vertex 6.56251 8.55246 0
      vertex 6.56251 8.55246 5
      vertex 6.28594 7.94371 5
    endloop
  endfacet
  facet normal 0.910439 -0.413644 0
    outer loop
      vertex 6.28594 7.94371 0
      vertex 6.56251 8.55246 0
      vertex 6.28594 7.94371 5
    endloop
  endfacet
  facet normal 0.995149 -0.0983777 0
    outer loop
      vertex 6.76515 10.6022 0
      vertex 6.76515 10.6022 5
      vertex 6.56251 8.55246 5
    endloop
  endfacet
  facet normal 0.995149 -0.0983777 0
    outer loop
      vertex 6.56251 8.55246 0
      vertex 6.76515 10.6022 0
      vertex 6.56251 8.55246 5
    endloop
  endfacet
  facet normal 0.500058 0.865992 0
    outer loop
      vertex 6.76515 10.6022 5
      vertex 6.76515 10.6022 0
      vertex 5.79938 11.1599 5
    endloop
  endfacet
  facet normal 0.500058 0.865992 0
    outer loop
      vertex 5.79938 11.1599 5
      vertex 6.76515 10.6022 0
      vertex 5.79938 11.1599 0
    endloop
  endfacet
  facet normal -0.582676 0.812705 0
    outer loop
      vertex 5.79938 11.1599 5
      vertex 5.79938 11.1599 0
      vertex 4.12524 9.95962 5
    endloop
  endfacet
  facet normal -0.582676 0.812705 0
    outer loop
      vertex 4.12524 9.95962 5
      vertex 5.79938 11.1599 0
      vertex 4.12524 9.95962 0
    endloop
  endfacet
  facet normal -0.813762 0.581198 0
    outer loop
      vertex 4.12524 9.95962 5
      vertex 4.12524 9.95962 0
      vertex 3.73662 9.4155 5
    endloop
  endfacet
  facet normal -0.813762 0.581198 0
    outer loop
      vertex 3.73662 9.4155 5
      vertex 4.12524 9.95962 0
      vertex 3.73662 9.4155 0
    endloop
  endfacet
  facet normal -0.929526 0.368758 0
    outer loop
      vertex 3.73662 9.4155 5
      vertex 3.73662 9.4155 0
      vertex 3.31385 8.34983 5
    endloop
  endfacet
  facet normal -0.929526 0.368758 0
    outer loop
      vertex 3.31385 8.34983 5
      vertex 3.73662 9.4155 0
      vertex 3.31385 8.34983 0
    endloop
  endfacet
  facet normal 0.25882 0.965926 0
    outer loop
      vertex 3.31385 8.34983 5
      vertex 3.31385 8.34983 0
      vertex 1.30528 8.88802 5
    endloop
  endfacet
  facet normal 0.25882 0.965926 0
    outer loop
      vertex 1.30528 8.88802 5
      vertex 3.31385 8.34983 0
      vertex 1.30528 8.88802 0
    endloop
  endfacet
  facet normal 0.989401 -0.145211 0
    outer loop
      vertex 1.47179 10.0226 0
      vertex 1.47179 10.0226 5
      vertex 1.30528 8.88802 5
    endloop
  endfacet
  facet normal 0.989401 -0.145211 0
    outer loop
      vertex 1.30528 8.88802 0
      vertex 1.47179 10.0226 0
      vertex 1.30528 8.88802 5
    endloop
  endfacet
  facet normal 0.995313 0.0967021 0
    outer loop
      vertex 1.40716 10.6878 5
      vertex 1.47179 10.0226 5
      vertex 1.47179 10.0226 0
    endloop
  endfacet
  facet normal 0.995313 0.0967021 0
    outer loop
      vertex 1.40716 10.6878 0
      vertex 1.40716 10.6878 5
      vertex 1.47179 10.0226 0
    endloop
  endfacet
  facet normal 0.911022 0.412357 0
    outer loop
      vertex 0.557671 12.5645 5
      vertex 1.40716 10.6878 5
      vertex 1.40716 10.6878 0
    endloop
  endfacet
  facet normal 0.911022 0.412357 0
    outer loop
      vertex 0.557671 12.5645 0
      vertex 0.557671 12.5645 5
      vertex 1.40716 10.6878 0
    endloop
  endfacet
  facet normal 0 1 0
    outer loop
      vertex 0.557671 12.5645 5
      vertex 0.557671 12.5645 0
      vertex -0.557671 12.5645 5
    endloop
  endfacet
  facet normal 0 1 0
    outer loop
      vertex -0.557671 12.5645 5
      vertex 0.557671 12.5645 0
      vertex -0.557671 12.5645 0
    endloop
  endfacet
  facet normal -0.911022 0.412357 0
    outer loop
      vertex -0.557671 12.5645 5
      vertex -0.557671 12.5645 0
      vertex -1.40716 10.6878 5
    endloop
  endfacet
  facet normal -0.911022 0.412357 0
    outer loop
      vertex -1.40716 10.6878 5
      vertex -0.557671 12.5645 0
      vertex -1.40716 10.6878 0
    endloop
  endfacet
  facet normal -0.995313 0.0967021 0
    outer loop
      vertex -1.40716 10.6878 5
      vertex -1.40716 10.6878 0
      vertex -1.47179 10.0226 5
    endloop
  endfacet
  facet normal -0.995313 0.0967021 0
    outer loop
      vertex -1.47179 10.0226 5
      vertex -1.40716 10.6878 0
      vertex -1.47179 10.0226 0
    endloop
  endfacet
  facet normal -0.989401 -0.145211 0
    outer loop
      vertex -1.30528 8.88802 5
      vertex -1.47179 10.0226 5
      vertex -1.30528 8.88802 0
    endloop
  endfacet
  facet normal -0.989401 -0.145211 0
    outer loop
      vertex -1.30528 8.88802 0
      vertex -1.47179 10.0226 5
      vertex -1.47179 10.0226 0
    endloop
  endfacet
  facet normal -0.25882 0.965926 0
    outer loop
      vertex -1.30528 8.88802 5
      vertex -1.30528 8.88802 0
      vertex -3.31385 8.34983 5
    endloop
  endfacet
  facet normal -0.25882 0.965926 0
    outer loop
      vertex -3.31385 8.34983 5
      vertex -1.30528 8.88802 0
      vertex -3.31385 8.34983 0
    endloop
  endfacet
  facet normal 0.929526 0.368758 0
    outer loop
      vertex -3.73662 9.4155 5
      vertex -3.31385 8.34983 5
      vertex -3.31385 8.34983 0
    endloop
  endfacet
  facet normal 0.929526 0.368758 0
    outer loop
      vertex -3.73662 9.4155 0
      vertex -3.73662 9.4155 5
      vertex -3.31385 8.34983 0
    endloop
  endfacet
  facet normal 0.813762 0.581198 0
    outer loop
      vertex -4.12524 9.95962 5
      vertex -3.73662 9.4155 5
      vertex -3.73662 9.4155 0
    endloop
  endfacet
  facet normal 0.813762 0.581198 0
    outer loop
      vertex -4.12524 9.95962 0
      vertex -4.12524 9.95962 5
      vertex -3.73662 9.4155 0
    endloop
  endfacet
  facet normal 0.582676 0.812705 0
    outer loop
      vertex -4.12524 9.95962 5
      vertex -4.12524 9.95962 0
      vertex -5.79938 11.1599 5
    endloop
  endfacet
  facet normal 0.582676 0.812705 0
    outer loop
      vertex -5.79938 11.1599 5
      vertex -4.12524 9.95962 0
      vertex -5.79938 11.1599 0
    endloop
  endfacet
  facet normal -0.500058 0.865992 0
    outer loop
      vertex -5.79938 11.1599 5
      vertex -5.79938 11.1599 0
      vertex -6.76515 10.6022 5
    endloop
  endfacet
  facet normal -0.500058 0.865992 0
    outer loop
      vertex -6.76515 10.6022 5
      vertex -5.79938 11.1599 0
      vertex -6.76515 10.6022 0
    endloop
  endfacet
  facet normal -0.995149 -0.0983777 0
    outer loop
      vertex -6.56251 8.55246 5
      vertex -6.76515 10.6022 5
      vertex -6.56251 8.55246 0
    endloop
  endfacet
  facet normal -0.995149 -0.0983777 0
    outer loop
      vertex -6.56251 8.55246 0
      vertex -6.76515 10.6022 5
      vertex -6.76515 10.6022 0
    endloop
  endfacet
  facet normal -0.910439 -0.413644 0
    outer loop
      vertex -6.28594 7.94371 5
      vertex -6.56251 8.55246 5
      vertex -6.28594 7.94371 0
    endloop
  endfacet
  facet normal -0.910439 -0.413644 0
    outer loop
      vertex -6.28594 7.94371 0
      vertex -6.56251 8.55246 5
      vertex -6.56251 8.55246 0
    endloop
  endfacet
  facet normal -0.784101 -0.620634 0
    outer loop
      vertex -5.57445 7.04483 5
      vertex -6.28594 7.94371 5
      vertex -5.57445 7.04483 0
    endloop
  endfacet
  facet normal -0.784101 -0.620634 0
    outer loop
      vertex -5.57445 7.04483 0
      vertex -6.28594 7.94371 5
      vertex -6.28594 7.94371 0
    endloop
  endfacet
  facet normal -0.707107 0.707107 0
    outer loop
      vertex -5.57445 7.04483 5
      vertex -5.57445 7.04483 0
      vertex -7.04483 5.57445 5
    endloop
  endfacet
  facet normal -0.707107 0.707107 0
    outer loop
      vertex -7.04483 5.57445 5
      vertex -5.57445 7.04483 0
      vertex -7.04483 5.57445 0
    endloop
  endfacet
  facet normal 0.620634 0.784101 0
    outer loop
      vertex -7.04483 5.57445 5
      vertex -7.04483 5.57445 0
      vertex -7.94371 6.28594 5
    endloop
  endfacet
  facet normal 0.620634 0.784101 0
    outer loop
      vertex -7.94371 6.28594 5
      vertex -7.04483 5.57445 0
      vertex -7.94371 6.28594 0
    endloop
  endfacet
  facet normal 0.413644 0.910439 0
    outer loop
      vertex -7.94371 6.28594 5
      vertex -7.94371 6.28594 0
      vertex -8.55246 6.56251 5
    endloop
  endfacet
  facet normal 0.413644 0.910439 0
    outer loop
      vertex -8.55246 6.56251 5
      vertex -7.94371 6.28594 0
      vertex -8.55246 6.56251 0
    endloop
  endfacet
  facet normal 0.0983777 0.995149 0
    outer loop
      vertex -8.55246 6.56251 5
      vertex -8.55246 6.56251 0
      vertex -10.6022 6.76515 5
    endloop
  endfacet
  facet normal 0.0983777 0.995149 0
    outer loop
      vertex -10.6022 6.76515 5
      vertex -8.55246 6.56251 0
      vertex -10.6022 6.76515 0
    endloop
  endfacet
  facet normal -0.865992 0.500058 0
    outer loop
      vertex -10.6022 6.76515 5
      vertex -10.6022 6.76515 0
      vertex -11.1599 5.79938 5
    endloop
  endfacet
  facet normal -0.865992 0.500058 0
    outer loop
      vertex -11.1599 5.79938 5
      vertex -10.6022 6.76515 0
      vertex -11.1599 5.79938 0
    endloop
  endfacet
  facet normal -0.812705 -0.582676 0
    outer loop
      vertex -9.95962 4.12524 5
      vertex -11.1599 5.79938 5
      vertex -9.95962 4.12524 0
    endloop
  endfacet
  facet normal -0.812705 -0.582676 0
    outer loop
      vertex -9.95962 4.12524 0
      vertex -11.1599 5.79938 5
      vertex -11.1599 5.79938 0
    endloop
  endfacet
  facet normal -0.581198 -0.813762 0
    outer loop
      vertex -9.4155 3.73662 0
      vertex -9.4155 3.73662 5
      vertex -9.95962 4.12524 5
    endloop
  endfacet
  facet normal -0.581198 -0.813762 0
    outer loop
      vertex -9.95962 4.12524 0
      vertex -9.4155 3.73662 0
      vertex -9.95962 4.12524 5
    endloop
  endfacet
  facet normal -0.368758 -0.929526 0
    outer loop
      vertex -8.34983 3.31385 0
      vertex -8.34983 3.31385 5
      vertex -9.4155 3.73662 5
    endloop
  endfacet
  facet normal -0.368758 -0.929526 0
    outer loop
      vertex -9.4155 3.73662 0
      vertex -8.34983 3.31385 0
      vertex -9.4155 3.73662 5
    endloop
  endfacet
  facet normal -0.965926 0.25882 0
    outer loop
      vertex -8.34983 3.31385 5
      vertex -8.34983 3.31385 0
      vertex -8.88802 1.30528 5
    endloop
  endfacet
  facet normal -0.965926 0.25882 0
    outer loop
      vertex -8.88802 1.30528 5
      vertex -8.34983 3.31385 0
      vertex -8.88802 1.30528 0
    endloop
  endfacet
  facet normal 0.145211 0.989401 0
    outer loop
      vertex -8.88802 1.30528 5
      vertex -8.88802 1.30528 0
      vertex -10.0226 1.47179 5
    endloop
  endfacet
  facet normal 0.145211 0.989401 0
    outer loop
      vertex -10.0226 1.47179 5
      vertex -8.88802 1.30528 0
      vertex -10.0226 1.47179 0
    endloop
  endfacet
  facet normal -0.0967021 0.995313 0
    outer loop
      vertex -10.0226 1.47179 5
      vertex -10.0226 1.47179 0
      vertex -10.6878 1.40716 5
    endloop
  endfacet
  facet normal -0.0967021 0.995313 0
    outer loop
      vertex -10.6878 1.40716 5
      vertex -10.0226 1.47179 0
      vertex -10.6878 1.40716 0
    endloop
  endfacet
  facet normal 0.982288 0.18738 0
    outer loop
      vertex -1.48817 -0.188 5
      vertex -1.45287 -0.373035 5
      vertex -1.45287 -0.373035 0
    endloop
  endfacet
  facet normal 0.982288 0.18738 0
    outer loop
      vertex -1.48817 -0.188 0
      vertex -1.48817 -0.188 5
      vertex -1.45287 -0.373035 0
    endloop
  endfacet
  facet normal 0.998027 0.0627907 0
    outer loop
      vertex -1.5 0 5
      vertex -1.48817 -0.188 5
      vertex -1.48817 -0.188 0
    endloop
  endfacet
  facet normal 0.998027 0.0627907 0
    outer loop
      vertex -1.5 0 0
      vertex -1.5 0 5
      vertex -1.48817 -0.188 0
    endloop
  endfacet
  facet normal 0.998027 -0.0627907 0
    outer loop
      vertex -1.48817 0.188 0
      vertex -1.48817 0.188 5
      vertex -1.5 0 5
    endloop
  endfacet
  facet normal 0.998027 -0.0627907 0
    outer loop
      vertex -1.5 0 0
      vertex -1.48817 0.188 0
      vertex -1.5 0 5
    endloop
  endfacet
  facet normal 0.982288 -0.18738 0
    outer loop
      vertex -1.45287 0.373035 0
      vertex -1.45287 0.373035 5
      vertex -1.48817 0.188 5
    endloop
  endfacet
  facet normal 0.982288 -0.18738 0
    outer loop
      vertex -1.48817 0.188 0
      vertex -1.45287 0.373035 0
      vertex -1.48817 0.188 5
    endloop
  endfacet
  facet normal 0.951057 -0.309017 0
    outer loop
      vertex -1.39467 0.552187 0
      vertex -1.39467 0.552187 5
      vertex -1.45287 0.373035 5
    endloop
  endfacet
  facet normal 0.951057 -0.309017 0
    outer loop
      vertex -1.45287 0.373035 0
      vertex -1.39467 0.552187 0
      vertex -1.45287 0.373035 5
    endloop
  endfacet
  facet normal 0.904827 -0.42578 0
    outer loop
      vertex -1.31446 0.722631 0
      vertex -1.31446 0.722631 5
      vertex -1.39467 0.552187 5
    endloop
  endfacet
  facet normal 0.904827 -0.42578 0
    outer loop
      vertex -1.39467 0.552187 0
      vertex -1.31446 0.722631 0
      vertex -1.39467 0.552187 5
    endloop
  endfacet
  facet normal 0.844326 -0.535829 0
    outer loop
      vertex -1.21352 0.881678 0
      vertex -1.21352 0.881678 5
      vertex -1.31446 0.722631 5
    endloop
  endfacet
  facet normal 0.844326 -0.535829 0
    outer loop
      vertex -1.31446 0.722631 0
      vertex -1.21352 0.881678 0
      vertex -1.31446 0.722631 5
    endloop
  endfacet
  facet normal 0.770515 -0.637422 0
    outer loop
      vertex -1.09345 1.02682 0
      vertex -1.09345 1.02682 5
      vertex -1.21352 0.881678 5
    endloop
  endfacet
  facet normal 0.770515 -0.637422 0
    outer loop
      vertex -1.21352 0.881678 0
      vertex -1.09345 1.02682 0
      vertex -1.21352 0.881678 5
    endloop
  endfacet
  facet normal 0.684546 -0.728969 0
    outer loop
      vertex -0.956136 1.15577 0
      vertex -0.956136 1.15577 5
      vertex -1.09345 1.02682 5
    endloop
  endfacet
  facet normal 0.684546 -0.728969 0
    outer loop
      vertex -1.09345 1.02682 0
      vertex -0.956136 1.15577 0
      vertex -1.09345 1.02682 5
    endloop
  endfacet
  facet normal 0.587785 -0.809017 0
    outer loop
      vertex -0.80374 1.26649 0
      vertex -0.80374 1.26649 5
      vertex -0.956136 1.15577 5
    endloop
  endfacet
  facet normal 0.587785 -0.809017 0
    outer loop
      vertex -0.956136 1.15577 0
      vertex -0.80374 1.26649 0
      vertex -0.956136 1.15577 5
    endloop
  endfacet
  facet normal 0.481756 -0.876306 0
    outer loop
      vertex -0.638669 1.35724 0
      vertex -0.638669 1.35724 5
      vertex -0.80374 1.26649 5
    endloop
  endfacet
  facet normal 0.481756 -0.876306 0
    outer loop
      vertex -0.80374 1.26649 0
      vertex -0.638669 1.35724 0
      vertex -0.80374 1.26649 5
    endloop
  endfacet
  facet normal 0.368123 -0.929777 0
    outer loop
      vertex -0.463525 1.42658 0
      vertex -0.463525 1.42658 5
      vertex -0.638669 1.35724 5
    endloop
  endfacet
  facet normal 0.368123 -0.929777 0
    outer loop
      vertex -0.638669 1.35724 0
      vertex -0.463525 1.42658 0
      vertex -0.638669 1.35724 5
    endloop
  endfacet
  facet normal 0.24869 -0.968583 0
    outer loop
      vertex -0.281072 1.47343 0
      vertex -0.281072 1.47343 5
      vertex -0.463525 1.42658 5
    endloop
  endfacet
  facet normal 0.24869 -0.968583 0
    outer loop
      vertex -0.463525 1.42658 0
      vertex -0.281072 1.47343 0
      vertex -0.463525 1.42658 5
    endloop
  endfacet
  facet normal 0.125332 -0.992115 0
    outer loop
      vertex -0.094186 1.49704 0
      vertex -0.094186 1.49704 5
      vertex -0.281072 1.47343 5
    endloop
  endfacet
  facet normal 0.125332 -0.992115 0
    outer loop
      vertex -0.281072 1.47343 0
      vertex -0.094186 1.49704 0
      vertex -0.281072 1.47343 5
    endloop
  endfacet
  facet normal 0 -1 0
    outer loop
      vertex 0.094186 1.49704 0
      vertex 0.094186 1.49704 5
      vertex -0.094186 1.49704 5
    endloop
  endfacet
  facet normal 0 -1 0
    outer loop
      vertex -0.094186 1.49704 0
      vertex 0.094186 1.49704 0
      vertex -0.094186 1.49704 5
    endloop
  endfacet
  facet normal -0.125332 -0.992115 0
    outer loop
      vertex 0.281072 1.47343 0
      vertex 0.281072 1.47343 5
      vertex 0.094186 1.49704 5
    endloop
  endfacet
  facet normal -0.125332 -0.992115 0
    outer loop
      vertex 0.094186 1.49704 0
      vertex 0.281072 1.47343 0
      vertex 0.094186 1.49704 5
    endloop
  endfacet
  facet normal -0.24869 -0.968583 0
    outer loop
      vertex 0.463525 1.42658 0
      vertex 0.463525 1.42658 5
      vertex 0.281072 1.47343 5
    endloop
  endfacet
  facet normal -0.24869 -0.968583 0
    outer loop
      vertex 0.281072 1.47343 0
      vertex 0.463525 1.42658 0
      vertex 0.281072 1.47343 5
    endloop
  endfacet
  facet normal -0.368123 -0.929777 0
    outer loop
      vertex 0.638669 1.35724 0
      vertex 0.638669 1.35724 5
      vertex 0.463525 1.42658 5
    endloop
  endfacet
  facet normal -0.368123 -0.929777 0
    outer loop
      vertex 0.463525 1.42658 0
      vertex 0.638669 1.35724 0
      vertex 0.463525 1.42658 5
    endloop
  endfacet
  facet normal -0.481756 -0.876306 0
    outer loop
      vertex 0.80374 1.26649 0
      vertex 0.80374 1.26649 5
      vertex 0.638669 1.35724 5
    endloop
  endfacet
  facet normal -0.481756 -0.876306 0
    outer loop
      vertex 0.638669 1.35724 0
      vertex 0.80374 1.26649 0
      vertex 0.638669 1.35724 5
    endloop
  endfacet
  facet normal -0.587785 -0.809017 0
    outer loop
      vertex 0.956136 1.15577 0
      vertex 0.956136 1.15577 5
      vertex 0.80374 1.26649 5
    endloop
  endfacet
  facet normal -0.587785 -0.809017 0
    outer loop
      vertex 0.80374 1.26649 0
      vertex 0.956136 1.15577 0
      vertex 0.80374 1.26649 5
    endloop
  endfacet
  facet normal -0.684546 -0.728969 0
    outer loop
      vertex 1.09345 1.02682 0
      vertex 1.09345 1.02682 5
      vertex 0.956136 1.15577 5
    endloop
  endfacet
  facet normal -0.684546 -0.728969 0
    outer loop
      vertex 0.956136 1.15577 0
      vertex 1.09345 1.02682 0
      vertex 0.956136 1.15577 5
    endloop
  endfacet
  facet normal -0.770515 -0.637422 0
    outer loop
      vertex 1.21352 0.881678 5
      vertex 1.09345 1.02682 5
      vertex 1.21352 0.881678 0
    endloop
  endfacet
  facet normal -0.770515 -0.637422 0
    outer loop
      vertex 1.21352 0.881678 0
      vertex 1.09345 1.02682 5
      vertex 1.09345 1.02682 0
    endloop
  endfacet
  facet normal -0.844326 -0.535829 0
    outer loop
      vertex 1.31446 0.722631 5
      vertex 1.21352 0.881678 5
      vertex 1.31446 0.722631 0
    endloop
  endfacet
  facet normal -0.844326 -0.535829 0
    outer loop
      vertex 1.31446 0.722631 0
      vertex 1.21352 0.881678 5
      vertex 1.21352 0.881678 0
    endloop
  endfacet
  facet normal -0.904827 -0.42578 0
    outer loop
      vertex 1.39467 0.552187 5
      vertex 1.31446 0.722631 5
      vertex 1.39467 0.552187 0
    endloop
  endfacet
  facet normal -0.904827 -0.42578 0
    outer loop
      vertex 1.39467 0.552187 0
      vertex 1.31446 0.722631 5
      vertex 1.31446 0.722631 0
    endloop
  endfacet
  facet normal -0.951057 -0.309017 0
    outer loop
      vertex 1.45287 0.373035 5
      vertex 1.39467 0.552187 5
      vertex 1.45287 0.373035 0
    endloop
  endfacet
  facet normal -0.951057 -0.309017 0
    outer loop
      vertex 1.45287 0.373035 0
      vertex 1.39467 0.552187 5
      vertex 1.39467 0.552187 0
    endloop
  endfacet
  facet normal -0.982288 -0.18738 0
    outer loop
      vertex 1.48817 0.188 5
      vertex 1.45287 0.373035 5
      vertex 1.48817 0.188 0
    endloop
  endfacet
  facet normal -0.982288 -0.18738 0
    outer loop
      vertex 1.48817 0.188 0
      vertex 1.45287 0.373035 5
      vertex 1.45287 0.373035 0
    endloop
  endfacet
  facet normal -0.998027 -0.0627907 0
    outer loop
      vertex 1.5 0 5
      vertex 1.48817 0.188 5
      vertex 1.5 0 0
    endloop
  endfacet
  facet normal -0.998027 -0.0627907 0
    outer loop
      vertex 1.5 0 0
      vertex 1.48817 0.188 5
      vertex 1.48817 0.188 0
    endloop
  endfacet
  facet normal -0.998027 0.0627907 0
    outer loop
      vertex 1.5 0 5
      vertex 1.5 0 0
      vertex 1.48817 -0.188 5
    endloop
  endfacet
  facet normal -0.998027 0.0627907 0
    outer loop
      vertex 1.48817 -0.188 5
      vertex 1.5 0 0
      vertex 1.48817 -0.188 0
    endloop
  endfacet
  facet normal -0.982288 0.18738 0
    outer loop
      vertex 1.48817 -0.188 5
      vertex 1.48817 -0.188 0
      vertex 1.45287 -0.373035 5
    endloop
  endfacet
  facet normal -0.982288 0.18738 0
    outer loop
      vertex 1.45287 -0.373035 5
      vertex 1.48817 -0.188 0
      vertex 1.45287 -0.373035 0
    endloop
  endfacet
  facet normal -0.951057 0.309017 0
    outer loop
      vertex 1.45287 -0.373035 5
      vertex 1.45287 -0.373035 0
      vertex 1.39467 -0.552187 5
    endloop
  endfacet
  facet normal -0.951057 0.309017 0
    outer loop
      vertex 1.39467 -0.552187 5
      vertex 1.45287 -0.373035 0
      vertex 1.39467 -0.552187 0
    endloop
  endfacet
  facet normal -0.904827 0.42578 0
    outer loop
      vertex 1.39467 -0.552187 5
      vertex 1.39467 -0.552187 0
      vertex 1.31446 -0.722631 5
    endloop
  endfacet
  facet normal -0.904827 0.42578 0
    outer loop
      vertex 1.31446 -0.722631 5
      vertex 1.39467 -0.552187 0
      vertex 1.31446 -0.722631 0
    endloop
  endfacet
  facet normal -0.844326 0.535829 0
    outer loop
      vertex 1.31446 -0.722631 5
      vertex 1.31446 -0.722631 0
      vertex 1.21352 -0.881678 5
    endloop
  endfacet
  facet normal -0.844326 0.535829 0
    outer loop
      vertex 1.21352 -0.881678 5
      vertex 1.31446 -0.722631 0
      vertex 1.21352 -0.881678 0
    endloop
  endfacet
  facet normal -0.770515 0.637422 0
    outer loop
      vertex 1.21352 -0.881678 5
      vertex 1.21352 -0.881678 0
      vertex 1.09345 -1.02682 5
    endloop
  endfacet
  facet normal -0.770515 0.637422 0
    outer loop
      vertex 1.09345 -1.02682 5
      vertex 1.21352 -0.881678 0
      vertex 1.09345 -1.02682 0
    endloop
  endfacet
  facet normal -0.684546 0.728969 0
    outer loop
      vertex 1.09345 -1.02682 5
      vertex 1.09345 -1.02682 0
      vertex 0.956136 -1.15577 5
    endloop
  endfacet
  facet normal -0.684546 0.728969 0
    outer loop
      vertex 0.956136 -1.15577 5
      vertex 1.09345 -1.02682 0
      vertex 0.956136 -1.15577 0
    endloop
  endfacet
  facet normal -0.587785 0.809017 0
    outer loop
      vertex 0.956136 -1.15577 5
      vertex 0.956136 -1.15577 0
      vertex 0.80374 -1.26649 5
    endloop
  endfacet
  facet normal -0.587785 0.809017 0
    outer loop
      vertex 0.80374 -1.26649 5
      vertex 0.956136 -1.15577 0
      vertex 0.80374 -1.26649 0
    endloop
  endfacet
  facet normal -0.481756 0.876306 0
    outer loop
      vertex 0.80374 -1.26649 5
      vertex 0.80374 -1.26649 0
      vertex 0.638669 -1.35724 5
    endloop
  endfacet
  facet normal -0.481756 0.876306 0
    outer loop
      vertex 0.638669 -1.35724 5
      vertex 0.80374 -1.26649 0
      vertex 0.638669 -1.35724 0
    endloop
  endfacet
  facet normal -0.368123 0.929777 0
    outer loop
      vertex 0.638669 -1.35724 5
      vertex 0.638669 -1.35724 0
      vertex 0.463525 -1.42658 5
    endloop
  endfacet
  facet normal -0.368123 0.929777 0
    outer loop
      vertex 0.463525 -1.42658 5
      vertex 0.638669 -1.35724 0
      vertex 0.463525 -1.42658 0
    endloop
  endfacet
  facet normal -0.24869 0.968583 0
    outer loop
      vertex 0.463525 -1.42658 5
      vertex 0.463525 -1.42658 0
      vertex 0.281072 -1.47343 5
    endloop
  endfacet
  facet normal -0.24869 0.968583 0
    outer loop
      vertex 0.281072 -1.47343 5
      vertex 0.463525 -1.42658 0
      vertex 0.281072 -1.47343 0
    endloop
  endfacet
  facet normal -0.125332 0.992115 0
    outer loop
      vertex 0.281072 -1.47343 5
      vertex 0.281072 -1.47343 0
      vertex 0.094186 -1.49704 5
    endloop
  endfacet
  facet normal -0.125332 0.992115 0
    outer loop
      vertex 0.094186 -1.49704 5
      vertex 0.281072 -1.47343 0
      vertex 0.094186 -1.49704 0
    endloop
  endfacet
  facet normal 0 1 0
    outer loop
      vertex 0.094186 -1.49704 5
      vertex 0.094186 -1.49704 0
      vertex -0.094186 -1.49704 5
    endloop
  endfacet
  facet normal 0 1 0
    outer loop
      vertex -0.094186 -1.49704 5
      vertex 0.094186 -1.49704 0
      vertex -0.094186 -1.49704 0
    endloop
  endfacet
  facet normal 0.125332 0.992115 0
    outer loop
      vertex -0.094186 -1.49704 5
      vertex -0.094186 -1.49704 0
      vertex -0.281072 -1.47343 5
    endloop
  endfacet
  facet normal 0.125332 0.992115 0
    outer loop
      vertex -0.281072 -1.47343 5
      vertex -0.094186 -1.49704 0
      vertex -0.281072 -1.47343 0
    endloop
  endfacet
  facet normal 0.24869 0.968583 0
    outer loop
      vertex -0.281072 -1.47343 5
      vertex -0.281072 -1.47343 0
      vertex -0.463525 -1.42658 5
    endloop
  endfacet
  facet normal 0.24869 0.968583 0
    outer loop
      vertex -0.463525 -1.42658 5
      vertex -0.281072 -1.47343 0
      vertex -0.463525 -1.42658 0
    endloop
  endfacet
  facet normal 0.368123 0.929777 0
    outer loop
      vertex -0.463525 -1.42658 5
      vertex -0.463525 -1.42658 0
      vertex -0.638669 -1.35724 5
    endloop
  endfacet
  facet normal 0.368123 0.929777 0
    outer loop
      vertex -0.638669 -1.35724 5
      vertex -0.463525 -1.42658 0
      vertex -0.638669 -1.35724 0
    endloop
  endfacet
  facet normal 0.481756 0.876306 0
    outer loop
      vertex -0.638669 -1.35724 5
      vertex -0.638669 -1.35724 0
      vertex -0.80374 -1.26649 5
    endloop
  endfacet
  facet normal 0.481756 0.876306 0
    outer loop
      vertex -0.80374 -1.26649 5
      vertex -0.638669 -1.35724 0
      vertex -0.80374 -1.26649 0
    endloop
  endfacet
  facet normal 0.587785 0.809017 0
    outer loop
      vertex -0.80374 -1.26649 5
      vertex -0.80374 -1.26649 0
      vertex -0.956136 -1.15577 5
    endloop
  endfacet
  facet normal 0.587785 0.809017 0
    outer loop
      vertex -0.956136 -1.15577 5
      vertex -0.80374 -1.26649 0
      vertex -0.956136 -1.15577 0
    endloop
  endfacet
  facet normal 0.684546 0.728969 0
    outer loop
      vertex -0.956136 -1.15577 5
      vertex -0.956136 -1.15577 0
      vertex -1.09345 -1.02682 5
    endloop
  endfacet
  facet normal 0.684546 0.728969 0
    outer loop
      vertex -1.09345 -1.02682 5
      vertex -0.956136 -1.15577 0
      vertex -1.09345 -1.02682 0
    endloop
  endfacet
  facet normal 0.770515 0.637422 0
    outer loop
      vertex -1.21352 -0.881678 5
      vertex -1.09345 -1.02682 5
      vertex -1.09345 -1.02682 0
    endloop
  endfacet
  facet normal 0.770515 0.637422 0
    outer loop
      vertex -1.21352 -0.881678 0
      vertex -1.21352 -0.881678 5
      vertex -1.09345 -1.02682 0
    endloop
  endfacet
  facet normal 0.844326 0.535829 0
    outer loop
      vertex -1.31446 -0.722631 5
      vertex -1.21352 -0.881678 5
      vertex -1.21352 -0.881678 0
    endloop
  endfacet
  facet normal 0.844326 0.535829 0
    outer loop
      vertex -1.31446 -0.722631 0
      vertex -1.31446 -0.722631 5
      vertex -1.21352 -0.881678 0
    endloop
  endfacet
  facet normal 0.904827 0.42578 0
    outer loop
      vertex -1.39467 -0.552187 5
      vertex -1.31446 -0.722631 5
      vertex -1.31446 -0.722631 0
    endloop
  endfacet
  facet normal 0.904827 0.42578 0
    outer loop
      vertex -1.39467 -0.552187 0
      vertex -1.39467 -0.552187 5
      vertex -1.31446 -0.722631 0
    endloop
  endfacet
  facet normal 0.951057 0.309017 0
    outer loop
      vertex -1.45287 -0.373035 5
      vertex -1.39467 -0.552187 5
      vertex -1.39467 -0.552187 0
    endloop
  endfacet
  facet normal 0.951057 0.309017 0
    outer loop
      vertex -1.45287 -0.373035 0
      vertex -1.45287 -0.373035 5
      vertex -1.39467 -0.552187 0
    endloop
  endfacet
endsolid OpenSCAD_Model
