solid OpenSCAD_Model
  facet normal -0.707107 -0.707107 0
    outer loop
      vertex -7.04483 -5.57445 0
      vertex -5.57445 -7.04483 0
      vertex -5.57445 -7.04483 5
    endloop
  endfacet
  facet normal -0.707107 -0.707107 0
    outer loop
      vertex -7.04483 -5.57445 5
      vertex -7.04483 -5.57445 0
      vertex -5.57445 -7.04483 5
    endloop
  endfacet
  facet normal 0 0 -1
    outer loop
      vertex -12.5645 0.557671 0
      vertex -10.6878 1.40716 0
      vertex -12.5645 -0.557671 0
    endloop
  endfacet
  facet normal 0 0 -1
    outer loop
      vertex -12.5645 -0.557671 0
      vertex -10.6878 1.40716 0
      vertex -10.0226 1.47179 0
    endloop
  endfacet
  facet normal 0 0 -1
    outer loop
      vertex -12.5645 -0.557671 0
      vertex -10.0226 1.47179 0
      vertex -8.88802 1.30528 0
    endloop
  endfacet
  facet normal 0 0 -1
    outer loop
      vertex -8.34983 3.31385 0
      vertex -9.4155 3.73662 0
      vertex -9.95962 4.12524 0
    endloop
  endfacet
  facet normal 0 0 -1
    outer loop
      vertex -8.34983 3.31385 0
      vertex -9.95962 4.12524 0
      vertex -11.1599 5.79938 0
    endloop
  endfacet
  facet normal 0 0 -1
    outer loop
      vertex -8.34983 3.31385 0
      vertex -11.1599 5.79938 0
      vertex -10.6022 6.76515 0
    endloop
  endfacet
  facet normal 0 0 -1
    outer loop
      vertex -8.34983 3.31385 0
      vertex -10.6022 6.76515 0
      vertex -8.55246 6.56251 0
    endloop
  endfacet
  facet normal 0 0 -1
    outer loop
      vertex -8.34983 3.31385 0
      vertex -8.55246 6.56251 0
      vertex -7.94371 6.28594 0
    endloop
  endfacet
  facet normal 0 0 -1
    outer loop
      vertex -8.34983 3.31385 0
      vertex -7.94371 6.28594 0
      vertex -7.04483 5.57445 0
    endloop
  endfacet
  facet normal 0 0 -1
    outer loop
      vertex -8.34983 3.31385 0
      vertex -7.04483 5.57445 0
      vertex -8.88802 1.30528 0
    endloop
  endfacet
  facet normal 0 0 -1
    outer loop
      vertex -8.88802 1.30528 0
      vertex -7.04483 5.57445 0
      vertex -5.57445 7.04483 0
    endloop
  endfacet
  facet normal 0 0 -1
    outer loop
      vertex -5.57445 7.04483 0
      vertex -6.28594 7.94371 0
      vertex -6.56251 8.55246 0
    endloop
  endfacet
  facet normal 0 0 -1
    outer loop
      vertex -5.57445 7.04483 0
      vertex -6.56251 8.55246 0
      vertex -6.76515 10.6022 0
    endloop
  endfacet
  facet normal 0 0 -1
    outer loop
      vertex -5.57445 7.04483 0
      vertex -6.76515 10.6022 0
      vertex -5.79938 11.1599 0
    endloop
  endfacet
  facet normal 0 0 -1
    outer loop
      vertex -5.57445 7.04483 0
      vertex -5.79938 11.1599 0
      vertex -4.12524 9.95962 0
    endloop
  endfacet
  facet normal 0 0 -1
    outer loop
      vertex -5.57445 7.04483 0
      vertex -4.12524 9.95962 0
      vertex -3.73662 9.4155 0
    endloop
  endfacet
  facet normal 0 0 -1
    outer loop
      vertex -5.57445 7.04483 0
      vertex -3.73662 9.4155 0
      vertex -8.88802 1.30528 0
    endloop
  endfacet
  facet normal 0 0 -1
    outer loop
      vertex -8.88802 1.30528 0
      vertex -3.73662 9.4155 0
      vertex -3.31385 8.34983 0
    endloop
  endfacet
  facet normal 0 0 -1
    outer loop
      vertex -8.88802 1.30528 0
      vertex -3.31385 8.34983 0
      vertex -1.30528 8.88802 0
    endloop
  endfacet
  facet normal 0 0 -1
    outer loop
      vertex -1.30528 8.88802 0
      vertex -1.47179 10.0226 0
      vertex -1.40716 10.6878 0
    endloop
  endfacet
  facet normal 0 0 -1
    outer loop
      vertex -1.30528 8.88802 0
      vertex -1.40716 10.6878 0
      vertex -0.557671 12.5645 0
    endloop
  endfacet
  facet normal 0 0 -1
    outer loop
      vertex -1.30528 8.88802 0
      vertex -0.557671 12.5645 0
      vertex 0.557671 12.5645 0
    endloop
  endfacet
  facet normal 0 0 -1
    outer loop
      vertex -1.30528 8.88802 0
      vertex 0.557671 12.5645 0
      vertex 1.40716 10.6878 0
    endloop
  endfacet
  facet normal 0 0 -1
    outer loop
      vertex -1.30528 8.88802 0
      vertex 1.40716 10.6878 0
      vertex -8.88802 1.30528 0
    endloop
  endfacet
  facet normal 0 0 -1
    outer loop
      vertex -8.88802 1.30528 0
      vertex 1.40716 10.6878 0
      vertex 1.47179 10.0226 0
    endloop
  endfacet
  facet normal 0 0 -1
    outer loop
      vertex -8.88802 1.30528 0
      vertex 1.47179 10.0226 0
      vertex 1.30528 8.88802 0
    endloop
  endfacet
  facet normal 0 0 -1
    outer loop
      vertex -8.88802 1.30528 0
      vertex 1.30528 8.88802 0
      vertex 3.31385 8.34983 0
    endloop
  endfacet
  facet normal 0 0 -1
    outer loop
      vertex -8.88802 1.30528 0
      vertex 6.56251 8.55246 0
      vertex -12.5645 -0.557671 0
    endloop
  endfacet
  facet normal 0 0 -1
    outer loop
      vertex 3.31385 8.34983 0
      vertex 3.73662 9.4155 0
      vertex 4.12524 9.95962 0
    endloop
  endfacet
  facet normal 0 0 -1
    outer loop
      vertex 3.31385 8.34983 0
      vertex 4.12524 9.95962 0
      vertex 5.79938 11.1599 0
    endloop
  endfacet
  facet normal 0 0 -1
    outer loop
      vertex 3.31385 8.34983 0
      vertex 5.79938 11.1599 0
      vertex 6.76515 10.6022 0
    endloop
  endfacet
  facet normal 0 0 -1
    outer loop
      vertex 3.31385 8.34983 0
      vertex 6.76515 10.6022 0
      vertex 6.56251 8.55246 0
    endloop
  endfacet
  facet normal 0 0 -1
    outer loop
      vertex 3.31385 8.34983 0
      vertex 6.56251 8.55246 0
      vertex -8.88802 1.30528 0
    endloop
  endfacet
  facet normal 0 0 -1
    outer loop
      vertex -12.5645 -0.557671 0
      vertex 6.56251 8.55246 0
      vertex 6.28594 7.94371 0
    endloop
  endfacet
  facet normal 0 0 -1
    outer loop
      vertex -12.5645 -0.557671 0
      vertex 6.28594 7.94371 0
      vertex 5.57445 7.04483 0
    endloop
  endfacet
  facet normal 0 0 -1
    outer loop
      vertex -12.5645 -0.557671 0
      vertex 5.57445 7.04483 0
      vertex 7.04483 5.57445 0
    endloop
  endfacet
  facet normal 0 0 -1
    outer loop
      vertex 7.04483 5.57445 0
      vertex 7.94371 6.28594 0
      vertex 8.55246 6.56251 0
    endloop
  endfacet
  facet normal 0 0 -1
    outer loop
      vertex 7.04483 5.57445 0
      vertex 8.55246 6.56251 0
      vertex 10.6022 6.76515 0
    endloop
  endfacet
  facet normal 0 0 -1
    outer loop
      vertex 7.04483 5.57445 0
      vertex 10.6022 6.76515 0
      vertex 11.1599 5.79938 0
    endloop
  endfacet
  facet normal 0 0 -1
    outer loop
      vertex 7.04483 5.57445 0
      vertex 11.1599 5.79938 0
      vertex -12.5645 -0.557671 0
    endloop
  endfacet
  facet normal 0 0 -1
    outer loop
      vertex -12.5645 -0.557671 0
      vertex 11.1599 5.79938 0
      vertex 9.95962 4.12524 0
    endloop
  endfacet
  facet normal 0 0 -1
    outer loop
      vertex -12.5645 -0.557671 0
      vertex 9.95962 4.12524 0
      vertex 9.4155 3.73662 0
    endloop
  endfacet
  facet normal 0 0 -1
    outer loop
      vertex -12.5645 -0.557671 0
      vertex 9.4155 3.73662 0
      vertex 8.34983 3.31385 0
    endloop
  endfacet
  facet normal 0 0 -1
    outer loop
      vertex -12.5645 -0.557671 0
      vertex 8.34983 3.31385 0
      vertex 8.88802 1.30528 0
    endloop
  endfacet
  facet normal 0 0 -1
    outer loop
      vertex 8.88802 1.30528 0
      vertex 10.0226 1.47179 0
      vertex 10.6878 1.40716 0
    endloop
  endfacet
  facet normal 0 0 -1
    outer loop
      vertex 8.88802 1.30528 0
      vertex 10.6878 1.40716 0
      vertex -12.5645 -0.557671 0
    endloop
  endfacet
  facet normal 0 0 -1
    outer loop
      vertex -12.5645 -0.557671 0
      vertex 10.6878 1.40716 0
      vertex 12.5645 0.557671 0
    endloop
  endfacet
  facet normal 0 0 -1
    outer loop
      vertex -12.5645 -0.557671 0
      vertex 12.5645 0.557671 0
      vertex 12.5645 -0.557671 0
    endloop
  endfacet
  facet normal 0 0 -1
    outer loop
      vertex 8.88802 -1.30528 0
      vertex 12.5645 -0.557671 0
      vertex 10.6878 -1.40716 0
    endloop
  endfacet
  facet normal 0 0 -1
    outer loop
      vertex -12.5645 -0.557671 0
      vertex 12.5645 -0.557671 0
      vertex 8.88802 -1.30528 0
    endloop
  endfacet
  facet normal 0 0 -1
    outer loop
      vertex 8.34983 -3.31385 0
      vertex -12.5645 -0.557671 0
      vertex 8.88802 -1.30528 0
    endloop
  endfacet
  facet normal 0 0 -1
    outer loop
      vertex 7.04483 -5.57445 0
      vertex 10.6022 -6.76515 0
      vertex 7.94371 -6.28594 0
    endloop
  endfacet
  facet normal 0 0 -1
    outer loop
      vertex 8.34983 -3.31385 0
      vertex 9.4155 -3.73662 0
      vertex -12.5645 -0.557671 0
    endloop
  endfacet
  facet normal 0 0 -1
    outer loop
      vertex -12.5645 -0.557671 0
      vertex 9.4155 -3.73662 0
      vertex 9.95962 -4.12524 0
    endloop
  endfacet
  facet normal 0 0 -1
    outer loop
      vertex -8.88802 -1.30528 0
      vertex 9.95962 -4.12524 0
      vertex 11.1599 -5.79938 0
    endloop
  endfacet
  facet normal 0 0 -1
    outer loop
      vertex 7.04483 -5.57445 0
      vertex 11.1599 -5.79938 0
      vertex 10.6022 -6.76515 0
    endloop
  endfacet
  facet normal 0 0 -1
    outer loop
      vertex 7.94371 -6.28594 0
      vertex 10.6022 -6.76515 0
      vertex 8.55246 -6.56251 0
    endloop
  endfacet
  facet normal 0 0 -1
    outer loop
      vertex 3.31385 -8.34983 0
      vertex 6.76515 -10.6022 0
      vertex 3.73662 -9.4155 0
    endloop
  endfacet
  facet normal 0 0 -1
    outer loop
      vertex 3.31385 -8.34983 0
      vertex 6.56251 -8.55246 0
      vertex 6.76515 -10.6022 0
    endloop
  endfacet
  facet normal 0 0 -1
    outer loop
      vertex 4.12524 -9.95962 0
      vertex 6.76515 -10.6022 0
      vertex 5.79938 -11.1599 0
    endloop
  endfacet
  facet normal 0 0 -1
    outer loop
      vertex 3.73662 -9.4155 0
      vertex 6.76515 -10.6022 0
      vertex 4.12524 -9.95962 0
    endloop
  endfacet
  facet normal 0 0 -1
    outer loop
      vertex -8.34983 -3.31385 0
      vertex -7.04483 -5.57445 0
      vertex -9.4155 -3.73662 0
    endloop
  endfacet
  facet normal 0 0 -1
    outer loop
      vertex -8.34983 -3.31385 0
      vertex -3.31385 -8.34983 0
      vertex -7.04483 -5.57445 0
    endloop
  endfacet
  facet normal 0 0 -1
    outer loop
      vertex -1.40716 -10.6878 0
      vertex 0.557671 -12.5645 0
      vertex -0.557671 -12.5645 0
    endloop
  endfacet
  facet normal 0 0 -1
    outer loop
      vertex -8.34983 -3.31385 0
      vertex 1.30528 -8.88802 0
      vertex 1.47179 -10.0226 0
    endloop
  endfacet
  facet normal 0 0 -1
    outer loop
      vertex -8.88802 -1.30528 0
      vertex 7.04483 -5.57445 0
      vertex 5.57445 -7.04483 0
    endloop
  endfacet
  facet normal 0 0 -1
    outer loop
      vertex -1.40716 -10.6878 0
      vertex 1.40716 -10.6878 0
      vertex 0.557671 -12.5645 0
    endloop
  endfacet
  facet normal 0 0 -1
    outer loop
      vertex -3.73662 -9.4155 0
      vertex -5.57445 -7.04483 0
      vertex -3.31385 -8.34983 0
    endloop
  endfacet
  facet normal 0 0 -1
    outer loop
      vertex -1.47179 -10.0226 0
      vertex 1.40716 -10.6878 0
      vertex -1.40716 -10.6878 0
    endloop
  endfacet
  facet normal 0 0 -1
    outer loop
      vertex -8.34983 -3.31385 0
      vertex 1.47179 -10.0226 0
      vertex 1.40716 -10.6878 0
    endloop
  endfacet
  facet normal 0 0 -1
    outer loop
      vertex -1.30528 -8.88802 0
      vertex 1.40716 -10.6878 0
      vertex -1.47179 -10.0226 0
    endloop
  endfacet
  facet normal 0 0 -1
    outer loop
      vertex -8.88802 -1.30528 0
      vertex 5.57445 -7.04483 0
      vertex 6.28594 -7.94371 0
    endloop
  endfacet
  facet normal 0 0 -1
    outer loop
      vertex -8.88802 -1.30528 0
      vertex 6.28594 -7.94371 0
      vertex 6.56251 -8.55246 0
    endloop
  endfacet
  facet normal 0 0 -1
    outer loop
      vertex -8.88802 -1.30528 0
      vertex 1.30528 -8.88802 0
      vertex -8.34983 -3.31385 0
    endloop
  endfacet
  facet normal 0 0 -1
    outer loop
      vertex -6.56251 -8.55246 0
      vertex -5.79938 -11.1599 0
      vertex -6.76515 -10.6022 0
    endloop
  endfacet
  facet normal 0 0 -1
    outer loop
      vertex -7.94371 -6.28594 0
      vertex -9.4155 -3.73662 0
      vertex -7.04483 -5.57445 0
    endloop
  endfacet
  facet normal 0 0 -1
    outer loop
      vertex -6.56251 -8.55246 0
      vertex -4.12524 -9.95962 0
      vertex -5.79938 -11.1599 0
    endloop
  endfacet
  facet normal 0 0 -1
    outer loop
      vertex -8.55246 -6.56251 0
      vertex -9.95962 -4.12524 0
      vertex -7.94371 -6.28594 0
    endloop
  endfacet
  facet normal 0 0 -1
    outer loop
      vertex -6.28594 -7.94371 0
      vertex -4.12524 -9.95962 0
      vertex -6.56251 -8.55246 0
    endloop
  endfacet
  facet normal 0 0 -1
    outer loop
      vertex -5.57445 -7.04483 0
      vertex -3.73662 -9.4155 0
      vertex -4.12524 -9.95962 0
    endloop
  endfacet
  facet normal 0 0 -1
    outer loop
      vertex -5.57445 -7.04483 0
      vertex -7.04483 -5.57445 0
      vertex -3.31385 -8.34983 0
    endloop
  endfacet
  facet normal 0 0 -1
    outer loop
      vertex -9.95962 -4.12524 0
      vertex -10.6022 -6.76515 0
      vertex -11.1599 -5.79938 0
    endloop
  endfacet
  facet normal 0 0 -1
    outer loop
      vertex -8.88802 -1.30528 0
      vertex 6.56251 -8.55246 0
      vertex 3.31385 -8.34983 0
    endloop
  endfacet
  facet normal 0 0 -1
    outer loop
      vertex -8.34983 -3.31385 0
      vertex 1.40716 -10.6878 0
      vertex -1.30528 -8.88802 0
    endloop
  endfacet
  facet normal 0 0 -1
    outer loop
      vertex -5.57445 -7.04483 0
      vertex -4.12524 -9.95962 0
      vertex -6.28594 -7.94371 0
    endloop
  endfacet
  facet normal 0 0 -1
    outer loop
      vertex -9.95962 -4.12524 0
      vertex -8.55246 -6.56251 0
      vertex -10.6022 -6.76515 0
    endloop
  endfacet
  facet normal 0 0 -1
    outer loop
      vertex -8.34983 -3.31385 0
      vertex -1.30528 -8.88802 0
      vertex -3.31385 -8.34983 0
    endloop
  endfacet
  facet normal 0 0 -1
    outer loop
      vertex -9.4155 -3.73662 0
      vertex -7.94371 -6.28594 0
      vertex -9.95962 -4.12524 0
    endloop
  endfacet
  facet normal 0 0 -1
    outer loop
      vertex -8.88802 -1.30528 0
      vertex 3.31385 -8.34983 0
      vertex 1.30528 -8.88802 0
    endloop
  endfacet
  facet normal 0 0 -1
    outer loop
      vertex -8.88802 -1.30528 0
      vertex 11.1599 -5.79938 0
      vertex 7.04483 -5.57445 0
    endloop
  endfacet
  facet normal 0 0 -1
    outer loop
      vertex -12.5645 -0.557671 0
      vertex 9.95962 -4.12524 0
      vertex -8.88802 -1.30528 0
    endloop
  endfacet
  facet normal 0 0 -1
    outer loop
      vertex 8.88802 -1.30528 0
      vertex 10.6878 -1.40716 0
      vertex 10.0226 -1.47179 0
    endloop
  endfacet
  facet normal 0 0 -1
    outer loop
      vertex -10.6878 -1.40716 0
      vertex -12.5645 -0.557671 0
      vertex -10.0226 -1.47179 0
    endloop
  endfacet
  facet normal 0 0 -1
    outer loop
      vertex -10.0226 -1.47179 0
      vertex -12.5645 -0.557671 0
      vertex -8.88802 -1.30528 0
    endloop
  endfacet
  facet normal 0.620634 -0.784101 0
    outer loop
      vertex -7.94371 -6.28594 0
      vertex -7.04483 -5.57445 0
      vertex -7.04483 -5.57445 5
    endloop
  endfacet
  facet normal 0.620634 -0.784101 0
    outer loop
      vertex -7.94371 -6.28594 5
      vertex -7.94371 -6.28594 0
      vertex -7.04483 -5.57445 5
    endloop
  endfacet
  facet normal 0 0 1
    outer loop
      vertex -8.34983 -3.31385 5
      vertex -7.04483 -5.57445 5
      vertex -8.88802 -1.30528 5
    endloop
  endfacet
  facet normal 0 0 1
    outer loop
      vertex -12.5645 -0.557671 5
      vertex -10.6878 -1.40716 5
      vertex -10.0226 -1.47179 5
    endloop
  endfacet
  facet normal 0 0 1
    outer loop
      vertex 9.95962 -4.12524 5
      vertex -12.5645 -0.557671 5
      vertex -8.88802 -1.30528 5
    endloop
  endfacet
  facet normal 0 0 1
    outer loop
      vertex -8.88802 -1.30528 5
      vertex -12.5645 -0.557671 5
      vertex -10.0226 -1.47179 5
    endloop
  endfacet
  facet normal 0 0 1
    outer loop
      vertex -8.34983 -3.31385 5
      vertex -9.4155 -3.73662 5
      vertex -9.95962 -4.12524 5
    endloop
  endfacet
  facet normal 0 0 1
    outer loop
      vertex -8.34983 -3.31385 5
      vertex -9.95962 -4.12524 5
      vertex -11.1599 -5.79938 5
    endloop
  endfacet
  facet normal 0 0 1
    outer loop
      vertex -8.34983 -3.31385 5
      vertex -11.1599 -5.79938 5
      vertex -10.6022 -6.76515 5
    endloop
  endfacet
  facet normal 0 0 1
    outer loop
      vertex -8.34983 -3.31385 5
      vertex -10.6022 -6.76515 5
      vertex -8.55246 -6.56251 5
    endloop
  endfacet
  facet normal 0 0 1
    outer loop
      vertex -8.34983 -3.31385 5
      vertex -8.55246 -6.56251 5
      vertex -7.94371 -6.28594 5
    endloop
  endfacet
  facet normal 0 0 1
    outer loop
      vertex -8.88802 -1.30528 5
      vertex -7.04483 -5.57445 5
      vertex -5.57445 -7.04483 5
    endloop
  endfacet
  facet normal 0 0 1
    outer loop
      vertex -8.34983 -3.31385 5
      vertex -7.94371 -6.28594 5
      vertex -7.04483 -5.57445 5
    endloop
  endfacet
  facet normal 0 0 1
    outer loop
      vertex -8.88802 -1.30528 5
      vertex -5.57445 -7.04483 5
      vertex -3.73662 -9.4155 5
    endloop
  endfacet
  facet normal 0 0 1
    outer loop
      vertex -5.57445 -7.04483 5
      vertex -6.28594 -7.94371 5
      vertex -6.56251 -8.55246 5
    endloop
  endfacet
  facet normal 0 0 1
    outer loop
      vertex -5.57445 -7.04483 5
      vertex -6.56251 -8.55246 5
      vertex -6.76515 -10.6022 5
    endloop
  endfacet
  facet normal 0 0 1
    outer loop
      vertex -5.57445 -7.04483 5
      vertex -6.76515 -10.6022 5
      vertex -5.79938 -11.1599 5
    endloop
  endfacet
  facet normal 0 0 1
    outer loop
      vertex -5.57445 -7.04483 5
      vertex -5.79938 -11.1599 5
      vertex -4.12524 -9.95962 5
    endloop
  endfacet
  facet normal 0 0 1
    outer loop
      vertex -5.57445 -7.04483 5
      vertex -4.12524 -9.95962 5
      vertex -3.73662 -9.4155 5
    endloop
  endfacet
  facet normal 0 0 1
    outer loop
      vertex -8.88802 -1.30528 5
      vertex -3.31385 -8.34983 5
      vertex -1.30528 -8.88802 5
    endloop
  endfacet
  facet normal 0 0 1
    outer loop
      vertex -8.88802 -1.30528 5
      vertex -3.73662 -9.4155 5
      vertex -3.31385 -8.34983 5
    endloop
  endfacet
  facet normal 0 0 1
    outer loop
      vertex -8.88802 -1.30528 5
      vertex -1.30528 -8.88802 5
      vertex 1.40716 -10.6878 5
    endloop
  endfacet
  facet normal 0 0 1
    outer loop
      vertex -1.30528 -8.88802 5
      vertex -1.47179 -10.0226 5
      vertex -1.40716 -10.6878 5
    endloop
  endfacet
  facet normal 0 0 1
    outer loop
      vertex -1.30528 -8.88802 5
      vertex -1.40716 -10.6878 5
      vertex -0.557671 -12.5645 5
    endloop
  endfacet
  facet normal 0 0 1
    outer loop
      vertex -1.30528 -8.88802 5
      vertex -0.557671 -12.5645 5
      vertex 0.557671 -12.5645 5
    endloop
  endfacet
  facet normal 0 0 1
    outer loop
      vertex -1.30528 -8.88802 5
      vertex 0.557671 -12.5645 5
      vertex 1.40716 -10.6878 5
    endloop
  endfacet
  facet normal 0 0 1
    outer loop
      vertex -8.88802 -1.30528 5
      vertex 1.40716 -10.6878 5
      vertex 1.47179 -10.0226 5
    endloop
  endfacet
  facet normal 0 0 1
    outer loop
      vertex -8.88802 -1.30528 5
      vertex 1.30528 -8.88802 5
      vertex 3.31385 -8.34983 5
    endloop
  endfacet
  facet normal 0 0 1
    outer loop
      vertex -8.88802 -1.30528 5
      vertex 1.47179 -10.0226 5
      vertex 1.30528 -8.88802 5
    endloop
  endfacet
  facet normal 0 0 1
    outer loop
      vertex -8.88802 -1.30528 5
      vertex 3.31385 -8.34983 5
      vertex 6.56251 -8.55246 5
    endloop
  endfacet
  facet normal 0 0 1
    outer loop
      vertex 3.31385 -8.34983 5
      vertex 3.73662 -9.4155 5
      vertex 4.12524 -9.95962 5
    endloop
  endfacet
  facet normal 0 0 1
    outer loop
      vertex 3.31385 -8.34983 5
      vertex 4.12524 -9.95962 5
      vertex 5.79938 -11.1599 5
    endloop
  endfacet
  facet normal 0 0 1
    outer loop
      vertex 3.31385 -8.34983 5
      vertex 5.79938 -11.1599 5
      vertex 6.76515 -10.6022 5
    endloop
  endfacet
  facet normal 0 0 1
    outer loop
      vertex 3.31385 -8.34983 5
      vertex 6.76515 -10.6022 5
      vertex 6.56251 -8.55246 5
    endloop
  endfacet
  facet normal 0 0 1
    outer loop
      vertex -8.88802 -1.30528 5
      vertex 6.56251 -8.55246 5
      vertex 6.28594 -7.94371 5
    endloop
  endfacet
  facet normal 0 0 1
    outer loop
      vertex -8.88802 -1.30528 5
      vertex 5.57445 -7.04483 5
      vertex 7.04483 -5.57445 5
    endloop
  endfacet
  facet normal 0 0 1
    outer loop
      vertex -8.88802 -1.30528 5
      vertex 6.28594 -7.94371 5
      vertex 5.57445 -7.04483 5
    endloop
  endfacet
  facet normal 0 0 1
    outer loop
      vertex -8.88802 -1.30528 5
      vertex 7.04483 -5.57445 5
      vertex 11.1599 -5.79938 5
    endloop
  endfacet
  facet normal 0 0 1
    outer loop
      vertex 7.04483 -5.57445 5
      vertex 7.94371 -6.28594 5
      vertex 8.55246 -6.56251 5
    endloop
  endfacet
  facet normal 0 0 1
    outer loop
      vertex 7.04483 -5.57445 5
      vertex 8.55246 -6.56251 5
      vertex 10.6022 -6.76515 5
    endloop
  endfacet
  facet normal 0 0 1
    outer loop
      vertex 7.04483 -5.57445 5
      vertex 10.6022 -6.76515 5
      vertex 11.1599 -5.79938 5
    endloop
  endfacet
  facet normal 0 0 1
    outer loop
      vertex -8.88802 -1.30528 5
      vertex 11.1599 -5.79938 5
      vertex 9.95962 -4.12524 5
    endloop
  endfacet
  facet normal 0 0 1
    outer loop
      vertex -12.5645 -0.557671 5
      vertex 9.95962 -4.12524 5
      vertex 9.4155 -3.73662 5
    endloop
  endfacet
  facet normal 0 0 1
    outer loop
      vertex -12.5645 -0.557671 5
      vertex 8.34983 -3.31385 5
      vertex 8.88802 -1.30528 5
    endloop
  endfacet
  facet normal 0 0 1
    outer loop
      vertex -12.5645 -0.557671 5
      vertex 9.4155 -3.73662 5
      vertex 8.34983 -3.31385 5
    endloop
  endfacet
  facet normal 0 0 1
    outer loop
      vertex -12.5645 -0.557671 5
      vertex 8.88802 -1.30528 5
      vertex 12.5645 -0.557671 5
    endloop
  endfacet
  facet normal 0 0 1
    outer loop
      vertex 8.88802 -1.30528 5
      vertex 10.0226 -1.47179 5
      vertex 10.6878 -1.40716 5
    endloop
  endfacet
  facet normal 0 0 1
    outer loop
      vertex 8.88802 -1.30528 5
      vertex 10.6878 -1.40716 5
      vertex 12.5645 -0.557671 5
    endloop
  endfacet
  facet normal 0 0 1
    outer loop
      vertex -12.5645 -0.557671 5
      vertex 12.5645 -0.557671 5
      vertex 12.5645 0.557671 5
    endloop
  endfacet
  facet normal 0 0 1
    outer loop
      vertex -12.5645 -0.557671 5
      vertex 12.5645 0.557671 5
      vertex 10.6878 1.40716 5
    endloop
  endfacet
  facet normal 0 0 1
    outer loop
      vertex 8.88802 1.30528 5
      vertex 10.6878 1.40716 5
      vertex 10.0226 1.47179 5
    endloop
  endfacet
  facet normal 0 0 1
    outer loop
      vertex 7.94371 6.28594 5
      vertex 7.04483 5.57445 5
      vertex 10.6022 6.76515 5
    endloop
  endfacet
  facet normal 0 0 1
    outer loop
      vertex -12.5645 -0.557671 5
      vertex 10.6878 1.40716 5
      vertex 8.88802 1.30528 5
    endloop
  endfacet
  facet normal 0 0 1
    outer loop
      vertex -12.5645 -0.557671 5
      vertex 8.34983 3.31385 5
      vertex 9.4155 3.73662 5
    endloop
  endfacet
  facet normal 0 0 1
    outer loop
      vertex -12.5645 -0.557671 5
      vertex 9.4155 3.73662 5
      vertex 9.95962 4.12524 5
    endloop
  endfacet
  facet normal 0 0 1
    outer loop
      vertex -12.5645 -0.557671 5
      vertex 9.95962 4.12524 5
      vertex 11.1599 5.79938 5
    endloop
  endfacet
  facet normal 0 0 1
    outer loop
      vertex 7.04483 5.57445 5
      vertex 11.1599 5.79938 5
      vertex 10.6022 6.76515 5
    endloop
  endfacet
  facet normal 0 0 1
    outer loop
      vertex 7.94371 6.28594 5
      vertex 10.6022 6.76515 5
      vertex 8.55246 6.56251 5
    endloop
  endfacet
  facet normal 0 0 1
    outer loop
      vertex 3.73662 9.4155 5
      vertex 3.31385 8.34983 5
      vertex 6.76515 10.6022 5
    endloop
  endfacet
  facet normal 0 0 1
    outer loop
      vertex -12.5645 -0.557671 5
      vertex 11.1599 5.79938 5
      vertex 7.04483 5.57445 5
    endloop
  endfacet
  facet normal 0 0 1
    outer loop
      vertex -12.5645 -0.557671 5
      vertex 5.57445 7.04483 5
      vertex 6.28594 7.94371 5
    endloop
  endfacet
  facet normal 0 0 1
    outer loop
      vertex -12.5645 -0.557671 5
      vertex 6.28594 7.94371 5
      vertex 6.56251 8.55246 5
    endloop
  endfacet
  facet normal 0 0 1
    outer loop
      vertex 3.31385 8.34983 5
      vertex 6.56251 8.55246 5
      vertex 6.76515 10.6022 5
    endloop
  endfacet
  facet normal 0 0 1
    outer loop
      vertex 4.12524 9.95962 5
      vertex 6.76515 10.6022 5
      vertex 5.79938 11.1599 5
    endloop
  endfacet
  facet normal 0 0 1
    outer loop
      vertex 3.73662 9.4155 5
      vertex 6.76515 10.6022 5
      vertex 4.12524 9.95962 5
    endloop
  endfacet
  facet normal 0 0 1
    outer loop
      vertex -1.40716 10.6878 5
      vertex -1.47179 10.0226 5
      vertex 0.557671 12.5645 5
    endloop
  endfacet
  facet normal 0 0 1
    outer loop
      vertex -8.88802 1.30528 5
      vertex 6.56251 8.55246 5
      vertex 3.31385 8.34983 5
    endloop
  endfacet
  facet normal 0 0 1
    outer loop
      vertex -8.34983 3.31385 5
      vertex 3.31385 8.34983 5
      vertex 1.30528 8.88802 5
    endloop
  endfacet
  facet normal 0 0 1
    outer loop
      vertex -1.47179 10.0226 5
      vertex 1.40716 10.6878 5
      vertex 0.557671 12.5645 5
    endloop
  endfacet
  facet normal 0 0 1
    outer loop
      vertex -1.40716 10.6878 5
      vertex 0.557671 12.5645 5
      vertex -0.557671 12.5645 5
    endloop
  endfacet
  facet normal 0 0 1
    outer loop
      vertex -6.28594 7.94371 5
      vertex -5.57445 7.04483 5
      vertex -3.73662 9.4155 5
    endloop
  endfacet
  facet normal 0 0 1
    outer loop
      vertex -1.30528 8.88802 5
      vertex -3.31385 8.34983 5
      vertex -8.34983 3.31385 5
    endloop
  endfacet
  facet normal 0 0 1
    outer loop
      vertex -1.30528 8.88802 5
      vertex 1.40716 10.6878 5
      vertex -1.47179 10.0226 5
    endloop
  endfacet
  facet normal 0 0 1
    outer loop
      vertex -8.88802 1.30528 5
      vertex -10.0226 1.47179 5
      vertex -12.5645 -0.557671 5
    endloop
  endfacet
  facet normal 0 0 1
    outer loop
      vertex -7.04483 5.57445 5
      vertex -7.94371 6.28594 5
      vertex -9.4155 3.73662 5
    endloop
  endfacet
  facet normal 0 0 1
    outer loop
      vertex -6.56251 8.55246 5
      vertex -4.12524 9.95962 5
      vertex -5.79938 11.1599 5
    endloop
  endfacet
  facet normal 0 0 1
    outer loop
      vertex -6.28594 7.94371 5
      vertex -3.73662 9.4155 5
      vertex -4.12524 9.95962 5
    endloop
  endfacet
  facet normal 0 0 1
    outer loop
      vertex -8.55246 6.56251 5
      vertex -10.6022 6.76515 5
      vertex -9.95962 4.12524 5
    endloop
  endfacet
  facet normal 0 0 1
    outer loop
      vertex -6.28594 7.94371 5
      vertex -4.12524 9.95962 5
      vertex -6.56251 8.55246 5
    endloop
  endfacet
  facet normal 0 0 1
    outer loop
      vertex -7.04483 5.57445 5
      vertex -3.31385 8.34983 5
      vertex -5.57445 7.04483 5
    endloop
  endfacet
  facet normal 0 0 1
    outer loop
      vertex -6.76515 10.6022 5
      vertex -6.56251 8.55246 5
      vertex -5.79938 11.1599 5
    endloop
  endfacet
  facet normal 0 0 1
    outer loop
      vertex -9.4155 3.73662 5
      vertex -3.31385 8.34983 5
      vertex -7.04483 5.57445 5
    endloop
  endfacet
  facet normal 0 0 1
    outer loop
      vertex -8.34983 3.31385 5
      vertex 1.30528 8.88802 5
      vertex 1.47179 10.0226 5
    endloop
  endfacet
  facet normal 0 0 1
    outer loop
      vertex -9.95962 4.12524 5
      vertex -9.4155 3.73662 5
      vertex -7.94371 6.28594 5
    endloop
  endfacet
  facet normal 0 0 1
    outer loop
      vertex -9.95962 4.12524 5
      vertex -7.94371 6.28594 5
      vertex -8.55246 6.56251 5
    endloop
  endfacet
  facet normal 0 0 1
    outer loop
      vertex -11.1599 5.79938 5
      vertex -9.95962 4.12524 5
      vertex -10.6022 6.76515 5
    endloop
  endfacet
  facet normal 0 0 1
    outer loop
      vertex -12.5645 -0.557671 5
      vertex 6.56251 8.55246 5
      vertex -8.88802 1.30528 5
    endloop
  endfacet
  facet normal 0 0 1
    outer loop
      vertex -10.6878 1.40716 5
      vertex -12.5645 0.557671 5
      vertex -12.5645 -0.557671 5
    endloop
  endfacet
  facet normal 0 0 1
    outer loop
      vertex -8.34983 3.31385 5
      vertex 1.40716 10.6878 5
      vertex -1.30528 8.88802 5
    endloop
  endfacet
  facet normal 0 0 1
    outer loop
      vertex -9.4155 3.73662 5
      vertex -8.34983 3.31385 5
      vertex -3.31385 8.34983 5
    endloop
  endfacet
  facet normal 0 0 1
    outer loop
      vertex 8.88802 1.30528 5
      vertex 8.34983 3.31385 5
      vertex -12.5645 -0.557671 5
    endloop
  endfacet
  facet normal 0 0 1
    outer loop
      vertex 7.04483 5.57445 5
      vertex 5.57445 7.04483 5
      vertex -12.5645 -0.557671 5
    endloop
  endfacet
  facet normal 0 0 1
    outer loop
      vertex -10.0226 1.47179 5
      vertex -10.6878 1.40716 5
      vertex -12.5645 -0.557671 5
    endloop
  endfacet
  facet normal 0 0 1
    outer loop
      vertex -8.34983 3.31385 5
      vertex 1.47179 10.0226 5
      vertex 1.40716 10.6878 5
    endloop
  endfacet
  facet normal 0 0 1
    outer loop
      vertex -3.31385 8.34983 5
      vertex -3.73662 9.4155 5
      vertex -5.57445 7.04483 5
    endloop
  endfacet
  facet normal 0 0 1
    outer loop
      vertex -8.34983 3.31385 5
      vertex -8.88802 1.30528 5
      vertex 3.31385 8.34983 5
    endloop
  endfacet
  facet normal -0.784101 0.620634 0
    outer loop
      vertex -6.28594 -7.94371 5
      vertex -5.57445 -7.04483 5
      vertex -6.28594 -7.94371 0
    endloop
  endfacet
  facet normal -0.784101 0.620634 0
    outer loop
      vertex -6.28594 -7.94371 0
      vertex -5.57445 -7.04483 5
      vertex -5.57445 -7.04483 0
    endloop
  endfacet
  facet normal -1 0 0
    outer loop
      vertex -12.5645 -0.557671 5
      vertex -12.5645 0.557671 5
      vertex -12.5645 -0.557671 0
    endloop
  endfacet
  facet normal -1 0 0
    outer loop
      vertex -12.5645 -0.557671 0
      vertex -12.5645 0.557671 5
      vertex -12.5645 0.557671 0
    endloop
  endfacet
  facet normal -0.412357 -0.911022 0
    outer loop
      vertex -12.5645 -0.557671 0
      vertex -10.6878 -1.40716 0
      vertex -10.6878 -1.40716 5
    endloop
  endfacet
  facet normal -0.412357 -0.911022 0
    outer loop
      vertex -12.5645 -0.557671 5
      vertex -12.5645 -0.557671 0
      vertex -10.6878 -1.40716 5
    endloop
  endfacet
  facet normal -0.0967021 -0.995313 0
    outer loop
      vertex -10.6878 -1.40716 0
      vertex -10.0226 -1.47179 0
      vertex -10.0226 -1.47179 5
    endloop
  endfacet
  facet normal -0.0967021 -0.995313 0
    outer loop
      vertex -10.6878 -1.40716 5
      vertex -10.6878 -1.40716 0
      vertex -10.0226 -1.47179 5
    endloop
  endfacet
  facet normal 0.145211 -0.989401 0
    outer loop
      vertex -10.0226 -1.47179 0
      vertex -8.88802 -1.30528 0
      vertex -8.88802 -1.30528 5
    endloop
  endfacet
  facet normal 0.145211 -0.989401 0
    outer loop
      vertex -10.0226 -1.47179 5
      vertex -10.0226 -1.47179 0
      vertex -8.88802 -1.30528 5
    endloop
  endfacet
  facet normal -0.965926 -0.25882 0
    outer loop
      vertex -8.34983 -3.31385 0
      vertex -8.34983 -3.31385 5
      vertex -8.88802 -1.30528 0
    endloop
  endfacet
  facet normal -0.965926 -0.25882 0
    outer loop
      vertex -8.88802 -1.30528 0
      vertex -8.34983 -3.31385 5
      vertex -8.88802 -1.30528 5
    endloop
  endfacet
  facet normal -0.368758 0.929526 0
    outer loop
      vertex -9.4155 -3.73662 5
      vertex -8.34983 -3.31385 5
      vertex -9.4155 -3.73662 0
    endloop
  endfacet
  facet normal -0.368758 0.929526 0
    outer loop
      vertex -9.4155 -3.73662 0
      vertex -8.34983 -3.31385 5
      vertex -8.34983 -3.31385 0
    endloop
  endfacet
  facet normal -0.581198 0.813762 0
    outer loop
      vertex -9.95962 -4.12524 5
      vertex -9.4155 -3.73662 5
      vertex -9.95962 -4.12524 0
    endloop
  endfacet
  facet normal -0.581198 0.813762 0
    outer loop
      vertex -9.95962 -4.12524 0
      vertex -9.4155 -3.73662 5
      vertex -9.4155 -3.73662 0
    endloop
  endfacet
  facet normal -0.812705 0.582676 0
    outer loop
      vertex -11.1599 -5.79938 5
      vertex -9.95962 -4.12524 5
      vertex -11.1599 -5.79938 0
    endloop
  endfacet
  facet normal -0.812705 0.582676 0
    outer loop
      vertex -11.1599 -5.79938 0
      vertex -9.95962 -4.12524 5
      vertex -9.95962 -4.12524 0
    endloop
  endfacet
  facet normal -0.865992 -0.500058 0
    outer loop
      vertex -10.6022 -6.76515 0
      vertex -10.6022 -6.76515 5
      vertex -11.1599 -5.79938 0
    endloop
  endfacet
  facet normal -0.865992 -0.500058 0
    outer loop
      vertex -11.1599 -5.79938 0
      vertex -10.6022 -6.76515 5
      vertex -11.1599 -5.79938 5
    endloop
  endfacet
  facet normal 0.0983777 -0.995149 0
    outer loop
      vertex -10.6022 -6.76515 0
      vertex -8.55246 -6.56251 0
      vertex -8.55246 -6.56251 5
    endloop
  endfacet
  facet normal 0.0983777 -0.995149 0
    outer loop
      vertex -10.6022 -6.76515 5
      vertex -10.6022 -6.76515 0
      vertex -8.55246 -6.56251 5
    endloop
  endfacet
  facet normal 0.413644 -0.910439 0
    outer loop
      vertex -8.55246 -6.56251 0
      vertex -7.94371 -6.28594 0
      vertex -7.94371 -6.28594 5
    endloop
  endfacet
  facet normal 0.413644 -0.910439 0
    outer loop
      vertex -8.55246 -6.56251 5
      vertex -8.55246 -6.56251 0
      vertex -7.94371 -6.28594 5
    endloop
  endfacet
  facet normal -0.910439 0.413644 0
    outer loop
      vertex -6.56251 -8.55246 5
      vertex -6.28594 -7.94371 5
      vertex -6.56251 -8.55246 0
    endloop
  endfacet
  facet normal -0.910439 0.413644 0
    outer loop
      vertex -6.56251 -8.55246 0
      vertex -6.28594 -7.94371 5
      vertex -6.28594 -7.94371 0
    endloop
  endfacet
  facet normal -0.995149 0.0983777 0
    outer loop
      vertex -6.76515 -10.6022 5
      vertex -6.56251 -8.55246 5
      vertex -6.76515 -10.6022 0
    endloop
  endfacet
  facet normal -0.995149 0.0983777 0
    outer loop
      vertex -6.76515 -10.6022 0
      vertex -6.56251 -8.55246 5
      vertex -6.56251 -8.55246 0
    endloop
  endfacet
  facet normal -0.500058 -0.865992 0
    outer loop
      vertex -6.76515 -10.6022 0
      vertex -5.79938 -11.1599 0
      vertex -5.79938 -11.1599 5
    endloop
  endfacet
  facet normal -0.500058 -0.865992 0
    outer loop
      vertex -6.76515 -10.6022 5
      vertex -6.76515 -10.6022 0
      vertex -5.79938 -11.1599 5
    endloop
  endfacet
  facet normal 0.582676 -0.812705 0
    outer loop
      vertex -5.79938 -11.1599 0
      vertex -4.12524 -9.95962 0
      vertex -4.12524 -9.95962 5
    endloop
  endfacet
  facet normal 0.582676 -0.812705 0
    outer loop
      vertex -5.79938 -11.1599 5
      vertex -5.79938 -11.1599 0
      vertex -4.12524 -9.95962 5
    endloop
  endfacet
  facet normal 0.813762 -0.581198 0
    outer loop
      vertex -4.12524 -9.95962 0
      vertex -3.73662 -9.4155 0
      vertex -3.73662 -9.4155 5
    endloop
  endfacet
  facet normal 0.813762 -0.581198 0
    outer loop
      vertex -4.12524 -9.95962 5
      vertex -4.12524 -9.95962 0
      vertex -3.73662 -9.4155 5
    endloop
  endfacet
  facet normal 0.929526 -0.368758 0
    outer loop
      vertex -3.73662 -9.4155 0
      vertex -3.31385 -8.34983 0
      vertex -3.31385 -8.34983 5
    endloop
  endfacet
  facet normal 0.929526 -0.368758 0
    outer loop
      vertex -3.73662 -9.4155 5
      vertex -3.73662 -9.4155 0
      vertex -3.31385 -8.34983 5
    endloop
  endfacet
  facet normal -0.25882 -0.965926 0
    outer loop
      vertex -3.31385 -8.34983 0
      vertex -1.30528 -8.88802 0
      vertex -1.30528 -8.88802 5
    endloop
  endfacet
  facet normal -0.25882 -0.965926 0
    outer loop
      vertex -3.31385 -8.34983 5
      vertex -3.31385 -8.34983 0
      vertex -1.30528 -8.88802 5
    endloop
  endfacet
  facet normal -0.989401 0.145211 0
    outer loop
      vertex -1.47179 -10.0226 5
      vertex -1.30528 -8.88802 5
      vertex -1.47179 -10.0226 0
    endloop
  endfacet
  facet normal -0.989401 0.145211 0
    outer loop
      vertex -1.47179 -10.0226 0
      vertex -1.30528 -8.88802 5
      vertex -1.30528 -8.88802 0
    endloop
  endfacet
  facet normal -0.995313 -0.0967021 0
    outer loop
      vertex -1.40716 -10.6878 0
      vertex -1.40716 -10.6878 5
      vertex -1.47179 -10.0226 0
    endloop
  endfacet
  facet normal -0.995313 -0.0967021 0
    outer loop
      vertex -1.47179 -10.0226 0
      vertex -1.40716 -10.6878 5
      vertex -1.47179 -10.0226 5
    endloop
  endfacet
  facet normal -0.911022 -0.412357 0
    outer loop
      vertex -0.557671 -12.5645 0
      vertex -0.557671 -12.5645 5
      vertex -1.40716 -10.6878 0
    endloop
  endfacet
  facet normal -0.911022 -0.412357 0
    outer loop
      vertex -1.40716 -10.6878 0
      vertex -0.557671 -12.5645 5
      vertex -1.40716 -10.6878 5
    endloop
  endfacet
  facet normal 0 -1 0
    outer loop
      vertex -0.557671 -12.5645 0
      vertex 0.557671 -12.5645 0
      vertex 0.557671 -12.5645 5
    endloop
  endfacet
  facet normal 0 -1 0
    outer loop
      vertex -0.557671 -12.5645 5
      vertex -0.557671 -12.5645 0
      vertex 0.557671 -12.5645 5
    endloop
  endfacet
  facet normal 0.911022 -0.412357 0
    outer loop
      vertex 0.557671 -12.5645 0
      vertex 1.40716 -10.6878 0
      vertex 1.40716 -10.6878 5
    endloop
  endfacet
  facet normal 0.911022 -0.412357 0
    outer loop
      vertex 0.557671 -12.5645 5
      vertex 0.557671 -12.5645 0
      vertex 1.40716 -10.6878 5
    endloop
  endfacet
  facet normal 0.995313 -0.0967021 0
    outer loop
      vertex 1.40716 -10.6878 0
      vertex 1.47179 -10.0226 0
      vertex 1.47179 -10.0226 5
    endloop
  endfacet
  facet normal 0.995313 -0.0967021 0
    outer loop
      vertex 1.40716 -10.6878 5
      vertex 1.40716 -10.6878 0
      vertex 1.47179 -10.0226 5
    endloop
  endfacet
  facet normal 0.989401 0.145211 0
    outer loop
      vertex 1.30528 -8.88802 0
      vertex 1.30528 -8.88802 5
      vertex 1.47179 -10.0226 5
    endloop
  endfacet
  facet normal 0.989401 0.145211 0
    outer loop
      vertex 1.47179 -10.0226 0
      vertex 1.30528 -8.88802 0
      vertex 1.47179 -10.0226 5
    endloop
  endfacet
  facet normal 0.25882 -0.965926 0
    outer loop
      vertex 1.30528 -8.88802 0
      vertex 3.31385 -8.34983 0
      vertex 3.31385 -8.34983 5
    endloop
  endfacet
  facet normal 0.25882 -0.965926 0
    outer loop
      vertex 1.30528 -8.88802 5
      vertex 1.30528 -8.88802 0
      vertex 3.31385 -8.34983 5
    endloop
  endfacet
  facet normal -0.929526 -0.368758 0
    outer loop
      vertex 3.73662 -9.4155 0
      vertex 3.73662 -9.4155 5
      vertex 3.31385 -8.34983 0
    endloop
  endfacet
  facet normal -0.929526 -0.368758 0
    outer loop
      vertex 3.31385 -8.34983 0
      vertex 3.73662 -9.4155 5
      vertex 3.31385 -8.34983 5
    endloop
  endfacet
  facet normal -0.813762 -0.581198 0
    outer loop
      vertex 4.12524 -9.95962 0
      vertex 4.12524 -9.95962 5
      vertex 3.73662 -9.4155 0
    endloop
  endfacet
  facet normal -0.813762 -0.581198 0
    outer loop
      vertex 3.73662 -9.4155 0
      vertex 4.12524 -9.95962 5
      vertex 3.73662 -9.4155 5
    endloop
  endfacet
  facet normal -0.582676 -0.812705 0
    outer loop
      vertex 4.12524 -9.95962 0
      vertex 5.79938 -11.1599 0
      vertex 5.79938 -11.1599 5
    endloop
  endfacet
  facet normal -0.582676 -0.812705 0
    outer loop
      vertex 4.12524 -9.95962 5
      vertex 4.12524 -9.95962 0
      vertex 5.79938 -11.1599 5
    endloop
  endfacet
  facet normal 0.500058 -0.865992 0
    outer loop
      vertex 5.79938 -11.1599 0
      vertex 6.76515 -10.6022 0
      vertex 6.76515 -10.6022 5
    endloop
  endfacet
  facet normal 0.500058 -0.865992 0
    outer loop
      vertex 5.79938 -11.1599 5
      vertex 5.79938 -11.1599 0
      vertex 6.76515 -10.6022 5
    endloop
  endfacet
  facet normal 0.995149 0.0983777 0
    outer loop
      vertex 6.56251 -8.55246 0
      vertex 6.56251 -8.55246 5
      vertex 6.76515 -10.6022 5
    endloop
  endfacet
  facet normal 0.995149 0.0983777 0
    outer loop
      vertex 6.76515 -10.6022 0
      vertex 6.56251 -8.55246 0
      vertex 6.76515 -10.6022 5
    endloop
  endfacet
  facet normal 0.910439 0.413644 0
    outer loop
      vertex 6.28594 -7.94371 0
      vertex 6.28594 -7.94371 5
      vertex 6.56251 -8.55246 5
    endloop
  endfacet
  facet normal 0.910439 0.413644 0
    outer loop
      vertex 6.56251 -8.55246 0
      vertex 6.28594 -7.94371 0
      vertex 6.56251 -8.55246 5
    endloop
  endfacet
  facet normal 0.784101 0.620634 0
    outer loop
      vertex 5.57445 -7.04483 0
      vertex 5.57445 -7.04483 5
      vertex 6.28594 -7.94371 5
    endloop
  endfacet
  facet normal 0.784101 0.620634 0
    outer loop
      vertex 6.28594 -7.94371 0
      vertex 5.57445 -7.04483 0
      vertex 6.28594 -7.94371 5
    endloop
  endfacet
  facet normal 0.707107 -0.707107 0
    outer loop
      vertex 5.57445 -7.04483 0
      vertex 7.04483 -5.57445 0
      vertex 7.04483 -5.57445 5
    endloop
  endfacet
  facet normal 0.707107 -0.707107 0
    outer loop
      vertex 5.57445 -7.04483 5
      vertex 5.57445 -7.04483 0
      vertex 7.04483 -5.57445 5
    endloop
  endfacet
  facet normal -0.620634 -0.784101 0
    outer loop
      vertex 7.04483 -5.57445 0
      vertex 7.94371 -6.28594 0
      vertex 7.94371 -6.28594 5
    endloop
  endfacet
  facet normal -0.620634 -0.784101 0
    outer loop
      vertex 7.04483 -5.57445 5
      vertex 7.04483 -5.57445 0
      vertex 7.94371 -6.28594 5
    endloop
  endfacet
  facet normal -0.413644 -0.910439 0
    outer loop
      vertex 7.94371 -6.28594 0
      vertex 8.55246 -6.56251 0
      vertex 8.55246 -6.56251 5
    endloop
  endfacet
  facet normal -0.413644 -0.910439 0
    outer loop
      vertex 7.94371 -6.28594 5
      vertex 7.94371 -6.28594 0
      vertex 8.55246 -6.56251 5
    endloop
  endfacet
  facet normal -0.0983777 -0.995149 0
    outer loop
      vertex 8.55246 -6.56251 0
      vertex 10.6022 -6.76515 0
      vertex 10.6022 -6.76515 5
    endloop
  endfacet
  facet normal -0.0983777 -0.995149 0
    outer loop
      vertex 8.55246 -6.56251 5
      vertex 8.55246 -6.56251 0
      vertex 10.6022 -6.76515 5
    endloop
  endfacet
  facet normal 0.865992 -0.500058 0
    outer loop
      vertex 10.6022 -6.76515 0
      vertex 11.1599 -5.79938 0
      vertex 11.1599 -5.79938 5
    endloop
  endfacet
  facet normal 0.865992 -0.500058 0
    outer loop
      vertex 10.6022 -6.76515 5
      vertex 10.6022 -6.76515 0
      vertex 11.1599 -5.79938 5
    endloop
  endfacet
  facet normal 0.812705 0.582676 0
    outer loop
      vertex 9.95962 -4.12524 0
      vertex 9.95962 -4.12524 5
      vertex 11.1599 -5.79938 5
    endloop
  endfacet
  facet normal 0.812705 0.582676 0
    outer loop
      vertex 11.1599 -5.79938 0
      vertex 9.95962 -4.12524 0
      vertex 11.1599 -5.79938 5
    endloop
  endfacet
  facet normal 0.581198 0.813762 0
    outer loop
      vertex 9.4155 -3.73662 5
      vertex 9.95962 -4.12524 5
      vertex 9.4155 -3.73662 0
    endloop
  endfacet
  facet normal 0.581198 0.813762 0
    outer loop
      vertex 9.4155 -3.73662 0
      vertex 9.95962 -4.12524 5
      vertex 9.95962 -4.12524 0
    endloop
  endfacet
  facet normal 0.368758 0.929526 0
    outer loop
      vertex 8.34983 -3.31385 5
      vertex 9.4155 -3.73662 5
      vertex 8.34983 -3.31385 0
    endloop
  endfacet
  facet normal 0.368758 0.929526 0
    outer loop
      vertex 8.34983 -3.31385 0
      vertex 9.4155 -3.73662 5
      vertex 9.4155 -3.73662 0
    endloop
  endfacet
  facet normal 0.965926 -0.25882 0
    outer loop
      vertex 8.34983 -3.31385 0
      vertex 8.88802 -1.30528 0
      vertex 8.88802 -1.30528 5
    endloop
  endfacet
  facet normal 0.965926 -0.25882 0
    outer loop
      vertex 8.34983 -3.31385 5
      vertex 8.34983 -3.31385 0
      vertex 8.88802 -1.30528 5
    endloop
  endfacet
  facet normal -0.145211 -0.989401 0
    outer loop
      vertex 8.88802 -1.30528 0
      vertex 10.0226 -1.47179 0
      vertex 10.0226 -1.47179 5
    endloop
  endfacet
  facet normal -0.145211 -0.989401 0
    outer loop
      vertex 8.88802 -1.30528 5
      vertex 8.88802 -1.30528 0
      vertex 10.0226 -1.47179 5
    endloop
  endfacet
  facet normal 0.0967021 -0.995313 0
    outer loop
      vertex 10.0226 -1.47179 0
      vertex 10.6878 -1.40716 0
      vertex 10.6878 -1.40716 5
    endloop
  endfacet
  facet normal 0.0967021 -0.995313 0
    outer loop
      vertex 10.0226 -1.47179 5
      vertex 10.0226 -1.47179 0
      vertex 10.6878 -1.40716 5
    endloop
  endfacet
  facet normal 0.412357 -0.911022 0
    outer loop
      vertex 10.6878 -1.40716 0
      vertex 12.5645 -0.557671 0
      vertex 12.5645 -0.557671 5
    endloop
  endfacet
  facet normal 0.412357 -0.911022 0
    outer loop
      vertex 10.6878 -1.40716 5
      vertex 10.6878 -1.40716 0
      vertex 12.5645 -0.557671 5
    endloop
  endfacet
  facet normal 1 0 0
    outer loop
      vertex 12.5645 -0.557671 0
      vertex 12.5645 0.557671 0
      vertex 12.5645 0.557671 5
    endloop
  endfacet
  facet normal 1 0 0
    outer loop
      vertex 12.5645 -0.557671 5
      vertex 12.5645 -0.557671 0
      vertex 12.5645 0.557671 5
    endloop
  endfacet
  facet normal 0.412357 0.911022 0
    outer loop
      vertex 10.6878 1.40716 5
      vertex 12.5645 0.557671 5
      vertex 10.6878 1.40716 0
    endloop
  endfacet
  facet normal 0.412357 0.911022 0
    outer loop
      vertex 10.6878 1.40716 0
      vertex 12.5645 0.557671 5
      vertex 12.5645 0.557671 0
    endloop
  endfacet
  facet normal 0.0967021 0.995313 0
    outer loop
      vertex 10.0226 1.47179 5
      vertex 10.6878 1.40716 5
      vertex 10.0226 1.47179 0
    endloop
  endfacet
  facet normal 0.0967021 0.995313 0
    outer loop
      vertex 10.0226 1.47179 0
      vertex 10.6878 1.40716 5
      vertex 10.6878 1.40716 0
    endloop
  endfacet
  facet normal -0.145211 0.989401 0
    outer loop
      vertex 8.88802 1.30528 5
      vertex 10.0226 1.47179 5
      vertex 8.88802 1.30528 0
    endloop
  endfacet
  facet normal -0.145211 0.989401 0
    outer loop
      vertex 8.88802 1.30528 0
      vertex 10.0226 1.47179 5
      vertex 10.0226 1.47179 0
    endloop
  endfacet
  facet normal 0.965926 0.25882 0
    outer loop
      vertex 8.34983 3.31385 0
      vertex 8.34983 3.31385 5
      vertex 8.88802 1.30528 5
    endloop
  endfacet
  facet normal 0.965926 0.25882 0
    outer loop
      vertex 8.88802 1.30528 0
      vertex 8.34983 3.31385 0
      vertex 8.88802 1.30528 5
    endloop
  endfacet
  facet normal 0.368758 -0.929526 0
    outer loop
      vertex 8.34983 3.31385 0
      vertex 9.4155 3.73662 0
      vertex 9.4155 3.73662 5
    endloop
  endfacet
  facet normal 0.368758 -0.929526 0
    outer loop
      vertex 8.34983 3.31385 5
      vertex 8.34983 3.31385 0
      vertex 9.4155 3.73662 5
    endloop
  endfacet
  facet normal 0.581198 -0.813762 0
    outer loop
      vertex 9.4155 3.73662 0
      vertex 9.95962 4.12524 0
      vertex 9.95962 4.12524 5
    endloop
  endfacet
  facet normal 0.581198 -0.813762 0
    outer loop
      vertex 9.4155 3.73662 5
      vertex 9.4155 3.73662 0
      vertex 9.95962 4.12524 5
    endloop
  endfacet
  facet normal 0.812705 -0.582676 0
    outer loop
      vertex 9.95962 4.12524 0
      vertex 11.1599 5.79938 0
      vertex 11.1599 5.79938 5
    endloop
  endfacet
  facet normal 0.812705 -0.582676 0
    outer loop
      vertex 9.95962 4.12524 5
      vertex 9.95962 4.12524 0
      vertex 11.1599 5.79938 5
    endloop
  endfacet
  facet normal 0.865992 0.500058 0
    outer loop
      vertex 10.6022 6.76515 0
      vertex 10.6022 6.76515 5
      vertex 11.1599 5.79938 5
    endloop
  endfacet
  facet normal 0.865992 0.500058 0
    outer loop
      vertex 11.1599 5.79938 0
      vertex 10.6022 6.76515 0
      vertex 11.1599 5.79938 5
    endloop
  endfacet
  facet normal -0.0983777 0.995149 0
    outer loop
      vertex 8.55246 6.56251 5
      vertex 10.6022 6.76515 5
      vertex 8.55246 6.56251 0
    endloop
  endfacet
  facet normal -0.0983777 0.995149 0
    outer loop
      vertex 8.55246 6.56251 0
      vertex 10.6022 6.76515 5
      vertex 10.6022 6.76515 0
    endloop
  endfacet
  facet normal -0.413644 0.910439 0
    outer loop
      vertex 7.94371 6.28594 5
      vertex 8.55246 6.56251 5
      vertex 7.94371 6.28594 0
    endloop
  endfacet
  facet normal -0.413644 0.910439 0
    outer loop
      vertex 7.94371 6.28594 0
      vertex 8.55246 6.56251 5
      vertex 8.55246 6.56251 0
    endloop
  endfacet
  facet normal -0.620634 0.784101 0
    outer loop
      vertex 7.04483 5.57445 5
      vertex 7.94371 6.28594 5
      vertex 7.04483 5.57445 0
    endloop
  endfacet
  facet normal -0.620634 0.784101 0
    outer loop
      vertex 7.04483 5.57445 0
      vertex 7.94371 6.28594 5
      vertex 7.94371 6.28594 0
    endloop
  endfacet
  facet normal 0.707107 0.707107 0
    outer loop
      vertex 5.57445 7.04483 5
      vertex 7.04483 5.57445 5
      vertex 5.57445 7.04483 0
    endloop
  endfacet
  facet normal 0.707107 0.707107 0
    outer loop
      vertex 5.57445 7.04483 0
      vertex 7.04483 5.57445 5
      vertex 7.04483 5.57445 0
    endloop
  endfacet
  facet normal 0.784101 -0.620634 0
    outer loop
      vertex 5.57445 7.04483 0
      vertex 6.28594 7.94371 0
      vertex 6.28594 7.94371 5
    endloop
  endfacet
  facet normal 0.784101 -0.620634 0
    outer loop
      vertex 5.57445 7.04483 5
      vertex 5.57445 7.04483 0
      vertex 6.28594 7.94371 5
    endloop
  endfacet
  facet normal 0.910439 -0.413644 0
    outer loop
      vertex 6.28594 7.94371 0
      vertex 6.56251 8.55246 0
      vertex 6.56251 8.55246 5
    endloop
  endfacet
  facet normal 0.910439 -0.413644 0
    outer loop
      vertex 6.28594 7.94371 5
      vertex 6.28594 7.94371 0
      vertex 6.56251 8.55246 5
    endloop
  endfacet
  facet normal 0.995149 -0.0983777 0
    outer loop
      vertex 6.56251 8.55246 0
      vertex 6.76515 10.6022 0
      vertex 6.76515 10.6022 5
    endloop
  endfacet
  facet normal 0.995149 -0.0983777 0
    outer loop
      vertex 6.56251 8.55246 5
      vertex 6.56251 8.55246 0
      vertex 6.76515 10.6022 5
    endloop
  endfacet
  facet normal 0.500058 0.865992 0
    outer loop
      vertex 5.79938 11.1599 5
      vertex 6.76515 10.6022 5
      vertex 5.79938 11.1599 0
    endloop
  endfacet
  facet normal 0.500058 0.865992 0
    outer loop
      vertex 5.79938 11.1599 0
      vertex 6.76515 10.6022 5
      vertex 6.76515 10.6022 0
    endloop
  endfacet
  facet normal -0.582676 0.812705 0
    outer loop
      vertex 4.12524 9.95962 5
      vertex 5.79938 11.1599 5
      vertex 4.12524 9.95962 0
    endloop
  endfacet
  facet normal -0.582676 0.812705 0
    outer loop
      vertex 4.12524 9.95962 0
      vertex 5.79938 11.1599 5
      vertex 5.79938 11.1599 0
    endloop
  endfacet
  facet normal -0.813762 0.581198 0
    outer loop
      vertex 3.73662 9.4155 5
      vertex 4.12524 9.95962 5
      vertex 3.73662 9.4155 0
    endloop
  endfacet
  facet normal -0.813762 0.581198 0
    outer loop
      vertex 3.73662 9.4155 0
      vertex 4.12524 9.95962 5
      vertex 4.12524 9.95962 0
    endloop
  endfacet
  facet normal -0.929526 0.368758 0
    outer loop
      vertex 3.31385 8.34983 5
      vertex 3.73662 9.4155 5
      vertex 3.31385 8.34983 0
    endloop
  endfacet
  facet normal -0.929526 0.368758 0
    outer loop
      vertex 3.31385 8.34983 0
      vertex 3.73662 9.4155 5
      vertex 3.73662 9.4155 0
    endloop
  endfacet
  facet normal 0.25882 0.965926 0
    outer loop
      vertex 1.30528 8.88802 5
      vertex 3.31385 8.34983 5
      vertex 1.30528 8.88802 0
    endloop
  endfacet
  facet normal 0.25882 0.965926 0
    outer loop
      vertex 1.30528 8.88802 0
      vertex 3.31385 8.34983 5
      vertex 3.31385 8.34983 0
    endloop
  endfacet
  facet normal 0.989401 -0.145211 0
    outer loop
      vertex 1.30528 8.88802 0
      vertex 1.47179 10.0226 0
      vertex 1.47179 10.0226 5
    endloop
  endfacet
  facet normal 0.989401 -0.145211 0
    outer loop
      vertex 1.30528 8.88802 5
      vertex 1.30528 8.88802 0
      vertex 1.47179 10.0226 5
    endloop
  endfacet
  facet normal 0.995313 0.0967021 0
    outer loop
      vertex 1.40716 10.6878 0
      vertex 1.40716 10.6878 5
      vertex 1.47179 10.0226 5
    endloop
  endfacet
  facet normal 0.995313 0.0967021 0
    outer loop
      vertex 1.47179 10.0226 0
      vertex 1.40716 10.6878 0
      vertex 1.47179 10.0226 5
    endloop
  endfacet
  facet normal 0.911022 0.412357 0
    outer loop
      vertex 0.557671 12.5645 0
      vertex 0.557671 12.5645 5
      vertex 1.40716 10.6878 5
    endloop
  endfacet
  facet normal 0.911022 0.412357 0
    outer loop
      vertex 1.40716 10.6878 0
      vertex 0.557671 12.5645 0
      vertex 1.40716 10.6878 5
    endloop
  endfacet
  facet normal 0 1 0
    outer loop
      vertex -0.557671 12.5645 5
      vertex 0.557671 12.5645 5
      vertex -0.557671 12.5645 0
    endloop
  endfacet
  facet normal 0 1 0
    outer loop
      vertex -0.557671 12.5645 0
      vertex 0.557671 12.5645 5
      vertex 0.557671 12.5645 0
    endloop
  endfacet
  facet normal -0.911022 0.412357 0
    outer loop
      vertex -1.40716 10.6878 5
      vertex -0.557671 12.5645 5
      vertex -1.40716 10.6878 0
    endloop
  endfacet
  facet normal -0.911022 0.412357 0
    outer loop
      vertex -1.40716 10.6878 0
      vertex -0.557671 12.5645 5
      vertex -0.557671 12.5645 0
    endloop
  endfacet
  facet normal -0.995313 0.0967021 0
    outer loop
      vertex -1.47179 10.0226 5
      vertex -1.40716 10.6878 5
      vertex -1.47179 10.0226 0
    endloop
  endfacet
  facet normal -0.995313 0.0967021 0
    outer loop
      vertex -1.47179 10.0226 0
      vertex -1.40716 10.6878 5
      vertex -1.40716 10.6878 0
    endloop
  endfacet
  facet normal -0.989401 -0.145211 0
    outer loop
      vertex -1.30528 8.88802 0
      vertex -1.30528 8.88802 5
      vertex -1.47179 10.0226 0
    endloop
  endfacet
  facet normal -0.989401 -0.145211 0
    outer loop
      vertex -1.47179 10.0226 0
      vertex -1.30528 8.88802 5
      vertex -1.47179 10.0226 5
    endloop
  endfacet
  facet normal -0.25882 0.965926 0
    outer loop
      vertex -3.31385 8.34983 5
      vertex -1.30528 8.88802 5
      vertex -3.31385 8.34983 0
    endloop
  endfacet
  facet normal -0.25882 0.965926 0
    outer loop
      vertex -3.31385 8.34983 0
      vertex -1.30528 8.88802 5
      vertex -1.30528 8.88802 0
    endloop
  endfacet
  facet normal 0.929526 0.368758 0
    outer loop
      vertex -3.73662 9.4155 0
      vertex -3.73662 9.4155 5
      vertex -3.31385 8.34983 5
    endloop
  endfacet
  facet normal 0.929526 0.368758 0
    outer loop
      vertex -3.31385 8.34983 0
      vertex -3.73662 9.4155 0
      vertex -3.31385 8.34983 5
    endloop
  endfacet
  facet normal 0.813762 0.581198 0
    outer loop
      vertex -4.12524 9.95962 0
      vertex -4.12524 9.95962 5
      vertex -3.73662 9.4155 5
    endloop
  endfacet
  facet normal 0.813762 0.581198 0
    outer loop
      vertex -3.73662 9.4155 0
      vertex -4.12524 9.95962 0
      vertex -3.73662 9.4155 5
    endloop
  endfacet
  facet normal 0.582676 0.812705 0
    outer loop
      vertex -5.79938 11.1599 5
      vertex -4.12524 9.95962 5
      vertex -5.79938 11.1599 0
    endloop
  endfacet
  facet normal 0.582676 0.812705 0
    outer loop
      vertex -5.79938 11.1599 0
      vertex -4.12524 9.95962 5
      vertex -4.12524 9.95962 0
    endloop
  endfacet
  facet normal -0.500058 0.865992 0
    outer loop
      vertex -6.76515 10.6022 5
      vertex -5.79938 11.1599 5
      vertex -6.76515 10.6022 0
    endloop
  endfacet
  facet normal -0.500058 0.865992 0
    outer loop
      vertex -6.76515 10.6022 0
      vertex -5.79938 11.1599 5
      vertex -5.79938 11.1599 0
    endloop
  endfacet
  facet normal -0.995149 -0.0983777 0
    outer loop
      vertex -6.56251 8.55246 0
      vertex -6.56251 8.55246 5
      vertex -6.76515 10.6022 0
    endloop
  endfacet
  facet normal -0.995149 -0.0983777 0
    outer loop
      vertex -6.76515 10.6022 0
      vertex -6.56251 8.55246 5
      vertex -6.76515 10.6022 5
    endloop
  endfacet
  facet normal -0.910439 -0.413644 0
    outer loop
      vertex -6.28594 7.94371 0
      vertex -6.28594 7.94371 5
      vertex -6.56251 8.55246 0
    endloop
  endfacet
  facet normal -0.910439 -0.413644 0
    outer loop
      vertex -6.56251 8.55246 0
      vertex -6.28594 7.94371 5
      vertex -6.56251 8.55246 5
    endloop
  endfacet
  facet normal -0.784101 -0.620634 0
    outer loop
      vertex -5.57445 7.04483 0
      vertex -5.57445 7.04483 5
      vertex -6.28594 7.94371 0
    endloop
  endfacet
  facet normal -0.784101 -0.620634 0
    outer loop
      vertex -6.28594 7.94371 0
      vertex -5.57445 7.04483 5
      vertex -6.28594 7.94371 5
    endloop
  endfacet
  facet normal -0.707107 0.707107 0
    outer loop
      vertex -7.04483 5.57445 5
      vertex -5.57445 7.04483 5
      vertex -7.04483 5.57445 0
    endloop
  endfacet
  facet normal -0.707107 0.707107 0
    outer loop
      vertex -7.04483 5.57445 0
      vertex -5.57445 7.04483 5
      vertex -5.57445 7.04483 0
    endloop
  endfacet
  facet normal 0.620634 0.784101 0
    outer loop
      vertex -7.94371 6.28594 5
      vertex -7.04483 5.57445 5
      vertex -7.94371 6.28594 0
    endloop
  endfacet
  facet normal 0.620634 0.784101 0
    outer loop
      vertex -7.94371 6.28594 0
      vertex -7.04483 5.57445 5
      vertex -7.04483 5.57445 0
    endloop
  endfacet
  facet normal 0.413644 0.910439 0
    outer loop
      vertex -8.55246 6.56251 5
      vertex -7.94371 6.28594 5
      vertex -8.55246 6.56251 0
    endloop
  endfacet
  facet normal 0.413644 0.910439 0
    outer loop
      vertex -8.55246 6.56251 0
      vertex -7.94371 6.28594 5
      vertex -7.94371 6.28594 0
    endloop
  endfacet
  facet normal 0.0983777 0.995149 0
    outer loop
      vertex -10.6022 6.76515 5
      vertex -8.55246 6.56251 5
      vertex -10.6022 6.76515 0
    endloop
  endfacet
  facet normal 0.0983777 0.995149 0
    outer loop
      vertex -10.6022 6.76515 0
      vertex -8.55246 6.56251 5
      vertex -8.55246 6.56251 0
    endloop
  endfacet
  facet normal -0.865992 0.500058 0
    outer loop
      vertex -11.1599 5.79938 5
      vertex -10.6022 6.76515 5
      vertex -11.1599 5.79938 0
    endloop
  endfacet
  facet normal -0.865992 0.500058 0
    outer loop
      vertex -11.1599 5.79938 0
      vertex -10.6022 6.76515 5
      vertex -10.6022 6.76515 0
    endloop
  endfacet
  facet normal -0.812705 -0.582676 0
    outer loop
      vertex -9.95962 4.12524 0
      vertex -9.95962 4.12524 5
      vertex -11.1599 5.79938 0
    endloop
  endfacet
  facet normal -0.812705 -0.582676 0
    outer loop
      vertex -11.1599 5.79938 0
      vertex -9.95962 4.12524 5
      vertex -11.1599 5.79938 5
    endloop
  endfacet
  facet normal -0.581198 -0.813762 0
    outer loop
      vertex -9.95962 4.12524 0
      vertex -9.4155 3.73662 0
      vertex -9.4155 3.73662 5
    endloop
  endfacet
  facet normal -0.581198 -0.813762 0
    outer loop
      vertex -9.95962 4.12524 5
      vertex -9.95962 4.12524 0
      vertex -9.4155 3.73662 5
    endloop
  endfacet
  facet normal -0.368758 -0.929526 0
    outer loop
      vertex -9.4155 3.73662 0
      vertex -8.34983 3.31385 0
      vertex -8.34983 3.31385 5
    endloop
  endfacet
  facet normal -0.368758 -0.929526 0
    outer loop
      vertex -9.4155 3.73662 5
      vertex -9.4155 3.73662 0
      vertex -8.34983 3.31385 5
    endloop
  endfacet
  facet normal -0.965926 0.25882 0
    outer loop
      vertex -8.88802 1.30528 5
      vertex -8.34983 3.31385 5
      vertex -8.88802 1.30528 0
    endloop
  endfacet
  facet normal -0.965926 0.25882 0
    outer loop
      vertex -8.88802 1.30528 0
      vertex -8.34983 3.31385 5
      vertex -8.34983 3.31385 0
    endloop
  endfacet
  facet normal 0.145211 0.989401 0
    outer loop
      vertex -10.0226 1.47179 5
      vertex -8.88802 1.30528 5
      vertex -10.0226 1.47179 0
    endloop
  endfacet
  facet normal 0.145211 0.989401 0
    outer loop
      vertex -10.0226 1.47179 0
      vertex -8.88802 1.30528 5
      vertex -8.88802 1.30528 0
    endloop
  endfacet
  facet normal -0.0967021 0.995313 0
    outer loop
      vertex -10.6878 1.40716 5
      vertex -10.0226 1.47179 5
      vertex -10.6878 1.40716 0
    endloop
  endfacet
  facet normal -0.0967021 0.995313 0
    outer loop
      vertex -10.6878 1.40716 0
      vertex -10.0226 1.47179 5
      vertex -10.0226 1.47179 0
    endloop
  endfacet
  facet normal -0.412357 0.911022 0
    outer loop
      vertex -12.5645 0.557671 5
      vertex -10.6878 1.40716 5
      vertex -12.5645 0.557671 0
    endloop
  endfacet
  facet normal -0.412357 0.911022 0
    outer loop
      vertex -12.5645 0.557671 0
      vertex -10.6878 1.40716 5
      vertex -10.6878 1.40716 0
    endloop
  endfacet
endsolid OpenSCAD_Model
