solid OpenSCAD_Model
  facet normal -1 0 0
    outer loop
      vertex -6 -6 -1
      vertex -6 -6 1
      vertex -6 6 -1
    endloop
  endfacet
  facet normal -1 0 0
    outer loop
      vertex -6 6 -1
      vertex -6 -6 1
      vertex -6 6 1
    endloop
  endfacet
  facet normal 0 -1 0
    outer loop
      vertex -6 -6 1
      vertex -6 -6 -1
      vertex 6 -6 -1
    endloop
  endfacet
  facet normal 0 -1 0
    outer loop
      vertex 6 -6 1
      vertex -6 -6 1
      vertex 6 -6 -1
    endloop
  endfacet
  facet normal 0 0 -1
    outer loop
      vertex 0.80374 1.26649 -1
      vertex -6 6 -1
      vertex 6 6 -1
    endloop
  endfacet
  facet normal 0 0 -1
    outer loop
      vertex -6 -6 -1
      vertex -6 6 -1
      vertex -1.5 0 -1
    endloop
  endfacet
  facet normal 0 0 -1
    outer loop
      vertex -1.21352 0.881678 -1
      vertex -6 6 -1
      vertex -1.09345 1.02682 -1
    endloop
  endfacet
  facet normal 0 0 -1
    outer loop
      vertex -6 -6 -1
      vertex -1.5 0 -1
      vertex -1.48817 -0.188 -1
    endloop
  endfacet
  facet normal 0 0 -1
    outer loop
      vertex -6 -6 -1
      vertex -1.48817 -0.188 -1
      vertex -1.45287 -0.373035 -1
    endloop
  endfacet
  facet normal 0 0 -1
    outer loop
      vertex -6 -6 -1
      vertex -1.45287 -0.373035 -1
      vertex -1.39467 -0.552187 -1
    endloop
  endfacet
  facet normal 0 0 -1
    outer loop
      vertex -6 -6 -1
      vertex -1.39467 -0.552187 -1
      vertex -1.31446 -0.722631 -1
    endloop
  endfacet
  facet normal 0 0 -1
    outer loop
      vertex -6 -6 -1
      vertex -1.31446 -0.722631 -1
      vertex -1.21352 -0.881678 -1
    endloop
  endfacet
  facet normal 0 0 -1
    outer loop
      vertex -6 -6 -1
      vertex -1.21352 -0.881678 -1
      vertex -1.09345 -1.02682 -1
    endloop
  endfacet
  facet normal 0 0 -1
    outer loop
      vertex -6 -6 -1
      vertex -1.09345 -1.02682 -1
      vertex -0.956136 -1.15577 -1
    endloop
  endfacet
  facet normal 0 0 -1
    outer loop
      vertex -6 -6 -1
      vertex -0.956136 -1.15577 -1
      vertex -0.80374 -1.26649 -1
    endloop
  endfacet
  facet normal 0 0 -1
    outer loop
      vertex -6 -6 -1
      vertex -0.80374 -1.26649 -1
      vertex 6 -6 -1
    endloop
  endfacet
  facet normal 0 0 -1
    outer loop
      vertex -0.463525 -1.42658 -1
      vertex 6 -6 -1
      vertex -0.638669 -1.35724 -1
    endloop
  endfacet
  facet normal 0 0 -1
    outer loop
      vertex -0.281072 -1.47343 -1
      vertex 6 -6 -1
      vertex -0.463525 -1.42658 -1
    endloop
  endfacet
  facet normal 0 0 -1
    outer loop
      vertex -0.094186 -1.49704 -1
      vertex 6 -6 -1
      vertex -0.281072 -1.47343 -1
    endloop
  endfacet
  facet normal 0 0 -1
    outer loop
      vertex 0.094186 -1.49704 -1
      vertex 6 -6 -1
      vertex -0.094186 -1.49704 -1
    endloop
  endfacet
  facet normal 0 0 -1
    outer loop
      vertex 0.281072 -1.47343 -1
      vertex 6 -6 -1
      vertex 0.094186 -1.49704 -1
    endloop
  endfacet
  facet normal 0 0 -1
    outer loop
      vertex 0.463525 -1.42658 -1
      vertex 6 -6 -1
      vertex 0.281072 -1.47343 -1
    endloop
  endfacet
  facet normal 0 0 -1
    outer loop
      vertex 1.09345 -1.02682 -1
      vertex 6 -6 -1
      vertex 0.956136 -1.15577 -1
    endloop
  endfacet
  facet normal 0 0 -1
    outer loop
      vertex -1.39467 0.552187 -1
      vertex -6 6 -1
      vertex -1.31446 0.722631 -1
    endloop
  endfacet
  facet normal 0 0 -1
    outer loop
      vertex 0.463525 -1.42658 -1
      vertex 0.638669 -1.35724 -1
      vertex 6 -6 -1
    endloop
  endfacet
  facet normal 0 0 -1
    outer loop
      vertex -1.31446 0.722631 -1
      vertex -6 6 -1
      vertex -1.21352 0.881678 -1
    endloop
  endfacet
  facet normal 0 0 -1
    outer loop
      vertex 0.638669 -1.35724 -1
      vertex 0.80374 -1.26649 -1
      vertex 6 -6 -1
    endloop
  endfacet
  facet normal 0 0 -1
    outer loop
      vertex 0.80374 -1.26649 -1
      vertex 0.956136 -1.15577 -1
      vertex 6 -6 -1
    endloop
  endfacet
  facet normal 0 0 -1
    outer loop
      vertex 1.39467 -0.552187 -1
      vertex 6 6 -1
      vertex 1.31446 -0.722631 -1
    endloop
  endfacet
  facet normal 0 0 -1
    outer loop
      vertex 6 -6 -1
      vertex 1.09345 -1.02682 -1
      vertex 1.21352 -0.881678 -1
    endloop
  endfacet
  facet normal 0 0 -1
    outer loop
      vertex 6 -6 -1
      vertex 1.21352 -0.881678 -1
      vertex 6 6 -1
    endloop
  endfacet
  facet normal 0 0 -1
    outer loop
      vertex 1.21352 -0.881678 -1
      vertex 1.31446 -0.722631 -1
      vertex 6 6 -1
    endloop
  endfacet
  facet normal 0 0 -1
    outer loop
      vertex -1.09345 1.02682 -1
      vertex -6 6 -1
      vertex -0.956136 1.15577 -1
    endloop
  endfacet
  facet normal 0 0 -1
    outer loop
      vertex 0.638669 1.35724 -1
      vertex -6 6 -1
      vertex 0.80374 1.26649 -1
    endloop
  endfacet
  facet normal 0 0 -1
    outer loop
      vertex -0.80374 1.26649 -1
      vertex -6 6 -1
      vertex -0.638669 1.35724 -1
    endloop
  endfacet
  facet normal 0 0 -1
    outer loop
      vertex 1.39467 -0.552187 -1
      vertex 1.45287 -0.373035 -1
      vertex 6 6 -1
    endloop
  endfacet
  facet normal 0 0 -1
    outer loop
      vertex 1.45287 -0.373035 -1
      vertex 1.48817 -0.188 -1
      vertex 6 6 -1
    endloop
  endfacet
  facet normal 0 0 -1
    outer loop
      vertex -0.638669 1.35724 -1
      vertex -6 6 -1
      vertex -0.463525 1.42658 -1
    endloop
  endfacet
  facet normal 0 0 -1
    outer loop
      vertex 1.48817 -0.188 -1
      vertex 1.5 0 -1
      vertex 6 6 -1
    endloop
  endfacet
  facet normal 0 0 -1
    outer loop
      vertex -0.463525 1.42658 -1
      vertex -6 6 -1
      vertex -0.281072 1.47343 -1
    endloop
  endfacet
  facet normal 0 0 -1
    outer loop
      vertex 1.5 0 -1
      vertex 1.48817 0.188 -1
      vertex 6 6 -1
    endloop
  endfacet
  facet normal 0 0 -1
    outer loop
      vertex -0.281072 1.47343 -1
      vertex -6 6 -1
      vertex -0.094186 1.49704 -1
    endloop
  endfacet
  facet normal 0 0 -1
    outer loop
      vertex 1.48817 0.188 -1
      vertex 1.45287 0.373035 -1
      vertex 6 6 -1
    endloop
  endfacet
  facet normal 0 0 -1
    outer loop
      vertex -0.094186 1.49704 -1
      vertex -6 6 -1
      vertex 0.094186 1.49704 -1
    endloop
  endfacet
  facet normal 0 0 -1
    outer loop
      vertex 1.45287 0.373035 -1
      vertex 1.39467 0.552187 -1
      vertex 6 6 -1
    endloop
  endfacet
  facet normal 0 0 -1
    outer loop
      vertex 1.39467 0.552187 -1
      vertex 1.31446 0.722631 -1
      vertex 6 6 -1
    endloop
  endfacet
  facet normal 0 0 -1
    outer loop
      vertex 0.094186 1.49704 -1
      vertex -6 6 -1
      vertex 0.281072 1.47343 -1
    endloop
  endfacet
  facet normal 0 0 -1
    outer loop
      vertex 1.31446 0.722631 -1
      vertex 1.21352 0.881678 -1
      vertex 6 6 -1
    endloop
  endfacet
  facet normal 0 0 -1
    outer loop
      vertex 0.281072 1.47343 -1
      vertex -6 6 -1
      vertex 0.463525 1.42658 -1
    endloop
  endfacet
  facet normal 0 0 -1
    outer loop
      vertex 1.21352 0.881678 -1
      vertex 1.09345 1.02682 -1
      vertex 6 6 -1
    endloop
  endfacet
  facet normal 0 0 -1
    outer loop
      vertex 0.463525 1.42658 -1
      vertex -6 6 -1
      vertex 0.638669 1.35724 -1
    endloop
  endfacet
  facet normal 0 0 -1
    outer loop
      vertex 1.09345 1.02682 -1
      vertex 0.956136 1.15577 -1
      vertex 6 6 -1
    endloop
  endfacet
  facet normal 0 0 -1
    outer loop
      vertex 0.956136 1.15577 -1
      vertex 0.80374 1.26649 -1
      vertex 6 6 -1
    endloop
  endfacet
  facet normal 0 0 -1
    outer loop
      vertex -0.956136 1.15577 -1
      vertex -6 6 -1
      vertex -0.80374 1.26649 -1
    endloop
  endfacet
  facet normal 0 0 -1
    outer loop
      vertex -1.45287 0.373035 -1
      vertex -6 6 -1
      vertex -1.39467 0.552187 -1
    endloop
  endfacet
  facet normal 0 0 -1
    outer loop
      vertex -1.48817 0.188 -1
      vertex -6 6 -1
      vertex -1.45287 0.373035 -1
    endloop
  endfacet
  facet normal 0 0 -1
    outer loop
      vertex -1.5 0 -1
      vertex -6 6 -1
      vertex -1.48817 0.188 -1
    endloop
  endfacet
  facet normal 0 0 -1
    outer loop
      vertex -0.638669 -1.35724 -1
      vertex 6 -6 -1
      vertex -0.80374 -1.26649 -1
    endloop
  endfacet
  facet normal 0 1 0
    outer loop
      vertex -6 6 -1
      vertex -6 6 1
      vertex 6 6 -1
    endloop
  endfacet
  facet normal 0 1 0
    outer loop
      vertex 6 6 -1
      vertex -6 6 1
      vertex 6 6 1
    endloop
  endfacet
  facet normal 0 0 1
    outer loop
      vertex 0.094186 -1.49704 1
      vertex -6 -6 1
      vertex 6 -6 1
    endloop
  endfacet
  facet normal 0 0 1
    outer loop
      vertex -0.80374 1.26649 1
      vertex -0.638669 1.35724 1
      vertex 6 6 1
    endloop
  endfacet
  facet normal 0 0 1
    outer loop
      vertex -6 6 1
      vertex -6 -6 1
      vertex -1.48817 -0.188 1
    endloop
  endfacet
  facet normal 0 0 1
    outer loop
      vertex 0.281072 -1.47343 1
      vertex 0.094186 -1.49704 1
      vertex 6 -6 1
    endloop
  endfacet
  facet normal 0 0 1
    outer loop
      vertex -6 6 1
      vertex -1.48817 -0.188 1
      vertex -1.5 0 1
    endloop
  endfacet
  facet normal 0 0 1
    outer loop
      vertex 0.463525 -1.42658 1
      vertex 0.281072 -1.47343 1
      vertex 6 -6 1
    endloop
  endfacet
  facet normal 0 0 1
    outer loop
      vertex -6 6 1
      vertex -1.5 0 1
      vertex -1.48817 0.188 1
    endloop
  endfacet
  facet normal 0 0 1
    outer loop
      vertex -6 6 1
      vertex -1.48817 0.188 1
      vertex -1.45287 0.373035 1
    endloop
  endfacet
  facet normal 0 0 1
    outer loop
      vertex -6 6 1
      vertex -1.45287 0.373035 1
      vertex -1.39467 0.552187 1
    endloop
  endfacet
  facet normal 0 0 1
    outer loop
      vertex 0.80374 -1.26649 1
      vertex 0.638669 -1.35724 1
      vertex 6 -6 1
    endloop
  endfacet
  facet normal 0 0 1
    outer loop
      vertex -6 6 1
      vertex -1.39467 0.552187 1
      vertex -1.31446 0.722631 1
    endloop
  endfacet
  facet normal 0 0 1
    outer loop
      vertex 0.638669 -1.35724 1
      vertex 0.463525 -1.42658 1
      vertex 6 -6 1
    endloop
  endfacet
  facet normal 0 0 1
    outer loop
      vertex -6 6 1
      vertex -1.31446 0.722631 1
      vertex -1.21352 0.881678 1
    endloop
  endfacet
  facet normal 0 0 1
    outer loop
      vertex 1.45287 0.373035 1
      vertex 1.48817 0.188 1
      vertex 6 -6 1
    endloop
  endfacet
  facet normal 0 0 1
    outer loop
      vertex -6 6 1
      vertex -1.21352 0.881678 1
      vertex -1.09345 1.02682 1
    endloop
  endfacet
  facet normal 0 0 1
    outer loop
      vertex 1.09345 -1.02682 1
      vertex 0.956136 -1.15577 1
      vertex 6 -6 1
    endloop
  endfacet
  facet normal 0 0 1
    outer loop
      vertex -0.80374 1.26649 1
      vertex -6 6 1
      vertex -0.956136 1.15577 1
    endloop
  endfacet
  facet normal 0 0 1
    outer loop
      vertex 1.31446 0.722631 1
      vertex 1.39467 0.552187 1
      vertex 6 -6 1
    endloop
  endfacet
  facet normal 0 0 1
    outer loop
      vertex 6 6 1
      vertex -6 6 1
      vertex -0.80374 1.26649 1
    endloop
  endfacet
  facet normal 0 0 1
    outer loop
      vertex 1.21352 -0.881678 1
      vertex 1.09345 -1.02682 1
      vertex 6 -6 1
    endloop
  endfacet
  facet normal 0 0 1
    outer loop
      vertex 1.31446 -0.722631 1
      vertex 1.21352 -0.881678 1
      vertex 6 -6 1
    endloop
  endfacet
  facet normal 0 0 1
    outer loop
      vertex 6 6 1
      vertex -0.638669 1.35724 1
      vertex -0.463525 1.42658 1
    endloop
  endfacet
  facet normal 0 0 1
    outer loop
      vertex 1.39467 -0.552187 1
      vertex 1.31446 -0.722631 1
      vertex 6 -6 1
    endloop
  endfacet
  facet normal 0 0 1
    outer loop
      vertex 6 6 1
      vertex -0.463525 1.42658 1
      vertex -0.281072 1.47343 1
    endloop
  endfacet
  facet normal 0 0 1
    outer loop
      vertex 0.956136 -1.15577 1
      vertex 0.80374 -1.26649 1
      vertex 6 -6 1
    endloop
  endfacet
  facet normal 0 0 1
    outer loop
      vertex 6 6 1
      vertex -0.281072 1.47343 1
      vertex -0.094186 1.49704 1
    endloop
  endfacet
  facet normal 0 0 1
    outer loop
      vertex 6 6 1
      vertex -0.094186 1.49704 1
      vertex 0.094186 1.49704 1
    endloop
  endfacet
  facet normal 0 0 1
    outer loop
      vertex 1.48817 -0.188 1
      vertex 1.45287 -0.373035 1
      vertex 6 -6 1
    endloop
  endfacet
  facet normal 0 0 1
    outer loop
      vertex 6 6 1
      vertex 0.094186 1.49704 1
      vertex 0.281072 1.47343 1
    endloop
  endfacet
  facet normal 0 0 1
    outer loop
      vertex 1.5 0 1
      vertex 1.48817 -0.188 1
      vertex 6 -6 1
    endloop
  endfacet
  facet normal 0 0 1
    outer loop
      vertex 6 6 1
      vertex 0.281072 1.47343 1
      vertex 0.463525 1.42658 1
    endloop
  endfacet
  facet normal 0 0 1
    outer loop
      vertex 1.48817 0.188 1
      vertex 1.5 0 1
      vertex 6 -6 1
    endloop
  endfacet
  facet normal 0 0 1
    outer loop
      vertex 6 6 1
      vertex 0.463525 1.42658 1
      vertex 0.638669 1.35724 1
    endloop
  endfacet
  facet normal 0 0 1
    outer loop
      vertex 1.45287 -0.373035 1
      vertex 1.39467 -0.552187 1
      vertex 6 -6 1
    endloop
  endfacet
  facet normal 0 0 1
    outer loop
      vertex 6 6 1
      vertex 0.638669 1.35724 1
      vertex 0.80374 1.26649 1
    endloop
  endfacet
  facet normal 0 0 1
    outer loop
      vertex 6 6 1
      vertex 0.80374 1.26649 1
      vertex 0.956136 1.15577 1
    endloop
  endfacet
  facet normal 0 0 1
    outer loop
      vertex 1.39467 0.552187 1
      vertex 1.45287 0.373035 1
      vertex 6 -6 1
    endloop
  endfacet
  facet normal 0 0 1
    outer loop
      vertex 6 6 1
      vertex 0.956136 1.15577 1
      vertex 1.09345 1.02682 1
    endloop
  endfacet
  facet normal 0 0 1
    outer loop
      vertex 6 6 1
      vertex 1.21352 0.881678 1
      vertex 6 -6 1
    endloop
  endfacet
  facet normal 0 0 1
    outer loop
      vertex 6 6 1
      vertex 1.09345 1.02682 1
      vertex 1.21352 0.881678 1
    endloop
  endfacet
  facet normal 0 0 1
    outer loop
      vertex 1.21352 0.881678 1
      vertex 1.31446 0.722631 1
      vertex 6 -6 1
    endloop
  endfacet
  facet normal 0 0 1
    outer loop
      vertex -0.094186 -1.49704 1
      vertex -6 -6 1
      vertex 0.094186 -1.49704 1
    endloop
  endfacet
  facet normal 0 0 1
    outer loop
      vertex -0.281072 -1.47343 1
      vertex -6 -6 1
      vertex -0.094186 -1.49704 1
    endloop
  endfacet
  facet normal 0 0 1
    outer loop
      vertex -0.463525 -1.42658 1
      vertex -6 -6 1
      vertex -0.281072 -1.47343 1
    endloop
  endfacet
  facet normal 0 0 1
    outer loop
      vertex -0.638669 -1.35724 1
      vertex -6 -6 1
      vertex -0.463525 -1.42658 1
    endloop
  endfacet
  facet normal 0 0 1
    outer loop
      vertex -0.80374 -1.26649 1
      vertex -6 -6 1
      vertex -0.638669 -1.35724 1
    endloop
  endfacet
  facet normal 0 0 1
    outer loop
      vertex -0.956136 -1.15577 1
      vertex -6 -6 1
      vertex -0.80374 -1.26649 1
    endloop
  endfacet
  facet normal 0 0 1
    outer loop
      vertex -1.09345 -1.02682 1
      vertex -6 -6 1
      vertex -0.956136 -1.15577 1
    endloop
  endfacet
  facet normal 0 0 1
    outer loop
      vertex -1.21352 -0.881678 1
      vertex -6 -6 1
      vertex -1.09345 -1.02682 1
    endloop
  endfacet
  facet normal 0 0 1
    outer loop
      vertex -1.31446 -0.722631 1
      vertex -6 -6 1
      vertex -1.21352 -0.881678 1
    endloop
  endfacet
  facet normal 0 0 1
    outer loop
      vertex -1.39467 -0.552187 1
      vertex -6 -6 1
      vertex -1.31446 -0.722631 1
    endloop
  endfacet
  facet normal 0 0 1
    outer loop
      vertex -1.45287 -0.373035 1
      vertex -6 -6 1
      vertex -1.39467 -0.552187 1
    endloop
  endfacet
  facet normal 0 0 1
    outer loop
      vertex -1.48817 -0.188 1
      vertex -6 -6 1
      vertex -1.45287 -0.373035 1
    endloop
  endfacet
  facet normal 0 0 1
    outer loop
      vertex -1.09345 1.02682 1
      vertex -0.956136 1.15577 1
      vertex -6 6 1
    endloop
  endfacet
  facet normal 1 0 0
    outer loop
      vertex 6 -6 1
      vertex 6 -6 -1
      vertex 6 6 -1
    endloop
  endfacet
  facet normal 1 0 0
    outer loop
      vertex 6 6 1
      vertex 6 -6 1
      vertex 6 6 -1
    endloop
  endfacet
  facet normal 0.998027 -0.0627907 0
    outer loop
      vertex -1.48817 0.188 -1
      vertex -1.48817 0.188 1
      vertex -1.5 0 1
    endloop
  endfacet
  facet normal 0.998027 -0.0627907 0
    outer loop
      vertex -1.5 0 -1
      vertex -1.48817 0.188 -1
      vertex -1.5 0 1
    endloop
  endfacet
  facet normal 0.998027 0.0627907 0
    outer loop
      vertex -1.5 0 1
      vertex -1.48817 -0.188 1
      vertex -1.48817 -0.188 -1
    endloop
  endfacet
  facet normal 0.998027 0.0627907 0
    outer loop
      vertex -1.5 0 -1
      vertex -1.5 0 1
      vertex -1.48817 -0.188 -1
    endloop
  endfacet
  facet normal 0.982288 -0.18738 0
    outer loop
      vertex -1.45287 0.373035 -1
      vertex -1.45287 0.373035 1
      vertex -1.48817 0.188 1
    endloop
  endfacet
  facet normal 0.982288 -0.18738 0
    outer loop
      vertex -1.48817 0.188 -1
      vertex -1.45287 0.373035 -1
      vertex -1.48817 0.188 1
    endloop
  endfacet
  facet normal 0.951057 -0.309017 0
    outer loop
      vertex -1.39467 0.552187 -1
      vertex -1.39467 0.552187 1
      vertex -1.45287 0.373035 1
    endloop
  endfacet
  facet normal 0.951057 -0.309017 0
    outer loop
      vertex -1.45287 0.373035 -1
      vertex -1.39467 0.552187 -1
      vertex -1.45287 0.373035 1
    endloop
  endfacet
  facet normal 0.904827 -0.42578 0
    outer loop
      vertex -1.31446 0.722631 -1
      vertex -1.31446 0.722631 1
      vertex -1.39467 0.552187 1
    endloop
  endfacet
  facet normal 0.904827 -0.42578 0
    outer loop
      vertex -1.39467 0.552187 -1
      vertex -1.31446 0.722631 -1
      vertex -1.39467 0.552187 1
    endloop
  endfacet
  facet normal 0.844326 -0.535829 0
    outer loop
      vertex -1.21352 0.881678 -1
      vertex -1.21352 0.881678 1
      vertex -1.31446 0.722631 1
    endloop
  endfacet
  facet normal 0.844326 -0.535829 0
    outer loop
      vertex -1.31446 0.722631 -1
      vertex -1.21352 0.881678 -1
      vertex -1.31446 0.722631 1
    endloop
  endfacet
  facet normal 0.770515 -0.637422 0
    outer loop
      vertex -1.09345 1.02682 -1
      vertex -1.09345 1.02682 1
      vertex -1.21352 0.881678 1
    endloop
  endfacet
  facet normal 0.770515 -0.637422 0
    outer loop
      vertex -1.21352 0.881678 -1
      vertex -1.09345 1.02682 -1
      vertex -1.21352 0.881678 1
    endloop
  endfacet
  facet normal 0.684546 -0.728969 0
    outer loop
      vertex -0.956136 1.15577 -1
      vertex -0.956136 1.15577 1
      vertex -1.09345 1.02682 1
    endloop
  endfacet
  facet normal 0.684546 -0.728969 0
    outer loop
      vertex -1.09345 1.02682 -1
      vertex -0.956136 1.15577 -1
      vertex -1.09345 1.02682 1
    endloop
  endfacet
  facet normal 0.587785 -0.809017 0
    outer loop
      vertex -0.80374 1.26649 -1
      vertex -0.80374 1.26649 1
      vertex -0.956136 1.15577 1
    endloop
  endfacet
  facet normal 0.587785 -0.809017 0
    outer loop
      vertex -0.956136 1.15577 -1
      vertex -0.80374 1.26649 -1
      vertex -0.956136 1.15577 1
    endloop
  endfacet
  facet normal 0.481756 -0.876306 0
    outer loop
      vertex -0.638669 1.35724 -1
      vertex -0.638669 1.35724 1
      vertex -0.80374 1.26649 1
    endloop
  endfacet
  facet normal 0.481756 -0.876306 0
    outer loop
      vertex -0.80374 1.26649 -1
      vertex -0.638669 1.35724 -1
      vertex -0.80374 1.26649 1
    endloop
  endfacet
  facet normal 0.368123 -0.929777 0
    outer loop
      vertex -0.463525 1.42658 -1
      vertex -0.463525 1.42658 1
      vertex -0.638669 1.35724 1
    endloop
  endfacet
  facet normal 0.368123 -0.929777 0
    outer loop
      vertex -0.638669 1.35724 -1
      vertex -0.463525 1.42658 -1
      vertex -0.638669 1.35724 1
    endloop
  endfacet
  facet normal 0.24869 -0.968583 0
    outer loop
      vertex -0.281072 1.47343 -1
      vertex -0.281072 1.47343 1
      vertex -0.463525 1.42658 1
    endloop
  endfacet
  facet normal 0.24869 -0.968583 0
    outer loop
      vertex -0.463525 1.42658 -1
      vertex -0.281072 1.47343 -1
      vertex -0.463525 1.42658 1
    endloop
  endfacet
  facet normal 0.125332 -0.992115 0
    outer loop
      vertex -0.094186 1.49704 -1
      vertex -0.094186 1.49704 1
      vertex -0.281072 1.47343 1
    endloop
  endfacet
  facet normal 0.125332 -0.992115 0
    outer loop
      vertex -0.281072 1.47343 -1
      vertex -0.094186 1.49704 -1
      vertex -0.281072 1.47343 1
    endloop
  endfacet
  facet normal 0 -1 0
    outer loop
      vertex 0.094186 1.49704 -1
      vertex 0.094186 1.49704 1
      vertex -0.094186 1.49704 1
    endloop
  endfacet
  facet normal 0 -1 0
    outer loop
      vertex -0.094186 1.49704 -1
      vertex 0.094186 1.49704 -1
      vertex -0.094186 1.49704 1
    endloop
  endfacet
  facet normal -0.125332 -0.992115 0
    outer loop
      vertex 0.281072 1.47343 -1
      vertex 0.281072 1.47343 1
      vertex 0.094186 1.49704 1
    endloop
  endfacet
  facet normal -0.125332 -0.992115 0
    outer loop
      vertex 0.094186 1.49704 -1
      vertex 0.281072 1.47343 -1
      vertex 0.094186 1.49704 1
    endloop
  endfacet
  facet normal -0.24869 -0.968583 0
    outer loop
      vertex 0.463525 1.42658 -1
      vertex 0.463525 1.42658 1
      vertex 0.281072 1.47343 1
    endloop
  endfacet
  facet normal -0.24869 -0.968583 0
    outer loop
      vertex 0.281072 1.47343 -1
      vertex 0.463525 1.42658 -1
      vertex 0.281072 1.47343 1
    endloop
  endfacet
  facet normal -0.368123 -0.929777 0
    outer loop
      vertex 0.638669 1.35724 -1
      vertex 0.638669 1.35724 1
      vertex 0.463525 1.42658 1
    endloop
  endfacet
  facet normal -0.368123 -0.929777 0
    outer loop
      vertex 0.463525 1.42658 -1
      vertex 0.638669 1.35724 -1
      vertex 0.463525 1.42658 1
    endloop
  endfacet
  facet normal -0.481756 -0.876306 0
    outer loop
      vertex 0.80374 1.26649 -1
      vertex 0.80374 1.26649 1
      vertex 0.638669 1.35724 1
    endloop
  endfacet
  facet normal -0.481756 -0.876306 0
    outer loop
      vertex 0.638669 1.35724 -1
      vertex 0.80374 1.26649 -1
      vertex 0.638669 1.35724 1
    endloop
  endfacet
  facet normal -0.587785 -0.809017 0
    outer loop
      vertex 0.956136 1.15577 -1
      vertex 0.956136 1.15577 1
      vertex 0.80374 1.26649 1
    endloop
  endfacet
  facet normal -0.587785 -0.809017 0
    outer loop
      vertex 0.80374 1.26649 -1
      vertex 0.956136 1.15577 -1
      vertex 0.80374 1.26649 1
    endloop
  endfacet
  facet normal -0.684546 -0.728969 0
    outer loop
      vertex 1.09345 1.02682 -1
      vertex 1.09345 1.02682 1
      vertex 0.956136 1.15577 1
    endloop
  endfacet
  facet normal -0.684546 -0.728969 0
    outer loop
      vertex 0.956136 1.15577 -1
      vertex 1.09345 1.02682 -1
      vertex 0.956136 1.15577 1
    endloop
  endfacet
  facet normal -0.770515 -0.637422 0
    outer loop
      vertex 1.21352 0.881678 1
      vertex 1.09345 1.02682 1
      vertex 1.21352 0.881678 -1
    endloop
  endfacet
  facet normal -0.770515 -0.637422 0
    outer loop
      vertex 1.21352 0.881678 -1
      vertex 1.09345 1.02682 1
      vertex 1.09345 1.02682 -1
    endloop
  endfacet
  facet normal -0.844326 -0.535829 0
    outer loop
      vertex 1.31446 0.722631 1
      vertex 1.21352 0.881678 1
      vertex 1.31446 0.722631 -1
    endloop
  endfacet
  facet normal -0.844326 -0.535829 0
    outer loop
      vertex 1.31446 0.722631 -1
      vertex 1.21352 0.881678 1
      vertex 1.21352 0.881678 -1
    endloop
  endfacet
  facet normal -0.904827 -0.42578 0
    outer loop
      vertex 1.39467 0.552187 1
      vertex 1.31446 0.722631 1
      vertex 1.39467 0.552187 -1
    endloop
  endfacet
  facet normal -0.904827 -0.42578 0
    outer loop
      vertex 1.39467 0.552187 -1
      vertex 1.31446 0.722631 1
      vertex 1.31446 0.722631 -1
    endloop
  endfacet
  facet normal -0.951057 -0.309017 0
    outer loop
      vertex 1.45287 0.373035 1
      vertex 1.39467 0.552187 1
      vertex 1.45287 0.373035 -1
    endloop
  endfacet
  facet normal -0.951057 -0.309017 0
    outer loop
      vertex 1.45287 0.373035 -1
      vertex 1.39467 0.552187 1
      vertex 1.39467 0.552187 -1
    endloop
  endfacet
  facet normal -0.982288 -0.18738 0
    outer loop
      vertex 1.48817 0.188 1
      vertex 1.45287 0.373035 1
      vertex 1.48817 0.188 -1
    endloop
  endfacet
  facet normal -0.982288 -0.18738 0
    outer loop
      vertex 1.48817 0.188 -1
      vertex 1.45287 0.373035 1
      vertex 1.45287 0.373035 -1
    endloop
  endfacet
  facet normal -0.998027 -0.0627907 0
    outer loop
      vertex 1.5 0 1
      vertex 1.48817 0.188 1
      vertex 1.5 0 -1
    endloop
  endfacet
  facet normal -0.998027 -0.0627907 0
    outer loop
      vertex 1.5 0 -1
      vertex 1.48817 0.188 1
      vertex 1.48817 0.188 -1
    endloop
  endfacet
  facet normal -0.998027 0.0627907 0
    outer loop
      vertex 1.5 0 1
      vertex 1.5 0 -1
      vertex 1.48817 -0.188 1
    endloop
  endfacet
  facet normal -0.998027 0.0627907 0
    outer loop
      vertex 1.48817 -0.188 1
      vertex 1.5 0 -1
      vertex 1.48817 -0.188 -1
    endloop
  endfacet
  facet normal -0.982288 0.18738 0
    outer loop
      vertex 1.48817 -0.188 1
      vertex 1.48817 -0.188 -1
      vertex 1.45287 -0.373035 1
    endloop
  endfacet
  facet normal -0.982288 0.18738 0
    outer loop
      vertex 1.45287 -0.373035 1
      vertex 1.48817 -0.188 -1
      vertex 1.45287 -0.373035 -1
    endloop
  endfacet
  facet normal -0.951057 0.309017 0
    outer loop
      vertex 1.45287 -0.373035 1
      vertex 1.45287 -0.373035 -1
      vertex 1.39467 -0.552187 1
    endloop
  endfacet
  facet normal -0.951057 0.309017 0
    outer loop
      vertex 1.39467 -0.552187 1
      vertex 1.45287 -0.373035 -1
      vertex 1.39467 -0.552187 -1
    endloop
  endfacet
  facet normal -0.904827 0.42578 0
    outer loop
      vertex 1.39467 -0.552187 1
      vertex 1.39467 -0.552187 -1
      vertex 1.31446 -0.722631 1
    endloop
  endfacet
  facet normal -0.904827 0.42578 0
    outer loop
      vertex 1.31446 -0.722631 1
      vertex 1.39467 -0.552187 -1
      vertex 1.31446 -0.722631 -1
    endloop
  endfacet
  facet normal -0.844326 0.535829 0
    outer loop
      vertex 1.31446 -0.722631 1
      vertex 1.31446 -0.722631 -1
      vertex 1.21352 -0.881678 1
    endloop
  endfacet
  facet normal -0.844326 0.535829 0
    outer loop
      vertex 1.21352 -0.881678 1
      vertex 1.31446 -0.722631 -1
      vertex 1.21352 -0.881678 -1
    endloop
  endfacet
  facet normal -0.770515 0.637422 0
    outer loop
      vertex 1.21352 -0.881678 1
      vertex 1.21352 -0.881678 -1
      vertex 1.09345 -1.02682 1
    endloop
  endfacet
  facet normal -0.770515 0.637422 0
    outer loop
      vertex 1.09345 -1.02682 1
      vertex 1.21352 -0.881678 -1
      vertex 1.09345 -1.02682 -1
    endloop
  endfacet
  facet normal -0.684546 0.728969 0
    outer loop
      vertex 1.09345 -1.02682 1
      vertex 1.09345 -1.02682 -1
      vertex 0.956136 -1.15577 1
    endloop
  endfacet
  facet normal -0.684546 0.728969 0
    outer loop
      vertex 0.956136 -1.15577 1
      vertex 1.09345 -1.02682 -1
      vertex 0.956136 -1.15577 -1
    endloop
  endfacet
  facet normal -0.587785 0.809017 0
    outer loop
      vertex 0.956136 -1.15577 1
      vertex 0.956136 -1.15577 -1
      vertex 0.80374 -1.26649 1
    endloop
  endfacet
  facet normal -0.587785 0.809017 0
    outer loop
      vertex 0.80374 -1.26649 1
      vertex 0.956136 -1.15577 -1
      vertex 0.80374 -1.26649 -1
    endloop
  endfacet
  facet normal -0.481756 0.876306 0
    outer loop
      vertex 0.80374 -1.26649 1
      vertex 0.80374 -1.26649 -1
      vertex 0.638669 -1.35724 1
    endloop
  endfacet
  facet normal -0.481756 0.876306 0
    outer loop
      vertex 0.638669 -1.35724 1
      vertex 0.80374 -1.26649 -1
      vertex 0.638669 -1.35724 -1
    endloop
  endfacet
  facet normal -0.368123 0.929777 0
    outer loop
      vertex 0.638669 -1.35724 1
      vertex 0.638669 -1.35724 -1
      vertex 0.463525 -1.42658 1
    endloop
  endfacet
  facet normal -0.368123 0.929777 0
    outer loop
      vertex 0.463525 -1.42658 1
      vertex 0.638669 -1.35724 -1
      vertex 0.463525 -1.42658 -1
    endloop
  endfacet
  facet normal -0.24869 0.968583 0
    outer loop
      vertex 0.463525 -1.42658 1
      vertex 0.463525 -1.42658 -1
      vertex 0.281072 -1.47343 1
    endloop
  endfacet
  facet normal -0.24869 0.968583 0
    outer loop
      vertex 0.281072 -1.47343 1
      vertex 0.463525 -1.42658 -1
      vertex 0.281072 -1.47343 -1
    endloop
  endfacet
  facet normal -0.125332 0.992115 0
    outer loop
      vertex 0.281072 -1.47343 1
      vertex 0.281072 -1.47343 -1
      vertex 0.094186 -1.49704 1
    endloop
  endfacet
  facet normal -0.125332 0.992115 0
    outer loop
      vertex 0.094186 -1.49704 1
      vertex 0.281072 -1.47343 -1
      vertex 0.094186 -1.49704 -1
    endloop
  endfacet
  facet normal 0 1 0
    outer loop
      vertex 0.094186 -1.49704 1
      vertex 0.094186 -1.49704 -1
      vertex -0.094186 -1.49704 1
    endloop
  endfacet
  facet normal 0 1 0
    outer loop
      vertex -0.094186 -1.49704 1
      vertex 0.094186 -1.49704 -1
      vertex -0.094186 -1.49704 -1
    endloop
  endfacet
  facet normal 0.125332 0.992115 0
    outer loop
      vertex -0.094186 -1.49704 1
      vertex -0.094186 -1.49704 -1
      vertex -0.281072 -1.47343 1
    endloop
  endfacet
  facet normal 0.125332 0.992115 0
    outer loop
      vertex -0.281072 -1.47343 1
      vertex -0.094186 -1.49704 -1
      vertex -0.281072 -1.47343 -1
    endloop
  endfacet
  facet normal 0.24869 0.968583 0
    outer loop
      vertex -0.281072 -1.47343 1
      vertex -0.281072 -1.47343 -1
      vertex -0.463525 -1.42658 1
    endloop
  endfacet
  facet normal 0.24869 0.968583 0
    outer loop
      vertex -0.463525 -1.42658 1
      vertex -0.281072 -1.47343 -1
      vertex -0.463525 -1.42658 -1
    endloop
  endfacet
  facet normal 0.368123 0.929777 0
    outer loop
      vertex -0.463525 -1.42658 1
      vertex -0.463525 -1.42658 -1
      vertex -0.638669 -1.35724 1
    endloop
  endfacet
  facet normal 0.368123 0.929777 0
    outer loop
      vertex -0.638669 -1.35724 1
      vertex -0.463525 -1.42658 -1
      vertex -0.638669 -1.35724 -1
    endloop
  endfacet
  facet normal 0.481756 0.876306 0
    outer loop
      vertex -0.638669 -1.35724 1
      vertex -0.638669 -1.35724 -1
      vertex -0.80374 -1.26649 1
    endloop
  endfacet
  facet normal 0.481756 0.876306 0
    outer loop
      vertex -0.80374 -1.26649 1
      vertex -0.638669 -1.35724 -1
      vertex -0.80374 -1.26649 -1
    endloop
  endfacet
  facet normal 0.587785 0.809017 0
    outer loop
      vertex -0.80374 -1.26649 1
      vertex -0.80374 -1.26649 -1
      vertex -0.956136 -1.15577 1
    endloop
  endfacet
  facet normal 0.587785 0.809017 0
    outer loop
      vertex -0.956136 -1.15577 1
      vertex -0.80374 -1.26649 -1
      vertex -0.956136 -1.15577 -1
    endloop
  endfacet
  facet normal 0.684546 0.728969 0
    outer loop
      vertex -0.956136 -1.15577 1
      vertex -0.956136 -1.15577 -1
      vertex -1.09345 -1.02682 1
    endloop
  endfacet
  facet normal 0.684546 0.728969 0
    outer loop
      vertex -1.09345 -1.02682 1
      vertex -0.956136 -1.15577 -1
      vertex -1.09345 -1.02682 -1
    endloop
  endfacet
  facet normal 0.770515 0.637422 0
    outer loop
      vertex -1.21352 -0.881678 1
      vertex -1.09345 -1.02682 1
      vertex -1.09345 -1.02682 -1
    endloop
  endfacet
  facet normal 0.770515 0.637422 0
    outer loop
      vertex -1.21352 -0.881678 -1
      vertex -1.21352 -0.881678 1
      vertex -1.09345 -1.02682 -1
    endloop
  endfacet
  facet normal 0.844326 0.535829 0
    outer loop
      vertex -1.31446 -0.722631 1
      vertex -1.21352 -0.881678 1
      vertex -1.21352 -0.881678 -1
    endloop
  endfacet
  facet normal 0.844326 0.535829 0
    outer loop
      vertex -1.31446 -0.722631 -1
      vertex -1.31446 -0.722631 1
      vertex -1.21352 -0.881678 -1
    endloop
  endfacet
  facet normal 0.904827 0.42578 0
    outer loop
      vertex -1.39467 -0.552187 1
      vertex -1.31446 -0.722631 1
      vertex -1.31446 -0.722631 -1
    endloop
  endfacet
  facet normal 0.904827 0.42578 0
    outer loop
      vertex -1.39467 -0.552187 -1
      vertex -1.39467 -0.552187 1
      vertex -1.31446 -0.722631 -1
    endloop
  endfacet
  facet normal 0.951057 0.309017 0
    outer loop
      vertex -1.45287 -0.373035 1
      vertex -1.39467 -0.552187 1
      vertex -1.39467 -0.552187 -1
    endloop
  endfacet
  facet normal 0.951057 0.309017 0
    outer loop
      vertex -1.45287 -0.373035 -1
      vertex -1.45287 -0.373035 1
      vertex -1.39467 -0.552187 -1
    endloop
  endfacet
  facet normal 0.982288 0.18738 0
    outer loop
      vertex -1.48817 -0.188 1
      vertex -1.45287 -0.373035 1
      vertex -1.45287 -0.373035 -1
    endloop
  endfacet
  facet normal 0.982288 0.18738 0
    outer loop
      vertex -1.48817 -0.188 -1
      vertex -1.48817 -0.188 1
      vertex -1.45287 -0.373035 -1
    endloop
  endfacet
endsolid OpenSCAD_Model
