solid OpenSCAD_Model
  facet normal -1 0 0
    outer loop
      vertex -6 -6 -1
      vertex -6 -6 1
      vertex -6 6 -1
    endloop
  endfacet
  facet normal -1 0 0
    outer loop
      vertex -6 6 -1
      vertex -6 -6 1
      vertex -6 -3.25 1
    endloop
  endfacet
  facet normal -1 0 0
    outer loop
      vertex -6 6 -1
      vertex -6 -3.25 1
      vertex -6 -3.25 1.5
    endloop
  endfacet
  facet normal -1 0 0
    outer loop
      vertex -6 3.25 1
      vertex -6 -3.25 1.5
      vertex -6 3.25 1.5
    endloop
  endfacet
  facet normal -1 0 0
    outer loop
      vertex -6 6 -1
      vertex -6 -3.25 1.5
      vertex -6 3.25 1
    endloop
  endfacet
  facet normal -1 0 0
    outer loop
      vertex -6 6 1
      vertex -6 6 -1
      vertex -6 3.25 1
    endloop
  endfacet
  facet normal 0 -1 0
    outer loop
      vertex -6 -6 1
      vertex -6 -6 -1
      vertex 6 -6 -1
    endloop
  endfacet
  facet normal 0 -1 0
    outer loop
      vertex 6 -6 1
      vertex -6 -6 1
      vertex 6 -6 -1
    endloop
  endfacet
  facet normal 0 0 -1
    outer loop
      vertex 0.828651 1.00167 -1
      vertex -6 6 -1
      vertex 6 6 -1
    endloop
  endfacet
  facet normal 0 0 -1
    outer loop
      vertex -6 -6 -1
      vertex -6 6 -1
      vertex -1.3 0 -1
    endloop
  endfacet
  facet normal 0 0 -1
    outer loop
      vertex -1.05172 0.764121 -1
      vertex -6 6 -1
      vertex -0.947659 0.889911 -1
    endloop
  endfacet
  facet normal 0 0 -1
    outer loop
      vertex -6 -6 -1
      vertex -1.3 0 -1
      vertex -1.28975 -0.162933 -1
    endloop
  endfacet
  facet normal 0 0 -1
    outer loop
      vertex -6 -6 -1
      vertex -1.28975 -0.162933 -1
      vertex -1.25916 -0.323297 -1
    endloop
  endfacet
  facet normal 0 0 -1
    outer loop
      vertex -6 -6 -1
      vertex -1.25916 -0.323297 -1
      vertex -1.20871 -0.478562 -1
    endloop
  endfacet
  facet normal 0 0 -1
    outer loop
      vertex -6 -6 -1
      vertex -1.20871 -0.478562 -1
      vertex -1.1392 -0.62628 -1
    endloop
  endfacet
  facet normal 0 0 -1
    outer loop
      vertex -6 -6 -1
      vertex -1.1392 -0.62628 -1
      vertex -1.05172 -0.764121 -1
    endloop
  endfacet
  facet normal 0 0 -1
    outer loop
      vertex -6 -6 -1
      vertex -1.05172 -0.764121 -1
      vertex -0.947659 -0.889911 -1
    endloop
  endfacet
  facet normal 0 0 -1
    outer loop
      vertex -6 -6 -1
      vertex -0.947659 -0.889911 -1
      vertex -0.828651 -1.00167 -1
    endloop
  endfacet
  facet normal 0 0 -1
    outer loop
      vertex -6 -6 -1
      vertex -0.828651 -1.00167 -1
      vertex 6 -6 -1
    endloop
  endfacet
  facet normal 0 0 -1
    outer loop
      vertex -0.828651 -1.00167 -1
      vertex -0.696575 -1.09763 -1
      vertex 6 -6 -1
    endloop
  endfacet
  facet normal 0 0 -1
    outer loop
      vertex -0.401722 -1.23637 -1
      vertex 6 -6 -1
      vertex -0.553513 -1.17627 -1
    endloop
  endfacet
  facet normal 0 0 -1
    outer loop
      vertex -0.243596 -1.27697 -1
      vertex 6 -6 -1
      vertex -0.401722 -1.23637 -1
    endloop
  endfacet
  facet normal 0 0 -1
    outer loop
      vertex -0.081628 -1.29743 -1
      vertex 6 -6 -1
      vertex -0.243596 -1.27697 -1
    endloop
  endfacet
  facet normal 0 0 -1
    outer loop
      vertex 0.081628 -1.29743 -1
      vertex 6 -6 -1
      vertex -0.081628 -1.29743 -1
    endloop
  endfacet
  facet normal 0 0 -1
    outer loop
      vertex 0.243596 -1.27697 -1
      vertex 6 -6 -1
      vertex 0.081628 -1.29743 -1
    endloop
  endfacet
  facet normal 0 0 -1
    outer loop
      vertex 0.401722 -1.23637 -1
      vertex 6 -6 -1
      vertex 0.243596 -1.27697 -1
    endloop
  endfacet
  facet normal 0 0 -1
    outer loop
      vertex 0.947659 -0.889911 -1
      vertex 6 -6 -1
      vertex 0.828651 -1.00167 -1
    endloop
  endfacet
  facet normal 0 0 -1
    outer loop
      vertex -1.20871 0.478562 -1
      vertex -6 6 -1
      vertex -1.1392 0.62628 -1
    endloop
  endfacet
  facet normal 0 0 -1
    outer loop
      vertex 0.401722 -1.23637 -1
      vertex 0.553513 -1.17627 -1
      vertex 6 -6 -1
    endloop
  endfacet
  facet normal 0 0 -1
    outer loop
      vertex 0.553513 -1.17627 -1
      vertex 0.696575 -1.09763 -1
      vertex 6 -6 -1
    endloop
  endfacet
  facet normal 0 0 -1
    outer loop
      vertex -1.1392 0.62628 -1
      vertex -6 6 -1
      vertex -1.05172 0.764121 -1
    endloop
  endfacet
  facet normal 0 0 -1
    outer loop
      vertex 0.696575 -1.09763 -1
      vertex 0.828651 -1.00167 -1
      vertex 6 -6 -1
    endloop
  endfacet
  facet normal 0 0 -1
    outer loop
      vertex 1.1392 -0.62628 -1
      vertex 6 6 -1
      vertex 1.05172 -0.764121 -1
    endloop
  endfacet
  facet normal 0 0 -1
    outer loop
      vertex 6 -6 -1
      vertex 0.947659 -0.889911 -1
      vertex 1.05172 -0.764121 -1
    endloop
  endfacet
  facet normal 0 0 -1
    outer loop
      vertex 6 -6 -1
      vertex 1.05172 -0.764121 -1
      vertex 6 6 -1
    endloop
  endfacet
  facet normal 0 0 -1
    outer loop
      vertex -0.947659 0.889911 -1
      vertex -6 6 -1
      vertex -0.828651 1.00167 -1
    endloop
  endfacet
  facet normal 0 0 -1
    outer loop
      vertex 0.553513 1.17627 -1
      vertex -6 6 -1
      vertex 0.696575 1.09763 -1
    endloop
  endfacet
  facet normal 0 0 -1
    outer loop
      vertex -0.828651 1.00167 -1
      vertex -6 6 -1
      vertex -0.696575 1.09763 -1
    endloop
  endfacet
  facet normal 0 0 -1
    outer loop
      vertex 1.1392 -0.62628 -1
      vertex 1.20871 -0.478562 -1
      vertex 6 6 -1
    endloop
  endfacet
  facet normal 0 0 -1
    outer loop
      vertex -0.696575 1.09763 -1
      vertex -6 6 -1
      vertex -0.553513 1.17627 -1
    endloop
  endfacet
  facet normal 0 0 -1
    outer loop
      vertex 1.20871 -0.478562 -1
      vertex 1.25916 -0.323297 -1
      vertex 6 6 -1
    endloop
  endfacet
  facet normal 0 0 -1
    outer loop
      vertex -0.553513 1.17627 -1
      vertex -6 6 -1
      vertex -0.401722 1.23637 -1
    endloop
  endfacet
  facet normal 0 0 -1
    outer loop
      vertex 1.25916 -0.323297 -1
      vertex 1.28975 -0.162933 -1
      vertex 6 6 -1
    endloop
  endfacet
  facet normal 0 0 -1
    outer loop
      vertex 1.28975 -0.162933 -1
      vertex 1.3 0 -1
      vertex 6 6 -1
    endloop
  endfacet
  facet normal 0 0 -1
    outer loop
      vertex -0.401722 1.23637 -1
      vertex -6 6 -1
      vertex -0.243596 1.27697 -1
    endloop
  endfacet
  facet normal 0 0 -1
    outer loop
      vertex 1.3 0 -1
      vertex 1.28975 0.162933 -1
      vertex 6 6 -1
    endloop
  endfacet
  facet normal 0 0 -1
    outer loop
      vertex -0.243596 1.27697 -1
      vertex -6 6 -1
      vertex -0.081628 1.29743 -1
    endloop
  endfacet
  facet normal 0 0 -1
    outer loop
      vertex 1.28975 0.162933 -1
      vertex 1.25916 0.323297 -1
      vertex 6 6 -1
    endloop
  endfacet
  facet normal 0 0 -1
    outer loop
      vertex -0.081628 1.29743 -1
      vertex -6 6 -1
      vertex 0.081628 1.29743 -1
    endloop
  endfacet
  facet normal 0 0 -1
    outer loop
      vertex 1.25916 0.323297 -1
      vertex 1.20871 0.478562 -1
      vertex 6 6 -1
    endloop
  endfacet
  facet normal 0 0 -1
    outer loop
      vertex 0.081628 1.29743 -1
      vertex -6 6 -1
      vertex 0.243596 1.27697 -1
    endloop
  endfacet
  facet normal 0 0 -1
    outer loop
      vertex 1.20871 0.478562 -1
      vertex 1.1392 0.62628 -1
      vertex 6 6 -1
    endloop
  endfacet
  facet normal 0 0 -1
    outer loop
      vertex 0.243596 1.27697 -1
      vertex -6 6 -1
      vertex 0.401722 1.23637 -1
    endloop
  endfacet
  facet normal 0 0 -1
    outer loop
      vertex 1.1392 0.62628 -1
      vertex 1.05172 0.764121 -1
      vertex 6 6 -1
    endloop
  endfacet
  facet normal 0 0 -1
    outer loop
      vertex 0.401722 1.23637 -1
      vertex -6 6 -1
      vertex 0.553513 1.17627 -1
    endloop
  endfacet
  facet normal 0 0 -1
    outer loop
      vertex 1.05172 0.764121 -1
      vertex 0.947659 0.889911 -1
      vertex 6 6 -1
    endloop
  endfacet
  facet normal 0 0 -1
    outer loop
      vertex 0.696575 1.09763 -1
      vertex -6 6 -1
      vertex 0.828651 1.00167 -1
    endloop
  endfacet
  facet normal 0 0 -1
    outer loop
      vertex 0.947659 0.889911 -1
      vertex 0.828651 1.00167 -1
      vertex 6 6 -1
    endloop
  endfacet
  facet normal 0 0 -1
    outer loop
      vertex -1.25916 0.323297 -1
      vertex -6 6 -1
      vertex -1.20871 0.478562 -1
    endloop
  endfacet
  facet normal 0 0 -1
    outer loop
      vertex -1.28975 0.162933 -1
      vertex -6 6 -1
      vertex -1.25916 0.323297 -1
    endloop
  endfacet
  facet normal 0 0 -1
    outer loop
      vertex -1.3 0 -1
      vertex -6 6 -1
      vertex -1.28975 0.162933 -1
    endloop
  endfacet
  facet normal 0 0 -1
    outer loop
      vertex -0.553513 -1.17627 -1
      vertex 6 -6 -1
      vertex -0.696575 -1.09763 -1
    endloop
  endfacet
  facet normal 0 1 0
    outer loop
      vertex -6 6 -1
      vertex -6 6 1
      vertex 6 6 -1
    endloop
  endfacet
  facet normal 0 1 0
    outer loop
      vertex 6 6 -1
      vertex -6 6 1
      vertex 6 6 1
    endloop
  endfacet
  facet normal 0 0 1
    outer loop
      vertex -6 6 1
      vertex -6 3.25 1
      vertex 6 3.25 1
    endloop
  endfacet
  facet normal 0 0 1
    outer loop
      vertex 6 6 1
      vertex -6 6 1
      vertex 6 3.25 1
    endloop
  endfacet
  facet normal 0 1 0
    outer loop
      vertex -6 3.25 1
      vertex -6 3.25 1.5
      vertex 6 3.25 1
    endloop
  endfacet
  facet normal 0 1 0
    outer loop
      vertex 6 3.25 1
      vertex -6 3.25 1.5
      vertex 6 3.25 1.5
    endloop
  endfacet
  facet normal 0 0 1
    outer loop
      vertex 0.401722 -1.23637 1.5
      vertex -6 -3.25 1.5
      vertex 6 -3.25 1.5
    endloop
  endfacet
  facet normal 0 0 1
    outer loop
      vertex 0.243596 -1.27697 1.5
      vertex 0.081628 -1.29743 1.5
      vertex -6 -3.25 1.5
    endloop
  endfacet
  facet normal 0 0 1
    outer loop
      vertex -6 3.25 1.5
      vertex -6 -3.25 1.5
      vertex -1.28975 -0.162933 1.5
    endloop
  endfacet
  facet normal 0 0 1
    outer loop
      vertex 0.828651 -1.00167 1.5
      vertex 0.696575 -1.09763 1.5
      vertex 6 -3.25 1.5
    endloop
  endfacet
  facet normal 0 0 1
    outer loop
      vertex -6 3.25 1.5
      vertex -1.28975 -0.162933 1.5
      vertex -1.3 0 1.5
    endloop
  endfacet
  facet normal 0 0 1
    outer loop
      vertex 0.947659 -0.889911 1.5
      vertex 0.828651 -1.00167 1.5
      vertex 6 -3.25 1.5
    endloop
  endfacet
  facet normal 0 0 1
    outer loop
      vertex -6 3.25 1.5
      vertex -1.3 0 1.5
      vertex -1.28975 0.162933 1.5
    endloop
  endfacet
  facet normal 0 0 1
    outer loop
      vertex -6 3.25 1.5
      vertex -1.28975 0.162933 1.5
      vertex -1.25916 0.323297 1.5
    endloop
  endfacet
  facet normal 0 0 1
    outer loop
      vertex -6 3.25 1.5
      vertex -1.25916 0.323297 1.5
      vertex -1.20871 0.478562 1.5
    endloop
  endfacet
  facet normal 0 0 1
    outer loop
      vertex 1.1392 -0.62628 1.5
      vertex 1.05172 -0.764121 1.5
      vertex 6 -3.25 1.5
    endloop
  endfacet
  facet normal 0 0 1
    outer loop
      vertex -1.05172 0.764121 1.5
      vertex -6 3.25 1.5
      vertex -1.1392 0.62628 1.5
    endloop
  endfacet
  facet normal 0 0 1
    outer loop
      vertex -0.947659 0.889911 1.5
      vertex -6 3.25 1.5
      vertex -1.05172 0.764121 1.5
    endloop
  endfacet
  facet normal 0 0 1
    outer loop
      vertex -0.828651 1.00167 1.5
      vertex -6 3.25 1.5
      vertex -0.947659 0.889911 1.5
    endloop
  endfacet
  facet normal 0 0 1
    outer loop
      vertex -0.696575 1.09763 1.5
      vertex -6 3.25 1.5
      vertex -0.828651 1.00167 1.5
    endloop
  endfacet
  facet normal 0 0 1
    outer loop
      vertex 0.081628 1.29743 1.5
      vertex 0.243596 1.27697 1.5
      vertex 6 3.25 1.5
    endloop
  endfacet
  facet normal 0 0 1
    outer loop
      vertex -0.553513 1.17627 1.5
      vertex -6 3.25 1.5
      vertex -0.696575 1.09763 1.5
    endloop
  endfacet
  facet normal 0 0 1
    outer loop
      vertex -0.401722 1.23637 1.5
      vertex -6 3.25 1.5
      vertex -0.553513 1.17627 1.5
    endloop
  endfacet
  facet normal 0 0 1
    outer loop
      vertex 6 3.25 1.5
      vertex -6 3.25 1.5
      vertex -0.401722 1.23637 1.5
    endloop
  endfacet
  facet normal 0 0 1
    outer loop
      vertex 6 3.25 1.5
      vertex -0.401722 1.23637 1.5
      vertex -0.243596 1.27697 1.5
    endloop
  endfacet
  facet normal 0 0 1
    outer loop
      vertex 1.05172 -0.764121 1.5
      vertex 0.947659 -0.889911 1.5
      vertex 6 -3.25 1.5
    endloop
  endfacet
  facet normal 0 0 1
    outer loop
      vertex 0.243596 1.27697 1.5
      vertex 0.401722 1.23637 1.5
      vertex 6 3.25 1.5
    endloop
  endfacet
  facet normal 0 0 1
    outer loop
      vertex 0.401722 1.23637 1.5
      vertex 0.553513 1.17627 1.5
      vertex 6 3.25 1.5
    endloop
  endfacet
  facet normal 0 0 1
    outer loop
      vertex 0.828651 1.00167 1.5
      vertex 0.947659 0.889911 1.5
      vertex 6 -3.25 1.5
    endloop
  endfacet
  facet normal 0 0 1
    outer loop
      vertex 1.20871 -0.478562 1.5
      vertex 1.1392 -0.62628 1.5
      vertex 6 -3.25 1.5
    endloop
  endfacet
  facet normal 0 0 1
    outer loop
      vertex 0.947659 0.889911 1.5
      vertex 1.05172 0.764121 1.5
      vertex 6 -3.25 1.5
    endloop
  endfacet
  facet normal 0 0 1
    outer loop
      vertex 6 3.25 1.5
      vertex 0.553513 1.17627 1.5
      vertex 0.696575 1.09763 1.5
    endloop
  endfacet
  facet normal 0 0 1
    outer loop
      vertex 6 3.25 1.5
      vertex 0.828651 1.00167 1.5
      vertex 6 -3.25 1.5
    endloop
  endfacet
  facet normal 0 0 1
    outer loop
      vertex 6 3.25 1.5
      vertex 0.696575 1.09763 1.5
      vertex 0.828651 1.00167 1.5
    endloop
  endfacet
  facet normal 0 0 1
    outer loop
      vertex 1.05172 0.764121 1.5
      vertex 1.1392 0.62628 1.5
      vertex 6 -3.25 1.5
    endloop
  endfacet
  facet normal 0 0 1
    outer loop
      vertex 1.1392 0.62628 1.5
      vertex 1.20871 0.478562 1.5
      vertex 6 -3.25 1.5
    endloop
  endfacet
  facet normal 0 0 1
    outer loop
      vertex 1.20871 0.478562 1.5
      vertex 1.25916 0.323297 1.5
      vertex 6 -3.25 1.5
    endloop
  endfacet
  facet normal 0 0 1
    outer loop
      vertex 1.25916 0.323297 1.5
      vertex 1.28975 0.162933 1.5
      vertex 6 -3.25 1.5
    endloop
  endfacet
  facet normal 0 0 1
    outer loop
      vertex 1.28975 0.162933 1.5
      vertex 1.3 0 1.5
      vertex 6 -3.25 1.5
    endloop
  endfacet
  facet normal 0 0 1
    outer loop
      vertex 1.3 0 1.5
      vertex 1.28975 -0.162933 1.5
      vertex 6 -3.25 1.5
    endloop
  endfacet
  facet normal 0 0 1
    outer loop
      vertex 1.28975 -0.162933 1.5
      vertex 1.25916 -0.323297 1.5
      vertex 6 -3.25 1.5
    endloop
  endfacet
  facet normal 0 0 1
    outer loop
      vertex 1.25916 -0.323297 1.5
      vertex 1.20871 -0.478562 1.5
      vertex 6 -3.25 1.5
    endloop
  endfacet
  facet normal 0 0 1
    outer loop
      vertex -0.243596 1.27697 1.5
      vertex -0.081628 1.29743 1.5
      vertex 6 3.25 1.5
    endloop
  endfacet
  facet normal 0 0 1
    outer loop
      vertex -0.081628 1.29743 1.5
      vertex 0.081628 1.29743 1.5
      vertex 6 3.25 1.5
    endloop
  endfacet
  facet normal 0 0 1
    outer loop
      vertex 0.696575 -1.09763 1.5
      vertex 0.553513 -1.17627 1.5
      vertex 6 -3.25 1.5
    endloop
  endfacet
  facet normal 0 0 1
    outer loop
      vertex 0.553513 -1.17627 1.5
      vertex 0.401722 -1.23637 1.5
      vertex 6 -3.25 1.5
    endloop
  endfacet
  facet normal 0 0 1
    outer loop
      vertex 0.243596 -1.27697 1.5
      vertex -6 -3.25 1.5
      vertex 0.401722 -1.23637 1.5
    endloop
  endfacet
  facet normal 0 0 1
    outer loop
      vertex 0.081628 -1.29743 1.5
      vertex -0.081628 -1.29743 1.5
      vertex -6 -3.25 1.5
    endloop
  endfacet
  facet normal 0 0 1
    outer loop
      vertex -0.243596 -1.27697 1.5
      vertex -6 -3.25 1.5
      vertex -0.081628 -1.29743 1.5
    endloop
  endfacet
  facet normal 0 0 1
    outer loop
      vertex -0.401722 -1.23637 1.5
      vertex -6 -3.25 1.5
      vertex -0.243596 -1.27697 1.5
    endloop
  endfacet
  facet normal 0 0 1
    outer loop
      vertex -0.553513 -1.17627 1.5
      vertex -6 -3.25 1.5
      vertex -0.401722 -1.23637 1.5
    endloop
  endfacet
  facet normal 0 0 1
    outer loop
      vertex -0.696575 -1.09763 1.5
      vertex -6 -3.25 1.5
      vertex -0.553513 -1.17627 1.5
    endloop
  endfacet
  facet normal 0 0 1
    outer loop
      vertex -0.828651 -1.00167 1.5
      vertex -6 -3.25 1.5
      vertex -0.696575 -1.09763 1.5
    endloop
  endfacet
  facet normal 0 0 1
    outer loop
      vertex -0.947659 -0.889911 1.5
      vertex -6 -3.25 1.5
      vertex -0.828651 -1.00167 1.5
    endloop
  endfacet
  facet normal 0 0 1
    outer loop
      vertex -1.05172 -0.764121 1.5
      vertex -6 -3.25 1.5
      vertex -0.947659 -0.889911 1.5
    endloop
  endfacet
  facet normal 0 0 1
    outer loop
      vertex -1.1392 -0.62628 1.5
      vertex -6 -3.25 1.5
      vertex -1.05172 -0.764121 1.5
    endloop
  endfacet
  facet normal 0 0 1
    outer loop
      vertex -1.20871 -0.478562 1.5
      vertex -6 -3.25 1.5
      vertex -1.1392 -0.62628 1.5
    endloop
  endfacet
  facet normal 0 0 1
    outer loop
      vertex -1.25916 -0.323297 1.5
      vertex -6 -3.25 1.5
      vertex -1.20871 -0.478562 1.5
    endloop
  endfacet
  facet normal 0 0 1
    outer loop
      vertex -1.28975 -0.162933 1.5
      vertex -6 -3.25 1.5
      vertex -1.25916 -0.323297 1.5
    endloop
  endfacet
  facet normal 0 0 1
    outer loop
      vertex -1.20871 0.478562 1.5
      vertex -1.1392 0.62628 1.5
      vertex -6 3.25 1.5
    endloop
  endfacet
  facet normal 0 -1 0
    outer loop
      vertex -6 -3.25 1.5
      vertex -6 -3.25 1
      vertex 6 -3.25 1
    endloop
  endfacet
  facet normal 0 -1 0
    outer loop
      vertex 6 -3.25 1.5
      vertex -6 -3.25 1.5
      vertex 6 -3.25 1
    endloop
  endfacet
  facet normal 0 0 1
    outer loop
      vertex -6 -3.25 1
      vertex -6 -6 1
      vertex 6 -6 1
    endloop
  endfacet
  facet normal 0 0 1
    outer loop
      vertex 6 -3.25 1
      vertex -6 -3.25 1
      vertex 6 -6 1
    endloop
  endfacet
  facet normal 1 0 0
    outer loop
      vertex 6 -6 1
      vertex 6 -6 -1
      vertex 6 6 -1
    endloop
  endfacet
  facet normal 1 0 0
    outer loop
      vertex 6 -3.25 1
      vertex 6 -6 1
      vertex 6 6 -1
    endloop
  endfacet
  facet normal 1 0 0
    outer loop
      vertex 6 3.25 1
      vertex 6 -3.25 1
      vertex 6 6 -1
    endloop
  endfacet
  facet normal 1 0 0
    outer loop
      vertex 6 6 1
      vertex 6 3.25 1
      vertex 6 6 -1
    endloop
  endfacet
  facet normal 1 0 0
    outer loop
      vertex 6 3.25 1.5
      vertex 6 -3.25 1
      vertex 6 3.25 1
    endloop
  endfacet
  facet normal 1 0 0
    outer loop
      vertex 6 -3.25 1.5
      vertex 6 -3.25 1
      vertex 6 3.25 1.5
    endloop
  endfacet
  facet normal 0.998027 -0.0627913 0
    outer loop
      vertex -1.28975 0.162933 -1
      vertex -1.28975 0.162933 1.5
      vertex -1.3 0 1.5
    endloop
  endfacet
  facet normal 0.998027 -0.0627913 0
    outer loop
      vertex -1.3 0 -1
      vertex -1.28975 0.162933 -1
      vertex -1.3 0 1.5
    endloop
  endfacet
  facet normal 0.998027 0.0627913 0
    outer loop
      vertex -1.3 0 1.5
      vertex -1.28975 -0.162933 1.5
      vertex -1.28975 -0.162933 -1
    endloop
  endfacet
  facet normal 0.998027 0.0627913 0
    outer loop
      vertex -1.3 0 -1
      vertex -1.3 0 1.5
      vertex -1.28975 -0.162933 -1
    endloop
  endfacet
  facet normal 0.982287 -0.187381 0
    outer loop
      vertex -1.25916 0.323297 -1
      vertex -1.25916 0.323297 1.5
      vertex -1.28975 0.162933 1.5
    endloop
  endfacet
  facet normal 0.982287 -0.187381 0
    outer loop
      vertex -1.28975 0.162933 -1
      vertex -1.25916 0.323297 -1
      vertex -1.28975 0.162933 1.5
    endloop
  endfacet
  facet normal 0.951056 -0.309019 0
    outer loop
      vertex -1.20871 0.478562 -1
      vertex -1.20871 0.478562 1.5
      vertex -1.25916 0.323297 1.5
    endloop
  endfacet
  facet normal 0.951056 -0.309019 0
    outer loop
      vertex -1.25916 0.323297 -1
      vertex -1.20871 0.478562 -1
      vertex -1.25916 0.323297 1.5
    endloop
  endfacet
  facet normal 0.904829 -0.425775 0
    outer loop
      vertex -1.1392 0.62628 -1
      vertex -1.1392 0.62628 1.5
      vertex -1.20871 0.478562 1.5
    endloop
  endfacet
  facet normal 0.904829 -0.425775 0
    outer loop
      vertex -1.20871 0.478562 -1
      vertex -1.1392 0.62628 -1
      vertex -1.20871 0.478562 1.5
    endloop
  endfacet
  facet normal 0.844327 -0.535829 0
    outer loop
      vertex -1.05172 0.764121 -1
      vertex -1.05172 0.764121 1.5
      vertex -1.1392 0.62628 1.5
    endloop
  endfacet
  facet normal 0.844327 -0.535829 0
    outer loop
      vertex -1.1392 0.62628 -1
      vertex -1.05172 0.764121 -1
      vertex -1.1392 0.62628 1.5
    endloop
  endfacet
  facet normal 0.770512 -0.637426 0
    outer loop
      vertex -0.947659 0.889911 -1
      vertex -0.947659 0.889911 1.5
      vertex -1.05172 0.764121 1.5
    endloop
  endfacet
  facet normal 0.770512 -0.637426 0
    outer loop
      vertex -1.05172 0.764121 -1
      vertex -0.947659 0.889911 -1
      vertex -1.05172 0.764121 1.5
    endloop
  endfacet
  facet normal 0.684547 -0.728968 0
    outer loop
      vertex -0.828651 1.00167 -1
      vertex -0.828651 1.00167 1.5
      vertex -0.947659 0.889911 1.5
    endloop
  endfacet
  facet normal 0.684547 -0.728968 0
    outer loop
      vertex -0.947659 0.889911 -1
      vertex -0.828651 1.00167 -1
      vertex -0.947659 0.889911 1.5
    endloop
  endfacet
  facet normal 0.587786 -0.809017 0
    outer loop
      vertex -0.696575 1.09763 -1
      vertex -0.696575 1.09763 1.5
      vertex -0.828651 1.00167 1.5
    endloop
  endfacet
  facet normal 0.587786 -0.809017 0
    outer loop
      vertex -0.828651 1.00167 -1
      vertex -0.696575 1.09763 -1
      vertex -0.828651 1.00167 1.5
    endloop
  endfacet
  facet normal 0.481754 -0.876307 0
    outer loop
      vertex -0.553513 1.17627 -1
      vertex -0.553513 1.17627 1.5
      vertex -0.696575 1.09763 1.5
    endloop
  endfacet
  facet normal 0.481754 -0.876307 0
    outer loop
      vertex -0.696575 1.09763 -1
      vertex -0.553513 1.17627 -1
      vertex -0.696575 1.09763 1.5
    endloop
  endfacet
  facet normal 0.368123 -0.929777 0
    outer loop
      vertex -0.401722 1.23637 -1
      vertex -0.401722 1.23637 1.5
      vertex -0.553513 1.17627 1.5
    endloop
  endfacet
  facet normal 0.368123 -0.929777 0
    outer loop
      vertex -0.553513 1.17627 -1
      vertex -0.401722 1.23637 -1
      vertex -0.553513 1.17627 1.5
    endloop
  endfacet
  facet normal 0.248691 -0.968583 0
    outer loop
      vertex -0.243596 1.27697 -1
      vertex -0.243596 1.27697 1.5
      vertex -0.401722 1.23637 1.5
    endloop
  endfacet
  facet normal 0.248691 -0.968583 0
    outer loop
      vertex -0.401722 1.23637 -1
      vertex -0.243596 1.27697 -1
      vertex -0.401722 1.23637 1.5
    endloop
  endfacet
  facet normal 0.125337 -0.992114 0
    outer loop
      vertex -0.081628 1.29743 -1
      vertex -0.081628 1.29743 1.5
      vertex -0.243596 1.27697 1.5
    endloop
  endfacet
  facet normal 0.125337 -0.992114 0
    outer loop
      vertex -0.243596 1.27697 -1
      vertex -0.081628 1.29743 -1
      vertex -0.243596 1.27697 1.5
    endloop
  endfacet
  facet normal 0 -1 0
    outer loop
      vertex 0.081628 1.29743 -1
      vertex 0.081628 1.29743 1.5
      vertex -0.081628 1.29743 1.5
    endloop
  endfacet
  facet normal 0 -1 0
    outer loop
      vertex -0.081628 1.29743 -1
      vertex 0.081628 1.29743 -1
      vertex -0.081628 1.29743 1.5
    endloop
  endfacet
  facet normal -0.125337 -0.992114 0
    outer loop
      vertex 0.243596 1.27697 -1
      vertex 0.243596 1.27697 1.5
      vertex 0.081628 1.29743 1.5
    endloop
  endfacet
  facet normal -0.125337 -0.992114 0
    outer loop
      vertex 0.081628 1.29743 -1
      vertex 0.243596 1.27697 -1
      vertex 0.081628 1.29743 1.5
    endloop
  endfacet
  facet normal -0.248691 -0.968583 0
    outer loop
      vertex 0.401722 1.23637 -1
      vertex 0.401722 1.23637 1.5
      vertex 0.243596 1.27697 1.5
    endloop
  endfacet
  facet normal -0.248691 -0.968583 0
    outer loop
      vertex 0.243596 1.27697 -1
      vertex 0.401722 1.23637 -1
      vertex 0.243596 1.27697 1.5
    endloop
  endfacet
  facet normal -0.368123 -0.929777 0
    outer loop
      vertex 0.553513 1.17627 -1
      vertex 0.553513 1.17627 1.5
      vertex 0.401722 1.23637 1.5
    endloop
  endfacet
  facet normal -0.368123 -0.929777 0
    outer loop
      vertex 0.401722 1.23637 -1
      vertex 0.553513 1.17627 -1
      vertex 0.401722 1.23637 1.5
    endloop
  endfacet
  facet normal -0.481754 -0.876307 0
    outer loop
      vertex 0.696575 1.09763 -1
      vertex 0.696575 1.09763 1.5
      vertex 0.553513 1.17627 1.5
    endloop
  endfacet
  facet normal -0.481754 -0.876307 0
    outer loop
      vertex 0.553513 1.17627 -1
      vertex 0.696575 1.09763 -1
      vertex 0.553513 1.17627 1.5
    endloop
  endfacet
  facet normal -0.587786 -0.809017 0
    outer loop
      vertex 0.828651 1.00167 -1
      vertex 0.828651 1.00167 1.5
      vertex 0.696575 1.09763 1.5
    endloop
  endfacet
  facet normal -0.587786 -0.809017 0
    outer loop
      vertex 0.696575 1.09763 -1
      vertex 0.828651 1.00167 -1
      vertex 0.696575 1.09763 1.5
    endloop
  endfacet
  facet normal -0.684547 -0.728968 0
    outer loop
      vertex 0.947659 0.889911 -1
      vertex 0.947659 0.889911 1.5
      vertex 0.828651 1.00167 1.5
    endloop
  endfacet
  facet normal -0.684547 -0.728968 0
    outer loop
      vertex 0.828651 1.00167 -1
      vertex 0.947659 0.889911 -1
      vertex 0.828651 1.00167 1.5
    endloop
  endfacet
  facet normal -0.770512 -0.637426 0
    outer loop
      vertex 1.05172 0.764121 1.5
      vertex 0.947659 0.889911 1.5
      vertex 1.05172 0.764121 -1
    endloop
  endfacet
  facet normal -0.770512 -0.637426 0
    outer loop
      vertex 1.05172 0.764121 -1
      vertex 0.947659 0.889911 1.5
      vertex 0.947659 0.889911 -1
    endloop
  endfacet
  facet normal -0.844327 -0.535829 0
    outer loop
      vertex 1.1392 0.62628 1.5
      vertex 1.05172 0.764121 1.5
      vertex 1.1392 0.62628 -1
    endloop
  endfacet
  facet normal -0.844327 -0.535829 0
    outer loop
      vertex 1.1392 0.62628 -1
      vertex 1.05172 0.764121 1.5
      vertex 1.05172 0.764121 -1
    endloop
  endfacet
  facet normal -0.904829 -0.425775 0
    outer loop
      vertex 1.20871 0.478562 1.5
      vertex 1.1392 0.62628 1.5
      vertex 1.20871 0.478562 -1
    endloop
  endfacet
  facet normal -0.904829 -0.425775 0
    outer loop
      vertex 1.20871 0.478562 -1
      vertex 1.1392 0.62628 1.5
      vertex 1.1392 0.62628 -1
    endloop
  endfacet
  facet normal -0.951056 -0.309019 0
    outer loop
      vertex 1.25916 0.323297 1.5
      vertex 1.20871 0.478562 1.5
      vertex 1.25916 0.323297 -1
    endloop
  endfacet
  facet normal -0.951056 -0.309019 0
    outer loop
      vertex 1.25916 0.323297 -1
      vertex 1.20871 0.478562 1.5
      vertex 1.20871 0.478562 -1
    endloop
  endfacet
  facet normal -0.982287 -0.187381 0
    outer loop
      vertex 1.28975 0.162933 1.5
      vertex 1.25916 0.323297 1.5
      vertex 1.28975 0.162933 -1
    endloop
  endfacet
  facet normal -0.982287 -0.187381 0
    outer loop
      vertex 1.28975 0.162933 -1
      vertex 1.25916 0.323297 1.5
      vertex 1.25916 0.323297 -1
    endloop
  endfacet
  facet normal -0.998027 -0.0627913 0
    outer loop
      vertex 1.3 0 1.5
      vertex 1.28975 0.162933 1.5
      vertex 1.3 0 -1
    endloop
  endfacet
  facet normal -0.998027 -0.0627913 0
    outer loop
      vertex 1.3 0 -1
      vertex 1.28975 0.162933 1.5
      vertex 1.28975 0.162933 -1
    endloop
  endfacet
  facet normal -0.998027 0.0627913 0
    outer loop
      vertex 1.3 0 1.5
      vertex 1.3 0 -1
      vertex 1.28975 -0.162933 1.5
    endloop
  endfacet
  facet normal -0.998027 0.0627913 0
    outer loop
      vertex 1.28975 -0.162933 1.5
      vertex 1.3 0 -1
      vertex 1.28975 -0.162933 -1
    endloop
  endfacet
  facet normal -0.982287 0.187381 0
    outer loop
      vertex 1.28975 -0.162933 1.5
      vertex 1.28975 -0.162933 -1
      vertex 1.25916 -0.323297 1.5
    endloop
  endfacet
  facet normal -0.982287 0.187381 0
    outer loop
      vertex 1.25916 -0.323297 1.5
      vertex 1.28975 -0.162933 -1
      vertex 1.25916 -0.323297 -1
    endloop
  endfacet
  facet normal -0.951056 0.309019 0
    outer loop
      vertex 1.25916 -0.323297 1.5
      vertex 1.25916 -0.323297 -1
      vertex 1.20871 -0.478562 1.5
    endloop
  endfacet
  facet normal -0.951056 0.309019 0
    outer loop
      vertex 1.20871 -0.478562 1.5
      vertex 1.25916 -0.323297 -1
      vertex 1.20871 -0.478562 -1
    endloop
  endfacet
  facet normal -0.904829 0.425775 0
    outer loop
      vertex 1.20871 -0.478562 1.5
      vertex 1.20871 -0.478562 -1
      vertex 1.1392 -0.62628 1.5
    endloop
  endfacet
  facet normal -0.904829 0.425775 0
    outer loop
      vertex 1.1392 -0.62628 1.5
      vertex 1.20871 -0.478562 -1
      vertex 1.1392 -0.62628 -1
    endloop
  endfacet
  facet normal -0.844327 0.535829 0
    outer loop
      vertex 1.1392 -0.62628 1.5
      vertex 1.1392 -0.62628 -1
      vertex 1.05172 -0.764121 1.5
    endloop
  endfacet
  facet normal -0.844327 0.535829 0
    outer loop
      vertex 1.05172 -0.764121 1.5
      vertex 1.1392 -0.62628 -1
      vertex 1.05172 -0.764121 -1
    endloop
  endfacet
  facet normal -0.770512 0.637426 0
    outer loop
      vertex 1.05172 -0.764121 1.5
      vertex 1.05172 -0.764121 -1
      vertex 0.947659 -0.889911 1.5
    endloop
  endfacet
  facet normal -0.770512 0.637426 0
    outer loop
      vertex 0.947659 -0.889911 1.5
      vertex 1.05172 -0.764121 -1
      vertex 0.947659 -0.889911 -1
    endloop
  endfacet
  facet normal -0.684547 0.728968 0
    outer loop
      vertex 0.947659 -0.889911 1.5
      vertex 0.947659 -0.889911 -1
      vertex 0.828651 -1.00167 1.5
    endloop
  endfacet
  facet normal -0.684547 0.728968 0
    outer loop
      vertex 0.828651 -1.00167 1.5
      vertex 0.947659 -0.889911 -1
      vertex 0.828651 -1.00167 -1
    endloop
  endfacet
  facet normal -0.587786 0.809017 0
    outer loop
      vertex 0.828651 -1.00167 1.5
      vertex 0.828651 -1.00167 -1
      vertex 0.696575 -1.09763 1.5
    endloop
  endfacet
  facet normal -0.587786 0.809017 0
    outer loop
      vertex 0.696575 -1.09763 1.5
      vertex 0.828651 -1.00167 -1
      vertex 0.696575 -1.09763 -1
    endloop
  endfacet
  facet normal -0.481754 0.876307 0
    outer loop
      vertex 0.696575 -1.09763 1.5
      vertex 0.696575 -1.09763 -1
      vertex 0.553513 -1.17627 1.5
    endloop
  endfacet
  facet normal -0.481754 0.876307 0
    outer loop
      vertex 0.553513 -1.17627 1.5
      vertex 0.696575 -1.09763 -1
      vertex 0.553513 -1.17627 -1
    endloop
  endfacet
  facet normal -0.368123 0.929777 0
    outer loop
      vertex 0.553513 -1.17627 1.5
      vertex 0.553513 -1.17627 -1
      vertex 0.401722 -1.23637 1.5
    endloop
  endfacet
  facet normal -0.368123 0.929777 0
    outer loop
      vertex 0.401722 -1.23637 1.5
      vertex 0.553513 -1.17627 -1
      vertex 0.401722 -1.23637 -1
    endloop
  endfacet
  facet normal -0.248691 0.968583 0
    outer loop
      vertex 0.401722 -1.23637 1.5
      vertex 0.401722 -1.23637 -1
      vertex 0.243596 -1.27697 1.5
    endloop
  endfacet
  facet normal -0.248691 0.968583 0
    outer loop
      vertex 0.243596 -1.27697 1.5
      vertex 0.401722 -1.23637 -1
      vertex 0.243596 -1.27697 -1
    endloop
  endfacet
  facet normal -0.125337 0.992114 0
    outer loop
      vertex 0.243596 -1.27697 1.5
      vertex 0.243596 -1.27697 -1
      vertex 0.081628 -1.29743 1.5
    endloop
  endfacet
  facet normal -0.125337 0.992114 0
    outer loop
      vertex 0.081628 -1.29743 1.5
      vertex 0.243596 -1.27697 -1
      vertex 0.081628 -1.29743 -1
    endloop
  endfacet
  facet normal 0 1 0
    outer loop
      vertex 0.081628 -1.29743 1.5
      vertex 0.081628 -1.29743 -1
      vertex -0.081628 -1.29743 1.5
    endloop
  endfacet
  facet normal 0 1 0
    outer loop
      vertex -0.081628 -1.29743 1.5
      vertex 0.081628 -1.29743 -1
      vertex -0.081628 -1.29743 -1
    endloop
  endfacet
  facet normal 0.125337 0.992114 0
    outer loop
      vertex -0.081628 -1.29743 1.5
      vertex -0.081628 -1.29743 -1
      vertex -0.243596 -1.27697 1.5
    endloop
  endfacet
  facet normal 0.125337 0.992114 0
    outer loop
      vertex -0.243596 -1.27697 1.5
      vertex -0.081628 -1.29743 -1
      vertex -0.243596 -1.27697 -1
    endloop
  endfacet
  facet normal 0.248691 0.968583 0
    outer loop
      vertex -0.243596 -1.27697 1.5
      vertex -0.243596 -1.27697 -1
      vertex -0.401722 -1.23637 1.5
    endloop
  endfacet
  facet normal 0.248691 0.968583 0
    outer loop
      vertex -0.401722 -1.23637 1.5
      vertex -0.243596 -1.27697 -1
      vertex -0.401722 -1.23637 -1
    endloop
  endfacet
  facet normal 0.368123 0.929777 0
    outer loop
      vertex -0.401722 -1.23637 1.5
      vertex -0.401722 -1.23637 -1
      vertex -0.553513 -1.17627 1.5
    endloop
  endfacet
  facet normal 0.368123 0.929777 0
    outer loop
      vertex -0.553513 -1.17627 1.5
      vertex -0.401722 -1.23637 -1
      vertex -0.553513 -1.17627 -1
    endloop
  endfacet
  facet normal 0.481754 0.876307 0
    outer loop
      vertex -0.553513 -1.17627 1.5
      vertex -0.553513 -1.17627 -1
      vertex -0.696575 -1.09763 1.5
    endloop
  endfacet
  facet normal 0.481754 0.876307 0
    outer loop
      vertex -0.696575 -1.09763 1.5
      vertex -0.553513 -1.17627 -1
      vertex -0.696575 -1.09763 -1
    endloop
  endfacet
  facet normal 0.587786 0.809017 0
    outer loop
      vertex -0.696575 -1.09763 1.5
      vertex -0.696575 -1.09763 -1
      vertex -0.828651 -1.00167 1.5
    endloop
  endfacet
  facet normal 0.587786 0.809017 0
    outer loop
      vertex -0.828651 -1.00167 1.5
      vertex -0.696575 -1.09763 -1
      vertex -0.828651 -1.00167 -1
    endloop
  endfacet
  facet normal 0.684547 0.728968 0
    outer loop
      vertex -0.828651 -1.00167 1.5
      vertex -0.828651 -1.00167 -1
      vertex -0.947659 -0.889911 1.5
    endloop
  endfacet
  facet normal 0.684547 0.728968 0
    outer loop
      vertex -0.947659 -0.889911 1.5
      vertex -0.828651 -1.00167 -1
      vertex -0.947659 -0.889911 -1
    endloop
  endfacet
  facet normal 0.770512 0.637426 0
    outer loop
      vertex -1.05172 -0.764121 1.5
      vertex -0.947659 -0.889911 1.5
      vertex -0.947659 -0.889911 -1
    endloop
  endfacet
  facet normal 0.770512 0.637426 0
    outer loop
      vertex -1.05172 -0.764121 -1
      vertex -1.05172 -0.764121 1.5
      vertex -0.947659 -0.889911 -1
    endloop
  endfacet
  facet normal 0.844327 0.535829 0
    outer loop
      vertex -1.1392 -0.62628 1.5
      vertex -1.05172 -0.764121 1.5
      vertex -1.05172 -0.764121 -1
    endloop
  endfacet
  facet normal 0.844327 0.535829 0
    outer loop
      vertex -1.1392 -0.62628 -1
      vertex -1.1392 -0.62628 1.5
      vertex -1.05172 -0.764121 -1
    endloop
  endfacet
  facet normal 0.904829 0.425775 0
    outer loop
      vertex -1.20871 -0.478562 1.5
      vertex -1.1392 -0.62628 1.5
      vertex -1.1392 -0.62628 -1
    endloop
  endfacet
  facet normal 0.904829 0.425775 0
    outer loop
      vertex -1.20871 -0.478562 -1
      vertex -1.20871 -0.478562 1.5
      vertex -1.1392 -0.62628 -1
    endloop
  endfacet
  facet normal 0.951056 0.309019 0
    outer loop
      vertex -1.25916 -0.323297 1.5
      vertex -1.20871 -0.478562 1.5
      vertex -1.20871 -0.478562 -1
    endloop
  endfacet
  facet normal 0.951056 0.309019 0
    outer loop
      vertex -1.25916 -0.323297 -1
      vertex -1.25916 -0.323297 1.5
      vertex -1.20871 -0.478562 -1
    endloop
  endfacet
  facet normal 0.982287 0.187381 0
    outer loop
      vertex -1.28975 -0.162933 1.5
      vertex -1.25916 -0.323297 1.5
      vertex -1.25916 -0.323297 -1
    endloop
  endfacet
  facet normal 0.982287 0.187381 0
    outer loop
      vertex -1.28975 -0.162933 -1
      vertex -1.28975 -0.162933 1.5
      vertex -1.25916 -0.323297 -1
    endloop
  endfacet
endsolid OpenSCAD_Model
