solid OpenSCAD_Model
  facet normal -1 0 0
    outer loop
      vertex -10 -20 -1
      vertex -10 -20 1
      vertex -10 20 -1
    endloop
  endfacet
  facet normal -1 0 0
    outer loop
      vertex -10 20 -1
      vertex -10 -20 1
      vertex -10 20 1
    endloop
  endfacet
  facet normal 0 -1 0
    outer loop
      vertex -10 -20 1
      vertex -10 -20 -1
      vertex 10 -20 -1
    endloop
  endfacet
  facet normal 0 -1 0
    outer loop
      vertex -3.5 -20 1
      vertex -10 -20 1
      vertex 10 -20 -1
    endloop
  endfacet
  facet normal 0 -1 0
    outer loop
      vertex 3.5 -20 1
      vertex -3.5 -20 1
      vertex 10 -20 -1
    endloop
  endfacet
  facet normal 0 -1 0
    outer loop
      vertex 10 -20 1
      vertex 3.5 -20 1
      vertex 10 -20 -1
    endloop
  endfacet
  facet normal 0 -1 0
    outer loop
      vertex 3.5 -20 1.5
      vertex -3.5 -20 1
      vertex 3.5 -20 1
    endloop
  endfacet
  facet normal 0 -1 0
    outer loop
      vertex -3.5 -20 1.5
      vertex -3.5 -20 1
      vertex 3.5 -20 1.5
    endloop
  endfacet
  facet normal 0 0 -1
    outer loop
      vertex 1.76777 1.76777 -1
      vertex -10 20 -1
      vertex 10 20 -1
    endloop
  endfacet
  facet normal 0 0 -1
    outer loop
      vertex -10 -20 -1
      vertex -10 20 -1
      vertex -2.5 0 -1
    endloop
  endfacet
  facet normal 0 0 -1
    outer loop
      vertex -10 -20 -1
      vertex -2.5 0 -1
      vertex -1.76777 -1.76777 -1
    endloop
  endfacet
  facet normal 0 0 -1
    outer loop
      vertex -10 -20 -1
      vertex -1.76777 -1.76777 -1
      vertex 10 -20 -1
    endloop
  endfacet
  facet normal 0 0 -1
    outer loop
      vertex 0 -2.5 -1
      vertex 10 -20 -1
      vertex -1.76777 -1.76777 -1
    endloop
  endfacet
  facet normal 0 0 -1
    outer loop
      vertex 1.76777 -1.76777 -1
      vertex 10 -20 -1
      vertex 0 -2.5 -1
    endloop
  endfacet
  facet normal 0 0 -1
    outer loop
      vertex 1.76777 1.76777 -1
      vertex 10 20 -1
      vertex 2.5 0 -1
    endloop
  endfacet
  facet normal 0 0 -1
    outer loop
      vertex 10 -20 -1
      vertex 1.76777 -1.76777 -1
      vertex 2.5 0 -1
    endloop
  endfacet
  facet normal 0 0 -1
    outer loop
      vertex 10 -20 -1
      vertex 2.5 0 -1
      vertex 10 20 -1
    endloop
  endfacet
  facet normal 0 0 -1
    outer loop
      vertex 0 2.5 -1
      vertex -10 20 -1
      vertex 1.76777 1.76777 -1
    endloop
  endfacet
  facet normal 0 0 -1
    outer loop
      vertex -1.76777 1.76777 -1
      vertex -10 20 -1
      vertex 0 2.5 -1
    endloop
  endfacet
  facet normal 0 0 -1
    outer loop
      vertex -2.5 0 -1
      vertex -10 20 -1
      vertex -1.76777 1.76777 -1
    endloop
  endfacet
  facet normal 0 1 0
    outer loop
      vertex -10 20 -1
      vertex -10 20 1
      vertex 10 20 -1
    endloop
  endfacet
  facet normal 0 1 0
    outer loop
      vertex 10 20 -1
      vertex -10 20 1
      vertex -3.5 20 1
    endloop
  endfacet
  facet normal 0 1 0
    outer loop
      vertex 10 20 -1
      vertex -3.5 20 1
      vertex -3.5 20 1.5
    endloop
  endfacet
  facet normal 0 1 0
    outer loop
      vertex 3.5 20 1
      vertex -3.5 20 1.5
      vertex 3.5 20 1.5
    endloop
  endfacet
  facet normal 0 1 0
    outer loop
      vertex 10 20 -1
      vertex -3.5 20 1.5
      vertex 3.5 20 1
    endloop
  endfacet
  facet normal 0 1 0
    outer loop
      vertex 10 20 1
      vertex 10 20 -1
      vertex 3.5 20 1
    endloop
  endfacet
  facet normal 0 0 1
    outer loop
      vertex -10 20 1
      vertex -10 -20 1
      vertex -3.5 -20 1
    endloop
  endfacet
  facet normal 0 0 1
    outer loop
      vertex -3.5 20 1
      vertex -10 20 1
      vertex -3.5 -20 1
    endloop
  endfacet
  facet normal -1 0 0
    outer loop
      vertex -3.5 -20 1
      vertex -3.5 -20 1.5
      vertex -3.5 20 1
    endloop
  endfacet
  facet normal -1 0 0
    outer loop
      vertex -3.5 20 1
      vertex -3.5 -20 1.5
      vertex -3.5 20 1.5
    endloop
  endfacet
  facet normal 0 0 1
    outer loop
      vertex -1.76777 -1.76777 1.5
      vertex -3.5 -20 1.5
      vertex 3.5 -20 1.5
    endloop
  endfacet
  facet normal 0 0 1
    outer loop
      vertex -2.5 0 1.5
      vertex -3.5 -20 1.5
      vertex -1.76777 -1.76777 1.5
    endloop
  endfacet
  facet normal 0 0 1
    outer loop
      vertex -3.5 20 1.5
      vertex -3.5 -20 1.5
      vertex -2.5 0 1.5
    endloop
  endfacet
  facet normal 0 0 1
    outer loop
      vertex -2.5 0 1.5
      vertex -1.76777 1.76777 1.5
      vertex -3.5 20 1.5
    endloop
  endfacet
  facet normal 0 0 1
    outer loop
      vertex 3.5 20 1.5
      vertex -3.5 20 1.5
      vertex 0 2.5 1.5
    endloop
  endfacet
  facet normal 0 0 1
    outer loop
      vertex 1.76777 -1.76777 1.5
      vertex 0 -2.5 1.5
      vertex 3.5 -20 1.5
    endloop
  endfacet
  facet normal 0 0 1
    outer loop
      vertex 3.5 20 1.5
      vertex 0 2.5 1.5
      vertex 1.76777 1.76777 1.5
    endloop
  endfacet
  facet normal 0 0 1
    outer loop
      vertex 3.5 20 1.5
      vertex 2.5 0 1.5
      vertex 3.5 -20 1.5
    endloop
  endfacet
  facet normal 0 0 1
    outer loop
      vertex 3.5 20 1.5
      vertex 1.76777 1.76777 1.5
      vertex 2.5 0 1.5
    endloop
  endfacet
  facet normal 0 0 1
    outer loop
      vertex 2.5 0 1.5
      vertex 1.76777 -1.76777 1.5
      vertex 3.5 -20 1.5
    endloop
  endfacet
  facet normal 0 0 1
    outer loop
      vertex 0 -2.5 1.5
      vertex -1.76777 -1.76777 1.5
      vertex 3.5 -20 1.5
    endloop
  endfacet
  facet normal 0 0 1
    outer loop
      vertex -1.76777 1.76777 1.5
      vertex 0 2.5 1.5
      vertex -3.5 20 1.5
    endloop
  endfacet
  facet normal 1 0 0
    outer loop
      vertex 3.5 -20 1.5
      vertex 3.5 -20 1
      vertex 3.5 20 1
    endloop
  endfacet
  facet normal 1 0 0
    outer loop
      vertex 3.5 20 1.5
      vertex 3.5 -20 1.5
      vertex 3.5 20 1
    endloop
  endfacet
  facet normal 0 0 1
    outer loop
      vertex 3.5 20 1
      vertex 3.5 -20 1
      vertex 10 -20 1
    endloop
  endfacet
  facet normal 0 0 1
    outer loop
      vertex 10 20 1
      vertex 3.5 20 1
      vertex 10 -20 1
    endloop
  endfacet
  facet normal 1 0 0
    outer loop
      vertex 10 -20 1
      vertex 10 -20 -1
      vertex 10 20 -1
    endloop
  endfacet
  facet normal 1 0 0
    outer loop
      vertex 10 20 1
      vertex 10 -20 1
      vertex 10 20 -1
    endloop
  endfacet
  facet normal 0.92388 -0.382683 0
    outer loop
      vertex -1.76777 1.76777 -1
      vertex -1.76777 1.76777 1.5
      vertex -2.5 0 1.5
    endloop
  endfacet
  facet normal 0.92388 -0.382683 0
    outer loop
      vertex -2.5 0 -1
      vertex -1.76777 1.76777 -1
      vertex -2.5 0 1.5
    endloop
  endfacet
  facet normal 0.92388 0.382683 0
    outer loop
      vertex -2.5 0 1.5
      vertex -1.76777 -1.76777 1.5
      vertex -1.76777 -1.76777 -1
    endloop
  endfacet
  facet normal 0.92388 0.382683 0
    outer loop
      vertex -2.5 0 -1
      vertex -2.5 0 1.5
      vertex -1.76777 -1.76777 -1
    endloop
  endfacet
  facet normal 0.382683 -0.92388 0
    outer loop
      vertex 0 2.5 -1
      vertex 0 2.5 1.5
      vertex -1.76777 1.76777 1.5
    endloop
  endfacet
  facet normal 0.382683 -0.92388 0
    outer loop
      vertex -1.76777 1.76777 -1
      vertex 0 2.5 -1
      vertex -1.76777 1.76777 1.5
    endloop
  endfacet
  facet normal -0.382683 -0.92388 0
    outer loop
      vertex 1.76777 1.76777 -1
      vertex 1.76777 1.76777 1.5
      vertex 0 2.5 1.5
    endloop
  endfacet
  facet normal -0.382683 -0.92388 0
    outer loop
      vertex 0 2.5 -1
      vertex 1.76777 1.76777 -1
      vertex 0 2.5 1.5
    endloop
  endfacet
  facet normal -0.92388 -0.382683 0
    outer loop
      vertex 2.5 0 1.5
      vertex 1.76777 1.76777 1.5
      vertex 2.5 0 -1
    endloop
  endfacet
  facet normal -0.92388 -0.382683 0
    outer loop
      vertex 2.5 0 -1
      vertex 1.76777 1.76777 1.5
      vertex 1.76777 1.76777 -1
    endloop
  endfacet
  facet normal -0.92388 0.382683 0
    outer loop
      vertex 2.5 0 1.5
      vertex 2.5 0 -1
      vertex 1.76777 -1.76777 1.5
    endloop
  endfacet
  facet normal -0.92388 0.382683 0
    outer loop
      vertex 1.76777 -1.76777 1.5
      vertex 2.5 0 -1
      vertex 1.76777 -1.76777 -1
    endloop
  endfacet
  facet normal -0.382683 0.92388 0
    outer loop
      vertex 1.76777 -1.76777 1.5
      vertex 1.76777 -1.76777 -1
      vertex 0 -2.5 1.5
    endloop
  endfacet
  facet normal -0.382683 0.92388 0
    outer loop
      vertex 0 -2.5 1.5
      vertex 1.76777 -1.76777 -1
      vertex 0 -2.5 -1
    endloop
  endfacet
  facet normal 0.382683 0.92388 0
    outer loop
      vertex 0 -2.5 1.5
      vertex 0 -2.5 -1
      vertex -1.76777 -1.76777 1.5
    endloop
  endfacet
  facet normal 0.382683 0.92388 0
    outer loop
      vertex -1.76777 -1.76777 1.5
      vertex 0 -2.5 -1
      vertex -1.76777 -1.76777 -1
    endloop
  endfacet
endsolid OpenSCAD_Model
