solid OpenSCAD_Model
  facet normal -0.707107 2.43605e-16 0.707107
    outer loop
      vertex -6 7.5 1
      vertex -6 -7.5 1
      vertex -3.2 7.5 3.8
    endloop
  endfacet
  facet normal -0.707107 2.43605e-16 0.707107
    outer loop
      vertex -3.2 -2.77128 3.8
      vertex -6 -7.5 1
      vertex -3.2 -7.5 3.8
    endloop
  endfacet
  facet normal -0.707107 2.43605e-16 0.707107
    outer loop
      vertex -3.97949 -2.32124 3.02051
      vertex -6 -7.5 1
      vertex -3.2 -2.77128 3.8
    endloop
  endfacet
  facet normal -0.707107 2.43605e-16 0.707107
    outer loop
      vertex -4 -2.28571 3
      vertex -6 -7.5 1
      vertex -3.97949 -2.32124 3.02051
    endloop
  endfacet
  facet normal -0.707107 2.43605e-16 0.707107
    outer loop
      vertex -4 2.28571 3
      vertex -6 -7.5 1
      vertex -4 -2.28571 3
    endloop
  endfacet
  facet normal -0.707107 2.43605e-16 0.707107
    outer loop
      vertex -3.2 2.77128 3.8
      vertex -3.2 7.5 3.8
      vertex -3.97949 2.32124 3.02051
    endloop
  endfacet
  facet normal -0.707107 2.43605e-16 0.707107
    outer loop
      vertex -3.2 7.5 3.8
      vertex -6 -7.5 1
      vertex -4 2.28571 3
    endloop
  endfacet
  facet normal -0.707107 2.43605e-16 0.707107
    outer loop
      vertex -3.97949 2.32124 3.02051
      vertex -4 2.28571 3
      vertex -3.95897 2.28571 3.04103
    endloop
  endfacet
  facet normal -0.707107 2.43605e-16 0.707107
    outer loop
      vertex -3.2 7.5 3.8
      vertex -4 2.28571 3
      vertex -3.97949 2.32124 3.02051
    endloop
  endfacet
  facet normal -0.707107 2.43605e-16 0.707107
    outer loop
      vertex -4 -2.28571 3
      vertex -3.97949 -2.32124 3.02051
      vertex -3.95897 -2.28571 3.04103
    endloop
  endfacet
  facet normal -1 0 0
    outer loop
      vertex -6 7.5 1
      vertex -6 7.5 -9.18485e-16
      vertex -6 -7.5 1
    endloop
  endfacet
  facet normal -1 0 0
    outer loop
      vertex -6 -7.5 1
      vertex -6 7.5 -9.18485e-16
      vertex -6 -7.5 4.24915e-15
    endloop
  endfacet
  facet normal 0 1 -3.44509e-16
    outer loop
      vertex -6 7.5 1
      vertex -3.2 7.5 3.8
      vertex -6 7.5 -9.18485e-16
    endloop
  endfacet
  facet normal 0 1 -3.44509e-16
    outer loop
      vertex -6 7.5 -9.18485e-16
      vertex -3.2 7.5 3.8
      vertex 3.2 7.5 3.8
    endloop
  endfacet
  facet normal 0 1 -3.44509e-16
    outer loop
      vertex -6 7.5 -9.18485e-16
      vertex 3.2 7.5 3.8
      vertex 6 7.5 1
    endloop
  endfacet
  facet normal 0 1 -3.44509e-16
    outer loop
      vertex -6 7.5 -9.18485e-16
      vertex 6 7.5 1
      vertex 6 7.5 -9.18485e-16
    endloop
  endfacet
  facet normal 0 3.44509e-16 1
    outer loop
      vertex 3.2 7.5 3.8
      vertex -3.2 7.5 3.8
      vertex -3.2 2.77128 3.8
    endloop
  endfacet
  facet normal 0 3.44509e-16 1
    outer loop
      vertex 0.0205134 4.60696 3.8
      vertex 3.2 7.5 3.8
      vertex -0.0205134 4.60696 3.8
    endloop
  endfacet
  facet normal 0 3.44509e-16 1
    outer loop
      vertex -0.0205134 4.60696 3.8
      vertex 3.2 7.5 3.8
      vertex -3.2 2.77128 3.8
    endloop
  endfacet
  facet normal 0 3.44509e-16 1
    outer loop
      vertex -8.10611e-16 4.57143 3.8
      vertex 0.0205134 4.60696 3.8
      vertex -0.0205134 4.60696 3.8
    endloop
  endfacet
  facet normal 0 3.44509e-16 1
    outer loop
      vertex 0.0205134 4.60696 3.8
      vertex 3.2 2.77128 3.8
      vertex 3.2 7.5 3.8
    endloop
  endfacet
  facet normal 0.5 -0.866025 1.06058e-16
    outer loop
      vertex -3.97949 2.32124 1.2
      vertex -0.0205134 4.60696 1.2
      vertex -0.0205134 4.60696 3.8
    endloop
  endfacet
  facet normal 0.5 -0.866025 1.06058e-16
    outer loop
      vertex -3.97949 2.32124 3.02051
      vertex -3.97949 2.32124 1.2
      vertex -3.2 2.77128 3.8
    endloop
  endfacet
  facet normal 0.5 -0.866025 1.06058e-16
    outer loop
      vertex -3.2 2.77128 3.8
      vertex -3.97949 2.32124 1.2
      vertex -0.0205134 4.60696 3.8
    endloop
  endfacet
  facet normal 0.866025 0.5 -6.12323e-17
    outer loop
      vertex -3.95897 2.28571 3.04103
      vertex -3.95897 2.28571 1.2
      vertex -3.97949 2.32124 1.2
    endloop
  endfacet
  facet normal 0.866025 0.5 -6.12323e-17
    outer loop
      vertex -3.97949 2.32124 3.02051
      vertex -3.95897 2.28571 3.04103
      vertex -3.97949 2.32124 1.2
    endloop
  endfacet
  facet normal 1.77321e-16 -1 1.22465e-16
    outer loop
      vertex -4 2.28571 1.2
      vertex -3.95897 2.28571 1.2
      vertex -3.95897 2.28571 3.04103
    endloop
  endfacet
  facet normal 1.77321e-16 -1 1.22465e-16
    outer loop
      vertex -4 2.28571 3
      vertex -4 2.28571 1.2
      vertex -3.95897 2.28571 3.04103
    endloop
  endfacet
  facet normal 1 1.77321e-16 -2.17156e-32
    outer loop
      vertex -4 -2.28571 3
      vertex -4 -2.28571 1.2
      vertex -4 2.28571 1.2
    endloop
  endfacet
  facet normal 1 1.77321e-16 -2.17156e-32
    outer loop
      vertex -4 2.28571 3
      vertex -4 -2.28571 3
      vertex -4 2.28571 1.2
    endloop
  endfacet
  facet normal -1.77321e-16 1 -1.22465e-16
    outer loop
      vertex -3.95897 -2.28571 1.2
      vertex -4 -2.28571 1.2
      vertex -3.95897 -2.28571 3.04103
    endloop
  endfacet
  facet normal -1.77321e-16 1 -1.22465e-16
    outer loop
      vertex -3.95897 -2.28571 3.04103
      vertex -4 -2.28571 1.2
      vertex -4 -2.28571 3
    endloop
  endfacet
  facet normal 0.866025 -0.5 6.12323e-17
    outer loop
      vertex -3.97949 -2.32124 1.2
      vertex -3.95897 -2.28571 1.2
      vertex -3.95897 -2.28571 3.04103
    endloop
  endfacet
  facet normal 0.866025 -0.5 6.12323e-17
    outer loop
      vertex -3.97949 -2.32124 3.02051
      vertex -3.97949 -2.32124 1.2
      vertex -3.95897 -2.28571 3.04103
    endloop
  endfacet
  facet normal 0.5 0.866025 -1.06058e-16
    outer loop
      vertex -0.0205134 -4.60696 3.8
      vertex -0.0205134 -4.60696 1.2
      vertex -3.2 -2.77128 3.8
    endloop
  endfacet
  facet normal 0.5 0.866025 -1.06058e-16
    outer loop
      vertex -3.2 -2.77128 3.8
      vertex -0.0205134 -4.60696 1.2
      vertex -3.97949 -2.32124 1.2
    endloop
  endfacet
  facet normal 0.5 0.866025 -1.06058e-16
    outer loop
      vertex -3.2 -2.77128 3.8
      vertex -3.97949 -2.32124 1.2
      vertex -3.97949 -2.32124 3.02051
    endloop
  endfacet
  facet normal 0 3.44509e-16 1
    outer loop
      vertex -0.0205134 -4.60696 3.8
      vertex -3.2 -2.77128 3.8
      vertex -3.2 -7.5 3.8
    endloop
  endfacet
  facet normal 0 3.44509e-16 1
    outer loop
      vertex 0.0205134 -4.60696 3.8
      vertex -0.0205134 -4.60696 3.8
      vertex 3.2 -7.5 3.8
    endloop
  endfacet
  facet normal 0 3.44509e-16 1
    outer loop
      vertex 3.2 -7.5 3.8
      vertex -0.0205134 -4.60696 3.8
      vertex -3.2 -7.5 3.8
    endloop
  endfacet
  facet normal 0 3.44509e-16 1
    outer loop
      vertex 3.2 -2.77128 3.8
      vertex 0.0205134 -4.60696 3.8
      vertex 3.2 -7.5 3.8
    endloop
  endfacet
  facet normal 0 3.44509e-16 1
    outer loop
      vertex 0.0205134 -4.60696 3.8
      vertex 8.10611e-16 -4.57143 3.8
      vertex -0.0205134 -4.60696 3.8
    endloop
  endfacet
  facet normal 0 -1 3.44509e-16
    outer loop
      vertex -3.2 -7.5 3.8
      vertex -6 -7.5 1
      vertex -6 -7.5 4.24915e-15
    endloop
  endfacet
  facet normal 0 -1 3.44509e-16
    outer loop
      vertex 6 -7.5 1
      vertex -3.2 -7.5 3.8
      vertex 6 -7.5 4.24915e-15
    endloop
  endfacet
  facet normal 0 -1 3.44509e-16
    outer loop
      vertex 6 -7.5 4.24915e-15
      vertex -3.2 -7.5 3.8
      vertex -6 -7.5 4.24915e-15
    endloop
  endfacet
  facet normal 0 -1 3.44509e-16
    outer loop
      vertex 3.2 -7.5 3.8
      vertex -3.2 -7.5 3.8
      vertex 6 -7.5 1
    endloop
  endfacet
  facet normal 0 -3.44509e-16 -1
    outer loop
      vertex 4.96057 -0.626666 1.88123e-15
      vertex 6 7.5 -9.18485e-16
      vertex 6 -7.5 4.24915e-15
    endloop
  endfacet
  facet normal 0 -3.44509e-16 -1
    outer loop
      vertex -6 7.5 -9.18485e-16
      vertex -4.99013 0.313953 1.55717e-15
      vertex -6 -7.5 4.24915e-15
    endloop
  endfacet
  facet normal 0 -3.44509e-16 -1
    outer loop
      vertex -4.99013 0.313953 1.55717e-15
      vertex -5 2.03945e-31 1.66533e-15
      vertex -6 -7.5 4.24915e-15
    endloop
  endfacet
  facet normal 0 -3.44509e-16 -1
    outer loop
      vertex 1.54508 4.75528 2.70954e-17
      vertex 6 7.5 -9.18485e-16
      vertex 1.84062 4.64888 6.37515e-17
    endloop
  endfacet
  facet normal 0 -3.44509e-16 -1
    outer loop
      vertex -5 2.03945e-31 1.66533e-15
      vertex -4.99013 -0.313953 1.77349e-15
      vertex -6 -7.5 4.24915e-15
    endloop
  endfacet
  facet normal 0 -3.44509e-16 -1
    outer loop
      vertex -4.99013 -0.313953 1.77349e-15
      vertex -4.96057 -0.626666 1.88123e-15
      vertex -6 -7.5 4.24915e-15
    endloop
  endfacet
  facet normal 0 -3.44509e-16 -1
    outer loop
      vertex 1.84062 4.64888 6.37515e-17
      vertex 6 7.5 -9.18485e-16
      vertex 2.1289 4.52413 1.06728e-16
    endloop
  endfacet
  facet normal 0 -3.44509e-16 -1
    outer loop
      vertex -4.96057 -0.626666 1.88123e-15
      vertex -4.91144 -0.936907 1.98811e-15
      vertex -6 -7.5 4.24915e-15
    endloop
  endfacet
  facet normal 0 -3.44509e-16 -1
    outer loop
      vertex -4.91144 -0.936907 1.98811e-15
      vertex -4.84292 -1.24345 2.09371e-15
      vertex -6 -7.5 4.24915e-15
    endloop
  endfacet
  facet normal 0 -3.44509e-16 -1
    outer loop
      vertex -4.84292 -1.24345 2.09371e-15
      vertex -4.75528 -1.54508 2.19763e-15
      vertex -6 -7.5 4.24915e-15
    endloop
  endfacet
  facet normal 0 -3.44509e-16 -1
    outer loop
      vertex 2.1289 4.52413 1.06728e-16
      vertex 6 7.5 -9.18485e-16
      vertex 2.40877 4.38153 1.55856e-16
    endloop
  endfacet
  facet normal 0 -3.44509e-16 -1
    outer loop
      vertex -4.75528 -1.54508 2.19763e-15
      vertex -4.64888 -1.84062 2.29945e-15
      vertex -6 -7.5 4.24915e-15
    endloop
  endfacet
  facet normal 0 -3.44509e-16 -1
    outer loop
      vertex -4.64888 -1.84062 2.29945e-15
      vertex -4.52413 -2.1289 2.39876e-15
      vertex -6 -7.5 4.24915e-15
    endloop
  endfacet
  facet normal 0 -3.44509e-16 -1
    outer loop
      vertex -4.52413 -2.1289 2.39876e-15
      vertex -4.38153 -2.40877 2.49518e-15
      vertex -6 -7.5 4.24915e-15
    endloop
  endfacet
  facet normal 0 -3.44509e-16 -1
    outer loop
      vertex 2.40877 4.38153 1.55856e-16
      vertex 6 7.5 -9.18485e-16
      vertex 2.67913 4.22164 2.1094e-16
    endloop
  endfacet
  facet normal 0 -3.44509e-16 -1
    outer loop
      vertex -4.38153 -2.40877 2.49518e-15
      vertex -4.22164 -2.67913 2.58832e-15
      vertex -6 -7.5 4.24915e-15
    endloop
  endfacet
  facet normal 0 -3.44509e-16 -1
    outer loop
      vertex -4.22164 -2.67913 2.58832e-15
      vertex -4.04508 -2.93893 2.67782e-15
      vertex -6 -7.5 4.24915e-15
    endloop
  endfacet
  facet normal 0 -3.44509e-16 -1
    outer loop
      vertex -4.04508 -2.93893 2.67782e-15
      vertex -3.85257 -3.18712 2.76333e-15
      vertex -6 -7.5 4.24915e-15
    endloop
  endfacet
  facet normal 0 -3.44509e-16 -1
    outer loop
      vertex 2.67913 4.22164 2.1094e-16
      vertex 6 7.5 -9.18485e-16
      vertex 2.93893 4.04508 2.71765e-16
    endloop
  endfacet
  facet normal 0 -3.44509e-16 -1
    outer loop
      vertex -3.85257 -3.18712 2.76333e-15
      vertex -3.64484 -3.42274 2.8445e-15
      vertex -6 -7.5 4.24915e-15
    endloop
  endfacet
  facet normal 0 -3.44509e-16 -1
    outer loop
      vertex -3.64484 -3.42274 2.8445e-15
      vertex -3.42274 -3.64484 2.92102e-15
      vertex -6 -7.5 4.24915e-15
    endloop
  endfacet
  facet normal 0 -3.44509e-16 -1
    outer loop
      vertex -3.42274 -3.64484 2.92102e-15
      vertex -3.18712 -3.85257 2.99258e-15
      vertex -6 -7.5 4.24915e-15
    endloop
  endfacet
  facet normal 0 -3.44509e-16 -1
    outer loop
      vertex -1.24345 -4.84292 3.33376e-15
      vertex 6 -7.5 4.24915e-15
      vertex -1.54508 -4.75528 3.30357e-15
    endloop
  endfacet
  facet normal 0 -3.44509e-16 -1
    outer loop
      vertex -6 -7.5 4.24915e-15
      vertex -2.93893 -4.04508 3.0589e-15
      vertex -2.67913 -4.22164 3.11973e-15
    endloop
  endfacet
  facet normal 0 -3.44509e-16 -1
    outer loop
      vertex -6 -7.5 4.24915e-15
      vertex -2.67913 -4.22164 3.11973e-15
      vertex -2.40877 -4.38153 3.17481e-15
    endloop
  endfacet
  facet normal 0 -3.44509e-16 -1
    outer loop
      vertex -6 -7.5 4.24915e-15
      vertex -2.40877 -4.38153 3.17481e-15
      vertex -2.1289 -4.52413 3.22394e-15
    endloop
  endfacet
  facet normal 0 -3.44509e-16 -1
    outer loop
      vertex -6 -7.5 4.24915e-15
      vertex -2.1289 -4.52413 3.22394e-15
      vertex -1.84062 -4.64888 3.26692e-15
    endloop
  endfacet
  facet normal 0 -3.44509e-16 -1
    outer loop
      vertex -6 -7.5 4.24915e-15
      vertex -1.84062 -4.64888 3.26692e-15
      vertex 6 -7.5 4.24915e-15
    endloop
  endfacet
  facet normal 0 -3.44509e-16 -1
    outer loop
      vertex -1.84062 -4.64888 3.26692e-15
      vertex -1.54508 -4.75528 3.30357e-15
      vertex 6 -7.5 4.24915e-15
    endloop
  endfacet
  facet normal 0 -3.44509e-16 -1
    outer loop
      vertex -0.936907 -4.91144 3.35737e-15
      vertex 6 -7.5 4.24915e-15
      vertex -1.24345 -4.84292 3.33376e-15
    endloop
  endfacet
  facet normal 0 -3.44509e-16 -1
    outer loop
      vertex -0.626666 -4.96057 3.3743e-15
      vertex 6 -7.5 4.24915e-15
      vertex -0.936907 -4.91144 3.35737e-15
    endloop
  endfacet
  facet normal 0 -3.44509e-16 -1
    outer loop
      vertex -0.313953 -4.99013 3.38448e-15
      vertex 6 -7.5 4.24915e-15
      vertex -0.626666 -4.96057 3.3743e-15
    endloop
  endfacet
  facet normal 0 -3.44509e-16 -1
    outer loop
      vertex 2.93893 4.04508 2.71765e-16
      vertex 6 7.5 -9.18485e-16
      vertex 3.18712 3.85257 3.3809e-16
    endloop
  endfacet
  facet normal 0 -3.44509e-16 -1
    outer loop
      vertex 4.99013 -0.313953 1.77349e-15
      vertex 6 7.5 -9.18485e-16
      vertex 4.96057 -0.626666 1.88123e-15
    endloop
  endfacet
  facet normal 0 -3.44509e-16 -1
    outer loop
      vertex 3.64484 3.42274 4.8617e-16
      vertex 6 7.5 -9.18485e-16
      vertex 3.85257 3.18712 5.67342e-16
    endloop
  endfacet
  facet normal 0 -3.44509e-16 -1
    outer loop
      vertex -0.313953 -4.99013 3.38448e-15
      vertex 0 -5 3.38788e-15
      vertex 6 -7.5 4.24915e-15
    endloop
  endfacet
  facet normal 0 -3.44509e-16 -1
    outer loop
      vertex 0 -5 3.38788e-15
      vertex 0.313953 -4.99013 3.38448e-15
      vertex 6 -7.5 4.24915e-15
    endloop
  endfacet
  facet normal 0 -3.44509e-16 -1
    outer loop
      vertex 0.313953 -4.99013 3.38448e-15
      vertex 0.626666 -4.96057 3.3743e-15
      vertex 6 -7.5 4.24915e-15
    endloop
  endfacet
  facet normal 0 -3.44509e-16 -1
    outer loop
      vertex 3.85257 3.18712 5.67342e-16
      vertex 6 7.5 -9.18485e-16
      vertex 4.04508 2.93893 6.52847e-16
    endloop
  endfacet
  facet normal 0 -3.44509e-16 -1
    outer loop
      vertex 0.626666 -4.96057 3.3743e-15
      vertex 0.936907 -4.91144 3.35737e-15
      vertex 6 -7.5 4.24915e-15
    endloop
  endfacet
  facet normal 0 -3.44509e-16 -1
    outer loop
      vertex 0.936907 -4.91144 3.35737e-15
      vertex 1.24345 -4.84292 3.33376e-15
      vertex 6 -7.5 4.24915e-15
    endloop
  endfacet
  facet normal 0 -3.44509e-16 -1
    outer loop
      vertex 4.04508 2.93893 6.52847e-16
      vertex 6 7.5 -9.18485e-16
      vertex 4.22164 2.67913 7.42348e-16
    endloop
  endfacet
  facet normal 0 -3.44509e-16 -1
    outer loop
      vertex 1.24345 -4.84292 3.33376e-15
      vertex 1.54508 -4.75528 3.30357e-15
      vertex 6 -7.5 4.24915e-15
    endloop
  endfacet
  facet normal 0 -3.44509e-16 -1
    outer loop
      vertex 1.54508 -4.75528 3.30357e-15
      vertex 1.84062 -4.64888 3.26692e-15
      vertex 6 -7.5 4.24915e-15
    endloop
  endfacet
  facet normal 0 -3.44509e-16 -1
    outer loop
      vertex 1.84062 -4.64888 3.26692e-15
      vertex 2.1289 -4.52413 3.22394e-15
      vertex 6 -7.5 4.24915e-15
    endloop
  endfacet
  facet normal 0 -3.44509e-16 -1
    outer loop
      vertex 4.22164 2.67913 7.42348e-16
      vertex 6 7.5 -9.18485e-16
      vertex 4.38153 2.40877 8.35492e-16
    endloop
  endfacet
  facet normal 0 -3.44509e-16 -1
    outer loop
      vertex 2.1289 -4.52413 3.22394e-15
      vertex 2.40877 -4.38153 3.17481e-15
      vertex 6 -7.5 4.24915e-15
    endloop
  endfacet
  facet normal 0 -3.44509e-16 -1
    outer loop
      vertex 2.40877 -4.38153 3.17481e-15
      vertex 2.67913 -4.22164 3.11973e-15
      vertex 6 -7.5 4.24915e-15
    endloop
  endfacet
  facet normal 0 -3.44509e-16 -1
    outer loop
      vertex 4.38153 2.40877 8.35492e-16
      vertex 6 7.5 -9.18485e-16
      vertex 4.52413 2.1289 9.3191e-16
    endloop
  endfacet
  facet normal 0 -3.44509e-16 -1
    outer loop
      vertex 2.67913 -4.22164 3.11973e-15
      vertex 2.93893 -4.04508 3.0589e-15
      vertex 6 -7.5 4.24915e-15
    endloop
  endfacet
  facet normal 0 -3.44509e-16 -1
    outer loop
      vertex 2.93893 -4.04508 3.0589e-15
      vertex 3.18712 -3.85257 2.99258e-15
      vertex 6 -7.5 4.24915e-15
    endloop
  endfacet
  facet normal 0 -3.44509e-16 -1
    outer loop
      vertex 4.52413 2.1289 9.3191e-16
      vertex 6 7.5 -9.18485e-16
      vertex 4.64888 1.84062 1.03122e-15
    endloop
  endfacet
  facet normal 0 -3.44509e-16 -1
    outer loop
      vertex 3.18712 -3.85257 2.99258e-15
      vertex 3.42274 -3.64484 2.92102e-15
      vertex 6 -7.5 4.24915e-15
    endloop
  endfacet
  facet normal 0 -3.44509e-16 -1
    outer loop
      vertex 3.42274 -3.64484 2.92102e-15
      vertex 3.64484 -3.42274 2.8445e-15
      vertex 6 -7.5 4.24915e-15
    endloop
  endfacet
  facet normal 0 -3.44509e-16 -1
    outer loop
      vertex 4.64888 1.84062 1.03122e-15
      vertex 6 7.5 -9.18485e-16
      vertex 4.75528 1.54508 1.13304e-15
    endloop
  endfacet
  facet normal 0 -3.44509e-16 -1
    outer loop
      vertex 3.64484 -3.42274 2.8445e-15
      vertex 3.85257 -3.18712 2.76333e-15
      vertex 6 -7.5 4.24915e-15
    endloop
  endfacet
  facet normal 0 -3.44509e-16 -1
    outer loop
      vertex 3.85257 -3.18712 2.76333e-15
      vertex 4.04508 -2.93893 2.67782e-15
      vertex 6 -7.5 4.24915e-15
    endloop
  endfacet
  facet normal 0 -3.44509e-16 -1
    outer loop
      vertex 4.75528 1.54508 1.13304e-15
      vertex 6 7.5 -9.18485e-16
      vertex 4.84292 1.24345 1.23695e-15
    endloop
  endfacet
  facet normal 0 -3.44509e-16 -1
    outer loop
      vertex 4.04508 -2.93893 2.67782e-15
      vertex 4.22164 -2.67913 2.58832e-15
      vertex 6 -7.5 4.24915e-15
    endloop
  endfacet
  facet normal 0 -3.44509e-16 -1
    outer loop
      vertex 4.84292 1.24345 1.23695e-15
      vertex 6 7.5 -9.18485e-16
      vertex 4.91144 0.936907 1.34256e-15
    endloop
  endfacet
  facet normal 0 -3.44509e-16 -1
    outer loop
      vertex 4.22164 -2.67913 2.58832e-15
      vertex 4.38153 -2.40877 2.49518e-15
      vertex 6 -7.5 4.24915e-15
    endloop
  endfacet
  facet normal 0 -3.44509e-16 -1
    outer loop
      vertex 4.38153 -2.40877 2.49518e-15
      vertex 4.52413 -2.1289 2.39876e-15
      vertex 6 -7.5 4.24915e-15
    endloop
  endfacet
  facet normal 0 -3.44509e-16 -1
    outer loop
      vertex 4.91144 0.936907 1.34256e-15
      vertex 6 7.5 -9.18485e-16
      vertex 4.96057 0.626666 1.44944e-15
    endloop
  endfacet
  facet normal 0 -3.44509e-16 -1
    outer loop
      vertex 4.52413 -2.1289 2.39876e-15
      vertex 4.64888 -1.84062 2.29945e-15
      vertex 6 -7.5 4.24915e-15
    endloop
  endfacet
  facet normal 0 -3.44509e-16 -1
    outer loop
      vertex 4.96057 0.626666 1.44944e-15
      vertex 6 7.5 -9.18485e-16
      vertex 4.99013 0.313953 1.55717e-15
    endloop
  endfacet
  facet normal 0 -3.44509e-16 -1
    outer loop
      vertex 4.64888 -1.84062 2.29945e-15
      vertex 4.75528 -1.54508 2.19763e-15
      vertex 6 -7.5 4.24915e-15
    endloop
  endfacet
  facet normal 0 -3.44509e-16 -1
    outer loop
      vertex 4.99013 0.313953 1.55717e-15
      vertex 6 7.5 -9.18485e-16
      vertex 5 2.03945e-31 1.66533e-15
    endloop
  endfacet
  facet normal 0 -3.44509e-16 -1
    outer loop
      vertex 4.75528 -1.54508 2.19763e-15
      vertex 4.84292 -1.24345 2.09371e-15
      vertex 6 -7.5 4.24915e-15
    endloop
  endfacet
  facet normal 0 -3.44509e-16 -1
    outer loop
      vertex 5 2.03945e-31 1.66533e-15
      vertex 6 7.5 -9.18485e-16
      vertex 4.99013 -0.313953 1.77349e-15
    endloop
  endfacet
  facet normal 0 -3.44509e-16 -1
    outer loop
      vertex 4.84292 -1.24345 2.09371e-15
      vertex 4.91144 -0.936907 1.98811e-15
      vertex 6 -7.5 4.24915e-15
    endloop
  endfacet
  facet normal 0 -3.44509e-16 -1
    outer loop
      vertex 4.91144 -0.936907 1.98811e-15
      vertex 4.96057 -0.626666 1.88123e-15
      vertex 6 -7.5 4.24915e-15
    endloop
  endfacet
  facet normal 0 -3.44509e-16 -1
    outer loop
      vertex 3.42274 3.64484 4.09652e-16
      vertex 6 7.5 -9.18485e-16
      vertex 3.64484 3.42274 4.8617e-16
    endloop
  endfacet
  facet normal 0 -3.44509e-16 -1
    outer loop
      vertex 3.18712 3.85257 3.3809e-16
      vertex 6 7.5 -9.18485e-16
      vertex 3.42274 3.64484 4.09652e-16
    endloop
  endfacet
  facet normal 0 -3.44509e-16 -1
    outer loop
      vertex -6 7.5 -9.18485e-16
      vertex 6 7.5 -9.18485e-16
      vertex 1.54508 4.75528 2.70954e-17
    endloop
  endfacet
  facet normal 0 -3.44509e-16 -1
    outer loop
      vertex -6 7.5 -9.18485e-16
      vertex 1.54508 4.75528 2.70954e-17
      vertex 1.24345 4.84292 -3.09499e-18
    endloop
  endfacet
  facet normal 0 -3.44509e-16 -1
    outer loop
      vertex -6 7.5 -9.18485e-16
      vertex 1.24345 4.84292 -3.09499e-18
      vertex 0.936907 4.91144 -2.67008e-17
    endloop
  endfacet
  facet normal 0 -3.44509e-16 -1
    outer loop
      vertex -6 7.5 -9.18485e-16
      vertex 0.936907 4.91144 -2.67008e-17
      vertex 0.626666 4.96057 -4.36293e-17
    endloop
  endfacet
  facet normal 0 -3.44509e-16 -1
    outer loop
      vertex -6 7.5 -9.18485e-16
      vertex 0.626666 4.96057 -4.36293e-17
      vertex 0.313953 4.99013 -5.3813e-17
    endloop
  endfacet
  facet normal 0 -3.44509e-16 -1
    outer loop
      vertex -6 7.5 -9.18485e-16
      vertex 0.313953 4.99013 -5.3813e-17
      vertex 0 5 -5.72119e-17
    endloop
  endfacet
  facet normal 0 -3.44509e-16 -1
    outer loop
      vertex -6 7.5 -9.18485e-16
      vertex 0 5 -5.72119e-17
      vertex -0.313953 4.99013 -5.3813e-17
    endloop
  endfacet
  facet normal 0 -3.44509e-16 -1
    outer loop
      vertex -6 7.5 -9.18485e-16
      vertex -0.313953 4.99013 -5.3813e-17
      vertex -0.626666 4.96057 -4.36293e-17
    endloop
  endfacet
  facet normal 0 -3.44509e-16 -1
    outer loop
      vertex -6 7.5 -9.18485e-16
      vertex -0.626666 4.96057 -4.36293e-17
      vertex -0.936907 4.91144 -2.67008e-17
    endloop
  endfacet
  facet normal 0 -3.44509e-16 -1
    outer loop
      vertex -6 7.5 -9.18485e-16
      vertex -0.936907 4.91144 -2.67008e-17
      vertex -1.24345 4.84292 -3.09499e-18
    endloop
  endfacet
  facet normal 0 -3.44509e-16 -1
    outer loop
      vertex -6 7.5 -9.18485e-16
      vertex -1.24345 4.84292 -3.09499e-18
      vertex -1.54508 4.75528 2.70954e-17
    endloop
  endfacet
  facet normal 0 -3.44509e-16 -1
    outer loop
      vertex -6 7.5 -9.18485e-16
      vertex -1.54508 4.75528 2.70954e-17
      vertex -1.84062 4.64888 6.37515e-17
    endloop
  endfacet
  facet normal 0 -3.44509e-16 -1
    outer loop
      vertex -6 7.5 -9.18485e-16
      vertex -1.84062 4.64888 6.37515e-17
      vertex -2.1289 4.52413 1.06728e-16
    endloop
  endfacet
  facet normal 0 -3.44509e-16 -1
    outer loop
      vertex -6 7.5 -9.18485e-16
      vertex -2.1289 4.52413 1.06728e-16
      vertex -2.40877 4.38153 1.55856e-16
    endloop
  endfacet
  facet normal 0 -3.44509e-16 -1
    outer loop
      vertex -6 7.5 -9.18485e-16
      vertex -2.40877 4.38153 1.55856e-16
      vertex -2.67913 4.22164 2.1094e-16
    endloop
  endfacet
  facet normal 0 -3.44509e-16 -1
    outer loop
      vertex -6 7.5 -9.18485e-16
      vertex -2.67913 4.22164 2.1094e-16
      vertex -2.93893 4.04508 2.71765e-16
    endloop
  endfacet
  facet normal 0 -3.44509e-16 -1
    outer loop
      vertex -6 7.5 -9.18485e-16
      vertex -2.93893 4.04508 2.71765e-16
      vertex -3.18712 3.85257 3.3809e-16
    endloop
  endfacet
  facet normal 0 -3.44509e-16 -1
    outer loop
      vertex -6 7.5 -9.18485e-16
      vertex -3.18712 3.85257 3.3809e-16
      vertex -3.42274 3.64484 4.09652e-16
    endloop
  endfacet
  facet normal 0 -3.44509e-16 -1
    outer loop
      vertex -6 7.5 -9.18485e-16
      vertex -3.42274 3.64484 4.09652e-16
      vertex -3.64484 3.42274 4.8617e-16
    endloop
  endfacet
  facet normal 0 -3.44509e-16 -1
    outer loop
      vertex -6 7.5 -9.18485e-16
      vertex -3.64484 3.42274 4.8617e-16
      vertex -3.85257 3.18712 5.67342e-16
    endloop
  endfacet
  facet normal 0 -3.44509e-16 -1
    outer loop
      vertex -6 7.5 -9.18485e-16
      vertex -3.85257 3.18712 5.67342e-16
      vertex -4.04508 2.93893 6.52847e-16
    endloop
  endfacet
  facet normal 0 -3.44509e-16 -1
    outer loop
      vertex -6 7.5 -9.18485e-16
      vertex -4.04508 2.93893 6.52847e-16
      vertex -4.22164 2.67913 7.42348e-16
    endloop
  endfacet
  facet normal 0 -3.44509e-16 -1
    outer loop
      vertex -6 7.5 -9.18485e-16
      vertex -4.22164 2.67913 7.42348e-16
      vertex -4.38153 2.40877 8.35492e-16
    endloop
  endfacet
  facet normal 0 -3.44509e-16 -1
    outer loop
      vertex -6 7.5 -9.18485e-16
      vertex -4.38153 2.40877 8.35492e-16
      vertex -4.52413 2.1289 9.3191e-16
    endloop
  endfacet
  facet normal 0 -3.44509e-16 -1
    outer loop
      vertex -6 7.5 -9.18485e-16
      vertex -4.52413 2.1289 9.3191e-16
      vertex -4.64888 1.84062 1.03122e-15
    endloop
  endfacet
  facet normal 0 -3.44509e-16 -1
    outer loop
      vertex -6 7.5 -9.18485e-16
      vertex -4.64888 1.84062 1.03122e-15
      vertex -4.75528 1.54508 1.13304e-15
    endloop
  endfacet
  facet normal 0 -3.44509e-16 -1
    outer loop
      vertex -6 7.5 -9.18485e-16
      vertex -4.75528 1.54508 1.13304e-15
      vertex -4.84292 1.24345 1.23695e-15
    endloop
  endfacet
  facet normal 0 -3.44509e-16 -1
    outer loop
      vertex -6 7.5 -9.18485e-16
      vertex -4.84292 1.24345 1.23695e-15
      vertex -4.91144 0.936907 1.34256e-15
    endloop
  endfacet
  facet normal 0 -3.44509e-16 -1
    outer loop
      vertex -6 7.5 -9.18485e-16
      vertex -4.91144 0.936907 1.34256e-15
      vertex -4.96057 0.626666 1.44944e-15
    endloop
  endfacet
  facet normal 0 -3.44509e-16 -1
    outer loop
      vertex -6 7.5 -9.18485e-16
      vertex -4.96057 0.626666 1.44944e-15
      vertex -4.99013 0.313953 1.55717e-15
    endloop
  endfacet
  facet normal 0 -3.44509e-16 -1
    outer loop
      vertex -2.93893 -4.04508 3.0589e-15
      vertex -6 -7.5 4.24915e-15
      vertex -3.18712 -3.85257 2.99258e-15
    endloop
  endfacet
  facet normal 1 0 0
    outer loop
      vertex 6 7.5 -9.18485e-16
      vertex 6 7.5 1
      vertex 6 -7.5 1
    endloop
  endfacet
  facet normal 1 0 0
    outer loop
      vertex 6 -7.5 4.24915e-15
      vertex 6 7.5 -9.18485e-16
      vertex 6 -7.5 1
    endloop
  endfacet
  facet normal 0.707107 2.43605e-16 0.707107
    outer loop
      vertex 6 7.5 1
      vertex 3.2 7.5 3.8
      vertex 3.2 2.77128 3.8
    endloop
  endfacet
  facet normal 0.707107 2.43605e-16 0.707107
    outer loop
      vertex 4 2.28571 3
      vertex 6 7.5 1
      vertex 3.97949 2.32124 3.02051
    endloop
  endfacet
  facet normal 0.707107 2.43605e-16 0.707107
    outer loop
      vertex 3.97949 2.32124 3.02051
      vertex 6 7.5 1
      vertex 3.2 2.77128 3.8
    endloop
  endfacet
  facet normal 0.707107 2.43605e-16 0.707107
    outer loop
      vertex 4 2.28571 3
      vertex 3.97949 2.32124 3.02051
      vertex 3.95897 2.28571 3.04103
    endloop
  endfacet
  facet normal 0.707107 2.43605e-16 0.707107
    outer loop
      vertex 4 -2.28571 3
      vertex 6 7.5 1
      vertex 4 2.28571 3
    endloop
  endfacet
  facet normal 0.707107 2.43605e-16 0.707107
    outer loop
      vertex 3.2 -7.5 3.8
      vertex 6 7.5 1
      vertex 4 -2.28571 3
    endloop
  endfacet
  facet normal 0.707107 2.43605e-16 0.707107
    outer loop
      vertex 3.97949 -2.32124 3.02051
      vertex 4 -2.28571 3
      vertex 3.95897 -2.28571 3.04103
    endloop
  endfacet
  facet normal 0.707107 2.43605e-16 0.707107
    outer loop
      vertex 3.2 -7.5 3.8
      vertex 4 -2.28571 3
      vertex 3.97949 -2.32124 3.02051
    endloop
  endfacet
  facet normal 0.707107 2.43605e-16 0.707107
    outer loop
      vertex 3.2 -7.5 3.8
      vertex 3.97949 -2.32124 3.02051
      vertex 3.2 -2.77128 3.8
    endloop
  endfacet
  facet normal 0.707107 2.43605e-16 0.707107
    outer loop
      vertex 6 -7.5 1
      vertex 6 7.5 1
      vertex 3.2 -7.5 3.8
    endloop
  endfacet
  facet normal -0.5 -0.866025 1.06058e-16
    outer loop
      vertex 0.0205134 4.60696 1.2
      vertex 3.97949 2.32124 1.2
      vertex 3.97949 2.32124 3.02051
    endloop
  endfacet
  facet normal -0.5 -0.866025 1.06058e-16
    outer loop
      vertex 0.0205134 4.60696 3.8
      vertex 0.0205134 4.60696 1.2
      vertex 3.2 2.77128 3.8
    endloop
  endfacet
  facet normal -0.5 -0.866025 1.06058e-16
    outer loop
      vertex 3.2 2.77128 3.8
      vertex 0.0205134 4.60696 1.2
      vertex 3.97949 2.32124 3.02051
    endloop
  endfacet
  facet normal 0.866025 -0.5 6.12323e-17
    outer loop
      vertex -8.10611e-16 4.57143 1.2
      vertex 0.0205134 4.60696 1.2
      vertex 0.0205134 4.60696 3.8
    endloop
  endfacet
  facet normal 0.866025 -0.5 6.12323e-17
    outer loop
      vertex -8.10611e-16 4.57143 3.8
      vertex -8.10611e-16 4.57143 1.2
      vertex 0.0205134 4.60696 3.8
    endloop
  endfacet
  facet normal -0.866025 -0.5 6.12323e-17
    outer loop
      vertex -8.10611e-16 4.57143 1.2
      vertex -8.10611e-16 4.57143 3.8
      vertex -0.0205134 4.60696 1.2
    endloop
  endfacet
  facet normal -0.866025 -0.5 6.12323e-17
    outer loop
      vertex -0.0205134 4.60696 1.2
      vertex -8.10611e-16 4.57143 3.8
      vertex -0.0205134 4.60696 3.8
    endloop
  endfacet
  facet normal 0 -1.22465e-16 -1
    outer loop
      vertex -4.96057 0.626666 1.2
      vertex -4.91144 0.936907 1.2
      vertex -4.99013 0.313953 1.2
    endloop
  endfacet
  facet normal 0 -1.22465e-16 -1
    outer loop
      vertex -4.99013 0.313953 1.2
      vertex -4.91144 0.936907 1.2
      vertex -4.84292 1.24345 1.2
    endloop
  endfacet
  facet normal 0 -1.22465e-16 -1
    outer loop
      vertex -4.99013 0.313953 1.2
      vertex -4.84292 1.24345 1.2
      vertex -4.75528 1.54508 1.2
    endloop
  endfacet
  facet normal 0 -1.22465e-16 -1
    outer loop
      vertex -4.99013 0.313953 1.2
      vertex -4.75528 1.54508 1.2
      vertex -4.64888 1.84062 1.2
    endloop
  endfacet
  facet normal 0 -1.22465e-16 -1
    outer loop
      vertex -4.99013 0.313953 1.2
      vertex -4.64888 1.84062 1.2
      vertex -4.52413 2.1289 1.2
    endloop
  endfacet
  facet normal 0 -1.22465e-16 -1
    outer loop
      vertex -4.99013 0.313953 1.2
      vertex -4.52413 2.1289 1.2
      vertex -4.38153 2.40877 1.2
    endloop
  endfacet
  facet normal 0 -1.22465e-16 -1
    outer loop
      vertex -4.99013 0.313953 1.2
      vertex -4.38153 2.40877 1.2
      vertex -4.22164 2.67913 1.2
    endloop
  endfacet
  facet normal 0 -1.22465e-16 -1
    outer loop
      vertex -4.99013 0.313953 1.2
      vertex -4.22164 2.67913 1.2
      vertex -4.04508 2.93893 1.2
    endloop
  endfacet
  facet normal 0 -1.22465e-16 -1
    outer loop
      vertex -4.99013 0.313953 1.2
      vertex -4.04508 2.93893 1.2
      vertex -3.85257 3.18712 1.2
    endloop
  endfacet
  facet normal 0 -1.22465e-16 -1
    outer loop
      vertex -4.99013 0.313953 1.2
      vertex -3.85257 3.18712 1.2
      vertex -3.64484 3.42274 1.2
    endloop
  endfacet
  facet normal 0 -1.22465e-16 -1
    outer loop
      vertex -4.99013 0.313953 1.2
      vertex -3.64484 3.42274 1.2
      vertex -3.42274 3.64484 1.2
    endloop
  endfacet
  facet normal 0 -1.22465e-16 -1
    outer loop
      vertex -3.97949 2.32124 1.2
      vertex -3.42274 3.64484 1.2
      vertex -3.18712 3.85257 1.2
    endloop
  endfacet
  facet normal 0 -1.22465e-16 -1
    outer loop
      vertex 0.0205134 4.60696 1.2
      vertex 0.313953 4.99013 1.2
      vertex 0.626666 4.96057 1.2
    endloop
  endfacet
  facet normal 0 -1.22465e-16 -1
    outer loop
      vertex 3.97949 2.32124 1.2
      vertex 4.22164 2.67913 1.2
      vertex 4.38153 2.40877 1.2
    endloop
  endfacet
  facet normal 0 -1.22465e-16 -1
    outer loop
      vertex 4 2.28571 1.2
      vertex 4.38153 2.40877 1.2
      vertex 4.52413 2.1289 1.2
    endloop
  endfacet
  facet normal 0 -1.22465e-16 -1
    outer loop
      vertex 4 -2.28571 1.2
      vertex 4.52413 -2.1289 1.2
      vertex 4.38153 -2.40877 1.2
    endloop
  endfacet
  facet normal 0 -1.22465e-16 -1
    outer loop
      vertex 3.97949 -2.32124 1.2
      vertex 4.38153 -2.40877 1.2
      vertex 4.22164 -2.67913 1.2
    endloop
  endfacet
  facet normal 0 -1.22465e-16 -1
    outer loop
      vertex -0.0205134 -4.60696 1.2
      vertex 0.626666 -4.96057 1.2
      vertex 0.313953 -4.99013 1.2
    endloop
  endfacet
  facet normal 0 -1.22465e-16 -1
    outer loop
      vertex -0.0205134 -4.60696 1.2
      vertex -3.42274 -3.64484 1.2
      vertex -3.97949 -2.32124 1.2
    endloop
  endfacet
  facet normal 0 -1.22465e-16 -1
    outer loop
      vertex -0.0205134 -4.60696 1.2
      vertex -3.18712 -3.85257 1.2
      vertex -3.42274 -3.64484 1.2
    endloop
  endfacet
  facet normal 0 -1.22465e-16 -1
    outer loop
      vertex -0.0205134 -4.60696 1.2
      vertex -2.93893 -4.04508 1.2
      vertex -3.18712 -3.85257 1.2
    endloop
  endfacet
  facet normal 0 -1.22465e-16 -1
    outer loop
      vertex -0.0205134 -4.60696 1.2
      vertex -2.67913 -4.22164 1.2
      vertex -2.93893 -4.04508 1.2
    endloop
  endfacet
  facet normal 0 -1.22465e-16 -1
    outer loop
      vertex -0.0205134 -4.60696 1.2
      vertex -2.40877 -4.38153 1.2
      vertex -2.67913 -4.22164 1.2
    endloop
  endfacet
  facet normal 0 -1.22465e-16 -1
    outer loop
      vertex -0.0205134 -4.60696 1.2
      vertex -2.1289 -4.52413 1.2
      vertex -2.40877 -4.38153 1.2
    endloop
  endfacet
  facet normal 0 -1.22465e-16 -1
    outer loop
      vertex -0.0205134 -4.60696 1.2
      vertex -1.84062 -4.64888 1.2
      vertex -2.1289 -4.52413 1.2
    endloop
  endfacet
  facet normal 0 -1.22465e-16 -1
    outer loop
      vertex -0.0205134 -4.60696 1.2
      vertex -1.54508 -4.75528 1.2
      vertex -1.84062 -4.64888 1.2
    endloop
  endfacet
  facet normal 0 -1.22465e-16 -1
    outer loop
      vertex -0.0205134 -4.60696 1.2
      vertex -1.24345 -4.84292 1.2
      vertex -1.54508 -4.75528 1.2
    endloop
  endfacet
  facet normal 0 -1.22465e-16 -1
    outer loop
      vertex 3.97949 -2.32124 1.2
      vertex 0.936907 -4.91144 1.2
      vertex 0.626666 -4.96057 1.2
    endloop
  endfacet
  facet normal 0 -1.22465e-16 -1
    outer loop
      vertex -4 -2.28571 1.2
      vertex -3.42274 -3.64484 1.2
      vertex -3.64484 -3.42274 1.2
    endloop
  endfacet
  facet normal 0 -1.22465e-16 -1
    outer loop
      vertex -4.99013 0.313953 1.2
      vertex -3.64484 -3.42274 1.2
      vertex -3.85257 -3.18712 1.2
    endloop
  endfacet
  facet normal 0 -1.22465e-16 -1
    outer loop
      vertex -4.99013 0.313953 1.2
      vertex -3.85257 -3.18712 1.2
      vertex -4.04508 -2.93893 1.2
    endloop
  endfacet
  facet normal 0 -1.22465e-16 -1
    outer loop
      vertex -4.99013 0.313953 1.2
      vertex -4.04508 -2.93893 1.2
      vertex -4.22164 -2.67913 1.2
    endloop
  endfacet
  facet normal 0 -1.22465e-16 -1
    outer loop
      vertex -4.99013 0.313953 1.2
      vertex -4.22164 -2.67913 1.2
      vertex -4.38153 -2.40877 1.2
    endloop
  endfacet
  facet normal 0 -1.22465e-16 -1
    outer loop
      vertex -4.99013 0.313953 1.2
      vertex -4.38153 -2.40877 1.2
      vertex -4.52413 -2.1289 1.2
    endloop
  endfacet
  facet normal 0 -1.22465e-16 -1
    outer loop
      vertex -4.99013 0.313953 1.2
      vertex -4.52413 -2.1289 1.2
      vertex -4.64888 -1.84062 1.2
    endloop
  endfacet
  facet normal 0 -1.22465e-16 -1
    outer loop
      vertex -4.99013 0.313953 1.2
      vertex -4.64888 -1.84062 1.2
      vertex -4.75528 -1.54508 1.2
    endloop
  endfacet
  facet normal 0 -1.22465e-16 -1
    outer loop
      vertex -4.99013 0.313953 1.2
      vertex -4.75528 -1.54508 1.2
      vertex -4.84292 -1.24345 1.2
    endloop
  endfacet
  facet normal 0 -1.22465e-16 -1
    outer loop
      vertex -4.99013 0.313953 1.2
      vertex -4.84292 -1.24345 1.2
      vertex -4.91144 -0.936907 1.2
    endloop
  endfacet
  facet normal 0 -1.22465e-16 -1
    outer loop
      vertex -4.99013 0.313953 1.2
      vertex -4.91144 -0.936907 1.2
      vertex -4.96057 -0.626666 1.2
    endloop
  endfacet
  facet normal 0 -1.22465e-16 -1
    outer loop
      vertex -4.99013 0.313953 1.2
      vertex -4.96057 -0.626666 1.2
      vertex -4.99013 -0.313953 1.2
    endloop
  endfacet
  facet normal 0 -1.22465e-16 -1
    outer loop
      vertex -4.99013 0.313953 1.2
      vertex -4.99013 -0.313953 1.2
      vertex -5 1.46958e-16 1.2
    endloop
  endfacet
  facet normal 0 -1.22465e-16 -1
    outer loop
      vertex -3.97949 -2.32124 1.2
      vertex -3.42274 -3.64484 1.2
      vertex -4 -2.28571 1.2
    endloop
  endfacet
  facet normal 0 -1.22465e-16 -1
    outer loop
      vertex -4.99013 0.313953 1.2
      vertex -4 -2.28571 1.2
      vertex -3.64484 -3.42274 1.2
    endloop
  endfacet
  facet normal 0 -1.22465e-16 -1
    outer loop
      vertex -0.0205134 -4.60696 1.2
      vertex -0.936907 -4.91144 1.2
      vertex -1.24345 -4.84292 1.2
    endloop
  endfacet
  facet normal 0 -1.22465e-16 -1
    outer loop
      vertex -0.0205134 -4.60696 1.2
      vertex -0.626666 -4.96057 1.2
      vertex -0.936907 -4.91144 1.2
    endloop
  endfacet
  facet normal 0 -1.22465e-16 -1
    outer loop
      vertex -3.95897 -2.28571 1.2
      vertex -3.97949 -2.32124 1.2
      vertex -4 -2.28571 1.2
    endloop
  endfacet
  facet normal 0 -1.22465e-16 -1
    outer loop
      vertex 0.0205134 -4.60696 1.2
      vertex 0.626666 -4.96057 1.2
      vertex -0.0205134 -4.60696 1.2
    endloop
  endfacet
  facet normal 0 -1.22465e-16 -1
    outer loop
      vertex 8.10611e-16 -4.57143 1.2
      vertex 0.0205134 -4.60696 1.2
      vertex -0.0205134 -4.60696 1.2
    endloop
  endfacet
  facet normal 0 -1.22465e-16 -1
    outer loop
      vertex 3.95897 -2.28571 1.2
      vertex 4 -2.28571 1.2
      vertex 4.38153 -2.40877 1.2
    endloop
  endfacet
  facet normal 0 -1.22465e-16 -1
    outer loop
      vertex 3.95897 2.28571 1.2
      vertex 4.38153 2.40877 1.2
      vertex 4 2.28571 1.2
    endloop
  endfacet
  facet normal 0 -1.22465e-16 -1
    outer loop
      vertex -0.0205134 4.60696 1.2
      vertex 0.313953 4.99013 1.2
      vertex 0.0205134 4.60696 1.2
    endloop
  endfacet
  facet normal 0 -1.22465e-16 -1
    outer loop
      vertex -0.0205134 4.60696 1.2
      vertex 0.0205134 4.60696 1.2
      vertex -8.10611e-16 4.57143 1.2
    endloop
  endfacet
  facet normal 0 -1.22465e-16 -1
    outer loop
      vertex -4 2.28571 1.2
      vertex -3.42274 3.64484 1.2
      vertex -3.97949 2.32124 1.2
    endloop
  endfacet
  facet normal 0 -1.22465e-16 -1
    outer loop
      vertex -4.99013 0.313953 1.2
      vertex -3.42274 3.64484 1.2
      vertex -4 2.28571 1.2
    endloop
  endfacet
  facet normal 0 -1.22465e-16 -1
    outer loop
      vertex -4 -2.28571 1.2
      vertex -4.99013 0.313953 1.2
      vertex -4 2.28571 1.2
    endloop
  endfacet
  facet normal 0 -1.22465e-16 -1
    outer loop
      vertex -4 2.28571 1.2
      vertex -3.97949 2.32124 1.2
      vertex -3.95897 2.28571 1.2
    endloop
  endfacet
  facet normal 0 -1.22465e-16 -1
    outer loop
      vertex -3.97949 2.32124 1.2
      vertex -3.18712 3.85257 1.2
      vertex -2.93893 4.04508 1.2
    endloop
  endfacet
  facet normal 0 -1.22465e-16 -1
    outer loop
      vertex -3.97949 2.32124 1.2
      vertex -2.93893 4.04508 1.2
      vertex -2.67913 4.22164 1.2
    endloop
  endfacet
  facet normal 0 -1.22465e-16 -1
    outer loop
      vertex -3.97949 2.32124 1.2
      vertex -2.67913 4.22164 1.2
      vertex -2.40877 4.38153 1.2
    endloop
  endfacet
  facet normal 0 -1.22465e-16 -1
    outer loop
      vertex -3.97949 2.32124 1.2
      vertex -2.40877 4.38153 1.2
      vertex -2.1289 4.52413 1.2
    endloop
  endfacet
  facet normal 0 -1.22465e-16 -1
    outer loop
      vertex -3.97949 2.32124 1.2
      vertex -2.1289 4.52413 1.2
      vertex -1.84062 4.64888 1.2
    endloop
  endfacet
  facet normal 0 -1.22465e-16 -1
    outer loop
      vertex -3.97949 2.32124 1.2
      vertex -1.84062 4.64888 1.2
      vertex -1.54508 4.75528 1.2
    endloop
  endfacet
  facet normal 0 -1.22465e-16 -1
    outer loop
      vertex -3.97949 2.32124 1.2
      vertex -1.54508 4.75528 1.2
      vertex -1.24345 4.84292 1.2
    endloop
  endfacet
  facet normal 0 -1.22465e-16 -1
    outer loop
      vertex -3.97949 2.32124 1.2
      vertex -1.24345 4.84292 1.2
      vertex -0.936907 4.91144 1.2
    endloop
  endfacet
  facet normal 0 -1.22465e-16 -1
    outer loop
      vertex -3.97949 2.32124 1.2
      vertex -0.936907 4.91144 1.2
      vertex -0.626666 4.96057 1.2
    endloop
  endfacet
  facet normal 0 -1.22465e-16 -1
    outer loop
      vertex -3.97949 2.32124 1.2
      vertex -0.626666 4.96057 1.2
      vertex -0.313953 4.99013 1.2
    endloop
  endfacet
  facet normal 0 -1.22465e-16 -1
    outer loop
      vertex -3.97949 2.32124 1.2
      vertex -0.313953 4.99013 1.2
      vertex 0 5 1.2
    endloop
  endfacet
  facet normal 0 -1.22465e-16 -1
    outer loop
      vertex -3.97949 2.32124 1.2
      vertex 0 5 1.2
      vertex 0.313953 4.99013 1.2
    endloop
  endfacet
  facet normal 0 -1.22465e-16 -1
    outer loop
      vertex -3.97949 2.32124 1.2
      vertex 0.313953 4.99013 1.2
      vertex -0.0205134 4.60696 1.2
    endloop
  endfacet
  facet normal 0 -1.22465e-16 -1
    outer loop
      vertex 3.97949 2.32124 1.2
      vertex 4.38153 2.40877 1.2
      vertex 3.95897 2.28571 1.2
    endloop
  endfacet
  facet normal 0 -1.22465e-16 -1
    outer loop
      vertex 0.0205134 4.60696 1.2
      vertex 0.626666 4.96057 1.2
      vertex 0.936907 4.91144 1.2
    endloop
  endfacet
  facet normal 0 -1.22465e-16 -1
    outer loop
      vertex 0.0205134 4.60696 1.2
      vertex 0.936907 4.91144 1.2
      vertex 1.24345 4.84292 1.2
    endloop
  endfacet
  facet normal 0 -1.22465e-16 -1
    outer loop
      vertex 0.0205134 4.60696 1.2
      vertex 1.24345 4.84292 1.2
      vertex 1.54508 4.75528 1.2
    endloop
  endfacet
  facet normal 0 -1.22465e-16 -1
    outer loop
      vertex 0.0205134 4.60696 1.2
      vertex 1.54508 4.75528 1.2
      vertex 1.84062 4.64888 1.2
    endloop
  endfacet
  facet normal 0 -1.22465e-16 -1
    outer loop
      vertex 0.0205134 4.60696 1.2
      vertex 1.84062 4.64888 1.2
      vertex 2.1289 4.52413 1.2
    endloop
  endfacet
  facet normal 0 -1.22465e-16 -1
    outer loop
      vertex 0.0205134 4.60696 1.2
      vertex 2.1289 4.52413 1.2
      vertex 2.40877 4.38153 1.2
    endloop
  endfacet
  facet normal 0 -1.22465e-16 -1
    outer loop
      vertex 0.0205134 4.60696 1.2
      vertex 2.40877 4.38153 1.2
      vertex 2.67913 4.22164 1.2
    endloop
  endfacet
  facet normal 0 -1.22465e-16 -1
    outer loop
      vertex 0.0205134 4.60696 1.2
      vertex 2.67913 4.22164 1.2
      vertex 2.93893 4.04508 1.2
    endloop
  endfacet
  facet normal 0 -1.22465e-16 -1
    outer loop
      vertex 0.0205134 4.60696 1.2
      vertex 2.93893 4.04508 1.2
      vertex 3.18712 3.85257 1.2
    endloop
  endfacet
  facet normal 0 -1.22465e-16 -1
    outer loop
      vertex 0.0205134 4.60696 1.2
      vertex 3.18712 3.85257 1.2
      vertex 3.42274 3.64484 1.2
    endloop
  endfacet
  facet normal 0 -1.22465e-16 -1
    outer loop
      vertex 0.0205134 4.60696 1.2
      vertex 3.42274 3.64484 1.2
      vertex 3.64484 3.42274 1.2
    endloop
  endfacet
  facet normal 0 -1.22465e-16 -1
    outer loop
      vertex 0.0205134 4.60696 1.2
      vertex 3.64484 3.42274 1.2
      vertex 3.85257 3.18712 1.2
    endloop
  endfacet
  facet normal 0 -1.22465e-16 -1
    outer loop
      vertex 0.0205134 4.60696 1.2
      vertex 3.85257 3.18712 1.2
      vertex 4.04508 2.93893 1.2
    endloop
  endfacet
  facet normal 0 -1.22465e-16 -1
    outer loop
      vertex 0.0205134 4.60696 1.2
      vertex 4.04508 2.93893 1.2
      vertex 4.22164 2.67913 1.2
    endloop
  endfacet
  facet normal 0 -1.22465e-16 -1
    outer loop
      vertex 0.0205134 4.60696 1.2
      vertex 4.22164 2.67913 1.2
      vertex 3.97949 2.32124 1.2
    endloop
  endfacet
  facet normal 0 -1.22465e-16 -1
    outer loop
      vertex 3.95897 -2.28571 1.2
      vertex 4.38153 -2.40877 1.2
      vertex 3.97949 -2.32124 1.2
    endloop
  endfacet
  facet normal 0 -1.22465e-16 -1
    outer loop
      vertex 4 2.28571 1.2
      vertex 4.52413 2.1289 1.2
      vertex 4.64888 1.84062 1.2
    endloop
  endfacet
  facet normal 0 -1.22465e-16 -1
    outer loop
      vertex 4 2.28571 1.2
      vertex 4.64888 1.84062 1.2
      vertex 4.75528 1.54508 1.2
    endloop
  endfacet
  facet normal 0 -1.22465e-16 -1
    outer loop
      vertex 4 2.28571 1.2
      vertex 4.75528 1.54508 1.2
      vertex 4.84292 1.24345 1.2
    endloop
  endfacet
  facet normal 0 -1.22465e-16 -1
    outer loop
      vertex 4 2.28571 1.2
      vertex 4.84292 1.24345 1.2
      vertex 4.91144 0.936907 1.2
    endloop
  endfacet
  facet normal 0 -1.22465e-16 -1
    outer loop
      vertex 4 2.28571 1.2
      vertex 4.91144 0.936907 1.2
      vertex 4.96057 0.626666 1.2
    endloop
  endfacet
  facet normal 0 -1.22465e-16 -1
    outer loop
      vertex 4 2.28571 1.2
      vertex 4.96057 0.626666 1.2
      vertex 4.99013 0.313953 1.2
    endloop
  endfacet
  facet normal 0 -1.22465e-16 -1
    outer loop
      vertex 4 2.28571 1.2
      vertex 4.99013 0.313953 1.2
      vertex 5 1.46958e-16 1.2
    endloop
  endfacet
  facet normal 0 -1.22465e-16 -1
    outer loop
      vertex 4 2.28571 1.2
      vertex 5 1.46958e-16 1.2
      vertex 4.99013 -0.313953 1.2
    endloop
  endfacet
  facet normal 0 -1.22465e-16 -1
    outer loop
      vertex 4 2.28571 1.2
      vertex 4.99013 -0.313953 1.2
      vertex 4.96057 -0.626666 1.2
    endloop
  endfacet
  facet normal 0 -1.22465e-16 -1
    outer loop
      vertex 4 2.28571 1.2
      vertex 4.96057 -0.626666 1.2
      vertex 4.91144 -0.936907 1.2
    endloop
  endfacet
  facet normal 0 -1.22465e-16 -1
    outer loop
      vertex 4 2.28571 1.2
      vertex 4.91144 -0.936907 1.2
      vertex 4.84292 -1.24345 1.2
    endloop
  endfacet
  facet normal 0 -1.22465e-16 -1
    outer loop
      vertex 4 2.28571 1.2
      vertex 4.84292 -1.24345 1.2
      vertex 4.75528 -1.54508 1.2
    endloop
  endfacet
  facet normal 0 -1.22465e-16 -1
    outer loop
      vertex 4 2.28571 1.2
      vertex 4.75528 -1.54508 1.2
      vertex 4.64888 -1.84062 1.2
    endloop
  endfacet
  facet normal 0 -1.22465e-16 -1
    outer loop
      vertex 4 2.28571 1.2
      vertex 4.64888 -1.84062 1.2
      vertex 4.52413 -2.1289 1.2
    endloop
  endfacet
  facet normal 0 -1.22465e-16 -1
    outer loop
      vertex 4 2.28571 1.2
      vertex 4.52413 -2.1289 1.2
      vertex 4 -2.28571 1.2
    endloop
  endfacet
  facet normal 0 -1.22465e-16 -1
    outer loop
      vertex -0.0205134 -4.60696 1.2
      vertex 0.313953 -4.99013 1.2
      vertex 0 -5 1.2
    endloop
  endfacet
  facet normal 0 -1.22465e-16 -1
    outer loop
      vertex 3.97949 -2.32124 1.2
      vertex 4.22164 -2.67913 1.2
      vertex 4.04508 -2.93893 1.2
    endloop
  endfacet
  facet normal 0 -1.22465e-16 -1
    outer loop
      vertex 3.97949 -2.32124 1.2
      vertex 4.04508 -2.93893 1.2
      vertex 3.85257 -3.18712 1.2
    endloop
  endfacet
  facet normal 0 -1.22465e-16 -1
    outer loop
      vertex 3.97949 -2.32124 1.2
      vertex 3.85257 -3.18712 1.2
      vertex 3.64484 -3.42274 1.2
    endloop
  endfacet
  facet normal 0 -1.22465e-16 -1
    outer loop
      vertex 3.97949 -2.32124 1.2
      vertex 3.64484 -3.42274 1.2
      vertex 3.42274 -3.64484 1.2
    endloop
  endfacet
  facet normal 0 -1.22465e-16 -1
    outer loop
      vertex 3.97949 -2.32124 1.2
      vertex 3.42274 -3.64484 1.2
      vertex 3.18712 -3.85257 1.2
    endloop
  endfacet
  facet normal 0 -1.22465e-16 -1
    outer loop
      vertex 3.97949 -2.32124 1.2
      vertex 3.18712 -3.85257 1.2
      vertex 2.93893 -4.04508 1.2
    endloop
  endfacet
  facet normal 0 -1.22465e-16 -1
    outer loop
      vertex 3.97949 -2.32124 1.2
      vertex 2.93893 -4.04508 1.2
      vertex 2.67913 -4.22164 1.2
    endloop
  endfacet
  facet normal 0 -1.22465e-16 -1
    outer loop
      vertex 3.97949 -2.32124 1.2
      vertex 2.67913 -4.22164 1.2
      vertex 2.40877 -4.38153 1.2
    endloop
  endfacet
  facet normal 0 -1.22465e-16 -1
    outer loop
      vertex 3.97949 -2.32124 1.2
      vertex 2.40877 -4.38153 1.2
      vertex 2.1289 -4.52413 1.2
    endloop
  endfacet
  facet normal 0 -1.22465e-16 -1
    outer loop
      vertex 3.97949 -2.32124 1.2
      vertex 2.1289 -4.52413 1.2
      vertex 1.84062 -4.64888 1.2
    endloop
  endfacet
  facet normal 0 -1.22465e-16 -1
    outer loop
      vertex 3.97949 -2.32124 1.2
      vertex 1.84062 -4.64888 1.2
      vertex 1.54508 -4.75528 1.2
    endloop
  endfacet
  facet normal 0 -1.22465e-16 -1
    outer loop
      vertex 3.97949 -2.32124 1.2
      vertex 1.54508 -4.75528 1.2
      vertex 1.24345 -4.84292 1.2
    endloop
  endfacet
  facet normal 0 -1.22465e-16 -1
    outer loop
      vertex 3.97949 -2.32124 1.2
      vertex 1.24345 -4.84292 1.2
      vertex 0.936907 -4.91144 1.2
    endloop
  endfacet
  facet normal 0 -1.22465e-16 -1
    outer loop
      vertex 3.97949 -2.32124 1.2
      vertex 0.626666 -4.96057 1.2
      vertex 0.0205134 -4.60696 1.2
    endloop
  endfacet
  facet normal 0 -1.22465e-16 -1
    outer loop
      vertex -0.0205134 -4.60696 1.2
      vertex 0 -5 1.2
      vertex -0.313953 -4.99013 1.2
    endloop
  endfacet
  facet normal 0 -1.22465e-16 -1
    outer loop
      vertex -0.0205134 -4.60696 1.2
      vertex -0.313953 -4.99013 1.2
      vertex -0.626666 -4.96057 1.2
    endloop
  endfacet
  facet normal -0.866025 0.5 -6.12323e-17
    outer loop
      vertex 8.10611e-16 -4.57143 1.2
      vertex -0.0205134 -4.60696 1.2
      vertex 8.10611e-16 -4.57143 3.8
    endloop
  endfacet
  facet normal -0.866025 0.5 -6.12323e-17
    outer loop
      vertex 8.10611e-16 -4.57143 3.8
      vertex -0.0205134 -4.60696 1.2
      vertex -0.0205134 -4.60696 3.8
    endloop
  endfacet
  facet normal 0.866025 0.5 -6.12323e-17
    outer loop
      vertex 0.0205134 -4.60696 3.8
      vertex 0.0205134 -4.60696 1.2
      vertex 8.10611e-16 -4.57143 1.2
    endloop
  endfacet
  facet normal 0.866025 0.5 -6.12323e-17
    outer loop
      vertex 8.10611e-16 -4.57143 3.8
      vertex 0.0205134 -4.60696 3.8
      vertex 8.10611e-16 -4.57143 1.2
    endloop
  endfacet
  facet normal -0.5 0.866025 -1.06058e-16
    outer loop
      vertex 3.97949 -2.32124 3.02051
      vertex 3.97949 -2.32124 1.2
      vertex 3.2 -2.77128 3.8
    endloop
  endfacet
  facet normal -0.5 0.866025 -1.06058e-16
    outer loop
      vertex 3.2 -2.77128 3.8
      vertex 3.97949 -2.32124 1.2
      vertex 0.0205134 -4.60696 1.2
    endloop
  endfacet
  facet normal -0.5 0.866025 -1.06058e-16
    outer loop
      vertex 3.2 -2.77128 3.8
      vertex 0.0205134 -4.60696 1.2
      vertex 0.0205134 -4.60696 3.8
    endloop
  endfacet
  facet normal 0.999507 -0.0314096 3.84656e-18
    outer loop
      vertex -5 2.03945e-31 1.66533e-15
      vertex -4.99013 0.313953 1.55717e-15
      vertex -4.99013 0.313953 1.2
    endloop
  endfacet
  facet normal 0.999507 -0.0314096 3.84656e-18
    outer loop
      vertex -5 1.46958e-16 1.2
      vertex -5 2.03945e-31 1.66533e-15
      vertex -4.99013 0.313953 1.2
    endloop
  endfacet
  facet normal 0.995562 -0.0941081 1.15249e-17
    outer loop
      vertex -4.99013 0.313953 1.55717e-15
      vertex -4.96057 0.626666 1.44944e-15
      vertex -4.96057 0.626666 1.2
    endloop
  endfacet
  facet normal 0.995562 -0.0941081 1.15249e-17
    outer loop
      vertex -4.99013 0.313953 1.2
      vertex -4.99013 0.313953 1.55717e-15
      vertex -4.96057 0.626666 1.2
    endloop
  endfacet
  facet normal 0.987688 -0.156436 1.91579e-17
    outer loop
      vertex -4.96057 0.626666 1.44944e-15
      vertex -4.91144 0.936907 1.34256e-15
      vertex -4.91144 0.936907 1.2
    endloop
  endfacet
  facet normal 0.987688 -0.156436 1.91579e-17
    outer loop
      vertex -4.96057 0.626666 1.2
      vertex -4.96057 0.626666 1.44944e-15
      vertex -4.91144 0.936907 1.2
    endloop
  endfacet
  facet normal 0.975917 -0.218142 2.67147e-17
    outer loop
      vertex -4.91144 0.936907 1.34256e-15
      vertex -4.84292 1.24345 1.23695e-15
      vertex -4.84292 1.24345 1.2
    endloop
  endfacet
  facet normal 0.975917 -0.218142 2.67147e-17
    outer loop
      vertex -4.91144 0.936907 1.2
      vertex -4.91144 0.936907 1.34256e-15
      vertex -4.84292 1.24345 1.2
    endloop
  endfacet
  facet normal 0.960294 -0.27899 3.41664e-17
    outer loop
      vertex -4.84292 1.24345 1.23695e-15
      vertex -4.75528 1.54508 1.13304e-15
      vertex -4.75528 1.54508 1.2
    endloop
  endfacet
  facet normal 0.960294 -0.27899 3.41664e-17
    outer loop
      vertex -4.84292 1.24345 1.2
      vertex -4.84292 1.24345 1.23695e-15
      vertex -4.75528 1.54508 1.2
    endloop
  endfacet
  facet normal 0.94088 -0.33874 4.14837e-17
    outer loop
      vertex -4.75528 1.54508 1.13304e-15
      vertex -4.64888 1.84062 1.03122e-15
      vertex -4.64888 1.84062 1.2
    endloop
  endfacet
  facet normal 0.94088 -0.33874 4.14837e-17
    outer loop
      vertex -4.75528 1.54508 1.2
      vertex -4.75528 1.54508 1.13304e-15
      vertex -4.64888 1.84062 1.2
    endloop
  endfacet
  facet normal 0.917754 -0.397148 4.86366e-17
    outer loop
      vertex -4.64888 1.84062 1.03122e-15
      vertex -4.52413 2.1289 9.3191e-16
      vertex -4.52413 2.1289 1.2
    endloop
  endfacet
  facet normal 0.917754 -0.397148 4.86366e-17
    outer loop
      vertex -4.64888 1.84062 1.2
      vertex -4.64888 1.84062 1.03122e-15
      vertex -4.52413 2.1289 1.2
    endloop
  endfacet
  facet normal 0.891006 -0.453991 5.55978e-17
    outer loop
      vertex -4.52413 2.1289 9.3191e-16
      vertex -4.38153 2.40877 8.35492e-16
      vertex -4.38153 2.40877 1.2
    endloop
  endfacet
  facet normal 0.891006 -0.453991 5.55978e-17
    outer loop
      vertex -4.52413 2.1289 1.2
      vertex -4.52413 2.1289 9.3191e-16
      vertex -4.38153 2.40877 1.2
    endloop
  endfacet
  facet normal 0.860743 -0.509039 6.23393e-17
    outer loop
      vertex -4.38153 2.40877 8.35492e-16
      vertex -4.22164 2.67913 7.42348e-16
      vertex -4.22164 2.67913 1.2
    endloop
  endfacet
  facet normal 0.860743 -0.509039 6.23393e-17
    outer loop
      vertex -4.38153 2.40877 1.2
      vertex -4.38153 2.40877 8.35492e-16
      vertex -4.22164 2.67913 1.2
    endloop
  endfacet
  facet normal 0.82708 -0.562085 6.88355e-17
    outer loop
      vertex -4.22164 2.67913 7.42348e-16
      vertex -4.04508 2.93893 6.52847e-16
      vertex -4.04508 2.93893 1.2
    endloop
  endfacet
  facet normal 0.82708 -0.562085 6.88355e-17
    outer loop
      vertex -4.22164 2.67913 1.2
      vertex -4.22164 2.67913 7.42348e-16
      vertex -4.04508 2.93893 1.2
    endloop
  endfacet
  facet normal 0.790155 -0.612907 7.50595e-17
    outer loop
      vertex -4.04508 2.93893 6.52847e-16
      vertex -3.85257 3.18712 5.67342e-16
      vertex -3.85257 3.18712 1.2
    endloop
  endfacet
  facet normal 0.790155 -0.612907 7.50595e-17
    outer loop
      vertex -4.04508 2.93893 1.2
      vertex -4.04508 2.93893 6.52847e-16
      vertex -3.85257 3.18712 1.2
    endloop
  endfacet
  facet normal 0.750112 -0.661311 8.09872e-17
    outer loop
      vertex -3.85257 3.18712 5.67342e-16
      vertex -3.64484 3.42274 4.8617e-16
      vertex -3.64484 3.42274 1.2
    endloop
  endfacet
  facet normal 0.750112 -0.661311 8.09872e-17
    outer loop
      vertex -3.85257 3.18712 1.2
      vertex -3.85257 3.18712 5.67342e-16
      vertex -3.64484 3.42274 1.2
    endloop
  endfacet
  facet normal 0.707107 -0.707107 8.65956e-17
    outer loop
      vertex -3.64484 3.42274 4.8617e-16
      vertex -3.42274 3.64484 4.09652e-16
      vertex -3.42274 3.64484 1.2
    endloop
  endfacet
  facet normal 0.707107 -0.707107 8.65956e-17
    outer loop
      vertex -3.64484 3.42274 1.2
      vertex -3.64484 3.42274 4.8617e-16
      vertex -3.42274 3.64484 1.2
    endloop
  endfacet
  facet normal 0.661311 -0.750112 9.18622e-17
    outer loop
      vertex -3.42274 3.64484 4.09652e-16
      vertex -3.18712 3.85257 3.3809e-16
      vertex -3.18712 3.85257 1.2
    endloop
  endfacet
  facet normal 0.661311 -0.750112 9.18622e-17
    outer loop
      vertex -3.42274 3.64484 1.2
      vertex -3.42274 3.64484 4.09652e-16
      vertex -3.18712 3.85257 1.2
    endloop
  endfacet
  facet normal 0.612907 -0.790155 9.67661e-17
    outer loop
      vertex -3.18712 3.85257 3.3809e-16
      vertex -2.93893 4.04508 2.71765e-16
      vertex -2.93893 4.04508 1.2
    endloop
  endfacet
  facet normal 0.612907 -0.790155 9.67661e-17
    outer loop
      vertex -3.18712 3.85257 1.2
      vertex -3.18712 3.85257 3.3809e-16
      vertex -2.93893 4.04508 1.2
    endloop
  endfacet
  facet normal 0.562085 -0.82708 1.01288e-16
    outer loop
      vertex -2.93893 4.04508 2.71765e-16
      vertex -2.67913 4.22164 2.1094e-16
      vertex -2.67913 4.22164 1.2
    endloop
  endfacet
  facet normal 0.562085 -0.82708 1.01288e-16
    outer loop
      vertex -2.93893 4.04508 1.2
      vertex -2.93893 4.04508 2.71765e-16
      vertex -2.67913 4.22164 1.2
    endloop
  endfacet
  facet normal 0.509039 -0.860743 1.05411e-16
    outer loop
      vertex -2.67913 4.22164 2.1094e-16
      vertex -2.40877 4.38153 1.55856e-16
      vertex -2.40877 4.38153 1.2
    endloop
  endfacet
  facet normal 0.509039 -0.860743 1.05411e-16
    outer loop
      vertex -2.67913 4.22164 1.2
      vertex -2.67913 4.22164 2.1094e-16
      vertex -2.40877 4.38153 1.2
    endloop
  endfacet
  facet normal 0.453991 -0.891006 1.09117e-16
    outer loop
      vertex -2.40877 4.38153 1.55856e-16
      vertex -2.1289 4.52413 1.06728e-16
      vertex -2.1289 4.52413 1.2
    endloop
  endfacet
  facet normal 0.453991 -0.891006 1.09117e-16
    outer loop
      vertex -2.40877 4.38153 1.2
      vertex -2.40877 4.38153 1.55856e-16
      vertex -2.1289 4.52413 1.2
    endloop
  endfacet
  facet normal 0.397148 -0.917754 1.12393e-16
    outer loop
      vertex -2.1289 4.52413 1.06728e-16
      vertex -1.84062 4.64888 6.37515e-17
      vertex -1.84062 4.64888 1.2
    endloop
  endfacet
  facet normal 0.397148 -0.917754 1.12393e-16
    outer loop
      vertex -2.1289 4.52413 1.2
      vertex -2.1289 4.52413 1.06728e-16
      vertex -1.84062 4.64888 1.2
    endloop
  endfacet
  facet normal 0.33874 -0.94088 1.15225e-16
    outer loop
      vertex -1.84062 4.64888 6.37515e-17
      vertex -1.54508 4.75528 2.70954e-17
      vertex -1.54508 4.75528 1.2
    endloop
  endfacet
  facet normal 0.33874 -0.94088 1.15225e-16
    outer loop
      vertex -1.84062 4.64888 1.2
      vertex -1.84062 4.64888 6.37515e-17
      vertex -1.54508 4.75528 1.2
    endloop
  endfacet
  facet normal 0.27899 -0.960294 1.17602e-16
    outer loop
      vertex -1.54508 4.75528 2.70954e-17
      vertex -1.24345 4.84292 -3.09499e-18
      vertex -1.24345 4.84292 1.2
    endloop
  endfacet
  facet normal 0.27899 -0.960294 1.17602e-16
    outer loop
      vertex -1.54508 4.75528 1.2
      vertex -1.54508 4.75528 2.70954e-17
      vertex -1.24345 4.84292 1.2
    endloop
  endfacet
  facet normal 0.218142 -0.975917 1.19515e-16
    outer loop
      vertex -1.24345 4.84292 -3.09499e-18
      vertex -0.936907 4.91144 -2.67008e-17
      vertex -0.936907 4.91144 1.2
    endloop
  endfacet
  facet normal 0.218142 -0.975917 1.19515e-16
    outer loop
      vertex -1.24345 4.84292 1.2
      vertex -1.24345 4.84292 -3.09499e-18
      vertex -0.936907 4.91144 1.2
    endloop
  endfacet
  facet normal 0.156436 -0.987688 1.20957e-16
    outer loop
      vertex -0.936907 4.91144 -2.67008e-17
      vertex -0.626666 4.96057 -4.36293e-17
      vertex -0.626666 4.96057 1.2
    endloop
  endfacet
  facet normal 0.156436 -0.987688 1.20957e-16
    outer loop
      vertex -0.936907 4.91144 1.2
      vertex -0.936907 4.91144 -2.67008e-17
      vertex -0.626666 4.96057 1.2
    endloop
  endfacet
  facet normal 0.0941081 -0.995562 1.21921e-16
    outer loop
      vertex -0.626666 4.96057 -4.36293e-17
      vertex -0.313953 4.99013 -5.3813e-17
      vertex -0.313953 4.99013 1.2
    endloop
  endfacet
  facet normal 0.0941081 -0.995562 1.21921e-16
    outer loop
      vertex -0.626666 4.96057 1.2
      vertex -0.626666 4.96057 -4.36293e-17
      vertex -0.313953 4.99013 1.2
    endloop
  endfacet
  facet normal 0.0314096 -0.999507 1.22404e-16
    outer loop
      vertex -0.313953 4.99013 -5.3813e-17
      vertex 0 5 -5.72119e-17
      vertex 0 5 1.2
    endloop
  endfacet
  facet normal 0.0314096 -0.999507 1.22404e-16
    outer loop
      vertex -0.313953 4.99013 1.2
      vertex -0.313953 4.99013 -5.3813e-17
      vertex 0 5 1.2
    endloop
  endfacet
  facet normal -0.0314096 -0.999507 1.22404e-16
    outer loop
      vertex 0 5 -5.72119e-17
      vertex 0.313953 4.99013 -5.3813e-17
      vertex 0.313953 4.99013 1.2
    endloop
  endfacet
  facet normal -0.0314096 -0.999507 1.22404e-16
    outer loop
      vertex 0 5 1.2
      vertex 0 5 -5.72119e-17
      vertex 0.313953 4.99013 1.2
    endloop
  endfacet
  facet normal -0.0941081 -0.995562 1.21921e-16
    outer loop
      vertex 0.313953 4.99013 -5.3813e-17
      vertex 0.626666 4.96057 -4.36293e-17
      vertex 0.626666 4.96057 1.2
    endloop
  endfacet
  facet normal -0.0941081 -0.995562 1.21921e-16
    outer loop
      vertex 0.313953 4.99013 1.2
      vertex 0.313953 4.99013 -5.3813e-17
      vertex 0.626666 4.96057 1.2
    endloop
  endfacet
  facet normal -0.156436 -0.987688 1.20957e-16
    outer loop
      vertex 0.626666 4.96057 -4.36293e-17
      vertex 0.936907 4.91144 -2.67008e-17
      vertex 0.936907 4.91144 1.2
    endloop
  endfacet
  facet normal -0.156436 -0.987688 1.20957e-16
    outer loop
      vertex 0.626666 4.96057 1.2
      vertex 0.626666 4.96057 -4.36293e-17
      vertex 0.936907 4.91144 1.2
    endloop
  endfacet
  facet normal -0.218142 -0.975917 1.19515e-16
    outer loop
      vertex 0.936907 4.91144 -2.67008e-17
      vertex 1.24345 4.84292 -3.09499e-18
      vertex 1.24345 4.84292 1.2
    endloop
  endfacet
  facet normal -0.218142 -0.975917 1.19515e-16
    outer loop
      vertex 0.936907 4.91144 1.2
      vertex 0.936907 4.91144 -2.67008e-17
      vertex 1.24345 4.84292 1.2
    endloop
  endfacet
  facet normal -0.27899 -0.960294 1.17602e-16
    outer loop
      vertex 1.24345 4.84292 -3.09499e-18
      vertex 1.54508 4.75528 2.70954e-17
      vertex 1.54508 4.75528 1.2
    endloop
  endfacet
  facet normal -0.27899 -0.960294 1.17602e-16
    outer loop
      vertex 1.24345 4.84292 1.2
      vertex 1.24345 4.84292 -3.09499e-18
      vertex 1.54508 4.75528 1.2
    endloop
  endfacet
  facet normal -0.33874 -0.94088 1.15225e-16
    outer loop
      vertex 1.54508 4.75528 2.70954e-17
      vertex 1.84062 4.64888 6.37515e-17
      vertex 1.84062 4.64888 1.2
    endloop
  endfacet
  facet normal -0.33874 -0.94088 1.15225e-16
    outer loop
      vertex 1.54508 4.75528 1.2
      vertex 1.54508 4.75528 2.70954e-17
      vertex 1.84062 4.64888 1.2
    endloop
  endfacet
  facet normal -0.397148 -0.917754 1.12393e-16
    outer loop
      vertex 1.84062 4.64888 6.37515e-17
      vertex 2.1289 4.52413 1.06728e-16
      vertex 2.1289 4.52413 1.2
    endloop
  endfacet
  facet normal -0.397148 -0.917754 1.12393e-16
    outer loop
      vertex 1.84062 4.64888 1.2
      vertex 1.84062 4.64888 6.37515e-17
      vertex 2.1289 4.52413 1.2
    endloop
  endfacet
  facet normal -0.453991 -0.891006 1.09117e-16
    outer loop
      vertex 2.1289 4.52413 1.06728e-16
      vertex 2.40877 4.38153 1.55856e-16
      vertex 2.40877 4.38153 1.2
    endloop
  endfacet
  facet normal -0.453991 -0.891006 1.09117e-16
    outer loop
      vertex 2.1289 4.52413 1.2
      vertex 2.1289 4.52413 1.06728e-16
      vertex 2.40877 4.38153 1.2
    endloop
  endfacet
  facet normal -0.509039 -0.860743 1.05411e-16
    outer loop
      vertex 2.40877 4.38153 1.55856e-16
      vertex 2.67913 4.22164 2.1094e-16
      vertex 2.67913 4.22164 1.2
    endloop
  endfacet
  facet normal -0.509039 -0.860743 1.05411e-16
    outer loop
      vertex 2.40877 4.38153 1.2
      vertex 2.40877 4.38153 1.55856e-16
      vertex 2.67913 4.22164 1.2
    endloop
  endfacet
  facet normal -0.562085 -0.82708 1.01288e-16
    outer loop
      vertex 2.67913 4.22164 2.1094e-16
      vertex 2.93893 4.04508 2.71765e-16
      vertex 2.93893 4.04508 1.2
    endloop
  endfacet
  facet normal -0.562085 -0.82708 1.01288e-16
    outer loop
      vertex 2.67913 4.22164 1.2
      vertex 2.67913 4.22164 2.1094e-16
      vertex 2.93893 4.04508 1.2
    endloop
  endfacet
  facet normal -0.612907 -0.790155 9.67661e-17
    outer loop
      vertex 2.93893 4.04508 2.71765e-16
      vertex 3.18712 3.85257 3.3809e-16
      vertex 3.18712 3.85257 1.2
    endloop
  endfacet
  facet normal -0.612907 -0.790155 9.67661e-17
    outer loop
      vertex 2.93893 4.04508 1.2
      vertex 2.93893 4.04508 2.71765e-16
      vertex 3.18712 3.85257 1.2
    endloop
  endfacet
  facet normal -0.661311 -0.750112 9.18622e-17
    outer loop
      vertex 3.18712 3.85257 3.3809e-16
      vertex 3.42274 3.64484 4.09652e-16
      vertex 3.42274 3.64484 1.2
    endloop
  endfacet
  facet normal -0.661311 -0.750112 9.18622e-17
    outer loop
      vertex 3.18712 3.85257 1.2
      vertex 3.18712 3.85257 3.3809e-16
      vertex 3.42274 3.64484 1.2
    endloop
  endfacet
  facet normal -0.707107 -0.707107 8.65956e-17
    outer loop
      vertex 3.64484 3.42274 4.8617e-16
      vertex 3.64484 3.42274 1.2
      vertex 3.42274 3.64484 4.09652e-16
    endloop
  endfacet
  facet normal -0.707107 -0.707107 8.65956e-17
    outer loop
      vertex 3.42274 3.64484 4.09652e-16
      vertex 3.64484 3.42274 1.2
      vertex 3.42274 3.64484 1.2
    endloop
  endfacet
  facet normal -0.750112 -0.661311 8.09872e-17
    outer loop
      vertex 3.85257 3.18712 5.67342e-16
      vertex 3.85257 3.18712 1.2
      vertex 3.64484 3.42274 4.8617e-16
    endloop
  endfacet
  facet normal -0.750112 -0.661311 8.09872e-17
    outer loop
      vertex 3.64484 3.42274 4.8617e-16
      vertex 3.85257 3.18712 1.2
      vertex 3.64484 3.42274 1.2
    endloop
  endfacet
  facet normal -0.790155 -0.612907 7.50595e-17
    outer loop
      vertex 4.04508 2.93893 6.52847e-16
      vertex 4.04508 2.93893 1.2
      vertex 3.85257 3.18712 5.67342e-16
    endloop
  endfacet
  facet normal -0.790155 -0.612907 7.50595e-17
    outer loop
      vertex 3.85257 3.18712 5.67342e-16
      vertex 4.04508 2.93893 1.2
      vertex 3.85257 3.18712 1.2
    endloop
  endfacet
  facet normal -0.82708 -0.562085 6.88355e-17
    outer loop
      vertex 4.22164 2.67913 7.42348e-16
      vertex 4.22164 2.67913 1.2
      vertex 4.04508 2.93893 6.52847e-16
    endloop
  endfacet
  facet normal -0.82708 -0.562085 6.88355e-17
    outer loop
      vertex 4.04508 2.93893 6.52847e-16
      vertex 4.22164 2.67913 1.2
      vertex 4.04508 2.93893 1.2
    endloop
  endfacet
  facet normal -0.860743 -0.509039 6.23393e-17
    outer loop
      vertex 4.38153 2.40877 8.35492e-16
      vertex 4.38153 2.40877 1.2
      vertex 4.22164 2.67913 7.42348e-16
    endloop
  endfacet
  facet normal -0.860743 -0.509039 6.23393e-17
    outer loop
      vertex 4.22164 2.67913 7.42348e-16
      vertex 4.38153 2.40877 1.2
      vertex 4.22164 2.67913 1.2
    endloop
  endfacet
  facet normal -0.891006 -0.453991 5.55978e-17
    outer loop
      vertex 4.52413 2.1289 9.3191e-16
      vertex 4.52413 2.1289 1.2
      vertex 4.38153 2.40877 8.35492e-16
    endloop
  endfacet
  facet normal -0.891006 -0.453991 5.55978e-17
    outer loop
      vertex 4.38153 2.40877 8.35492e-16
      vertex 4.52413 2.1289 1.2
      vertex 4.38153 2.40877 1.2
    endloop
  endfacet
  facet normal -0.917754 -0.397148 4.86366e-17
    outer loop
      vertex 4.64888 1.84062 1.03122e-15
      vertex 4.64888 1.84062 1.2
      vertex 4.52413 2.1289 9.3191e-16
    endloop
  endfacet
  facet normal -0.917754 -0.397148 4.86366e-17
    outer loop
      vertex 4.52413 2.1289 9.3191e-16
      vertex 4.64888 1.84062 1.2
      vertex 4.52413 2.1289 1.2
    endloop
  endfacet
  facet normal -0.94088 -0.33874 4.14837e-17
    outer loop
      vertex 4.75528 1.54508 1.13304e-15
      vertex 4.75528 1.54508 1.2
      vertex 4.64888 1.84062 1.03122e-15
    endloop
  endfacet
  facet normal -0.94088 -0.33874 4.14837e-17
    outer loop
      vertex 4.64888 1.84062 1.03122e-15
      vertex 4.75528 1.54508 1.2
      vertex 4.64888 1.84062 1.2
    endloop
  endfacet
  facet normal -0.960294 -0.27899 3.41664e-17
    outer loop
      vertex 4.84292 1.24345 1.23695e-15
      vertex 4.84292 1.24345 1.2
      vertex 4.75528 1.54508 1.13304e-15
    endloop
  endfacet
  facet normal -0.960294 -0.27899 3.41664e-17
    outer loop
      vertex 4.75528 1.54508 1.13304e-15
      vertex 4.84292 1.24345 1.2
      vertex 4.75528 1.54508 1.2
    endloop
  endfacet
  facet normal -0.975917 -0.218142 2.67147e-17
    outer loop
      vertex 4.91144 0.936907 1.34256e-15
      vertex 4.91144 0.936907 1.2
      vertex 4.84292 1.24345 1.23695e-15
    endloop
  endfacet
  facet normal -0.975917 -0.218142 2.67147e-17
    outer loop
      vertex 4.84292 1.24345 1.23695e-15
      vertex 4.91144 0.936907 1.2
      vertex 4.84292 1.24345 1.2
    endloop
  endfacet
  facet normal -0.987688 -0.156436 1.91579e-17
    outer loop
      vertex 4.96057 0.626666 1.44944e-15
      vertex 4.96057 0.626666 1.2
      vertex 4.91144 0.936907 1.34256e-15
    endloop
  endfacet
  facet normal -0.987688 -0.156436 1.91579e-17
    outer loop
      vertex 4.91144 0.936907 1.34256e-15
      vertex 4.96057 0.626666 1.2
      vertex 4.91144 0.936907 1.2
    endloop
  endfacet
  facet normal -0.995562 -0.0941081 1.15249e-17
    outer loop
      vertex 4.99013 0.313953 1.55717e-15
      vertex 4.99013 0.313953 1.2
      vertex 4.96057 0.626666 1.44944e-15
    endloop
  endfacet
  facet normal -0.995562 -0.0941081 1.15249e-17
    outer loop
      vertex 4.96057 0.626666 1.44944e-15
      vertex 4.99013 0.313953 1.2
      vertex 4.96057 0.626666 1.2
    endloop
  endfacet
  facet normal -0.999507 -0.0314096 3.84656e-18
    outer loop
      vertex 5 2.03945e-31 1.66533e-15
      vertex 5 1.46958e-16 1.2
      vertex 4.99013 0.313953 1.55717e-15
    endloop
  endfacet
  facet normal -0.999507 -0.0314096 3.84656e-18
    outer loop
      vertex 4.99013 0.313953 1.55717e-15
      vertex 5 1.46958e-16 1.2
      vertex 4.99013 0.313953 1.2
    endloop
  endfacet
  facet normal -0.999507 0.0314096 -3.84656e-18
    outer loop
      vertex 5 2.03945e-31 1.66533e-15
      vertex 4.99013 -0.313953 1.77349e-15
      vertex 5 1.46958e-16 1.2
    endloop
  endfacet
  facet normal -0.999507 0.0314096 -3.84656e-18
    outer loop
      vertex 5 1.46958e-16 1.2
      vertex 4.99013 -0.313953 1.77349e-15
      vertex 4.99013 -0.313953 1.2
    endloop
  endfacet
  facet normal -0.995562 0.0941081 -1.15249e-17
    outer loop
      vertex 4.99013 -0.313953 1.77349e-15
      vertex 4.96057 -0.626666 1.88123e-15
      vertex 4.99013 -0.313953 1.2
    endloop
  endfacet
  facet normal -0.995562 0.0941081 -1.15249e-17
    outer loop
      vertex 4.99013 -0.313953 1.2
      vertex 4.96057 -0.626666 1.88123e-15
      vertex 4.96057 -0.626666 1.2
    endloop
  endfacet
  facet normal -0.987688 0.156436 -1.91579e-17
    outer loop
      vertex 4.96057 -0.626666 1.88123e-15
      vertex 4.91144 -0.936907 1.98811e-15
      vertex 4.96057 -0.626666 1.2
    endloop
  endfacet
  facet normal -0.987688 0.156436 -1.91579e-17
    outer loop
      vertex 4.96057 -0.626666 1.2
      vertex 4.91144 -0.936907 1.98811e-15
      vertex 4.91144 -0.936907 1.2
    endloop
  endfacet
  facet normal -0.975917 0.218142 -2.67147e-17
    outer loop
      vertex 4.91144 -0.936907 1.98811e-15
      vertex 4.84292 -1.24345 2.09371e-15
      vertex 4.91144 -0.936907 1.2
    endloop
  endfacet
  facet normal -0.975917 0.218142 -2.67147e-17
    outer loop
      vertex 4.91144 -0.936907 1.2
      vertex 4.84292 -1.24345 2.09371e-15
      vertex 4.84292 -1.24345 1.2
    endloop
  endfacet
  facet normal -0.960294 0.27899 -3.41664e-17
    outer loop
      vertex 4.84292 -1.24345 2.09371e-15
      vertex 4.75528 -1.54508 2.19763e-15
      vertex 4.84292 -1.24345 1.2
    endloop
  endfacet
  facet normal -0.960294 0.27899 -3.41664e-17
    outer loop
      vertex 4.84292 -1.24345 1.2
      vertex 4.75528 -1.54508 2.19763e-15
      vertex 4.75528 -1.54508 1.2
    endloop
  endfacet
  facet normal -0.94088 0.33874 -4.14837e-17
    outer loop
      vertex 4.75528 -1.54508 2.19763e-15
      vertex 4.64888 -1.84062 2.29945e-15
      vertex 4.75528 -1.54508 1.2
    endloop
  endfacet
  facet normal -0.94088 0.33874 -4.14837e-17
    outer loop
      vertex 4.75528 -1.54508 1.2
      vertex 4.64888 -1.84062 2.29945e-15
      vertex 4.64888 -1.84062 1.2
    endloop
  endfacet
  facet normal -0.917754 0.397148 -4.86366e-17
    outer loop
      vertex 4.64888 -1.84062 2.29945e-15
      vertex 4.52413 -2.1289 2.39876e-15
      vertex 4.64888 -1.84062 1.2
    endloop
  endfacet
  facet normal -0.917754 0.397148 -4.86366e-17
    outer loop
      vertex 4.64888 -1.84062 1.2
      vertex 4.52413 -2.1289 2.39876e-15
      vertex 4.52413 -2.1289 1.2
    endloop
  endfacet
  facet normal -0.891006 0.453991 -5.55978e-17
    outer loop
      vertex 4.52413 -2.1289 2.39876e-15
      vertex 4.38153 -2.40877 2.49518e-15
      vertex 4.52413 -2.1289 1.2
    endloop
  endfacet
  facet normal -0.891006 0.453991 -5.55978e-17
    outer loop
      vertex 4.52413 -2.1289 1.2
      vertex 4.38153 -2.40877 2.49518e-15
      vertex 4.38153 -2.40877 1.2
    endloop
  endfacet
  facet normal -0.860743 0.509039 -6.23393e-17
    outer loop
      vertex 4.38153 -2.40877 2.49518e-15
      vertex 4.22164 -2.67913 2.58832e-15
      vertex 4.38153 -2.40877 1.2
    endloop
  endfacet
  facet normal -0.860743 0.509039 -6.23393e-17
    outer loop
      vertex 4.38153 -2.40877 1.2
      vertex 4.22164 -2.67913 2.58832e-15
      vertex 4.22164 -2.67913 1.2
    endloop
  endfacet
  facet normal -0.82708 0.562085 -6.88355e-17
    outer loop
      vertex 4.22164 -2.67913 2.58832e-15
      vertex 4.04508 -2.93893 2.67782e-15
      vertex 4.22164 -2.67913 1.2
    endloop
  endfacet
  facet normal -0.82708 0.562085 -6.88355e-17
    outer loop
      vertex 4.22164 -2.67913 1.2
      vertex 4.04508 -2.93893 2.67782e-15
      vertex 4.04508 -2.93893 1.2
    endloop
  endfacet
  facet normal -0.790155 0.612907 -7.50595e-17
    outer loop
      vertex 4.04508 -2.93893 2.67782e-15
      vertex 3.85257 -3.18712 2.76333e-15
      vertex 4.04508 -2.93893 1.2
    endloop
  endfacet
  facet normal -0.790155 0.612907 -7.50595e-17
    outer loop
      vertex 4.04508 -2.93893 1.2
      vertex 3.85257 -3.18712 2.76333e-15
      vertex 3.85257 -3.18712 1.2
    endloop
  endfacet
  facet normal -0.750112 0.661311 -8.09872e-17
    outer loop
      vertex 3.85257 -3.18712 2.76333e-15
      vertex 3.64484 -3.42274 2.8445e-15
      vertex 3.85257 -3.18712 1.2
    endloop
  endfacet
  facet normal -0.750112 0.661311 -8.09872e-17
    outer loop
      vertex 3.85257 -3.18712 1.2
      vertex 3.64484 -3.42274 2.8445e-15
      vertex 3.64484 -3.42274 1.2
    endloop
  endfacet
  facet normal -0.707107 0.707107 -8.65956e-17
    outer loop
      vertex 3.64484 -3.42274 2.8445e-15
      vertex 3.42274 -3.64484 2.92102e-15
      vertex 3.64484 -3.42274 1.2
    endloop
  endfacet
  facet normal -0.707107 0.707107 -8.65956e-17
    outer loop
      vertex 3.64484 -3.42274 1.2
      vertex 3.42274 -3.64484 2.92102e-15
      vertex 3.42274 -3.64484 1.2
    endloop
  endfacet
  facet normal -0.661311 0.750112 -9.18622e-17
    outer loop
      vertex 3.42274 -3.64484 2.92102e-15
      vertex 3.18712 -3.85257 2.99258e-15
      vertex 3.42274 -3.64484 1.2
    endloop
  endfacet
  facet normal -0.661311 0.750112 -9.18622e-17
    outer loop
      vertex 3.42274 -3.64484 1.2
      vertex 3.18712 -3.85257 2.99258e-15
      vertex 3.18712 -3.85257 1.2
    endloop
  endfacet
  facet normal -0.612907 0.790155 -9.67661e-17
    outer loop
      vertex 3.18712 -3.85257 2.99258e-15
      vertex 2.93893 -4.04508 3.0589e-15
      vertex 3.18712 -3.85257 1.2
    endloop
  endfacet
  facet normal -0.612907 0.790155 -9.67661e-17
    outer loop
      vertex 3.18712 -3.85257 1.2
      vertex 2.93893 -4.04508 3.0589e-15
      vertex 2.93893 -4.04508 1.2
    endloop
  endfacet
  facet normal -0.562085 0.82708 -1.01288e-16
    outer loop
      vertex 2.93893 -4.04508 3.0589e-15
      vertex 2.67913 -4.22164 3.11973e-15
      vertex 2.93893 -4.04508 1.2
    endloop
  endfacet
  facet normal -0.562085 0.82708 -1.01288e-16
    outer loop
      vertex 2.93893 -4.04508 1.2
      vertex 2.67913 -4.22164 3.11973e-15
      vertex 2.67913 -4.22164 1.2
    endloop
  endfacet
  facet normal -0.509039 0.860743 -1.05411e-16
    outer loop
      vertex 2.67913 -4.22164 3.11973e-15
      vertex 2.40877 -4.38153 3.17481e-15
      vertex 2.67913 -4.22164 1.2
    endloop
  endfacet
  facet normal -0.509039 0.860743 -1.05411e-16
    outer loop
      vertex 2.67913 -4.22164 1.2
      vertex 2.40877 -4.38153 3.17481e-15
      vertex 2.40877 -4.38153 1.2
    endloop
  endfacet
  facet normal -0.453991 0.891006 -1.09117e-16
    outer loop
      vertex 2.40877 -4.38153 3.17481e-15
      vertex 2.1289 -4.52413 3.22394e-15
      vertex 2.40877 -4.38153 1.2
    endloop
  endfacet
  facet normal -0.453991 0.891006 -1.09117e-16
    outer loop
      vertex 2.40877 -4.38153 1.2
      vertex 2.1289 -4.52413 3.22394e-15
      vertex 2.1289 -4.52413 1.2
    endloop
  endfacet
  facet normal -0.397148 0.917754 -1.12393e-16
    outer loop
      vertex 2.1289 -4.52413 3.22394e-15
      vertex 1.84062 -4.64888 3.26692e-15
      vertex 2.1289 -4.52413 1.2
    endloop
  endfacet
  facet normal -0.397148 0.917754 -1.12393e-16
    outer loop
      vertex 2.1289 -4.52413 1.2
      vertex 1.84062 -4.64888 3.26692e-15
      vertex 1.84062 -4.64888 1.2
    endloop
  endfacet
  facet normal -0.33874 0.94088 -1.15225e-16
    outer loop
      vertex 1.84062 -4.64888 3.26692e-15
      vertex 1.54508 -4.75528 3.30357e-15
      vertex 1.84062 -4.64888 1.2
    endloop
  endfacet
  facet normal -0.33874 0.94088 -1.15225e-16
    outer loop
      vertex 1.84062 -4.64888 1.2
      vertex 1.54508 -4.75528 3.30357e-15
      vertex 1.54508 -4.75528 1.2
    endloop
  endfacet
  facet normal -0.27899 0.960294 -1.17602e-16
    outer loop
      vertex 1.54508 -4.75528 3.30357e-15
      vertex 1.24345 -4.84292 3.33376e-15
      vertex 1.54508 -4.75528 1.2
    endloop
  endfacet
  facet normal -0.27899 0.960294 -1.17602e-16
    outer loop
      vertex 1.54508 -4.75528 1.2
      vertex 1.24345 -4.84292 3.33376e-15
      vertex 1.24345 -4.84292 1.2
    endloop
  endfacet
  facet normal -0.218142 0.975917 -1.19515e-16
    outer loop
      vertex 1.24345 -4.84292 3.33376e-15
      vertex 0.936907 -4.91144 3.35737e-15
      vertex 1.24345 -4.84292 1.2
    endloop
  endfacet
  facet normal -0.218142 0.975917 -1.19515e-16
    outer loop
      vertex 1.24345 -4.84292 1.2
      vertex 0.936907 -4.91144 3.35737e-15
      vertex 0.936907 -4.91144 1.2
    endloop
  endfacet
  facet normal -0.156436 0.987688 -1.20957e-16
    outer loop
      vertex 0.936907 -4.91144 3.35737e-15
      vertex 0.626666 -4.96057 3.3743e-15
      vertex 0.936907 -4.91144 1.2
    endloop
  endfacet
  facet normal -0.156436 0.987688 -1.20957e-16
    outer loop
      vertex 0.936907 -4.91144 1.2
      vertex 0.626666 -4.96057 3.3743e-15
      vertex 0.626666 -4.96057 1.2
    endloop
  endfacet
  facet normal -0.0941081 0.995562 -1.21921e-16
    outer loop
      vertex 0.626666 -4.96057 3.3743e-15
      vertex 0.313953 -4.99013 3.38448e-15
      vertex 0.626666 -4.96057 1.2
    endloop
  endfacet
  facet normal -0.0941081 0.995562 -1.21921e-16
    outer loop
      vertex 0.626666 -4.96057 1.2
      vertex 0.313953 -4.99013 3.38448e-15
      vertex 0.313953 -4.99013 1.2
    endloop
  endfacet
  facet normal -0.0314096 0.999507 -1.22404e-16
    outer loop
      vertex 0.313953 -4.99013 3.38448e-15
      vertex 0 -5 3.38788e-15
      vertex 0.313953 -4.99013 1.2
    endloop
  endfacet
  facet normal -0.0314096 0.999507 -1.22404e-16
    outer loop
      vertex 0.313953 -4.99013 1.2
      vertex 0 -5 3.38788e-15
      vertex 0 -5 1.2
    endloop
  endfacet
  facet normal 0.0314096 0.999507 -1.22404e-16
    outer loop
      vertex 0 -5 3.38788e-15
      vertex -0.313953 -4.99013 3.38448e-15
      vertex 0 -5 1.2
    endloop
  endfacet
  facet normal 0.0314096 0.999507 -1.22404e-16
    outer loop
      vertex 0 -5 1.2
      vertex -0.313953 -4.99013 3.38448e-15
      vertex -0.313953 -4.99013 1.2
    endloop
  endfacet
  facet normal 0.0941081 0.995562 -1.21921e-16
    outer loop
      vertex -0.313953 -4.99013 3.38448e-15
      vertex -0.626666 -4.96057 3.3743e-15
      vertex -0.313953 -4.99013 1.2
    endloop
  endfacet
  facet normal 0.0941081 0.995562 -1.21921e-16
    outer loop
      vertex -0.313953 -4.99013 1.2
      vertex -0.626666 -4.96057 3.3743e-15
      vertex -0.626666 -4.96057 1.2
    endloop
  endfacet
  facet normal 0.156436 0.987688 -1.20957e-16
    outer loop
      vertex -0.626666 -4.96057 3.3743e-15
      vertex -0.936907 -4.91144 3.35737e-15
      vertex -0.626666 -4.96057 1.2
    endloop
  endfacet
  facet normal 0.156436 0.987688 -1.20957e-16
    outer loop
      vertex -0.626666 -4.96057 1.2
      vertex -0.936907 -4.91144 3.35737e-15
      vertex -0.936907 -4.91144 1.2
    endloop
  endfacet
  facet normal 0.218142 0.975917 -1.19515e-16
    outer loop
      vertex -0.936907 -4.91144 3.35737e-15
      vertex -1.24345 -4.84292 3.33376e-15
      vertex -0.936907 -4.91144 1.2
    endloop
  endfacet
  facet normal 0.218142 0.975917 -1.19515e-16
    outer loop
      vertex -0.936907 -4.91144 1.2
      vertex -1.24345 -4.84292 3.33376e-15
      vertex -1.24345 -4.84292 1.2
    endloop
  endfacet
  facet normal 0.27899 0.960294 -1.17602e-16
    outer loop
      vertex -1.24345 -4.84292 3.33376e-15
      vertex -1.54508 -4.75528 3.30357e-15
      vertex -1.24345 -4.84292 1.2
    endloop
  endfacet
  facet normal 0.27899 0.960294 -1.17602e-16
    outer loop
      vertex -1.24345 -4.84292 1.2
      vertex -1.54508 -4.75528 3.30357e-15
      vertex -1.54508 -4.75528 1.2
    endloop
  endfacet
  facet normal 0.33874 0.94088 -1.15225e-16
    outer loop
      vertex -1.54508 -4.75528 3.30357e-15
      vertex -1.84062 -4.64888 3.26692e-15
      vertex -1.54508 -4.75528 1.2
    endloop
  endfacet
  facet normal 0.33874 0.94088 -1.15225e-16
    outer loop
      vertex -1.54508 -4.75528 1.2
      vertex -1.84062 -4.64888 3.26692e-15
      vertex -1.84062 -4.64888 1.2
    endloop
  endfacet
  facet normal 0.397148 0.917754 -1.12393e-16
    outer loop
      vertex -1.84062 -4.64888 3.26692e-15
      vertex -2.1289 -4.52413 3.22394e-15
      vertex -1.84062 -4.64888 1.2
    endloop
  endfacet
  facet normal 0.397148 0.917754 -1.12393e-16
    outer loop
      vertex -1.84062 -4.64888 1.2
      vertex -2.1289 -4.52413 3.22394e-15
      vertex -2.1289 -4.52413 1.2
    endloop
  endfacet
  facet normal 0.453991 0.891006 -1.09117e-16
    outer loop
      vertex -2.1289 -4.52413 3.22394e-15
      vertex -2.40877 -4.38153 3.17481e-15
      vertex -2.1289 -4.52413 1.2
    endloop
  endfacet
  facet normal 0.453991 0.891006 -1.09117e-16
    outer loop
      vertex -2.1289 -4.52413 1.2
      vertex -2.40877 -4.38153 3.17481e-15
      vertex -2.40877 -4.38153 1.2
    endloop
  endfacet
  facet normal 0.509039 0.860743 -1.05411e-16
    outer loop
      vertex -2.40877 -4.38153 3.17481e-15
      vertex -2.67913 -4.22164 3.11973e-15
      vertex -2.40877 -4.38153 1.2
    endloop
  endfacet
  facet normal 0.509039 0.860743 -1.05411e-16
    outer loop
      vertex -2.40877 -4.38153 1.2
      vertex -2.67913 -4.22164 3.11973e-15
      vertex -2.67913 -4.22164 1.2
    endloop
  endfacet
  facet normal 0.562085 0.82708 -1.01288e-16
    outer loop
      vertex -2.67913 -4.22164 3.11973e-15
      vertex -2.93893 -4.04508 3.0589e-15
      vertex -2.67913 -4.22164 1.2
    endloop
  endfacet
  facet normal 0.562085 0.82708 -1.01288e-16
    outer loop
      vertex -2.67913 -4.22164 1.2
      vertex -2.93893 -4.04508 3.0589e-15
      vertex -2.93893 -4.04508 1.2
    endloop
  endfacet
  facet normal 0.612907 0.790155 -9.67661e-17
    outer loop
      vertex -2.93893 -4.04508 3.0589e-15
      vertex -3.18712 -3.85257 2.99258e-15
      vertex -2.93893 -4.04508 1.2
    endloop
  endfacet
  facet normal 0.612907 0.790155 -9.67661e-17
    outer loop
      vertex -2.93893 -4.04508 1.2
      vertex -3.18712 -3.85257 2.99258e-15
      vertex -3.18712 -3.85257 1.2
    endloop
  endfacet
  facet normal 0.661311 0.750112 -9.18622e-17
    outer loop
      vertex -3.18712 -3.85257 2.99258e-15
      vertex -3.42274 -3.64484 2.92102e-15
      vertex -3.18712 -3.85257 1.2
    endloop
  endfacet
  facet normal 0.661311 0.750112 -9.18622e-17
    outer loop
      vertex -3.18712 -3.85257 1.2
      vertex -3.42274 -3.64484 2.92102e-15
      vertex -3.42274 -3.64484 1.2
    endloop
  endfacet
  facet normal 0.707107 0.707107 -8.65956e-17
    outer loop
      vertex -3.42274 -3.64484 1.2
      vertex -3.42274 -3.64484 2.92102e-15
      vertex -3.64484 -3.42274 2.8445e-15
    endloop
  endfacet
  facet normal 0.707107 0.707107 -8.65956e-17
    outer loop
      vertex -3.64484 -3.42274 1.2
      vertex -3.42274 -3.64484 1.2
      vertex -3.64484 -3.42274 2.8445e-15
    endloop
  endfacet
  facet normal 0.750112 0.661311 -8.09872e-17
    outer loop
      vertex -3.64484 -3.42274 1.2
      vertex -3.64484 -3.42274 2.8445e-15
      vertex -3.85257 -3.18712 2.76333e-15
    endloop
  endfacet
  facet normal 0.750112 0.661311 -8.09872e-17
    outer loop
      vertex -3.85257 -3.18712 1.2
      vertex -3.64484 -3.42274 1.2
      vertex -3.85257 -3.18712 2.76333e-15
    endloop
  endfacet
  facet normal 0.790155 0.612907 -7.50595e-17
    outer loop
      vertex -3.85257 -3.18712 1.2
      vertex -3.85257 -3.18712 2.76333e-15
      vertex -4.04508 -2.93893 2.67782e-15
    endloop
  endfacet
  facet normal 0.790155 0.612907 -7.50595e-17
    outer loop
      vertex -4.04508 -2.93893 1.2
      vertex -3.85257 -3.18712 1.2
      vertex -4.04508 -2.93893 2.67782e-15
    endloop
  endfacet
  facet normal 0.82708 0.562085 -6.88355e-17
    outer loop
      vertex -4.04508 -2.93893 1.2
      vertex -4.04508 -2.93893 2.67782e-15
      vertex -4.22164 -2.67913 2.58832e-15
    endloop
  endfacet
  facet normal 0.82708 0.562085 -6.88355e-17
    outer loop
      vertex -4.22164 -2.67913 1.2
      vertex -4.04508 -2.93893 1.2
      vertex -4.22164 -2.67913 2.58832e-15
    endloop
  endfacet
  facet normal 0.860743 0.509039 -6.23393e-17
    outer loop
      vertex -4.22164 -2.67913 1.2
      vertex -4.22164 -2.67913 2.58832e-15
      vertex -4.38153 -2.40877 2.49518e-15
    endloop
  endfacet
  facet normal 0.860743 0.509039 -6.23393e-17
    outer loop
      vertex -4.38153 -2.40877 1.2
      vertex -4.22164 -2.67913 1.2
      vertex -4.38153 -2.40877 2.49518e-15
    endloop
  endfacet
  facet normal 0.891006 0.453991 -5.55978e-17
    outer loop
      vertex -4.38153 -2.40877 1.2
      vertex -4.38153 -2.40877 2.49518e-15
      vertex -4.52413 -2.1289 2.39876e-15
    endloop
  endfacet
  facet normal 0.891006 0.453991 -5.55978e-17
    outer loop
      vertex -4.52413 -2.1289 1.2
      vertex -4.38153 -2.40877 1.2
      vertex -4.52413 -2.1289 2.39876e-15
    endloop
  endfacet
  facet normal 0.917754 0.397148 -4.86366e-17
    outer loop
      vertex -4.52413 -2.1289 1.2
      vertex -4.52413 -2.1289 2.39876e-15
      vertex -4.64888 -1.84062 2.29945e-15
    endloop
  endfacet
  facet normal 0.917754 0.397148 -4.86366e-17
    outer loop
      vertex -4.64888 -1.84062 1.2
      vertex -4.52413 -2.1289 1.2
      vertex -4.64888 -1.84062 2.29945e-15
    endloop
  endfacet
  facet normal 0.94088 0.33874 -4.14837e-17
    outer loop
      vertex -4.64888 -1.84062 1.2
      vertex -4.64888 -1.84062 2.29945e-15
      vertex -4.75528 -1.54508 2.19763e-15
    endloop
  endfacet
  facet normal 0.94088 0.33874 -4.14837e-17
    outer loop
      vertex -4.75528 -1.54508 1.2
      vertex -4.64888 -1.84062 1.2
      vertex -4.75528 -1.54508 2.19763e-15
    endloop
  endfacet
  facet normal 0.960294 0.27899 -3.41664e-17
    outer loop
      vertex -4.75528 -1.54508 1.2
      vertex -4.75528 -1.54508 2.19763e-15
      vertex -4.84292 -1.24345 2.09371e-15
    endloop
  endfacet
  facet normal 0.960294 0.27899 -3.41664e-17
    outer loop
      vertex -4.84292 -1.24345 1.2
      vertex -4.75528 -1.54508 1.2
      vertex -4.84292 -1.24345 2.09371e-15
    endloop
  endfacet
  facet normal 0.975917 0.218142 -2.67147e-17
    outer loop
      vertex -4.84292 -1.24345 1.2
      vertex -4.84292 -1.24345 2.09371e-15
      vertex -4.91144 -0.936907 1.98811e-15
    endloop
  endfacet
  facet normal 0.975917 0.218142 -2.67147e-17
    outer loop
      vertex -4.91144 -0.936907 1.2
      vertex -4.84292 -1.24345 1.2
      vertex -4.91144 -0.936907 1.98811e-15
    endloop
  endfacet
  facet normal 0.987688 0.156436 -1.91579e-17
    outer loop
      vertex -4.91144 -0.936907 1.2
      vertex -4.91144 -0.936907 1.98811e-15
      vertex -4.96057 -0.626666 1.88123e-15
    endloop
  endfacet
  facet normal 0.987688 0.156436 -1.91579e-17
    outer loop
      vertex -4.96057 -0.626666 1.2
      vertex -4.91144 -0.936907 1.2
      vertex -4.96057 -0.626666 1.88123e-15
    endloop
  endfacet
  facet normal 0.995562 0.0941081 -1.15249e-17
    outer loop
      vertex -4.96057 -0.626666 1.2
      vertex -4.96057 -0.626666 1.88123e-15
      vertex -4.99013 -0.313953 1.77349e-15
    endloop
  endfacet
  facet normal 0.995562 0.0941081 -1.15249e-17
    outer loop
      vertex -4.99013 -0.313953 1.2
      vertex -4.96057 -0.626666 1.2
      vertex -4.99013 -0.313953 1.77349e-15
    endloop
  endfacet
  facet normal 0.999507 0.0314096 -3.84656e-18
    outer loop
      vertex -4.99013 -0.313953 1.2
      vertex -4.99013 -0.313953 1.77349e-15
      vertex -5 2.03945e-31 1.66533e-15
    endloop
  endfacet
  facet normal 0.999507 0.0314096 -3.84656e-18
    outer loop
      vertex -5 1.46958e-16 1.2
      vertex -4.99013 -0.313953 1.2
      vertex -5 2.03945e-31 1.66533e-15
    endloop
  endfacet
  facet normal -0.866025 -0.5 6.12323e-17
    outer loop
      vertex 3.97949 -2.32124 1.2
      vertex 3.97949 -2.32124 3.02051
      vertex 3.95897 -2.28571 1.2
    endloop
  endfacet
  facet normal -0.866025 -0.5 6.12323e-17
    outer loop
      vertex 3.95897 -2.28571 1.2
      vertex 3.97949 -2.32124 3.02051
      vertex 3.95897 -2.28571 3.04103
    endloop
  endfacet
  facet normal -1.77321e-16 1 -1.22465e-16
    outer loop
      vertex 4 -2.28571 1.2
      vertex 3.95897 -2.28571 1.2
      vertex 4 -2.28571 3
    endloop
  endfacet
  facet normal -1.77321e-16 1 -1.22465e-16
    outer loop
      vertex 4 -2.28571 3
      vertex 3.95897 -2.28571 1.2
      vertex 3.95897 -2.28571 3.04103
    endloop
  endfacet
  facet normal -1 -1.77321e-16 2.17156e-32
    outer loop
      vertex 4 -2.28571 1.2
      vertex 4 -2.28571 3
      vertex 4 2.28571 1.2
    endloop
  endfacet
  facet normal -1 -1.77321e-16 2.17156e-32
    outer loop
      vertex 4 2.28571 1.2
      vertex 4 -2.28571 3
      vertex 4 2.28571 3
    endloop
  endfacet
  facet normal 1.77321e-16 -1 1.22465e-16
    outer loop
      vertex 3.95897 2.28571 1.2
      vertex 4 2.28571 1.2
      vertex 4 2.28571 3
    endloop
  endfacet
  facet normal 1.77321e-16 -1 1.22465e-16
    outer loop
      vertex 3.95897 2.28571 3.04103
      vertex 3.95897 2.28571 1.2
      vertex 4 2.28571 3
    endloop
  endfacet
  facet normal -0.866025 0.5 -6.12323e-17
    outer loop
      vertex 3.97949 2.32124 1.2
      vertex 3.95897 2.28571 1.2
      vertex 3.97949 2.32124 3.02051
    endloop
  endfacet
  facet normal -0.866025 0.5 -6.12323e-17
    outer loop
      vertex 3.97949 2.32124 3.02051
      vertex 3.95897 2.28571 1.2
      vertex 3.95897 2.28571 3.04103
    endloop
  endfacet
endsolid OpenSCAD_Model
