solid OpenSCAD_Model
  facet normal -1 0 0
    outer loop
      vertex 0 6 0
      vertex 0 6 14
      vertex 0 10 0
    endloop
  endfacet
  facet normal -1 0 0
    outer loop
      vertex 0 10 0
      vertex 0 6 14
      vertex 0 10 14
    endloop
  endfacet
  facet normal -0.994522 -0.104528 0
    outer loop
      vertex 0 6 0
      vertex 0.131114 4.75253 0
      vertex 0 6 14
    endloop
  endfacet
  facet normal -0.994522 -0.104528 0
    outer loop
      vertex 0 6 14
      vertex 0.131114 4.75253 0
      vertex 0.131114 4.75253 14
    endloop
  endfacet
  facet normal 0 0 -1
    outer loop
      vertex 0 6 0
      vertex 0 10 0
      vertex 0.131114 4.75253 0
    endloop
  endfacet
  facet normal 0 0 -1
    outer loop
      vertex 0.131114 4.75253 0
      vertex 0 10 0
      vertex 0.032869 10 0
    endloop
  endfacet
  facet normal 0 0 -1
    outer loop
      vertex 0.131114 4.75253 0
      vertex 0.032869 10 0
      vertex 0.032869 10.6272 0
    endloop
  endfacet
  facet normal 0 0 -1
    outer loop
      vertex 0.131114 4.75253 0
      vertex 0.032869 10.6272 0
      vertex 0.293661 11.8541 0
    endloop
  endfacet
  facet normal 0 0 -1
    outer loop
      vertex 0.131114 4.75253 0
      vertex 0.293661 11.8541 0
      vertex 0.803848 13 0
    endloop
  endfacet
  facet normal 0 0 -1
    outer loop
      vertex 0.131114 4.75253 0
      vertex 0.803848 13 0
      vertex 1.54113 14.0148 0
    endloop
  endfacet
  facet normal 0 0 -1
    outer loop
      vertex 0.131114 4.75253 0
      vertex 1.54113 14.0148 0
      vertex 2.47329 14.8541 0
    endloop
  endfacet
  facet normal 0 0 -1
    outer loop
      vertex 0.131114 4.75253 0
      vertex 2.47329 14.8541 0
      vertex 3.55958 15.4813 0
    endloop
  endfacet
  facet normal 0 0 -1
    outer loop
      vertex 0.131114 4.75253 0
      vertex 3.55958 15.4813 0
      vertex 4.75253 15.8689 0
    endloop
  endfacet
  facet normal 0 0 -1
    outer loop
      vertex 0.131114 4.75253 0
      vertex 4.75253 15.8689 0
      vertex 6 16 0
    endloop
  endfacet
  facet normal 0 0 -1
    outer loop
      vertex 7.55763 10.1439 0
      vertex 6 16 0
      vertex 26 16 0
    endloop
  endfacet
  facet normal 0 0 -1
    outer loop
      vertex 8.5203 7.1811 0
      vertex 31.4813 12.4404 0
      vertex 8.14389 6.44237 0
    endloop
  endfacet
  facet normal 0 0 -1
    outer loop
      vertex 26.8189 10.5203 0
      vertex 31.8689 11.2475 0
      vertex 27.5576 10.1439 0
    endloop
  endfacet
  facet normal 0 0 -1
    outer loop
      vertex 8.65 8 0
      vertex 27.8541 15.7063 0
      vertex 29 15.1962 0
    endloop
  endfacet
  facet normal 0 0 -1
    outer loop
      vertex 8.5203 7.1811 0
      vertex 30.0148 14.4589 0
      vertex 30.8541 13.5267 0
    endloop
  endfacet
  facet normal 0 0 -1
    outer loop
      vertex 26.8189 10.5203 0
      vertex 31.4813 12.4404 0
      vertex 31.8689 11.2475 0
    endloop
  endfacet
  facet normal 0 0 -1
    outer loop
      vertex 28.1439 9.55763 0
      vertex 31.8689 11.2475 0
      vertex 32 10 0
    endloop
  endfacet
  facet normal 0 0 -1
    outer loop
      vertex 31.9671 6 0
      vertex 32 10 0
      vertex 32 6 0
    endloop
  endfacet
  facet normal 0 0 -1
    outer loop
      vertex 28.5203 7.1811 0
      vertex 32 10 0
      vertex 31.9671 6 0
    endloop
  endfacet
  facet normal 0 0 -1
    outer loop
      vertex 5.37283 0.032869 0
      vertex 0.131114 4.75253 0
      vertex 6 0.032869 0
    endloop
  endfacet
  facet normal 0 0 -1
    outer loop
      vertex 0.131114 4.75253 0
      vertex 31.9671 5.37283 0
      vertex 31.7063 4.1459 0
    endloop
  endfacet
  facet normal 0 0 -1
    outer loop
      vertex 0.131114 4.75253 0
      vertex 31.7063 4.1459 0
      vertex 31.1962 3 0
    endloop
  endfacet
  facet normal 0 0 -1
    outer loop
      vertex 0.131114 4.75253 0
      vertex 31.1962 3 0
      vertex 30.4589 1.98522 0
    endloop
  endfacet
  facet normal 0 0 -1
    outer loop
      vertex 0.131114 4.75253 0
      vertex 30.4589 1.98522 0
      vertex 29.5267 1.1459 0
    endloop
  endfacet
  facet normal 0 0 -1
    outer loop
      vertex 0.131114 4.75253 0
      vertex 29.5267 1.1459 0
      vertex 28.4404 0.518727 0
    endloop
  endfacet
  facet normal 0 0 -1
    outer loop
      vertex 0.131114 4.75253 0
      vertex 28.4404 0.518727 0
      vertex 27.2475 0.131114 0
    endloop
  endfacet
  facet normal 0 0 -1
    outer loop
      vertex 0.131114 4.75253 0
      vertex 27.2475 0.131114 0
      vertex 26 0 0
    endloop
  endfacet
  facet normal 0 0 -1
    outer loop
      vertex 6 0.032869 0
      vertex 26 0 0
      vertex 6 0 0
    endloop
  endfacet
  facet normal 0 0 -1
    outer loop
      vertex 0.131114 4.75253 0
      vertex 26 0 0
      vertex 6 0.032869 0
    endloop
  endfacet
  facet normal 0 0 -1
    outer loop
      vertex 4.44237 5.8561 0
      vertex 0.131114 4.75253 0
      vertex 3.8561 6.44237 0
    endloop
  endfacet
  facet normal 0 0 -1
    outer loop
      vertex 0.131114 4.75253 0
      vertex 5.37283 0.032869 0
      vertex 4.1459 0.293661 0
    endloop
  endfacet
  facet normal 0 0 -1
    outer loop
      vertex 0.131114 4.75253 0
      vertex 4.1459 0.293661 0
      vertex 3 0.803848 0
    endloop
  endfacet
  facet normal 0 0 -1
    outer loop
      vertex 0.131114 4.75253 0
      vertex 3 0.803848 0
      vertex 1.98522 1.54113 0
    endloop
  endfacet
  facet normal 0 0 -1
    outer loop
      vertex 0.131114 4.75253 0
      vertex 1.98522 1.54113 0
      vertex 1.1459 2.47329 0
    endloop
  endfacet
  facet normal 0 0 -1
    outer loop
      vertex 0.131114 4.75253 0
      vertex 1.1459 2.47329 0
      vertex 0.518727 3.55958 0
    endloop
  endfacet
  facet normal 0 0 -1
    outer loop
      vertex 23.35 8 0
      vertex 7.55763 5.8561 0
      vertex 8.14389 6.44237 0
    endloop
  endfacet
  facet normal 0 0 -1
    outer loop
      vertex 0.131114 4.75253 0
      vertex 3.35 8 0
      vertex 3.4797 7.1811 0
    endloop
  endfacet
  facet normal 0 0 -1
    outer loop
      vertex 0.131114 4.75253 0
      vertex 3.4797 7.1811 0
      vertex 3.8561 6.44237 0
    endloop
  endfacet
  facet normal 0 0 -1
    outer loop
      vertex 5.1811 5.4797 0
      vertex 0.131114 4.75253 0
      vertex 4.44237 5.8561 0
    endloop
  endfacet
  facet normal 0 0 -1
    outer loop
      vertex 0.131114 4.75253 0
      vertex 5.1811 5.4797 0
      vertex 6 5.35 0
    endloop
  endfacet
  facet normal 0 0 -1
    outer loop
      vertex 8.5203 8.81889 0
      vertex 27.8541 15.7063 0
      vertex 8.65 8 0
    endloop
  endfacet
  facet normal 0 0 -1
    outer loop
      vertex 25.1811 5.4797 0
      vertex 0.131114 4.75253 0
      vertex 6 5.35 0
    endloop
  endfacet
  facet normal 0 0 -1
    outer loop
      vertex 8.5203 8.81889 0
      vertex 26.6272 15.9671 0
      vertex 27.8541 15.7063 0
    endloop
  endfacet
  facet normal 0 0 -1
    outer loop
      vertex 8.5203 7.1811 0
      vertex 30.8541 13.5267 0
      vertex 31.4813 12.4404 0
    endloop
  endfacet
  facet normal 0 0 -1
    outer loop
      vertex 8.14389 9.55763 0
      vertex 26 16 0
      vertex 8.5203 8.81889 0
    endloop
  endfacet
  facet normal 0 0 -1
    outer loop
      vertex 7.55763 10.1439 0
      vertex 26 16 0
      vertex 8.14389 9.55763 0
    endloop
  endfacet
  facet normal 0 0 -1
    outer loop
      vertex 6.81889 10.5203 0
      vertex 6 16 0
      vertex 7.55763 10.1439 0
    endloop
  endfacet
  facet normal 0 0 -1
    outer loop
      vertex 3.8561 9.55763 0
      vertex 6 16 0
      vertex 4.44237 10.1439 0
    endloop
  endfacet
  facet normal 0 0 -1
    outer loop
      vertex 6 10.65 0
      vertex 6 16 0
      vertex 6.81889 10.5203 0
    endloop
  endfacet
  facet normal 0 0 -1
    outer loop
      vertex 5.1811 10.5203 0
      vertex 6 16 0
      vertex 6 10.65 0
    endloop
  endfacet
  facet normal 0 0 -1
    outer loop
      vertex 4.44237 10.1439 0
      vertex 6 16 0
      vertex 5.1811 10.5203 0
    endloop
  endfacet
  facet normal 0 0 -1
    outer loop
      vertex 23.35 8 0
      vertex 8.14389 6.44237 0
      vertex 23.4797 8.81889 0
    endloop
  endfacet
  facet normal 0 0 -1
    outer loop
      vertex 0.131114 4.75253 0
      vertex 6 16 0
      vertex 3.8561 9.55763 0
    endloop
  endfacet
  facet normal 0 0 -1
    outer loop
      vertex 0.131114 4.75253 0
      vertex 3.8561 9.55763 0
      vertex 3.4797 8.81889 0
    endloop
  endfacet
  facet normal 0 0 -1
    outer loop
      vertex 0.131114 4.75253 0
      vertex 3.4797 8.81889 0
      vertex 3.35 8 0
    endloop
  endfacet
  facet normal 0 0 -1
    outer loop
      vertex 24.4424 5.8561 0
      vertex 7.55763 5.8561 0
      vertex 23.8561 6.44237 0
    endloop
  endfacet
  facet normal 0 0 -1
    outer loop
      vertex 7.55763 5.8561 0
      vertex 23.35 8 0
      vertex 23.4797 7.1811 0
    endloop
  endfacet
  facet normal 0 0 -1
    outer loop
      vertex 7.55763 5.8561 0
      vertex 23.4797 7.1811 0
      vertex 23.8561 6.44237 0
    endloop
  endfacet
  facet normal 0 0 -1
    outer loop
      vertex 25.1811 5.4797 0
      vertex 6 5.35 0
      vertex 6.81889 5.4797 0
    endloop
  endfacet
  facet normal 0 0 -1
    outer loop
      vertex 25.1811 5.4797 0
      vertex 6.81889 5.4797 0
      vertex 24.4424 5.8561 0
    endloop
  endfacet
  facet normal 0 0 -1
    outer loop
      vertex 23.4797 8.81889 0
      vertex 8.14389 6.44237 0
      vertex 23.8561 9.55763 0
    endloop
  endfacet
  facet normal 0 0 -1
    outer loop
      vertex 0.131114 4.75253 0
      vertex 25.1811 5.4797 0
      vertex 26 5.35 0
    endloop
  endfacet
  facet normal 0 0 -1
    outer loop
      vertex 0.131114 4.75253 0
      vertex 26 5.35 0
      vertex 31.9671 5.37283 0
    endloop
  endfacet
  facet normal 0 0 -1
    outer loop
      vertex 27.5576 5.8561 0
      vertex 31.9671 6 0
      vertex 26.8189 5.4797 0
    endloop
  endfacet
  facet normal 0 0 -1
    outer loop
      vertex 28.5203 7.1811 0
      vertex 31.9671 6 0
      vertex 28.1439 6.44237 0
    endloop
  endfacet
  facet normal 0 0 -1
    outer loop
      vertex 28.65 8 0
      vertex 32 10 0
      vertex 28.5203 7.1811 0
    endloop
  endfacet
  facet normal 0 0 -1
    outer loop
      vertex 28.1439 9.55763 0
      vertex 32 10 0
      vertex 28.5203 8.81889 0
    endloop
  endfacet
  facet normal 0 0 -1
    outer loop
      vertex 28.5203 8.81889 0
      vertex 32 10 0
      vertex 28.65 8 0
    endloop
  endfacet
  facet normal 0 0 -1
    outer loop
      vertex 27.5576 10.1439 0
      vertex 31.8689 11.2475 0
      vertex 28.1439 9.55763 0
    endloop
  endfacet
  facet normal 0 0 -1
    outer loop
      vertex 7.55763 5.8561 0
      vertex 24.4424 5.8561 0
      vertex 6.81889 5.4797 0
    endloop
  endfacet
  facet normal 0 0 -1
    outer loop
      vertex 26 10.65 0
      vertex 31.4813 12.4404 0
      vertex 26.8189 10.5203 0
    endloop
  endfacet
  facet normal 0 0 -1
    outer loop
      vertex 24.4424 10.1439 0
      vertex 8.14389 6.44237 0
      vertex 25.1811 10.5203 0
    endloop
  endfacet
  facet normal 0 0 -1
    outer loop
      vertex 25.1811 10.5203 0
      vertex 31.4813 12.4404 0
      vertex 26 10.65 0
    endloop
  endfacet
  facet normal 0 0 -1
    outer loop
      vertex 8.14389 6.44237 0
      vertex 31.4813 12.4404 0
      vertex 25.1811 10.5203 0
    endloop
  endfacet
  facet normal 0 0 -1
    outer loop
      vertex 23.8561 9.55763 0
      vertex 8.14389 6.44237 0
      vertex 24.4424 10.1439 0
    endloop
  endfacet
  facet normal 0 0 -1
    outer loop
      vertex 26.8189 5.4797 0
      vertex 31.9671 5.37283 0
      vertex 26 5.35 0
    endloop
  endfacet
  facet normal 0 0 -1
    outer loop
      vertex 31.9671 5.37283 0
      vertex 26.8189 5.4797 0
      vertex 31.9671 6 0
    endloop
  endfacet
  facet normal 0 0 -1
    outer loop
      vertex 28.1439 6.44237 0
      vertex 31.9671 6 0
      vertex 27.5576 5.8561 0
    endloop
  endfacet
  facet normal 0 0 -1
    outer loop
      vertex 8.65 8 0
      vertex 29 15.1962 0
      vertex 30.0148 14.4589 0
    endloop
  endfacet
  facet normal 0 0 -1
    outer loop
      vertex 8.5203 8.81889 0
      vertex 26 16 0
      vertex 26 15.9671 0
    endloop
  endfacet
  facet normal 0 0 -1
    outer loop
      vertex 8.5203 8.81889 0
      vertex 26 15.9671 0
      vertex 26.6272 15.9671 0
    endloop
  endfacet
  facet normal 0 0 -1
    outer loop
      vertex 8.65 8 0
      vertex 30.0148 14.4589 0
      vertex 8.5203 7.1811 0
    endloop
  endfacet
  facet normal 1.77321e-16 1 0
    outer loop
      vertex 0.032869 10 14
      vertex 0.032869 10 0
      vertex 0 10 14
    endloop
  endfacet
  facet normal 1.77321e-16 1 0
    outer loop
      vertex 0 10 14
      vertex 0.032869 10 0
      vertex 0 10 0
    endloop
  endfacet
  facet normal 0 0 1
    outer loop
      vertex 0 10 14
      vertex 0 6 14
      vertex 0.131114 4.75253 14
    endloop
  endfacet
  facet normal 0 0 1
    outer loop
      vertex 1.1459 2.47329 14
      vertex 0 10 14
      vertex 0.518727 3.55958 14
    endloop
  endfacet
  facet normal 0 0 1
    outer loop
      vertex 0.518727 3.55958 14
      vertex 0 10 14
      vertex 0.131114 4.75253 14
    endloop
  endfacet
  facet normal 0 0 1
    outer loop
      vertex 1.98522 1.54113 14
      vertex 0 10 14
      vertex 1.1459 2.47329 14
    endloop
  endfacet
  facet normal 0 0 1
    outer loop
      vertex 3 0.803848 14
      vertex 0 10 14
      vertex 1.98522 1.54113 14
    endloop
  endfacet
  facet normal 0 0 1
    outer loop
      vertex 4.1459 0.293661 14
      vertex 0 10 14
      vertex 3 0.803848 14
    endloop
  endfacet
  facet normal 0 0 1
    outer loop
      vertex 5.37283 0.032869 14
      vertex 0 10 14
      vertex 4.1459 0.293661 14
    endloop
  endfacet
  facet normal 0 0 1
    outer loop
      vertex 6 0.032869 14
      vertex 0 10 14
      vertex 5.37283 0.032869 14
    endloop
  endfacet
  facet normal 0 0 1
    outer loop
      vertex 3.4797 7.1811 14
      vertex 0 10 14
      vertex 6 0.032869 14
    endloop
  endfacet
  facet normal 0 0 1
    outer loop
      vertex 13.1429 0 14
      vertex 6 0.032869 14
      vertex 6 0 14
    endloop
  endfacet
  facet normal 0 0 1
    outer loop
      vertex 3.4797 7.1811 14
      vertex 0.032869 10 14
      vertex 0 10 14
    endloop
  endfacet
  facet normal 0 0 1
    outer loop
      vertex 3.4797 7.1811 14
      vertex 3.35 8 14
      vertex 0.032869 10 14
    endloop
  endfacet
  facet normal 0 0 1
    outer loop
      vertex 3.8561 6.44237 14
      vertex 3.4797 7.1811 14
      vertex 6 0.032869 14
    endloop
  endfacet
  facet normal 0 0 1
    outer loop
      vertex 6 5.35 14
      vertex 5.1811 5.4797 14
      vertex 13.1429 0 14
    endloop
  endfacet
  facet normal 0 0 1
    outer loop
      vertex 3.4797 8.81889 14
      vertex 0.032869 10 14
      vertex 3.35 8 14
    endloop
  endfacet
  facet normal 0 0 1
    outer loop
      vertex 3.8561 9.55763 14
      vertex 0.032869 10 14
      vertex 3.4797 8.81889 14
    endloop
  endfacet
  facet normal 0 0 1
    outer loop
      vertex 6 10.65 14
      vertex 6.81889 10.5203 14
      vertex 13.1429 16 14
    endloop
  endfacet
  facet normal 0 0 1
    outer loop
      vertex 4.44237 10.1439 14
      vertex 0.032869 10 14
      vertex 3.8561 9.55763 14
    endloop
  endfacet
  facet normal 0 0 1
    outer loop
      vertex 13.1429 16 14
      vertex 0.032869 10 14
      vertex 4.44237 10.1439 14
    endloop
  endfacet
  facet normal 0 0 1
    outer loop
      vertex 13.1429 16 14
      vertex 4.44237 10.1439 14
      vertex 5.1811 10.5203 14
    endloop
  endfacet
  facet normal 0 0 1
    outer loop
      vertex 8.5203 8.81889 14
      vertex 8.65 8 14
      vertex 13.1429 0 14
    endloop
  endfacet
  facet normal 0 0 1
    outer loop
      vertex 6.81889 5.4797 14
      vertex 6 5.35 14
      vertex 13.1429 0 14
    endloop
  endfacet
  facet normal 0 0 1
    outer loop
      vertex 8.65 8 14
      vertex 8.5203 7.1811 14
      vertex 13.1429 0 14
    endloop
  endfacet
  facet normal 0 0 1
    outer loop
      vertex 13.1429 16 14
      vertex 6.81889 10.5203 14
      vertex 7.55763 10.1439 14
    endloop
  endfacet
  facet normal 0 0 1
    outer loop
      vertex 13.1429 16 14
      vertex 8.14389 9.55763 14
      vertex 13.1429 0 14
    endloop
  endfacet
  facet normal 0 0 1
    outer loop
      vertex 13.1429 16 14
      vertex 7.55763 10.1439 14
      vertex 8.14389 9.55763 14
    endloop
  endfacet
  facet normal 0 0 1
    outer loop
      vertex 8.14389 9.55763 14
      vertex 8.5203 8.81889 14
      vertex 13.1429 0 14
    endloop
  endfacet
  facet normal 0 0 1
    outer loop
      vertex 8.5203 7.1811 14
      vertex 8.14389 6.44237 14
      vertex 13.1429 0 14
    endloop
  endfacet
  facet normal 0 0 1
    outer loop
      vertex 8.14389 6.44237 14
      vertex 7.55763 5.8561 14
      vertex 13.1429 0 14
    endloop
  endfacet
  facet normal 0 0 1
    outer loop
      vertex 7.55763 5.8561 14
      vertex 6.81889 5.4797 14
      vertex 13.1429 0 14
    endloop
  endfacet
  facet normal 0 0 1
    outer loop
      vertex 5.1811 10.5203 14
      vertex 6 10.65 14
      vertex 13.1429 16 14
    endloop
  endfacet
  facet normal 0 0 1
    outer loop
      vertex 13.1429 0 14
      vertex 5.1811 5.4797 14
      vertex 6 0.032869 14
    endloop
  endfacet
  facet normal 0 0 1
    outer loop
      vertex 5.1811 5.4797 14
      vertex 4.44237 5.8561 14
      vertex 6 0.032869 14
    endloop
  endfacet
  facet normal 0 0 1
    outer loop
      vertex 4.44237 5.8561 14
      vertex 3.8561 6.44237 14
      vertex 6 0.032869 14
    endloop
  endfacet
  facet normal 0 0 1
    outer loop
      vertex 0.032869 10.6272 14
      vertex 0.803848 13 14
      vertex 0.293661 11.8541 14
    endloop
  endfacet
  facet normal 0 0 1
    outer loop
      vertex 0.032869 10.6272 14
      vertex 1.54113 14.0148 14
      vertex 0.803848 13 14
    endloop
  endfacet
  facet normal 0 0 1
    outer loop
      vertex 0.032869 10.6272 14
      vertex 2.47329 14.8541 14
      vertex 1.54113 14.0148 14
    endloop
  endfacet
  facet normal 0 0 1
    outer loop
      vertex 0.032869 10.6272 14
      vertex 3.55958 15.4813 14
      vertex 2.47329 14.8541 14
    endloop
  endfacet
  facet normal 0 0 1
    outer loop
      vertex 0.032869 10.6272 14
      vertex 4.75253 15.8689 14
      vertex 3.55958 15.4813 14
    endloop
  endfacet
  facet normal 0 0 1
    outer loop
      vertex 0.032869 10.6272 14
      vertex 6 16 14
      vertex 4.75253 15.8689 14
    endloop
  endfacet
  facet normal 0 0 1
    outer loop
      vertex 0.032869 10.6272 14
      vertex 13.1429 16 14
      vertex 6 16 14
    endloop
  endfacet
  facet normal 0 0 1
    outer loop
      vertex 0.032869 10.6272 14
      vertex 0.032869 10 14
      vertex 13.1429 16 14
    endloop
  endfacet
  facet normal -0.951057 -0.309017 0
    outer loop
      vertex 0.131114 4.75253 0
      vertex 0.518727 3.55958 0
      vertex 0.131114 4.75253 14
    endloop
  endfacet
  facet normal -0.951057 -0.309017 0
    outer loop
      vertex 0.131114 4.75253 14
      vertex 0.518727 3.55958 0
      vertex 0.518727 3.55958 14
    endloop
  endfacet
  facet normal -0.866025 -0.5 0
    outer loop
      vertex 0.518727 3.55958 0
      vertex 1.1459 2.47329 0
      vertex 0.518727 3.55958 14
    endloop
  endfacet
  facet normal -0.866025 -0.5 0
    outer loop
      vertex 0.518727 3.55958 14
      vertex 1.1459 2.47329 0
      vertex 1.1459 2.47329 14
    endloop
  endfacet
  facet normal -0.743145 -0.669131 0
    outer loop
      vertex 1.1459 2.47329 0
      vertex 1.98522 1.54113 0
      vertex 1.1459 2.47329 14
    endloop
  endfacet
  facet normal -0.743145 -0.669131 0
    outer loop
      vertex 1.1459 2.47329 14
      vertex 1.98522 1.54113 0
      vertex 1.98522 1.54113 14
    endloop
  endfacet
  facet normal -0.587785 -0.809017 0
    outer loop
      vertex 1.98522 1.54113 14
      vertex 1.98522 1.54113 0
      vertex 3 0.803848 0
    endloop
  endfacet
  facet normal -0.587785 -0.809017 0
    outer loop
      vertex 3 0.803848 14
      vertex 1.98522 1.54113 14
      vertex 3 0.803848 0
    endloop
  endfacet
  facet normal -0.406737 -0.913545 0
    outer loop
      vertex 3 0.803848 14
      vertex 3 0.803848 0
      vertex 4.1459 0.293661 0
    endloop
  endfacet
  facet normal -0.406737 -0.913545 0
    outer loop
      vertex 4.1459 0.293661 14
      vertex 3 0.803848 14
      vertex 4.1459 0.293661 0
    endloop
  endfacet
  facet normal -0.207912 -0.978148 0
    outer loop
      vertex 4.1459 0.293661 14
      vertex 4.1459 0.293661 0
      vertex 5.37283 0.032869 0
    endloop
  endfacet
  facet normal -0.207912 -0.978148 0
    outer loop
      vertex 5.37283 0.032869 14
      vertex 4.1459 0.293661 14
      vertex 5.37283 0.032869 0
    endloop
  endfacet
  facet normal -1.22465e-16 -1 0
    outer loop
      vertex 5.37283 0.032869 14
      vertex 5.37283 0.032869 0
      vertex 6 0.032869 0
    endloop
  endfacet
  facet normal -1.22465e-16 -1 0
    outer loop
      vertex 6 0.032869 14
      vertex 5.37283 0.032869 14
      vertex 6 0.032869 0
    endloop
  endfacet
  facet normal -1 1.22465e-16 0
    outer loop
      vertex 6 0.032869 14
      vertex 6 0.032869 0
      vertex 6 0 14
    endloop
  endfacet
  facet normal -1 1.22465e-16 0
    outer loop
      vertex 6 0 14
      vertex 6 0.032869 0
      vertex 6 0 0
    endloop
  endfacet
  facet normal 0 -1 0
    outer loop
      vertex 16.4338 0 5.97273
      vertex 6 0 0
      vertex 26 0 0
    endloop
  endfacet
  facet normal 0 -1 0
    outer loop
      vertex 26 0 14
      vertex 18.8571 0 14
      vertex 26 0 0
    endloop
  endfacet
  facet normal 0 -1 0
    outer loop
      vertex 17.2824 0 6.15311
      vertex 16.4338 0 5.97273
      vertex 26 0 0
    endloop
  endfacet
  facet normal 0 -1 0
    outer loop
      vertex 20.0593 0 10.9628
      vertex 20.15 0 10.1
      vertex 26 0 0
    endloop
  endfacet
  facet normal 0 -1 0
    outer loop
      vertex 18.8571 0 14
      vertex 18.8571 0 13.0949
      vertex 19.3574 0 12.5393
    endloop
  endfacet
  facet normal 0 -1 0
    outer loop
      vertex 18.8571 0 14
      vertex 19.7912 0 11.788
      vertex 26 0 0
    endloop
  endfacet
  facet normal 0 -1 0
    outer loop
      vertex 18.8571 0 14
      vertex 19.3574 0 12.5393
      vertex 19.7912 0 11.788
    endloop
  endfacet
  facet normal 0 -1 0
    outer loop
      vertex 20.15 0 10.1
      vertex 20.0593 0 9.23717
      vertex 26 0 0
    endloop
  endfacet
  facet normal 0 -1 0
    outer loop
      vertex 13.1429 0 13.0949
      vertex 13.1429 0 14
      vertex 6 0 14
    endloop
  endfacet
  facet normal 0 -1 0
    outer loop
      vertex 20.0593 0 9.23717
      vertex 19.7912 0 8.41204
      vertex 26 0 0
    endloop
  endfacet
  facet normal 0 -1 0
    outer loop
      vertex 19.7912 0 8.41204
      vertex 19.3574 0 7.66069
      vertex 26 0 0
    endloop
  endfacet
  facet normal 0 -1 0
    outer loop
      vertex 19.3574 0 7.66069
      vertex 18.7769 0 7.01595
      vertex 26 0 0
    endloop
  endfacet
  facet normal 0 -1 0
    outer loop
      vertex 18.7769 0 7.01595
      vertex 18.075 0 6.50599
      vertex 26 0 0
    endloop
  endfacet
  facet normal 0 -1 0
    outer loop
      vertex 18.075 0 6.50599
      vertex 17.2824 0 6.15311
      vertex 26 0 0
    endloop
  endfacet
  facet normal 0 -1 0
    outer loop
      vertex 15.5662 0 5.97273
      vertex 6 0 0
      vertex 16.4338 0 5.97273
    endloop
  endfacet
  facet normal 0 -1 0
    outer loop
      vertex 14.7176 0 6.15311
      vertex 6 0 0
      vertex 15.5662 0 5.97273
    endloop
  endfacet
  facet normal 0 -1 0
    outer loop
      vertex 13.925 0 6.50599
      vertex 6 0 0
      vertex 14.7176 0 6.15311
    endloop
  endfacet
  facet normal 0 -1 0
    outer loop
      vertex 12.2088 0 8.41204
      vertex 11.9407 0 9.23717
      vertex 6 0 14
    endloop
  endfacet
  facet normal 0 -1 0
    outer loop
      vertex 13.2231 0 7.01595
      vertex 6 0 0
      vertex 13.925 0 6.50599
    endloop
  endfacet
  facet normal 0 -1 0
    outer loop
      vertex 6 0 14
      vertex 6 0 0
      vertex 13.2231 0 7.01595
    endloop
  endfacet
  facet normal 0 -1 0
    outer loop
      vertex 11.9407 0 9.23717
      vertex 11.85 0 10.1
      vertex 6 0 14
    endloop
  endfacet
  facet normal 0 -1 0
    outer loop
      vertex 6 0 14
      vertex 13.2231 0 7.01595
      vertex 12.6426 0 7.66069
    endloop
  endfacet
  facet normal 0 -1 0
    outer loop
      vertex 11.85 0 10.1
      vertex 11.9407 0 10.9628
      vertex 6 0 14
    endloop
  endfacet
  facet normal 0 -1 0
    outer loop
      vertex 11.9407 0 10.9628
      vertex 12.2088 0 11.788
      vertex 6 0 14
    endloop
  endfacet
  facet normal 0 -1 0
    outer loop
      vertex 12.2088 0 11.788
      vertex 12.6426 0 12.5393
      vertex 6 0 14
    endloop
  endfacet
  facet normal 0 -1 0
    outer loop
      vertex 13.1429 0 13.0949
      vertex 6 0 14
      vertex 12.6426 0 12.5393
    endloop
  endfacet
  facet normal 0 -1 0
    outer loop
      vertex 19.7912 0 11.788
      vertex 20.0593 0 10.9628
      vertex 26 0 0
    endloop
  endfacet
  facet normal 0 -1 0
    outer loop
      vertex 12.6426 0 7.66069
      vertex 12.2088 0 8.41204
      vertex 6 0 14
    endloop
  endfacet
  facet normal 0.104528 -0.994522 0
    outer loop
      vertex 26 0 14
      vertex 26 0 0
      vertex 27.2475 0.131114 0
    endloop
  endfacet
  facet normal 0.104528 -0.994522 0
    outer loop
      vertex 27.2475 0.131114 14
      vertex 26 0 14
      vertex 27.2475 0.131114 0
    endloop
  endfacet
  facet normal 0.309017 -0.951057 0
    outer loop
      vertex 27.2475 0.131114 14
      vertex 27.2475 0.131114 0
      vertex 28.4404 0.518727 0
    endloop
  endfacet
  facet normal 0.309017 -0.951057 0
    outer loop
      vertex 28.4404 0.518727 14
      vertex 27.2475 0.131114 14
      vertex 28.4404 0.518727 0
    endloop
  endfacet
  facet normal 0.5 -0.866025 0
    outer loop
      vertex 28.4404 0.518727 14
      vertex 28.4404 0.518727 0
      vertex 29.5267 1.1459 0
    endloop
  endfacet
  facet normal 0.5 -0.866025 0
    outer loop
      vertex 29.5267 1.1459 14
      vertex 28.4404 0.518727 14
      vertex 29.5267 1.1459 0
    endloop
  endfacet
  facet normal 0.669131 -0.743145 0
    outer loop
      vertex 29.5267 1.1459 14
      vertex 29.5267 1.1459 0
      vertex 30.4589 1.98522 0
    endloop
  endfacet
  facet normal 0.669131 -0.743145 0
    outer loop
      vertex 30.4589 1.98522 14
      vertex 29.5267 1.1459 14
      vertex 30.4589 1.98522 0
    endloop
  endfacet
  facet normal 0.809017 -0.587785 0
    outer loop
      vertex 30.4589 1.98522 14
      vertex 30.4589 1.98522 0
      vertex 31.1962 3 0
    endloop
  endfacet
  facet normal 0.809017 -0.587785 0
    outer loop
      vertex 31.1962 3 14
      vertex 30.4589 1.98522 14
      vertex 31.1962 3 0
    endloop
  endfacet
  facet normal 0.913545 -0.406737 0
    outer loop
      vertex 31.1962 3 14
      vertex 31.1962 3 0
      vertex 31.7063 4.1459 0
    endloop
  endfacet
  facet normal 0.913545 -0.406737 0
    outer loop
      vertex 31.7063 4.1459 14
      vertex 31.1962 3 14
      vertex 31.7063 4.1459 0
    endloop
  endfacet
  facet normal 0.978148 -0.207912 0
    outer loop
      vertex 31.7063 4.1459 14
      vertex 31.7063 4.1459 0
      vertex 31.9671 5.37283 0
    endloop
  endfacet
  facet normal 0.978148 -0.207912 0
    outer loop
      vertex 31.9671 5.37283 14
      vertex 31.7063 4.1459 14
      vertex 31.9671 5.37283 0
    endloop
  endfacet
  facet normal 1 -1.36718e-16 0
    outer loop
      vertex 31.9671 5.37283 14
      vertex 31.9671 5.37283 0
      vertex 31.9671 6 0
    endloop
  endfacet
  facet normal 1 -1.36718e-16 0
    outer loop
      vertex 31.9671 6 14
      vertex 31.9671 5.37283 14
      vertex 31.9671 6 0
    endloop
  endfacet
  facet normal -1.36718e-16 -1 0
    outer loop
      vertex 32 6 0
      vertex 32 6 14
      vertex 31.9671 6 14
    endloop
  endfacet
  facet normal -1.36718e-16 -1 0
    outer loop
      vertex 31.9671 6 0
      vertex 32 6 0
      vertex 31.9671 6 14
    endloop
  endfacet
  facet normal 1 0 0
    outer loop
      vertex 32 6 14
      vertex 32 6 0
      vertex 32 10 0
    endloop
  endfacet
  facet normal 1 0 0
    outer loop
      vertex 32 10 14
      vertex 32 6 14
      vertex 32 10 0
    endloop
  endfacet
  facet normal 0.994522 0.104528 0
    outer loop
      vertex 32 10 0
      vertex 31.8689 11.2475 0
      vertex 31.8689 11.2475 14
    endloop
  endfacet
  facet normal 0.994522 0.104528 0
    outer loop
      vertex 32 10 14
      vertex 32 10 0
      vertex 31.8689 11.2475 14
    endloop
  endfacet
  facet normal 0.951057 0.309017 0
    outer loop
      vertex 31.8689 11.2475 0
      vertex 31.4813 12.4404 0
      vertex 31.4813 12.4404 14
    endloop
  endfacet
  facet normal 0.951057 0.309017 0
    outer loop
      vertex 31.8689 11.2475 14
      vertex 31.8689 11.2475 0
      vertex 31.4813 12.4404 14
    endloop
  endfacet
  facet normal 0.866025 0.5 0
    outer loop
      vertex 31.4813 12.4404 0
      vertex 30.8541 13.5267 0
      vertex 30.8541 13.5267 14
    endloop
  endfacet
  facet normal 0.866025 0.5 0
    outer loop
      vertex 31.4813 12.4404 14
      vertex 31.4813 12.4404 0
      vertex 30.8541 13.5267 14
    endloop
  endfacet
  facet normal 0.743145 0.669131 0
    outer loop
      vertex 30.8541 13.5267 0
      vertex 30.0148 14.4589 0
      vertex 30.0148 14.4589 14
    endloop
  endfacet
  facet normal 0.743145 0.669131 0
    outer loop
      vertex 30.8541 13.5267 14
      vertex 30.8541 13.5267 0
      vertex 30.0148 14.4589 14
    endloop
  endfacet
  facet normal 0.587785 0.809017 0
    outer loop
      vertex 29 15.1962 0
      vertex 29 15.1962 14
      vertex 30.0148 14.4589 0
    endloop
  endfacet
  facet normal 0.587785 0.809017 0
    outer loop
      vertex 30.0148 14.4589 0
      vertex 29 15.1962 14
      vertex 30.0148 14.4589 14
    endloop
  endfacet
  facet normal 0.406737 0.913545 0
    outer loop
      vertex 27.8541 15.7063 0
      vertex 27.8541 15.7063 14
      vertex 29 15.1962 0
    endloop
  endfacet
  facet normal 0.406737 0.913545 0
    outer loop
      vertex 29 15.1962 0
      vertex 27.8541 15.7063 14
      vertex 29 15.1962 14
    endloop
  endfacet
  facet normal 0.207912 0.978148 0
    outer loop
      vertex 26.6272 15.9671 0
      vertex 26.6272 15.9671 14
      vertex 27.8541 15.7063 0
    endloop
  endfacet
  facet normal 0.207912 0.978148 0
    outer loop
      vertex 27.8541 15.7063 0
      vertex 26.6272 15.9671 14
      vertex 27.8541 15.7063 14
    endloop
  endfacet
  facet normal 0 1 0
    outer loop
      vertex 26 15.9671 0
      vertex 26 15.9671 14
      vertex 26.6272 15.9671 0
    endloop
  endfacet
  facet normal 0 1 0
    outer loop
      vertex 26.6272 15.9671 0
      vertex 26 15.9671 14
      vertex 26.6272 15.9671 14
    endloop
  endfacet
  facet normal 1 0 0
    outer loop
      vertex 26 16 0
      vertex 26 16 14
      vertex 26 15.9671 14
    endloop
  endfacet
  facet normal 1 0 0
    outer loop
      vertex 26 15.9671 0
      vertex 26 16 0
      vertex 26 15.9671 14
    endloop
  endfacet
  facet normal 0 1 0
    outer loop
      vertex 15.5662 16 5.97273
      vertex 26 16 0
      vertex 14.7176 16 6.15312
    endloop
  endfacet
  facet normal 0 1 0
    outer loop
      vertex 13.1429 16 13.0949
      vertex 6 16 14
      vertex 13.1429 16 14
    endloop
  endfacet
  facet normal 0 1 0
    outer loop
      vertex 12.6426 16 12.5393
      vertex 6 16 14
      vertex 13.1429 16 13.0949
    endloop
  endfacet
  facet normal 0 1 0
    outer loop
      vertex 12.2088 16 11.788
      vertex 6 16 14
      vertex 12.6426 16 12.5393
    endloop
  endfacet
  facet normal 0 1 0
    outer loop
      vertex 11.9407 16 10.9628
      vertex 6 16 14
      vertex 12.2088 16 11.788
    endloop
  endfacet
  facet normal 0 1 0
    outer loop
      vertex 11.85 16 10.1
      vertex 6 16 14
      vertex 11.9407 16 10.9628
    endloop
  endfacet
  facet normal 0 1 0
    outer loop
      vertex 6 16 0
      vertex 6 16 14
      vertex 11.9407 16 9.23717
    endloop
  endfacet
  facet normal 0 1 0
    outer loop
      vertex 6 16 0
      vertex 11.9407 16 9.23717
      vertex 12.2088 16 8.41204
    endloop
  endfacet
  facet normal 0 1 0
    outer loop
      vertex 6 16 0
      vertex 12.2088 16 8.41204
      vertex 12.6426 16 7.66069
    endloop
  endfacet
  facet normal 0 1 0
    outer loop
      vertex 6 16 0
      vertex 12.6426 16 7.66069
      vertex 13.2231 16 7.01595
    endloop
  endfacet
  facet normal 0 1 0
    outer loop
      vertex 6 16 0
      vertex 13.2231 16 7.01595
      vertex 13.925 16 6.506
    endloop
  endfacet
  facet normal 0 1 0
    outer loop
      vertex 6 16 0
      vertex 13.925 16 6.506
      vertex 26 16 0
    endloop
  endfacet
  facet normal 0 1 0
    outer loop
      vertex 13.925 16 6.506
      vertex 14.7176 16 6.15312
      vertex 26 16 0
    endloop
  endfacet
  facet normal 0 1 0
    outer loop
      vertex 16.4338 16 5.97273
      vertex 26 16 0
      vertex 15.5662 16 5.97273
    endloop
  endfacet
  facet normal 0 1 0
    outer loop
      vertex 17.2824 16 6.15312
      vertex 26 16 0
      vertex 16.4338 16 5.97273
    endloop
  endfacet
  facet normal 0 1 0
    outer loop
      vertex 18.7769 16 7.01595
      vertex 26 16 0
      vertex 18.075 16 6.506
    endloop
  endfacet
  facet normal 0 1 0
    outer loop
      vertex 19.3574 16 7.66069
      vertex 26 16 0
      vertex 18.7769 16 7.01595
    endloop
  endfacet
  facet normal 0 1 0
    outer loop
      vertex 26 16 0
      vertex 19.3574 16 7.66069
      vertex 19.7912 16 8.41204
    endloop
  endfacet
  facet normal 0 1 0
    outer loop
      vertex 19.7912 16 8.41204
      vertex 20.0593 16 9.23717
      vertex 26 16 0
    endloop
  endfacet
  facet normal 0 1 0
    outer loop
      vertex 20.0593 16 9.23717
      vertex 20.15 16 10.1
      vertex 26 16 0
    endloop
  endfacet
  facet normal 0 1 0
    outer loop
      vertex 20.15 16 10.1
      vertex 20.0593 16 10.9628
      vertex 26 16 0
    endloop
  endfacet
  facet normal 0 1 0
    outer loop
      vertex 20.0593 16 10.9628
      vertex 19.7912 16 11.788
      vertex 26 16 0
    endloop
  endfacet
  facet normal 0 1 0
    outer loop
      vertex 19.7912 16 11.788
      vertex 18.8571 16 14
      vertex 26 16 0
    endloop
  endfacet
  facet normal 0 1 0
    outer loop
      vertex 19.3574 16 12.5393
      vertex 18.8571 16 13.0949
      vertex 18.8571 16 14
    endloop
  endfacet
  facet normal 0 1 0
    outer loop
      vertex 19.3574 16 12.5393
      vertex 18.8571 16 14
      vertex 19.7912 16 11.788
    endloop
  endfacet
  facet normal 0 1 0
    outer loop
      vertex 26 16 0
      vertex 18.8571 16 14
      vertex 26 16 14
    endloop
  endfacet
  facet normal 0 1 0
    outer loop
      vertex 11.9407 16 9.23717
      vertex 6 16 14
      vertex 11.85 16 10.1
    endloop
  endfacet
  facet normal 0 1 0
    outer loop
      vertex 18.075 16 6.506
      vertex 26 16 0
      vertex 17.2824 16 6.15312
    endloop
  endfacet
  facet normal -0.104528 0.994522 0
    outer loop
      vertex 4.75253 15.8689 0
      vertex 4.75253 15.8689 14
      vertex 6 16 0
    endloop
  endfacet
  facet normal -0.104528 0.994522 0
    outer loop
      vertex 6 16 0
      vertex 4.75253 15.8689 14
      vertex 6 16 14
    endloop
  endfacet
  facet normal -0.309017 0.951057 0
    outer loop
      vertex 3.55958 15.4813 0
      vertex 3.55958 15.4813 14
      vertex 4.75253 15.8689 0
    endloop
  endfacet
  facet normal -0.309017 0.951057 0
    outer loop
      vertex 4.75253 15.8689 0
      vertex 3.55958 15.4813 14
      vertex 4.75253 15.8689 14
    endloop
  endfacet
  facet normal -0.5 0.866025 0
    outer loop
      vertex 2.47329 14.8541 0
      vertex 2.47329 14.8541 14
      vertex 3.55958 15.4813 0
    endloop
  endfacet
  facet normal -0.5 0.866025 0
    outer loop
      vertex 3.55958 15.4813 0
      vertex 2.47329 14.8541 14
      vertex 3.55958 15.4813 14
    endloop
  endfacet
  facet normal -0.669131 0.743145 0
    outer loop
      vertex 1.54113 14.0148 0
      vertex 1.54113 14.0148 14
      vertex 2.47329 14.8541 0
    endloop
  endfacet
  facet normal -0.669131 0.743145 0
    outer loop
      vertex 2.47329 14.8541 0
      vertex 1.54113 14.0148 14
      vertex 2.47329 14.8541 14
    endloop
  endfacet
  facet normal -0.809017 0.587785 0
    outer loop
      vertex 0.803848 13 0
      vertex 0.803848 13 14
      vertex 1.54113 14.0148 0
    endloop
  endfacet
  facet normal -0.809017 0.587785 0
    outer loop
      vertex 1.54113 14.0148 0
      vertex 0.803848 13 14
      vertex 1.54113 14.0148 14
    endloop
  endfacet
  facet normal -0.913545 0.406737 0
    outer loop
      vertex 0.293661 11.8541 0
      vertex 0.293661 11.8541 14
      vertex 0.803848 13 0
    endloop
  endfacet
  facet normal -0.913545 0.406737 0
    outer loop
      vertex 0.803848 13 0
      vertex 0.293661 11.8541 14
      vertex 0.803848 13 14
    endloop
  endfacet
  facet normal -0.978148 0.207912 0
    outer loop
      vertex 0.032869 10.6272 0
      vertex 0.032869 10.6272 14
      vertex 0.293661 11.8541 0
    endloop
  endfacet
  facet normal -0.978148 0.207912 0
    outer loop
      vertex 0.293661 11.8541 0
      vertex 0.032869 10.6272 14
      vertex 0.293661 11.8541 14
    endloop
  endfacet
  facet normal -1 1.77321e-16 0
    outer loop
      vertex 0.032869 10 0
      vertex 0.032869 10 14
      vertex 0.032869 10.6272 0
    endloop
  endfacet
  facet normal -1 1.77321e-16 0
    outer loop
      vertex 0.032869 10.6272 0
      vertex 0.032869 10 14
      vertex 0.032869 10.6272 14
    endloop
  endfacet
  facet normal 0.987688 -0.156434 0
    outer loop
      vertex 3.4797 8.81889 0
      vertex 3.4797 8.81889 14
      vertex 3.35 8 14
    endloop
  endfacet
  facet normal 0.987688 -0.156434 0
    outer loop
      vertex 3.35 8 0
      vertex 3.4797 8.81889 0
      vertex 3.35 8 14
    endloop
  endfacet
  facet normal 0.987688 0.156434 0
    outer loop
      vertex 3.35 8 14
      vertex 3.4797 7.1811 14
      vertex 3.4797 7.1811 0
    endloop
  endfacet
  facet normal 0.987688 0.156434 0
    outer loop
      vertex 3.35 8 0
      vertex 3.35 8 14
      vertex 3.4797 7.1811 0
    endloop
  endfacet
  facet normal 0.891006 -0.453991 0
    outer loop
      vertex 3.8561 9.55763 0
      vertex 3.8561 9.55763 14
      vertex 3.4797 8.81889 14
    endloop
  endfacet
  facet normal 0.891006 -0.453991 0
    outer loop
      vertex 3.4797 8.81889 0
      vertex 3.8561 9.55763 0
      vertex 3.4797 8.81889 14
    endloop
  endfacet
  facet normal 0.707107 -0.707107 0
    outer loop
      vertex 4.44237 10.1439 0
      vertex 4.44237 10.1439 14
      vertex 3.8561 9.55763 14
    endloop
  endfacet
  facet normal 0.707107 -0.707107 0
    outer loop
      vertex 3.8561 9.55763 0
      vertex 4.44237 10.1439 0
      vertex 3.8561 9.55763 14
    endloop
  endfacet
  facet normal 0.453991 -0.891006 0
    outer loop
      vertex 5.1811 10.5203 0
      vertex 5.1811 10.5203 14
      vertex 4.44237 10.1439 14
    endloop
  endfacet
  facet normal 0.453991 -0.891006 0
    outer loop
      vertex 4.44237 10.1439 0
      vertex 5.1811 10.5203 0
      vertex 4.44237 10.1439 14
    endloop
  endfacet
  facet normal 0.156434 -0.987688 0
    outer loop
      vertex 6 10.65 0
      vertex 6 10.65 14
      vertex 5.1811 10.5203 14
    endloop
  endfacet
  facet normal 0.156434 -0.987688 0
    outer loop
      vertex 5.1811 10.5203 0
      vertex 6 10.65 0
      vertex 5.1811 10.5203 14
    endloop
  endfacet
  facet normal -0.156434 -0.987688 0
    outer loop
      vertex 6.81889 10.5203 0
      vertex 6.81889 10.5203 14
      vertex 6 10.65 14
    endloop
  endfacet
  facet normal -0.156434 -0.987688 0
    outer loop
      vertex 6 10.65 0
      vertex 6.81889 10.5203 0
      vertex 6 10.65 14
    endloop
  endfacet
  facet normal -0.453991 -0.891006 0
    outer loop
      vertex 7.55763 10.1439 0
      vertex 7.55763 10.1439 14
      vertex 6.81889 10.5203 14
    endloop
  endfacet
  facet normal -0.453991 -0.891006 0
    outer loop
      vertex 6.81889 10.5203 0
      vertex 7.55763 10.1439 0
      vertex 6.81889 10.5203 14
    endloop
  endfacet
  facet normal -0.707107 -0.707107 0
    outer loop
      vertex 8.14389 9.55763 0
      vertex 8.14389 9.55763 14
      vertex 7.55763 10.1439 14
    endloop
  endfacet
  facet normal -0.707107 -0.707107 0
    outer loop
      vertex 7.55763 10.1439 0
      vertex 8.14389 9.55763 0
      vertex 7.55763 10.1439 14
    endloop
  endfacet
  facet normal -0.891006 -0.453991 0
    outer loop
      vertex 8.5203 8.81889 14
      vertex 8.14389 9.55763 14
      vertex 8.5203 8.81889 0
    endloop
  endfacet
  facet normal -0.891006 -0.453991 0
    outer loop
      vertex 8.5203 8.81889 0
      vertex 8.14389 9.55763 14
      vertex 8.14389 9.55763 0
    endloop
  endfacet
  facet normal -0.987688 -0.156434 0
    outer loop
      vertex 8.65 8 14
      vertex 8.5203 8.81889 14
      vertex 8.65 8 0
    endloop
  endfacet
  facet normal -0.987688 -0.156434 0
    outer loop
      vertex 8.65 8 0
      vertex 8.5203 8.81889 14
      vertex 8.5203 8.81889 0
    endloop
  endfacet
  facet normal -0.987688 0.156434 0
    outer loop
      vertex 8.65 8 14
      vertex 8.65 8 0
      vertex 8.5203 7.1811 14
    endloop
  endfacet
  facet normal -0.987688 0.156434 0
    outer loop
      vertex 8.5203 7.1811 14
      vertex 8.65 8 0
      vertex 8.5203 7.1811 0
    endloop
  endfacet
  facet normal -0.891006 0.453991 0
    outer loop
      vertex 8.5203 7.1811 14
      vertex 8.5203 7.1811 0
      vertex 8.14389 6.44237 14
    endloop
  endfacet
  facet normal -0.891006 0.453991 0
    outer loop
      vertex 8.14389 6.44237 14
      vertex 8.5203 7.1811 0
      vertex 8.14389 6.44237 0
    endloop
  endfacet
  facet normal -0.707107 0.707107 0
    outer loop
      vertex 8.14389 6.44237 14
      vertex 8.14389 6.44237 0
      vertex 7.55763 5.8561 14
    endloop
  endfacet
  facet normal -0.707107 0.707107 0
    outer loop
      vertex 7.55763 5.8561 14
      vertex 8.14389 6.44237 0
      vertex 7.55763 5.8561 0
    endloop
  endfacet
  facet normal -0.453991 0.891006 0
    outer loop
      vertex 7.55763 5.8561 14
      vertex 7.55763 5.8561 0
      vertex 6.81889 5.4797 14
    endloop
  endfacet
  facet normal -0.453991 0.891006 0
    outer loop
      vertex 6.81889 5.4797 14
      vertex 7.55763 5.8561 0
      vertex 6.81889 5.4797 0
    endloop
  endfacet
  facet normal -0.156434 0.987688 0
    outer loop
      vertex 6.81889 5.4797 14
      vertex 6.81889 5.4797 0
      vertex 6 5.35 14
    endloop
  endfacet
  facet normal -0.156434 0.987688 0
    outer loop
      vertex 6 5.35 14
      vertex 6.81889 5.4797 0
      vertex 6 5.35 0
    endloop
  endfacet
  facet normal 0.156434 0.987688 0
    outer loop
      vertex 6 5.35 14
      vertex 6 5.35 0
      vertex 5.1811 5.4797 14
    endloop
  endfacet
  facet normal 0.156434 0.987688 0
    outer loop
      vertex 5.1811 5.4797 14
      vertex 6 5.35 0
      vertex 5.1811 5.4797 0
    endloop
  endfacet
  facet normal 0.453991 0.891006 0
    outer loop
      vertex 5.1811 5.4797 14
      vertex 5.1811 5.4797 0
      vertex 4.44237 5.8561 14
    endloop
  endfacet
  facet normal 0.453991 0.891006 0
    outer loop
      vertex 4.44237 5.8561 14
      vertex 5.1811 5.4797 0
      vertex 4.44237 5.8561 0
    endloop
  endfacet
  facet normal 0.707107 0.707107 0
    outer loop
      vertex 4.44237 5.8561 14
      vertex 4.44237 5.8561 0
      vertex 3.8561 6.44237 14
    endloop
  endfacet
  facet normal 0.707107 0.707107 0
    outer loop
      vertex 3.8561 6.44237 14
      vertex 4.44237 5.8561 0
      vertex 3.8561 6.44237 0
    endloop
  endfacet
  facet normal 0.891006 0.453991 0
    outer loop
      vertex 3.4797 7.1811 14
      vertex 3.8561 6.44237 14
      vertex 3.8561 6.44237 0
    endloop
  endfacet
  facet normal 0.891006 0.453991 0
    outer loop
      vertex 3.4797 7.1811 0
      vertex 3.4797 7.1811 14
      vertex 3.8561 6.44237 0
    endloop
  endfacet
  facet normal 0.987688 -0.156434 0
    outer loop
      vertex 23.4797 8.81889 0
      vertex 23.4797 8.81889 14
      vertex 23.35 8 14
    endloop
  endfacet
  facet normal 0.987688 -0.156434 0
    outer loop
      vertex 23.35 8 0
      vertex 23.4797 8.81889 0
      vertex 23.35 8 14
    endloop
  endfacet
  facet normal 0.987688 0.156434 0
    outer loop
      vertex 23.35 8 14
      vertex 23.4797 7.1811 14
      vertex 23.4797 7.1811 0
    endloop
  endfacet
  facet normal 0.987688 0.156434 0
    outer loop
      vertex 23.35 8 0
      vertex 23.35 8 14
      vertex 23.4797 7.1811 0
    endloop
  endfacet
  facet normal 0.891006 -0.453991 0
    outer loop
      vertex 23.8561 9.55763 0
      vertex 23.8561 9.55763 14
      vertex 23.4797 8.81889 14
    endloop
  endfacet
  facet normal 0.891006 -0.453991 0
    outer loop
      vertex 23.4797 8.81889 0
      vertex 23.8561 9.55763 0
      vertex 23.4797 8.81889 14
    endloop
  endfacet
  facet normal 0.707107 -0.707107 0
    outer loop
      vertex 24.4424 10.1439 0
      vertex 24.4424 10.1439 14
      vertex 23.8561 9.55763 14
    endloop
  endfacet
  facet normal 0.707107 -0.707107 0
    outer loop
      vertex 23.8561 9.55763 0
      vertex 24.4424 10.1439 0
      vertex 23.8561 9.55763 14
    endloop
  endfacet
  facet normal 0.453991 -0.891006 0
    outer loop
      vertex 25.1811 10.5203 0
      vertex 25.1811 10.5203 14
      vertex 24.4424 10.1439 14
    endloop
  endfacet
  facet normal 0.453991 -0.891006 0
    outer loop
      vertex 24.4424 10.1439 0
      vertex 25.1811 10.5203 0
      vertex 24.4424 10.1439 14
    endloop
  endfacet
  facet normal 0.156434 -0.987688 0
    outer loop
      vertex 26 10.65 0
      vertex 26 10.65 14
      vertex 25.1811 10.5203 14
    endloop
  endfacet
  facet normal 0.156434 -0.987688 0
    outer loop
      vertex 25.1811 10.5203 0
      vertex 26 10.65 0
      vertex 25.1811 10.5203 14
    endloop
  endfacet
  facet normal -0.156434 -0.987688 0
    outer loop
      vertex 26.8189 10.5203 0
      vertex 26.8189 10.5203 14
      vertex 26 10.65 14
    endloop
  endfacet
  facet normal -0.156434 -0.987688 0
    outer loop
      vertex 26 10.65 0
      vertex 26.8189 10.5203 0
      vertex 26 10.65 14
    endloop
  endfacet
  facet normal -0.453991 -0.891006 0
    outer loop
      vertex 27.5576 10.1439 0
      vertex 27.5576 10.1439 14
      vertex 26.8189 10.5203 14
    endloop
  endfacet
  facet normal -0.453991 -0.891006 0
    outer loop
      vertex 26.8189 10.5203 0
      vertex 27.5576 10.1439 0
      vertex 26.8189 10.5203 14
    endloop
  endfacet
  facet normal -0.707107 -0.707107 0
    outer loop
      vertex 28.1439 9.55763 0
      vertex 28.1439 9.55763 14
      vertex 27.5576 10.1439 14
    endloop
  endfacet
  facet normal -0.707107 -0.707107 0
    outer loop
      vertex 27.5576 10.1439 0
      vertex 28.1439 9.55763 0
      vertex 27.5576 10.1439 14
    endloop
  endfacet
  facet normal -0.891006 -0.453991 0
    outer loop
      vertex 28.5203 8.81889 14
      vertex 28.1439 9.55763 14
      vertex 28.5203 8.81889 0
    endloop
  endfacet
  facet normal -0.891006 -0.453991 0
    outer loop
      vertex 28.5203 8.81889 0
      vertex 28.1439 9.55763 14
      vertex 28.1439 9.55763 0
    endloop
  endfacet
  facet normal -0.987688 -0.156434 0
    outer loop
      vertex 28.65 8 14
      vertex 28.5203 8.81889 14
      vertex 28.65 8 0
    endloop
  endfacet
  facet normal -0.987688 -0.156434 0
    outer loop
      vertex 28.65 8 0
      vertex 28.5203 8.81889 14
      vertex 28.5203 8.81889 0
    endloop
  endfacet
  facet normal -0.987688 0.156434 0
    outer loop
      vertex 28.65 8 14
      vertex 28.65 8 0
      vertex 28.5203 7.1811 14
    endloop
  endfacet
  facet normal -0.987688 0.156434 0
    outer loop
      vertex 28.5203 7.1811 14
      vertex 28.65 8 0
      vertex 28.5203 7.1811 0
    endloop
  endfacet
  facet normal -0.891006 0.453991 0
    outer loop
      vertex 28.5203 7.1811 14
      vertex 28.5203 7.1811 0
      vertex 28.1439 6.44237 14
    endloop
  endfacet
  facet normal -0.891006 0.453991 0
    outer loop
      vertex 28.1439 6.44237 14
      vertex 28.5203 7.1811 0
      vertex 28.1439 6.44237 0
    endloop
  endfacet
  facet normal -0.707107 0.707107 0
    outer loop
      vertex 28.1439 6.44237 14
      vertex 28.1439 6.44237 0
      vertex 27.5576 5.8561 14
    endloop
  endfacet
  facet normal -0.707107 0.707107 0
    outer loop
      vertex 27.5576 5.8561 14
      vertex 28.1439 6.44237 0
      vertex 27.5576 5.8561 0
    endloop
  endfacet
  facet normal -0.453991 0.891006 0
    outer loop
      vertex 27.5576 5.8561 14
      vertex 27.5576 5.8561 0
      vertex 26.8189 5.4797 14
    endloop
  endfacet
  facet normal -0.453991 0.891006 0
    outer loop
      vertex 26.8189 5.4797 14
      vertex 27.5576 5.8561 0
      vertex 26.8189 5.4797 0
    endloop
  endfacet
  facet normal -0.156434 0.987688 0
    outer loop
      vertex 26.8189 5.4797 14
      vertex 26.8189 5.4797 0
      vertex 26 5.35 14
    endloop
  endfacet
  facet normal -0.156434 0.987688 0
    outer loop
      vertex 26 5.35 14
      vertex 26.8189 5.4797 0
      vertex 26 5.35 0
    endloop
  endfacet
  facet normal 0.156434 0.987688 0
    outer loop
      vertex 26 5.35 14
      vertex 26 5.35 0
      vertex 25.1811 5.4797 14
    endloop
  endfacet
  facet normal 0.156434 0.987688 0
    outer loop
      vertex 25.1811 5.4797 14
      vertex 26 5.35 0
      vertex 25.1811 5.4797 0
    endloop
  endfacet
  facet normal 0.453991 0.891006 0
    outer loop
      vertex 25.1811 5.4797 14
      vertex 25.1811 5.4797 0
      vertex 24.4424 5.8561 14
    endloop
  endfacet
  facet normal 0.453991 0.891006 0
    outer loop
      vertex 24.4424 5.8561 14
      vertex 25.1811 5.4797 0
      vertex 24.4424 5.8561 0
    endloop
  endfacet
  facet normal 0.707107 0.707107 0
    outer loop
      vertex 24.4424 5.8561 14
      vertex 24.4424 5.8561 0
      vertex 23.8561 6.44237 14
    endloop
  endfacet
  facet normal 0.707107 0.707107 0
    outer loop
      vertex 23.8561 6.44237 14
      vertex 24.4424 5.8561 0
      vertex 23.8561 6.44237 0
    endloop
  endfacet
  facet normal 0.891006 0.453991 0
    outer loop
      vertex 23.4797 7.1811 14
      vertex 23.8561 6.44237 14
      vertex 23.8561 6.44237 0
    endloop
  endfacet
  facet normal 0.891006 0.453991 0
    outer loop
      vertex 23.4797 7.1811 0
      vertex 23.4797 7.1811 14
      vertex 23.8561 6.44237 0
    endloop
  endfacet
  facet normal 1 0 0
    outer loop
      vertex 13.1429 16 13.0949
      vertex 13.1429 16 14
      vertex 13.1429 0 14
    endloop
  endfacet
  facet normal 1 0 0
    outer loop
      vertex 13.1429 0 13.0949
      vertex 13.1429 16 13.0949
      vertex 13.1429 0 14
    endloop
  endfacet
  facet normal 0.743144 1.48577e-16 -0.669131
    outer loop
      vertex 12.6426 16 12.5393
      vertex 13.1429 16 13.0949
      vertex 13.1429 0 13.0949
    endloop
  endfacet
  facet normal 0.743144 1.48577e-16 -0.669131
    outer loop
      vertex 12.6426 0 12.5393
      vertex 12.6426 16 12.5393
      vertex 13.1429 0 13.0949
    endloop
  endfacet
  facet normal 0.866026 1.11022e-16 -0.5
    outer loop
      vertex 12.2088 16 11.788
      vertex 12.6426 16 12.5393
      vertex 12.6426 0 12.5393
    endloop
  endfacet
  facet normal 0.866026 1.11022e-16 -0.5
    outer loop
      vertex 12.2088 0 11.788
      vertex 12.2088 16 11.788
      vertex 12.6426 0 12.5393
    endloop
  endfacet
  facet normal 0.951056 6.86156e-17 -0.309017
    outer loop
      vertex 11.9407 16 10.9628
      vertex 12.2088 16 11.788
      vertex 12.2088 0 11.788
    endloop
  endfacet
  facet normal 0.951056 6.86156e-17 -0.309017
    outer loop
      vertex 11.9407 0 10.9628
      vertex 11.9407 16 10.9628
      vertex 12.2088 0 11.788
    endloop
  endfacet
  facet normal 0.994522 2.32099e-17 -0.104528
    outer loop
      vertex 11.85 16 10.1
      vertex 11.9407 16 10.9628
      vertex 11.9407 0 10.9628
    endloop
  endfacet
  facet normal 0.994522 2.32099e-17 -0.104528
    outer loop
      vertex 11.85 0 10.1
      vertex 11.85 16 10.1
      vertex 11.9407 0 10.9628
    endloop
  endfacet
  facet normal 0.994522 -2.32099e-17 0.104528
    outer loop
      vertex 11.9407 0 9.23717
      vertex 11.9407 16 9.23717
      vertex 11.85 16 10.1
    endloop
  endfacet
  facet normal 0.994522 -2.32099e-17 0.104528
    outer loop
      vertex 11.85 0 10.1
      vertex 11.9407 0 9.23717
      vertex 11.85 16 10.1
    endloop
  endfacet
  facet normal 0.951056 -6.86156e-17 0.309017
    outer loop
      vertex 12.2088 0 8.41204
      vertex 12.2088 16 8.41204
      vertex 11.9407 16 9.23717
    endloop
  endfacet
  facet normal 0.951056 -6.86156e-17 0.309017
    outer loop
      vertex 11.9407 0 9.23717
      vertex 12.2088 0 8.41204
      vertex 11.9407 16 9.23717
    endloop
  endfacet
  facet normal 0.866026 -1.11022e-16 0.5
    outer loop
      vertex 12.6426 0 7.66069
      vertex 12.6426 16 7.66069
      vertex 12.2088 16 8.41204
    endloop
  endfacet
  facet normal 0.866026 -1.11022e-16 0.5
    outer loop
      vertex 12.2088 0 8.41204
      vertex 12.6426 0 7.66069
      vertex 12.2088 16 8.41204
    endloop
  endfacet
  facet normal 0.743144 -1.48577e-16 0.669131
    outer loop
      vertex 13.2231 0 7.01595
      vertex 13.2231 16 7.01595
      vertex 12.6426 16 7.66069
    endloop
  endfacet
  facet normal 0.743144 -1.48577e-16 0.669131
    outer loop
      vertex 12.6426 0 7.66069
      vertex 13.2231 0 7.01595
      vertex 12.6426 16 7.66069
    endloop
  endfacet
  facet normal 0.587785 -1.79638e-16 0.809017
    outer loop
      vertex 13.925 0 6.50599
      vertex 13.925 16 6.506
      vertex 13.2231 16 7.01595
    endloop
  endfacet
  facet normal 0.587785 -1.79638e-16 0.809017
    outer loop
      vertex 13.2231 0 7.01595
      vertex 13.925 0 6.50599
      vertex 13.2231 16 7.01595
    endloop
  endfacet
  facet normal 0.406738 -2.02848e-16 0.913545
    outer loop
      vertex 14.7176 0 6.15311
      vertex 14.7176 16 6.15312
      vertex 13.925 16 6.506
    endloop
  endfacet
  facet normal 0.406738 -2.02848e-16 0.913545
    outer loop
      vertex 13.925 0 6.50599
      vertex 14.7176 0 6.15311
      vertex 13.925 16 6.506
    endloop
  endfacet
  facet normal 0.207911 -2.17192e-16 0.978148
    outer loop
      vertex 15.5662 0 5.97273
      vertex 15.5662 16 5.97273
      vertex 14.7176 16 6.15312
    endloop
  endfacet
  facet normal 0.207911 -2.17192e-16 0.978148
    outer loop
      vertex 14.7176 0 6.15311
      vertex 15.5662 0 5.97273
      vertex 14.7176 16 6.15312
    endloop
  endfacet
  facet normal 0 -2.22045e-16 1
    outer loop
      vertex 16.4338 0 5.97273
      vertex 16.4338 16 5.97273
      vertex 15.5662 16 5.97273
    endloop
  endfacet
  facet normal 0 -2.22045e-16 1
    outer loop
      vertex 15.5662 0 5.97273
      vertex 16.4338 0 5.97273
      vertex 15.5662 16 5.97273
    endloop
  endfacet
  facet normal -0.207911 -2.17192e-16 0.978148
    outer loop
      vertex 17.2824 0 6.15311
      vertex 17.2824 16 6.15312
      vertex 16.4338 16 5.97273
    endloop
  endfacet
  facet normal -0.207911 -2.17192e-16 0.978148
    outer loop
      vertex 16.4338 0 5.97273
      vertex 17.2824 0 6.15311
      vertex 16.4338 16 5.97273
    endloop
  endfacet
  facet normal -0.406738 -2.02848e-16 0.913545
    outer loop
      vertex 18.075 0 6.50599
      vertex 18.075 16 6.506
      vertex 17.2824 16 6.15312
    endloop
  endfacet
  facet normal -0.406738 -2.02848e-16 0.913545
    outer loop
      vertex 17.2824 0 6.15311
      vertex 18.075 0 6.50599
      vertex 17.2824 16 6.15312
    endloop
  endfacet
  facet normal -0.587785 -1.79638e-16 0.809017
    outer loop
      vertex 18.7769 0 7.01595
      vertex 18.7769 16 7.01595
      vertex 18.075 16 6.506
    endloop
  endfacet
  facet normal -0.587785 -1.79638e-16 0.809017
    outer loop
      vertex 18.075 0 6.50599
      vertex 18.7769 0 7.01595
      vertex 18.075 16 6.506
    endloop
  endfacet
  facet normal -0.743144 -1.48577e-16 0.669131
    outer loop
      vertex 19.3574 16 7.66069
      vertex 18.7769 16 7.01595
      vertex 19.3574 0 7.66069
    endloop
  endfacet
  facet normal -0.743144 -1.48577e-16 0.669131
    outer loop
      vertex 19.3574 0 7.66069
      vertex 18.7769 16 7.01595
      vertex 18.7769 0 7.01595
    endloop
  endfacet
  facet normal -0.866026 -1.11022e-16 0.5
    outer loop
      vertex 19.7912 16 8.41204
      vertex 19.3574 16 7.66069
      vertex 19.7912 0 8.41204
    endloop
  endfacet
  facet normal -0.866026 -1.11022e-16 0.5
    outer loop
      vertex 19.7912 0 8.41204
      vertex 19.3574 16 7.66069
      vertex 19.3574 0 7.66069
    endloop
  endfacet
  facet normal -0.951056 -6.86156e-17 0.309017
    outer loop
      vertex 20.0593 16 9.23717
      vertex 19.7912 16 8.41204
      vertex 20.0593 0 9.23717
    endloop
  endfacet
  facet normal -0.951056 -6.86156e-17 0.309017
    outer loop
      vertex 20.0593 0 9.23717
      vertex 19.7912 16 8.41204
      vertex 19.7912 0 8.41204
    endloop
  endfacet
  facet normal -0.994522 -2.32099e-17 0.104528
    outer loop
      vertex 20.15 16 10.1
      vertex 20.0593 16 9.23717
      vertex 20.15 0 10.1
    endloop
  endfacet
  facet normal -0.994522 -2.32099e-17 0.104528
    outer loop
      vertex 20.15 0 10.1
      vertex 20.0593 16 9.23717
      vertex 20.0593 0 9.23717
    endloop
  endfacet
  facet normal -0.994522 2.32099e-17 -0.104528
    outer loop
      vertex 20.15 16 10.1
      vertex 20.15 0 10.1
      vertex 20.0593 16 10.9628
    endloop
  endfacet
  facet normal -0.994522 2.32099e-17 -0.104528
    outer loop
      vertex 20.0593 16 10.9628
      vertex 20.15 0 10.1
      vertex 20.0593 0 10.9628
    endloop
  endfacet
  facet normal -0.951056 6.86156e-17 -0.309017
    outer loop
      vertex 20.0593 16 10.9628
      vertex 20.0593 0 10.9628
      vertex 19.7912 16 11.788
    endloop
  endfacet
  facet normal -0.951056 6.86156e-17 -0.309017
    outer loop
      vertex 19.7912 16 11.788
      vertex 20.0593 0 10.9628
      vertex 19.7912 0 11.788
    endloop
  endfacet
  facet normal -0.866026 1.11022e-16 -0.5
    outer loop
      vertex 19.7912 16 11.788
      vertex 19.7912 0 11.788
      vertex 19.3574 16 12.5393
    endloop
  endfacet
  facet normal -0.866026 1.11022e-16 -0.5
    outer loop
      vertex 19.3574 16 12.5393
      vertex 19.7912 0 11.788
      vertex 19.3574 0 12.5393
    endloop
  endfacet
  facet normal -0.743144 1.48577e-16 -0.669131
    outer loop
      vertex 19.3574 16 12.5393
      vertex 19.3574 0 12.5393
      vertex 18.8571 16 13.0949
    endloop
  endfacet
  facet normal -0.743144 1.48577e-16 -0.669131
    outer loop
      vertex 18.8571 16 13.0949
      vertex 19.3574 0 12.5393
      vertex 18.8571 0 13.0949
    endloop
  endfacet
  facet normal -1 0 0
    outer loop
      vertex 18.8571 16 14
      vertex 18.8571 16 13.0949
      vertex 18.8571 0 14
    endloop
  endfacet
  facet normal -1 0 0
    outer loop
      vertex 18.8571 0 14
      vertex 18.8571 16 13.0949
      vertex 18.8571 0 13.0949
    endloop
  endfacet
  facet normal 0 0 1
    outer loop
      vertex 18.8571 16 14
      vertex 18.8571 0 14
      vertex 26 0 14
    endloop
  endfacet
  facet normal 0 0 1
    outer loop
      vertex 23.4797 7.1811 14
      vertex 18.8571 16 14
      vertex 26 0 14
    endloop
  endfacet
  facet normal 0 0 1
    outer loop
      vertex 26 5.35 14
      vertex 25.1811 5.4797 14
      vertex 28.4404 0.518727 14
    endloop
  endfacet
  facet normal 0 0 1
    outer loop
      vertex 24.4424 10.1439 14
      vertex 25.1811 10.5203 14
      vertex 18.8571 16 14
    endloop
  endfacet
  facet normal 0 0 1
    outer loop
      vertex 28.1439 6.44237 14
      vertex 27.5576 5.8561 14
      vertex 31.1962 3 14
    endloop
  endfacet
  facet normal 0 0 1
    outer loop
      vertex 28.65 8 14
      vertex 31.7063 4.1459 14
      vertex 31.9671 5.37283 14
    endloop
  endfacet
  facet normal 0 0 1
    outer loop
      vertex 28.5203 8.81889 14
      vertex 31.9671 5.37283 14
      vertex 31.9671 6 14
    endloop
  endfacet
  facet normal 0 0 1
    outer loop
      vertex 28.1439 9.55763 14
      vertex 28.5203 8.81889 14
      vertex 32 6 14
    endloop
  endfacet
  facet normal 0 0 1
    outer loop
      vertex 31.8689 11.2475 14
      vertex 18.8571 16 14
      vertex 32 10 14
    endloop
  endfacet
  facet normal 0 0 1
    outer loop
      vertex 31.4813 12.4404 14
      vertex 18.8571 16 14
      vertex 31.8689 11.2475 14
    endloop
  endfacet
  facet normal 0 0 1
    outer loop
      vertex 30.8541 13.5267 14
      vertex 18.8571 16 14
      vertex 31.4813 12.4404 14
    endloop
  endfacet
  facet normal 0 0 1
    outer loop
      vertex 30.0148 14.4589 14
      vertex 18.8571 16 14
      vertex 30.8541 13.5267 14
    endloop
  endfacet
  facet normal 0 0 1
    outer loop
      vertex 29 15.1962 14
      vertex 18.8571 16 14
      vertex 30.0148 14.4589 14
    endloop
  endfacet
  facet normal 0 0 1
    outer loop
      vertex 27.8541 15.7063 14
      vertex 18.8571 16 14
      vertex 29 15.1962 14
    endloop
  endfacet
  facet normal 0 0 1
    outer loop
      vertex 26 15.9671 14
      vertex 18.8571 16 14
      vertex 27.8541 15.7063 14
    endloop
  endfacet
  facet normal 0 0 1
    outer loop
      vertex 26.6272 15.9671 14
      vertex 26 15.9671 14
      vertex 27.8541 15.7063 14
    endloop
  endfacet
  facet normal 0 0 1
    outer loop
      vertex 23.4797 7.1811 14
      vertex 23.35 8 14
      vertex 18.8571 16 14
    endloop
  endfacet
  facet normal 0 0 1
    outer loop
      vertex 23.8561 6.44237 14
      vertex 23.4797 7.1811 14
      vertex 26 0 14
    endloop
  endfacet
  facet normal 0 0 1
    outer loop
      vertex 25.1811 5.4797 14
      vertex 24.4424 5.8561 14
      vertex 28.4404 0.518727 14
    endloop
  endfacet
  facet normal 0 0 1
    outer loop
      vertex 24.4424 5.8561 14
      vertex 23.8561 6.44237 14
      vertex 27.2475 0.131114 14
    endloop
  endfacet
  facet normal 0 0 1
    outer loop
      vertex 27.5576 5.8561 14
      vertex 26.8189 5.4797 14
      vertex 30.4589 1.98522 14
    endloop
  endfacet
  facet normal 0 0 1
    outer loop
      vertex 28.5203 7.1811 14
      vertex 28.1439 6.44237 14
      vertex 31.7063 4.1459 14
    endloop
  endfacet
  facet normal 0 0 1
    outer loop
      vertex 32 10 14
      vertex 18.8571 16 14
      vertex 26 10.65 14
    endloop
  endfacet
  facet normal 0 0 1
    outer loop
      vertex 28.5203 8.81889 14
      vertex 31.9671 6 14
      vertex 32 6 14
    endloop
  endfacet
  facet normal 0 0 1
    outer loop
      vertex 32 10 14
      vertex 26 10.65 14
      vertex 26.8189 10.5203 14
    endloop
  endfacet
  facet normal 0 0 1
    outer loop
      vertex 32 10 14
      vertex 27.5576 10.1439 14
      vertex 32 6 14
    endloop
  endfacet
  facet normal 0 0 1
    outer loop
      vertex 32 10 14
      vertex 26.8189 10.5203 14
      vertex 27.5576 10.1439 14
    endloop
  endfacet
  facet normal 0 0 1
    outer loop
      vertex 27.5576 10.1439 14
      vertex 28.1439 9.55763 14
      vertex 32 6 14
    endloop
  endfacet
  facet normal 0 0 1
    outer loop
      vertex 26.8189 5.4797 14
      vertex 26 5.35 14
      vertex 29.5267 1.1459 14
    endloop
  endfacet
  facet normal 0 0 1
    outer loop
      vertex 28.5203 8.81889 14
      vertex 28.65 8 14
      vertex 31.9671 5.37283 14
    endloop
  endfacet
  facet normal 0 0 1
    outer loop
      vertex 28.65 8 14
      vertex 28.5203 7.1811 14
      vertex 31.7063 4.1459 14
    endloop
  endfacet
  facet normal 0 0 1
    outer loop
      vertex 31.7063 4.1459 14
      vertex 28.1439 6.44237 14
      vertex 31.1962 3 14
    endloop
  endfacet
  facet normal 0 0 1
    outer loop
      vertex 31.1962 3 14
      vertex 27.5576 5.8561 14
      vertex 30.4589 1.98522 14
    endloop
  endfacet
  facet normal 0 0 1
    outer loop
      vertex 30.4589 1.98522 14
      vertex 26.8189 5.4797 14
      vertex 29.5267 1.1459 14
    endloop
  endfacet
  facet normal 0 0 1
    outer loop
      vertex 29.5267 1.1459 14
      vertex 26 5.35 14
      vertex 28.4404 0.518727 14
    endloop
  endfacet
  facet normal 0 0 1
    outer loop
      vertex 23.4797 8.81889 14
      vertex 23.8561 9.55763 14
      vertex 18.8571 16 14
    endloop
  endfacet
  facet normal 0 0 1
    outer loop
      vertex 28.4404 0.518727 14
      vertex 24.4424 5.8561 14
      vertex 27.2475 0.131114 14
    endloop
  endfacet
  facet normal 0 0 1
    outer loop
      vertex 27.2475 0.131114 14
      vertex 23.8561 6.44237 14
      vertex 26 0 14
    endloop
  endfacet
  facet normal 0 0 1
    outer loop
      vertex 26 15.9671 14
      vertex 26 16 14
      vertex 18.8571 16 14
    endloop
  endfacet
  facet normal 0 0 1
    outer loop
      vertex 23.35 8 14
      vertex 23.4797 8.81889 14
      vertex 18.8571 16 14
    endloop
  endfacet
  facet normal 0 0 1
    outer loop
      vertex 23.8561 9.55763 14
      vertex 24.4424 10.1439 14
      vertex 18.8571 16 14
    endloop
  endfacet
  facet normal 0 0 1
    outer loop
      vertex 25.1811 10.5203 14
      vertex 26 10.65 14
      vertex 18.8571 16 14
    endloop
  endfacet
endsolid OpenSCAD_Model
