solid OpenSCAD_Model
  facet normal -1 0 0
    outer loop
      vertex 0 6 0
      vertex 0 6 11
      vertex 0 14 0
    endloop
  endfacet
  facet normal -1 0 0
    outer loop
      vertex 0 14 0
      vertex 0 6 11
      vertex 0 14 11
    endloop
  endfacet
  facet normal -0.994522 -0.104528 0
    outer loop
      vertex 0 6 0
      vertex 0.131114 4.75253 0
      vertex 0 6 11
    endloop
  endfacet
  facet normal -0.994522 -0.104528 0
    outer loop
      vertex 0 6 11
      vertex 0.131114 4.75253 0
      vertex 0.131114 4.75253 11
    endloop
  endfacet
  facet normal 0 0 -1
    outer loop
      vertex 0 6 0
      vertex 0 14 0
      vertex 0.131114 4.75253 0
    endloop
  endfacet
  facet normal 0 0 -1
    outer loop
      vertex 0.131114 4.75253 0
      vertex 0 14 0
      vertex 0.032869 14 0
    endloop
  endfacet
  facet normal 0 0 -1
    outer loop
      vertex 0.131114 4.75253 0
      vertex 0.032869 14 0
      vertex 0.032869 14.6272 0
    endloop
  endfacet
  facet normal 0 0 -1
    outer loop
      vertex 0.131114 4.75253 0
      vertex 0.032869 14.6272 0
      vertex 0.293661 15.8541 0
    endloop
  endfacet
  facet normal 0 0 -1
    outer loop
      vertex 0.131114 4.75253 0
      vertex 0.293661 15.8541 0
      vertex 0.803848 17 0
    endloop
  endfacet
  facet normal 0 0 -1
    outer loop
      vertex 0.131114 4.75253 0
      vertex 0.803848 17 0
      vertex 1.54113 18.0148 0
    endloop
  endfacet
  facet normal 0 0 -1
    outer loop
      vertex 0.131114 4.75253 0
      vertex 1.54113 18.0148 0
      vertex 2.47329 18.8541 0
    endloop
  endfacet
  facet normal 0 0 -1
    outer loop
      vertex 0.131114 4.75253 0
      vertex 2.47329 18.8541 0
      vertex 3.55958 19.4813 0
    endloop
  endfacet
  facet normal 0 0 -1
    outer loop
      vertex 0.131114 4.75253 0
      vertex 3.55958 19.4813 0
      vertex 4.75253 19.8689 0
    endloop
  endfacet
  facet normal 0 0 -1
    outer loop
      vertex 0.131114 4.75253 0
      vertex 4.75253 19.8689 0
      vertex 6 20 0
    endloop
  endfacet
  facet normal 0 0 -1
    outer loop
      vertex 7.49885 12.063 0
      vertex 6 20 0
      vertex 26 20 0
    endloop
  endfacet
  facet normal 0 0 -1
    outer loop
      vertex 8.55 10 0
      vertex 26.6272 19.9671 0
      vertex 27.8541 19.7063 0
    endloop
  endfacet
  facet normal 0 0 -1
    outer loop
      vertex 8.42519 9.21201 0
      vertex 27.8541 19.7063 0
      vertex 29 19.1962 0
    endloop
  endfacet
  facet normal 0 0 -1
    outer loop
      vertex 8.06299 8.50115 0
      vertex 29 19.1962 0
      vertex 30.0148 18.4589 0
    endloop
  endfacet
  facet normal 0 0 -1
    outer loop
      vertex 6.78799 7.57481 0
      vertex 30.0148 18.4589 0
      vertex 30.8541 17.5267 0
    endloop
  endfacet
  facet normal 0 0 -1
    outer loop
      vertex 0.131114 4.75253 0
      vertex 30.8541 17.5267 0
      vertex 31.4813 16.4404 0
    endloop
  endfacet
  facet normal 0 0 -1
    outer loop
      vertex 0.131114 4.75253 0
      vertex 31.4813 16.4404 0
      vertex 31.8689 15.2475 0
    endloop
  endfacet
  facet normal 0 0 -1
    outer loop
      vertex 26 12.55 0
      vertex 31.8689 15.2475 0
      vertex 32 14 0
    endloop
  endfacet
  facet normal 0 0 -1
    outer loop
      vertex 31.9671 6 0
      vertex 32 14 0
      vertex 32 6 0
    endloop
  endfacet
  facet normal 0 0 -1
    outer loop
      vertex 28.063 8.50115 0
      vertex 32 14 0
      vertex 31.9671 6 0
    endloop
  endfacet
  facet normal 0 0 -1
    outer loop
      vertex 5.37283 0.032869 0
      vertex 0.131114 4.75253 0
      vertex 6 0.032869 0
    endloop
  endfacet
  facet normal 0 0 -1
    outer loop
      vertex 0.131114 4.75253 0
      vertex 31.9671 5.37283 0
      vertex 31.7063 4.1459 0
    endloop
  endfacet
  facet normal 0 0 -1
    outer loop
      vertex 0.131114 4.75253 0
      vertex 31.7063 4.1459 0
      vertex 31.1962 3 0
    endloop
  endfacet
  facet normal 0 0 -1
    outer loop
      vertex 0.131114 4.75253 0
      vertex 31.1962 3 0
      vertex 30.4589 1.98522 0
    endloop
  endfacet
  facet normal 0 0 -1
    outer loop
      vertex 0.131114 4.75253 0
      vertex 30.4589 1.98522 0
      vertex 29.5267 1.1459 0
    endloop
  endfacet
  facet normal 0 0 -1
    outer loop
      vertex 0.131114 4.75253 0
      vertex 29.5267 1.1459 0
      vertex 28.4404 0.518727 0
    endloop
  endfacet
  facet normal 0 0 -1
    outer loop
      vertex 0.131114 4.75253 0
      vertex 28.4404 0.518727 0
      vertex 27.2475 0.131114 0
    endloop
  endfacet
  facet normal 0 0 -1
    outer loop
      vertex 0.131114 4.75253 0
      vertex 27.2475 0.131114 0
      vertex 26 0 0
    endloop
  endfacet
  facet normal 0 0 -1
    outer loop
      vertex 6 0.032869 0
      vertex 26 0 0
      vertex 6 0 0
    endloop
  endfacet
  facet normal 0 0 -1
    outer loop
      vertex 0.131114 4.75253 0
      vertex 26 0 0
      vertex 6 0.032869 0
    endloop
  endfacet
  facet normal 0 0 -1
    outer loop
      vertex 8.55 10 0
      vertex 26 20 0
      vertex 26 19.9671 0
    endloop
  endfacet
  facet normal 0 0 -1
    outer loop
      vertex 5.21201 7.57481 0
      vertex 0.131114 4.75253 0
      vertex 4.50115 7.93701 0
    endloop
  endfacet
  facet normal 0 0 -1
    outer loop
      vertex 0.131114 4.75253 0
      vertex 5.37283 0.032869 0
      vertex 4.1459 0.293661 0
    endloop
  endfacet
  facet normal 0 0 -1
    outer loop
      vertex 0.131114 4.75253 0
      vertex 4.1459 0.293661 0
      vertex 3 0.803848 0
    endloop
  endfacet
  facet normal 0 0 -1
    outer loop
      vertex 0.131114 4.75253 0
      vertex 3 0.803848 0
      vertex 1.98522 1.54113 0
    endloop
  endfacet
  facet normal 0 0 -1
    outer loop
      vertex 0.131114 4.75253 0
      vertex 1.98522 1.54113 0
      vertex 1.1459 2.47329 0
    endloop
  endfacet
  facet normal 0 0 -1
    outer loop
      vertex 0.131114 4.75253 0
      vertex 1.1459 2.47329 0
      vertex 0.518727 3.55958 0
    endloop
  endfacet
  facet normal 0 0 -1
    outer loop
      vertex 26.788 7.57481 0
      vertex 31.9671 6 0
      vertex 26 7.45 0
    endloop
  endfacet
  facet normal 0 0 -1
    outer loop
      vertex 0.131114 4.75253 0
      vertex 3.45 10 0
      vertex 3.57481 9.21201 0
    endloop
  endfacet
  facet normal 0 0 -1
    outer loop
      vertex 0.131114 4.75253 0
      vertex 3.57481 9.21201 0
      vertex 3.93701 8.50115 0
    endloop
  endfacet
  facet normal 0 0 -1
    outer loop
      vertex 0.131114 4.75253 0
      vertex 3.93701 8.50115 0
      vertex 4.50115 7.93701 0
    endloop
  endfacet
  facet normal 0 0 -1
    outer loop
      vertex 6 7.45 0
      vertex 0.131114 4.75253 0
      vertex 5.21201 7.57481 0
    endloop
  endfacet
  facet normal 0 0 -1
    outer loop
      vertex 6.78799 7.57481 0
      vertex 0.131114 4.75253 0
      vertex 6 7.45 0
    endloop
  endfacet
  facet normal 0 0 -1
    outer loop
      vertex 7.49885 7.93701 0
      vertex 30.0148 18.4589 0
      vertex 6.78799 7.57481 0
    endloop
  endfacet
  facet normal 0 0 -1
    outer loop
      vertex 0.131114 4.75253 0
      vertex 6.78799 7.57481 0
      vertex 30.8541 17.5267 0
    endloop
  endfacet
  facet normal 0 0 -1
    outer loop
      vertex 8.06299 8.50115 0
      vertex 30.0148 18.4589 0
      vertex 7.49885 7.93701 0
    endloop
  endfacet
  facet normal 0 0 -1
    outer loop
      vertex 8.42519 9.21201 0
      vertex 29 19.1962 0
      vertex 8.06299 8.50115 0
    endloop
  endfacet
  facet normal 0 0 -1
    outer loop
      vertex 8.55 10 0
      vertex 27.8541 19.7063 0
      vertex 8.42519 9.21201 0
    endloop
  endfacet
  facet normal 0 0 -1
    outer loop
      vertex 8.06299 11.4989 0
      vertex 26 20 0
      vertex 8.42519 10.788 0
    endloop
  endfacet
  facet normal 0 0 -1
    outer loop
      vertex 7.49885 12.063 0
      vertex 26 20 0
      vertex 8.06299 11.4989 0
    endloop
  endfacet
  facet normal 0 0 -1
    outer loop
      vertex 6.78799 12.4252 0
      vertex 6 20 0
      vertex 7.49885 12.063 0
    endloop
  endfacet
  facet normal 0 0 -1
    outer loop
      vertex 3.57481 10.788 0
      vertex 6 20 0
      vertex 3.93701 11.4989 0
    endloop
  endfacet
  facet normal 0 0 -1
    outer loop
      vertex 6 12.55 0
      vertex 6 20 0
      vertex 6.78799 12.4252 0
    endloop
  endfacet
  facet normal 0 0 -1
    outer loop
      vertex 5.21201 12.4252 0
      vertex 6 20 0
      vertex 6 12.55 0
    endloop
  endfacet
  facet normal 0 0 -1
    outer loop
      vertex 4.50115 12.063 0
      vertex 6 20 0
      vertex 5.21201 12.4252 0
    endloop
  endfacet
  facet normal 0 0 -1
    outer loop
      vertex 3.93701 11.4989 0
      vertex 6 20 0
      vertex 4.50115 12.063 0
    endloop
  endfacet
  facet normal 0 0 -1
    outer loop
      vertex 0.131114 4.75253 0
      vertex 6 20 0
      vertex 3.57481 10.788 0
    endloop
  endfacet
  facet normal 0 0 -1
    outer loop
      vertex 0.131114 4.75253 0
      vertex 3.57481 10.788 0
      vertex 3.45 10 0
    endloop
  endfacet
  facet normal 0 0 -1
    outer loop
      vertex 26 12.55 0
      vertex 32 14 0
      vertex 26.788 12.4252 0
    endloop
  endfacet
  facet normal 0 0 -1
    outer loop
      vertex 0.131114 4.75253 0
      vertex 23.45 10 0
      vertex 23.5748 9.21201 0
    endloop
  endfacet
  facet normal 0 0 -1
    outer loop
      vertex 0.131114 4.75253 0
      vertex 23.5748 9.21201 0
      vertex 23.937 8.50115 0
    endloop
  endfacet
  facet normal 0 0 -1
    outer loop
      vertex 0.131114 4.75253 0
      vertex 23.937 8.50115 0
      vertex 24.5011 7.93701 0
    endloop
  endfacet
  facet normal 0 0 -1
    outer loop
      vertex 0.131114 4.75253 0
      vertex 24.5011 7.93701 0
      vertex 25.212 7.57481 0
    endloop
  endfacet
  facet normal 0 0 -1
    outer loop
      vertex 0.131114 4.75253 0
      vertex 25.212 7.57481 0
      vertex 31.9671 6 0
    endloop
  endfacet
  facet normal 0 0 -1
    outer loop
      vertex 25.212 7.57481 0
      vertex 26 7.45 0
      vertex 31.9671 6 0
    endloop
  endfacet
  facet normal 0 0 -1
    outer loop
      vertex 27.4989 7.93701 0
      vertex 31.9671 6 0
      vertex 26.788 7.57481 0
    endloop
  endfacet
  facet normal 0 0 -1
    outer loop
      vertex 28.063 8.50115 0
      vertex 31.9671 6 0
      vertex 27.4989 7.93701 0
    endloop
  endfacet
  facet normal 0 0 -1
    outer loop
      vertex 28.4252 9.21201 0
      vertex 32 14 0
      vertex 28.063 8.50115 0
    endloop
  endfacet
  facet normal 0 0 -1
    outer loop
      vertex 27.4989 12.063 0
      vertex 32 14 0
      vertex 28.063 11.4989 0
    endloop
  endfacet
  facet normal 0 0 -1
    outer loop
      vertex 28.55 10 0
      vertex 32 14 0
      vertex 28.4252 9.21201 0
    endloop
  endfacet
  facet normal 0 0 -1
    outer loop
      vertex 28.4252 10.788 0
      vertex 32 14 0
      vertex 28.55 10 0
    endloop
  endfacet
  facet normal 0 0 -1
    outer loop
      vertex 28.063 11.4989 0
      vertex 32 14 0
      vertex 28.4252 10.788 0
    endloop
  endfacet
  facet normal 0 0 -1
    outer loop
      vertex 26.788 12.4252 0
      vertex 32 14 0
      vertex 27.4989 12.063 0
    endloop
  endfacet
  facet normal 0 0 -1
    outer loop
      vertex 25.212 12.4252 0
      vertex 31.8689 15.2475 0
      vertex 26 12.55 0
    endloop
  endfacet
  facet normal 0 0 -1
    outer loop
      vertex 24.5011 12.063 0
      vertex 0.131114 4.75253 0
      vertex 25.212 12.4252 0
    endloop
  endfacet
  facet normal 0 0 -1
    outer loop
      vertex 0.131114 4.75253 0
      vertex 31.8689 15.2475 0
      vertex 25.212 12.4252 0
    endloop
  endfacet
  facet normal 0 0 -1
    outer loop
      vertex 23.937 11.4989 0
      vertex 0.131114 4.75253 0
      vertex 24.5011 12.063 0
    endloop
  endfacet
  facet normal 0 0 -1
    outer loop
      vertex 23.5748 10.788 0
      vertex 0.131114 4.75253 0
      vertex 23.937 11.4989 0
    endloop
  endfacet
  facet normal 0 0 -1
    outer loop
      vertex 0.131114 4.75253 0
      vertex 23.5748 10.788 0
      vertex 23.45 10 0
    endloop
  endfacet
  facet normal 0 0 -1
    outer loop
      vertex 31.9671 5.37283 0
      vertex 0.131114 4.75253 0
      vertex 31.9671 6 0
    endloop
  endfacet
  facet normal 0 0 -1
    outer loop
      vertex 8.55 10 0
      vertex 26 19.9671 0
      vertex 26.6272 19.9671 0
    endloop
  endfacet
  facet normal 0 0 -1
    outer loop
      vertex 8.42519 10.788 0
      vertex 26 20 0
      vertex 8.55 10 0
    endloop
  endfacet
  facet normal 1.77321e-16 1 0
    outer loop
      vertex 0.032869 14 11
      vertex 0.032869 14 0
      vertex 0 14 11
    endloop
  endfacet
  facet normal 1.77321e-16 1 0
    outer loop
      vertex 0 14 11
      vertex 0.032869 14 0
      vertex 0 14 0
    endloop
  endfacet
  facet normal 0 0 1
    outer loop
      vertex 0 14 11
      vertex 0 6 11
      vertex 0.131114 4.75253 11
    endloop
  endfacet
  facet normal 0 0 1
    outer loop
      vertex 1.1459 2.47329 11
      vertex 0 14 11
      vertex 0.518727 3.55958 11
    endloop
  endfacet
  facet normal 0 0 1
    outer loop
      vertex 0.518727 3.55958 11
      vertex 0 14 11
      vertex 0.131114 4.75253 11
    endloop
  endfacet
  facet normal 0 0 1
    outer loop
      vertex 1.98522 1.54113 11
      vertex 0 14 11
      vertex 1.1459 2.47329 11
    endloop
  endfacet
  facet normal 0 0 1
    outer loop
      vertex 3 0.803848 11
      vertex 0 14 11
      vertex 1.98522 1.54113 11
    endloop
  endfacet
  facet normal 0 0 1
    outer loop
      vertex 4.1459 0.293661 11
      vertex 0 14 11
      vertex 3 0.803848 11
    endloop
  endfacet
  facet normal 0 0 1
    outer loop
      vertex 5.37283 0.032869 11
      vertex 0 14 11
      vertex 4.1459 0.293661 11
    endloop
  endfacet
  facet normal 0 0 1
    outer loop
      vertex 6 0.032869 11
      vertex 0 14 11
      vertex 5.37283 0.032869 11
    endloop
  endfacet
  facet normal 0 0 1
    outer loop
      vertex 3.57481 9.21201 11
      vertex 0 14 11
      vertex 6 0.032869 11
    endloop
  endfacet
  facet normal 0 0 1
    outer loop
      vertex 13.1429 0 11
      vertex 6 0.032869 11
      vertex 6 0 11
    endloop
  endfacet
  facet normal 0 0 1
    outer loop
      vertex 4.50115 12.063 11
      vertex 5.21201 12.4252 11
      vertex 13.1429 20 11
    endloop
  endfacet
  facet normal 0 0 1
    outer loop
      vertex 3.45 10 11
      vertex 0.032869 14 11
      vertex 0 14 11
    endloop
  endfacet
  facet normal 0 0 1
    outer loop
      vertex 3.45 10 11
      vertex 3.57481 10.788 11
      vertex 0.032869 14 11
    endloop
  endfacet
  facet normal 0 0 1
    outer loop
      vertex 3.93701 8.50115 11
      vertex 3.57481 9.21201 11
      vertex 6 0.032869 11
    endloop
  endfacet
  facet normal 0 0 1
    outer loop
      vertex 3.45 10 11
      vertex 0 14 11
      vertex 3.57481 9.21201 11
    endloop
  endfacet
  facet normal 0 0 1
    outer loop
      vertex 3.93701 11.4989 11
      vertex 0.032869 14 11
      vertex 3.57481 10.788 11
    endloop
  endfacet
  facet normal 0 0 1
    outer loop
      vertex 4.50115 12.063 11
      vertex 0.032869 14 11
      vertex 3.93701 11.4989 11
    endloop
  endfacet
  facet normal 0 0 1
    outer loop
      vertex 5.21201 12.4252 11
      vertex 6 12.55 11
      vertex 13.1429 20 11
    endloop
  endfacet
  facet normal 0 0 1
    outer loop
      vertex 13.1429 20 11
      vertex 0.032869 14 11
      vertex 4.50115 12.063 11
    endloop
  endfacet
  facet normal 0 0 1
    outer loop
      vertex 8.42519 10.788 11
      vertex 8.55 10 11
      vertex 13.1429 0 11
    endloop
  endfacet
  facet normal 0 0 1
    outer loop
      vertex 6.78799 7.57481 11
      vertex 6 7.45 11
      vertex 13.1429 0 11
    endloop
  endfacet
  facet normal 0 0 1
    outer loop
      vertex 8.42519 9.21201 11
      vertex 8.06299 8.50115 11
      vertex 13.1429 0 11
    endloop
  endfacet
  facet normal 0 0 1
    outer loop
      vertex 13.1429 20 11
      vertex 6 12.55 11
      vertex 6.78799 12.4252 11
    endloop
  endfacet
  facet normal 0 0 1
    outer loop
      vertex 6 7.45 11
      vertex 5.21201 7.57481 11
      vertex 13.1429 0 11
    endloop
  endfacet
  facet normal 0 0 1
    outer loop
      vertex 13.1429 20 11
      vertex 6.78799 12.4252 11
      vertex 7.49885 12.063 11
    endloop
  endfacet
  facet normal 0 0 1
    outer loop
      vertex 13.1429 20 11
      vertex 7.49885 12.063 11
      vertex 8.06299 11.4989 11
    endloop
  endfacet
  facet normal 0 0 1
    outer loop
      vertex 13.1429 20 11
      vertex 8.42519 10.788 11
      vertex 13.1429 0 11
    endloop
  endfacet
  facet normal 0 0 1
    outer loop
      vertex 13.1429 20 11
      vertex 8.06299 11.4989 11
      vertex 8.42519 10.788 11
    endloop
  endfacet
  facet normal 0 0 1
    outer loop
      vertex 8.06299 8.50115 11
      vertex 7.49885 7.93701 11
      vertex 13.1429 0 11
    endloop
  endfacet
  facet normal 0 0 1
    outer loop
      vertex 7.49885 7.93701 11
      vertex 6.78799 7.57481 11
      vertex 13.1429 0 11
    endloop
  endfacet
  facet normal 0 0 1
    outer loop
      vertex 8.55 10 11
      vertex 8.42519 9.21201 11
      vertex 13.1429 0 11
    endloop
  endfacet
  facet normal 0 0 1
    outer loop
      vertex 13.1429 0 11
      vertex 5.21201 7.57481 11
      vertex 6 0.032869 11
    endloop
  endfacet
  facet normal 0 0 1
    outer loop
      vertex 5.21201 7.57481 11
      vertex 4.50115 7.93701 11
      vertex 6 0.032869 11
    endloop
  endfacet
  facet normal 0 0 1
    outer loop
      vertex 4.50115 7.93701 11
      vertex 3.93701 8.50115 11
      vertex 6 0.032869 11
    endloop
  endfacet
  facet normal 0 0 1
    outer loop
      vertex 0.032869 14.6272 11
      vertex 0.803848 17 11
      vertex 0.293661 15.8541 11
    endloop
  endfacet
  facet normal 0 0 1
    outer loop
      vertex 0.032869 14.6272 11
      vertex 1.54113 18.0148 11
      vertex 0.803848 17 11
    endloop
  endfacet
  facet normal 0 0 1
    outer loop
      vertex 0.032869 14.6272 11
      vertex 2.47329 18.8541 11
      vertex 1.54113 18.0148 11
    endloop
  endfacet
  facet normal 0 0 1
    outer loop
      vertex 0.032869 14.6272 11
      vertex 3.55958 19.4813 11
      vertex 2.47329 18.8541 11
    endloop
  endfacet
  facet normal 0 0 1
    outer loop
      vertex 0.032869 14.6272 11
      vertex 4.75253 19.8689 11
      vertex 3.55958 19.4813 11
    endloop
  endfacet
  facet normal 0 0 1
    outer loop
      vertex 0.032869 14.6272 11
      vertex 6 20 11
      vertex 4.75253 19.8689 11
    endloop
  endfacet
  facet normal 0 0 1
    outer loop
      vertex 0.032869 14.6272 11
      vertex 13.1429 20 11
      vertex 6 20 11
    endloop
  endfacet
  facet normal 0 0 1
    outer loop
      vertex 0.032869 14.6272 11
      vertex 0.032869 14 11
      vertex 13.1429 20 11
    endloop
  endfacet
  facet normal -0.951057 -0.309017 0
    outer loop
      vertex 0.131114 4.75253 0
      vertex 0.518727 3.55958 0
      vertex 0.131114 4.75253 11
    endloop
  endfacet
  facet normal -0.951057 -0.309017 0
    outer loop
      vertex 0.131114 4.75253 11
      vertex 0.518727 3.55958 0
      vertex 0.518727 3.55958 11
    endloop
  endfacet
  facet normal -0.866025 -0.5 0
    outer loop
      vertex 0.518727 3.55958 0
      vertex 1.1459 2.47329 0
      vertex 0.518727 3.55958 11
    endloop
  endfacet
  facet normal -0.866025 -0.5 0
    outer loop
      vertex 0.518727 3.55958 11
      vertex 1.1459 2.47329 0
      vertex 1.1459 2.47329 11
    endloop
  endfacet
  facet normal -0.743145 -0.669131 0
    outer loop
      vertex 1.1459 2.47329 0
      vertex 1.98522 1.54113 0
      vertex 1.1459 2.47329 11
    endloop
  endfacet
  facet normal -0.743145 -0.669131 0
    outer loop
      vertex 1.1459 2.47329 11
      vertex 1.98522 1.54113 0
      vertex 1.98522 1.54113 11
    endloop
  endfacet
  facet normal -0.587785 -0.809017 0
    outer loop
      vertex 1.98522 1.54113 11
      vertex 1.98522 1.54113 0
      vertex 3 0.803848 0
    endloop
  endfacet
  facet normal -0.587785 -0.809017 0
    outer loop
      vertex 3 0.803848 11
      vertex 1.98522 1.54113 11
      vertex 3 0.803848 0
    endloop
  endfacet
  facet normal -0.406737 -0.913545 0
    outer loop
      vertex 3 0.803848 11
      vertex 3 0.803848 0
      vertex 4.1459 0.293661 0
    endloop
  endfacet
  facet normal -0.406737 -0.913545 0
    outer loop
      vertex 4.1459 0.293661 11
      vertex 3 0.803848 11
      vertex 4.1459 0.293661 0
    endloop
  endfacet
  facet normal -0.207912 -0.978148 0
    outer loop
      vertex 4.1459 0.293661 11
      vertex 4.1459 0.293661 0
      vertex 5.37283 0.032869 0
    endloop
  endfacet
  facet normal -0.207912 -0.978148 0
    outer loop
      vertex 5.37283 0.032869 11
      vertex 4.1459 0.293661 11
      vertex 5.37283 0.032869 0
    endloop
  endfacet
  facet normal -1.22465e-16 -1 0
    outer loop
      vertex 5.37283 0.032869 11
      vertex 5.37283 0.032869 0
      vertex 6 0.032869 0
    endloop
  endfacet
  facet normal -1.22465e-16 -1 0
    outer loop
      vertex 6 0.032869 11
      vertex 5.37283 0.032869 11
      vertex 6 0.032869 0
    endloop
  endfacet
  facet normal -1 1.22465e-16 0
    outer loop
      vertex 6 0.032869 11
      vertex 6 0.032869 0
      vertex 6 0 11
    endloop
  endfacet
  facet normal -1 1.22465e-16 0
    outer loop
      vertex 6 0 11
      vertex 6 0.032869 0
      vertex 6 0 0
    endloop
  endfacet
  facet normal 0 -1 0
    outer loop
      vertex 17.2361 0 3.29577
      vertex 6 0 0
      vertex 26 0 0
    endloop
  endfacet
  facet normal 0 -1 0
    outer loop
      vertex 16.4181 0 3.12191
      vertex 15.5819 0 3.12191
      vertex 6 0 0
    endloop
  endfacet
  facet normal 0 -1 0
    outer loop
      vertex 26 0 11
      vertex 18.8571 0 11
      vertex 26 0 0
    endloop
  endfacet
  facet normal 0 -1 0
    outer loop
      vertex 18.6765 0 4.12742
      vertex 18 0 3.6359
      vertex 26 0 0
    endloop
  endfacet
  facet normal 0 -1 0
    outer loop
      vertex 18.8571 0 11
      vertex 19.2361 0 9.45114
      vertex 26 0 0
    endloop
  endfacet
  facet normal 0 -1 0
    outer loop
      vertex 18.8571 0 11
      vertex 18.8571 0 9.87198
      vertex 19.2361 0 9.45114
    endloop
  endfacet
  facet normal 0 -1 0
    outer loop
      vertex 19.6542 0 8.72695
      vertex 19.9126 0 7.93165
      vertex 26 0 0
    endloop
  endfacet
  facet normal 0 -1 0
    outer loop
      vertex 13.1429 0 9.87198
      vertex 13.1429 0 11
      vertex 6 0 11
    endloop
  endfacet
  facet normal 0 -1 0
    outer loop
      vertex 19.9126 0 7.93165
      vertex 20 0 7.1
      vertex 26 0 0
    endloop
  endfacet
  facet normal 0 -1 0
    outer loop
      vertex 20 0 7.1
      vertex 19.9126 0 6.26835
      vertex 26 0 0
    endloop
  endfacet
  facet normal 0 -1 0
    outer loop
      vertex 19.9126 0 6.26835
      vertex 19.6542 0 5.47305
      vertex 26 0 0
    endloop
  endfacet
  facet normal 0 -1 0
    outer loop
      vertex 19.6542 0 5.47305
      vertex 19.2361 0 4.74886
      vertex 26 0 0
    endloop
  endfacet
  facet normal 0 -1 0
    outer loop
      vertex 19.2361 0 4.74886
      vertex 18.6765 0 4.12742
      vertex 26 0 0
    endloop
  endfacet
  facet normal 0 -1 0
    outer loop
      vertex 18 0 3.6359
      vertex 17.2361 0 3.29577
      vertex 26 0 0
    endloop
  endfacet
  facet normal 0 -1 0
    outer loop
      vertex 16.4181 0 3.12191
      vertex 6 0 0
      vertex 17.2361 0 3.29577
    endloop
  endfacet
  facet normal 0 -1 0
    outer loop
      vertex 14.7639 0 3.29577
      vertex 6 0 0
      vertex 15.5819 0 3.12191
    endloop
  endfacet
  facet normal 0 -1 0
    outer loop
      vertex 14 0 3.6359
      vertex 6 0 0
      vertex 14.7639 0 3.29577
    endloop
  endfacet
  facet normal 0 -1 0
    outer loop
      vertex 12.3458 0 5.47305
      vertex 12.0874 0 6.26835
      vertex 6 0 11
    endloop
  endfacet
  facet normal 0 -1 0
    outer loop
      vertex 13.3235 0 4.12742
      vertex 6 0 0
      vertex 14 0 3.6359
    endloop
  endfacet
  facet normal 0 -1 0
    outer loop
      vertex 6 0 11
      vertex 6 0 0
      vertex 13.3235 0 4.12742
    endloop
  endfacet
  facet normal 0 -1 0
    outer loop
      vertex 12 0 7.1
      vertex 12.0874 0 7.93165
      vertex 6 0 11
    endloop
  endfacet
  facet normal 0 -1 0
    outer loop
      vertex 6 0 11
      vertex 13.3235 0 4.12742
      vertex 12.7639 0 4.74886
    endloop
  endfacet
  facet normal 0 -1 0
    outer loop
      vertex 12.0874 0 7.93165
      vertex 12.3458 0 8.72695
      vertex 6 0 11
    endloop
  endfacet
  facet normal 0 -1 0
    outer loop
      vertex 6 0 11
      vertex 12.0874 0 6.26835
      vertex 12 0 7.1
    endloop
  endfacet
  facet normal 0 -1 0
    outer loop
      vertex 12.3458 0 8.72695
      vertex 12.7639 0 9.45114
      vertex 6 0 11
    endloop
  endfacet
  facet normal 0 -1 0
    outer loop
      vertex 12.7639 0 9.45114
      vertex 13.1429 0 9.87198
      vertex 6 0 11
    endloop
  endfacet
  facet normal 0 -1 0
    outer loop
      vertex 19.2361 0 9.45114
      vertex 19.6542 0 8.72695
      vertex 26 0 0
    endloop
  endfacet
  facet normal 0 -1 0
    outer loop
      vertex 12.7639 0 4.74886
      vertex 12.3458 0 5.47305
      vertex 6 0 11
    endloop
  endfacet
  facet normal 0.104528 -0.994522 0
    outer loop
      vertex 26 0 11
      vertex 26 0 0
      vertex 27.2475 0.131114 0
    endloop
  endfacet
  facet normal 0.104528 -0.994522 0
    outer loop
      vertex 27.2475 0.131114 11
      vertex 26 0 11
      vertex 27.2475 0.131114 0
    endloop
  endfacet
  facet normal 0.309017 -0.951057 0
    outer loop
      vertex 27.2475 0.131114 11
      vertex 27.2475 0.131114 0
      vertex 28.4404 0.518727 0
    endloop
  endfacet
  facet normal 0.309017 -0.951057 0
    outer loop
      vertex 28.4404 0.518727 11
      vertex 27.2475 0.131114 11
      vertex 28.4404 0.518727 0
    endloop
  endfacet
  facet normal 0.5 -0.866025 0
    outer loop
      vertex 28.4404 0.518727 11
      vertex 28.4404 0.518727 0
      vertex 29.5267 1.1459 0
    endloop
  endfacet
  facet normal 0.5 -0.866025 0
    outer loop
      vertex 29.5267 1.1459 11
      vertex 28.4404 0.518727 11
      vertex 29.5267 1.1459 0
    endloop
  endfacet
  facet normal 0.669131 -0.743145 0
    outer loop
      vertex 29.5267 1.1459 11
      vertex 29.5267 1.1459 0
      vertex 30.4589 1.98522 0
    endloop
  endfacet
  facet normal 0.669131 -0.743145 0
    outer loop
      vertex 30.4589 1.98522 11
      vertex 29.5267 1.1459 11
      vertex 30.4589 1.98522 0
    endloop
  endfacet
  facet normal 0.809017 -0.587785 0
    outer loop
      vertex 30.4589 1.98522 11
      vertex 30.4589 1.98522 0
      vertex 31.1962 3 0
    endloop
  endfacet
  facet normal 0.809017 -0.587785 0
    outer loop
      vertex 31.1962 3 11
      vertex 30.4589 1.98522 11
      vertex 31.1962 3 0
    endloop
  endfacet
  facet normal 0.913545 -0.406737 0
    outer loop
      vertex 31.1962 3 11
      vertex 31.1962 3 0
      vertex 31.7063 4.1459 0
    endloop
  endfacet
  facet normal 0.913545 -0.406737 0
    outer loop
      vertex 31.7063 4.1459 11
      vertex 31.1962 3 11
      vertex 31.7063 4.1459 0
    endloop
  endfacet
  facet normal 0.978148 -0.207912 0
    outer loop
      vertex 31.7063 4.1459 11
      vertex 31.7063 4.1459 0
      vertex 31.9671 5.37283 0
    endloop
  endfacet
  facet normal 0.978148 -0.207912 0
    outer loop
      vertex 31.9671 5.37283 11
      vertex 31.7063 4.1459 11
      vertex 31.9671 5.37283 0
    endloop
  endfacet
  facet normal 1 -1.36718e-16 0
    outer loop
      vertex 31.9671 5.37283 11
      vertex 31.9671 5.37283 0
      vertex 31.9671 6 0
    endloop
  endfacet
  facet normal 1 -1.36718e-16 0
    outer loop
      vertex 31.9671 6 11
      vertex 31.9671 5.37283 11
      vertex 31.9671 6 0
    endloop
  endfacet
  facet normal -1.36718e-16 -1 0
    outer loop
      vertex 32 6 0
      vertex 32 6 11
      vertex 31.9671 6 11
    endloop
  endfacet
  facet normal -1.36718e-16 -1 0
    outer loop
      vertex 31.9671 6 0
      vertex 32 6 0
      vertex 31.9671 6 11
    endloop
  endfacet
  facet normal 1 0 0
    outer loop
      vertex 32 6 11
      vertex 32 6 0
      vertex 32 14 0
    endloop
  endfacet
  facet normal 1 0 0
    outer loop
      vertex 32 14 11
      vertex 32 6 11
      vertex 32 14 0
    endloop
  endfacet
  facet normal 0.994522 0.104528 0
    outer loop
      vertex 32 14 0
      vertex 31.8689 15.2475 0
      vertex 31.8689 15.2475 11
    endloop
  endfacet
  facet normal 0.994522 0.104528 0
    outer loop
      vertex 32 14 11
      vertex 32 14 0
      vertex 31.8689 15.2475 11
    endloop
  endfacet
  facet normal 0.951057 0.309017 0
    outer loop
      vertex 31.8689 15.2475 0
      vertex 31.4813 16.4404 0
      vertex 31.4813 16.4404 11
    endloop
  endfacet
  facet normal 0.951057 0.309017 0
    outer loop
      vertex 31.8689 15.2475 11
      vertex 31.8689 15.2475 0
      vertex 31.4813 16.4404 11
    endloop
  endfacet
  facet normal 0.866025 0.5 0
    outer loop
      vertex 31.4813 16.4404 0
      vertex 30.8541 17.5267 0
      vertex 30.8541 17.5267 11
    endloop
  endfacet
  facet normal 0.866025 0.5 0
    outer loop
      vertex 31.4813 16.4404 11
      vertex 31.4813 16.4404 0
      vertex 30.8541 17.5267 11
    endloop
  endfacet
  facet normal 0.743145 0.669131 0
    outer loop
      vertex 30.8541 17.5267 0
      vertex 30.0148 18.4589 0
      vertex 30.0148 18.4589 11
    endloop
  endfacet
  facet normal 0.743145 0.669131 0
    outer loop
      vertex 30.8541 17.5267 11
      vertex 30.8541 17.5267 0
      vertex 30.0148 18.4589 11
    endloop
  endfacet
  facet normal 0.587785 0.809017 0
    outer loop
      vertex 29 19.1962 0
      vertex 29 19.1962 11
      vertex 30.0148 18.4589 0
    endloop
  endfacet
  facet normal 0.587785 0.809017 0
    outer loop
      vertex 30.0148 18.4589 0
      vertex 29 19.1962 11
      vertex 30.0148 18.4589 11
    endloop
  endfacet
  facet normal 0.406737 0.913545 0
    outer loop
      vertex 27.8541 19.7063 0
      vertex 27.8541 19.7063 11
      vertex 29 19.1962 0
    endloop
  endfacet
  facet normal 0.406737 0.913545 0
    outer loop
      vertex 29 19.1962 0
      vertex 27.8541 19.7063 11
      vertex 29 19.1962 11
    endloop
  endfacet
  facet normal 0.207912 0.978148 0
    outer loop
      vertex 26.6272 19.9671 0
      vertex 26.6272 19.9671 11
      vertex 27.8541 19.7063 0
    endloop
  endfacet
  facet normal 0.207912 0.978148 0
    outer loop
      vertex 27.8541 19.7063 0
      vertex 26.6272 19.9671 11
      vertex 27.8541 19.7063 11
    endloop
  endfacet
  facet normal 0 1 0
    outer loop
      vertex 26 19.9671 0
      vertex 26 19.9671 11
      vertex 26.6272 19.9671 0
    endloop
  endfacet
  facet normal 0 1 0
    outer loop
      vertex 26.6272 19.9671 0
      vertex 26 19.9671 11
      vertex 26.6272 19.9671 11
    endloop
  endfacet
  facet normal 1 0 0
    outer loop
      vertex 26 20 0
      vertex 26 20 11
      vertex 26 19.9671 11
    endloop
  endfacet
  facet normal 1 0 0
    outer loop
      vertex 26 19.9671 0
      vertex 26 20 0
      vertex 26 19.9671 11
    endloop
  endfacet
  facet normal 0 1 0
    outer loop
      vertex 16.4181 20 3.12191
      vertex 26 20 0
      vertex 15.5819 20 3.12191
    endloop
  endfacet
  facet normal 0 1 0
    outer loop
      vertex 13.1429 20 9.87198
      vertex 6 20 11
      vertex 13.1429 20 11
    endloop
  endfacet
  facet normal 0 1 0
    outer loop
      vertex 12.7639 20 9.45114
      vertex 6 20 11
      vertex 13.1429 20 9.87198
    endloop
  endfacet
  facet normal 0 1 0
    outer loop
      vertex 12.3458 20 8.72695
      vertex 6 20 11
      vertex 12.7639 20 9.45114
    endloop
  endfacet
  facet normal 0 1 0
    outer loop
      vertex 12.0874 20 7.93165
      vertex 6 20 11
      vertex 12.3458 20 8.72695
    endloop
  endfacet
  facet normal 0 1 0
    outer loop
      vertex 6 20 0
      vertex 6 20 11
      vertex 12 20 7.1
    endloop
  endfacet
  facet normal 0 1 0
    outer loop
      vertex 6 20 0
      vertex 12 20 7.1
      vertex 12.0874 20 6.26835
    endloop
  endfacet
  facet normal 0 1 0
    outer loop
      vertex 6 20 0
      vertex 12.0874 20 6.26835
      vertex 12.3458 20 5.47305
    endloop
  endfacet
  facet normal 0 1 0
    outer loop
      vertex 6 20 0
      vertex 12.3458 20 5.47305
      vertex 12.7639 20 4.74886
    endloop
  endfacet
  facet normal 0 1 0
    outer loop
      vertex 6 20 0
      vertex 12.7639 20 4.74886
      vertex 13.3235 20 4.12742
    endloop
  endfacet
  facet normal 0 1 0
    outer loop
      vertex 6 20 0
      vertex 13.3235 20 4.12742
      vertex 14 20 3.6359
    endloop
  endfacet
  facet normal 0 1 0
    outer loop
      vertex 6 20 0
      vertex 14 20 3.6359
      vertex 14.7639 20 3.29577
    endloop
  endfacet
  facet normal 0 1 0
    outer loop
      vertex 6 20 0
      vertex 14.7639 20 3.29577
      vertex 26 20 0
    endloop
  endfacet
  facet normal 0 1 0
    outer loop
      vertex 14.7639 20 3.29577
      vertex 15.5819 20 3.12191
      vertex 26 20 0
    endloop
  endfacet
  facet normal 0 1 0
    outer loop
      vertex 17.2361 20 3.29577
      vertex 26 20 0
      vertex 16.4181 20 3.12191
    endloop
  endfacet
  facet normal 0 1 0
    outer loop
      vertex 18 20 3.6359
      vertex 26 20 0
      vertex 17.2361 20 3.29577
    endloop
  endfacet
  facet normal 0 1 0
    outer loop
      vertex 18.6765 20 4.12742
      vertex 26 20 0
      vertex 18 20 3.6359
    endloop
  endfacet
  facet normal 0 1 0
    outer loop
      vertex 19.6542 20 5.47305
      vertex 26 20 0
      vertex 19.2361 20 4.74886
    endloop
  endfacet
  facet normal 0 1 0
    outer loop
      vertex 26 20 0
      vertex 19.6542 20 5.47305
      vertex 19.9126 20 6.26835
    endloop
  endfacet
  facet normal 0 1 0
    outer loop
      vertex 19.9126 20 6.26835
      vertex 20 20 7.1
      vertex 26 20 0
    endloop
  endfacet
  facet normal 0 1 0
    outer loop
      vertex 20 20 7.1
      vertex 19.9126 20 7.93165
      vertex 26 20 0
    endloop
  endfacet
  facet normal 0 1 0
    outer loop
      vertex 19.9126 20 7.93165
      vertex 19.6542 20 8.72695
      vertex 26 20 0
    endloop
  endfacet
  facet normal 0 1 0
    outer loop
      vertex 19.6542 20 8.72695
      vertex 19.2361 20 9.45114
      vertex 26 20 0
    endloop
  endfacet
  facet normal 0 1 0
    outer loop
      vertex 19.2361 20 9.45114
      vertex 18.8571 20 9.87198
      vertex 18.8571 20 11
    endloop
  endfacet
  facet normal 0 1 0
    outer loop
      vertex 19.2361 20 9.45114
      vertex 18.8571 20 11
      vertex 26 20 0
    endloop
  endfacet
  facet normal 0 1 0
    outer loop
      vertex 26 20 0
      vertex 18.8571 20 11
      vertex 26 20 11
    endloop
  endfacet
  facet normal 0 1 0
    outer loop
      vertex 12 20 7.1
      vertex 6 20 11
      vertex 12.0874 20 7.93165
    endloop
  endfacet
  facet normal 0 1 0
    outer loop
      vertex 19.2361 20 4.74886
      vertex 26 20 0
      vertex 18.6765 20 4.12742
    endloop
  endfacet
  facet normal -0.104528 0.994522 0
    outer loop
      vertex 4.75253 19.8689 0
      vertex 4.75253 19.8689 11
      vertex 6 20 0
    endloop
  endfacet
  facet normal -0.104528 0.994522 0
    outer loop
      vertex 6 20 0
      vertex 4.75253 19.8689 11
      vertex 6 20 11
    endloop
  endfacet
  facet normal -0.309017 0.951057 0
    outer loop
      vertex 3.55958 19.4813 0
      vertex 3.55958 19.4813 11
      vertex 4.75253 19.8689 0
    endloop
  endfacet
  facet normal -0.309017 0.951057 0
    outer loop
      vertex 4.75253 19.8689 0
      vertex 3.55958 19.4813 11
      vertex 4.75253 19.8689 11
    endloop
  endfacet
  facet normal -0.5 0.866025 0
    outer loop
      vertex 2.47329 18.8541 0
      vertex 2.47329 18.8541 11
      vertex 3.55958 19.4813 0
    endloop
  endfacet
  facet normal -0.5 0.866025 0
    outer loop
      vertex 3.55958 19.4813 0
      vertex 2.47329 18.8541 11
      vertex 3.55958 19.4813 11
    endloop
  endfacet
  facet normal -0.669131 0.743145 0
    outer loop
      vertex 1.54113 18.0148 0
      vertex 1.54113 18.0148 11
      vertex 2.47329 18.8541 0
    endloop
  endfacet
  facet normal -0.669131 0.743145 0
    outer loop
      vertex 2.47329 18.8541 0
      vertex 1.54113 18.0148 11
      vertex 2.47329 18.8541 11
    endloop
  endfacet
  facet normal -0.809017 0.587785 0
    outer loop
      vertex 0.803848 17 0
      vertex 0.803848 17 11
      vertex 1.54113 18.0148 0
    endloop
  endfacet
  facet normal -0.809017 0.587785 0
    outer loop
      vertex 1.54113 18.0148 0
      vertex 0.803848 17 11
      vertex 1.54113 18.0148 11
    endloop
  endfacet
  facet normal -0.913545 0.406737 0
    outer loop
      vertex 0.293661 15.8541 0
      vertex 0.293661 15.8541 11
      vertex 0.803848 17 0
    endloop
  endfacet
  facet normal -0.913545 0.406737 0
    outer loop
      vertex 0.803848 17 0
      vertex 0.293661 15.8541 11
      vertex 0.803848 17 11
    endloop
  endfacet
  facet normal -0.978148 0.207912 0
    outer loop
      vertex 0.032869 14.6272 0
      vertex 0.032869 14.6272 11
      vertex 0.293661 15.8541 0
    endloop
  endfacet
  facet normal -0.978148 0.207912 0
    outer loop
      vertex 0.293661 15.8541 0
      vertex 0.032869 14.6272 11
      vertex 0.293661 15.8541 11
    endloop
  endfacet
  facet normal -1 1.77321e-16 0
    outer loop
      vertex 0.032869 14 0
      vertex 0.032869 14 11
      vertex 0.032869 14.6272 0
    endloop
  endfacet
  facet normal -1 1.77321e-16 0
    outer loop
      vertex 0.032869 14.6272 0
      vertex 0.032869 14 11
      vertex 0.032869 14.6272 11
    endloop
  endfacet
  facet normal 0.987688 -0.156435 0
    outer loop
      vertex 3.57481 10.788 0
      vertex 3.57481 10.788 11
      vertex 3.45 10 11
    endloop
  endfacet
  facet normal 0.987688 -0.156435 0
    outer loop
      vertex 3.45 10 0
      vertex 3.57481 10.788 0
      vertex 3.45 10 11
    endloop
  endfacet
  facet normal 0.987688 0.156435 0
    outer loop
      vertex 3.45 10 11
      vertex 3.57481 9.21201 11
      vertex 3.57481 9.21201 0
    endloop
  endfacet
  facet normal 0.987688 0.156435 0
    outer loop
      vertex 3.45 10 0
      vertex 3.45 10 11
      vertex 3.57481 9.21201 0
    endloop
  endfacet
  facet normal 0.891006 -0.453991 0
    outer loop
      vertex 3.93701 11.4989 0
      vertex 3.93701 11.4989 11
      vertex 3.57481 10.788 11
    endloop
  endfacet
  facet normal 0.891006 -0.453991 0
    outer loop
      vertex 3.57481 10.788 0
      vertex 3.93701 11.4989 0
      vertex 3.57481 10.788 11
    endloop
  endfacet
  facet normal 0.707107 -0.707107 0
    outer loop
      vertex 4.50115 12.063 0
      vertex 4.50115 12.063 11
      vertex 3.93701 11.4989 11
    endloop
  endfacet
  facet normal 0.707107 -0.707107 0
    outer loop
      vertex 3.93701 11.4989 0
      vertex 4.50115 12.063 0
      vertex 3.93701 11.4989 11
    endloop
  endfacet
  facet normal 0.453991 -0.891006 0
    outer loop
      vertex 5.21201 12.4252 0
      vertex 5.21201 12.4252 11
      vertex 4.50115 12.063 11
    endloop
  endfacet
  facet normal 0.453991 -0.891006 0
    outer loop
      vertex 4.50115 12.063 0
      vertex 5.21201 12.4252 0
      vertex 4.50115 12.063 11
    endloop
  endfacet
  facet normal 0.156435 -0.987688 0
    outer loop
      vertex 6 12.55 0
      vertex 6 12.55 11
      vertex 5.21201 12.4252 11
    endloop
  endfacet
  facet normal 0.156435 -0.987688 0
    outer loop
      vertex 5.21201 12.4252 0
      vertex 6 12.55 0
      vertex 5.21201 12.4252 11
    endloop
  endfacet
  facet normal -0.156435 -0.987688 0
    outer loop
      vertex 6.78799 12.4252 0
      vertex 6.78799 12.4252 11
      vertex 6 12.55 11
    endloop
  endfacet
  facet normal -0.156435 -0.987688 0
    outer loop
      vertex 6 12.55 0
      vertex 6.78799 12.4252 0
      vertex 6 12.55 11
    endloop
  endfacet
  facet normal -0.453991 -0.891006 0
    outer loop
      vertex 7.49885 12.063 0
      vertex 7.49885 12.063 11
      vertex 6.78799 12.4252 11
    endloop
  endfacet
  facet normal -0.453991 -0.891006 0
    outer loop
      vertex 6.78799 12.4252 0
      vertex 7.49885 12.063 0
      vertex 6.78799 12.4252 11
    endloop
  endfacet
  facet normal -0.707107 -0.707107 0
    outer loop
      vertex 8.06299 11.4989 0
      vertex 8.06299 11.4989 11
      vertex 7.49885 12.063 11
    endloop
  endfacet
  facet normal -0.707107 -0.707107 0
    outer loop
      vertex 7.49885 12.063 0
      vertex 8.06299 11.4989 0
      vertex 7.49885 12.063 11
    endloop
  endfacet
  facet normal -0.891006 -0.453991 0
    outer loop
      vertex 8.42519 10.788 11
      vertex 8.06299 11.4989 11
      vertex 8.42519 10.788 0
    endloop
  endfacet
  facet normal -0.891006 -0.453991 0
    outer loop
      vertex 8.42519 10.788 0
      vertex 8.06299 11.4989 11
      vertex 8.06299 11.4989 0
    endloop
  endfacet
  facet normal -0.987688 -0.156435 0
    outer loop
      vertex 8.55 10 11
      vertex 8.42519 10.788 11
      vertex 8.55 10 0
    endloop
  endfacet
  facet normal -0.987688 -0.156435 0
    outer loop
      vertex 8.55 10 0
      vertex 8.42519 10.788 11
      vertex 8.42519 10.788 0
    endloop
  endfacet
  facet normal -0.987688 0.156435 0
    outer loop
      vertex 8.55 10 11
      vertex 8.55 10 0
      vertex 8.42519 9.21201 11
    endloop
  endfacet
  facet normal -0.987688 0.156435 0
    outer loop
      vertex 8.42519 9.21201 11
      vertex 8.55 10 0
      vertex 8.42519 9.21201 0
    endloop
  endfacet
  facet normal -0.891006 0.453991 0
    outer loop
      vertex 8.42519 9.21201 11
      vertex 8.42519 9.21201 0
      vertex 8.06299 8.50115 11
    endloop
  endfacet
  facet normal -0.891006 0.453991 0
    outer loop
      vertex 8.06299 8.50115 11
      vertex 8.42519 9.21201 0
      vertex 8.06299 8.50115 0
    endloop
  endfacet
  facet normal -0.707107 0.707107 0
    outer loop
      vertex 8.06299 8.50115 11
      vertex 8.06299 8.50115 0
      vertex 7.49885 7.93701 11
    endloop
  endfacet
  facet normal -0.707107 0.707107 0
    outer loop
      vertex 7.49885 7.93701 11
      vertex 8.06299 8.50115 0
      vertex 7.49885 7.93701 0
    endloop
  endfacet
  facet normal -0.453991 0.891006 0
    outer loop
      vertex 7.49885 7.93701 11
      vertex 7.49885 7.93701 0
      vertex 6.78799 7.57481 11
    endloop
  endfacet
  facet normal -0.453991 0.891006 0
    outer loop
      vertex 6.78799 7.57481 11
      vertex 7.49885 7.93701 0
      vertex 6.78799 7.57481 0
    endloop
  endfacet
  facet normal -0.156435 0.987688 0
    outer loop
      vertex 6.78799 7.57481 11
      vertex 6.78799 7.57481 0
      vertex 6 7.45 11
    endloop
  endfacet
  facet normal -0.156435 0.987688 0
    outer loop
      vertex 6 7.45 11
      vertex 6.78799 7.57481 0
      vertex 6 7.45 0
    endloop
  endfacet
  facet normal 0.156435 0.987688 0
    outer loop
      vertex 6 7.45 11
      vertex 6 7.45 0
      vertex 5.21201 7.57481 11
    endloop
  endfacet
  facet normal 0.156435 0.987688 0
    outer loop
      vertex 5.21201 7.57481 11
      vertex 6 7.45 0
      vertex 5.21201 7.57481 0
    endloop
  endfacet
  facet normal 0.453991 0.891006 0
    outer loop
      vertex 5.21201 7.57481 11
      vertex 5.21201 7.57481 0
      vertex 4.50115 7.93701 11
    endloop
  endfacet
  facet normal 0.453991 0.891006 0
    outer loop
      vertex 4.50115 7.93701 11
      vertex 5.21201 7.57481 0
      vertex 4.50115 7.93701 0
    endloop
  endfacet
  facet normal 0.707107 0.707107 0
    outer loop
      vertex 4.50115 7.93701 11
      vertex 4.50115 7.93701 0
      vertex 3.93701 8.50115 11
    endloop
  endfacet
  facet normal 0.707107 0.707107 0
    outer loop
      vertex 3.93701 8.50115 11
      vertex 4.50115 7.93701 0
      vertex 3.93701 8.50115 0
    endloop
  endfacet
  facet normal 0.891006 0.453991 0
    outer loop
      vertex 3.57481 9.21201 11
      vertex 3.93701 8.50115 11
      vertex 3.93701 8.50115 0
    endloop
  endfacet
  facet normal 0.891006 0.453991 0
    outer loop
      vertex 3.57481 9.21201 0
      vertex 3.57481 9.21201 11
      vertex 3.93701 8.50115 0
    endloop
  endfacet
  facet normal 0.987688 -0.156435 0
    outer loop
      vertex 23.5748 10.788 0
      vertex 23.5748 10.788 11
      vertex 23.45 10 11
    endloop
  endfacet
  facet normal 0.987688 -0.156435 0
    outer loop
      vertex 23.45 10 0
      vertex 23.5748 10.788 0
      vertex 23.45 10 11
    endloop
  endfacet
  facet normal 0.987688 0.156435 0
    outer loop
      vertex 23.45 10 11
      vertex 23.5748 9.21201 11
      vertex 23.5748 9.21201 0
    endloop
  endfacet
  facet normal 0.987688 0.156435 0
    outer loop
      vertex 23.45 10 0
      vertex 23.45 10 11
      vertex 23.5748 9.21201 0
    endloop
  endfacet
  facet normal 0.891006 -0.453991 0
    outer loop
      vertex 23.937 11.4989 0
      vertex 23.937 11.4989 11
      vertex 23.5748 10.788 11
    endloop
  endfacet
  facet normal 0.891006 -0.453991 0
    outer loop
      vertex 23.5748 10.788 0
      vertex 23.937 11.4989 0
      vertex 23.5748 10.788 11
    endloop
  endfacet
  facet normal 0.707107 -0.707107 0
    outer loop
      vertex 24.5011 12.063 0
      vertex 24.5011 12.063 11
      vertex 23.937 11.4989 11
    endloop
  endfacet
  facet normal 0.707107 -0.707107 0
    outer loop
      vertex 23.937 11.4989 0
      vertex 24.5011 12.063 0
      vertex 23.937 11.4989 11
    endloop
  endfacet
  facet normal 0.453991 -0.891006 0
    outer loop
      vertex 25.212 12.4252 0
      vertex 25.212 12.4252 11
      vertex 24.5011 12.063 11
    endloop
  endfacet
  facet normal 0.453991 -0.891006 0
    outer loop
      vertex 24.5011 12.063 0
      vertex 25.212 12.4252 0
      vertex 24.5011 12.063 11
    endloop
  endfacet
  facet normal 0.156435 -0.987688 0
    outer loop
      vertex 26 12.55 0
      vertex 26 12.55 11
      vertex 25.212 12.4252 11
    endloop
  endfacet
  facet normal 0.156435 -0.987688 0
    outer loop
      vertex 25.212 12.4252 0
      vertex 26 12.55 0
      vertex 25.212 12.4252 11
    endloop
  endfacet
  facet normal -0.156435 -0.987688 0
    outer loop
      vertex 26.788 12.4252 0
      vertex 26.788 12.4252 11
      vertex 26 12.55 11
    endloop
  endfacet
  facet normal -0.156435 -0.987688 0
    outer loop
      vertex 26 12.55 0
      vertex 26.788 12.4252 0
      vertex 26 12.55 11
    endloop
  endfacet
  facet normal -0.453991 -0.891006 0
    outer loop
      vertex 27.4989 12.063 0
      vertex 27.4989 12.063 11
      vertex 26.788 12.4252 11
    endloop
  endfacet
  facet normal -0.453991 -0.891006 0
    outer loop
      vertex 26.788 12.4252 0
      vertex 27.4989 12.063 0
      vertex 26.788 12.4252 11
    endloop
  endfacet
  facet normal -0.707107 -0.707107 0
    outer loop
      vertex 28.063 11.4989 0
      vertex 28.063 11.4989 11
      vertex 27.4989 12.063 11
    endloop
  endfacet
  facet normal -0.707107 -0.707107 0
    outer loop
      vertex 27.4989 12.063 0
      vertex 28.063 11.4989 0
      vertex 27.4989 12.063 11
    endloop
  endfacet
  facet normal -0.891006 -0.453991 0
    outer loop
      vertex 28.4252 10.788 11
      vertex 28.063 11.4989 11
      vertex 28.4252 10.788 0
    endloop
  endfacet
  facet normal -0.891006 -0.453991 0
    outer loop
      vertex 28.4252 10.788 0
      vertex 28.063 11.4989 11
      vertex 28.063 11.4989 0
    endloop
  endfacet
  facet normal -0.987688 -0.156435 0
    outer loop
      vertex 28.55 10 11
      vertex 28.4252 10.788 11
      vertex 28.55 10 0
    endloop
  endfacet
  facet normal -0.987688 -0.156435 0
    outer loop
      vertex 28.55 10 0
      vertex 28.4252 10.788 11
      vertex 28.4252 10.788 0
    endloop
  endfacet
  facet normal -0.987688 0.156435 0
    outer loop
      vertex 28.55 10 11
      vertex 28.55 10 0
      vertex 28.4252 9.21201 11
    endloop
  endfacet
  facet normal -0.987688 0.156435 0
    outer loop
      vertex 28.4252 9.21201 11
      vertex 28.55 10 0
      vertex 28.4252 9.21201 0
    endloop
  endfacet
  facet normal -0.891006 0.453991 0
    outer loop
      vertex 28.4252 9.21201 11
      vertex 28.4252 9.21201 0
      vertex 28.063 8.50115 11
    endloop
  endfacet
  facet normal -0.891006 0.453991 0
    outer loop
      vertex 28.063 8.50115 11
      vertex 28.4252 9.21201 0
      vertex 28.063 8.50115 0
    endloop
  endfacet
  facet normal -0.707107 0.707107 0
    outer loop
      vertex 28.063 8.50115 11
      vertex 28.063 8.50115 0
      vertex 27.4989 7.93701 11
    endloop
  endfacet
  facet normal -0.707107 0.707107 0
    outer loop
      vertex 27.4989 7.93701 11
      vertex 28.063 8.50115 0
      vertex 27.4989 7.93701 0
    endloop
  endfacet
  facet normal -0.453991 0.891006 0
    outer loop
      vertex 27.4989 7.93701 11
      vertex 27.4989 7.93701 0
      vertex 26.788 7.57481 11
    endloop
  endfacet
  facet normal -0.453991 0.891006 0
    outer loop
      vertex 26.788 7.57481 11
      vertex 27.4989 7.93701 0
      vertex 26.788 7.57481 0
    endloop
  endfacet
  facet normal -0.156435 0.987688 0
    outer loop
      vertex 26.788 7.57481 11
      vertex 26.788 7.57481 0
      vertex 26 7.45 11
    endloop
  endfacet
  facet normal -0.156435 0.987688 0
    outer loop
      vertex 26 7.45 11
      vertex 26.788 7.57481 0
      vertex 26 7.45 0
    endloop
  endfacet
  facet normal 0.156435 0.987688 0
    outer loop
      vertex 26 7.45 11
      vertex 26 7.45 0
      vertex 25.212 7.57481 11
    endloop
  endfacet
  facet normal 0.156435 0.987688 0
    outer loop
      vertex 25.212 7.57481 11
      vertex 26 7.45 0
      vertex 25.212 7.57481 0
    endloop
  endfacet
  facet normal 0.453991 0.891006 0
    outer loop
      vertex 25.212 7.57481 11
      vertex 25.212 7.57481 0
      vertex 24.5011 7.93701 11
    endloop
  endfacet
  facet normal 0.453991 0.891006 0
    outer loop
      vertex 24.5011 7.93701 11
      vertex 25.212 7.57481 0
      vertex 24.5011 7.93701 0
    endloop
  endfacet
  facet normal 0.707107 0.707107 0
    outer loop
      vertex 24.5011 7.93701 11
      vertex 24.5011 7.93701 0
      vertex 23.937 8.50115 11
    endloop
  endfacet
  facet normal 0.707107 0.707107 0
    outer loop
      vertex 23.937 8.50115 11
      vertex 24.5011 7.93701 0
      vertex 23.937 8.50115 0
    endloop
  endfacet
  facet normal 0.891006 0.453991 0
    outer loop
      vertex 23.5748 9.21201 11
      vertex 23.937 8.50115 11
      vertex 23.937 8.50115 0
    endloop
  endfacet
  facet normal 0.891006 0.453991 0
    outer loop
      vertex 23.5748 9.21201 0
      vertex 23.5748 9.21201 11
      vertex 23.937 8.50115 0
    endloop
  endfacet
  facet normal 1 0 0
    outer loop
      vertex 13.1429 20 9.87198
      vertex 13.1429 20 11
      vertex 13.1429 0 11
    endloop
  endfacet
  facet normal 1 0 0
    outer loop
      vertex 13.1429 0 9.87198
      vertex 13.1429 20 9.87198
      vertex 13.1429 0 11
    endloop
  endfacet
  facet normal 0.743144 1.48577e-16 -0.669131
    outer loop
      vertex 12.7639 20 9.45114
      vertex 13.1429 20 9.87198
      vertex 13.1429 0 9.87198
    endloop
  endfacet
  facet normal 0.743144 1.48577e-16 -0.669131
    outer loop
      vertex 12.7639 0 9.45114
      vertex 12.7639 20 9.45114
      vertex 13.1429 0 9.87198
    endloop
  endfacet
  facet normal 0.866025 1.11022e-16 -0.5
    outer loop
      vertex 12.3458 20 8.72695
      vertex 12.7639 20 9.45114
      vertex 12.7639 0 9.45114
    endloop
  endfacet
  facet normal 0.866025 1.11022e-16 -0.5
    outer loop
      vertex 12.3458 0 8.72695
      vertex 12.3458 20 8.72695
      vertex 12.7639 0 9.45114
    endloop
  endfacet
  facet normal 0.951057 6.86154e-17 -0.309016
    outer loop
      vertex 12.0874 20 7.93165
      vertex 12.3458 20 8.72695
      vertex 12.3458 0 8.72695
    endloop
  endfacet
  facet normal 0.951057 6.86154e-17 -0.309016
    outer loop
      vertex 12.0874 0 7.93165
      vertex 12.0874 20 7.93165
      vertex 12.3458 0 8.72695
    endloop
  endfacet
  facet normal 0.994522 2.32101e-17 -0.104529
    outer loop
      vertex 12 20 7.1
      vertex 12.0874 20 7.93165
      vertex 12.0874 0 7.93165
    endloop
  endfacet
  facet normal 0.994522 2.32101e-17 -0.104529
    outer loop
      vertex 12 0 7.1
      vertex 12 20 7.1
      vertex 12.0874 0 7.93165
    endloop
  endfacet
  facet normal 0.994522 -2.32101e-17 0.104529
    outer loop
      vertex 12.0874 0 6.26835
      vertex 12.0874 20 6.26835
      vertex 12 20 7.1
    endloop
  endfacet
  facet normal 0.994522 -2.32101e-17 0.104529
    outer loop
      vertex 12 0 7.1
      vertex 12.0874 0 6.26835
      vertex 12 20 7.1
    endloop
  endfacet
  facet normal 0.951057 -6.86154e-17 0.309016
    outer loop
      vertex 12.3458 0 5.47305
      vertex 12.3458 20 5.47305
      vertex 12.0874 20 6.26835
    endloop
  endfacet
  facet normal 0.951057 -6.86154e-17 0.309016
    outer loop
      vertex 12.0874 0 6.26835
      vertex 12.3458 0 5.47305
      vertex 12.0874 20 6.26835
    endloop
  endfacet
  facet normal 0.866025 -1.11022e-16 0.5
    outer loop
      vertex 12.7639 0 4.74886
      vertex 12.7639 20 4.74886
      vertex 12.3458 20 5.47305
    endloop
  endfacet
  facet normal 0.866025 -1.11022e-16 0.5
    outer loop
      vertex 12.3458 0 5.47305
      vertex 12.7639 0 4.74886
      vertex 12.3458 20 5.47305
    endloop
  endfacet
  facet normal 0.743144 -1.48577e-16 0.669131
    outer loop
      vertex 13.3235 0 4.12742
      vertex 13.3235 20 4.12742
      vertex 12.7639 20 4.74886
    endloop
  endfacet
  facet normal 0.743144 -1.48577e-16 0.669131
    outer loop
      vertex 12.7639 0 4.74886
      vertex 13.3235 0 4.12742
      vertex 12.7639 20 4.74886
    endloop
  endfacet
  facet normal 0.587786 -1.79638e-16 0.809016
    outer loop
      vertex 14 0 3.6359
      vertex 14 20 3.6359
      vertex 13.3235 20 4.12742
    endloop
  endfacet
  facet normal 0.587786 -1.79638e-16 0.809016
    outer loop
      vertex 13.3235 0 4.12742
      vertex 14 0 3.6359
      vertex 13.3235 20 4.12742
    endloop
  endfacet
  facet normal 0.406736 -2.02848e-16 0.913546
    outer loop
      vertex 14.7639 0 3.29577
      vertex 14.7639 20 3.29577
      vertex 14 20 3.6359
    endloop
  endfacet
  facet normal 0.406736 -2.02848e-16 0.913546
    outer loop
      vertex 14 0 3.6359
      vertex 14.7639 0 3.29577
      vertex 14 20 3.6359
    endloop
  endfacet
  facet normal 0.207912 -2.17192e-16 0.978147
    outer loop
      vertex 15.5819 0 3.12191
      vertex 15.5819 20 3.12191
      vertex 14.7639 20 3.29577
    endloop
  endfacet
  facet normal 0.207912 -2.17192e-16 0.978147
    outer loop
      vertex 14.7639 0 3.29577
      vertex 15.5819 0 3.12191
      vertex 14.7639 20 3.29577
    endloop
  endfacet
  facet normal 0 -2.22045e-16 1
    outer loop
      vertex 16.4181 0 3.12191
      vertex 16.4181 20 3.12191
      vertex 15.5819 20 3.12191
    endloop
  endfacet
  facet normal 0 -2.22045e-16 1
    outer loop
      vertex 15.5819 0 3.12191
      vertex 16.4181 0 3.12191
      vertex 15.5819 20 3.12191
    endloop
  endfacet
  facet normal -0.207912 -2.17192e-16 0.978147
    outer loop
      vertex 17.2361 0 3.29577
      vertex 17.2361 20 3.29577
      vertex 16.4181 20 3.12191
    endloop
  endfacet
  facet normal -0.207912 -2.17192e-16 0.978147
    outer loop
      vertex 16.4181 0 3.12191
      vertex 17.2361 0 3.29577
      vertex 16.4181 20 3.12191
    endloop
  endfacet
  facet normal -0.406736 -2.02848e-16 0.913546
    outer loop
      vertex 18 0 3.6359
      vertex 18 20 3.6359
      vertex 17.2361 20 3.29577
    endloop
  endfacet
  facet normal -0.406736 -2.02848e-16 0.913546
    outer loop
      vertex 17.2361 0 3.29577
      vertex 18 0 3.6359
      vertex 17.2361 20 3.29577
    endloop
  endfacet
  facet normal -0.587786 -1.79638e-16 0.809016
    outer loop
      vertex 18.6765 0 4.12742
      vertex 18.6765 20 4.12742
      vertex 18 20 3.6359
    endloop
  endfacet
  facet normal -0.587786 -1.79638e-16 0.809016
    outer loop
      vertex 18 0 3.6359
      vertex 18.6765 0 4.12742
      vertex 18 20 3.6359
    endloop
  endfacet
  facet normal -0.743144 -1.48577e-16 0.669131
    outer loop
      vertex 19.2361 20 4.74886
      vertex 18.6765 20 4.12742
      vertex 19.2361 0 4.74886
    endloop
  endfacet
  facet normal -0.743144 -1.48577e-16 0.669131
    outer loop
      vertex 19.2361 0 4.74886
      vertex 18.6765 20 4.12742
      vertex 18.6765 0 4.12742
    endloop
  endfacet
  facet normal -0.866025 -1.11022e-16 0.5
    outer loop
      vertex 19.6542 20 5.47305
      vertex 19.2361 20 4.74886
      vertex 19.6542 0 5.47305
    endloop
  endfacet
  facet normal -0.866025 -1.11022e-16 0.5
    outer loop
      vertex 19.6542 0 5.47305
      vertex 19.2361 20 4.74886
      vertex 19.2361 0 4.74886
    endloop
  endfacet
  facet normal -0.951057 -6.86154e-17 0.309016
    outer loop
      vertex 19.9126 20 6.26835
      vertex 19.6542 20 5.47305
      vertex 19.9126 0 6.26835
    endloop
  endfacet
  facet normal -0.951057 -6.86154e-17 0.309016
    outer loop
      vertex 19.9126 0 6.26835
      vertex 19.6542 20 5.47305
      vertex 19.6542 0 5.47305
    endloop
  endfacet
  facet normal -0.994522 -2.32101e-17 0.104529
    outer loop
      vertex 20 20 7.1
      vertex 19.9126 20 6.26835
      vertex 20 0 7.1
    endloop
  endfacet
  facet normal -0.994522 -2.32101e-17 0.104529
    outer loop
      vertex 20 0 7.1
      vertex 19.9126 20 6.26835
      vertex 19.9126 0 6.26835
    endloop
  endfacet
  facet normal -0.994522 2.32101e-17 -0.104529
    outer loop
      vertex 20 20 7.1
      vertex 20 0 7.1
      vertex 19.9126 20 7.93165
    endloop
  endfacet
  facet normal -0.994522 2.32101e-17 -0.104529
    outer loop
      vertex 19.9126 20 7.93165
      vertex 20 0 7.1
      vertex 19.9126 0 7.93165
    endloop
  endfacet
  facet normal -0.951057 6.86154e-17 -0.309016
    outer loop
      vertex 19.9126 20 7.93165
      vertex 19.9126 0 7.93165
      vertex 19.6542 20 8.72695
    endloop
  endfacet
  facet normal -0.951057 6.86154e-17 -0.309016
    outer loop
      vertex 19.6542 20 8.72695
      vertex 19.9126 0 7.93165
      vertex 19.6542 0 8.72695
    endloop
  endfacet
  facet normal -0.866025 1.11022e-16 -0.5
    outer loop
      vertex 19.6542 20 8.72695
      vertex 19.6542 0 8.72695
      vertex 19.2361 20 9.45114
    endloop
  endfacet
  facet normal -0.866025 1.11022e-16 -0.5
    outer loop
      vertex 19.2361 20 9.45114
      vertex 19.6542 0 8.72695
      vertex 19.2361 0 9.45114
    endloop
  endfacet
  facet normal -0.743144 1.48577e-16 -0.669131
    outer loop
      vertex 19.2361 20 9.45114
      vertex 19.2361 0 9.45114
      vertex 18.8571 20 9.87198
    endloop
  endfacet
  facet normal -0.743144 1.48577e-16 -0.669131
    outer loop
      vertex 18.8571 20 9.87198
      vertex 19.2361 0 9.45114
      vertex 18.8571 0 9.87198
    endloop
  endfacet
  facet normal -1 0 0
    outer loop
      vertex 18.8571 20 11
      vertex 18.8571 20 9.87198
      vertex 18.8571 0 11
    endloop
  endfacet
  facet normal -1 0 0
    outer loop
      vertex 18.8571 0 11
      vertex 18.8571 20 9.87198
      vertex 18.8571 0 9.87198
    endloop
  endfacet
  facet normal 0 0 1
    outer loop
      vertex 18.8571 20 11
      vertex 18.8571 0 11
      vertex 26 0 11
    endloop
  endfacet
  facet normal 0 0 1
    outer loop
      vertex 23.5748 9.21201 11
      vertex 18.8571 20 11
      vertex 27.2475 0.131114 11
    endloop
  endfacet
  facet normal 0 0 1
    outer loop
      vertex 27.2475 0.131114 11
      vertex 18.8571 20 11
      vertex 26 0 11
    endloop
  endfacet
  facet normal 0 0 1
    outer loop
      vertex 28.4252 9.21201 11
      vertex 28.063 8.50115 11
      vertex 31.7063 4.1459 11
    endloop
  endfacet
  facet normal 0 0 1
    outer loop
      vertex 28.55 10 11
      vertex 31.9671 5.37283 11
      vertex 31.9671 6 11
    endloop
  endfacet
  facet normal 0 0 1
    outer loop
      vertex 28.063 11.4989 11
      vertex 28.4252 10.788 11
      vertex 32 6 11
    endloop
  endfacet
  facet normal 0 0 1
    outer loop
      vertex 31.8689 15.2475 11
      vertex 18.8571 20 11
      vertex 32 14 11
    endloop
  endfacet
  facet normal 0 0 1
    outer loop
      vertex 31.4813 16.4404 11
      vertex 18.8571 20 11
      vertex 31.8689 15.2475 11
    endloop
  endfacet
  facet normal 0 0 1
    outer loop
      vertex 30.8541 17.5267 11
      vertex 18.8571 20 11
      vertex 31.4813 16.4404 11
    endloop
  endfacet
  facet normal 0 0 1
    outer loop
      vertex 30.0148 18.4589 11
      vertex 18.8571 20 11
      vertex 30.8541 17.5267 11
    endloop
  endfacet
  facet normal 0 0 1
    outer loop
      vertex 29 19.1962 11
      vertex 18.8571 20 11
      vertex 30.0148 18.4589 11
    endloop
  endfacet
  facet normal 0 0 1
    outer loop
      vertex 27.8541 19.7063 11
      vertex 18.8571 20 11
      vertex 29 19.1962 11
    endloop
  endfacet
  facet normal 0 0 1
    outer loop
      vertex 26 19.9671 11
      vertex 18.8571 20 11
      vertex 27.8541 19.7063 11
    endloop
  endfacet
  facet normal 0 0 1
    outer loop
      vertex 24.5011 7.93701 11
      vertex 23.937 8.50115 11
      vertex 28.4404 0.518727 11
    endloop
  endfacet
  facet normal 0 0 1
    outer loop
      vertex 26.6272 19.9671 11
      vertex 26 19.9671 11
      vertex 27.8541 19.7063 11
    endloop
  endfacet
  facet normal 0 0 1
    outer loop
      vertex 23.45 10 11
      vertex 23.5748 10.788 11
      vertex 18.8571 20 11
    endloop
  endfacet
  facet normal 0 0 1
    outer loop
      vertex 23.937 8.50115 11
      vertex 23.5748 9.21201 11
      vertex 27.2475 0.131114 11
    endloop
  endfacet
  facet normal 0 0 1
    outer loop
      vertex 23.45 10 11
      vertex 18.8571 20 11
      vertex 23.5748 9.21201 11
    endloop
  endfacet
  facet normal 0 0 1
    outer loop
      vertex 23.937 11.4989 11
      vertex 24.5011 12.063 11
      vertex 18.8571 20 11
    endloop
  endfacet
  facet normal 0 0 1
    outer loop
      vertex 26 7.45 11
      vertex 25.212 7.57481 11
      vertex 29.5267 1.1459 11
    endloop
  endfacet
  facet normal 0 0 1
    outer loop
      vertex 27.4989 7.93701 11
      vertex 26.788 7.57481 11
      vertex 30.4589 1.98522 11
    endloop
  endfacet
  facet normal 0 0 1
    outer loop
      vertex 26.788 7.57481 11
      vertex 29.5267 1.1459 11
      vertex 30.4589 1.98522 11
    endloop
  endfacet
  facet normal 0 0 1
    outer loop
      vertex 32 14 11
      vertex 18.8571 20 11
      vertex 26 12.55 11
    endloop
  endfacet
  facet normal 0 0 1
    outer loop
      vertex 28.55 10 11
      vertex 31.9671 6 11
      vertex 32 6 11
    endloop
  endfacet
  facet normal 0 0 1
    outer loop
      vertex 32 14 11
      vertex 26 12.55 11
      vertex 26.788 12.4252 11
    endloop
  endfacet
  facet normal 0 0 1
    outer loop
      vertex 28.4252 10.788 11
      vertex 28.55 10 11
      vertex 32 6 11
    endloop
  endfacet
  facet normal 0 0 1
    outer loop
      vertex 32 14 11
      vertex 26.788 12.4252 11
      vertex 27.4989 12.063 11
    endloop
  endfacet
  facet normal 0 0 1
    outer loop
      vertex 32 14 11
      vertex 28.063 11.4989 11
      vertex 32 6 11
    endloop
  endfacet
  facet normal 0 0 1
    outer loop
      vertex 32 14 11
      vertex 27.4989 12.063 11
      vertex 28.063 11.4989 11
    endloop
  endfacet
  facet normal 0 0 1
    outer loop
      vertex 28.063 8.50115 11
      vertex 27.4989 7.93701 11
      vertex 31.1962 3 11
    endloop
  endfacet
  facet normal 0 0 1
    outer loop
      vertex 28.55 10 11
      vertex 28.4252 9.21201 11
      vertex 31.9671 5.37283 11
    endloop
  endfacet
  facet normal 0 0 1
    outer loop
      vertex 31.7063 4.1459 11
      vertex 28.063 8.50115 11
      vertex 31.1962 3 11
    endloop
  endfacet
  facet normal 0 0 1
    outer loop
      vertex 28.4252 9.21201 11
      vertex 31.7063 4.1459 11
      vertex 31.9671 5.37283 11
    endloop
  endfacet
  facet normal 0 0 1
    outer loop
      vertex 31.1962 3 11
      vertex 27.4989 7.93701 11
      vertex 30.4589 1.98522 11
    endloop
  endfacet
  facet normal 0 0 1
    outer loop
      vertex 25.212 7.57481 11
      vertex 24.5011 7.93701 11
      vertex 28.4404 0.518727 11
    endloop
  endfacet
  facet normal 0 0 1
    outer loop
      vertex 26.788 7.57481 11
      vertex 26 7.45 11
      vertex 29.5267 1.1459 11
    endloop
  endfacet
  facet normal 0 0 1
    outer loop
      vertex 29.5267 1.1459 11
      vertex 25.212 7.57481 11
      vertex 28.4404 0.518727 11
    endloop
  endfacet
  facet normal 0 0 1
    outer loop
      vertex 28.4404 0.518727 11
      vertex 23.937 8.50115 11
      vertex 27.2475 0.131114 11
    endloop
  endfacet
  facet normal 0 0 1
    outer loop
      vertex 26 19.9671 11
      vertex 26 20 11
      vertex 18.8571 20 11
    endloop
  endfacet
  facet normal 0 0 1
    outer loop
      vertex 23.5748 10.788 11
      vertex 23.937 11.4989 11
      vertex 18.8571 20 11
    endloop
  endfacet
  facet normal 0 0 1
    outer loop
      vertex 24.5011 12.063 11
      vertex 25.212 12.4252 11
      vertex 18.8571 20 11
    endloop
  endfacet
  facet normal 0 0 1
    outer loop
      vertex 25.212 12.4252 11
      vertex 26 12.55 11
      vertex 18.8571 20 11
    endloop
  endfacet
endsolid OpenSCAD_Model
