solid OpenSCAD_Model
  facet normal -1 0 0
    outer loop
      vertex -6 -6 -1
      vertex -6 -6 1
      vertex -6 6 -1
    endloop
  endfacet
  facet normal -1 0 0
    outer loop
      vertex -6 6 -1
      vertex -6 -6 1
      vertex -6 -3 1
    endloop
  endfacet
  facet normal -1 0 0
    outer loop
      vertex -6 6 -1
      vertex -6 -3 1
      vertex -6 -3 4
    endloop
  endfacet
  facet normal -1 0 0
    outer loop
      vertex -6 3 1
      vertex -6 -3 4
      vertex -6 3 4
    endloop
  endfacet
  facet normal -1 0 0
    outer loop
      vertex -6 6 -1
      vertex -6 -3 4
      vertex -6 3 1
    endloop
  endfacet
  facet normal -1 0 0
    outer loop
      vertex -6 6 1
      vertex -6 6 -1
      vertex -6 3 1
    endloop
  endfacet
  facet normal 0 -1 0
    outer loop
      vertex -6 -6 1
      vertex -6 -6 -1
      vertex 6 -6 -1
    endloop
  endfacet
  facet normal 0 -1 0
    outer loop
      vertex -4 -6 1
      vertex -6 -6 1
      vertex 6 -6 -1
    endloop
  endfacet
  facet normal 0 -1 0
    outer loop
      vertex 6 -6 1
      vertex 4 -6 1
      vertex 6 -6 -1
    endloop
  endfacet
  facet normal 0 -1 0
    outer loop
      vertex 4 -6 1
      vertex -4 -6 1
      vertex 6 -6 -1
    endloop
  endfacet
  facet normal 0 0 -1
    outer loop
      vertex 0.776949 1.22428 -1
      vertex -6 6 -1
      vertex 6 6 -1
    endloop
  endfacet
  facet normal 0 0 -1
    outer loop
      vertex -6 -6 -1
      vertex -6 6 -1
      vertex -1.45 0 -1
    endloop
  endfacet
  facet normal 0 0 -1
    outer loop
      vertex -1.17307 0.852289 -1
      vertex -6 6 -1
      vertex -1.057 0.992593 -1
    endloop
  endfacet
  facet normal 0 0 -1
    outer loop
      vertex -6 -6 -1
      vertex -1.45 0 -1
      vertex -1.43857 -0.181733 -1
    endloop
  endfacet
  facet normal 0 0 -1
    outer loop
      vertex -6 -6 -1
      vertex -1.43857 -0.181733 -1
      vertex -1.40445 -0.3606 -1
    endloop
  endfacet
  facet normal 0 0 -1
    outer loop
      vertex -6 -6 -1
      vertex -1.40445 -0.3606 -1
      vertex -1.34818 -0.533781 -1
    endloop
  endfacet
  facet normal 0 0 -1
    outer loop
      vertex -6 -6 -1
      vertex -1.34818 -0.533781 -1
      vertex -1.27065 -0.698543 -1
    endloop
  endfacet
  facet normal 0 0 -1
    outer loop
      vertex -6 -6 -1
      vertex -1.27065 -0.698543 -1
      vertex -1.17307 -0.852289 -1
    endloop
  endfacet
  facet normal 0 0 -1
    outer loop
      vertex -6 -6 -1
      vertex -1.17307 -0.852289 -1
      vertex -1.057 -0.992593 -1
    endloop
  endfacet
  facet normal 0 0 -1
    outer loop
      vertex -6 -6 -1
      vertex -1.057 -0.992593 -1
      vertex -0.924265 -1.11724 -1
    endloop
  endfacet
  facet normal 0 0 -1
    outer loop
      vertex -6 -6 -1
      vertex -0.924265 -1.11724 -1
      vertex -0.776949 -1.22428 -1
    endloop
  endfacet
  facet normal 0 0 -1
    outer loop
      vertex -6 -6 -1
      vertex -0.776949 -1.22428 -1
      vertex 6 -6 -1
    endloop
  endfacet
  facet normal 0 0 -1
    outer loop
      vertex -0.448075 -1.37903 -1
      vertex 6 -6 -1
      vertex -0.61738 -1.312 -1
    endloop
  endfacet
  facet normal 0 0 -1
    outer loop
      vertex -0.271703 -1.42432 -1
      vertex 6 -6 -1
      vertex -0.448075 -1.37903 -1
    endloop
  endfacet
  facet normal 0 0 -1
    outer loop
      vertex -0.091046 -1.44714 -1
      vertex 6 -6 -1
      vertex -0.271703 -1.42432 -1
    endloop
  endfacet
  facet normal 0 0 -1
    outer loop
      vertex 0.091046 -1.44714 -1
      vertex 6 -6 -1
      vertex -0.091046 -1.44714 -1
    endloop
  endfacet
  facet normal 0 0 -1
    outer loop
      vertex 0.271703 -1.42432 -1
      vertex 6 -6 -1
      vertex 0.091046 -1.44714 -1
    endloop
  endfacet
  facet normal 0 0 -1
    outer loop
      vertex 0.448075 -1.37903 -1
      vertex 6 -6 -1
      vertex 0.271703 -1.42432 -1
    endloop
  endfacet
  facet normal 0 0 -1
    outer loop
      vertex 1.057 -0.992593 -1
      vertex 6 -6 -1
      vertex 0.924265 -1.11724 -1
    endloop
  endfacet
  facet normal 0 0 -1
    outer loop
      vertex -1.34818 0.533781 -1
      vertex -6 6 -1
      vertex -1.27065 0.698543 -1
    endloop
  endfacet
  facet normal 0 0 -1
    outer loop
      vertex 0.448075 -1.37903 -1
      vertex 0.61738 -1.312 -1
      vertex 6 -6 -1
    endloop
  endfacet
  facet normal 0 0 -1
    outer loop
      vertex -1.27065 0.698543 -1
      vertex -6 6 -1
      vertex -1.17307 0.852289 -1
    endloop
  endfacet
  facet normal 0 0 -1
    outer loop
      vertex 0.61738 -1.312 -1
      vertex 0.776949 -1.22428 -1
      vertex 6 -6 -1
    endloop
  endfacet
  facet normal 0 0 -1
    outer loop
      vertex 0.776949 -1.22428 -1
      vertex 0.924265 -1.11724 -1
      vertex 6 -6 -1
    endloop
  endfacet
  facet normal 0 0 -1
    outer loop
      vertex 1.34818 -0.533781 -1
      vertex 6 6 -1
      vertex 1.27065 -0.698543 -1
    endloop
  endfacet
  facet normal 0 0 -1
    outer loop
      vertex 6 -6 -1
      vertex 1.057 -0.992593 -1
      vertex 1.17307 -0.852289 -1
    endloop
  endfacet
  facet normal 0 0 -1
    outer loop
      vertex 6 -6 -1
      vertex 1.17307 -0.852289 -1
      vertex 6 6 -1
    endloop
  endfacet
  facet normal 0 0 -1
    outer loop
      vertex 1.17307 -0.852289 -1
      vertex 1.27065 -0.698543 -1
      vertex 6 6 -1
    endloop
  endfacet
  facet normal 0 0 -1
    outer loop
      vertex -1.057 0.992593 -1
      vertex -6 6 -1
      vertex -0.924265 1.11724 -1
    endloop
  endfacet
  facet normal 0 0 -1
    outer loop
      vertex 0.61738 1.312 -1
      vertex -6 6 -1
      vertex 0.776949 1.22428 -1
    endloop
  endfacet
  facet normal 0 0 -1
    outer loop
      vertex -0.776949 1.22428 -1
      vertex -6 6 -1
      vertex -0.61738 1.312 -1
    endloop
  endfacet
  facet normal 0 0 -1
    outer loop
      vertex 1.34818 -0.533781 -1
      vertex 1.40445 -0.3606 -1
      vertex 6 6 -1
    endloop
  endfacet
  facet normal 0 0 -1
    outer loop
      vertex -0.61738 1.312 -1
      vertex -6 6 -1
      vertex -0.448075 1.37903 -1
    endloop
  endfacet
  facet normal 0 0 -1
    outer loop
      vertex 1.40445 -0.3606 -1
      vertex 1.43857 -0.181733 -1
      vertex 6 6 -1
    endloop
  endfacet
  facet normal 0 0 -1
    outer loop
      vertex 1.43857 -0.181733 -1
      vertex 1.45 0 -1
      vertex 6 6 -1
    endloop
  endfacet
  facet normal 0 0 -1
    outer loop
      vertex -0.448075 1.37903 -1
      vertex -6 6 -1
      vertex -0.271703 1.42432 -1
    endloop
  endfacet
  facet normal 0 0 -1
    outer loop
      vertex 1.45 0 -1
      vertex 1.43857 0.181733 -1
      vertex 6 6 -1
    endloop
  endfacet
  facet normal 0 0 -1
    outer loop
      vertex -0.271703 1.42432 -1
      vertex -6 6 -1
      vertex -0.091046 1.44714 -1
    endloop
  endfacet
  facet normal 0 0 -1
    outer loop
      vertex 1.43857 0.181733 -1
      vertex 1.40445 0.3606 -1
      vertex 6 6 -1
    endloop
  endfacet
  facet normal 0 0 -1
    outer loop
      vertex -0.091046 1.44714 -1
      vertex -6 6 -1
      vertex 0.091046 1.44714 -1
    endloop
  endfacet
  facet normal 0 0 -1
    outer loop
      vertex 1.40445 0.3606 -1
      vertex 1.34818 0.533781 -1
      vertex 6 6 -1
    endloop
  endfacet
  facet normal 0 0 -1
    outer loop
      vertex 0.091046 1.44714 -1
      vertex -6 6 -1
      vertex 0.271703 1.42432 -1
    endloop
  endfacet
  facet normal 0 0 -1
    outer loop
      vertex 1.34818 0.533781 -1
      vertex 1.27065 0.698543 -1
      vertex 6 6 -1
    endloop
  endfacet
  facet normal 0 0 -1
    outer loop
      vertex 1.27065 0.698543 -1
      vertex 1.17307 0.852289 -1
      vertex 6 6 -1
    endloop
  endfacet
  facet normal 0 0 -1
    outer loop
      vertex 0.271703 1.42432 -1
      vertex -6 6 -1
      vertex 0.448075 1.37903 -1
    endloop
  endfacet
  facet normal 0 0 -1
    outer loop
      vertex 1.17307 0.852289 -1
      vertex 1.057 0.992593 -1
      vertex 6 6 -1
    endloop
  endfacet
  facet normal 0 0 -1
    outer loop
      vertex 0.448075 1.37903 -1
      vertex -6 6 -1
      vertex 0.61738 1.312 -1
    endloop
  endfacet
  facet normal 0 0 -1
    outer loop
      vertex 1.057 0.992593 -1
      vertex 0.924265 1.11724 -1
      vertex 6 6 -1
    endloop
  endfacet
  facet normal 0 0 -1
    outer loop
      vertex 0.924265 1.11724 -1
      vertex 0.776949 1.22428 -1
      vertex 6 6 -1
    endloop
  endfacet
  facet normal 0 0 -1
    outer loop
      vertex -0.924265 1.11724 -1
      vertex -6 6 -1
      vertex -0.776949 1.22428 -1
    endloop
  endfacet
  facet normal 0 0 -1
    outer loop
      vertex -1.40445 0.3606 -1
      vertex -6 6 -1
      vertex -1.34818 0.533781 -1
    endloop
  endfacet
  facet normal 0 0 -1
    outer loop
      vertex -1.43857 0.181733 -1
      vertex -6 6 -1
      vertex -1.40445 0.3606 -1
    endloop
  endfacet
  facet normal 0 0 -1
    outer loop
      vertex -1.45 0 -1
      vertex -6 6 -1
      vertex -1.43857 0.181733 -1
    endloop
  endfacet
  facet normal 0 0 -1
    outer loop
      vertex -0.61738 -1.312 -1
      vertex 6 -6 -1
      vertex -0.776949 -1.22428 -1
    endloop
  endfacet
  facet normal 0 1 0
    outer loop
      vertex -6 6 -1
      vertex -6 6 1
      vertex 6 6 -1
    endloop
  endfacet
  facet normal 0 1 0
    outer loop
      vertex 6 6 -1
      vertex -6 6 1
      vertex -4 6 1
    endloop
  endfacet
  facet normal 0 1 0
    outer loop
      vertex 6 6 -1
      vertex -4 6 1
      vertex 4 6 1
    endloop
  endfacet
  facet normal 0 1 0
    outer loop
      vertex 6 6 -1
      vertex 4 6 1
      vertex 6 6 1
    endloop
  endfacet
  facet normal 0 0 1
    outer loop
      vertex -6 6 1
      vertex -6 3 1
      vertex -4 3 1
    endloop
  endfacet
  facet normal 0 0 1
    outer loop
      vertex -4 6 1
      vertex -6 6 1
      vertex -4 3 1
    endloop
  endfacet
  facet normal 0 1 0
    outer loop
      vertex -6 3 1
      vertex -6 3 4
      vertex -4 3 1
    endloop
  endfacet
  facet normal 0 1 0
    outer loop
      vertex -4 3 1
      vertex -6 3 4
      vertex -4 3 4
    endloop
  endfacet
  facet normal 0 0 1
    outer loop
      vertex -6 3 4
      vertex -6 -3 4
      vertex -4 -3 4
    endloop
  endfacet
  facet normal 0 0 1
    outer loop
      vertex -4 3 4
      vertex -6 3 4
      vertex -4 -3 4
    endloop
  endfacet
  facet normal 0 -1 0
    outer loop
      vertex -6 -3 4
      vertex -6 -3 1
      vertex -4 -3 1
    endloop
  endfacet
  facet normal 0 -1 0
    outer loop
      vertex -4 -3 4
      vertex -6 -3 4
      vertex -4 -3 1
    endloop
  endfacet
  facet normal 0 0 1
    outer loop
      vertex -6 -3 1
      vertex -6 -6 1
      vertex -4 -6 1
    endloop
  endfacet
  facet normal 0 0 1
    outer loop
      vertex -4 -3 1
      vertex -6 -3 1
      vertex -4 -6 1
    endloop
  endfacet
  facet normal 0 0 1
    outer loop
      vertex -4 -3 1
      vertex -4 -6 1
      vertex 4 -6 1
    endloop
  endfacet
  facet normal 0 0 1
    outer loop
      vertex 0.448075 -1.37903 1
      vertex -4 -3 1
      vertex 4 -3 1
    endloop
  endfacet
  facet normal 0 0 1
    outer loop
      vertex 4 -3 1
      vertex -4 -3 1
      vertex 4 -6 1
    endloop
  endfacet
  facet normal 0 0 1
    outer loop
      vertex 0.448075 -1.37903 1
      vertex 0.271703 -1.42432 1
      vertex -4 -3 1
    endloop
  endfacet
  facet normal 0 0 1
    outer loop
      vertex -0.924265 1.11724 1
      vertex -0.776949 1.22428 1
      vertex 4 6 1
    endloop
  endfacet
  facet normal 0 0 1
    outer loop
      vertex -4 6 1
      vertex -4 3 1
      vertex 4 6 1
    endloop
  endfacet
  facet normal 0 0 1
    outer loop
      vertex -0.448075 1.37903 1
      vertex -0.271703 1.42432 1
      vertex 4 6 1
    endloop
  endfacet
  facet normal 0 0 1
    outer loop
      vertex -0.091046 1.44714 1
      vertex 0.091046 1.44714 1
      vertex 4 6 1
    endloop
  endfacet
  facet normal 0 0 1
    outer loop
      vertex -4 3 1
      vertex -4 -3 1
      vertex -1.45 0 1
    endloop
  endfacet
  facet normal 0 0 1
    outer loop
      vertex -0.271703 1.42432 1
      vertex -0.091046 1.44714 1
      vertex 4 6 1
    endloop
  endfacet
  facet normal 0 0 1
    outer loop
      vertex -4 3 1
      vertex -1.45 0 1
      vertex -1.43857 0.181733 1
    endloop
  endfacet
  facet normal 0 0 1
    outer loop
      vertex 1.057 0.992593 1
      vertex 1.17307 0.852289 1
      vertex 4 3 1
    endloop
  endfacet
  facet normal 0 0 1
    outer loop
      vertex -4 3 1
      vertex -1.43857 0.181733 1
      vertex -1.40445 0.3606 1
    endloop
  endfacet
  facet normal 0 0 1
    outer loop
      vertex -4 3 1
      vertex -1.40445 0.3606 1
      vertex -1.34818 0.533781 1
    endloop
  endfacet
  facet normal 0 0 1
    outer loop
      vertex -0.61738 1.312 1
      vertex -0.448075 1.37903 1
      vertex 4 6 1
    endloop
  endfacet
  facet normal 0 0 1
    outer loop
      vertex -4 3 1
      vertex -1.34818 0.533781 1
      vertex -1.27065 0.698543 1
    endloop
  endfacet
  facet normal 0 0 1
    outer loop
      vertex -0.776949 1.22428 1
      vertex -0.61738 1.312 1
      vertex 4 6 1
    endloop
  endfacet
  facet normal 0 0 1
    outer loop
      vertex -4 3 1
      vertex -1.27065 0.698543 1
      vertex -1.17307 0.852289 1
    endloop
  endfacet
  facet normal 0 0 1
    outer loop
      vertex -4 3 1
      vertex -1.057 0.992593 1
      vertex 4 6 1
    endloop
  endfacet
  facet normal 0 0 1
    outer loop
      vertex -4 3 1
      vertex -1.17307 0.852289 1
      vertex -1.057 0.992593 1
    endloop
  endfacet
  facet normal 0 0 1
    outer loop
      vertex -1.057 0.992593 1
      vertex -0.924265 1.11724 1
      vertex 4 6 1
    endloop
  endfacet
  facet normal 0 0 1
    outer loop
      vertex 4 6 1
      vertex 0.091046 1.44714 1
      vertex 4 3 1
    endloop
  endfacet
  facet normal 0 0 1
    outer loop
      vertex 0.091046 1.44714 1
      vertex 0.271703 1.42432 1
      vertex 4 3 1
    endloop
  endfacet
  facet normal 0 0 1
    outer loop
      vertex 0.271703 1.42432 1
      vertex 0.448075 1.37903 1
      vertex 4 3 1
    endloop
  endfacet
  facet normal 0 0 1
    outer loop
      vertex 0.448075 1.37903 1
      vertex 0.61738 1.312 1
      vertex 4 3 1
    endloop
  endfacet
  facet normal 0 0 1
    outer loop
      vertex 0.61738 1.312 1
      vertex 0.776949 1.22428 1
      vertex 4 3 1
    endloop
  endfacet
  facet normal 0 0 1
    outer loop
      vertex 0.924265 1.11724 1
      vertex 1.057 0.992593 1
      vertex 4 3 1
    endloop
  endfacet
  facet normal 0 0 1
    outer loop
      vertex 4 3 1
      vertex 1.17307 0.852289 1
      vertex 4 -3 1
    endloop
  endfacet
  facet normal 0 0 1
    outer loop
      vertex 1.17307 0.852289 1
      vertex 1.27065 0.698543 1
      vertex 4 -3 1
    endloop
  endfacet
  facet normal 0 0 1
    outer loop
      vertex 1.27065 0.698543 1
      vertex 1.34818 0.533781 1
      vertex 4 -3 1
    endloop
  endfacet
  facet normal 0 0 1
    outer loop
      vertex 1.34818 0.533781 1
      vertex 1.40445 0.3606 1
      vertex 4 -3 1
    endloop
  endfacet
  facet normal 0 0 1
    outer loop
      vertex 1.40445 0.3606 1
      vertex 1.43857 0.181733 1
      vertex 4 -3 1
    endloop
  endfacet
  facet normal 0 0 1
    outer loop
      vertex 1.43857 0.181733 1
      vertex 1.45 0 1
      vertex 4 -3 1
    endloop
  endfacet
  facet normal 0 0 1
    outer loop
      vertex 1.45 0 1
      vertex 1.43857 -0.181733 1
      vertex 4 -3 1
    endloop
  endfacet
  facet normal 0 0 1
    outer loop
      vertex -0.776949 -1.22428 1
      vertex -0.924265 -1.11724 1
      vertex -4 -3 1
    endloop
  endfacet
  facet normal 0 0 1
    outer loop
      vertex 1.43857 -0.181733 1
      vertex 1.40445 -0.3606 1
      vertex 4 -3 1
    endloop
  endfacet
  facet normal 0 0 1
    outer loop
      vertex 1.40445 -0.3606 1
      vertex 1.34818 -0.533781 1
      vertex 4 -3 1
    endloop
  endfacet
  facet normal 0 0 1
    outer loop
      vertex 1.34818 -0.533781 1
      vertex 1.27065 -0.698543 1
      vertex 4 -3 1
    endloop
  endfacet
  facet normal 0 0 1
    outer loop
      vertex 1.27065 -0.698543 1
      vertex 1.17307 -0.852289 1
      vertex 4 -3 1
    endloop
  endfacet
  facet normal 0 0 1
    outer loop
      vertex 1.17307 -0.852289 1
      vertex 1.057 -0.992593 1
      vertex 4 -3 1
    endloop
  endfacet
  facet normal 0 0 1
    outer loop
      vertex 1.057 -0.992593 1
      vertex 0.924265 -1.11724 1
      vertex 4 -3 1
    endloop
  endfacet
  facet normal 0 0 1
    outer loop
      vertex -0.091046 -1.44714 1
      vertex -0.271703 -1.42432 1
      vertex -4 -3 1
    endloop
  endfacet
  facet normal 0 0 1
    outer loop
      vertex 0.924265 -1.11724 1
      vertex 0.776949 -1.22428 1
      vertex 4 -3 1
    endloop
  endfacet
  facet normal 0 0 1
    outer loop
      vertex 0.776949 -1.22428 1
      vertex 0.61738 -1.312 1
      vertex 4 -3 1
    endloop
  endfacet
  facet normal 0 0 1
    outer loop
      vertex 0.61738 -1.312 1
      vertex 0.448075 -1.37903 1
      vertex 4 -3 1
    endloop
  endfacet
  facet normal 0 0 1
    outer loop
      vertex 0.271703 -1.42432 1
      vertex 0.091046 -1.44714 1
      vertex -4 -3 1
    endloop
  endfacet
  facet normal 0 0 1
    outer loop
      vertex -0.448075 -1.37903 1
      vertex -0.61738 -1.312 1
      vertex -4 -3 1
    endloop
  endfacet
  facet normal 0 0 1
    outer loop
      vertex -0.271703 -1.42432 1
      vertex -0.448075 -1.37903 1
      vertex -4 -3 1
    endloop
  endfacet
  facet normal 0 0 1
    outer loop
      vertex -0.61738 -1.312 1
      vertex -0.776949 -1.22428 1
      vertex -4 -3 1
    endloop
  endfacet
  facet normal 0 0 1
    outer loop
      vertex -0.924265 -1.11724 1
      vertex -1.057 -0.992593 1
      vertex -4 -3 1
    endloop
  endfacet
  facet normal 0 0 1
    outer loop
      vertex -1.057 -0.992593 1
      vertex -1.17307 -0.852289 1
      vertex -4 -3 1
    endloop
  endfacet
  facet normal 0 0 1
    outer loop
      vertex -1.17307 -0.852289 1
      vertex -1.27065 -0.698543 1
      vertex -4 -3 1
    endloop
  endfacet
  facet normal 0 0 1
    outer loop
      vertex 0.091046 -1.44714 1
      vertex -0.091046 -1.44714 1
      vertex -4 -3 1
    endloop
  endfacet
  facet normal 0 0 1
    outer loop
      vertex -1.34818 -0.533781 1
      vertex -4 -3 1
      vertex -1.27065 -0.698543 1
    endloop
  endfacet
  facet normal 0 0 1
    outer loop
      vertex -1.40445 -0.3606 1
      vertex -4 -3 1
      vertex -1.34818 -0.533781 1
    endloop
  endfacet
  facet normal 0 0 1
    outer loop
      vertex -1.43857 -0.181733 1
      vertex -4 -3 1
      vertex -1.40445 -0.3606 1
    endloop
  endfacet
  facet normal 0 0 1
    outer loop
      vertex 0.776949 1.22428 1
      vertex 0.924265 1.11724 1
      vertex 4 3 1
    endloop
  endfacet
  facet normal 0 0 1
    outer loop
      vertex -1.43857 -0.181733 1
      vertex -1.45 0 1
      vertex -4 -3 1
    endloop
  endfacet
  facet normal 0 0 1
    outer loop
      vertex 4 -3 1
      vertex 4 -6 1
      vertex 6 -6 1
    endloop
  endfacet
  facet normal 0 0 1
    outer loop
      vertex 6 -3 1
      vertex 4 -3 1
      vertex 6 -6 1
    endloop
  endfacet
  facet normal 1 0 0
    outer loop
      vertex 6 -6 1
      vertex 6 -6 -1
      vertex 6 6 -1
    endloop
  endfacet
  facet normal 1 0 0
    outer loop
      vertex 6 -3 1
      vertex 6 -6 1
      vertex 6 6 -1
    endloop
  endfacet
  facet normal 1 0 0
    outer loop
      vertex 6 3 1
      vertex 6 -3 1
      vertex 6 6 -1
    endloop
  endfacet
  facet normal 1 0 0
    outer loop
      vertex 6 6 1
      vertex 6 3 1
      vertex 6 6 -1
    endloop
  endfacet
  facet normal 1 0 0
    outer loop
      vertex 6 3 4
      vertex 6 -3 1
      vertex 6 3 1
    endloop
  endfacet
  facet normal 1 0 0
    outer loop
      vertex 6 -3 4
      vertex 6 -3 1
      vertex 6 3 4
    endloop
  endfacet
  facet normal 0.998027 -0.0627923 0
    outer loop
      vertex -1.43857 0.181733 -1
      vertex -1.43857 0.181733 1
      vertex -1.45 0 1
    endloop
  endfacet
  facet normal 0.998027 -0.0627923 0
    outer loop
      vertex -1.45 0 -1
      vertex -1.43857 0.181733 -1
      vertex -1.45 0 1
    endloop
  endfacet
  facet normal 0.998027 0.0627923 0
    outer loop
      vertex -1.45 0 1
      vertex -1.43857 -0.181733 1
      vertex -1.43857 -0.181733 -1
    endloop
  endfacet
  facet normal 0.998027 0.0627923 0
    outer loop
      vertex -1.45 0 -1
      vertex -1.45 0 1
      vertex -1.43857 -0.181733 -1
    endloop
  endfacet
  facet normal 0.982288 -0.187378 0
    outer loop
      vertex -1.40445 0.3606 -1
      vertex -1.40445 0.3606 1
      vertex -1.43857 0.181733 1
    endloop
  endfacet
  facet normal 0.982288 -0.187378 0
    outer loop
      vertex -1.43857 0.181733 -1
      vertex -1.40445 0.3606 -1
      vertex -1.43857 0.181733 1
    endloop
  endfacet
  facet normal 0.951056 -0.309017 0
    outer loop
      vertex -1.34818 0.533781 -1
      vertex -1.34818 0.533781 1
      vertex -1.40445 0.3606 1
    endloop
  endfacet
  facet normal 0.951056 -0.309017 0
    outer loop
      vertex -1.40445 0.3606 -1
      vertex -1.34818 0.533781 -1
      vertex -1.40445 0.3606 1
    endloop
  endfacet
  facet normal 0.904827 -0.425779 0
    outer loop
      vertex -1.27065 0.698543 -1
      vertex -1.27065 0.698543 1
      vertex -1.34818 0.533781 1
    endloop
  endfacet
  facet normal 0.904827 -0.425779 0
    outer loop
      vertex -1.34818 0.533781 -1
      vertex -1.27065 0.698543 -1
      vertex -1.34818 0.533781 1
    endloop
  endfacet
  facet normal 0.844328 -0.535826 0
    outer loop
      vertex -1.17307 0.852289 -1
      vertex -1.17307 0.852289 1
      vertex -1.27065 0.698543 1
    endloop
  endfacet
  facet normal 0.844328 -0.535826 0
    outer loop
      vertex -1.27065 0.698543 -1
      vertex -1.17307 0.852289 -1
      vertex -1.27065 0.698543 1
    endloop
  endfacet
  facet normal 0.770512 -0.637425 0
    outer loop
      vertex -1.057 0.992593 -1
      vertex -1.057 0.992593 1
      vertex -1.17307 0.852289 1
    endloop
  endfacet
  facet normal 0.770512 -0.637425 0
    outer loop
      vertex -1.17307 0.852289 -1
      vertex -1.057 0.992593 -1
      vertex -1.17307 0.852289 1
    endloop
  endfacet
  facet normal 0.684547 -0.728969 0
    outer loop
      vertex -0.924265 1.11724 -1
      vertex -0.924265 1.11724 1
      vertex -1.057 0.992593 1
    endloop
  endfacet
  facet normal 0.684547 -0.728969 0
    outer loop
      vertex -1.057 0.992593 -1
      vertex -0.924265 1.11724 -1
      vertex -1.057 0.992593 1
    endloop
  endfacet
  facet normal 0.587784 -0.809018 0
    outer loop
      vertex -0.776949 1.22428 -1
      vertex -0.776949 1.22428 1
      vertex -0.924265 1.11724 1
    endloop
  endfacet
  facet normal 0.587784 -0.809018 0
    outer loop
      vertex -0.924265 1.11724 -1
      vertex -0.776949 1.22428 -1
      vertex -0.924265 1.11724 1
    endloop
  endfacet
  facet normal 0.481755 -0.876306 0
    outer loop
      vertex -0.61738 1.312 -1
      vertex -0.61738 1.312 1
      vertex -0.776949 1.22428 1
    endloop
  endfacet
  facet normal 0.481755 -0.876306 0
    outer loop
      vertex -0.776949 1.22428 -1
      vertex -0.61738 1.312 -1
      vertex -0.776949 1.22428 1
    endloop
  endfacet
  facet normal 0.368126 -0.929776 0
    outer loop
      vertex -0.448075 1.37903 -1
      vertex -0.448075 1.37903 1
      vertex -0.61738 1.312 1
    endloop
  endfacet
  facet normal 0.368126 -0.929776 0
    outer loop
      vertex -0.61738 1.312 -1
      vertex -0.448075 1.37903 -1
      vertex -0.61738 1.312 1
    endloop
  endfacet
  facet normal 0.248692 -0.968583 0
    outer loop
      vertex -0.271703 1.42432 -1
      vertex -0.271703 1.42432 1
      vertex -0.448075 1.37903 1
    endloop
  endfacet
  facet normal 0.248692 -0.968583 0
    outer loop
      vertex -0.448075 1.37903 -1
      vertex -0.271703 1.42432 -1
      vertex -0.448075 1.37903 1
    endloop
  endfacet
  facet normal 0.125332 -0.992115 0
    outer loop
      vertex -0.091046 1.44714 -1
      vertex -0.091046 1.44714 1
      vertex -0.271703 1.42432 1
    endloop
  endfacet
  facet normal 0.125332 -0.992115 0
    outer loop
      vertex -0.271703 1.42432 -1
      vertex -0.091046 1.44714 -1
      vertex -0.271703 1.42432 1
    endloop
  endfacet
  facet normal 0 -1 0
    outer loop
      vertex 0.091046 1.44714 -1
      vertex 0.091046 1.44714 1
      vertex -0.091046 1.44714 1
    endloop
  endfacet
  facet normal 0 -1 0
    outer loop
      vertex -0.091046 1.44714 -1
      vertex 0.091046 1.44714 -1
      vertex -0.091046 1.44714 1
    endloop
  endfacet
  facet normal -0.125332 -0.992115 0
    outer loop
      vertex 0.271703 1.42432 -1
      vertex 0.271703 1.42432 1
      vertex 0.091046 1.44714 1
    endloop
  endfacet
  facet normal -0.125332 -0.992115 0
    outer loop
      vertex 0.091046 1.44714 -1
      vertex 0.271703 1.42432 -1
      vertex 0.091046 1.44714 1
    endloop
  endfacet
  facet normal -0.248692 -0.968583 0
    outer loop
      vertex 0.448075 1.37903 -1
      vertex 0.448075 1.37903 1
      vertex 0.271703 1.42432 1
    endloop
  endfacet
  facet normal -0.248692 -0.968583 0
    outer loop
      vertex 0.271703 1.42432 -1
      vertex 0.448075 1.37903 -1
      vertex 0.271703 1.42432 1
    endloop
  endfacet
  facet normal -0.368126 -0.929776 0
    outer loop
      vertex 0.61738 1.312 -1
      vertex 0.61738 1.312 1
      vertex 0.448075 1.37903 1
    endloop
  endfacet
  facet normal -0.368126 -0.929776 0
    outer loop
      vertex 0.448075 1.37903 -1
      vertex 0.61738 1.312 -1
      vertex 0.448075 1.37903 1
    endloop
  endfacet
  facet normal -0.481755 -0.876306 0
    outer loop
      vertex 0.776949 1.22428 -1
      vertex 0.776949 1.22428 1
      vertex 0.61738 1.312 1
    endloop
  endfacet
  facet normal -0.481755 -0.876306 0
    outer loop
      vertex 0.61738 1.312 -1
      vertex 0.776949 1.22428 -1
      vertex 0.61738 1.312 1
    endloop
  endfacet
  facet normal -0.587784 -0.809018 0
    outer loop
      vertex 0.924265 1.11724 -1
      vertex 0.924265 1.11724 1
      vertex 0.776949 1.22428 1
    endloop
  endfacet
  facet normal -0.587784 -0.809018 0
    outer loop
      vertex 0.776949 1.22428 -1
      vertex 0.924265 1.11724 -1
      vertex 0.776949 1.22428 1
    endloop
  endfacet
  facet normal -0.684547 -0.728969 0
    outer loop
      vertex 1.057 0.992593 -1
      vertex 1.057 0.992593 1
      vertex 0.924265 1.11724 1
    endloop
  endfacet
  facet normal -0.684547 -0.728969 0
    outer loop
      vertex 0.924265 1.11724 -1
      vertex 1.057 0.992593 -1
      vertex 0.924265 1.11724 1
    endloop
  endfacet
  facet normal -0.770512 -0.637425 0
    outer loop
      vertex 1.17307 0.852289 1
      vertex 1.057 0.992593 1
      vertex 1.17307 0.852289 -1
    endloop
  endfacet
  facet normal -0.770512 -0.637425 0
    outer loop
      vertex 1.17307 0.852289 -1
      vertex 1.057 0.992593 1
      vertex 1.057 0.992593 -1
    endloop
  endfacet
  facet normal -0.844328 -0.535826 0
    outer loop
      vertex 1.27065 0.698543 1
      vertex 1.17307 0.852289 1
      vertex 1.27065 0.698543 -1
    endloop
  endfacet
  facet normal -0.844328 -0.535826 0
    outer loop
      vertex 1.27065 0.698543 -1
      vertex 1.17307 0.852289 1
      vertex 1.17307 0.852289 -1
    endloop
  endfacet
  facet normal -0.904827 -0.425779 0
    outer loop
      vertex 1.34818 0.533781 1
      vertex 1.27065 0.698543 1
      vertex 1.34818 0.533781 -1
    endloop
  endfacet
  facet normal -0.904827 -0.425779 0
    outer loop
      vertex 1.34818 0.533781 -1
      vertex 1.27065 0.698543 1
      vertex 1.27065 0.698543 -1
    endloop
  endfacet
  facet normal -0.951056 -0.309017 0
    outer loop
      vertex 1.40445 0.3606 1
      vertex 1.34818 0.533781 1
      vertex 1.40445 0.3606 -1
    endloop
  endfacet
  facet normal -0.951056 -0.309017 0
    outer loop
      vertex 1.40445 0.3606 -1
      vertex 1.34818 0.533781 1
      vertex 1.34818 0.533781 -1
    endloop
  endfacet
  facet normal -0.982288 -0.187378 0
    outer loop
      vertex 1.43857 0.181733 1
      vertex 1.40445 0.3606 1
      vertex 1.43857 0.181733 -1
    endloop
  endfacet
  facet normal -0.982288 -0.187378 0
    outer loop
      vertex 1.43857 0.181733 -1
      vertex 1.40445 0.3606 1
      vertex 1.40445 0.3606 -1
    endloop
  endfacet
  facet normal -0.998027 -0.0627923 0
    outer loop
      vertex 1.45 0 1
      vertex 1.43857 0.181733 1
      vertex 1.45 0 -1
    endloop
  endfacet
  facet normal -0.998027 -0.0627923 0
    outer loop
      vertex 1.45 0 -1
      vertex 1.43857 0.181733 1
      vertex 1.43857 0.181733 -1
    endloop
  endfacet
  facet normal -0.998027 0.0627923 0
    outer loop
      vertex 1.45 0 1
      vertex 1.45 0 -1
      vertex 1.43857 -0.181733 1
    endloop
  endfacet
  facet normal -0.998027 0.0627923 0
    outer loop
      vertex 1.43857 -0.181733 1
      vertex 1.45 0 -1
      vertex 1.43857 -0.181733 -1
    endloop
  endfacet
  facet normal -0.982288 0.187378 0
    outer loop
      vertex 1.43857 -0.181733 1
      vertex 1.43857 -0.181733 -1
      vertex 1.40445 -0.3606 1
    endloop
  endfacet
  facet normal -0.982288 0.187378 0
    outer loop
      vertex 1.40445 -0.3606 1
      vertex 1.43857 -0.181733 -1
      vertex 1.40445 -0.3606 -1
    endloop
  endfacet
  facet normal -0.951056 0.309017 0
    outer loop
      vertex 1.40445 -0.3606 1
      vertex 1.40445 -0.3606 -1
      vertex 1.34818 -0.533781 1
    endloop
  endfacet
  facet normal -0.951056 0.309017 0
    outer loop
      vertex 1.34818 -0.533781 1
      vertex 1.40445 -0.3606 -1
      vertex 1.34818 -0.533781 -1
    endloop
  endfacet
  facet normal -0.904827 0.425779 0
    outer loop
      vertex 1.34818 -0.533781 1
      vertex 1.34818 -0.533781 -1
      vertex 1.27065 -0.698543 1
    endloop
  endfacet
  facet normal -0.904827 0.425779 0
    outer loop
      vertex 1.27065 -0.698543 1
      vertex 1.34818 -0.533781 -1
      vertex 1.27065 -0.698543 -1
    endloop
  endfacet
  facet normal -0.844328 0.535826 0
    outer loop
      vertex 1.27065 -0.698543 1
      vertex 1.27065 -0.698543 -1
      vertex 1.17307 -0.852289 1
    endloop
  endfacet
  facet normal -0.844328 0.535826 0
    outer loop
      vertex 1.17307 -0.852289 1
      vertex 1.27065 -0.698543 -1
      vertex 1.17307 -0.852289 -1
    endloop
  endfacet
  facet normal -0.770512 0.637425 0
    outer loop
      vertex 1.17307 -0.852289 1
      vertex 1.17307 -0.852289 -1
      vertex 1.057 -0.992593 1
    endloop
  endfacet
  facet normal -0.770512 0.637425 0
    outer loop
      vertex 1.057 -0.992593 1
      vertex 1.17307 -0.852289 -1
      vertex 1.057 -0.992593 -1
    endloop
  endfacet
  facet normal -0.684547 0.728969 0
    outer loop
      vertex 1.057 -0.992593 1
      vertex 1.057 -0.992593 -1
      vertex 0.924265 -1.11724 1
    endloop
  endfacet
  facet normal -0.684547 0.728969 0
    outer loop
      vertex 0.924265 -1.11724 1
      vertex 1.057 -0.992593 -1
      vertex 0.924265 -1.11724 -1
    endloop
  endfacet
  facet normal -0.587784 0.809018 0
    outer loop
      vertex 0.924265 -1.11724 1
      vertex 0.924265 -1.11724 -1
      vertex 0.776949 -1.22428 1
    endloop
  endfacet
  facet normal -0.587784 0.809018 0
    outer loop
      vertex 0.776949 -1.22428 1
      vertex 0.924265 -1.11724 -1
      vertex 0.776949 -1.22428 -1
    endloop
  endfacet
  facet normal -0.481755 0.876306 0
    outer loop
      vertex 0.776949 -1.22428 1
      vertex 0.776949 -1.22428 -1
      vertex 0.61738 -1.312 1
    endloop
  endfacet
  facet normal -0.481755 0.876306 0
    outer loop
      vertex 0.61738 -1.312 1
      vertex 0.776949 -1.22428 -1
      vertex 0.61738 -1.312 -1
    endloop
  endfacet
  facet normal -0.368126 0.929776 0
    outer loop
      vertex 0.61738 -1.312 1
      vertex 0.61738 -1.312 -1
      vertex 0.448075 -1.37903 1
    endloop
  endfacet
  facet normal -0.368126 0.929776 0
    outer loop
      vertex 0.448075 -1.37903 1
      vertex 0.61738 -1.312 -1
      vertex 0.448075 -1.37903 -1
    endloop
  endfacet
  facet normal -0.248692 0.968583 0
    outer loop
      vertex 0.448075 -1.37903 1
      vertex 0.448075 -1.37903 -1
      vertex 0.271703 -1.42432 1
    endloop
  endfacet
  facet normal -0.248692 0.968583 0
    outer loop
      vertex 0.271703 -1.42432 1
      vertex 0.448075 -1.37903 -1
      vertex 0.271703 -1.42432 -1
    endloop
  endfacet
  facet normal -0.125332 0.992115 0
    outer loop
      vertex 0.271703 -1.42432 1
      vertex 0.271703 -1.42432 -1
      vertex 0.091046 -1.44714 1
    endloop
  endfacet
  facet normal -0.125332 0.992115 0
    outer loop
      vertex 0.091046 -1.44714 1
      vertex 0.271703 -1.42432 -1
      vertex 0.091046 -1.44714 -1
    endloop
  endfacet
  facet normal 0 1 0
    outer loop
      vertex 0.091046 -1.44714 1
      vertex 0.091046 -1.44714 -1
      vertex -0.091046 -1.44714 1
    endloop
  endfacet
  facet normal 0 1 0
    outer loop
      vertex -0.091046 -1.44714 1
      vertex 0.091046 -1.44714 -1
      vertex -0.091046 -1.44714 -1
    endloop
  endfacet
  facet normal 0.125332 0.992115 0
    outer loop
      vertex -0.091046 -1.44714 1
      vertex -0.091046 -1.44714 -1
      vertex -0.271703 -1.42432 1
    endloop
  endfacet
  facet normal 0.125332 0.992115 0
    outer loop
      vertex -0.271703 -1.42432 1
      vertex -0.091046 -1.44714 -1
      vertex -0.271703 -1.42432 -1
    endloop
  endfacet
  facet normal 0.248692 0.968583 0
    outer loop
      vertex -0.271703 -1.42432 1
      vertex -0.271703 -1.42432 -1
      vertex -0.448075 -1.37903 1
    endloop
  endfacet
  facet normal 0.248692 0.968583 0
    outer loop
      vertex -0.448075 -1.37903 1
      vertex -0.271703 -1.42432 -1
      vertex -0.448075 -1.37903 -1
    endloop
  endfacet
  facet normal 0.368126 0.929776 0
    outer loop
      vertex -0.448075 -1.37903 1
      vertex -0.448075 -1.37903 -1
      vertex -0.61738 -1.312 1
    endloop
  endfacet
  facet normal 0.368126 0.929776 0
    outer loop
      vertex -0.61738 -1.312 1
      vertex -0.448075 -1.37903 -1
      vertex -0.61738 -1.312 -1
    endloop
  endfacet
  facet normal 0.481755 0.876306 0
    outer loop
      vertex -0.61738 -1.312 1
      vertex -0.61738 -1.312 -1
      vertex -0.776949 -1.22428 1
    endloop
  endfacet
  facet normal 0.481755 0.876306 0
    outer loop
      vertex -0.776949 -1.22428 1
      vertex -0.61738 -1.312 -1
      vertex -0.776949 -1.22428 -1
    endloop
  endfacet
  facet normal 0.587784 0.809018 0
    outer loop
      vertex -0.776949 -1.22428 1
      vertex -0.776949 -1.22428 -1
      vertex -0.924265 -1.11724 1
    endloop
  endfacet
  facet normal 0.587784 0.809018 0
    outer loop
      vertex -0.924265 -1.11724 1
      vertex -0.776949 -1.22428 -1
      vertex -0.924265 -1.11724 -1
    endloop
  endfacet
  facet normal 0.684547 0.728969 0
    outer loop
      vertex -0.924265 -1.11724 1
      vertex -0.924265 -1.11724 -1
      vertex -1.057 -0.992593 1
    endloop
  endfacet
  facet normal 0.684547 0.728969 0
    outer loop
      vertex -1.057 -0.992593 1
      vertex -0.924265 -1.11724 -1
      vertex -1.057 -0.992593 -1
    endloop
  endfacet
  facet normal 0.770512 0.637425 0
    outer loop
      vertex -1.17307 -0.852289 1
      vertex -1.057 -0.992593 1
      vertex -1.057 -0.992593 -1
    endloop
  endfacet
  facet normal 0.770512 0.637425 0
    outer loop
      vertex -1.17307 -0.852289 -1
      vertex -1.17307 -0.852289 1
      vertex -1.057 -0.992593 -1
    endloop
  endfacet
  facet normal 0.844328 0.535826 0
    outer loop
      vertex -1.27065 -0.698543 1
      vertex -1.17307 -0.852289 1
      vertex -1.17307 -0.852289 -1
    endloop
  endfacet
  facet normal 0.844328 0.535826 0
    outer loop
      vertex -1.27065 -0.698543 -1
      vertex -1.27065 -0.698543 1
      vertex -1.17307 -0.852289 -1
    endloop
  endfacet
  facet normal 0.904827 0.425779 0
    outer loop
      vertex -1.34818 -0.533781 1
      vertex -1.27065 -0.698543 1
      vertex -1.27065 -0.698543 -1
    endloop
  endfacet
  facet normal 0.904827 0.425779 0
    outer loop
      vertex -1.34818 -0.533781 -1
      vertex -1.34818 -0.533781 1
      vertex -1.27065 -0.698543 -1
    endloop
  endfacet
  facet normal 0.951056 0.309017 0
    outer loop
      vertex -1.40445 -0.3606 1
      vertex -1.34818 -0.533781 1
      vertex -1.34818 -0.533781 -1
    endloop
  endfacet
  facet normal 0.951056 0.309017 0
    outer loop
      vertex -1.40445 -0.3606 -1
      vertex -1.40445 -0.3606 1
      vertex -1.34818 -0.533781 -1
    endloop
  endfacet
  facet normal 0.982288 0.187378 0
    outer loop
      vertex -1.43857 -0.181733 1
      vertex -1.40445 -0.3606 1
      vertex -1.40445 -0.3606 -1
    endloop
  endfacet
  facet normal 0.982288 0.187378 0
    outer loop
      vertex -1.43857 -0.181733 -1
      vertex -1.43857 -0.181733 1
      vertex -1.40445 -0.3606 -1
    endloop
  endfacet
  facet normal 0 0 1
    outer loop
      vertex 4 6 1
      vertex 4 3 1
      vertex 6 3 1
    endloop
  endfacet
  facet normal 0 0 1
    outer loop
      vertex 6 6 1
      vertex 4 6 1
      vertex 6 3 1
    endloop
  endfacet
  facet normal 1 0 0
    outer loop
      vertex -4 3 1
      vertex -4 3 4
      vertex -4 -3 4
    endloop
  endfacet
  facet normal 1 0 0
    outer loop
      vertex -4 -3 1
      vertex -4 3 1
      vertex -4 -3 4
    endloop
  endfacet
  facet normal 0 1 0
    outer loop
      vertex 4 3 1
      vertex 4 3 4
      vertex 6 3 1
    endloop
  endfacet
  facet normal 0 1 0
    outer loop
      vertex 6 3 1
      vertex 4 3 4
      vertex 6 3 4
    endloop
  endfacet
  facet normal -1 0 0
    outer loop
      vertex 4 3 4
      vertex 4 3 1
      vertex 4 -3 4
    endloop
  endfacet
  facet normal -1 0 0
    outer loop
      vertex 4 -3 4
      vertex 4 3 1
      vertex 4 -3 1
    endloop
  endfacet
  facet normal 0 -1 0
    outer loop
      vertex 4 -3 4
      vertex 4 -3 1
      vertex 6 -3 1
    endloop
  endfacet
  facet normal 0 -1 0
    outer loop
      vertex 6 -3 4
      vertex 4 -3 4
      vertex 6 -3 1
    endloop
  endfacet
  facet normal 0 0 1
    outer loop
      vertex 4 3 4
      vertex 4 -3 4
      vertex 6 -3 4
    endloop
  endfacet
  facet normal 0 0 1
    outer loop
      vertex 6 3 4
      vertex 4 3 4
      vertex 6 -3 4
    endloop
  endfacet
endsolid OpenSCAD_Model
