solid OpenSCAD_Model
  facet normal -1 0 0
    outer loop
      vertex -6 -4 -1
      vertex -6 -4 1
      vertex -6 4 -1
    endloop
  endfacet
  facet normal -1 0 0
    outer loop
      vertex -6 4 -1
      vertex -6 -4 1
      vertex -6 4 1
    endloop
  endfacet
  facet normal 0 -1 0
    outer loop
      vertex -6 -4 1
      vertex -6 -4 -1
      vertex 6 -4 -1
    endloop
  endfacet
  facet normal 0 -1 0
    outer loop
      vertex 6 -4 1
      vertex -6 -4 1
      vertex 6 -4 -1
    endloop
  endfacet
  facet normal 0 0 -1
    outer loop
      vertex 0.638669 1.35724 -1
      vertex -6 4 -1
      vertex 6 4 -1
    endloop
  endfacet
  facet normal 0 0 -1
    outer loop
      vertex -6 -4 -1
      vertex -6 4 -1
      vertex -1.5 0 -1
    endloop
  endfacet
  facet normal 0 0 -1
    outer loop
      vertex -6 -4 -1
      vertex -1.5 0 -1
      vertex -1.48817 -0.188 -1
    endloop
  endfacet
  facet normal 0 0 -1
    outer loop
      vertex -6 -4 -1
      vertex -1.48817 -0.188 -1
      vertex -1.45287 -0.373035 -1
    endloop
  endfacet
  facet normal 0 0 -1
    outer loop
      vertex -6 -4 -1
      vertex -1.45287 -0.373035 -1
      vertex -1.39467 -0.552187 -1
    endloop
  endfacet
  facet normal 0 0 -1
    outer loop
      vertex -6 -4 -1
      vertex -1.39467 -0.552187 -1
      vertex -1.31446 -0.722631 -1
    endloop
  endfacet
  facet normal 0 0 -1
    outer loop
      vertex -6 -4 -1
      vertex -1.31446 -0.722631 -1
      vertex -1.21352 -0.881678 -1
    endloop
  endfacet
  facet normal 0 0 -1
    outer loop
      vertex -6 -4 -1
      vertex -1.21352 -0.881678 -1
      vertex -1.09345 -1.02682 -1
    endloop
  endfacet
  facet normal 0 0 -1
    outer loop
      vertex -6 -4 -1
      vertex -1.09345 -1.02682 -1
      vertex -0.956136 -1.15577 -1
    endloop
  endfacet
  facet normal 0 0 -1
    outer loop
      vertex -6 -4 -1
      vertex -0.956136 -1.15577 -1
      vertex -0.80374 -1.26649 -1
    endloop
  endfacet
  facet normal 0 0 -1
    outer loop
      vertex -6 -4 -1
      vertex -0.80374 -1.26649 -1
      vertex -0.638669 -1.35724 -1
    endloop
  endfacet
  facet normal 0 0 -1
    outer loop
      vertex -6 -4 -1
      vertex -0.638669 -1.35724 -1
      vertex 6 -4 -1
    endloop
  endfacet
  facet normal 0 0 -1
    outer loop
      vertex -0.638669 -1.35724 -1
      vertex -0.463525 -1.42658 -1
      vertex 6 -4 -1
    endloop
  endfacet
  facet normal 0 0 -1
    outer loop
      vertex -0.094186 -1.49704 -1
      vertex 6 -4 -1
      vertex -0.281072 -1.47343 -1
    endloop
  endfacet
  facet normal 0 0 -1
    outer loop
      vertex 0.094186 -1.49704 -1
      vertex 6 -4 -1
      vertex -0.094186 -1.49704 -1
    endloop
  endfacet
  facet normal 0 0 -1
    outer loop
      vertex 0.281072 -1.47343 -1
      vertex 6 -4 -1
      vertex 0.094186 -1.49704 -1
    endloop
  endfacet
  facet normal 0 0 -1
    outer loop
      vertex 0.463525 -1.42658 -1
      vertex 6 -4 -1
      vertex 0.281072 -1.47343 -1
    endloop
  endfacet
  facet normal 0 0 -1
    outer loop
      vertex 0.638669 -1.35724 -1
      vertex 6 -4 -1
      vertex 0.463525 -1.42658 -1
    endloop
  endfacet
  facet normal 0 0 -1
    outer loop
      vertex 0.80374 -1.26649 -1
      vertex 6 -4 -1
      vertex 0.638669 -1.35724 -1
    endloop
  endfacet
  facet normal 0 0 -1
    outer loop
      vertex 0.956136 -1.15577 -1
      vertex 6 -4 -1
      vertex 0.80374 -1.26649 -1
    endloop
  endfacet
  facet normal 0 0 -1
    outer loop
      vertex 1.31446 -0.722631 -1
      vertex 6 -4 -1
      vertex 1.21352 -0.881678 -1
    endloop
  endfacet
  facet normal 0 0 -1
    outer loop
      vertex 0.956136 -1.15577 -1
      vertex 1.09345 -1.02682 -1
      vertex 6 -4 -1
    endloop
  endfacet
  facet normal 0 0 -1
    outer loop
      vertex -1.39467 0.552187 -1
      vertex -6 4 -1
      vertex -1.31446 0.722631 -1
    endloop
  endfacet
  facet normal 0 0 -1
    outer loop
      vertex 1.09345 -1.02682 -1
      vertex 1.21352 -0.881678 -1
      vertex 6 -4 -1
    endloop
  endfacet
  facet normal 0 0 -1
    outer loop
      vertex -1.31446 0.722631 -1
      vertex -6 4 -1
      vertex -1.21352 0.881678 -1
    endloop
  endfacet
  facet normal 0 0 -1
    outer loop
      vertex 6 -4 -1
      vertex 1.31446 -0.722631 -1
      vertex 6 4 -1
    endloop
  endfacet
  facet normal 0 0 -1
    outer loop
      vertex 1.31446 -0.722631 -1
      vertex 1.39467 -0.552187 -1
      vertex 6 4 -1
    endloop
  endfacet
  facet normal 0 0 -1
    outer loop
      vertex -1.21352 0.881678 -1
      vertex -6 4 -1
      vertex -1.09345 1.02682 -1
    endloop
  endfacet
  facet normal 0 0 -1
    outer loop
      vertex 1.39467 -0.552187 -1
      vertex 1.45287 -0.373035 -1
      vertex 6 4 -1
    endloop
  endfacet
  facet normal 0 0 -1
    outer loop
      vertex -1.09345 1.02682 -1
      vertex -6 4 -1
      vertex -0.956136 1.15577 -1
    endloop
  endfacet
  facet normal 0 0 -1
    outer loop
      vertex 1.45287 -0.373035 -1
      vertex 1.48817 -0.188 -1
      vertex 6 4 -1
    endloop
  endfacet
  facet normal 0 0 -1
    outer loop
      vertex 1.48817 -0.188 -1
      vertex 1.5 0 -1
      vertex 6 4 -1
    endloop
  endfacet
  facet normal 0 0 -1
    outer loop
      vertex -0.956136 1.15577 -1
      vertex -6 4 -1
      vertex -0.80374 1.26649 -1
    endloop
  endfacet
  facet normal 0 0 -1
    outer loop
      vertex 1.5 0 -1
      vertex 1.48817 0.188 -1
      vertex 6 4 -1
    endloop
  endfacet
  facet normal 0 0 -1
    outer loop
      vertex -0.80374 1.26649 -1
      vertex -6 4 -1
      vertex -0.638669 1.35724 -1
    endloop
  endfacet
  facet normal 0 0 -1
    outer loop
      vertex 1.48817 0.188 -1
      vertex 1.45287 0.373035 -1
      vertex 6 4 -1
    endloop
  endfacet
  facet normal 0 0 -1
    outer loop
      vertex 1.45287 0.373035 -1
      vertex 1.39467 0.552187 -1
      vertex 6 4 -1
    endloop
  endfacet
  facet normal 0 0 -1
    outer loop
      vertex -0.638669 1.35724 -1
      vertex -6 4 -1
      vertex -0.463525 1.42658 -1
    endloop
  endfacet
  facet normal 0 0 -1
    outer loop
      vertex 1.39467 0.552187 -1
      vertex 1.31446 0.722631 -1
      vertex 6 4 -1
    endloop
  endfacet
  facet normal 0 0 -1
    outer loop
      vertex -0.463525 1.42658 -1
      vertex -6 4 -1
      vertex -0.281072 1.47343 -1
    endloop
  endfacet
  facet normal 0 0 -1
    outer loop
      vertex 1.31446 0.722631 -1
      vertex 1.21352 0.881678 -1
      vertex 6 4 -1
    endloop
  endfacet
  facet normal 0 0 -1
    outer loop
      vertex -0.281072 1.47343 -1
      vertex -6 4 -1
      vertex -0.094186 1.49704 -1
    endloop
  endfacet
  facet normal 0 0 -1
    outer loop
      vertex 1.21352 0.881678 -1
      vertex 1.09345 1.02682 -1
      vertex 6 4 -1
    endloop
  endfacet
  facet normal 0 0 -1
    outer loop
      vertex -0.094186 1.49704 -1
      vertex -6 4 -1
      vertex 0.094186 1.49704 -1
    endloop
  endfacet
  facet normal 0 0 -1
    outer loop
      vertex 1.09345 1.02682 -1
      vertex 0.956136 1.15577 -1
      vertex 6 4 -1
    endloop
  endfacet
  facet normal 0 0 -1
    outer loop
      vertex 0.094186 1.49704 -1
      vertex -6 4 -1
      vertex 0.281072 1.47343 -1
    endloop
  endfacet
  facet normal 0 0 -1
    outer loop
      vertex 0.956136 1.15577 -1
      vertex 0.80374 1.26649 -1
      vertex 6 4 -1
    endloop
  endfacet
  facet normal 0 0 -1
    outer loop
      vertex 0.463525 1.42658 -1
      vertex -6 4 -1
      vertex 0.638669 1.35724 -1
    endloop
  endfacet
  facet normal 0 0 -1
    outer loop
      vertex 0.80374 1.26649 -1
      vertex 0.638669 1.35724 -1
      vertex 6 4 -1
    endloop
  endfacet
  facet normal 0 0 -1
    outer loop
      vertex 0.281072 1.47343 -1
      vertex -6 4 -1
      vertex 0.463525 1.42658 -1
    endloop
  endfacet
  facet normal 0 0 -1
    outer loop
      vertex -1.45287 0.373035 -1
      vertex -6 4 -1
      vertex -1.39467 0.552187 -1
    endloop
  endfacet
  facet normal 0 0 -1
    outer loop
      vertex -1.48817 0.188 -1
      vertex -6 4 -1
      vertex -1.45287 0.373035 -1
    endloop
  endfacet
  facet normal 0 0 -1
    outer loop
      vertex -1.5 0 -1
      vertex -6 4 -1
      vertex -1.48817 0.188 -1
    endloop
  endfacet
  facet normal 0 0 -1
    outer loop
      vertex -0.281072 -1.47343 -1
      vertex 6 -4 -1
      vertex -0.463525 -1.42658 -1
    endloop
  endfacet
  facet normal 0 1 0
    outer loop
      vertex -6 4 -1
      vertex -6 4 1
      vertex 6 4 -1
    endloop
  endfacet
  facet normal 0 1 0
    outer loop
      vertex 6 4 -1
      vertex -6 4 1
      vertex 6 4 1
    endloop
  endfacet
  facet normal 0 0 1
    outer loop
      vertex 0.562144 -2.94686 1
      vertex -6 -4 1
      vertex 6 -4 1
    endloop
  endfacet
  facet normal 0 0 1
    outer loop
      vertex 0.188372 -2.99408 1
      vertex -0.188372 -2.99408 1
      vertex -6 -4 1
    endloop
  endfacet
  facet normal 0 0 1
    outer loop
      vertex -6 4 1
      vertex -6 -4 1
      vertex -2.97634 -0.376 1
    endloop
  endfacet
  facet normal 0 0 1
    outer loop
      vertex 1.91227 -2.31154 1
      vertex 1.60748 -2.53298 1
      vertex 6 -4 1
    endloop
  endfacet
  facet normal 0 0 1
    outer loop
      vertex -6 4 1
      vertex -2.97634 -0.376 1
      vertex -3 0 1
    endloop
  endfacet
  facet normal 0 0 1
    outer loop
      vertex -0.188372 -2.99408 1
      vertex -0.562144 -2.94686 1
      vertex -6 -4 1
    endloop
  endfacet
  facet normal 0 0 1
    outer loop
      vertex -6 4 1
      vertex -3 0 1
      vertex -2.97634 0.376 1
    endloop
  endfacet
  facet normal 0 0 1
    outer loop
      vertex -6 4 1
      vertex -2.97634 0.376 1
      vertex -2.90575 0.74607 1
    endloop
  endfacet
  facet normal 0 0 1
    outer loop
      vertex 2.18691 -2.05364 1
      vertex 1.91227 -2.31154 1
      vertex 6 -4 1
    endloop
  endfacet
  facet normal 0 0 1
    outer loop
      vertex -6 4 1
      vertex -2.90575 0.74607 1
      vertex -2.78933 1.10437 1
    endloop
  endfacet
  facet normal 0 0 1
    outer loop
      vertex -0.188372 2.99408 1
      vertex 0.188372 2.99408 1
      vertex 6 4 1
    endloop
  endfacet
  facet normal 0 0 1
    outer loop
      vertex -6 4 1
      vertex -2.78933 1.10437 1
      vertex -2.62892 1.44526 1
    endloop
  endfacet
  facet normal 0 0 1
    outer loop
      vertex 2.42705 -1.76336 1
      vertex 2.18691 -2.05364 1
      vertex 6 -4 1
    endloop
  endfacet
  facet normal 0 0 1
    outer loop
      vertex -2.18691 2.05364 1
      vertex -6 4 1
      vertex -2.42705 1.76336 1
    endloop
  endfacet
  facet normal 0 0 1
    outer loop
      vertex 2.62892 1.44526 1
      vertex 2.78933 1.10437 1
      vertex 6 -4 1
    endloop
  endfacet
  facet normal 0 0 1
    outer loop
      vertex -1.91227 2.31154 1
      vertex -6 4 1
      vertex -2.18691 2.05364 1
    endloop
  endfacet
  facet normal 0 0 1
    outer loop
      vertex -1.60748 2.53298 1
      vertex -6 4 1
      vertex -1.91227 2.31154 1
    endloop
  endfacet
  facet normal 0 0 1
    outer loop
      vertex -1.27734 2.71448 1
      vertex -6 4 1
      vertex -1.60748 2.53298 1
    endloop
  endfacet
  facet normal 0 0 1
    outer loop
      vertex 0.562144 2.94686 1
      vertex 0.927051 2.85317 1
      vertex 6 4 1
    endloop
  endfacet
  facet normal 0 0 1
    outer loop
      vertex -0.927051 2.85317 1
      vertex -6 4 1
      vertex -1.27734 2.71448 1
    endloop
  endfacet
  facet normal 0 0 1
    outer loop
      vertex -0.562144 2.94686 1
      vertex -6 4 1
      vertex -0.927051 2.85317 1
    endloop
  endfacet
  facet normal 0 0 1
    outer loop
      vertex 6 4 1
      vertex -6 4 1
      vertex -0.562144 2.94686 1
    endloop
  endfacet
  facet normal 0 0 1
    outer loop
      vertex 6 4 1
      vertex -0.562144 2.94686 1
      vertex -0.188372 2.99408 1
    endloop
  endfacet
  facet normal 0 0 1
    outer loop
      vertex 0.927051 2.85317 1
      vertex 1.27734 2.71448 1
      vertex 6 4 1
    endloop
  endfacet
  facet normal 0 0 1
    outer loop
      vertex 2.78933 1.10437 1
      vertex 2.90575 0.74607 1
      vertex 6 -4 1
    endloop
  endfacet
  facet normal 0 0 1
    outer loop
      vertex 2.97634 0.376 1
      vertex 3 0 1
      vertex 6 -4 1
    endloop
  endfacet
  facet normal 0 0 1
    outer loop
      vertex 6 4 1
      vertex 1.27734 2.71448 1
      vertex 1.60748 2.53298 1
    endloop
  endfacet
  facet normal 0 0 1
    outer loop
      vertex 2.90575 0.74607 1
      vertex 2.97634 0.376 1
      vertex 6 -4 1
    endloop
  endfacet
  facet normal 0 0 1
    outer loop
      vertex 6 4 1
      vertex 1.60748 2.53298 1
      vertex 1.91227 2.31154 1
    endloop
  endfacet
  facet normal 0 0 1
    outer loop
      vertex 2.62892 -1.44526 1
      vertex 2.42705 -1.76336 1
      vertex 6 -4 1
    endloop
  endfacet
  facet normal 0 0 1
    outer loop
      vertex 6 4 1
      vertex 1.91227 2.31154 1
      vertex 2.18691 2.05364 1
    endloop
  endfacet
  facet normal 0 0 1
    outer loop
      vertex 6 4 1
      vertex 2.18691 2.05364 1
      vertex 2.42705 1.76336 1
    endloop
  endfacet
  facet normal 0 0 1
    outer loop
      vertex 6 4 1
      vertex 2.62892 1.44526 1
      vertex 6 -4 1
    endloop
  endfacet
  facet normal 0 0 1
    outer loop
      vertex 6 4 1
      vertex 2.42705 1.76336 1
      vertex 2.62892 1.44526 1
    endloop
  endfacet
  facet normal 0 0 1
    outer loop
      vertex 3 0 1
      vertex 2.97634 -0.376 1
      vertex 6 -4 1
    endloop
  endfacet
  facet normal 0 0 1
    outer loop
      vertex 2.97634 -0.376 1
      vertex 2.90575 -0.74607 1
      vertex 6 -4 1
    endloop
  endfacet
  facet normal 0 0 1
    outer loop
      vertex 2.90575 -0.74607 1
      vertex 2.78933 -1.10437 1
      vertex 6 -4 1
    endloop
  endfacet
  facet normal 0 0 1
    outer loop
      vertex 2.78933 -1.10437 1
      vertex 2.62892 -1.44526 1
      vertex 6 -4 1
    endloop
  endfacet
  facet normal 0 0 1
    outer loop
      vertex 1.60748 -2.53298 1
      vertex 1.27734 -2.71448 1
      vertex 6 -4 1
    endloop
  endfacet
  facet normal 0 0 1
    outer loop
      vertex 1.27734 -2.71448 1
      vertex 0.927051 -2.85317 1
      vertex 6 -4 1
    endloop
  endfacet
  facet normal 0 0 1
    outer loop
      vertex 0.927051 -2.85317 1
      vertex 0.562144 -2.94686 1
      vertex 6 -4 1
    endloop
  endfacet
  facet normal 0 0 1
    outer loop
      vertex 0.188372 -2.99408 1
      vertex -6 -4 1
      vertex 0.562144 -2.94686 1
    endloop
  endfacet
  facet normal 0 0 1
    outer loop
      vertex -0.927051 -2.85317 1
      vertex -6 -4 1
      vertex -0.562144 -2.94686 1
    endloop
  endfacet
  facet normal 0 0 1
    outer loop
      vertex -1.27734 -2.71448 1
      vertex -6 -4 1
      vertex -0.927051 -2.85317 1
    endloop
  endfacet
  facet normal 0 0 1
    outer loop
      vertex -1.60748 -2.53298 1
      vertex -6 -4 1
      vertex -1.27734 -2.71448 1
    endloop
  endfacet
  facet normal 0 0 1
    outer loop
      vertex -1.91227 -2.31154 1
      vertex -6 -4 1
      vertex -1.60748 -2.53298 1
    endloop
  endfacet
  facet normal 0 0 1
    outer loop
      vertex -2.18691 -2.05364 1
      vertex -6 -4 1
      vertex -1.91227 -2.31154 1
    endloop
  endfacet
  facet normal 0 0 1
    outer loop
      vertex -2.42705 -1.76336 1
      vertex -6 -4 1
      vertex -2.18691 -2.05364 1
    endloop
  endfacet
  facet normal 0 0 1
    outer loop
      vertex -2.62892 -1.44526 1
      vertex -6 -4 1
      vertex -2.42705 -1.76336 1
    endloop
  endfacet
  facet normal 0 0 1
    outer loop
      vertex -2.78933 -1.10437 1
      vertex -6 -4 1
      vertex -2.62892 -1.44526 1
    endloop
  endfacet
  facet normal 0 0 1
    outer loop
      vertex -2.90575 -0.74607 1
      vertex -6 -4 1
      vertex -2.78933 -1.10437 1
    endloop
  endfacet
  facet normal 0 0 1
    outer loop
      vertex -2.97634 -0.376 1
      vertex -6 -4 1
      vertex -2.90575 -0.74607 1
    endloop
  endfacet
  facet normal 0 0 1
    outer loop
      vertex -2.62892 1.44526 1
      vertex -2.42705 1.76336 1
      vertex -6 4 1
    endloop
  endfacet
  facet normal 0 0 1
    outer loop
      vertex 0.188372 2.99408 1
      vertex 0.562144 2.94686 1
      vertex 6 4 1
    endloop
  endfacet
  facet normal 1 0 0
    outer loop
      vertex 6 -4 1
      vertex 6 -4 -1
      vertex 6 4 -1
    endloop
  endfacet
  facet normal 1 0 0
    outer loop
      vertex 6 4 1
      vertex 6 -4 1
      vertex 6 4 -1
    endloop
  endfacet
  facet normal 0.998027 -0.0627907 0
    outer loop
      vertex -1.48817 0.188 -1
      vertex -1.48817 0.188 6
      vertex -1.5 0 6
    endloop
  endfacet
  facet normal 0.998027 -0.0627907 0
    outer loop
      vertex -1.5 0 -1
      vertex -1.48817 0.188 -1
      vertex -1.5 0 6
    endloop
  endfacet
  facet normal 0.998027 0.0627907 0
    outer loop
      vertex -1.5 0 6
      vertex -1.48817 -0.188 6
      vertex -1.48817 -0.188 -1
    endloop
  endfacet
  facet normal 0.998027 0.0627907 0
    outer loop
      vertex -1.5 0 -1
      vertex -1.5 0 6
      vertex -1.48817 -0.188 -1
    endloop
  endfacet
  facet normal 0.982288 -0.18738 0
    outer loop
      vertex -1.45287 0.373035 -1
      vertex -1.45287 0.373035 6
      vertex -1.48817 0.188 6
    endloop
  endfacet
  facet normal 0.982288 -0.18738 0
    outer loop
      vertex -1.48817 0.188 -1
      vertex -1.45287 0.373035 -1
      vertex -1.48817 0.188 6
    endloop
  endfacet
  facet normal 0.951057 -0.309017 0
    outer loop
      vertex -1.39467 0.552187 -1
      vertex -1.39467 0.552187 6
      vertex -1.45287 0.373035 6
    endloop
  endfacet
  facet normal 0.951057 -0.309017 0
    outer loop
      vertex -1.45287 0.373035 -1
      vertex -1.39467 0.552187 -1
      vertex -1.45287 0.373035 6
    endloop
  endfacet
  facet normal 0.904827 -0.42578 0
    outer loop
      vertex -1.31446 0.722631 -1
      vertex -1.31446 0.722631 6
      vertex -1.39467 0.552187 6
    endloop
  endfacet
  facet normal 0.904827 -0.42578 0
    outer loop
      vertex -1.39467 0.552187 -1
      vertex -1.31446 0.722631 -1
      vertex -1.39467 0.552187 6
    endloop
  endfacet
  facet normal 0.844326 -0.535829 0
    outer loop
      vertex -1.21352 0.881678 -1
      vertex -1.21352 0.881678 6
      vertex -1.31446 0.722631 6
    endloop
  endfacet
  facet normal 0.844326 -0.535829 0
    outer loop
      vertex -1.31446 0.722631 -1
      vertex -1.21352 0.881678 -1
      vertex -1.31446 0.722631 6
    endloop
  endfacet
  facet normal 0.770515 -0.637422 0
    outer loop
      vertex -1.09345 1.02682 -1
      vertex -1.09345 1.02682 6
      vertex -1.21352 0.881678 6
    endloop
  endfacet
  facet normal 0.770515 -0.637422 0
    outer loop
      vertex -1.21352 0.881678 -1
      vertex -1.09345 1.02682 -1
      vertex -1.21352 0.881678 6
    endloop
  endfacet
  facet normal 0.684546 -0.728969 0
    outer loop
      vertex -0.956136 1.15577 -1
      vertex -0.956136 1.15577 6
      vertex -1.09345 1.02682 6
    endloop
  endfacet
  facet normal 0.684546 -0.728969 0
    outer loop
      vertex -1.09345 1.02682 -1
      vertex -0.956136 1.15577 -1
      vertex -1.09345 1.02682 6
    endloop
  endfacet
  facet normal 0.587785 -0.809017 0
    outer loop
      vertex -0.80374 1.26649 -1
      vertex -0.80374 1.26649 6
      vertex -0.956136 1.15577 6
    endloop
  endfacet
  facet normal 0.587785 -0.809017 0
    outer loop
      vertex -0.956136 1.15577 -1
      vertex -0.80374 1.26649 -1
      vertex -0.956136 1.15577 6
    endloop
  endfacet
  facet normal 0.481756 -0.876306 0
    outer loop
      vertex -0.638669 1.35724 -1
      vertex -0.638669 1.35724 6
      vertex -0.80374 1.26649 6
    endloop
  endfacet
  facet normal 0.481756 -0.876306 0
    outer loop
      vertex -0.80374 1.26649 -1
      vertex -0.638669 1.35724 -1
      vertex -0.80374 1.26649 6
    endloop
  endfacet
  facet normal 0.368123 -0.929777 0
    outer loop
      vertex -0.463525 1.42658 -1
      vertex -0.463525 1.42658 6
      vertex -0.638669 1.35724 6
    endloop
  endfacet
  facet normal 0.368123 -0.929777 0
    outer loop
      vertex -0.638669 1.35724 -1
      vertex -0.463525 1.42658 -1
      vertex -0.638669 1.35724 6
    endloop
  endfacet
  facet normal 0.24869 -0.968583 0
    outer loop
      vertex -0.281072 1.47343 -1
      vertex -0.281072 1.47343 6
      vertex -0.463525 1.42658 6
    endloop
  endfacet
  facet normal 0.24869 -0.968583 0
    outer loop
      vertex -0.463525 1.42658 -1
      vertex -0.281072 1.47343 -1
      vertex -0.463525 1.42658 6
    endloop
  endfacet
  facet normal 0.125332 -0.992115 0
    outer loop
      vertex -0.094186 1.49704 -1
      vertex -0.094186 1.49704 6
      vertex -0.281072 1.47343 6
    endloop
  endfacet
  facet normal 0.125332 -0.992115 0
    outer loop
      vertex -0.281072 1.47343 -1
      vertex -0.094186 1.49704 -1
      vertex -0.281072 1.47343 6
    endloop
  endfacet
  facet normal 0 -1 0
    outer loop
      vertex 0.094186 1.49704 -1
      vertex 0.094186 1.49704 6
      vertex -0.094186 1.49704 6
    endloop
  endfacet
  facet normal 0 -1 0
    outer loop
      vertex -0.094186 1.49704 -1
      vertex 0.094186 1.49704 -1
      vertex -0.094186 1.49704 6
    endloop
  endfacet
  facet normal -0.125332 -0.992115 0
    outer loop
      vertex 0.281072 1.47343 -1
      vertex 0.281072 1.47343 6
      vertex 0.094186 1.49704 6
    endloop
  endfacet
  facet normal -0.125332 -0.992115 0
    outer loop
      vertex 0.094186 1.49704 -1
      vertex 0.281072 1.47343 -1
      vertex 0.094186 1.49704 6
    endloop
  endfacet
  facet normal -0.24869 -0.968583 0
    outer loop
      vertex 0.463525 1.42658 -1
      vertex 0.463525 1.42658 6
      vertex 0.281072 1.47343 6
    endloop
  endfacet
  facet normal -0.24869 -0.968583 0
    outer loop
      vertex 0.281072 1.47343 -1
      vertex 0.463525 1.42658 -1
      vertex 0.281072 1.47343 6
    endloop
  endfacet
  facet normal -0.368123 -0.929777 0
    outer loop
      vertex 0.638669 1.35724 -1
      vertex 0.638669 1.35724 6
      vertex 0.463525 1.42658 6
    endloop
  endfacet
  facet normal -0.368123 -0.929777 0
    outer loop
      vertex 0.463525 1.42658 -1
      vertex 0.638669 1.35724 -1
      vertex 0.463525 1.42658 6
    endloop
  endfacet
  facet normal -0.481756 -0.876306 0
    outer loop
      vertex 0.80374 1.26649 -1
      vertex 0.80374 1.26649 6
      vertex 0.638669 1.35724 6
    endloop
  endfacet
  facet normal -0.481756 -0.876306 0
    outer loop
      vertex 0.638669 1.35724 -1
      vertex 0.80374 1.26649 -1
      vertex 0.638669 1.35724 6
    endloop
  endfacet
  facet normal -0.587785 -0.809017 0
    outer loop
      vertex 0.956136 1.15577 -1
      vertex 0.956136 1.15577 6
      vertex 0.80374 1.26649 6
    endloop
  endfacet
  facet normal -0.587785 -0.809017 0
    outer loop
      vertex 0.80374 1.26649 -1
      vertex 0.956136 1.15577 -1
      vertex 0.80374 1.26649 6
    endloop
  endfacet
  facet normal -0.684546 -0.728969 0
    outer loop
      vertex 1.09345 1.02682 -1
      vertex 1.09345 1.02682 6
      vertex 0.956136 1.15577 6
    endloop
  endfacet
  facet normal -0.684546 -0.728969 0
    outer loop
      vertex 0.956136 1.15577 -1
      vertex 1.09345 1.02682 -1
      vertex 0.956136 1.15577 6
    endloop
  endfacet
  facet normal -0.770515 -0.637422 0
    outer loop
      vertex 1.21352 0.881678 6
      vertex 1.09345 1.02682 6
      vertex 1.21352 0.881678 -1
    endloop
  endfacet
  facet normal -0.770515 -0.637422 0
    outer loop
      vertex 1.21352 0.881678 -1
      vertex 1.09345 1.02682 6
      vertex 1.09345 1.02682 -1
    endloop
  endfacet
  facet normal -0.844326 -0.535829 0
    outer loop
      vertex 1.31446 0.722631 6
      vertex 1.21352 0.881678 6
      vertex 1.31446 0.722631 -1
    endloop
  endfacet
  facet normal -0.844326 -0.535829 0
    outer loop
      vertex 1.31446 0.722631 -1
      vertex 1.21352 0.881678 6
      vertex 1.21352 0.881678 -1
    endloop
  endfacet
  facet normal -0.904827 -0.42578 0
    outer loop
      vertex 1.39467 0.552187 6
      vertex 1.31446 0.722631 6
      vertex 1.39467 0.552187 -1
    endloop
  endfacet
  facet normal -0.904827 -0.42578 0
    outer loop
      vertex 1.39467 0.552187 -1
      vertex 1.31446 0.722631 6
      vertex 1.31446 0.722631 -1
    endloop
  endfacet
  facet normal -0.951057 -0.309017 0
    outer loop
      vertex 1.45287 0.373035 6
      vertex 1.39467 0.552187 6
      vertex 1.45287 0.373035 -1
    endloop
  endfacet
  facet normal -0.951057 -0.309017 0
    outer loop
      vertex 1.45287 0.373035 -1
      vertex 1.39467 0.552187 6
      vertex 1.39467 0.552187 -1
    endloop
  endfacet
  facet normal -0.982288 -0.18738 0
    outer loop
      vertex 1.48817 0.188 6
      vertex 1.45287 0.373035 6
      vertex 1.48817 0.188 -1
    endloop
  endfacet
  facet normal -0.982288 -0.18738 0
    outer loop
      vertex 1.48817 0.188 -1
      vertex 1.45287 0.373035 6
      vertex 1.45287 0.373035 -1
    endloop
  endfacet
  facet normal -0.998027 -0.0627907 0
    outer loop
      vertex 1.5 0 6
      vertex 1.48817 0.188 6
      vertex 1.5 0 -1
    endloop
  endfacet
  facet normal -0.998027 -0.0627907 0
    outer loop
      vertex 1.5 0 -1
      vertex 1.48817 0.188 6
      vertex 1.48817 0.188 -1
    endloop
  endfacet
  facet normal -0.998027 0.0627907 0
    outer loop
      vertex 1.5 0 6
      vertex 1.5 0 -1
      vertex 1.48817 -0.188 6
    endloop
  endfacet
  facet normal -0.998027 0.0627907 0
    outer loop
      vertex 1.48817 -0.188 6
      vertex 1.5 0 -1
      vertex 1.48817 -0.188 -1
    endloop
  endfacet
  facet normal -0.982288 0.18738 0
    outer loop
      vertex 1.48817 -0.188 6
      vertex 1.48817 -0.188 -1
      vertex 1.45287 -0.373035 6
    endloop
  endfacet
  facet normal -0.982288 0.18738 0
    outer loop
      vertex 1.45287 -0.373035 6
      vertex 1.48817 -0.188 -1
      vertex 1.45287 -0.373035 -1
    endloop
  endfacet
  facet normal -0.951057 0.309017 0
    outer loop
      vertex 1.45287 -0.373035 6
      vertex 1.45287 -0.373035 -1
      vertex 1.39467 -0.552187 6
    endloop
  endfacet
  facet normal -0.951057 0.309017 0
    outer loop
      vertex 1.39467 -0.552187 6
      vertex 1.45287 -0.373035 -1
      vertex 1.39467 -0.552187 -1
    endloop
  endfacet
  facet normal -0.904827 0.42578 0
    outer loop
      vertex 1.39467 -0.552187 6
      vertex 1.39467 -0.552187 -1
      vertex 1.31446 -0.722631 6
    endloop
  endfacet
  facet normal -0.904827 0.42578 0
    outer loop
      vertex 1.31446 -0.722631 6
      vertex 1.39467 -0.552187 -1
      vertex 1.31446 -0.722631 -1
    endloop
  endfacet
  facet normal -0.844326 0.535829 0
    outer loop
      vertex 1.31446 -0.722631 6
      vertex 1.31446 -0.722631 -1
      vertex 1.21352 -0.881678 6
    endloop
  endfacet
  facet normal -0.844326 0.535829 0
    outer loop
      vertex 1.21352 -0.881678 6
      vertex 1.31446 -0.722631 -1
      vertex 1.21352 -0.881678 -1
    endloop
  endfacet
  facet normal -0.770515 0.637422 0
    outer loop
      vertex 1.21352 -0.881678 6
      vertex 1.21352 -0.881678 -1
      vertex 1.09345 -1.02682 6
    endloop
  endfacet
  facet normal -0.770515 0.637422 0
    outer loop
      vertex 1.09345 -1.02682 6
      vertex 1.21352 -0.881678 -1
      vertex 1.09345 -1.02682 -1
    endloop
  endfacet
  facet normal -0.684546 0.728969 0
    outer loop
      vertex 1.09345 -1.02682 6
      vertex 1.09345 -1.02682 -1
      vertex 0.956136 -1.15577 6
    endloop
  endfacet
  facet normal -0.684546 0.728969 0
    outer loop
      vertex 0.956136 -1.15577 6
      vertex 1.09345 -1.02682 -1
      vertex 0.956136 -1.15577 -1
    endloop
  endfacet
  facet normal -0.587785 0.809017 0
    outer loop
      vertex 0.956136 -1.15577 6
      vertex 0.956136 -1.15577 -1
      vertex 0.80374 -1.26649 6
    endloop
  endfacet
  facet normal -0.587785 0.809017 0
    outer loop
      vertex 0.80374 -1.26649 6
      vertex 0.956136 -1.15577 -1
      vertex 0.80374 -1.26649 -1
    endloop
  endfacet
  facet normal -0.481756 0.876306 0
    outer loop
      vertex 0.80374 -1.26649 6
      vertex 0.80374 -1.26649 -1
      vertex 0.638669 -1.35724 6
    endloop
  endfacet
  facet normal -0.481756 0.876306 0
    outer loop
      vertex 0.638669 -1.35724 6
      vertex 0.80374 -1.26649 -1
      vertex 0.638669 -1.35724 -1
    endloop
  endfacet
  facet normal -0.368123 0.929777 0
    outer loop
      vertex 0.638669 -1.35724 6
      vertex 0.638669 -1.35724 -1
      vertex 0.463525 -1.42658 6
    endloop
  endfacet
  facet normal -0.368123 0.929777 0
    outer loop
      vertex 0.463525 -1.42658 6
      vertex 0.638669 -1.35724 -1
      vertex 0.463525 -1.42658 -1
    endloop
  endfacet
  facet normal -0.24869 0.968583 0
    outer loop
      vertex 0.463525 -1.42658 6
      vertex 0.463525 -1.42658 -1
      vertex 0.281072 -1.47343 6
    endloop
  endfacet
  facet normal -0.24869 0.968583 0
    outer loop
      vertex 0.281072 -1.47343 6
      vertex 0.463525 -1.42658 -1
      vertex 0.281072 -1.47343 -1
    endloop
  endfacet
  facet normal -0.125332 0.992115 0
    outer loop
      vertex 0.281072 -1.47343 6
      vertex 0.281072 -1.47343 -1
      vertex 0.094186 -1.49704 6
    endloop
  endfacet
  facet normal -0.125332 0.992115 0
    outer loop
      vertex 0.094186 -1.49704 6
      vertex 0.281072 -1.47343 -1
      vertex 0.094186 -1.49704 -1
    endloop
  endfacet
  facet normal 0 1 0
    outer loop
      vertex 0.094186 -1.49704 6
      vertex 0.094186 -1.49704 -1
      vertex -0.094186 -1.49704 6
    endloop
  endfacet
  facet normal 0 1 0
    outer loop
      vertex -0.094186 -1.49704 6
      vertex 0.094186 -1.49704 -1
      vertex -0.094186 -1.49704 -1
    endloop
  endfacet
  facet normal 0.125332 0.992115 0
    outer loop
      vertex -0.094186 -1.49704 6
      vertex -0.094186 -1.49704 -1
      vertex -0.281072 -1.47343 6
    endloop
  endfacet
  facet normal 0.125332 0.992115 0
    outer loop
      vertex -0.281072 -1.47343 6
      vertex -0.094186 -1.49704 -1
      vertex -0.281072 -1.47343 -1
    endloop
  endfacet
  facet normal 0.24869 0.968583 0
    outer loop
      vertex -0.281072 -1.47343 6
      vertex -0.281072 -1.47343 -1
      vertex -0.463525 -1.42658 6
    endloop
  endfacet
  facet normal 0.24869 0.968583 0
    outer loop
      vertex -0.463525 -1.42658 6
      vertex -0.281072 -1.47343 -1
      vertex -0.463525 -1.42658 -1
    endloop
  endfacet
  facet normal 0.368123 0.929777 0
    outer loop
      vertex -0.463525 -1.42658 6
      vertex -0.463525 -1.42658 -1
      vertex -0.638669 -1.35724 6
    endloop
  endfacet
  facet normal 0.368123 0.929777 0
    outer loop
      vertex -0.638669 -1.35724 6
      vertex -0.463525 -1.42658 -1
      vertex -0.638669 -1.35724 -1
    endloop
  endfacet
  facet normal 0.481756 0.876306 0
    outer loop
      vertex -0.638669 -1.35724 6
      vertex -0.638669 -1.35724 -1
      vertex -0.80374 -1.26649 6
    endloop
  endfacet
  facet normal 0.481756 0.876306 0
    outer loop
      vertex -0.80374 -1.26649 6
      vertex -0.638669 -1.35724 -1
      vertex -0.80374 -1.26649 -1
    endloop
  endfacet
  facet normal 0.587785 0.809017 0
    outer loop
      vertex -0.80374 -1.26649 6
      vertex -0.80374 -1.26649 -1
      vertex -0.956136 -1.15577 6
    endloop
  endfacet
  facet normal 0.587785 0.809017 0
    outer loop
      vertex -0.956136 -1.15577 6
      vertex -0.80374 -1.26649 -1
      vertex -0.956136 -1.15577 -1
    endloop
  endfacet
  facet normal 0.684546 0.728969 0
    outer loop
      vertex -0.956136 -1.15577 6
      vertex -0.956136 -1.15577 -1
      vertex -1.09345 -1.02682 6
    endloop
  endfacet
  facet normal 0.684546 0.728969 0
    outer loop
      vertex -1.09345 -1.02682 6
      vertex -0.956136 -1.15577 -1
      vertex -1.09345 -1.02682 -1
    endloop
  endfacet
  facet normal 0.770515 0.637422 0
    outer loop
      vertex -1.21352 -0.881678 6
      vertex -1.09345 -1.02682 6
      vertex -1.09345 -1.02682 -1
    endloop
  endfacet
  facet normal 0.770515 0.637422 0
    outer loop
      vertex -1.21352 -0.881678 -1
      vertex -1.21352 -0.881678 6
      vertex -1.09345 -1.02682 -1
    endloop
  endfacet
  facet normal 0.844326 0.535829 0
    outer loop
      vertex -1.31446 -0.722631 6
      vertex -1.21352 -0.881678 6
      vertex -1.21352 -0.881678 -1
    endloop
  endfacet
  facet normal 0.844326 0.535829 0
    outer loop
      vertex -1.31446 -0.722631 -1
      vertex -1.31446 -0.722631 6
      vertex -1.21352 -0.881678 -1
    endloop
  endfacet
  facet normal 0.904827 0.42578 0
    outer loop
      vertex -1.39467 -0.552187 6
      vertex -1.31446 -0.722631 6
      vertex -1.31446 -0.722631 -1
    endloop
  endfacet
  facet normal 0.904827 0.42578 0
    outer loop
      vertex -1.39467 -0.552187 -1
      vertex -1.39467 -0.552187 6
      vertex -1.31446 -0.722631 -1
    endloop
  endfacet
  facet normal 0.951057 0.309017 0
    outer loop
      vertex -1.45287 -0.373035 6
      vertex -1.39467 -0.552187 6
      vertex -1.39467 -0.552187 -1
    endloop
  endfacet
  facet normal 0.951057 0.309017 0
    outer loop
      vertex -1.45287 -0.373035 -1
      vertex -1.45287 -0.373035 6
      vertex -1.39467 -0.552187 -1
    endloop
  endfacet
  facet normal 0.982288 0.18738 0
    outer loop
      vertex -1.48817 -0.188 6
      vertex -1.45287 -0.373035 6
      vertex -1.45287 -0.373035 -1
    endloop
  endfacet
  facet normal 0.982288 0.18738 0
    outer loop
      vertex -1.48817 -0.188 -1
      vertex -1.48817 -0.188 6
      vertex -1.45287 -0.373035 -1
    endloop
  endfacet
  facet normal -0.998027 -0.0627907 0
    outer loop
      vertex -3 0 1
      vertex -2.97634 -0.376 1
      vertex -3 0 6
    endloop
  endfacet
  facet normal -0.998027 -0.0627907 0
    outer loop
      vertex -3 0 6
      vertex -2.97634 -0.376 1
      vertex -2.97634 -0.376 6
    endloop
  endfacet
  facet normal -0.982287 -0.187382 0
    outer loop
      vertex -2.97634 -0.376 1
      vertex -2.90575 -0.74607 1
      vertex -2.97634 -0.376 6
    endloop
  endfacet
  facet normal -0.982287 -0.187382 0
    outer loop
      vertex -2.97634 -0.376 6
      vertex -2.90575 -0.74607 1
      vertex -2.90575 -0.74607 6
    endloop
  endfacet
  facet normal -0.951057 -0.309017 0
    outer loop
      vertex -2.90575 -0.74607 1
      vertex -2.78933 -1.10437 1
      vertex -2.90575 -0.74607 6
    endloop
  endfacet
  facet normal -0.951057 -0.309017 0
    outer loop
      vertex -2.90575 -0.74607 6
      vertex -2.78933 -1.10437 1
      vertex -2.78933 -1.10437 6
    endloop
  endfacet
  facet normal -0.904827 -0.425779 0
    outer loop
      vertex -2.78933 -1.10437 1
      vertex -2.62892 -1.44526 1
      vertex -2.78933 -1.10437 6
    endloop
  endfacet
  facet normal -0.904827 -0.425779 0
    outer loop
      vertex -2.78933 -1.10437 6
      vertex -2.62892 -1.44526 1
      vertex -2.62892 -1.44526 6
    endloop
  endfacet
  facet normal -0.844328 -0.535826 0
    outer loop
      vertex -2.62892 -1.44526 1
      vertex -2.42705 -1.76336 1
      vertex -2.62892 -1.44526 6
    endloop
  endfacet
  facet normal -0.844328 -0.535826 0
    outer loop
      vertex -2.62892 -1.44526 6
      vertex -2.42705 -1.76336 1
      vertex -2.42705 -1.76336 6
    endloop
  endfacet
  facet normal -0.770513 -0.637425 0
    outer loop
      vertex -2.42705 -1.76336 1
      vertex -2.18691 -2.05364 1
      vertex -2.42705 -1.76336 6
    endloop
  endfacet
  facet normal -0.770513 -0.637425 0
    outer loop
      vertex -2.42705 -1.76336 6
      vertex -2.18691 -2.05364 1
      vertex -2.18691 -2.05364 6
    endloop
  endfacet
  facet normal -0.684548 -0.728968 0
    outer loop
      vertex -2.18691 -2.05364 6
      vertex -2.18691 -2.05364 1
      vertex -1.91227 -2.31154 1
    endloop
  endfacet
  facet normal -0.684548 -0.728968 0
    outer loop
      vertex -1.91227 -2.31154 6
      vertex -2.18691 -2.05364 6
      vertex -1.91227 -2.31154 1
    endloop
  endfacet
  facet normal -0.587785 -0.809017 0
    outer loop
      vertex -1.91227 -2.31154 6
      vertex -1.91227 -2.31154 1
      vertex -1.60748 -2.53298 1
    endloop
  endfacet
  facet normal -0.587785 -0.809017 0
    outer loop
      vertex -1.60748 -2.53298 6
      vertex -1.91227 -2.31154 6
      vertex -1.60748 -2.53298 1
    endloop
  endfacet
  facet normal -0.481753 -0.876307 0
    outer loop
      vertex -1.60748 -2.53298 6
      vertex -1.60748 -2.53298 1
      vertex -1.27734 -2.71448 1
    endloop
  endfacet
  facet normal -0.481753 -0.876307 0
    outer loop
      vertex -1.27734 -2.71448 6
      vertex -1.60748 -2.53298 6
      vertex -1.27734 -2.71448 1
    endloop
  endfacet
  facet normal -0.368126 -0.929776 0
    outer loop
      vertex -1.27734 -2.71448 6
      vertex -1.27734 -2.71448 1
      vertex -0.927051 -2.85317 1
    endloop
  endfacet
  facet normal -0.368126 -0.929776 0
    outer loop
      vertex -0.927051 -2.85317 6
      vertex -1.27734 -2.71448 6
      vertex -0.927051 -2.85317 1
    endloop
  endfacet
  facet normal -0.248689 -0.968583 0
    outer loop
      vertex -0.927051 -2.85317 6
      vertex -0.927051 -2.85317 1
      vertex -0.562144 -2.94686 1
    endloop
  endfacet
  facet normal -0.248689 -0.968583 0
    outer loop
      vertex -0.562144 -2.94686 6
      vertex -0.927051 -2.85317 6
      vertex -0.562144 -2.94686 1
    endloop
  endfacet
  facet normal -0.125332 -0.992115 0
    outer loop
      vertex -0.562144 -2.94686 6
      vertex -0.562144 -2.94686 1
      vertex -0.188372 -2.99408 1
    endloop
  endfacet
  facet normal -0.125332 -0.992115 0
    outer loop
      vertex -0.188372 -2.99408 6
      vertex -0.562144 -2.94686 6
      vertex -0.188372 -2.99408 1
    endloop
  endfacet
  facet normal 0 -1 0
    outer loop
      vertex -0.188372 -2.99408 6
      vertex -0.188372 -2.99408 1
      vertex 0.188372 -2.99408 1
    endloop
  endfacet
  facet normal 0 -1 0
    outer loop
      vertex 0.188372 -2.99408 6
      vertex -0.188372 -2.99408 6
      vertex 0.188372 -2.99408 1
    endloop
  endfacet
  facet normal 0.125332 -0.992115 0
    outer loop
      vertex 0.188372 -2.99408 6
      vertex 0.188372 -2.99408 1
      vertex 0.562144 -2.94686 1
    endloop
  endfacet
  facet normal 0.125332 -0.992115 0
    outer loop
      vertex 0.562144 -2.94686 6
      vertex 0.188372 -2.99408 6
      vertex 0.562144 -2.94686 1
    endloop
  endfacet
  facet normal 0.248689 -0.968583 0
    outer loop
      vertex 0.562144 -2.94686 6
      vertex 0.562144 -2.94686 1
      vertex 0.927051 -2.85317 1
    endloop
  endfacet
  facet normal 0.248689 -0.968583 0
    outer loop
      vertex 0.927051 -2.85317 6
      vertex 0.562144 -2.94686 6
      vertex 0.927051 -2.85317 1
    endloop
  endfacet
  facet normal 0.368126 -0.929776 0
    outer loop
      vertex 0.927051 -2.85317 6
      vertex 0.927051 -2.85317 1
      vertex 1.27734 -2.71448 1
    endloop
  endfacet
  facet normal 0.368126 -0.929776 0
    outer loop
      vertex 1.27734 -2.71448 6
      vertex 0.927051 -2.85317 6
      vertex 1.27734 -2.71448 1
    endloop
  endfacet
  facet normal 0.481753 -0.876307 0
    outer loop
      vertex 1.27734 -2.71448 6
      vertex 1.27734 -2.71448 1
      vertex 1.60748 -2.53298 1
    endloop
  endfacet
  facet normal 0.481753 -0.876307 0
    outer loop
      vertex 1.60748 -2.53298 6
      vertex 1.27734 -2.71448 6
      vertex 1.60748 -2.53298 1
    endloop
  endfacet
  facet normal 0.587785 -0.809017 0
    outer loop
      vertex 1.60748 -2.53298 6
      vertex 1.60748 -2.53298 1
      vertex 1.91227 -2.31154 1
    endloop
  endfacet
  facet normal 0.587785 -0.809017 0
    outer loop
      vertex 1.91227 -2.31154 6
      vertex 1.60748 -2.53298 6
      vertex 1.91227 -2.31154 1
    endloop
  endfacet
  facet normal 0.684548 -0.728968 0
    outer loop
      vertex 1.91227 -2.31154 6
      vertex 1.91227 -2.31154 1
      vertex 2.18691 -2.05364 1
    endloop
  endfacet
  facet normal 0.684548 -0.728968 0
    outer loop
      vertex 2.18691 -2.05364 6
      vertex 1.91227 -2.31154 6
      vertex 2.18691 -2.05364 1
    endloop
  endfacet
  facet normal 0.770513 -0.637425 0
    outer loop
      vertex 2.18691 -2.05364 6
      vertex 2.18691 -2.05364 1
      vertex 2.42705 -1.76336 1
    endloop
  endfacet
  facet normal 0.770513 -0.637425 0
    outer loop
      vertex 2.42705 -1.76336 6
      vertex 2.18691 -2.05364 6
      vertex 2.42705 -1.76336 1
    endloop
  endfacet
  facet normal 0.844328 -0.535826 0
    outer loop
      vertex 2.42705 -1.76336 6
      vertex 2.42705 -1.76336 1
      vertex 2.62892 -1.44526 1
    endloop
  endfacet
  facet normal 0.844328 -0.535826 0
    outer loop
      vertex 2.62892 -1.44526 6
      vertex 2.42705 -1.76336 6
      vertex 2.62892 -1.44526 1
    endloop
  endfacet
  facet normal 0.904827 -0.425779 0
    outer loop
      vertex 2.62892 -1.44526 6
      vertex 2.62892 -1.44526 1
      vertex 2.78933 -1.10437 1
    endloop
  endfacet
  facet normal 0.904827 -0.425779 0
    outer loop
      vertex 2.78933 -1.10437 6
      vertex 2.62892 -1.44526 6
      vertex 2.78933 -1.10437 1
    endloop
  endfacet
  facet normal 0.951057 -0.309017 0
    outer loop
      vertex 2.78933 -1.10437 6
      vertex 2.78933 -1.10437 1
      vertex 2.90575 -0.74607 1
    endloop
  endfacet
  facet normal 0.951057 -0.309017 0
    outer loop
      vertex 2.90575 -0.74607 6
      vertex 2.78933 -1.10437 6
      vertex 2.90575 -0.74607 1
    endloop
  endfacet
  facet normal 0.982287 -0.187382 0
    outer loop
      vertex 2.90575 -0.74607 6
      vertex 2.90575 -0.74607 1
      vertex 2.97634 -0.376 1
    endloop
  endfacet
  facet normal 0.982287 -0.187382 0
    outer loop
      vertex 2.97634 -0.376 6
      vertex 2.90575 -0.74607 6
      vertex 2.97634 -0.376 1
    endloop
  endfacet
  facet normal 0.998027 -0.0627907 0
    outer loop
      vertex 2.97634 -0.376 6
      vertex 2.97634 -0.376 1
      vertex 3 0 1
    endloop
  endfacet
  facet normal 0.998027 -0.0627907 0
    outer loop
      vertex 3 0 6
      vertex 2.97634 -0.376 6
      vertex 3 0 1
    endloop
  endfacet
  facet normal 0.998027 0.0627907 0
    outer loop
      vertex 3 0 1
      vertex 2.97634 0.376 1
      vertex 2.97634 0.376 6
    endloop
  endfacet
  facet normal 0.998027 0.0627907 0
    outer loop
      vertex 3 0 6
      vertex 3 0 1
      vertex 2.97634 0.376 6
    endloop
  endfacet
  facet normal 0.982287 0.187382 0
    outer loop
      vertex 2.97634 0.376 1
      vertex 2.90575 0.74607 1
      vertex 2.90575 0.74607 6
    endloop
  endfacet
  facet normal 0.982287 0.187382 0
    outer loop
      vertex 2.97634 0.376 6
      vertex 2.97634 0.376 1
      vertex 2.90575 0.74607 6
    endloop
  endfacet
  facet normal 0.951057 0.309017 0
    outer loop
      vertex 2.90575 0.74607 1
      vertex 2.78933 1.10437 1
      vertex 2.78933 1.10437 6
    endloop
  endfacet
  facet normal 0.951057 0.309017 0
    outer loop
      vertex 2.90575 0.74607 6
      vertex 2.90575 0.74607 1
      vertex 2.78933 1.10437 6
    endloop
  endfacet
  facet normal 0.904827 0.425779 0
    outer loop
      vertex 2.78933 1.10437 1
      vertex 2.62892 1.44526 1
      vertex 2.62892 1.44526 6
    endloop
  endfacet
  facet normal 0.904827 0.425779 0
    outer loop
      vertex 2.78933 1.10437 6
      vertex 2.78933 1.10437 1
      vertex 2.62892 1.44526 6
    endloop
  endfacet
  facet normal 0.844328 0.535826 0
    outer loop
      vertex 2.62892 1.44526 1
      vertex 2.42705 1.76336 1
      vertex 2.42705 1.76336 6
    endloop
  endfacet
  facet normal 0.844328 0.535826 0
    outer loop
      vertex 2.62892 1.44526 6
      vertex 2.62892 1.44526 1
      vertex 2.42705 1.76336 6
    endloop
  endfacet
  facet normal 0.770513 0.637425 0
    outer loop
      vertex 2.42705 1.76336 1
      vertex 2.18691 2.05364 1
      vertex 2.18691 2.05364 6
    endloop
  endfacet
  facet normal 0.770513 0.637425 0
    outer loop
      vertex 2.42705 1.76336 6
      vertex 2.42705 1.76336 1
      vertex 2.18691 2.05364 6
    endloop
  endfacet
  facet normal 0.684548 0.728968 0
    outer loop
      vertex 1.91227 2.31154 1
      vertex 1.91227 2.31154 6
      vertex 2.18691 2.05364 1
    endloop
  endfacet
  facet normal 0.684548 0.728968 0
    outer loop
      vertex 2.18691 2.05364 1
      vertex 1.91227 2.31154 6
      vertex 2.18691 2.05364 6
    endloop
  endfacet
  facet normal 0.587785 0.809017 0
    outer loop
      vertex 1.60748 2.53298 1
      vertex 1.60748 2.53298 6
      vertex 1.91227 2.31154 1
    endloop
  endfacet
  facet normal 0.587785 0.809017 0
    outer loop
      vertex 1.91227 2.31154 1
      vertex 1.60748 2.53298 6
      vertex 1.91227 2.31154 6
    endloop
  endfacet
  facet normal 0.481753 0.876307 0
    outer loop
      vertex 1.27734 2.71448 1
      vertex 1.27734 2.71448 6
      vertex 1.60748 2.53298 1
    endloop
  endfacet
  facet normal 0.481753 0.876307 0
    outer loop
      vertex 1.60748 2.53298 1
      vertex 1.27734 2.71448 6
      vertex 1.60748 2.53298 6
    endloop
  endfacet
  facet normal 0.368126 0.929776 0
    outer loop
      vertex 0.927051 2.85317 1
      vertex 0.927051 2.85317 6
      vertex 1.27734 2.71448 1
    endloop
  endfacet
  facet normal 0.368126 0.929776 0
    outer loop
      vertex 1.27734 2.71448 1
      vertex 0.927051 2.85317 6
      vertex 1.27734 2.71448 6
    endloop
  endfacet
  facet normal 0.248689 0.968583 0
    outer loop
      vertex 0.562144 2.94686 1
      vertex 0.562144 2.94686 6
      vertex 0.927051 2.85317 1
    endloop
  endfacet
  facet normal 0.248689 0.968583 0
    outer loop
      vertex 0.927051 2.85317 1
      vertex 0.562144 2.94686 6
      vertex 0.927051 2.85317 6
    endloop
  endfacet
  facet normal 0.125332 0.992115 0
    outer loop
      vertex 0.188372 2.99408 1
      vertex 0.188372 2.99408 6
      vertex 0.562144 2.94686 1
    endloop
  endfacet
  facet normal 0.125332 0.992115 0
    outer loop
      vertex 0.562144 2.94686 1
      vertex 0.188372 2.99408 6
      vertex 0.562144 2.94686 6
    endloop
  endfacet
  facet normal 0 1 0
    outer loop
      vertex -0.188372 2.99408 1
      vertex -0.188372 2.99408 6
      vertex 0.188372 2.99408 1
    endloop
  endfacet
  facet normal 0 1 0
    outer loop
      vertex 0.188372 2.99408 1
      vertex -0.188372 2.99408 6
      vertex 0.188372 2.99408 6
    endloop
  endfacet
  facet normal -0.125332 0.992115 0
    outer loop
      vertex -0.562144 2.94686 1
      vertex -0.562144 2.94686 6
      vertex -0.188372 2.99408 1
    endloop
  endfacet
  facet normal -0.125332 0.992115 0
    outer loop
      vertex -0.188372 2.99408 1
      vertex -0.562144 2.94686 6
      vertex -0.188372 2.99408 6
    endloop
  endfacet
  facet normal -0.248689 0.968583 0
    outer loop
      vertex -0.927051 2.85317 1
      vertex -0.927051 2.85317 6
      vertex -0.562144 2.94686 1
    endloop
  endfacet
  facet normal -0.248689 0.968583 0
    outer loop
      vertex -0.562144 2.94686 1
      vertex -0.927051 2.85317 6
      vertex -0.562144 2.94686 6
    endloop
  endfacet
  facet normal -0.368126 0.929776 0
    outer loop
      vertex -1.27734 2.71448 1
      vertex -1.27734 2.71448 6
      vertex -0.927051 2.85317 1
    endloop
  endfacet
  facet normal -0.368126 0.929776 0
    outer loop
      vertex -0.927051 2.85317 1
      vertex -1.27734 2.71448 6
      vertex -0.927051 2.85317 6
    endloop
  endfacet
  facet normal -0.481753 0.876307 0
    outer loop
      vertex -1.60748 2.53298 1
      vertex -1.60748 2.53298 6
      vertex -1.27734 2.71448 1
    endloop
  endfacet
  facet normal -0.481753 0.876307 0
    outer loop
      vertex -1.27734 2.71448 1
      vertex -1.60748 2.53298 6
      vertex -1.27734 2.71448 6
    endloop
  endfacet
  facet normal -0.587785 0.809017 0
    outer loop
      vertex -1.91227 2.31154 1
      vertex -1.91227 2.31154 6
      vertex -1.60748 2.53298 1
    endloop
  endfacet
  facet normal -0.587785 0.809017 0
    outer loop
      vertex -1.60748 2.53298 1
      vertex -1.91227 2.31154 6
      vertex -1.60748 2.53298 6
    endloop
  endfacet
  facet normal -0.684548 0.728968 0
    outer loop
      vertex -2.18691 2.05364 1
      vertex -2.18691 2.05364 6
      vertex -1.91227 2.31154 1
    endloop
  endfacet
  facet normal -0.684548 0.728968 0
    outer loop
      vertex -1.91227 2.31154 1
      vertex -2.18691 2.05364 6
      vertex -1.91227 2.31154 6
    endloop
  endfacet
  facet normal -0.770513 0.637425 0
    outer loop
      vertex -2.42705 1.76336 1
      vertex -2.42705 1.76336 6
      vertex -2.18691 2.05364 1
    endloop
  endfacet
  facet normal -0.770513 0.637425 0
    outer loop
      vertex -2.18691 2.05364 1
      vertex -2.42705 1.76336 6
      vertex -2.18691 2.05364 6
    endloop
  endfacet
  facet normal -0.844328 0.535826 0
    outer loop
      vertex -2.62892 1.44526 1
      vertex -2.62892 1.44526 6
      vertex -2.42705 1.76336 1
    endloop
  endfacet
  facet normal -0.844328 0.535826 0
    outer loop
      vertex -2.42705 1.76336 1
      vertex -2.62892 1.44526 6
      vertex -2.42705 1.76336 6
    endloop
  endfacet
  facet normal -0.904827 0.425779 0
    outer loop
      vertex -2.78933 1.10437 1
      vertex -2.78933 1.10437 6
      vertex -2.62892 1.44526 1
    endloop
  endfacet
  facet normal -0.904827 0.425779 0
    outer loop
      vertex -2.62892 1.44526 1
      vertex -2.78933 1.10437 6
      vertex -2.62892 1.44526 6
    endloop
  endfacet
  facet normal -0.951057 0.309017 0
    outer loop
      vertex -2.90575 0.74607 1
      vertex -2.90575 0.74607 6
      vertex -2.78933 1.10437 1
    endloop
  endfacet
  facet normal -0.951057 0.309017 0
    outer loop
      vertex -2.78933 1.10437 1
      vertex -2.90575 0.74607 6
      vertex -2.78933 1.10437 6
    endloop
  endfacet
  facet normal -0.982287 0.187382 0
    outer loop
      vertex -2.97634 0.376 1
      vertex -2.97634 0.376 6
      vertex -2.90575 0.74607 1
    endloop
  endfacet
  facet normal -0.982287 0.187382 0
    outer loop
      vertex -2.90575 0.74607 1
      vertex -2.97634 0.376 6
      vertex -2.90575 0.74607 6
    endloop
  endfacet
  facet normal -0.998027 0.0627907 0
    outer loop
      vertex -3 0 1
      vertex -3 0 6
      vertex -2.97634 0.376 1
    endloop
  endfacet
  facet normal -0.998027 0.0627907 0
    outer loop
      vertex -2.97634 0.376 1
      vertex -3 0 6
      vertex -2.97634 0.376 6
    endloop
  endfacet
  facet normal 0 0 1
    outer loop
      vertex -2.97634 0.376 6
      vertex -3 0 6
      vertex -2.97634 -0.376 6
    endloop
  endfacet
  facet normal 0 0 1
    outer loop
      vertex -2.78933 -1.10437 6
      vertex -2.97634 0.376 6
      vertex -2.90575 -0.74607 6
    endloop
  endfacet
  facet normal 0 0 1
    outer loop
      vertex -2.90575 -0.74607 6
      vertex -2.97634 0.376 6
      vertex -2.97634 -0.376 6
    endloop
  endfacet
  facet normal 0 0 1
    outer loop
      vertex -2.62892 -1.44526 6
      vertex -2.97634 0.376 6
      vertex -2.78933 -1.10437 6
    endloop
  endfacet
  facet normal 0 0 1
    outer loop
      vertex -2.42705 -1.76336 6
      vertex -2.97634 0.376 6
      vertex -2.62892 -1.44526 6
    endloop
  endfacet
  facet normal 0 0 1
    outer loop
      vertex -2.18691 -2.05364 6
      vertex -2.97634 0.376 6
      vertex -2.42705 -1.76336 6
    endloop
  endfacet
  facet normal 0 0 1
    outer loop
      vertex -1.91227 -2.31154 6
      vertex -2.97634 0.376 6
      vertex -2.18691 -2.05364 6
    endloop
  endfacet
  facet normal 0 0 1
    outer loop
      vertex -1.60748 -2.53298 6
      vertex -2.97634 0.376 6
      vertex -1.91227 -2.31154 6
    endloop
  endfacet
  facet normal 0 0 1
    outer loop
      vertex -1.27734 -2.71448 6
      vertex -2.97634 0.376 6
      vertex -1.60748 -2.53298 6
    endloop
  endfacet
  facet normal 0 0 1
    outer loop
      vertex -0.927051 -2.85317 6
      vertex -2.97634 0.376 6
      vertex -1.27734 -2.71448 6
    endloop
  endfacet
  facet normal 0 0 1
    outer loop
      vertex -0.562144 -2.94686 6
      vertex -2.97634 0.376 6
      vertex -0.927051 -2.85317 6
    endloop
  endfacet
  facet normal 0 0 1
    outer loop
      vertex -0.188372 -2.99408 6
      vertex -2.97634 0.376 6
      vertex -0.562144 -2.94686 6
    endloop
  endfacet
  facet normal 0 0 1
    outer loop
      vertex 0.188372 -2.99408 6
      vertex -2.97634 0.376 6
      vertex -0.188372 -2.99408 6
    endloop
  endfacet
  facet normal 0 0 1
    outer loop
      vertex 0.562144 -2.94686 6
      vertex -2.97634 0.376 6
      vertex 0.188372 -2.99408 6
    endloop
  endfacet
  facet normal 0 0 1
    outer loop
      vertex 0.927051 -2.85317 6
      vertex -2.97634 0.376 6
      vertex 0.562144 -2.94686 6
    endloop
  endfacet
  facet normal 0 0 1
    outer loop
      vertex -0.956136 -1.15577 6
      vertex -2.97634 0.376 6
      vertex 0.927051 -2.85317 6
    endloop
  endfacet
  facet normal 0 0 1
    outer loop
      vertex -0.956136 -1.15577 6
      vertex -1.09345 -1.02682 6
      vertex -2.97634 0.376 6
    endloop
  endfacet
  facet normal 0 0 1
    outer loop
      vertex -0.463525 -1.42658 6
      vertex -0.638669 -1.35724 6
      vertex 1.27734 -2.71448 6
    endloop
  endfacet
  facet normal 0 0 1
    outer loop
      vertex 0.094186 -1.49704 6
      vertex -0.094186 -1.49704 6
      vertex 1.60748 -2.53298 6
    endloop
  endfacet
  facet normal 0 0 1
    outer loop
      vertex 0.956136 -1.15577 6
      vertex 0.80374 -1.26649 6
      vertex 2.42705 -1.76336 6
    endloop
  endfacet
  facet normal 0 0 1
    outer loop
      vertex 1.31446 -0.722631 6
      vertex 1.21352 -0.881678 6
      vertex 2.78933 -1.10437 6
    endloop
  endfacet
  facet normal 0 0 1
    outer loop
      vertex 2.97634 -0.376 6
      vertex 1.48817 -0.188 6
      vertex 2.90575 -0.74607 6
    endloop
  endfacet
  facet normal 0 0 1
    outer loop
      vertex 1.31446 0.722631 6
      vertex 1.39467 0.552187 6
      vertex 2.90575 0.74607 6
    endloop
  endfacet
  facet normal 0 0 1
    outer loop
      vertex -0.281072 1.47343 6
      vertex -0.094186 1.49704 6
      vertex 1.91227 2.31154 6
    endloop
  endfacet
  facet normal 0 0 1
    outer loop
      vertex 0.956136 1.15577 6
      vertex 1.09345 1.02682 6
      vertex 2.62892 1.44526 6
    endloop
  endfacet
  facet normal 0 0 1
    outer loop
      vertex -0.094186 1.49704 6
      vertex 0.094186 1.49704 6
      vertex 1.91227 2.31154 6
    endloop
  endfacet
  facet normal 0 0 1
    outer loop
      vertex 1.27734 2.71448 6
      vertex -2.97634 0.376 6
      vertex 1.60748 2.53298 6
    endloop
  endfacet
  facet normal 0 0 1
    outer loop
      vertex 0.927051 2.85317 6
      vertex -2.97634 0.376 6
      vertex 1.27734 2.71448 6
    endloop
  endfacet
  facet normal 0 0 1
    outer loop
      vertex 0.562144 2.94686 6
      vertex -2.97634 0.376 6
      vertex 0.927051 2.85317 6
    endloop
  endfacet
  facet normal 0 0 1
    outer loop
      vertex 0.188372 2.99408 6
      vertex -2.97634 0.376 6
      vertex 0.562144 2.94686 6
    endloop
  endfacet
  facet normal 0 0 1
    outer loop
      vertex -0.188372 2.99408 6
      vertex -2.97634 0.376 6
      vertex 0.188372 2.99408 6
    endloop
  endfacet
  facet normal 0 0 1
    outer loop
      vertex -0.562144 2.94686 6
      vertex -2.97634 0.376 6
      vertex -0.188372 2.99408 6
    endloop
  endfacet
  facet normal 0 0 1
    outer loop
      vertex -0.927051 2.85317 6
      vertex -2.97634 0.376 6
      vertex -0.562144 2.94686 6
    endloop
  endfacet
  facet normal 0 0 1
    outer loop
      vertex -1.27734 2.71448 6
      vertex -2.97634 0.376 6
      vertex -0.927051 2.85317 6
    endloop
  endfacet
  facet normal 0 0 1
    outer loop
      vertex -1.60748 2.53298 6
      vertex -2.97634 0.376 6
      vertex -1.27734 2.71448 6
    endloop
  endfacet
  facet normal 0 0 1
    outer loop
      vertex -1.91227 2.31154 6
      vertex -2.97634 0.376 6
      vertex -1.60748 2.53298 6
    endloop
  endfacet
  facet normal 0 0 1
    outer loop
      vertex -2.18691 2.05364 6
      vertex -2.97634 0.376 6
      vertex -1.91227 2.31154 6
    endloop
  endfacet
  facet normal 0 0 1
    outer loop
      vertex -2.42705 1.76336 6
      vertex -2.97634 0.376 6
      vertex -2.18691 2.05364 6
    endloop
  endfacet
  facet normal 0 0 1
    outer loop
      vertex -2.62892 1.44526 6
      vertex -2.97634 0.376 6
      vertex -2.42705 1.76336 6
    endloop
  endfacet
  facet normal 0 0 1
    outer loop
      vertex -2.78933 1.10437 6
      vertex -2.97634 0.376 6
      vertex -2.62892 1.44526 6
    endloop
  endfacet
  facet normal 0 0 1
    outer loop
      vertex -2.90575 0.74607 6
      vertex -2.97634 0.376 6
      vertex -2.78933 1.10437 6
    endloop
  endfacet
  facet normal 0 0 1
    outer loop
      vertex 0.80374 -1.26649 6
      vertex 0.638669 -1.35724 6
      vertex 2.18691 -2.05364 6
    endloop
  endfacet
  facet normal 0 0 1
    outer loop
      vertex -1.45287 0.373035 6
      vertex -1.39467 0.552187 6
      vertex -2.97634 0.376 6
    endloop
  endfacet
  facet normal 0 0 1
    outer loop
      vertex -1.48817 0.188 6
      vertex -1.45287 0.373035 6
      vertex -2.97634 0.376 6
    endloop
  endfacet
  facet normal 0 0 1
    outer loop
      vertex 1.21352 -0.881678 6
      vertex 1.09345 -1.02682 6
      vertex 2.62892 -1.44526 6
    endloop
  endfacet
  facet normal 0 0 1
    outer loop
      vertex 1.48817 0.188 6
      vertex 1.5 0 6
      vertex 3 0 6
    endloop
  endfacet
  facet normal 0 0 1
    outer loop
      vertex 1.45287 -0.373035 6
      vertex 1.39467 -0.552187 6
      vertex 2.90575 -0.74607 6
    endloop
  endfacet
  facet normal 0 0 1
    outer loop
      vertex -1.39467 0.552187 6
      vertex -1.31446 0.722631 6
      vertex -2.97634 0.376 6
    endloop
  endfacet
  facet normal 0 0 1
    outer loop
      vertex -1.21352 0.881678 6
      vertex -1.09345 1.02682 6
      vertex -2.97634 0.376 6
    endloop
  endfacet
  facet normal 0 0 1
    outer loop
      vertex 1.09345 1.02682 6
      vertex 1.21352 0.881678 6
      vertex 2.78933 1.10437 6
    endloop
  endfacet
  facet normal 0 0 1
    outer loop
      vertex -0.956136 1.15577 6
      vertex -0.80374 1.26649 6
      vertex -2.97634 0.376 6
    endloop
  endfacet
  facet normal 0 0 1
    outer loop
      vertex 0.638669 1.35724 6
      vertex 0.80374 1.26649 6
      vertex 2.42705 1.76336 6
    endloop
  endfacet
  facet normal 0 0 1
    outer loop
      vertex -0.956136 1.15577 6
      vertex -2.97634 0.376 6
      vertex -1.09345 1.02682 6
    endloop
  endfacet
  facet normal 0 0 1
    outer loop
      vertex -0.638669 1.35724 6
      vertex -0.463525 1.42658 6
      vertex 1.60748 2.53298 6
    endloop
  endfacet
  facet normal 0 0 1
    outer loop
      vertex 0.281072 1.47343 6
      vertex 0.463525 1.42658 6
      vertex 2.18691 2.05364 6
    endloop
  endfacet
  facet normal 0 0 1
    outer loop
      vertex -0.638669 1.35724 6
      vertex -2.97634 0.376 6
      vertex -0.80374 1.26649 6
    endloop
  endfacet
  facet normal 0 0 1
    outer loop
      vertex 1.60748 2.53298 6
      vertex -2.97634 0.376 6
      vertex -0.638669 1.35724 6
    endloop
  endfacet
  facet normal 0 0 1
    outer loop
      vertex 1.60748 2.53298 6
      vertex -0.463525 1.42658 6
      vertex 1.91227 2.31154 6
    endloop
  endfacet
  facet normal 0 0 1
    outer loop
      vertex -0.463525 1.42658 6
      vertex -0.281072 1.47343 6
      vertex 1.91227 2.31154 6
    endloop
  endfacet
  facet normal 0 0 1
    outer loop
      vertex 1.91227 2.31154 6
      vertex 0.094186 1.49704 6
      vertex 2.18691 2.05364 6
    endloop
  endfacet
  facet normal 0 0 1
    outer loop
      vertex 0.094186 1.49704 6
      vertex 0.281072 1.47343 6
      vertex 2.18691 2.05364 6
    endloop
  endfacet
  facet normal 0 0 1
    outer loop
      vertex 2.18691 2.05364 6
      vertex 0.463525 1.42658 6
      vertex 2.42705 1.76336 6
    endloop
  endfacet
  facet normal 0 0 1
    outer loop
      vertex 0.463525 1.42658 6
      vertex 0.638669 1.35724 6
      vertex 2.42705 1.76336 6
    endloop
  endfacet
  facet normal 0 0 1
    outer loop
      vertex 2.42705 1.76336 6
      vertex 0.80374 1.26649 6
      vertex 2.62892 1.44526 6
    endloop
  endfacet
  facet normal 0 0 1
    outer loop
      vertex 0.80374 1.26649 6
      vertex 0.956136 1.15577 6
      vertex 2.62892 1.44526 6
    endloop
  endfacet
  facet normal 0 0 1
    outer loop
      vertex 2.62892 1.44526 6
      vertex 1.09345 1.02682 6
      vertex 2.78933 1.10437 6
    endloop
  endfacet
  facet normal 0 0 1
    outer loop
      vertex -1.31446 0.722631 6
      vertex -1.21352 0.881678 6
      vertex -2.97634 0.376 6
    endloop
  endfacet
  facet normal 0 0 1
    outer loop
      vertex 2.78933 1.10437 6
      vertex 1.21352 0.881678 6
      vertex 2.90575 0.74607 6
    endloop
  endfacet
  facet normal 0 0 1
    outer loop
      vertex 1.21352 0.881678 6
      vertex 1.31446 0.722631 6
      vertex 2.90575 0.74607 6
    endloop
  endfacet
  facet normal 0 0 1
    outer loop
      vertex 2.90575 0.74607 6
      vertex 1.39467 0.552187 6
      vertex 2.97634 0.376 6
    endloop
  endfacet
  facet normal 0 0 1
    outer loop
      vertex 1.39467 0.552187 6
      vertex 1.45287 0.373035 6
      vertex 2.97634 0.376 6
    endloop
  endfacet
  facet normal 0 0 1
    outer loop
      vertex 2.97634 0.376 6
      vertex 1.45287 0.373035 6
      vertex 3 0 6
    endloop
  endfacet
  facet normal 0 0 1
    outer loop
      vertex 1.45287 0.373035 6
      vertex 1.48817 0.188 6
      vertex 3 0 6
    endloop
  endfacet
  facet normal 0 0 1
    outer loop
      vertex 3 0 6
      vertex 1.5 0 6
      vertex 2.97634 -0.376 6
    endloop
  endfacet
  facet normal 0 0 1
    outer loop
      vertex 1.5 0 6
      vertex 1.48817 -0.188 6
      vertex 2.97634 -0.376 6
    endloop
  endfacet
  facet normal 0 0 1
    outer loop
      vertex 1.48817 -0.188 6
      vertex 1.45287 -0.373035 6
      vertex 2.90575 -0.74607 6
    endloop
  endfacet
  facet normal 0 0 1
    outer loop
      vertex 2.90575 -0.74607 6
      vertex 1.39467 -0.552187 6
      vertex 2.78933 -1.10437 6
    endloop
  endfacet
  facet normal 0 0 1
    outer loop
      vertex 1.39467 -0.552187 6
      vertex 1.31446 -0.722631 6
      vertex 2.78933 -1.10437 6
    endloop
  endfacet
  facet normal 0 0 1
    outer loop
      vertex 2.78933 -1.10437 6
      vertex 1.21352 -0.881678 6
      vertex 2.62892 -1.44526 6
    endloop
  endfacet
  facet normal 0 0 1
    outer loop
      vertex -1.5 0 6
      vertex -1.48817 0.188 6
      vertex -2.97634 0.376 6
    endloop
  endfacet
  facet normal 0 0 1
    outer loop
      vertex 2.62892 -1.44526 6
      vertex 1.09345 -1.02682 6
      vertex 2.42705 -1.76336 6
    endloop
  endfacet
  facet normal 0 0 1
    outer loop
      vertex 1.09345 -1.02682 6
      vertex 0.956136 -1.15577 6
      vertex 2.42705 -1.76336 6
    endloop
  endfacet
  facet normal 0 0 1
    outer loop
      vertex 2.42705 -1.76336 6
      vertex 0.80374 -1.26649 6
      vertex 2.18691 -2.05364 6
    endloop
  endfacet
  facet normal 0 0 1
    outer loop
      vertex -1.09345 -1.02682 6
      vertex -1.21352 -0.881678 6
      vertex -2.97634 0.376 6
    endloop
  endfacet
  facet normal 0 0 1
    outer loop
      vertex 2.18691 -2.05364 6
      vertex 0.638669 -1.35724 6
      vertex 1.91227 -2.31154 6
    endloop
  endfacet
  facet normal 0 0 1
    outer loop
      vertex -1.48817 -0.188 6
      vertex -1.5 0 6
      vertex -2.97634 0.376 6
    endloop
  endfacet
  facet normal 0 0 1
    outer loop
      vertex 0.638669 -1.35724 6
      vertex 0.463525 -1.42658 6
      vertex 1.91227 -2.31154 6
    endloop
  endfacet
  facet normal 0 0 1
    outer loop
      vertex 1.91227 -2.31154 6
      vertex 0.281072 -1.47343 6
      vertex 1.60748 -2.53298 6
    endloop
  endfacet
  facet normal 0 0 1
    outer loop
      vertex 0.281072 -1.47343 6
      vertex 0.094186 -1.49704 6
      vertex 1.60748 -2.53298 6
    endloop
  endfacet
  facet normal 0 0 1
    outer loop
      vertex 1.60748 -2.53298 6
      vertex -0.094186 -1.49704 6
      vertex 1.27734 -2.71448 6
    endloop
  endfacet
  facet normal 0 0 1
    outer loop
      vertex -1.21352 -0.881678 6
      vertex -1.31446 -0.722631 6
      vertex -2.97634 0.376 6
    endloop
  endfacet
  facet normal 0 0 1
    outer loop
      vertex -0.094186 -1.49704 6
      vertex -0.281072 -1.47343 6
      vertex 1.27734 -2.71448 6
    endloop
  endfacet
  facet normal 0 0 1
    outer loop
      vertex -0.281072 -1.47343 6
      vertex -0.463525 -1.42658 6
      vertex 1.27734 -2.71448 6
    endloop
  endfacet
  facet normal 0 0 1
    outer loop
      vertex 1.27734 -2.71448 6
      vertex -0.638669 -1.35724 6
      vertex 0.927051 -2.85317 6
    endloop
  endfacet
  facet normal 0 0 1
    outer loop
      vertex -0.638669 -1.35724 6
      vertex -0.80374 -1.26649 6
      vertex 0.927051 -2.85317 6
    endloop
  endfacet
  facet normal 0 0 1
    outer loop
      vertex -0.80374 -1.26649 6
      vertex -0.956136 -1.15577 6
      vertex 0.927051 -2.85317 6
    endloop
  endfacet
  facet normal 0 0 1
    outer loop
      vertex -1.31446 -0.722631 6
      vertex -1.39467 -0.552187 6
      vertex -2.97634 0.376 6
    endloop
  endfacet
  facet normal 0 0 1
    outer loop
      vertex -1.39467 -0.552187 6
      vertex -1.45287 -0.373035 6
      vertex -2.97634 0.376 6
    endloop
  endfacet
  facet normal 0 0 1
    outer loop
      vertex 0.463525 -1.42658 6
      vertex 0.281072 -1.47343 6
      vertex 1.91227 -2.31154 6
    endloop
  endfacet
  facet normal 0 0 1
    outer loop
      vertex -1.45287 -0.373035 6
      vertex -1.48817 -0.188 6
      vertex -2.97634 0.376 6
    endloop
  endfacet
endsolid OpenSCAD_Model
