solid OpenSCAD_Model
  facet normal -1 0 0
    outer loop
      vertex -6 -5 -1
      vertex -6 -5 1
      vertex -6 5 -1
    endloop
  endfacet
  facet normal -1 0 0
    outer loop
      vertex -6 5 -1
      vertex -6 -5 1
      vertex -6 5 1
    endloop
  endfacet
  facet normal 0 -1 0
    outer loop
      vertex -6 -5 1
      vertex -6 -5 -1
      vertex 6 -5 -1
    endloop
  endfacet
  facet normal 0 -1 0
    outer loop
      vertex 6 -5 1
      vertex -6 -5 1
      vertex 6 -5 -1
    endloop
  endfacet
  facet normal 0 0 -1
    outer loop
      vertex 0.638669 1.35724 -1
      vertex -6 5 -1
      vertex 6 5 -1
    endloop
  endfacet
  facet normal 0 0 -1
    outer loop
      vertex -6 -5 -1
      vertex -6 5 -1
      vertex -1.5 0 -1
    endloop
  endfacet
  facet normal 0 0 -1
    outer loop
      vertex -6 -5 -1
      vertex -1.5 0 -1
      vertex -1.48817 -0.188 -1
    endloop
  endfacet
  facet normal 0 0 -1
    outer loop
      vertex -6 -5 -1
      vertex -1.48817 -0.188 -1
      vertex -1.45287 -0.373035 -1
    endloop
  endfacet
  facet normal 0 0 -1
    outer loop
      vertex -6 -5 -1
      vertex -1.45287 -0.373035 -1
      vertex -1.39467 -0.552187 -1
    endloop
  endfacet
  facet normal 0 0 -1
    outer loop
      vertex -6 -5 -1
      vertex -1.39467 -0.552187 -1
      vertex -1.31446 -0.722631 -1
    endloop
  endfacet
  facet normal 0 0 -1
    outer loop
      vertex -6 -5 -1
      vertex -1.31446 -0.722631 -1
      vertex -1.21352 -0.881678 -1
    endloop
  endfacet
  facet normal 0 0 -1
    outer loop
      vertex -6 -5 -1
      vertex -1.21352 -0.881678 -1
      vertex -1.09345 -1.02682 -1
    endloop
  endfacet
  facet normal 0 0 -1
    outer loop
      vertex -6 -5 -1
      vertex -1.09345 -1.02682 -1
      vertex -0.956136 -1.15577 -1
    endloop
  endfacet
  facet normal 0 0 -1
    outer loop
      vertex -6 -5 -1
      vertex -0.956136 -1.15577 -1
      vertex -0.80374 -1.26649 -1
    endloop
  endfacet
  facet normal 0 0 -1
    outer loop
      vertex -6 -5 -1
      vertex -0.80374 -1.26649 -1
      vertex -0.638669 -1.35724 -1
    endloop
  endfacet
  facet normal 0 0 -1
    outer loop
      vertex -6 -5 -1
      vertex -0.638669 -1.35724 -1
      vertex 6 -5 -1
    endloop
  endfacet
  facet normal 0 0 -1
    outer loop
      vertex -0.281072 -1.47343 -1
      vertex 6 -5 -1
      vertex -0.463525 -1.42658 -1
    endloop
  endfacet
  facet normal 0 0 -1
    outer loop
      vertex -0.094186 -1.49704 -1
      vertex 6 -5 -1
      vertex -0.281072 -1.47343 -1
    endloop
  endfacet
  facet normal 0 0 -1
    outer loop
      vertex 0.094186 -1.49704 -1
      vertex 6 -5 -1
      vertex -0.094186 -1.49704 -1
    endloop
  endfacet
  facet normal 0 0 -1
    outer loop
      vertex 0.281072 -1.47343 -1
      vertex 6 -5 -1
      vertex 0.094186 -1.49704 -1
    endloop
  endfacet
  facet normal 0 0 -1
    outer loop
      vertex 0.463525 -1.42658 -1
      vertex 6 -5 -1
      vertex 0.281072 -1.47343 -1
    endloop
  endfacet
  facet normal 0 0 -1
    outer loop
      vertex 0.638669 -1.35724 -1
      vertex 6 -5 -1
      vertex 0.463525 -1.42658 -1
    endloop
  endfacet
  facet normal 0 0 -1
    outer loop
      vertex 1.21352 -0.881678 -1
      vertex 6 -5 -1
      vertex 1.09345 -1.02682 -1
    endloop
  endfacet
  facet normal 0 0 -1
    outer loop
      vertex 0.638669 -1.35724 -1
      vertex 0.80374 -1.26649 -1
      vertex 6 -5 -1
    endloop
  endfacet
  facet normal 0 0 -1
    outer loop
      vertex -1.39467 0.552187 -1
      vertex -6 5 -1
      vertex -1.31446 0.722631 -1
    endloop
  endfacet
  facet normal 0 0 -1
    outer loop
      vertex 0.80374 -1.26649 -1
      vertex 0.956136 -1.15577 -1
      vertex 6 -5 -1
    endloop
  endfacet
  facet normal 0 0 -1
    outer loop
      vertex -1.31446 0.722631 -1
      vertex -6 5 -1
      vertex -1.21352 0.881678 -1
    endloop
  endfacet
  facet normal 0 0 -1
    outer loop
      vertex 0.956136 -1.15577 -1
      vertex 1.09345 -1.02682 -1
      vertex 6 -5 -1
    endloop
  endfacet
  facet normal 0 0 -1
    outer loop
      vertex 0.463525 1.42658 -1
      vertex -6 5 -1
      vertex 0.638669 1.35724 -1
    endloop
  endfacet
  facet normal 0 0 -1
    outer loop
      vertex 6 -5 -1
      vertex 1.21352 -0.881678 -1
      vertex 6 5 -1
    endloop
  endfacet
  facet normal 0 0 -1
    outer loop
      vertex -1.21352 0.881678 -1
      vertex -6 5 -1
      vertex -1.09345 1.02682 -1
    endloop
  endfacet
  facet normal 0 0 -1
    outer loop
      vertex 1.21352 -0.881678 -1
      vertex 1.31446 -0.722631 -1
      vertex 6 5 -1
    endloop
  endfacet
  facet normal 0 0 -1
    outer loop
      vertex -1.09345 1.02682 -1
      vertex -6 5 -1
      vertex -0.956136 1.15577 -1
    endloop
  endfacet
  facet normal 0 0 -1
    outer loop
      vertex 1.31446 -0.722631 -1
      vertex 1.39467 -0.552187 -1
      vertex 6 5 -1
    endloop
  endfacet
  facet normal 0 0 -1
    outer loop
      vertex 1.39467 -0.552187 -1
      vertex 1.45287 -0.373035 -1
      vertex 6 5 -1
    endloop
  endfacet
  facet normal 0 0 -1
    outer loop
      vertex -0.956136 1.15577 -1
      vertex -6 5 -1
      vertex -0.80374 1.26649 -1
    endloop
  endfacet
  facet normal 0 0 -1
    outer loop
      vertex 1.45287 -0.373035 -1
      vertex 1.48817 -0.188 -1
      vertex 6 5 -1
    endloop
  endfacet
  facet normal 0 0 -1
    outer loop
      vertex -0.80374 1.26649 -1
      vertex -6 5 -1
      vertex -0.638669 1.35724 -1
    endloop
  endfacet
  facet normal 0 0 -1
    outer loop
      vertex 1.48817 -0.188 -1
      vertex 1.5 0 -1
      vertex 6 5 -1
    endloop
  endfacet
  facet normal 0 0 -1
    outer loop
      vertex -0.638669 1.35724 -1
      vertex -6 5 -1
      vertex -0.463525 1.42658 -1
    endloop
  endfacet
  facet normal 0 0 -1
    outer loop
      vertex 1.5 0 -1
      vertex 1.48817 0.188 -1
      vertex 6 5 -1
    endloop
  endfacet
  facet normal 0 0 -1
    outer loop
      vertex 1.48817 0.188 -1
      vertex 1.45287 0.373035 -1
      vertex 6 5 -1
    endloop
  endfacet
  facet normal 0 0 -1
    outer loop
      vertex -0.463525 1.42658 -1
      vertex -6 5 -1
      vertex -0.281072 1.47343 -1
    endloop
  endfacet
  facet normal 0 0 -1
    outer loop
      vertex 1.45287 0.373035 -1
      vertex 1.39467 0.552187 -1
      vertex 6 5 -1
    endloop
  endfacet
  facet normal 0 0 -1
    outer loop
      vertex -0.281072 1.47343 -1
      vertex -6 5 -1
      vertex -0.094186 1.49704 -1
    endloop
  endfacet
  facet normal 0 0 -1
    outer loop
      vertex 1.39467 0.552187 -1
      vertex 1.31446 0.722631 -1
      vertex 6 5 -1
    endloop
  endfacet
  facet normal 0 0 -1
    outer loop
      vertex -0.094186 1.49704 -1
      vertex -6 5 -1
      vertex 0.094186 1.49704 -1
    endloop
  endfacet
  facet normal 0 0 -1
    outer loop
      vertex 1.31446 0.722631 -1
      vertex 1.21352 0.881678 -1
      vertex 6 5 -1
    endloop
  endfacet
  facet normal 0 0 -1
    outer loop
      vertex 0.094186 1.49704 -1
      vertex -6 5 -1
      vertex 0.281072 1.47343 -1
    endloop
  endfacet
  facet normal 0 0 -1
    outer loop
      vertex 1.21352 0.881678 -1
      vertex 1.09345 1.02682 -1
      vertex 6 5 -1
    endloop
  endfacet
  facet normal 0 0 -1
    outer loop
      vertex 0.281072 1.47343 -1
      vertex -6 5 -1
      vertex 0.463525 1.42658 -1
    endloop
  endfacet
  facet normal 0 0 -1
    outer loop
      vertex 1.09345 1.02682 -1
      vertex 0.956136 1.15577 -1
      vertex 6 5 -1
    endloop
  endfacet
  facet normal 0 0 -1
    outer loop
      vertex 0.956136 1.15577 -1
      vertex 0.80374 1.26649 -1
      vertex 6 5 -1
    endloop
  endfacet
  facet normal 0 0 -1
    outer loop
      vertex 0.80374 1.26649 -1
      vertex 0.638669 1.35724 -1
      vertex 6 5 -1
    endloop
  endfacet
  facet normal 0 0 -1
    outer loop
      vertex -1.45287 0.373035 -1
      vertex -6 5 -1
      vertex -1.39467 0.552187 -1
    endloop
  endfacet
  facet normal 0 0 -1
    outer loop
      vertex -1.48817 0.188 -1
      vertex -6 5 -1
      vertex -1.45287 0.373035 -1
    endloop
  endfacet
  facet normal 0 0 -1
    outer loop
      vertex -1.5 0 -1
      vertex -6 5 -1
      vertex -1.48817 0.188 -1
    endloop
  endfacet
  facet normal 0 0 -1
    outer loop
      vertex -0.463525 -1.42658 -1
      vertex 6 -5 -1
      vertex -0.638669 -1.35724 -1
    endloop
  endfacet
  facet normal 0 1 0
    outer loop
      vertex -6 5 -1
      vertex -6 5 1
      vertex 6 5 -1
    endloop
  endfacet
  facet normal 0 1 0
    outer loop
      vertex 6 5 -1
      vertex -6 5 1
      vertex 6 5 1
    endloop
  endfacet
  facet normal 0 0 1
    outer loop
      vertex 0.313953 -4.99013 1
      vertex -6 -5 1
      vertex 6 -5 1
    endloop
  endfacet
  facet normal 0 0 1
    outer loop
      vertex -0.313953 -4.99013 1
      vertex -0.936907 -4.91144 1
      vertex -6 -5 1
    endloop
  endfacet
  facet normal 0 0 1
    outer loop
      vertex -6 5 1
      vertex -6 -5 1
      vertex -4.96057 -0.626666 1
    endloop
  endfacet
  facet normal 0 0 1
    outer loop
      vertex 3.18712 -3.85257 1
      vertex 2.67913 -4.22164 1
      vertex 6 -5 1
    endloop
  endfacet
  facet normal 0 0 1
    outer loop
      vertex -6 5 1
      vertex -4.96057 -0.626666 1
      vertex -5 0 1
    endloop
  endfacet
  facet normal 0 0 1
    outer loop
      vertex -1.54508 -4.75528 1
      vertex -2.1289 -4.52413 1
      vertex -6 -5 1
    endloop
  endfacet
  facet normal 0 0 1
    outer loop
      vertex -6 5 1
      vertex -5 0 1
      vertex -4.96057 0.626666 1
    endloop
  endfacet
  facet normal 0 0 1
    outer loop
      vertex -6 5 1
      vertex -4.96057 0.626666 1
      vertex -4.84292 1.24345 1
    endloop
  endfacet
  facet normal 0 0 1
    outer loop
      vertex -6 5 1
      vertex -4.84292 1.24345 1
      vertex -4.64888 1.84062 1
    endloop
  endfacet
  facet normal 0 0 1
    outer loop
      vertex -6 5 1
      vertex -4.64888 1.84062 1
      vertex -4.38153 2.40877 1
    endloop
  endfacet
  facet normal 0 0 1
    outer loop
      vertex 0.313953 4.99013 1
      vertex 0.936907 4.91144 1
      vertex 6 5 1
    endloop
  endfacet
  facet normal 0 0 1
    outer loop
      vertex -6 5 1
      vertex -4.38153 2.40877 1
      vertex -4.04508 2.93893 1
    endloop
  endfacet
  facet normal 0 0 1
    outer loop
      vertex -3.18712 3.85257 1
      vertex -6 5 1
      vertex -3.64484 3.42274 1
    endloop
  endfacet
  facet normal 0 0 1
    outer loop
      vertex -2.67913 4.22164 1
      vertex -6 5 1
      vertex -3.18712 3.85257 1
    endloop
  endfacet
  facet normal 0 0 1
    outer loop
      vertex -2.1289 4.52413 1
      vertex -6 5 1
      vertex -2.67913 4.22164 1
    endloop
  endfacet
  facet normal 0 0 1
    outer loop
      vertex -1.54508 4.75528 1
      vertex -6 5 1
      vertex -2.1289 4.52413 1
    endloop
  endfacet
  facet normal 0 0 1
    outer loop
      vertex -0.936907 4.91144 1
      vertex -6 5 1
      vertex -1.54508 4.75528 1
    endloop
  endfacet
  facet normal 0 0 1
    outer loop
      vertex -0.313953 4.99013 1
      vertex -6 5 1
      vertex -0.936907 4.91144 1
    endloop
  endfacet
  facet normal 0 0 1
    outer loop
      vertex 6 5 1
      vertex -6 5 1
      vertex -0.313953 4.99013 1
    endloop
  endfacet
  facet normal 0 0 1
    outer loop
      vertex 0.936907 4.91144 1
      vertex 1.54508 4.75528 1
      vertex 6 5 1
    endloop
  endfacet
  facet normal 0 0 1
    outer loop
      vertex 6 5 1
      vertex -0.313953 4.99013 1
      vertex 0.313953 4.99013 1
    endloop
  endfacet
  facet normal 0 0 1
    outer loop
      vertex 2.1289 4.52413 1
      vertex 2.67913 4.22164 1
      vertex 6 5 1
    endloop
  endfacet
  facet normal 0 0 1
    outer loop
      vertex 4.96057 0.626666 1
      vertex 5 0 1
      vertex 6 -5 1
    endloop
  endfacet
  facet normal 0 0 1
    outer loop
      vertex 6 5 1
      vertex 2.67913 4.22164 1
      vertex 3.18712 3.85257 1
    endloop
  endfacet
  facet normal 0 0 1
    outer loop
      vertex 6 5 1
      vertex 3.18712 3.85257 1
      vertex 3.64484 3.42274 1
    endloop
  endfacet
  facet normal 0 0 1
    outer loop
      vertex 4.84292 -1.24345 1
      vertex 4.64888 -1.84062 1
      vertex 6 -5 1
    endloop
  endfacet
  facet normal 0 0 1
    outer loop
      vertex 6 5 1
      vertex 3.64484 3.42274 1
      vertex 4.04508 2.93893 1
    endloop
  endfacet
  facet normal 0 0 1
    outer loop
      vertex 6 5 1
      vertex 4.04508 2.93893 1
      vertex 4.38153 2.40877 1
    endloop
  endfacet
  facet normal 0 0 1
    outer loop
      vertex 5 0 1
      vertex 4.96057 -0.626666 1
      vertex 6 -5 1
    endloop
  endfacet
  facet normal 0 0 1
    outer loop
      vertex 6 5 1
      vertex 4.38153 2.40877 1
      vertex 4.64888 1.84062 1
    endloop
  endfacet
  facet normal 0 0 1
    outer loop
      vertex 4.96057 -0.626666 1
      vertex 4.84292 -1.24345 1
      vertex 6 -5 1
    endloop
  endfacet
  facet normal 0 0 1
    outer loop
      vertex 6 5 1
      vertex 4.64888 1.84062 1
      vertex 4.84292 1.24345 1
    endloop
  endfacet
  facet normal 0 0 1
    outer loop
      vertex 6 5 1
      vertex 4.96057 0.626666 1
      vertex 6 -5 1
    endloop
  endfacet
  facet normal 0 0 1
    outer loop
      vertex 6 5 1
      vertex 4.84292 1.24345 1
      vertex 4.96057 0.626666 1
    endloop
  endfacet
  facet normal 0 0 1
    outer loop
      vertex 4.64888 -1.84062 1
      vertex 4.38153 -2.40877 1
      vertex 6 -5 1
    endloop
  endfacet
  facet normal 0 0 1
    outer loop
      vertex 4.38153 -2.40877 1
      vertex 4.04508 -2.93893 1
      vertex 6 -5 1
    endloop
  endfacet
  facet normal 0 0 1
    outer loop
      vertex 2.67913 -4.22164 1
      vertex 2.1289 -4.52413 1
      vertex 6 -5 1
    endloop
  endfacet
  facet normal 0 0 1
    outer loop
      vertex 2.1289 -4.52413 1
      vertex 1.54508 -4.75528 1
      vertex 6 -5 1
    endloop
  endfacet
  facet normal 0 0 1
    outer loop
      vertex 1.54508 -4.75528 1
      vertex 0.936907 -4.91144 1
      vertex 6 -5 1
    endloop
  endfacet
  facet normal 0 0 1
    outer loop
      vertex 0.936907 -4.91144 1
      vertex 0.313953 -4.99013 1
      vertex 6 -5 1
    endloop
  endfacet
  facet normal 0 0 1
    outer loop
      vertex -0.313953 -4.99013 1
      vertex -6 -5 1
      vertex 0.313953 -4.99013 1
    endloop
  endfacet
  facet normal 0 0 1
    outer loop
      vertex -0.936907 -4.91144 1
      vertex -1.54508 -4.75528 1
      vertex -6 -5 1
    endloop
  endfacet
  facet normal 0 0 1
    outer loop
      vertex -2.67913 -4.22164 1
      vertex -6 -5 1
      vertex -2.1289 -4.52413 1
    endloop
  endfacet
  facet normal 0 0 1
    outer loop
      vertex -3.18712 -3.85257 1
      vertex -6 -5 1
      vertex -2.67913 -4.22164 1
    endloop
  endfacet
  facet normal 0 0 1
    outer loop
      vertex -3.64484 -3.42274 1
      vertex -6 -5 1
      vertex -3.18712 -3.85257 1
    endloop
  endfacet
  facet normal 0 0 1
    outer loop
      vertex -4.04508 -2.93893 1
      vertex -6 -5 1
      vertex -3.64484 -3.42274 1
    endloop
  endfacet
  facet normal 0 0 1
    outer loop
      vertex -4.38153 -2.40877 1
      vertex -6 -5 1
      vertex -4.04508 -2.93893 1
    endloop
  endfacet
  facet normal 0 0 1
    outer loop
      vertex -4.64888 -1.84062 1
      vertex -6 -5 1
      vertex -4.38153 -2.40877 1
    endloop
  endfacet
  facet normal 0 0 1
    outer loop
      vertex -4.84292 -1.24345 1
      vertex -6 -5 1
      vertex -4.64888 -1.84062 1
    endloop
  endfacet
  facet normal 0 0 1
    outer loop
      vertex -4.96057 -0.626666 1
      vertex -6 -5 1
      vertex -4.84292 -1.24345 1
    endloop
  endfacet
  facet normal 0 0 1
    outer loop
      vertex -4.04508 2.93893 1
      vertex -3.64484 3.42274 1
      vertex -6 5 1
    endloop
  endfacet
  facet normal 0 0 1
    outer loop
      vertex 1.54508 4.75528 1
      vertex 2.1289 4.52413 1
      vertex 6 5 1
    endloop
  endfacet
  facet normal 0 0 1
    outer loop
      vertex 4.04508 -2.93893 1
      vertex 3.64484 -3.42274 1
      vertex 6 -5 1
    endloop
  endfacet
  facet normal 0 0 1
    outer loop
      vertex 3.64484 -3.42274 1
      vertex 3.18712 -3.85257 1
      vertex 6 -5 1
    endloop
  endfacet
  facet normal 1 0 0
    outer loop
      vertex 6 -5 1
      vertex 6 -5 -1
      vertex 6 5 -1
    endloop
  endfacet
  facet normal 1 0 0
    outer loop
      vertex 6 5 1
      vertex 6 -5 1
      vertex 6 5 -1
    endloop
  endfacet
  facet normal 0.998027 -0.0627907 0
    outer loop
      vertex -1.48817 0.188 -1
      vertex -1.48817 0.188 0.25
      vertex -1.5 0 0.25
    endloop
  endfacet
  facet normal 0.998027 -0.0627907 0
    outer loop
      vertex -1.5 0 -1
      vertex -1.48817 0.188 -1
      vertex -1.5 0 0.25
    endloop
  endfacet
  facet normal 0.998027 0.0627907 0
    outer loop
      vertex -1.5 0 0.25
      vertex -1.48817 -0.188 0.25
      vertex -1.48817 -0.188 -1
    endloop
  endfacet
  facet normal 0.998027 0.0627907 0
    outer loop
      vertex -1.5 0 -1
      vertex -1.5 0 0.25
      vertex -1.48817 -0.188 -1
    endloop
  endfacet
  facet normal 0.982288 -0.18738 0
    outer loop
      vertex -1.45287 0.373035 -1
      vertex -1.45287 0.373035 0.25
      vertex -1.48817 0.188 0.25
    endloop
  endfacet
  facet normal 0.982288 -0.18738 0
    outer loop
      vertex -1.48817 0.188 -1
      vertex -1.45287 0.373035 -1
      vertex -1.48817 0.188 0.25
    endloop
  endfacet
  facet normal 0.951057 -0.309017 0
    outer loop
      vertex -1.39467 0.552187 -1
      vertex -1.39467 0.552187 0.25
      vertex -1.45287 0.373035 0.25
    endloop
  endfacet
  facet normal 0.951057 -0.309017 0
    outer loop
      vertex -1.45287 0.373035 -1
      vertex -1.39467 0.552187 -1
      vertex -1.45287 0.373035 0.25
    endloop
  endfacet
  facet normal 0.904827 -0.42578 0
    outer loop
      vertex -1.31446 0.722631 -1
      vertex -1.31446 0.722631 0.25
      vertex -1.39467 0.552187 0.25
    endloop
  endfacet
  facet normal 0.904827 -0.42578 0
    outer loop
      vertex -1.39467 0.552187 -1
      vertex -1.31446 0.722631 -1
      vertex -1.39467 0.552187 0.25
    endloop
  endfacet
  facet normal 0.844326 -0.535829 0
    outer loop
      vertex -1.21352 0.881678 -1
      vertex -1.21352 0.881678 0.25
      vertex -1.31446 0.722631 0.25
    endloop
  endfacet
  facet normal 0.844326 -0.535829 0
    outer loop
      vertex -1.31446 0.722631 -1
      vertex -1.21352 0.881678 -1
      vertex -1.31446 0.722631 0.25
    endloop
  endfacet
  facet normal 0.770515 -0.637422 0
    outer loop
      vertex -1.09345 1.02682 -1
      vertex -1.09345 1.02682 0.25
      vertex -1.21352 0.881678 0.25
    endloop
  endfacet
  facet normal 0.770515 -0.637422 0
    outer loop
      vertex -1.21352 0.881678 -1
      vertex -1.09345 1.02682 -1
      vertex -1.21352 0.881678 0.25
    endloop
  endfacet
  facet normal 0.684546 -0.728969 0
    outer loop
      vertex -0.956136 1.15577 -1
      vertex -0.956136 1.15577 0.25
      vertex -1.09345 1.02682 0.25
    endloop
  endfacet
  facet normal 0.684546 -0.728969 0
    outer loop
      vertex -1.09345 1.02682 -1
      vertex -0.956136 1.15577 -1
      vertex -1.09345 1.02682 0.25
    endloop
  endfacet
  facet normal 0.587785 -0.809017 0
    outer loop
      vertex -0.80374 1.26649 -1
      vertex -0.80374 1.26649 0.25
      vertex -0.956136 1.15577 0.25
    endloop
  endfacet
  facet normal 0.587785 -0.809017 0
    outer loop
      vertex -0.956136 1.15577 -1
      vertex -0.80374 1.26649 -1
      vertex -0.956136 1.15577 0.25
    endloop
  endfacet
  facet normal 0.481756 -0.876306 0
    outer loop
      vertex -0.638669 1.35724 -1
      vertex -0.638669 1.35724 0.25
      vertex -0.80374 1.26649 0.25
    endloop
  endfacet
  facet normal 0.481756 -0.876306 0
    outer loop
      vertex -0.80374 1.26649 -1
      vertex -0.638669 1.35724 -1
      vertex -0.80374 1.26649 0.25
    endloop
  endfacet
  facet normal 0.368123 -0.929777 0
    outer loop
      vertex -0.463525 1.42658 -1
      vertex -0.463525 1.42658 0.25
      vertex -0.638669 1.35724 0.25
    endloop
  endfacet
  facet normal 0.368123 -0.929777 0
    outer loop
      vertex -0.638669 1.35724 -1
      vertex -0.463525 1.42658 -1
      vertex -0.638669 1.35724 0.25
    endloop
  endfacet
  facet normal 0.24869 -0.968583 0
    outer loop
      vertex -0.281072 1.47343 -1
      vertex -0.281072 1.47343 0.25
      vertex -0.463525 1.42658 0.25
    endloop
  endfacet
  facet normal 0.24869 -0.968583 0
    outer loop
      vertex -0.463525 1.42658 -1
      vertex -0.281072 1.47343 -1
      vertex -0.463525 1.42658 0.25
    endloop
  endfacet
  facet normal 0.125332 -0.992115 0
    outer loop
      vertex -0.094186 1.49704 -1
      vertex -0.094186 1.49704 0.25
      vertex -0.281072 1.47343 0.25
    endloop
  endfacet
  facet normal 0.125332 -0.992115 0
    outer loop
      vertex -0.281072 1.47343 -1
      vertex -0.094186 1.49704 -1
      vertex -0.281072 1.47343 0.25
    endloop
  endfacet
  facet normal 0 -1 0
    outer loop
      vertex 0.094186 1.49704 -1
      vertex 0.094186 1.49704 0.25
      vertex -0.094186 1.49704 0.25
    endloop
  endfacet
  facet normal 0 -1 0
    outer loop
      vertex -0.094186 1.49704 -1
      vertex 0.094186 1.49704 -1
      vertex -0.094186 1.49704 0.25
    endloop
  endfacet
  facet normal -0.125332 -0.992115 0
    outer loop
      vertex 0.281072 1.47343 -1
      vertex 0.281072 1.47343 0.25
      vertex 0.094186 1.49704 0.25
    endloop
  endfacet
  facet normal -0.125332 -0.992115 0
    outer loop
      vertex 0.094186 1.49704 -1
      vertex 0.281072 1.47343 -1
      vertex 0.094186 1.49704 0.25
    endloop
  endfacet
  facet normal -0.24869 -0.968583 0
    outer loop
      vertex 0.463525 1.42658 -1
      vertex 0.463525 1.42658 0.25
      vertex 0.281072 1.47343 0.25
    endloop
  endfacet
  facet normal -0.24869 -0.968583 0
    outer loop
      vertex 0.281072 1.47343 -1
      vertex 0.463525 1.42658 -1
      vertex 0.281072 1.47343 0.25
    endloop
  endfacet
  facet normal -0.368123 -0.929777 0
    outer loop
      vertex 0.638669 1.35724 -1
      vertex 0.638669 1.35724 0.25
      vertex 0.463525 1.42658 0.25
    endloop
  endfacet
  facet normal -0.368123 -0.929777 0
    outer loop
      vertex 0.463525 1.42658 -1
      vertex 0.638669 1.35724 -1
      vertex 0.463525 1.42658 0.25
    endloop
  endfacet
  facet normal -0.481756 -0.876306 0
    outer loop
      vertex 0.80374 1.26649 -1
      vertex 0.80374 1.26649 0.25
      vertex 0.638669 1.35724 0.25
    endloop
  endfacet
  facet normal -0.481756 -0.876306 0
    outer loop
      vertex 0.638669 1.35724 -1
      vertex 0.80374 1.26649 -1
      vertex 0.638669 1.35724 0.25
    endloop
  endfacet
  facet normal -0.587785 -0.809017 0
    outer loop
      vertex 0.956136 1.15577 -1
      vertex 0.956136 1.15577 0.25
      vertex 0.80374 1.26649 0.25
    endloop
  endfacet
  facet normal -0.587785 -0.809017 0
    outer loop
      vertex 0.80374 1.26649 -1
      vertex 0.956136 1.15577 -1
      vertex 0.80374 1.26649 0.25
    endloop
  endfacet
  facet normal -0.684546 -0.728969 0
    outer loop
      vertex 1.09345 1.02682 -1
      vertex 1.09345 1.02682 0.25
      vertex 0.956136 1.15577 0.25
    endloop
  endfacet
  facet normal -0.684546 -0.728969 0
    outer loop
      vertex 0.956136 1.15577 -1
      vertex 1.09345 1.02682 -1
      vertex 0.956136 1.15577 0.25
    endloop
  endfacet
  facet normal -0.770515 -0.637422 0
    outer loop
      vertex 1.21352 0.881678 0.25
      vertex 1.09345 1.02682 0.25
      vertex 1.21352 0.881678 -1
    endloop
  endfacet
  facet normal -0.770515 -0.637422 0
    outer loop
      vertex 1.21352 0.881678 -1
      vertex 1.09345 1.02682 0.25
      vertex 1.09345 1.02682 -1
    endloop
  endfacet
  facet normal -0.844326 -0.535829 0
    outer loop
      vertex 1.31446 0.722631 0.25
      vertex 1.21352 0.881678 0.25
      vertex 1.31446 0.722631 -1
    endloop
  endfacet
  facet normal -0.844326 -0.535829 0
    outer loop
      vertex 1.31446 0.722631 -1
      vertex 1.21352 0.881678 0.25
      vertex 1.21352 0.881678 -1
    endloop
  endfacet
  facet normal -0.904827 -0.42578 0
    outer loop
      vertex 1.39467 0.552187 0.25
      vertex 1.31446 0.722631 0.25
      vertex 1.39467 0.552187 -1
    endloop
  endfacet
  facet normal -0.904827 -0.42578 0
    outer loop
      vertex 1.39467 0.552187 -1
      vertex 1.31446 0.722631 0.25
      vertex 1.31446 0.722631 -1
    endloop
  endfacet
  facet normal -0.951057 -0.309017 0
    outer loop
      vertex 1.45287 0.373035 0.25
      vertex 1.39467 0.552187 0.25
      vertex 1.45287 0.373035 -1
    endloop
  endfacet
  facet normal -0.951057 -0.309017 0
    outer loop
      vertex 1.45287 0.373035 -1
      vertex 1.39467 0.552187 0.25
      vertex 1.39467 0.552187 -1
    endloop
  endfacet
  facet normal -0.982288 -0.18738 0
    outer loop
      vertex 1.48817 0.188 0.25
      vertex 1.45287 0.373035 0.25
      vertex 1.48817 0.188 -1
    endloop
  endfacet
  facet normal -0.982288 -0.18738 0
    outer loop
      vertex 1.48817 0.188 -1
      vertex 1.45287 0.373035 0.25
      vertex 1.45287 0.373035 -1
    endloop
  endfacet
  facet normal -0.998027 -0.0627907 0
    outer loop
      vertex 1.5 0 0.25
      vertex 1.48817 0.188 0.25
      vertex 1.5 0 -1
    endloop
  endfacet
  facet normal -0.998027 -0.0627907 0
    outer loop
      vertex 1.5 0 -1
      vertex 1.48817 0.188 0.25
      vertex 1.48817 0.188 -1
    endloop
  endfacet
  facet normal -0.998027 0.0627907 0
    outer loop
      vertex 1.5 0 0.25
      vertex 1.5 0 -1
      vertex 1.48817 -0.188 0.25
    endloop
  endfacet
  facet normal -0.998027 0.0627907 0
    outer loop
      vertex 1.48817 -0.188 0.25
      vertex 1.5 0 -1
      vertex 1.48817 -0.188 -1
    endloop
  endfacet
  facet normal -0.982288 0.18738 0
    outer loop
      vertex 1.48817 -0.188 0.25
      vertex 1.48817 -0.188 -1
      vertex 1.45287 -0.373035 0.25
    endloop
  endfacet
  facet normal -0.982288 0.18738 0
    outer loop
      vertex 1.45287 -0.373035 0.25
      vertex 1.48817 -0.188 -1
      vertex 1.45287 -0.373035 -1
    endloop
  endfacet
  facet normal -0.951057 0.309017 0
    outer loop
      vertex 1.45287 -0.373035 0.25
      vertex 1.45287 -0.373035 -1
      vertex 1.39467 -0.552187 0.25
    endloop
  endfacet
  facet normal -0.951057 0.309017 0
    outer loop
      vertex 1.39467 -0.552187 0.25
      vertex 1.45287 -0.373035 -1
      vertex 1.39467 -0.552187 -1
    endloop
  endfacet
  facet normal -0.904827 0.42578 0
    outer loop
      vertex 1.39467 -0.552187 0.25
      vertex 1.39467 -0.552187 -1
      vertex 1.31446 -0.722631 0.25
    endloop
  endfacet
  facet normal -0.904827 0.42578 0
    outer loop
      vertex 1.31446 -0.722631 0.25
      vertex 1.39467 -0.552187 -1
      vertex 1.31446 -0.722631 -1
    endloop
  endfacet
  facet normal -0.844326 0.535829 0
    outer loop
      vertex 1.31446 -0.722631 0.25
      vertex 1.31446 -0.722631 -1
      vertex 1.21352 -0.881678 0.25
    endloop
  endfacet
  facet normal -0.844326 0.535829 0
    outer loop
      vertex 1.21352 -0.881678 0.25
      vertex 1.31446 -0.722631 -1
      vertex 1.21352 -0.881678 -1
    endloop
  endfacet
  facet normal -0.770515 0.637422 0
    outer loop
      vertex 1.21352 -0.881678 0.25
      vertex 1.21352 -0.881678 -1
      vertex 1.09345 -1.02682 0.25
    endloop
  endfacet
  facet normal -0.770515 0.637422 0
    outer loop
      vertex 1.09345 -1.02682 0.25
      vertex 1.21352 -0.881678 -1
      vertex 1.09345 -1.02682 -1
    endloop
  endfacet
  facet normal -0.684546 0.728969 0
    outer loop
      vertex 1.09345 -1.02682 0.25
      vertex 1.09345 -1.02682 -1
      vertex 0.956136 -1.15577 0.25
    endloop
  endfacet
  facet normal -0.684546 0.728969 0
    outer loop
      vertex 0.956136 -1.15577 0.25
      vertex 1.09345 -1.02682 -1
      vertex 0.956136 -1.15577 -1
    endloop
  endfacet
  facet normal -0.587785 0.809017 0
    outer loop
      vertex 0.956136 -1.15577 0.25
      vertex 0.956136 -1.15577 -1
      vertex 0.80374 -1.26649 0.25
    endloop
  endfacet
  facet normal -0.587785 0.809017 0
    outer loop
      vertex 0.80374 -1.26649 0.25
      vertex 0.956136 -1.15577 -1
      vertex 0.80374 -1.26649 -1
    endloop
  endfacet
  facet normal -0.481756 0.876306 0
    outer loop
      vertex 0.80374 -1.26649 0.25
      vertex 0.80374 -1.26649 -1
      vertex 0.638669 -1.35724 0.25
    endloop
  endfacet
  facet normal -0.481756 0.876306 0
    outer loop
      vertex 0.638669 -1.35724 0.25
      vertex 0.80374 -1.26649 -1
      vertex 0.638669 -1.35724 -1
    endloop
  endfacet
  facet normal -0.368123 0.929777 0
    outer loop
      vertex 0.638669 -1.35724 0.25
      vertex 0.638669 -1.35724 -1
      vertex 0.463525 -1.42658 0.25
    endloop
  endfacet
  facet normal -0.368123 0.929777 0
    outer loop
      vertex 0.463525 -1.42658 0.25
      vertex 0.638669 -1.35724 -1
      vertex 0.463525 -1.42658 -1
    endloop
  endfacet
  facet normal -0.24869 0.968583 0
    outer loop
      vertex 0.463525 -1.42658 0.25
      vertex 0.463525 -1.42658 -1
      vertex 0.281072 -1.47343 0.25
    endloop
  endfacet
  facet normal -0.24869 0.968583 0
    outer loop
      vertex 0.281072 -1.47343 0.25
      vertex 0.463525 -1.42658 -1
      vertex 0.281072 -1.47343 -1
    endloop
  endfacet
  facet normal -0.125332 0.992115 0
    outer loop
      vertex 0.281072 -1.47343 0.25
      vertex 0.281072 -1.47343 -1
      vertex 0.094186 -1.49704 0.25
    endloop
  endfacet
  facet normal -0.125332 0.992115 0
    outer loop
      vertex 0.094186 -1.49704 0.25
      vertex 0.281072 -1.47343 -1
      vertex 0.094186 -1.49704 -1
    endloop
  endfacet
  facet normal 0 1 0
    outer loop
      vertex 0.094186 -1.49704 0.25
      vertex 0.094186 -1.49704 -1
      vertex -0.094186 -1.49704 0.25
    endloop
  endfacet
  facet normal 0 1 0
    outer loop
      vertex -0.094186 -1.49704 0.25
      vertex 0.094186 -1.49704 -1
      vertex -0.094186 -1.49704 -1
    endloop
  endfacet
  facet normal 0.125332 0.992115 0
    outer loop
      vertex -0.094186 -1.49704 0.25
      vertex -0.094186 -1.49704 -1
      vertex -0.281072 -1.47343 0.25
    endloop
  endfacet
  facet normal 0.125332 0.992115 0
    outer loop
      vertex -0.281072 -1.47343 0.25
      vertex -0.094186 -1.49704 -1
      vertex -0.281072 -1.47343 -1
    endloop
  endfacet
  facet normal 0.24869 0.968583 0
    outer loop
      vertex -0.281072 -1.47343 0.25
      vertex -0.281072 -1.47343 -1
      vertex -0.463525 -1.42658 0.25
    endloop
  endfacet
  facet normal 0.24869 0.968583 0
    outer loop
      vertex -0.463525 -1.42658 0.25
      vertex -0.281072 -1.47343 -1
      vertex -0.463525 -1.42658 -1
    endloop
  endfacet
  facet normal 0.368123 0.929777 0
    outer loop
      vertex -0.463525 -1.42658 0.25
      vertex -0.463525 -1.42658 -1
      vertex -0.638669 -1.35724 0.25
    endloop
  endfacet
  facet normal 0.368123 0.929777 0
    outer loop
      vertex -0.638669 -1.35724 0.25
      vertex -0.463525 -1.42658 -1
      vertex -0.638669 -1.35724 -1
    endloop
  endfacet
  facet normal 0.481756 0.876306 0
    outer loop
      vertex -0.638669 -1.35724 0.25
      vertex -0.638669 -1.35724 -1
      vertex -0.80374 -1.26649 0.25
    endloop
  endfacet
  facet normal 0.481756 0.876306 0
    outer loop
      vertex -0.80374 -1.26649 0.25
      vertex -0.638669 -1.35724 -1
      vertex -0.80374 -1.26649 -1
    endloop
  endfacet
  facet normal 0.587785 0.809017 0
    outer loop
      vertex -0.80374 -1.26649 0.25
      vertex -0.80374 -1.26649 -1
      vertex -0.956136 -1.15577 0.25
    endloop
  endfacet
  facet normal 0.587785 0.809017 0
    outer loop
      vertex -0.956136 -1.15577 0.25
      vertex -0.80374 -1.26649 -1
      vertex -0.956136 -1.15577 -1
    endloop
  endfacet
  facet normal 0.684546 0.728969 0
    outer loop
      vertex -0.956136 -1.15577 0.25
      vertex -0.956136 -1.15577 -1
      vertex -1.09345 -1.02682 0.25
    endloop
  endfacet
  facet normal 0.684546 0.728969 0
    outer loop
      vertex -1.09345 -1.02682 0.25
      vertex -0.956136 -1.15577 -1
      vertex -1.09345 -1.02682 -1
    endloop
  endfacet
  facet normal 0.770515 0.637422 0
    outer loop
      vertex -1.21352 -0.881678 0.25
      vertex -1.09345 -1.02682 0.25
      vertex -1.09345 -1.02682 -1
    endloop
  endfacet
  facet normal 0.770515 0.637422 0
    outer loop
      vertex -1.21352 -0.881678 -1
      vertex -1.21352 -0.881678 0.25
      vertex -1.09345 -1.02682 -1
    endloop
  endfacet
  facet normal 0.844326 0.535829 0
    outer loop
      vertex -1.31446 -0.722631 0.25
      vertex -1.21352 -0.881678 0.25
      vertex -1.21352 -0.881678 -1
    endloop
  endfacet
  facet normal 0.844326 0.535829 0
    outer loop
      vertex -1.31446 -0.722631 -1
      vertex -1.31446 -0.722631 0.25
      vertex -1.21352 -0.881678 -1
    endloop
  endfacet
  facet normal 0.904827 0.42578 0
    outer loop
      vertex -1.39467 -0.552187 0.25
      vertex -1.31446 -0.722631 0.25
      vertex -1.31446 -0.722631 -1
    endloop
  endfacet
  facet normal 0.904827 0.42578 0
    outer loop
      vertex -1.39467 -0.552187 -1
      vertex -1.39467 -0.552187 0.25
      vertex -1.31446 -0.722631 -1
    endloop
  endfacet
  facet normal 0.951057 0.309017 0
    outer loop
      vertex -1.45287 -0.373035 0.25
      vertex -1.39467 -0.552187 0.25
      vertex -1.39467 -0.552187 -1
    endloop
  endfacet
  facet normal 0.951057 0.309017 0
    outer loop
      vertex -1.45287 -0.373035 -1
      vertex -1.45287 -0.373035 0.25
      vertex -1.39467 -0.552187 -1
    endloop
  endfacet
  facet normal 0.982288 0.18738 0
    outer loop
      vertex -1.48817 -0.188 0.25
      vertex -1.45287 -0.373035 0.25
      vertex -1.45287 -0.373035 -1
    endloop
  endfacet
  facet normal 0.982288 0.18738 0
    outer loop
      vertex -1.48817 -0.188 -1
      vertex -1.48817 -0.188 0.25
      vertex -1.45287 -0.373035 -1
    endloop
  endfacet
  facet normal -0.998027 -0.0627898 0
    outer loop
      vertex -5 0 1
      vertex -4.96057 -0.626666 1
      vertex -5 0 3.25
    endloop
  endfacet
  facet normal -0.998027 -0.0627898 0
    outer loop
      vertex -5 0 3.25
      vertex -4.96057 -0.626666 1
      vertex -4.96057 -0.626666 3.25
    endloop
  endfacet
  facet normal -0.982287 -0.187382 0
    outer loop
      vertex -4.96057 -0.626666 1
      vertex -4.84292 -1.24345 1
      vertex -4.96057 -0.626666 3.25
    endloop
  endfacet
  facet normal -0.982287 -0.187382 0
    outer loop
      vertex -4.96057 -0.626666 3.25
      vertex -4.84292 -1.24345 1
      vertex -4.84292 -1.24345 3.25
    endloop
  endfacet
  facet normal -0.951056 -0.309018 0
    outer loop
      vertex -4.84292 -1.24345 1
      vertex -4.64888 -1.84062 1
      vertex -4.84292 -1.24345 3.25
    endloop
  endfacet
  facet normal -0.951056 -0.309018 0
    outer loop
      vertex -4.84292 -1.24345 3.25
      vertex -4.64888 -1.84062 1
      vertex -4.64888 -1.84062 3.25
    endloop
  endfacet
  facet normal -0.904827 -0.42578 0
    outer loop
      vertex -4.64888 -1.84062 1
      vertex -4.38153 -2.40877 1
      vertex -4.64888 -1.84062 3.25
    endloop
  endfacet
  facet normal -0.904827 -0.42578 0
    outer loop
      vertex -4.64888 -1.84062 3.25
      vertex -4.38153 -2.40877 1
      vertex -4.38153 -2.40877 3.25
    endloop
  endfacet
  facet normal -0.844328 -0.535826 0
    outer loop
      vertex -4.38153 -2.40877 1
      vertex -4.04508 -2.93893 1
      vertex -4.38153 -2.40877 3.25
    endloop
  endfacet
  facet normal -0.844328 -0.535826 0
    outer loop
      vertex -4.38153 -2.40877 3.25
      vertex -4.04508 -2.93893 1
      vertex -4.04508 -2.93893 3.25
    endloop
  endfacet
  facet normal -0.770514 -0.637424 0
    outer loop
      vertex -4.04508 -2.93893 1
      vertex -3.64484 -3.42274 1
      vertex -4.04508 -2.93893 3.25
    endloop
  endfacet
  facet normal -0.770514 -0.637424 0
    outer loop
      vertex -4.04508 -2.93893 3.25
      vertex -3.64484 -3.42274 1
      vertex -3.64484 -3.42274 3.25
    endloop
  endfacet
  facet normal -0.684547 -0.728969 0
    outer loop
      vertex -3.64484 -3.42274 3.25
      vertex -3.64484 -3.42274 1
      vertex -3.18712 -3.85257 1
    endloop
  endfacet
  facet normal -0.684547 -0.728969 0
    outer loop
      vertex -3.18712 -3.85257 3.25
      vertex -3.64484 -3.42274 3.25
      vertex -3.18712 -3.85257 1
    endloop
  endfacet
  facet normal -0.587786 -0.809017 0
    outer loop
      vertex -3.18712 -3.85257 3.25
      vertex -3.18712 -3.85257 1
      vertex -2.67913 -4.22164 1
    endloop
  endfacet
  facet normal -0.587786 -0.809017 0
    outer loop
      vertex -2.67913 -4.22164 3.25
      vertex -3.18712 -3.85257 3.25
      vertex -2.67913 -4.22164 1
    endloop
  endfacet
  facet normal -0.481753 -0.876307 0
    outer loop
      vertex -2.67913 -4.22164 3.25
      vertex -2.67913 -4.22164 1
      vertex -2.1289 -4.52413 1
    endloop
  endfacet
  facet normal -0.481753 -0.876307 0
    outer loop
      vertex -2.1289 -4.52413 3.25
      vertex -2.67913 -4.22164 3.25
      vertex -2.1289 -4.52413 1
    endloop
  endfacet
  facet normal -0.368126 -0.929776 0
    outer loop
      vertex -2.1289 -4.52413 3.25
      vertex -2.1289 -4.52413 1
      vertex -1.54508 -4.75528 1
    endloop
  endfacet
  facet normal -0.368126 -0.929776 0
    outer loop
      vertex -1.54508 -4.75528 3.25
      vertex -2.1289 -4.52413 3.25
      vertex -1.54508 -4.75528 1
    endloop
  endfacet
  facet normal -0.248689 -0.968583 0
    outer loop
      vertex -1.54508 -4.75528 3.25
      vertex -1.54508 -4.75528 1
      vertex -0.936907 -4.91144 1
    endloop
  endfacet
  facet normal -0.248689 -0.968583 0
    outer loop
      vertex -0.936907 -4.91144 3.25
      vertex -1.54508 -4.75528 3.25
      vertex -0.936907 -4.91144 1
    endloop
  endfacet
  facet normal -0.125334 -0.992115 0
    outer loop
      vertex -0.936907 -4.91144 3.25
      vertex -0.936907 -4.91144 1
      vertex -0.313953 -4.99013 1
    endloop
  endfacet
  facet normal -0.125334 -0.992115 0
    outer loop
      vertex -0.313953 -4.99013 3.25
      vertex -0.936907 -4.91144 3.25
      vertex -0.313953 -4.99013 1
    endloop
  endfacet
  facet normal 0 -1 0
    outer loop
      vertex -0.313953 -4.99013 3.25
      vertex -0.313953 -4.99013 1
      vertex 0.313953 -4.99013 1
    endloop
  endfacet
  facet normal 0 -1 0
    outer loop
      vertex 0.313953 -4.99013 3.25
      vertex -0.313953 -4.99013 3.25
      vertex 0.313953 -4.99013 1
    endloop
  endfacet
  facet normal 0.125334 -0.992115 0
    outer loop
      vertex 0.313953 -4.99013 3.25
      vertex 0.313953 -4.99013 1
      vertex 0.936907 -4.91144 1
    endloop
  endfacet
  facet normal 0.125334 -0.992115 0
    outer loop
      vertex 0.936907 -4.91144 3.25
      vertex 0.313953 -4.99013 3.25
      vertex 0.936907 -4.91144 1
    endloop
  endfacet
  facet normal 0.248689 -0.968583 0
    outer loop
      vertex 0.936907 -4.91144 3.25
      vertex 0.936907 -4.91144 1
      vertex 1.54508 -4.75528 1
    endloop
  endfacet
  facet normal 0.248689 -0.968583 0
    outer loop
      vertex 1.54508 -4.75528 3.25
      vertex 0.936907 -4.91144 3.25
      vertex 1.54508 -4.75528 1
    endloop
  endfacet
  facet normal 0.368126 -0.929776 0
    outer loop
      vertex 1.54508 -4.75528 3.25
      vertex 1.54508 -4.75528 1
      vertex 2.1289 -4.52413 1
    endloop
  endfacet
  facet normal 0.368126 -0.929776 0
    outer loop
      vertex 2.1289 -4.52413 3.25
      vertex 1.54508 -4.75528 3.25
      vertex 2.1289 -4.52413 1
    endloop
  endfacet
  facet normal 0.481753 -0.876307 0
    outer loop
      vertex 2.1289 -4.52413 3.25
      vertex 2.1289 -4.52413 1
      vertex 2.67913 -4.22164 1
    endloop
  endfacet
  facet normal 0.481753 -0.876307 0
    outer loop
      vertex 2.67913 -4.22164 3.25
      vertex 2.1289 -4.52413 3.25
      vertex 2.67913 -4.22164 1
    endloop
  endfacet
  facet normal 0.587786 -0.809017 0
    outer loop
      vertex 2.67913 -4.22164 3.25
      vertex 2.67913 -4.22164 1
      vertex 3.18712 -3.85257 1
    endloop
  endfacet
  facet normal 0.587786 -0.809017 0
    outer loop
      vertex 3.18712 -3.85257 3.25
      vertex 2.67913 -4.22164 3.25
      vertex 3.18712 -3.85257 1
    endloop
  endfacet
  facet normal 0.684547 -0.728969 0
    outer loop
      vertex 3.18712 -3.85257 3.25
      vertex 3.18712 -3.85257 1
      vertex 3.64484 -3.42274 1
    endloop
  endfacet
  facet normal 0.684547 -0.728969 0
    outer loop
      vertex 3.64484 -3.42274 3.25
      vertex 3.18712 -3.85257 3.25
      vertex 3.64484 -3.42274 1
    endloop
  endfacet
  facet normal 0.770514 -0.637424 0
    outer loop
      vertex 3.64484 -3.42274 3.25
      vertex 3.64484 -3.42274 1
      vertex 4.04508 -2.93893 1
    endloop
  endfacet
  facet normal 0.770514 -0.637424 0
    outer loop
      vertex 4.04508 -2.93893 3.25
      vertex 3.64484 -3.42274 3.25
      vertex 4.04508 -2.93893 1
    endloop
  endfacet
  facet normal 0.844328 -0.535826 0
    outer loop
      vertex 4.04508 -2.93893 3.25
      vertex 4.04508 -2.93893 1
      vertex 4.38153 -2.40877 1
    endloop
  endfacet
  facet normal 0.844328 -0.535826 0
    outer loop
      vertex 4.38153 -2.40877 3.25
      vertex 4.04508 -2.93893 3.25
      vertex 4.38153 -2.40877 1
    endloop
  endfacet
  facet normal 0.904827 -0.42578 0
    outer loop
      vertex 4.38153 -2.40877 3.25
      vertex 4.38153 -2.40877 1
      vertex 4.64888 -1.84062 1
    endloop
  endfacet
  facet normal 0.904827 -0.42578 0
    outer loop
      vertex 4.64888 -1.84062 3.25
      vertex 4.38153 -2.40877 3.25
      vertex 4.64888 -1.84062 1
    endloop
  endfacet
  facet normal 0.951056 -0.309018 0
    outer loop
      vertex 4.64888 -1.84062 3.25
      vertex 4.64888 -1.84062 1
      vertex 4.84292 -1.24345 1
    endloop
  endfacet
  facet normal 0.951056 -0.309018 0
    outer loop
      vertex 4.84292 -1.24345 3.25
      vertex 4.64888 -1.84062 3.25
      vertex 4.84292 -1.24345 1
    endloop
  endfacet
  facet normal 0.982287 -0.187382 0
    outer loop
      vertex 4.84292 -1.24345 3.25
      vertex 4.84292 -1.24345 1
      vertex 4.96057 -0.626666 1
    endloop
  endfacet
  facet normal 0.982287 -0.187382 0
    outer loop
      vertex 4.96057 -0.626666 3.25
      vertex 4.84292 -1.24345 3.25
      vertex 4.96057 -0.626666 1
    endloop
  endfacet
  facet normal 0.998027 -0.0627898 0
    outer loop
      vertex 4.96057 -0.626666 3.25
      vertex 4.96057 -0.626666 1
      vertex 5 0 1
    endloop
  endfacet
  facet normal 0.998027 -0.0627898 0
    outer loop
      vertex 5 0 3.25
      vertex 4.96057 -0.626666 3.25
      vertex 5 0 1
    endloop
  endfacet
  facet normal 0.998027 0.0627898 0
    outer loop
      vertex 5 0 1
      vertex 4.96057 0.626666 1
      vertex 4.96057 0.626666 3.25
    endloop
  endfacet
  facet normal 0.998027 0.0627898 0
    outer loop
      vertex 5 0 3.25
      vertex 5 0 1
      vertex 4.96057 0.626666 3.25
    endloop
  endfacet
  facet normal 0.982287 0.187382 0
    outer loop
      vertex 4.96057 0.626666 1
      vertex 4.84292 1.24345 1
      vertex 4.84292 1.24345 3.25
    endloop
  endfacet
  facet normal 0.982287 0.187382 0
    outer loop
      vertex 4.96057 0.626666 3.25
      vertex 4.96057 0.626666 1
      vertex 4.84292 1.24345 3.25
    endloop
  endfacet
  facet normal 0.951056 0.309018 0
    outer loop
      vertex 4.84292 1.24345 1
      vertex 4.64888 1.84062 1
      vertex 4.64888 1.84062 3.25
    endloop
  endfacet
  facet normal 0.951056 0.309018 0
    outer loop
      vertex 4.84292 1.24345 3.25
      vertex 4.84292 1.24345 1
      vertex 4.64888 1.84062 3.25
    endloop
  endfacet
  facet normal 0.904827 0.42578 0
    outer loop
      vertex 4.64888 1.84062 1
      vertex 4.38153 2.40877 1
      vertex 4.38153 2.40877 3.25
    endloop
  endfacet
  facet normal 0.904827 0.42578 0
    outer loop
      vertex 4.64888 1.84062 3.25
      vertex 4.64888 1.84062 1
      vertex 4.38153 2.40877 3.25
    endloop
  endfacet
  facet normal 0.844328 0.535826 0
    outer loop
      vertex 4.38153 2.40877 1
      vertex 4.04508 2.93893 1
      vertex 4.04508 2.93893 3.25
    endloop
  endfacet
  facet normal 0.844328 0.535826 0
    outer loop
      vertex 4.38153 2.40877 3.25
      vertex 4.38153 2.40877 1
      vertex 4.04508 2.93893 3.25
    endloop
  endfacet
  facet normal 0.770514 0.637424 0
    outer loop
      vertex 4.04508 2.93893 1
      vertex 3.64484 3.42274 1
      vertex 3.64484 3.42274 3.25
    endloop
  endfacet
  facet normal 0.770514 0.637424 0
    outer loop
      vertex 4.04508 2.93893 3.25
      vertex 4.04508 2.93893 1
      vertex 3.64484 3.42274 3.25
    endloop
  endfacet
  facet normal 0.684547 0.728969 0
    outer loop
      vertex 3.18712 3.85257 1
      vertex 3.18712 3.85257 3.25
      vertex 3.64484 3.42274 1
    endloop
  endfacet
  facet normal 0.684547 0.728969 0
    outer loop
      vertex 3.64484 3.42274 1
      vertex 3.18712 3.85257 3.25
      vertex 3.64484 3.42274 3.25
    endloop
  endfacet
  facet normal 0.587786 0.809017 0
    outer loop
      vertex 2.67913 4.22164 1
      vertex 2.67913 4.22164 3.25
      vertex 3.18712 3.85257 1
    endloop
  endfacet
  facet normal 0.587786 0.809017 0
    outer loop
      vertex 3.18712 3.85257 1
      vertex 2.67913 4.22164 3.25
      vertex 3.18712 3.85257 3.25
    endloop
  endfacet
  facet normal 0.481753 0.876307 0
    outer loop
      vertex 2.1289 4.52413 1
      vertex 2.1289 4.52413 3.25
      vertex 2.67913 4.22164 1
    endloop
  endfacet
  facet normal 0.481753 0.876307 0
    outer loop
      vertex 2.67913 4.22164 1
      vertex 2.1289 4.52413 3.25
      vertex 2.67913 4.22164 3.25
    endloop
  endfacet
  facet normal 0.368126 0.929776 0
    outer loop
      vertex 1.54508 4.75528 1
      vertex 1.54508 4.75528 3.25
      vertex 2.1289 4.52413 1
    endloop
  endfacet
  facet normal 0.368126 0.929776 0
    outer loop
      vertex 2.1289 4.52413 1
      vertex 1.54508 4.75528 3.25
      vertex 2.1289 4.52413 3.25
    endloop
  endfacet
  facet normal 0.248689 0.968583 0
    outer loop
      vertex 0.936907 4.91144 1
      vertex 0.936907 4.91144 3.25
      vertex 1.54508 4.75528 1
    endloop
  endfacet
  facet normal 0.248689 0.968583 0
    outer loop
      vertex 1.54508 4.75528 1
      vertex 0.936907 4.91144 3.25
      vertex 1.54508 4.75528 3.25
    endloop
  endfacet
  facet normal 0.125334 0.992115 0
    outer loop
      vertex 0.313953 4.99013 1
      vertex 0.313953 4.99013 3.25
      vertex 0.936907 4.91144 1
    endloop
  endfacet
  facet normal 0.125334 0.992115 0
    outer loop
      vertex 0.936907 4.91144 1
      vertex 0.313953 4.99013 3.25
      vertex 0.936907 4.91144 3.25
    endloop
  endfacet
  facet normal 0 1 0
    outer loop
      vertex -0.313953 4.99013 1
      vertex -0.313953 4.99013 3.25
      vertex 0.313953 4.99013 1
    endloop
  endfacet
  facet normal 0 1 0
    outer loop
      vertex 0.313953 4.99013 1
      vertex -0.313953 4.99013 3.25
      vertex 0.313953 4.99013 3.25
    endloop
  endfacet
  facet normal -0.125334 0.992115 0
    outer loop
      vertex -0.936907 4.91144 1
      vertex -0.936907 4.91144 3.25
      vertex -0.313953 4.99013 1
    endloop
  endfacet
  facet normal -0.125334 0.992115 0
    outer loop
      vertex -0.313953 4.99013 1
      vertex -0.936907 4.91144 3.25
      vertex -0.313953 4.99013 3.25
    endloop
  endfacet
  facet normal -0.248689 0.968583 0
    outer loop
      vertex -1.54508 4.75528 1
      vertex -1.54508 4.75528 3.25
      vertex -0.936907 4.91144 1
    endloop
  endfacet
  facet normal -0.248689 0.968583 0
    outer loop
      vertex -0.936907 4.91144 1
      vertex -1.54508 4.75528 3.25
      vertex -0.936907 4.91144 3.25
    endloop
  endfacet
  facet normal -0.368126 0.929776 0
    outer loop
      vertex -2.1289 4.52413 1
      vertex -2.1289 4.52413 3.25
      vertex -1.54508 4.75528 1
    endloop
  endfacet
  facet normal -0.368126 0.929776 0
    outer loop
      vertex -1.54508 4.75528 1
      vertex -2.1289 4.52413 3.25
      vertex -1.54508 4.75528 3.25
    endloop
  endfacet
  facet normal -0.481753 0.876307 0
    outer loop
      vertex -2.67913 4.22164 1
      vertex -2.67913 4.22164 3.25
      vertex -2.1289 4.52413 1
    endloop
  endfacet
  facet normal -0.481753 0.876307 0
    outer loop
      vertex -2.1289 4.52413 1
      vertex -2.67913 4.22164 3.25
      vertex -2.1289 4.52413 3.25
    endloop
  endfacet
  facet normal -0.587786 0.809017 0
    outer loop
      vertex -3.18712 3.85257 1
      vertex -3.18712 3.85257 3.25
      vertex -2.67913 4.22164 1
    endloop
  endfacet
  facet normal -0.587786 0.809017 0
    outer loop
      vertex -2.67913 4.22164 1
      vertex -3.18712 3.85257 3.25
      vertex -2.67913 4.22164 3.25
    endloop
  endfacet
  facet normal -0.684547 0.728969 0
    outer loop
      vertex -3.64484 3.42274 1
      vertex -3.64484 3.42274 3.25
      vertex -3.18712 3.85257 1
    endloop
  endfacet
  facet normal -0.684547 0.728969 0
    outer loop
      vertex -3.18712 3.85257 1
      vertex -3.64484 3.42274 3.25
      vertex -3.18712 3.85257 3.25
    endloop
  endfacet
  facet normal -0.770514 0.637424 0
    outer loop
      vertex -4.04508 2.93893 1
      vertex -4.04508 2.93893 3.25
      vertex -3.64484 3.42274 1
    endloop
  endfacet
  facet normal -0.770514 0.637424 0
    outer loop
      vertex -3.64484 3.42274 1
      vertex -4.04508 2.93893 3.25
      vertex -3.64484 3.42274 3.25
    endloop
  endfacet
  facet normal -0.844328 0.535826 0
    outer loop
      vertex -4.38153 2.40877 1
      vertex -4.38153 2.40877 3.25
      vertex -4.04508 2.93893 1
    endloop
  endfacet
  facet normal -0.844328 0.535826 0
    outer loop
      vertex -4.04508 2.93893 1
      vertex -4.38153 2.40877 3.25
      vertex -4.04508 2.93893 3.25
    endloop
  endfacet
  facet normal -0.904827 0.42578 0
    outer loop
      vertex -4.64888 1.84062 1
      vertex -4.64888 1.84062 3.25
      vertex -4.38153 2.40877 1
    endloop
  endfacet
  facet normal -0.904827 0.42578 0
    outer loop
      vertex -4.38153 2.40877 1
      vertex -4.64888 1.84062 3.25
      vertex -4.38153 2.40877 3.25
    endloop
  endfacet
  facet normal -0.951056 0.309018 0
    outer loop
      vertex -4.84292 1.24345 1
      vertex -4.84292 1.24345 3.25
      vertex -4.64888 1.84062 1
    endloop
  endfacet
  facet normal -0.951056 0.309018 0
    outer loop
      vertex -4.64888 1.84062 1
      vertex -4.84292 1.24345 3.25
      vertex -4.64888 1.84062 3.25
    endloop
  endfacet
  facet normal -0.982287 0.187382 0
    outer loop
      vertex -4.96057 0.626666 1
      vertex -4.96057 0.626666 3.25
      vertex -4.84292 1.24345 1
    endloop
  endfacet
  facet normal -0.982287 0.187382 0
    outer loop
      vertex -4.84292 1.24345 1
      vertex -4.96057 0.626666 3.25
      vertex -4.84292 1.24345 3.25
    endloop
  endfacet
  facet normal -0.998027 0.0627898 0
    outer loop
      vertex -5 0 1
      vertex -5 0 3.25
      vertex -4.96057 0.626666 1
    endloop
  endfacet
  facet normal -0.998027 0.0627898 0
    outer loop
      vertex -4.96057 0.626666 1
      vertex -5 0 3.25
      vertex -4.96057 0.626666 3.25
    endloop
  endfacet
  facet normal 0 0 1
    outer loop
      vertex -2.125 -3.68061 0.25
      vertex 2.125 -3.68061 0.25
      vertex 4.25 0 0.25
    endloop
  endfacet
  facet normal 0 0 1
    outer loop
      vertex 0.956136 -1.15577 0.25
      vertex -2.125 -3.68061 0.25
      vertex 4.25 0 0.25
    endloop
  endfacet
  facet normal 0 0 1
    outer loop
      vertex -4.25 0 0.25
      vertex -2.125 -3.68061 0.25
      vertex -2.125 3.68061 0.25
    endloop
  endfacet
  facet normal 0 0 1
    outer loop
      vertex 0.638669 1.35724 0.25
      vertex 0.80374 1.26649 0.25
      vertex 2.125 3.68061 0.25
    endloop
  endfacet
  facet normal 0 0 1
    outer loop
      vertex -2.125 3.68061 0.25
      vertex -2.125 -3.68061 0.25
      vertex -1.5 0 0.25
    endloop
  endfacet
  facet normal 0 0 1
    outer loop
      vertex -0.094186 1.49704 0.25
      vertex 0.094186 1.49704 0.25
      vertex 2.125 3.68061 0.25
    endloop
  endfacet
  facet normal 0 0 1
    outer loop
      vertex -2.125 3.68061 0.25
      vertex -1.5 0 0.25
      vertex -1.48817 0.188 0.25
    endloop
  endfacet
  facet normal 0 0 1
    outer loop
      vertex 0.80374 -1.26649 0.25
      vertex 0.638669 -1.35724 0.25
      vertex -2.125 -3.68061 0.25
    endloop
  endfacet
  facet normal 0 0 1
    outer loop
      vertex -2.125 3.68061 0.25
      vertex -1.48817 0.188 0.25
      vertex -1.45287 0.373035 0.25
    endloop
  endfacet
  facet normal 0 0 1
    outer loop
      vertex -2.125 3.68061 0.25
      vertex -1.45287 0.373035 0.25
      vertex -1.39467 0.552187 0.25
    endloop
  endfacet
  facet normal 0 0 1
    outer loop
      vertex -0.463525 1.42658 0.25
      vertex -0.281072 1.47343 0.25
      vertex 2.125 3.68061 0.25
    endloop
  endfacet
  facet normal 0 0 1
    outer loop
      vertex -2.125 3.68061 0.25
      vertex -1.39467 0.552187 0.25
      vertex -1.31446 0.722631 0.25
    endloop
  endfacet
  facet normal 0 0 1
    outer loop
      vertex -0.638669 1.35724 0.25
      vertex -0.463525 1.42658 0.25
      vertex 2.125 3.68061 0.25
    endloop
  endfacet
  facet normal 0 0 1
    outer loop
      vertex -2.125 3.68061 0.25
      vertex -1.31446 0.722631 0.25
      vertex -1.21352 0.881678 0.25
    endloop
  endfacet
  facet normal 0 0 1
    outer loop
      vertex -0.281072 1.47343 0.25
      vertex -0.094186 1.49704 0.25
      vertex 2.125 3.68061 0.25
    endloop
  endfacet
  facet normal 0 0 1
    outer loop
      vertex -2.125 3.68061 0.25
      vertex -1.21352 0.881678 0.25
      vertex -1.09345 1.02682 0.25
    endloop
  endfacet
  facet normal 0 0 1
    outer loop
      vertex -2.125 3.68061 0.25
      vertex -0.956136 1.15577 0.25
      vertex 2.125 3.68061 0.25
    endloop
  endfacet
  facet normal 0 0 1
    outer loop
      vertex -2.125 3.68061 0.25
      vertex -1.09345 1.02682 0.25
      vertex -0.956136 1.15577 0.25
    endloop
  endfacet
  facet normal 0 0 1
    outer loop
      vertex -0.956136 1.15577 0.25
      vertex -0.80374 1.26649 0.25
      vertex 2.125 3.68061 0.25
    endloop
  endfacet
  facet normal 0 0 1
    outer loop
      vertex 0.094186 1.49704 0.25
      vertex 0.281072 1.47343 0.25
      vertex 2.125 3.68061 0.25
    endloop
  endfacet
  facet normal 0 0 1
    outer loop
      vertex 0.281072 1.47343 0.25
      vertex 0.463525 1.42658 0.25
      vertex 2.125 3.68061 0.25
    endloop
  endfacet
  facet normal 0 0 1
    outer loop
      vertex -0.956136 -1.15577 0.25
      vertex -1.09345 -1.02682 0.25
      vertex -2.125 -3.68061 0.25
    endloop
  endfacet
  facet normal 0 0 1
    outer loop
      vertex 0.463525 1.42658 0.25
      vertex 0.638669 1.35724 0.25
      vertex 2.125 3.68061 0.25
    endloop
  endfacet
  facet normal 0 0 1
    outer loop
      vertex 2.125 3.68061 0.25
      vertex 0.80374 1.26649 0.25
      vertex 4.25 0 0.25
    endloop
  endfacet
  facet normal 0 0 1
    outer loop
      vertex 0.80374 1.26649 0.25
      vertex 0.956136 1.15577 0.25
      vertex 4.25 0 0.25
    endloop
  endfacet
  facet normal 0 0 1
    outer loop
      vertex -0.80374 -1.26649 0.25
      vertex -0.956136 -1.15577 0.25
      vertex -2.125 -3.68061 0.25
    endloop
  endfacet
  facet normal 0 0 1
    outer loop
      vertex 0.956136 1.15577 0.25
      vertex 1.09345 1.02682 0.25
      vertex 4.25 0 0.25
    endloop
  endfacet
  facet normal 0 0 1
    outer loop
      vertex 1.09345 1.02682 0.25
      vertex 1.21352 0.881678 0.25
      vertex 4.25 0 0.25
    endloop
  endfacet
  facet normal 0 0 1
    outer loop
      vertex 1.21352 0.881678 0.25
      vertex 1.31446 0.722631 0.25
      vertex 4.25 0 0.25
    endloop
  endfacet
  facet normal 0 0 1
    outer loop
      vertex 1.31446 0.722631 0.25
      vertex 1.39467 0.552187 0.25
      vertex 4.25 0 0.25
    endloop
  endfacet
  facet normal 0 0 1
    outer loop
      vertex 1.39467 0.552187 0.25
      vertex 1.45287 0.373035 0.25
      vertex 4.25 0 0.25
    endloop
  endfacet
  facet normal 0 0 1
    outer loop
      vertex 1.45287 0.373035 0.25
      vertex 1.48817 0.188 0.25
      vertex 4.25 0 0.25
    endloop
  endfacet
  facet normal 0 0 1
    outer loop
      vertex 1.48817 0.188 0.25
      vertex 1.5 0 0.25
      vertex 4.25 0 0.25
    endloop
  endfacet
  facet normal 0 0 1
    outer loop
      vertex -0.094186 -1.49704 0.25
      vertex -0.281072 -1.47343 0.25
      vertex -2.125 -3.68061 0.25
    endloop
  endfacet
  facet normal 0 0 1
    outer loop
      vertex 1.5 0 0.25
      vertex 1.48817 -0.188 0.25
      vertex 4.25 0 0.25
    endloop
  endfacet
  facet normal 0 0 1
    outer loop
      vertex 1.48817 -0.188 0.25
      vertex 1.45287 -0.373035 0.25
      vertex 4.25 0 0.25
    endloop
  endfacet
  facet normal 0 0 1
    outer loop
      vertex 1.45287 -0.373035 0.25
      vertex 1.39467 -0.552187 0.25
      vertex 4.25 0 0.25
    endloop
  endfacet
  facet normal 0 0 1
    outer loop
      vertex 1.39467 -0.552187 0.25
      vertex 1.31446 -0.722631 0.25
      vertex 4.25 0 0.25
    endloop
  endfacet
  facet normal 0 0 1
    outer loop
      vertex 1.31446 -0.722631 0.25
      vertex 1.21352 -0.881678 0.25
      vertex 4.25 0 0.25
    endloop
  endfacet
  facet normal 0 0 1
    outer loop
      vertex 1.21352 -0.881678 0.25
      vertex 1.09345 -1.02682 0.25
      vertex 4.25 0 0.25
    endloop
  endfacet
  facet normal 0 0 1
    outer loop
      vertex 0.638669 -1.35724 0.25
      vertex 0.463525 -1.42658 0.25
      vertex -2.125 -3.68061 0.25
    endloop
  endfacet
  facet normal 0 0 1
    outer loop
      vertex 1.09345 -1.02682 0.25
      vertex 0.956136 -1.15577 0.25
      vertex 4.25 0 0.25
    endloop
  endfacet
  facet normal 0 0 1
    outer loop
      vertex 0.80374 -1.26649 0.25
      vertex -2.125 -3.68061 0.25
      vertex 0.956136 -1.15577 0.25
    endloop
  endfacet
  facet normal 0 0 1
    outer loop
      vertex 0.281072 -1.47343 0.25
      vertex 0.094186 -1.49704 0.25
      vertex -2.125 -3.68061 0.25
    endloop
  endfacet
  facet normal 0 0 1
    outer loop
      vertex 0.463525 -1.42658 0.25
      vertex 0.281072 -1.47343 0.25
      vertex -2.125 -3.68061 0.25
    endloop
  endfacet
  facet normal 0 0 1
    outer loop
      vertex 0.094186 -1.49704 0.25
      vertex -0.094186 -1.49704 0.25
      vertex -2.125 -3.68061 0.25
    endloop
  endfacet
  facet normal 0 0 1
    outer loop
      vertex -0.281072 -1.47343 0.25
      vertex -0.463525 -1.42658 0.25
      vertex -2.125 -3.68061 0.25
    endloop
  endfacet
  facet normal 0 0 1
    outer loop
      vertex -0.463525 -1.42658 0.25
      vertex -0.638669 -1.35724 0.25
      vertex -2.125 -3.68061 0.25
    endloop
  endfacet
  facet normal 0 0 1
    outer loop
      vertex -1.21352 -0.881678 0.25
      vertex -2.125 -3.68061 0.25
      vertex -1.09345 -1.02682 0.25
    endloop
  endfacet
  facet normal 0 0 1
    outer loop
      vertex -1.31446 -0.722631 0.25
      vertex -2.125 -3.68061 0.25
      vertex -1.21352 -0.881678 0.25
    endloop
  endfacet
  facet normal 0 0 1
    outer loop
      vertex -1.39467 -0.552187 0.25
      vertex -2.125 -3.68061 0.25
      vertex -1.31446 -0.722631 0.25
    endloop
  endfacet
  facet normal 0 0 1
    outer loop
      vertex -1.45287 -0.373035 0.25
      vertex -2.125 -3.68061 0.25
      vertex -1.39467 -0.552187 0.25
    endloop
  endfacet
  facet normal 0 0 1
    outer loop
      vertex -1.48817 -0.188 0.25
      vertex -2.125 -3.68061 0.25
      vertex -1.45287 -0.373035 0.25
    endloop
  endfacet
  facet normal 0 0 1
    outer loop
      vertex -1.5 0 0.25
      vertex -2.125 -3.68061 0.25
      vertex -1.48817 -0.188 0.25
    endloop
  endfacet
  facet normal 0 0 1
    outer loop
      vertex -0.80374 1.26649 0.25
      vertex -0.638669 1.35724 0.25
      vertex 2.125 3.68061 0.25
    endloop
  endfacet
  facet normal 0 0 1
    outer loop
      vertex -0.638669 -1.35724 0.25
      vertex -0.80374 -1.26649 0.25
      vertex -2.125 -3.68061 0.25
    endloop
  endfacet
  facet normal 0 0 1
    outer loop
      vertex -4.96057 0.626666 3.25
      vertex -5 0 3.25
      vertex -4.96057 -0.626666 3.25
    endloop
  endfacet
  facet normal 0 0 1
    outer loop
      vertex -4.64888 -1.84062 3.25
      vertex -4.96057 0.626666 3.25
      vertex -4.84292 -1.24345 3.25
    endloop
  endfacet
  facet normal 0 0 1
    outer loop
      vertex -4.84292 -1.24345 3.25
      vertex -4.96057 0.626666 3.25
      vertex -4.96057 -0.626666 3.25
    endloop
  endfacet
  facet normal 0 0 1
    outer loop
      vertex -4.38153 -2.40877 3.25
      vertex -4.96057 0.626666 3.25
      vertex -4.64888 -1.84062 3.25
    endloop
  endfacet
  facet normal 0 0 1
    outer loop
      vertex -4.04508 -2.93893 3.25
      vertex -4.96057 0.626666 3.25
      vertex -4.38153 -2.40877 3.25
    endloop
  endfacet
  facet normal 0 0 1
    outer loop
      vertex -3.64484 -3.42274 3.25
      vertex -4.96057 0.626666 3.25
      vertex -4.04508 -2.93893 3.25
    endloop
  endfacet
  facet normal 0 0 1
    outer loop
      vertex -3.18712 -3.85257 3.25
      vertex -4.96057 0.626666 3.25
      vertex -3.64484 -3.42274 3.25
    endloop
  endfacet
  facet normal 0 0 1
    outer loop
      vertex -2.67913 -4.22164 3.25
      vertex -4.96057 0.626666 3.25
      vertex -3.18712 -3.85257 3.25
    endloop
  endfacet
  facet normal 0 0 1
    outer loop
      vertex -2.1289 -4.52413 3.25
      vertex -4.96057 0.626666 3.25
      vertex -2.67913 -4.22164 3.25
    endloop
  endfacet
  facet normal 0 0 1
    outer loop
      vertex -1.54508 -4.75528 3.25
      vertex -4.96057 0.626666 3.25
      vertex -2.1289 -4.52413 3.25
    endloop
  endfacet
  facet normal 0 0 1
    outer loop
      vertex -2.125 -3.68061 3.25
      vertex -4.96057 0.626666 3.25
      vertex -1.54508 -4.75528 3.25
    endloop
  endfacet
  facet normal 0 0 1
    outer loop
      vertex -2.125 3.68061 3.25
      vertex 0.313953 4.99013 3.25
      vertex -0.313953 4.99013 3.25
    endloop
  endfacet
  facet normal 0 0 1
    outer loop
      vertex -2.125 3.68061 3.25
      vertex 0.936907 4.91144 3.25
      vertex 0.313953 4.99013 3.25
    endloop
  endfacet
  facet normal 0 0 1
    outer loop
      vertex -2.125 3.68061 3.25
      vertex 1.54508 4.75528 3.25
      vertex 0.936907 4.91144 3.25
    endloop
  endfacet
  facet normal 0 0 1
    outer loop
      vertex -2.125 3.68061 3.25
      vertex 2.1289 4.52413 3.25
      vertex 1.54508 4.75528 3.25
    endloop
  endfacet
  facet normal 0 0 1
    outer loop
      vertex 2.125 3.68061 3.25
      vertex 3.64484 3.42274 3.25
      vertex 3.18712 3.85257 3.25
    endloop
  endfacet
  facet normal 0 0 1
    outer loop
      vertex 4.25 0 3.25
      vertex 2.125 -3.68061 3.25
      vertex 3.18712 -3.85257 3.25
    endloop
  endfacet
  facet normal 0 0 1
    outer loop
      vertex 4.25 0 3.25
      vertex 3.18712 -3.85257 3.25
      vertex 3.64484 -3.42274 3.25
    endloop
  endfacet
  facet normal 0 0 1
    outer loop
      vertex 2.125 3.68061 3.25
      vertex 5 0 3.25
      vertex 4.96057 0.626666 3.25
    endloop
  endfacet
  facet normal 0 0 1
    outer loop
      vertex 2.125 3.68061 3.25
      vertex 4.96057 0.626666 3.25
      vertex 4.84292 1.24345 3.25
    endloop
  endfacet
  facet normal 0 0 1
    outer loop
      vertex 2.125 3.68061 3.25
      vertex 4.84292 1.24345 3.25
      vertex 4.64888 1.84062 3.25
    endloop
  endfacet
  facet normal 0 0 1
    outer loop
      vertex 2.125 3.68061 3.25
      vertex 4.64888 1.84062 3.25
      vertex 4.38153 2.40877 3.25
    endloop
  endfacet
  facet normal 0 0 1
    outer loop
      vertex 2.125 3.68061 3.25
      vertex 4.38153 2.40877 3.25
      vertex 4.04508 2.93893 3.25
    endloop
  endfacet
  facet normal 0 0 1
    outer loop
      vertex 2.125 3.68061 3.25
      vertex 4.04508 2.93893 3.25
      vertex 3.64484 3.42274 3.25
    endloop
  endfacet
  facet normal 0 0 1
    outer loop
      vertex -2.1289 4.52413 3.25
      vertex -4.96057 0.626666 3.25
      vertex -1.54508 4.75528 3.25
    endloop
  endfacet
  facet normal 0 0 1
    outer loop
      vertex -2.67913 4.22164 3.25
      vertex -4.96057 0.626666 3.25
      vertex -2.1289 4.52413 3.25
    endloop
  endfacet
  facet normal 0 0 1
    outer loop
      vertex -3.18712 3.85257 3.25
      vertex -4.96057 0.626666 3.25
      vertex -2.67913 4.22164 3.25
    endloop
  endfacet
  facet normal 0 0 1
    outer loop
      vertex -3.64484 3.42274 3.25
      vertex -4.96057 0.626666 3.25
      vertex -3.18712 3.85257 3.25
    endloop
  endfacet
  facet normal 0 0 1
    outer loop
      vertex -4.04508 2.93893 3.25
      vertex -4.96057 0.626666 3.25
      vertex -3.64484 3.42274 3.25
    endloop
  endfacet
  facet normal 0 0 1
    outer loop
      vertex -4.38153 2.40877 3.25
      vertex -4.96057 0.626666 3.25
      vertex -4.04508 2.93893 3.25
    endloop
  endfacet
  facet normal 0 0 1
    outer loop
      vertex -4.64888 1.84062 3.25
      vertex -4.96057 0.626666 3.25
      vertex -4.38153 2.40877 3.25
    endloop
  endfacet
  facet normal 0 0 1
    outer loop
      vertex -4.84292 1.24345 3.25
      vertex -4.96057 0.626666 3.25
      vertex -4.64888 1.84062 3.25
    endloop
  endfacet
  facet normal 0 0 1
    outer loop
      vertex -0.936907 -4.91144 3.25
      vertex -2.125 -3.68061 3.25
      vertex -1.54508 -4.75528 3.25
    endloop
  endfacet
  facet normal 0 0 1
    outer loop
      vertex -2.125 3.68061 3.25
      vertex -0.313953 4.99013 3.25
      vertex -0.936907 4.91144 3.25
    endloop
  endfacet
  facet normal 0 0 1
    outer loop
      vertex -2.125 3.68061 3.25
      vertex 2.67913 4.22164 3.25
      vertex 2.1289 4.52413 3.25
    endloop
  endfacet
  facet normal 0 0 1
    outer loop
      vertex -2.125 3.68061 3.25
      vertex 2.125 3.68061 3.25
      vertex 2.67913 4.22164 3.25
    endloop
  endfacet
  facet normal 0 0 1
    outer loop
      vertex -1.54508 4.75528 3.25
      vertex -2.125 3.68061 3.25
      vertex -0.936907 4.91144 3.25
    endloop
  endfacet
  facet normal 0 0 1
    outer loop
      vertex -1.54508 4.75528 3.25
      vertex -4.96057 0.626666 3.25
      vertex -2.125 3.68061 3.25
    endloop
  endfacet
  facet normal 0 0 1
    outer loop
      vertex 2.67913 4.22164 3.25
      vertex 2.125 3.68061 3.25
      vertex 3.18712 3.85257 3.25
    endloop
  endfacet
  facet normal 0 0 1
    outer loop
      vertex 2.125 3.68061 3.25
      vertex 4.25 0 3.25
      vertex 5 0 3.25
    endloop
  endfacet
  facet normal 0 0 1
    outer loop
      vertex 5 0 3.25
      vertex 4.25 0 3.25
      vertex 4.96057 -0.626666 3.25
    endloop
  endfacet
  facet normal 0 0 1
    outer loop
      vertex 3.18712 -3.85257 3.25
      vertex 2.125 -3.68061 3.25
      vertex 2.67913 -4.22164 3.25
    endloop
  endfacet
  facet normal 0 0 1
    outer loop
      vertex -2.125 -3.68061 3.25
      vertex -4.25 0 3.25
      vertex -4.96057 0.626666 3.25
    endloop
  endfacet
  facet normal 0 0 1
    outer loop
      vertex 2.125 -3.68061 3.25
      vertex 2.1289 -4.52413 3.25
      vertex 2.67913 -4.22164 3.25
    endloop
  endfacet
  facet normal 0 0 1
    outer loop
      vertex 2.125 -3.68061 3.25
      vertex 1.54508 -4.75528 3.25
      vertex 2.1289 -4.52413 3.25
    endloop
  endfacet
  facet normal 0 0 1
    outer loop
      vertex 2.125 -3.68061 3.25
      vertex 0.936907 -4.91144 3.25
      vertex 1.54508 -4.75528 3.25
    endloop
  endfacet
  facet normal 0 0 1
    outer loop
      vertex 2.125 -3.68061 3.25
      vertex 0.313953 -4.99013 3.25
      vertex 0.936907 -4.91144 3.25
    endloop
  endfacet
  facet normal 0 0 1
    outer loop
      vertex 2.125 -3.68061 3.25
      vertex -0.313953 -4.99013 3.25
      vertex 0.313953 -4.99013 3.25
    endloop
  endfacet
  facet normal 0 0 1
    outer loop
      vertex 2.125 -3.68061 3.25
      vertex -0.936907 -4.91144 3.25
      vertex -0.313953 -4.99013 3.25
    endloop
  endfacet
  facet normal 0 0 1
    outer loop
      vertex 2.125 -3.68061 3.25
      vertex -2.125 -3.68061 3.25
      vertex -0.936907 -4.91144 3.25
    endloop
  endfacet
  facet normal 0 0 1
    outer loop
      vertex 4.25 0 3.25
      vertex 3.64484 -3.42274 3.25
      vertex 4.04508 -2.93893 3.25
    endloop
  endfacet
  facet normal 0 0 1
    outer loop
      vertex 4.25 0 3.25
      vertex 4.04508 -2.93893 3.25
      vertex 4.38153 -2.40877 3.25
    endloop
  endfacet
  facet normal 0 0 1
    outer loop
      vertex 4.25 0 3.25
      vertex 4.38153 -2.40877 3.25
      vertex 4.64888 -1.84062 3.25
    endloop
  endfacet
  facet normal 0 0 1
    outer loop
      vertex 4.25 0 3.25
      vertex 4.64888 -1.84062 3.25
      vertex 4.84292 -1.24345 3.25
    endloop
  endfacet
  facet normal 0 0 1
    outer loop
      vertex 4.25 0 3.25
      vertex 4.84292 -1.24345 3.25
      vertex 4.96057 -0.626666 3.25
    endloop
  endfacet
  facet normal 0 0 1
    outer loop
      vertex -4.25 0 3.25
      vertex -2.125 3.68061 3.25
      vertex -4.96057 0.626666 3.25
    endloop
  endfacet
  facet normal 0 1 0
    outer loop
      vertex 2.125 -3.68061 3.25
      vertex 2.125 -3.68061 0.25
      vertex -2.125 -3.68061 3.25
    endloop
  endfacet
  facet normal 0 1 0
    outer loop
      vertex -2.125 -3.68061 3.25
      vertex 2.125 -3.68061 0.25
      vertex -2.125 -3.68061 0.25
    endloop
  endfacet
  facet normal 0.866025 0.5 0
    outer loop
      vertex -4.25 0 3.25
      vertex -2.125 -3.68061 3.25
      vertex -2.125 -3.68061 0.25
    endloop
  endfacet
  facet normal 0.866025 0.5 0
    outer loop
      vertex -4.25 0 0.25
      vertex -4.25 0 3.25
      vertex -2.125 -3.68061 0.25
    endloop
  endfacet
  facet normal 0.866025 -0.5 0
    outer loop
      vertex -2.125 3.68061 0.25
      vertex -2.125 3.68061 3.25
      vertex -4.25 0 3.25
    endloop
  endfacet
  facet normal 0.866025 -0.5 0
    outer loop
      vertex -4.25 0 0.25
      vertex -2.125 3.68061 0.25
      vertex -4.25 0 3.25
    endloop
  endfacet
  facet normal 0 -1 0
    outer loop
      vertex 2.125 3.68061 0.25
      vertex 2.125 3.68061 3.25
      vertex -2.125 3.68061 3.25
    endloop
  endfacet
  facet normal 0 -1 0
    outer loop
      vertex -2.125 3.68061 0.25
      vertex 2.125 3.68061 0.25
      vertex -2.125 3.68061 3.25
    endloop
  endfacet
  facet normal -0.866025 -0.5 0
    outer loop
      vertex 4.25 0 3.25
      vertex 2.125 3.68061 3.25
      vertex 4.25 0 0.25
    endloop
  endfacet
  facet normal -0.866025 -0.5 0
    outer loop
      vertex 4.25 0 0.25
      vertex 2.125 3.68061 3.25
      vertex 2.125 3.68061 0.25
    endloop
  endfacet
  facet normal -0.866025 0.5 0
    outer loop
      vertex 4.25 0 3.25
      vertex 4.25 0 0.25
      vertex 2.125 -3.68061 3.25
    endloop
  endfacet
  facet normal -0.866025 0.5 0
    outer loop
      vertex 2.125 -3.68061 3.25
      vertex 4.25 0 0.25
      vertex 2.125 -3.68061 0.25
    endloop
  endfacet
endsolid OpenSCAD_Model
