solid OpenSCAD_Model
  facet normal -1 0 0
    outer loop
      vertex -6 -4 -1
      vertex -6 -4 1
      vertex -6 4 -1
    endloop
  endfacet
  facet normal -1 0 0
    outer loop
      vertex -6 4 -1
      vertex -6 -4 1
      vertex -6 4 1
    endloop
  endfacet
  facet normal 0 -1 0
    outer loop
      vertex -6 -4 1
      vertex -6 -4 -1
      vertex 6 -4 -1
    endloop
  endfacet
  facet normal 0 -1 0
    outer loop
      vertex 6 -4 1
      vertex -6 -4 1
      vertex 6 -4 -1
    endloop
  endfacet
  facet normal 0 0 -1
    outer loop
      vertex 0.61738 1.312 -1
      vertex -6 4 -1
      vertex 6 4 -1
    endloop
  endfacet
  facet normal 0 0 -1
    outer loop
      vertex -6 -4 -1
      vertex -6 4 -1
      vertex -1.45 0 -1
    endloop
  endfacet
  facet normal 0 0 -1
    outer loop
      vertex -6 -4 -1
      vertex -1.45 0 -1
      vertex -1.43857 -0.181733 -1
    endloop
  endfacet
  facet normal 0 0 -1
    outer loop
      vertex -6 -4 -1
      vertex -1.43857 -0.181733 -1
      vertex -1.40445 -0.3606 -1
    endloop
  endfacet
  facet normal 0 0 -1
    outer loop
      vertex -6 -4 -1
      vertex -1.40445 -0.3606 -1
      vertex -1.34818 -0.533781 -1
    endloop
  endfacet
  facet normal 0 0 -1
    outer loop
      vertex -6 -4 -1
      vertex -1.34818 -0.533781 -1
      vertex -1.27065 -0.698543 -1
    endloop
  endfacet
  facet normal 0 0 -1
    outer loop
      vertex -6 -4 -1
      vertex -1.27065 -0.698543 -1
      vertex -1.17307 -0.852289 -1
    endloop
  endfacet
  facet normal 0 0 -1
    outer loop
      vertex -6 -4 -1
      vertex -1.17307 -0.852289 -1
      vertex -1.057 -0.992593 -1
    endloop
  endfacet
  facet normal 0 0 -1
    outer loop
      vertex -6 -4 -1
      vertex -1.057 -0.992593 -1
      vertex -0.924265 -1.11724 -1
    endloop
  endfacet
  facet normal 0 0 -1
    outer loop
      vertex -6 -4 -1
      vertex -0.924265 -1.11724 -1
      vertex -0.776949 -1.22428 -1
    endloop
  endfacet
  facet normal 0 0 -1
    outer loop
      vertex -6 -4 -1
      vertex -0.776949 -1.22428 -1
      vertex -0.61738 -1.312 -1
    endloop
  endfacet
  facet normal 0 0 -1
    outer loop
      vertex -6 -4 -1
      vertex -0.61738 -1.312 -1
      vertex 6 -4 -1
    endloop
  endfacet
  facet normal 0 0 -1
    outer loop
      vertex -0.61738 -1.312 -1
      vertex -0.448075 -1.37903 -1
      vertex 6 -4 -1
    endloop
  endfacet
  facet normal 0 0 -1
    outer loop
      vertex -0.091046 -1.44714 -1
      vertex 6 -4 -1
      vertex -0.271703 -1.42432 -1
    endloop
  endfacet
  facet normal 0 0 -1
    outer loop
      vertex 0.091046 -1.44714 -1
      vertex 6 -4 -1
      vertex -0.091046 -1.44714 -1
    endloop
  endfacet
  facet normal 0 0 -1
    outer loop
      vertex 0.271703 -1.42432 -1
      vertex 6 -4 -1
      vertex 0.091046 -1.44714 -1
    endloop
  endfacet
  facet normal 0 0 -1
    outer loop
      vertex 0.448075 -1.37903 -1
      vertex 6 -4 -1
      vertex 0.271703 -1.42432 -1
    endloop
  endfacet
  facet normal 0 0 -1
    outer loop
      vertex 0.61738 -1.312 -1
      vertex 6 -4 -1
      vertex 0.448075 -1.37903 -1
    endloop
  endfacet
  facet normal 0 0 -1
    outer loop
      vertex 0.776949 -1.22428 -1
      vertex 6 -4 -1
      vertex 0.61738 -1.312 -1
    endloop
  endfacet
  facet normal 0 0 -1
    outer loop
      vertex 0.924265 -1.11724 -1
      vertex 6 -4 -1
      vertex 0.776949 -1.22428 -1
    endloop
  endfacet
  facet normal 0 0 -1
    outer loop
      vertex 1.27065 -0.698543 -1
      vertex 6 -4 -1
      vertex 1.17307 -0.852289 -1
    endloop
  endfacet
  facet normal 0 0 -1
    outer loop
      vertex 0.924265 -1.11724 -1
      vertex 1.057 -0.992593 -1
      vertex 6 -4 -1
    endloop
  endfacet
  facet normal 0 0 -1
    outer loop
      vertex -1.34818 0.533781 -1
      vertex -6 4 -1
      vertex -1.27065 0.698543 -1
    endloop
  endfacet
  facet normal 0 0 -1
    outer loop
      vertex 1.057 -0.992593 -1
      vertex 1.17307 -0.852289 -1
      vertex 6 -4 -1
    endloop
  endfacet
  facet normal 0 0 -1
    outer loop
      vertex -1.27065 0.698543 -1
      vertex -6 4 -1
      vertex -1.17307 0.852289 -1
    endloop
  endfacet
  facet normal 0 0 -1
    outer loop
      vertex 6 -4 -1
      vertex 1.27065 -0.698543 -1
      vertex 6 4 -1
    endloop
  endfacet
  facet normal 0 0 -1
    outer loop
      vertex 1.27065 -0.698543 -1
      vertex 1.34818 -0.533781 -1
      vertex 6 4 -1
    endloop
  endfacet
  facet normal 0 0 -1
    outer loop
      vertex -1.17307 0.852289 -1
      vertex -6 4 -1
      vertex -1.057 0.992593 -1
    endloop
  endfacet
  facet normal 0 0 -1
    outer loop
      vertex 1.34818 -0.533781 -1
      vertex 1.40445 -0.3606 -1
      vertex 6 4 -1
    endloop
  endfacet
  facet normal 0 0 -1
    outer loop
      vertex -1.057 0.992593 -1
      vertex -6 4 -1
      vertex -0.924265 1.11724 -1
    endloop
  endfacet
  facet normal 0 0 -1
    outer loop
      vertex 1.40445 -0.3606 -1
      vertex 1.43857 -0.181733 -1
      vertex 6 4 -1
    endloop
  endfacet
  facet normal 0 0 -1
    outer loop
      vertex 1.43857 -0.181733 -1
      vertex 1.45 0 -1
      vertex 6 4 -1
    endloop
  endfacet
  facet normal 0 0 -1
    outer loop
      vertex -0.924265 1.11724 -1
      vertex -6 4 -1
      vertex -0.776949 1.22428 -1
    endloop
  endfacet
  facet normal 0 0 -1
    outer loop
      vertex 1.45 0 -1
      vertex 1.43857 0.181733 -1
      vertex 6 4 -1
    endloop
  endfacet
  facet normal 0 0 -1
    outer loop
      vertex -0.776949 1.22428 -1
      vertex -6 4 -1
      vertex -0.61738 1.312 -1
    endloop
  endfacet
  facet normal 0 0 -1
    outer loop
      vertex 1.43857 0.181733 -1
      vertex 1.40445 0.3606 -1
      vertex 6 4 -1
    endloop
  endfacet
  facet normal 0 0 -1
    outer loop
      vertex -0.61738 1.312 -1
      vertex -6 4 -1
      vertex -0.448075 1.37903 -1
    endloop
  endfacet
  facet normal 0 0 -1
    outer loop
      vertex 1.40445 0.3606 -1
      vertex 1.34818 0.533781 -1
      vertex 6 4 -1
    endloop
  endfacet
  facet normal 0 0 -1
    outer loop
      vertex 1.34818 0.533781 -1
      vertex 1.27065 0.698543 -1
      vertex 6 4 -1
    endloop
  endfacet
  facet normal 0 0 -1
    outer loop
      vertex -0.448075 1.37903 -1
      vertex -6 4 -1
      vertex -0.271703 1.42432 -1
    endloop
  endfacet
  facet normal 0 0 -1
    outer loop
      vertex 1.27065 0.698543 -1
      vertex 1.17307 0.852289 -1
      vertex 6 4 -1
    endloop
  endfacet
  facet normal 0 0 -1
    outer loop
      vertex -0.271703 1.42432 -1
      vertex -6 4 -1
      vertex -0.091046 1.44714 -1
    endloop
  endfacet
  facet normal 0 0 -1
    outer loop
      vertex 1.17307 0.852289 -1
      vertex 1.057 0.992593 -1
      vertex 6 4 -1
    endloop
  endfacet
  facet normal 0 0 -1
    outer loop
      vertex -0.091046 1.44714 -1
      vertex -6 4 -1
      vertex 0.091046 1.44714 -1
    endloop
  endfacet
  facet normal 0 0 -1
    outer loop
      vertex 1.057 0.992593 -1
      vertex 0.924265 1.11724 -1
      vertex 6 4 -1
    endloop
  endfacet
  facet normal 0 0 -1
    outer loop
      vertex 0.091046 1.44714 -1
      vertex -6 4 -1
      vertex 0.271703 1.42432 -1
    endloop
  endfacet
  facet normal 0 0 -1
    outer loop
      vertex 0.924265 1.11724 -1
      vertex 0.776949 1.22428 -1
      vertex 6 4 -1
    endloop
  endfacet
  facet normal 0 0 -1
    outer loop
      vertex 0.448075 1.37903 -1
      vertex -6 4 -1
      vertex 0.61738 1.312 -1
    endloop
  endfacet
  facet normal 0 0 -1
    outer loop
      vertex 0.776949 1.22428 -1
      vertex 0.61738 1.312 -1
      vertex 6 4 -1
    endloop
  endfacet
  facet normal 0 0 -1
    outer loop
      vertex 0.271703 1.42432 -1
      vertex -6 4 -1
      vertex 0.448075 1.37903 -1
    endloop
  endfacet
  facet normal 0 0 -1
    outer loop
      vertex -1.40445 0.3606 -1
      vertex -6 4 -1
      vertex -1.34818 0.533781 -1
    endloop
  endfacet
  facet normal 0 0 -1
    outer loop
      vertex -1.43857 0.181733 -1
      vertex -6 4 -1
      vertex -1.40445 0.3606 -1
    endloop
  endfacet
  facet normal 0 0 -1
    outer loop
      vertex -1.45 0 -1
      vertex -6 4 -1
      vertex -1.43857 0.181733 -1
    endloop
  endfacet
  facet normal 0 0 -1
    outer loop
      vertex -0.271703 -1.42432 -1
      vertex 6 -4 -1
      vertex -0.448075 -1.37903 -1
    endloop
  endfacet
  facet normal 0 1 0
    outer loop
      vertex -6 4 -1
      vertex -6 4 1
      vertex 6 4 -1
    endloop
  endfacet
  facet normal 0 1 0
    outer loop
      vertex 6 4 -1
      vertex -6 4 1
      vertex 6 4 1
    endloop
  endfacet
  facet normal 0 0 1
    outer loop
      vertex 0.562144 -2.94686 1
      vertex -6 -4 1
      vertex 6 -4 1
    endloop
  endfacet
  facet normal 0 0 1
    outer loop
      vertex 0.188372 -2.99408 1
      vertex -0.188372 -2.99408 1
      vertex -6 -4 1
    endloop
  endfacet
  facet normal 0 0 1
    outer loop
      vertex -6 4 1
      vertex -6 -4 1
      vertex -2.97634 -0.376 1
    endloop
  endfacet
  facet normal 0 0 1
    outer loop
      vertex 1.91227 -2.31154 1
      vertex 1.60748 -2.53298 1
      vertex 6 -4 1
    endloop
  endfacet
  facet normal 0 0 1
    outer loop
      vertex -6 4 1
      vertex -2.97634 -0.376 1
      vertex -3 0 1
    endloop
  endfacet
  facet normal 0 0 1
    outer loop
      vertex -0.188372 -2.99408 1
      vertex -0.562144 -2.94686 1
      vertex -6 -4 1
    endloop
  endfacet
  facet normal 0 0 1
    outer loop
      vertex -6 4 1
      vertex -3 0 1
      vertex -2.97634 0.376 1
    endloop
  endfacet
  facet normal 0 0 1
    outer loop
      vertex -6 4 1
      vertex -2.97634 0.376 1
      vertex -2.90575 0.74607 1
    endloop
  endfacet
  facet normal 0 0 1
    outer loop
      vertex 2.18691 -2.05364 1
      vertex 1.91227 -2.31154 1
      vertex 6 -4 1
    endloop
  endfacet
  facet normal 0 0 1
    outer loop
      vertex -6 4 1
      vertex -2.90575 0.74607 1
      vertex -2.78933 1.10437 1
    endloop
  endfacet
  facet normal 0 0 1
    outer loop
      vertex -0.188372 2.99408 1
      vertex 0.188372 2.99408 1
      vertex 6 4 1
    endloop
  endfacet
  facet normal 0 0 1
    outer loop
      vertex -6 4 1
      vertex -2.78933 1.10437 1
      vertex -2.62892 1.44526 1
    endloop
  endfacet
  facet normal 0 0 1
    outer loop
      vertex 2.42705 -1.76336 1
      vertex 2.18691 -2.05364 1
      vertex 6 -4 1
    endloop
  endfacet
  facet normal 0 0 1
    outer loop
      vertex -2.18691 2.05364 1
      vertex -6 4 1
      vertex -2.42705 1.76336 1
    endloop
  endfacet
  facet normal 0 0 1
    outer loop
      vertex 2.62892 1.44526 1
      vertex 2.78933 1.10437 1
      vertex 6 -4 1
    endloop
  endfacet
  facet normal 0 0 1
    outer loop
      vertex -1.91227 2.31154 1
      vertex -6 4 1
      vertex -2.18691 2.05364 1
    endloop
  endfacet
  facet normal 0 0 1
    outer loop
      vertex -1.60748 2.53298 1
      vertex -6 4 1
      vertex -1.91227 2.31154 1
    endloop
  endfacet
  facet normal 0 0 1
    outer loop
      vertex -1.27734 2.71448 1
      vertex -6 4 1
      vertex -1.60748 2.53298 1
    endloop
  endfacet
  facet normal 0 0 1
    outer loop
      vertex 0.562144 2.94686 1
      vertex 0.927051 2.85317 1
      vertex 6 4 1
    endloop
  endfacet
  facet normal 0 0 1
    outer loop
      vertex -0.927051 2.85317 1
      vertex -6 4 1
      vertex -1.27734 2.71448 1
    endloop
  endfacet
  facet normal 0 0 1
    outer loop
      vertex -0.562144 2.94686 1
      vertex -6 4 1
      vertex -0.927051 2.85317 1
    endloop
  endfacet
  facet normal 0 0 1
    outer loop
      vertex 6 4 1
      vertex -6 4 1
      vertex -0.562144 2.94686 1
    endloop
  endfacet
  facet normal 0 0 1
    outer loop
      vertex 6 4 1
      vertex -0.562144 2.94686 1
      vertex -0.188372 2.99408 1
    endloop
  endfacet
  facet normal 0 0 1
    outer loop
      vertex 0.927051 2.85317 1
      vertex 1.27734 2.71448 1
      vertex 6 4 1
    endloop
  endfacet
  facet normal 0 0 1
    outer loop
      vertex 2.78933 1.10437 1
      vertex 2.90575 0.74607 1
      vertex 6 -4 1
    endloop
  endfacet
  facet normal 0 0 1
    outer loop
      vertex 2.97634 0.376 1
      vertex 3 0 1
      vertex 6 -4 1
    endloop
  endfacet
  facet normal 0 0 1
    outer loop
      vertex 6 4 1
      vertex 1.27734 2.71448 1
      vertex 1.60748 2.53298 1
    endloop
  endfacet
  facet normal 0 0 1
    outer loop
      vertex 2.90575 0.74607 1
      vertex 2.97634 0.376 1
      vertex 6 -4 1
    endloop
  endfacet
  facet normal 0 0 1
    outer loop
      vertex 6 4 1
      vertex 1.60748 2.53298 1
      vertex 1.91227 2.31154 1
    endloop
  endfacet
  facet normal 0 0 1
    outer loop
      vertex 2.62892 -1.44526 1
      vertex 2.42705 -1.76336 1
      vertex 6 -4 1
    endloop
  endfacet
  facet normal 0 0 1
    outer loop
      vertex 6 4 1
      vertex 1.91227 2.31154 1
      vertex 2.18691 2.05364 1
    endloop
  endfacet
  facet normal 0 0 1
    outer loop
      vertex 6 4 1
      vertex 2.18691 2.05364 1
      vertex 2.42705 1.76336 1
    endloop
  endfacet
  facet normal 0 0 1
    outer loop
      vertex 6 4 1
      vertex 2.62892 1.44526 1
      vertex 6 -4 1
    endloop
  endfacet
  facet normal 0 0 1
    outer loop
      vertex 6 4 1
      vertex 2.42705 1.76336 1
      vertex 2.62892 1.44526 1
    endloop
  endfacet
  facet normal 0 0 1
    outer loop
      vertex 3 0 1
      vertex 2.97634 -0.376 1
      vertex 6 -4 1
    endloop
  endfacet
  facet normal 0 0 1
    outer loop
      vertex 2.97634 -0.376 1
      vertex 2.90575 -0.74607 1
      vertex 6 -4 1
    endloop
  endfacet
  facet normal 0 0 1
    outer loop
      vertex 2.90575 -0.74607 1
      vertex 2.78933 -1.10437 1
      vertex 6 -4 1
    endloop
  endfacet
  facet normal 0 0 1
    outer loop
      vertex 2.78933 -1.10437 1
      vertex 2.62892 -1.44526 1
      vertex 6 -4 1
    endloop
  endfacet
  facet normal 0 0 1
    outer loop
      vertex 1.60748 -2.53298 1
      vertex 1.27734 -2.71448 1
      vertex 6 -4 1
    endloop
  endfacet
  facet normal 0 0 1
    outer loop
      vertex 1.27734 -2.71448 1
      vertex 0.927051 -2.85317 1
      vertex 6 -4 1
    endloop
  endfacet
  facet normal 0 0 1
    outer loop
      vertex 0.927051 -2.85317 1
      vertex 0.562144 -2.94686 1
      vertex 6 -4 1
    endloop
  endfacet
  facet normal 0 0 1
    outer loop
      vertex 0.188372 -2.99408 1
      vertex -6 -4 1
      vertex 0.562144 -2.94686 1
    endloop
  endfacet
  facet normal 0 0 1
    outer loop
      vertex -0.927051 -2.85317 1
      vertex -6 -4 1
      vertex -0.562144 -2.94686 1
    endloop
  endfacet
  facet normal 0 0 1
    outer loop
      vertex -1.27734 -2.71448 1
      vertex -6 -4 1
      vertex -0.927051 -2.85317 1
    endloop
  endfacet
  facet normal 0 0 1
    outer loop
      vertex -1.60748 -2.53298 1
      vertex -6 -4 1
      vertex -1.27734 -2.71448 1
    endloop
  endfacet
  facet normal 0 0 1
    outer loop
      vertex -1.91227 -2.31154 1
      vertex -6 -4 1
      vertex -1.60748 -2.53298 1
    endloop
  endfacet
  facet normal 0 0 1
    outer loop
      vertex -2.18691 -2.05364 1
      vertex -6 -4 1
      vertex -1.91227 -2.31154 1
    endloop
  endfacet
  facet normal 0 0 1
    outer loop
      vertex -2.42705 -1.76336 1
      vertex -6 -4 1
      vertex -2.18691 -2.05364 1
    endloop
  endfacet
  facet normal 0 0 1
    outer loop
      vertex -2.62892 -1.44526 1
      vertex -6 -4 1
      vertex -2.42705 -1.76336 1
    endloop
  endfacet
  facet normal 0 0 1
    outer loop
      vertex -2.78933 -1.10437 1
      vertex -6 -4 1
      vertex -2.62892 -1.44526 1
    endloop
  endfacet
  facet normal 0 0 1
    outer loop
      vertex -2.90575 -0.74607 1
      vertex -6 -4 1
      vertex -2.78933 -1.10437 1
    endloop
  endfacet
  facet normal 0 0 1
    outer loop
      vertex -2.97634 -0.376 1
      vertex -6 -4 1
      vertex -2.90575 -0.74607 1
    endloop
  endfacet
  facet normal 0 0 1
    outer loop
      vertex -2.62892 1.44526 1
      vertex -2.42705 1.76336 1
      vertex -6 4 1
    endloop
  endfacet
  facet normal 0 0 1
    outer loop
      vertex 0.188372 2.99408 1
      vertex 0.562144 2.94686 1
      vertex 6 4 1
    endloop
  endfacet
  facet normal 1 0 0
    outer loop
      vertex 6 -4 1
      vertex 6 -4 -1
      vertex 6 4 -1
    endloop
  endfacet
  facet normal 1 0 0
    outer loop
      vertex 6 4 1
      vertex 6 -4 1
      vertex 6 4 -1
    endloop
  endfacet
  facet normal 0.998027 -0.0627923 0
    outer loop
      vertex -1.43857 0.181733 -1
      vertex -1.43857 0.181733 3.25
      vertex -1.45 0 3.25
    endloop
  endfacet
  facet normal 0.998027 -0.0627923 0
    outer loop
      vertex -1.45 0 -1
      vertex -1.43857 0.181733 -1
      vertex -1.45 0 3.25
    endloop
  endfacet
  facet normal 0.998027 0.0627923 0
    outer loop
      vertex -1.45 0 3.25
      vertex -1.43857 -0.181733 3.25
      vertex -1.43857 -0.181733 -1
    endloop
  endfacet
  facet normal 0.998027 0.0627923 0
    outer loop
      vertex -1.45 0 -1
      vertex -1.45 0 3.25
      vertex -1.43857 -0.181733 -1
    endloop
  endfacet
  facet normal 0.982288 -0.187378 0
    outer loop
      vertex -1.40445 0.3606 -1
      vertex -1.40445 0.3606 3.25
      vertex -1.43857 0.181733 3.25
    endloop
  endfacet
  facet normal 0.982288 -0.187378 0
    outer loop
      vertex -1.43857 0.181733 -1
      vertex -1.40445 0.3606 -1
      vertex -1.43857 0.181733 3.25
    endloop
  endfacet
  facet normal 0.951056 -0.309017 0
    outer loop
      vertex -1.34818 0.533781 -1
      vertex -1.34818 0.533781 3.25
      vertex -1.40445 0.3606 3.25
    endloop
  endfacet
  facet normal 0.951056 -0.309017 0
    outer loop
      vertex -1.40445 0.3606 -1
      vertex -1.34818 0.533781 -1
      vertex -1.40445 0.3606 3.25
    endloop
  endfacet
  facet normal 0.904827 -0.425779 0
    outer loop
      vertex -1.27065 0.698543 -1
      vertex -1.27065 0.698543 3.25
      vertex -1.34818 0.533781 3.25
    endloop
  endfacet
  facet normal 0.904827 -0.425779 0
    outer loop
      vertex -1.34818 0.533781 -1
      vertex -1.27065 0.698543 -1
      vertex -1.34818 0.533781 3.25
    endloop
  endfacet
  facet normal 0.844328 -0.535826 0
    outer loop
      vertex -1.17307 0.852289 -1
      vertex -1.17307 0.852289 3.25
      vertex -1.27065 0.698543 3.25
    endloop
  endfacet
  facet normal 0.844328 -0.535826 0
    outer loop
      vertex -1.27065 0.698543 -1
      vertex -1.17307 0.852289 -1
      vertex -1.27065 0.698543 3.25
    endloop
  endfacet
  facet normal 0.770512 -0.637425 0
    outer loop
      vertex -1.057 0.992593 -1
      vertex -1.057 0.992593 3.25
      vertex -1.17307 0.852289 3.25
    endloop
  endfacet
  facet normal 0.770512 -0.637425 0
    outer loop
      vertex -1.17307 0.852289 -1
      vertex -1.057 0.992593 -1
      vertex -1.17307 0.852289 3.25
    endloop
  endfacet
  facet normal 0.684547 -0.728969 0
    outer loop
      vertex -0.924265 1.11724 -1
      vertex -0.924265 1.11724 3.25
      vertex -1.057 0.992593 3.25
    endloop
  endfacet
  facet normal 0.684547 -0.728969 0
    outer loop
      vertex -1.057 0.992593 -1
      vertex -0.924265 1.11724 -1
      vertex -1.057 0.992593 3.25
    endloop
  endfacet
  facet normal 0.587784 -0.809018 0
    outer loop
      vertex -0.776949 1.22428 -1
      vertex -0.776949 1.22428 3.25
      vertex -0.924265 1.11724 3.25
    endloop
  endfacet
  facet normal 0.587784 -0.809018 0
    outer loop
      vertex -0.924265 1.11724 -1
      vertex -0.776949 1.22428 -1
      vertex -0.924265 1.11724 3.25
    endloop
  endfacet
  facet normal 0.481755 -0.876306 0
    outer loop
      vertex -0.61738 1.312 -1
      vertex -0.61738 1.312 3.25
      vertex -0.776949 1.22428 3.25
    endloop
  endfacet
  facet normal 0.481755 -0.876306 0
    outer loop
      vertex -0.776949 1.22428 -1
      vertex -0.61738 1.312 -1
      vertex -0.776949 1.22428 3.25
    endloop
  endfacet
  facet normal 0.368126 -0.929776 0
    outer loop
      vertex -0.448075 1.37903 -1
      vertex -0.448075 1.37903 3.25
      vertex -0.61738 1.312 3.25
    endloop
  endfacet
  facet normal 0.368126 -0.929776 0
    outer loop
      vertex -0.61738 1.312 -1
      vertex -0.448075 1.37903 -1
      vertex -0.61738 1.312 3.25
    endloop
  endfacet
  facet normal 0.248692 -0.968583 0
    outer loop
      vertex -0.271703 1.42432 -1
      vertex -0.271703 1.42432 3.25
      vertex -0.448075 1.37903 3.25
    endloop
  endfacet
  facet normal 0.248692 -0.968583 0
    outer loop
      vertex -0.448075 1.37903 -1
      vertex -0.271703 1.42432 -1
      vertex -0.448075 1.37903 3.25
    endloop
  endfacet
  facet normal 0.125332 -0.992115 0
    outer loop
      vertex -0.091046 1.44714 -1
      vertex -0.091046 1.44714 3.25
      vertex -0.271703 1.42432 3.25
    endloop
  endfacet
  facet normal 0.125332 -0.992115 0
    outer loop
      vertex -0.271703 1.42432 -1
      vertex -0.091046 1.44714 -1
      vertex -0.271703 1.42432 3.25
    endloop
  endfacet
  facet normal 0 -1 0
    outer loop
      vertex 0.091046 1.44714 -1
      vertex 0.091046 1.44714 3.25
      vertex -0.091046 1.44714 3.25
    endloop
  endfacet
  facet normal 0 -1 0
    outer loop
      vertex -0.091046 1.44714 -1
      vertex 0.091046 1.44714 -1
      vertex -0.091046 1.44714 3.25
    endloop
  endfacet
  facet normal -0.125332 -0.992115 0
    outer loop
      vertex 0.271703 1.42432 -1
      vertex 0.271703 1.42432 3.25
      vertex 0.091046 1.44714 3.25
    endloop
  endfacet
  facet normal -0.125332 -0.992115 0
    outer loop
      vertex 0.091046 1.44714 -1
      vertex 0.271703 1.42432 -1
      vertex 0.091046 1.44714 3.25
    endloop
  endfacet
  facet normal -0.248692 -0.968583 0
    outer loop
      vertex 0.448075 1.37903 -1
      vertex 0.448075 1.37903 3.25
      vertex 0.271703 1.42432 3.25
    endloop
  endfacet
  facet normal -0.248692 -0.968583 0
    outer loop
      vertex 0.271703 1.42432 -1
      vertex 0.448075 1.37903 -1
      vertex 0.271703 1.42432 3.25
    endloop
  endfacet
  facet normal -0.368126 -0.929776 0
    outer loop
      vertex 0.61738 1.312 -1
      vertex 0.61738 1.312 3.25
      vertex 0.448075 1.37903 3.25
    endloop
  endfacet
  facet normal -0.368126 -0.929776 0
    outer loop
      vertex 0.448075 1.37903 -1
      vertex 0.61738 1.312 -1
      vertex 0.448075 1.37903 3.25
    endloop
  endfacet
  facet normal -0.481755 -0.876306 0
    outer loop
      vertex 0.776949 1.22428 -1
      vertex 0.776949 1.22428 3.25
      vertex 0.61738 1.312 3.25
    endloop
  endfacet
  facet normal -0.481755 -0.876306 0
    outer loop
      vertex 0.61738 1.312 -1
      vertex 0.776949 1.22428 -1
      vertex 0.61738 1.312 3.25
    endloop
  endfacet
  facet normal -0.587784 -0.809018 0
    outer loop
      vertex 0.924265 1.11724 -1
      vertex 0.924265 1.11724 3.25
      vertex 0.776949 1.22428 3.25
    endloop
  endfacet
  facet normal -0.587784 -0.809018 0
    outer loop
      vertex 0.776949 1.22428 -1
      vertex 0.924265 1.11724 -1
      vertex 0.776949 1.22428 3.25
    endloop
  endfacet
  facet normal -0.684547 -0.728969 0
    outer loop
      vertex 1.057 0.992593 -1
      vertex 1.057 0.992593 3.25
      vertex 0.924265 1.11724 3.25
    endloop
  endfacet
  facet normal -0.684547 -0.728969 0
    outer loop
      vertex 0.924265 1.11724 -1
      vertex 1.057 0.992593 -1
      vertex 0.924265 1.11724 3.25
    endloop
  endfacet
  facet normal -0.770512 -0.637425 0
    outer loop
      vertex 1.17307 0.852289 3.25
      vertex 1.057 0.992593 3.25
      vertex 1.17307 0.852289 -1
    endloop
  endfacet
  facet normal -0.770512 -0.637425 0
    outer loop
      vertex 1.17307 0.852289 -1
      vertex 1.057 0.992593 3.25
      vertex 1.057 0.992593 -1
    endloop
  endfacet
  facet normal -0.844328 -0.535826 0
    outer loop
      vertex 1.27065 0.698543 3.25
      vertex 1.17307 0.852289 3.25
      vertex 1.27065 0.698543 -1
    endloop
  endfacet
  facet normal -0.844328 -0.535826 0
    outer loop
      vertex 1.27065 0.698543 -1
      vertex 1.17307 0.852289 3.25
      vertex 1.17307 0.852289 -1
    endloop
  endfacet
  facet normal -0.904827 -0.425779 0
    outer loop
      vertex 1.34818 0.533781 3.25
      vertex 1.27065 0.698543 3.25
      vertex 1.34818 0.533781 -1
    endloop
  endfacet
  facet normal -0.904827 -0.425779 0
    outer loop
      vertex 1.34818 0.533781 -1
      vertex 1.27065 0.698543 3.25
      vertex 1.27065 0.698543 -1
    endloop
  endfacet
  facet normal -0.951056 -0.309017 0
    outer loop
      vertex 1.40445 0.3606 3.25
      vertex 1.34818 0.533781 3.25
      vertex 1.40445 0.3606 -1
    endloop
  endfacet
  facet normal -0.951056 -0.309017 0
    outer loop
      vertex 1.40445 0.3606 -1
      vertex 1.34818 0.533781 3.25
      vertex 1.34818 0.533781 -1
    endloop
  endfacet
  facet normal -0.982288 -0.187378 0
    outer loop
      vertex 1.43857 0.181733 3.25
      vertex 1.40445 0.3606 3.25
      vertex 1.43857 0.181733 -1
    endloop
  endfacet
  facet normal -0.982288 -0.187378 0
    outer loop
      vertex 1.43857 0.181733 -1
      vertex 1.40445 0.3606 3.25
      vertex 1.40445 0.3606 -1
    endloop
  endfacet
  facet normal -0.998027 -0.0627923 0
    outer loop
      vertex 1.45 0 3.25
      vertex 1.43857 0.181733 3.25
      vertex 1.45 0 -1
    endloop
  endfacet
  facet normal -0.998027 -0.0627923 0
    outer loop
      vertex 1.45 0 -1
      vertex 1.43857 0.181733 3.25
      vertex 1.43857 0.181733 -1
    endloop
  endfacet
  facet normal -0.998027 0.0627923 0
    outer loop
      vertex 1.45 0 3.25
      vertex 1.45 0 -1
      vertex 1.43857 -0.181733 3.25
    endloop
  endfacet
  facet normal -0.998027 0.0627923 0
    outer loop
      vertex 1.43857 -0.181733 3.25
      vertex 1.45 0 -1
      vertex 1.43857 -0.181733 -1
    endloop
  endfacet
  facet normal -0.982288 0.187378 0
    outer loop
      vertex 1.43857 -0.181733 3.25
      vertex 1.43857 -0.181733 -1
      vertex 1.40445 -0.3606 3.25
    endloop
  endfacet
  facet normal -0.982288 0.187378 0
    outer loop
      vertex 1.40445 -0.3606 3.25
      vertex 1.43857 -0.181733 -1
      vertex 1.40445 -0.3606 -1
    endloop
  endfacet
  facet normal -0.951056 0.309017 0
    outer loop
      vertex 1.40445 -0.3606 3.25
      vertex 1.40445 -0.3606 -1
      vertex 1.34818 -0.533781 3.25
    endloop
  endfacet
  facet normal -0.951056 0.309017 0
    outer loop
      vertex 1.34818 -0.533781 3.25
      vertex 1.40445 -0.3606 -1
      vertex 1.34818 -0.533781 -1
    endloop
  endfacet
  facet normal -0.904827 0.425779 0
    outer loop
      vertex 1.34818 -0.533781 3.25
      vertex 1.34818 -0.533781 -1
      vertex 1.27065 -0.698543 3.25
    endloop
  endfacet
  facet normal -0.904827 0.425779 0
    outer loop
      vertex 1.27065 -0.698543 3.25
      vertex 1.34818 -0.533781 -1
      vertex 1.27065 -0.698543 -1
    endloop
  endfacet
  facet normal -0.844328 0.535826 0
    outer loop
      vertex 1.27065 -0.698543 3.25
      vertex 1.27065 -0.698543 -1
      vertex 1.17307 -0.852289 3.25
    endloop
  endfacet
  facet normal -0.844328 0.535826 0
    outer loop
      vertex 1.17307 -0.852289 3.25
      vertex 1.27065 -0.698543 -1
      vertex 1.17307 -0.852289 -1
    endloop
  endfacet
  facet normal -0.770512 0.637425 0
    outer loop
      vertex 1.17307 -0.852289 3.25
      vertex 1.17307 -0.852289 -1
      vertex 1.057 -0.992593 3.25
    endloop
  endfacet
  facet normal -0.770512 0.637425 0
    outer loop
      vertex 1.057 -0.992593 3.25
      vertex 1.17307 -0.852289 -1
      vertex 1.057 -0.992593 -1
    endloop
  endfacet
  facet normal -0.684547 0.728969 0
    outer loop
      vertex 1.057 -0.992593 3.25
      vertex 1.057 -0.992593 -1
      vertex 0.924265 -1.11724 3.25
    endloop
  endfacet
  facet normal -0.684547 0.728969 0
    outer loop
      vertex 0.924265 -1.11724 3.25
      vertex 1.057 -0.992593 -1
      vertex 0.924265 -1.11724 -1
    endloop
  endfacet
  facet normal -0.587784 0.809018 0
    outer loop
      vertex 0.924265 -1.11724 3.25
      vertex 0.924265 -1.11724 -1
      vertex 0.776949 -1.22428 3.25
    endloop
  endfacet
  facet normal -0.587784 0.809018 0
    outer loop
      vertex 0.776949 -1.22428 3.25
      vertex 0.924265 -1.11724 -1
      vertex 0.776949 -1.22428 -1
    endloop
  endfacet
  facet normal -0.481755 0.876306 0
    outer loop
      vertex 0.776949 -1.22428 3.25
      vertex 0.776949 -1.22428 -1
      vertex 0.61738 -1.312 3.25
    endloop
  endfacet
  facet normal -0.481755 0.876306 0
    outer loop
      vertex 0.61738 -1.312 3.25
      vertex 0.776949 -1.22428 -1
      vertex 0.61738 -1.312 -1
    endloop
  endfacet
  facet normal -0.368126 0.929776 0
    outer loop
      vertex 0.61738 -1.312 3.25
      vertex 0.61738 -1.312 -1
      vertex 0.448075 -1.37903 3.25
    endloop
  endfacet
  facet normal -0.368126 0.929776 0
    outer loop
      vertex 0.448075 -1.37903 3.25
      vertex 0.61738 -1.312 -1
      vertex 0.448075 -1.37903 -1
    endloop
  endfacet
  facet normal -0.248692 0.968583 0
    outer loop
      vertex 0.448075 -1.37903 3.25
      vertex 0.448075 -1.37903 -1
      vertex 0.271703 -1.42432 3.25
    endloop
  endfacet
  facet normal -0.248692 0.968583 0
    outer loop
      vertex 0.271703 -1.42432 3.25
      vertex 0.448075 -1.37903 -1
      vertex 0.271703 -1.42432 -1
    endloop
  endfacet
  facet normal -0.125332 0.992115 0
    outer loop
      vertex 0.271703 -1.42432 3.25
      vertex 0.271703 -1.42432 -1
      vertex 0.091046 -1.44714 3.25
    endloop
  endfacet
  facet normal -0.125332 0.992115 0
    outer loop
      vertex 0.091046 -1.44714 3.25
      vertex 0.271703 -1.42432 -1
      vertex 0.091046 -1.44714 -1
    endloop
  endfacet
  facet normal 0 1 0
    outer loop
      vertex 0.091046 -1.44714 3.25
      vertex 0.091046 -1.44714 -1
      vertex -0.091046 -1.44714 3.25
    endloop
  endfacet
  facet normal 0 1 0
    outer loop
      vertex -0.091046 -1.44714 3.25
      vertex 0.091046 -1.44714 -1
      vertex -0.091046 -1.44714 -1
    endloop
  endfacet
  facet normal 0.125332 0.992115 0
    outer loop
      vertex -0.091046 -1.44714 3.25
      vertex -0.091046 -1.44714 -1
      vertex -0.271703 -1.42432 3.25
    endloop
  endfacet
  facet normal 0.125332 0.992115 0
    outer loop
      vertex -0.271703 -1.42432 3.25
      vertex -0.091046 -1.44714 -1
      vertex -0.271703 -1.42432 -1
    endloop
  endfacet
  facet normal 0.248692 0.968583 0
    outer loop
      vertex -0.271703 -1.42432 3.25
      vertex -0.271703 -1.42432 -1
      vertex -0.448075 -1.37903 3.25
    endloop
  endfacet
  facet normal 0.248692 0.968583 0
    outer loop
      vertex -0.448075 -1.37903 3.25
      vertex -0.271703 -1.42432 -1
      vertex -0.448075 -1.37903 -1
    endloop
  endfacet
  facet normal 0.368126 0.929776 0
    outer loop
      vertex -0.448075 -1.37903 3.25
      vertex -0.448075 -1.37903 -1
      vertex -0.61738 -1.312 3.25
    endloop
  endfacet
  facet normal 0.368126 0.929776 0
    outer loop
      vertex -0.61738 -1.312 3.25
      vertex -0.448075 -1.37903 -1
      vertex -0.61738 -1.312 -1
    endloop
  endfacet
  facet normal 0.481755 0.876306 0
    outer loop
      vertex -0.61738 -1.312 3.25
      vertex -0.61738 -1.312 -1
      vertex -0.776949 -1.22428 3.25
    endloop
  endfacet
  facet normal 0.481755 0.876306 0
    outer loop
      vertex -0.776949 -1.22428 3.25
      vertex -0.61738 -1.312 -1
      vertex -0.776949 -1.22428 -1
    endloop
  endfacet
  facet normal 0.587784 0.809018 0
    outer loop
      vertex -0.776949 -1.22428 3.25
      vertex -0.776949 -1.22428 -1
      vertex -0.924265 -1.11724 3.25
    endloop
  endfacet
  facet normal 0.587784 0.809018 0
    outer loop
      vertex -0.924265 -1.11724 3.25
      vertex -0.776949 -1.22428 -1
      vertex -0.924265 -1.11724 -1
    endloop
  endfacet
  facet normal 0.684547 0.728969 0
    outer loop
      vertex -0.924265 -1.11724 3.25
      vertex -0.924265 -1.11724 -1
      vertex -1.057 -0.992593 3.25
    endloop
  endfacet
  facet normal 0.684547 0.728969 0
    outer loop
      vertex -1.057 -0.992593 3.25
      vertex -0.924265 -1.11724 -1
      vertex -1.057 -0.992593 -1
    endloop
  endfacet
  facet normal 0.770512 0.637425 0
    outer loop
      vertex -1.17307 -0.852289 3.25
      vertex -1.057 -0.992593 3.25
      vertex -1.057 -0.992593 -1
    endloop
  endfacet
  facet normal 0.770512 0.637425 0
    outer loop
      vertex -1.17307 -0.852289 -1
      vertex -1.17307 -0.852289 3.25
      vertex -1.057 -0.992593 -1
    endloop
  endfacet
  facet normal 0.844328 0.535826 0
    outer loop
      vertex -1.27065 -0.698543 3.25
      vertex -1.17307 -0.852289 3.25
      vertex -1.17307 -0.852289 -1
    endloop
  endfacet
  facet normal 0.844328 0.535826 0
    outer loop
      vertex -1.27065 -0.698543 -1
      vertex -1.27065 -0.698543 3.25
      vertex -1.17307 -0.852289 -1
    endloop
  endfacet
  facet normal 0.904827 0.425779 0
    outer loop
      vertex -1.34818 -0.533781 3.25
      vertex -1.27065 -0.698543 3.25
      vertex -1.27065 -0.698543 -1
    endloop
  endfacet
  facet normal 0.904827 0.425779 0
    outer loop
      vertex -1.34818 -0.533781 -1
      vertex -1.34818 -0.533781 3.25
      vertex -1.27065 -0.698543 -1
    endloop
  endfacet
  facet normal 0.951056 0.309017 0
    outer loop
      vertex -1.40445 -0.3606 3.25
      vertex -1.34818 -0.533781 3.25
      vertex -1.34818 -0.533781 -1
    endloop
  endfacet
  facet normal 0.951056 0.309017 0
    outer loop
      vertex -1.40445 -0.3606 -1
      vertex -1.40445 -0.3606 3.25
      vertex -1.34818 -0.533781 -1
    endloop
  endfacet
  facet normal 0.982288 0.187378 0
    outer loop
      vertex -1.43857 -0.181733 3.25
      vertex -1.40445 -0.3606 3.25
      vertex -1.40445 -0.3606 -1
    endloop
  endfacet
  facet normal 0.982288 0.187378 0
    outer loop
      vertex -1.43857 -0.181733 -1
      vertex -1.43857 -0.181733 3.25
      vertex -1.40445 -0.3606 -1
    endloop
  endfacet
  facet normal -0.998027 -0.0627907 0
    outer loop
      vertex -3 0 1
      vertex -2.97634 -0.376 1
      vertex -3 0 3.25
    endloop
  endfacet
  facet normal -0.998027 -0.0627907 0
    outer loop
      vertex -3 0 3.25
      vertex -2.97634 -0.376 1
      vertex -2.97634 -0.376 3.25
    endloop
  endfacet
  facet normal -0.982287 -0.187382 0
    outer loop
      vertex -2.97634 -0.376 1
      vertex -2.90575 -0.74607 1
      vertex -2.97634 -0.376 3.25
    endloop
  endfacet
  facet normal -0.982287 -0.187382 0
    outer loop
      vertex -2.97634 -0.376 3.25
      vertex -2.90575 -0.74607 1
      vertex -2.90575 -0.74607 3.25
    endloop
  endfacet
  facet normal -0.951057 -0.309017 0
    outer loop
      vertex -2.90575 -0.74607 1
      vertex -2.78933 -1.10437 1
      vertex -2.90575 -0.74607 3.25
    endloop
  endfacet
  facet normal -0.951057 -0.309017 0
    outer loop
      vertex -2.90575 -0.74607 3.25
      vertex -2.78933 -1.10437 1
      vertex -2.78933 -1.10437 3.25
    endloop
  endfacet
  facet normal -0.904827 -0.425779 0
    outer loop
      vertex -2.78933 -1.10437 1
      vertex -2.62892 -1.44526 1
      vertex -2.78933 -1.10437 3.25
    endloop
  endfacet
  facet normal -0.904827 -0.425779 0
    outer loop
      vertex -2.78933 -1.10437 3.25
      vertex -2.62892 -1.44526 1
      vertex -2.62892 -1.44526 3.25
    endloop
  endfacet
  facet normal -0.844328 -0.535826 0
    outer loop
      vertex -2.62892 -1.44526 1
      vertex -2.42705 -1.76336 1
      vertex -2.62892 -1.44526 3.25
    endloop
  endfacet
  facet normal -0.844328 -0.535826 0
    outer loop
      vertex -2.62892 -1.44526 3.25
      vertex -2.42705 -1.76336 1
      vertex -2.42705 -1.76336 3.25
    endloop
  endfacet
  facet normal -0.770513 -0.637425 0
    outer loop
      vertex -2.42705 -1.76336 1
      vertex -2.18691 -2.05364 1
      vertex -2.42705 -1.76336 3.25
    endloop
  endfacet
  facet normal -0.770513 -0.637425 0
    outer loop
      vertex -2.42705 -1.76336 3.25
      vertex -2.18691 -2.05364 1
      vertex -2.18691 -2.05364 3.25
    endloop
  endfacet
  facet normal -0.684548 -0.728968 0
    outer loop
      vertex -2.18691 -2.05364 3.25
      vertex -2.18691 -2.05364 1
      vertex -1.91227 -2.31154 1
    endloop
  endfacet
  facet normal -0.684548 -0.728968 0
    outer loop
      vertex -1.91227 -2.31154 3.25
      vertex -2.18691 -2.05364 3.25
      vertex -1.91227 -2.31154 1
    endloop
  endfacet
  facet normal -0.587785 -0.809017 0
    outer loop
      vertex -1.91227 -2.31154 3.25
      vertex -1.91227 -2.31154 1
      vertex -1.60748 -2.53298 1
    endloop
  endfacet
  facet normal -0.587785 -0.809017 0
    outer loop
      vertex -1.60748 -2.53298 3.25
      vertex -1.91227 -2.31154 3.25
      vertex -1.60748 -2.53298 1
    endloop
  endfacet
  facet normal -0.481753 -0.876307 0
    outer loop
      vertex -1.60748 -2.53298 3.25
      vertex -1.60748 -2.53298 1
      vertex -1.27734 -2.71448 1
    endloop
  endfacet
  facet normal -0.481753 -0.876307 0
    outer loop
      vertex -1.27734 -2.71448 3.25
      vertex -1.60748 -2.53298 3.25
      vertex -1.27734 -2.71448 1
    endloop
  endfacet
  facet normal -0.368126 -0.929776 0
    outer loop
      vertex -1.27734 -2.71448 3.25
      vertex -1.27734 -2.71448 1
      vertex -0.927051 -2.85317 1
    endloop
  endfacet
  facet normal -0.368126 -0.929776 0
    outer loop
      vertex -0.927051 -2.85317 3.25
      vertex -1.27734 -2.71448 3.25
      vertex -0.927051 -2.85317 1
    endloop
  endfacet
  facet normal -0.248689 -0.968583 0
    outer loop
      vertex -0.927051 -2.85317 3.25
      vertex -0.927051 -2.85317 1
      vertex -0.562144 -2.94686 1
    endloop
  endfacet
  facet normal -0.248689 -0.968583 0
    outer loop
      vertex -0.562144 -2.94686 3.25
      vertex -0.927051 -2.85317 3.25
      vertex -0.562144 -2.94686 1
    endloop
  endfacet
  facet normal -0.125332 -0.992115 0
    outer loop
      vertex -0.562144 -2.94686 3.25
      vertex -0.562144 -2.94686 1
      vertex -0.188372 -2.99408 1
    endloop
  endfacet
  facet normal -0.125332 -0.992115 0
    outer loop
      vertex -0.188372 -2.99408 3.25
      vertex -0.562144 -2.94686 3.25
      vertex -0.188372 -2.99408 1
    endloop
  endfacet
  facet normal 0 -1 0
    outer loop
      vertex -0.188372 -2.99408 3.25
      vertex -0.188372 -2.99408 1
      vertex 0.188372 -2.99408 1
    endloop
  endfacet
  facet normal 0 -1 0
    outer loop
      vertex 0.188372 -2.99408 3.25
      vertex -0.188372 -2.99408 3.25
      vertex 0.188372 -2.99408 1
    endloop
  endfacet
  facet normal 0.125332 -0.992115 0
    outer loop
      vertex 0.188372 -2.99408 3.25
      vertex 0.188372 -2.99408 1
      vertex 0.562144 -2.94686 1
    endloop
  endfacet
  facet normal 0.125332 -0.992115 0
    outer loop
      vertex 0.562144 -2.94686 3.25
      vertex 0.188372 -2.99408 3.25
      vertex 0.562144 -2.94686 1
    endloop
  endfacet
  facet normal 0.248689 -0.968583 0
    outer loop
      vertex 0.562144 -2.94686 3.25
      vertex 0.562144 -2.94686 1
      vertex 0.927051 -2.85317 1
    endloop
  endfacet
  facet normal 0.248689 -0.968583 0
    outer loop
      vertex 0.927051 -2.85317 3.25
      vertex 0.562144 -2.94686 3.25
      vertex 0.927051 -2.85317 1
    endloop
  endfacet
  facet normal 0.368126 -0.929776 0
    outer loop
      vertex 0.927051 -2.85317 3.25
      vertex 0.927051 -2.85317 1
      vertex 1.27734 -2.71448 1
    endloop
  endfacet
  facet normal 0.368126 -0.929776 0
    outer loop
      vertex 1.27734 -2.71448 3.25
      vertex 0.927051 -2.85317 3.25
      vertex 1.27734 -2.71448 1
    endloop
  endfacet
  facet normal 0.481753 -0.876307 0
    outer loop
      vertex 1.27734 -2.71448 3.25
      vertex 1.27734 -2.71448 1
      vertex 1.60748 -2.53298 1
    endloop
  endfacet
  facet normal 0.481753 -0.876307 0
    outer loop
      vertex 1.60748 -2.53298 3.25
      vertex 1.27734 -2.71448 3.25
      vertex 1.60748 -2.53298 1
    endloop
  endfacet
  facet normal 0.587785 -0.809017 0
    outer loop
      vertex 1.60748 -2.53298 3.25
      vertex 1.60748 -2.53298 1
      vertex 1.91227 -2.31154 1
    endloop
  endfacet
  facet normal 0.587785 -0.809017 0
    outer loop
      vertex 1.91227 -2.31154 3.25
      vertex 1.60748 -2.53298 3.25
      vertex 1.91227 -2.31154 1
    endloop
  endfacet
  facet normal 0.684548 -0.728968 0
    outer loop
      vertex 1.91227 -2.31154 3.25
      vertex 1.91227 -2.31154 1
      vertex 2.18691 -2.05364 1
    endloop
  endfacet
  facet normal 0.684548 -0.728968 0
    outer loop
      vertex 2.18691 -2.05364 3.25
      vertex 1.91227 -2.31154 3.25
      vertex 2.18691 -2.05364 1
    endloop
  endfacet
  facet normal 0.770513 -0.637425 0
    outer loop
      vertex 2.18691 -2.05364 3.25
      vertex 2.18691 -2.05364 1
      vertex 2.42705 -1.76336 1
    endloop
  endfacet
  facet normal 0.770513 -0.637425 0
    outer loop
      vertex 2.42705 -1.76336 3.25
      vertex 2.18691 -2.05364 3.25
      vertex 2.42705 -1.76336 1
    endloop
  endfacet
  facet normal 0.844328 -0.535826 0
    outer loop
      vertex 2.42705 -1.76336 3.25
      vertex 2.42705 -1.76336 1
      vertex 2.62892 -1.44526 1
    endloop
  endfacet
  facet normal 0.844328 -0.535826 0
    outer loop
      vertex 2.62892 -1.44526 3.25
      vertex 2.42705 -1.76336 3.25
      vertex 2.62892 -1.44526 1
    endloop
  endfacet
  facet normal 0.904827 -0.425779 0
    outer loop
      vertex 2.62892 -1.44526 3.25
      vertex 2.62892 -1.44526 1
      vertex 2.78933 -1.10437 1
    endloop
  endfacet
  facet normal 0.904827 -0.425779 0
    outer loop
      vertex 2.78933 -1.10437 3.25
      vertex 2.62892 -1.44526 3.25
      vertex 2.78933 -1.10437 1
    endloop
  endfacet
  facet normal 0.951057 -0.309017 0
    outer loop
      vertex 2.78933 -1.10437 3.25
      vertex 2.78933 -1.10437 1
      vertex 2.90575 -0.74607 1
    endloop
  endfacet
  facet normal 0.951057 -0.309017 0
    outer loop
      vertex 2.90575 -0.74607 3.25
      vertex 2.78933 -1.10437 3.25
      vertex 2.90575 -0.74607 1
    endloop
  endfacet
  facet normal 0.982287 -0.187382 0
    outer loop
      vertex 2.90575 -0.74607 3.25
      vertex 2.90575 -0.74607 1
      vertex 2.97634 -0.376 1
    endloop
  endfacet
  facet normal 0.982287 -0.187382 0
    outer loop
      vertex 2.97634 -0.376 3.25
      vertex 2.90575 -0.74607 3.25
      vertex 2.97634 -0.376 1
    endloop
  endfacet
  facet normal 0.998027 -0.0627907 0
    outer loop
      vertex 2.97634 -0.376 3.25
      vertex 2.97634 -0.376 1
      vertex 3 0 1
    endloop
  endfacet
  facet normal 0.998027 -0.0627907 0
    outer loop
      vertex 3 0 3.25
      vertex 2.97634 -0.376 3.25
      vertex 3 0 1
    endloop
  endfacet
  facet normal 0.998027 0.0627907 0
    outer loop
      vertex 3 0 1
      vertex 2.97634 0.376 1
      vertex 2.97634 0.376 3.25
    endloop
  endfacet
  facet normal 0.998027 0.0627907 0
    outer loop
      vertex 3 0 3.25
      vertex 3 0 1
      vertex 2.97634 0.376 3.25
    endloop
  endfacet
  facet normal 0.982287 0.187382 0
    outer loop
      vertex 2.97634 0.376 1
      vertex 2.90575 0.74607 1
      vertex 2.90575 0.74607 3.25
    endloop
  endfacet
  facet normal 0.982287 0.187382 0
    outer loop
      vertex 2.97634 0.376 3.25
      vertex 2.97634 0.376 1
      vertex 2.90575 0.74607 3.25
    endloop
  endfacet
  facet normal 0.951057 0.309017 0
    outer loop
      vertex 2.90575 0.74607 1
      vertex 2.78933 1.10437 1
      vertex 2.78933 1.10437 3.25
    endloop
  endfacet
  facet normal 0.951057 0.309017 0
    outer loop
      vertex 2.90575 0.74607 3.25
      vertex 2.90575 0.74607 1
      vertex 2.78933 1.10437 3.25
    endloop
  endfacet
  facet normal 0.904827 0.425779 0
    outer loop
      vertex 2.78933 1.10437 1
      vertex 2.62892 1.44526 1
      vertex 2.62892 1.44526 3.25
    endloop
  endfacet
  facet normal 0.904827 0.425779 0
    outer loop
      vertex 2.78933 1.10437 3.25
      vertex 2.78933 1.10437 1
      vertex 2.62892 1.44526 3.25
    endloop
  endfacet
  facet normal 0.844328 0.535826 0
    outer loop
      vertex 2.62892 1.44526 1
      vertex 2.42705 1.76336 1
      vertex 2.42705 1.76336 3.25
    endloop
  endfacet
  facet normal 0.844328 0.535826 0
    outer loop
      vertex 2.62892 1.44526 3.25
      vertex 2.62892 1.44526 1
      vertex 2.42705 1.76336 3.25
    endloop
  endfacet
  facet normal 0.770513 0.637425 0
    outer loop
      vertex 2.42705 1.76336 1
      vertex 2.18691 2.05364 1
      vertex 2.18691 2.05364 3.25
    endloop
  endfacet
  facet normal 0.770513 0.637425 0
    outer loop
      vertex 2.42705 1.76336 3.25
      vertex 2.42705 1.76336 1
      vertex 2.18691 2.05364 3.25
    endloop
  endfacet
  facet normal 0.684548 0.728968 0
    outer loop
      vertex 1.91227 2.31154 1
      vertex 1.91227 2.31154 3.25
      vertex 2.18691 2.05364 1
    endloop
  endfacet
  facet normal 0.684548 0.728968 0
    outer loop
      vertex 2.18691 2.05364 1
      vertex 1.91227 2.31154 3.25
      vertex 2.18691 2.05364 3.25
    endloop
  endfacet
  facet normal 0.587785 0.809017 0
    outer loop
      vertex 1.60748 2.53298 1
      vertex 1.60748 2.53298 3.25
      vertex 1.91227 2.31154 1
    endloop
  endfacet
  facet normal 0.587785 0.809017 0
    outer loop
      vertex 1.91227 2.31154 1
      vertex 1.60748 2.53298 3.25
      vertex 1.91227 2.31154 3.25
    endloop
  endfacet
  facet normal 0.481753 0.876307 0
    outer loop
      vertex 1.27734 2.71448 1
      vertex 1.27734 2.71448 3.25
      vertex 1.60748 2.53298 1
    endloop
  endfacet
  facet normal 0.481753 0.876307 0
    outer loop
      vertex 1.60748 2.53298 1
      vertex 1.27734 2.71448 3.25
      vertex 1.60748 2.53298 3.25
    endloop
  endfacet
  facet normal 0.368126 0.929776 0
    outer loop
      vertex 0.927051 2.85317 1
      vertex 0.927051 2.85317 3.25
      vertex 1.27734 2.71448 1
    endloop
  endfacet
  facet normal 0.368126 0.929776 0
    outer loop
      vertex 1.27734 2.71448 1
      vertex 0.927051 2.85317 3.25
      vertex 1.27734 2.71448 3.25
    endloop
  endfacet
  facet normal 0.248689 0.968583 0
    outer loop
      vertex 0.562144 2.94686 1
      vertex 0.562144 2.94686 3.25
      vertex 0.927051 2.85317 1
    endloop
  endfacet
  facet normal 0.248689 0.968583 0
    outer loop
      vertex 0.927051 2.85317 1
      vertex 0.562144 2.94686 3.25
      vertex 0.927051 2.85317 3.25
    endloop
  endfacet
  facet normal 0.125332 0.992115 0
    outer loop
      vertex 0.188372 2.99408 1
      vertex 0.188372 2.99408 3.25
      vertex 0.562144 2.94686 1
    endloop
  endfacet
  facet normal 0.125332 0.992115 0
    outer loop
      vertex 0.562144 2.94686 1
      vertex 0.188372 2.99408 3.25
      vertex 0.562144 2.94686 3.25
    endloop
  endfacet
  facet normal 0 1 0
    outer loop
      vertex -0.188372 2.99408 1
      vertex -0.188372 2.99408 3.25
      vertex 0.188372 2.99408 1
    endloop
  endfacet
  facet normal 0 1 0
    outer loop
      vertex 0.188372 2.99408 1
      vertex -0.188372 2.99408 3.25
      vertex 0.188372 2.99408 3.25
    endloop
  endfacet
  facet normal -0.125332 0.992115 0
    outer loop
      vertex -0.562144 2.94686 1
      vertex -0.562144 2.94686 3.25
      vertex -0.188372 2.99408 1
    endloop
  endfacet
  facet normal -0.125332 0.992115 0
    outer loop
      vertex -0.188372 2.99408 1
      vertex -0.562144 2.94686 3.25
      vertex -0.188372 2.99408 3.25
    endloop
  endfacet
  facet normal -0.248689 0.968583 0
    outer loop
      vertex -0.927051 2.85317 1
      vertex -0.927051 2.85317 3.25
      vertex -0.562144 2.94686 1
    endloop
  endfacet
  facet normal -0.248689 0.968583 0
    outer loop
      vertex -0.562144 2.94686 1
      vertex -0.927051 2.85317 3.25
      vertex -0.562144 2.94686 3.25
    endloop
  endfacet
  facet normal -0.368126 0.929776 0
    outer loop
      vertex -1.27734 2.71448 1
      vertex -1.27734 2.71448 3.25
      vertex -0.927051 2.85317 1
    endloop
  endfacet
  facet normal -0.368126 0.929776 0
    outer loop
      vertex -0.927051 2.85317 1
      vertex -1.27734 2.71448 3.25
      vertex -0.927051 2.85317 3.25
    endloop
  endfacet
  facet normal -0.481753 0.876307 0
    outer loop
      vertex -1.60748 2.53298 1
      vertex -1.60748 2.53298 3.25
      vertex -1.27734 2.71448 1
    endloop
  endfacet
  facet normal -0.481753 0.876307 0
    outer loop
      vertex -1.27734 2.71448 1
      vertex -1.60748 2.53298 3.25
      vertex -1.27734 2.71448 3.25
    endloop
  endfacet
  facet normal -0.587785 0.809017 0
    outer loop
      vertex -1.91227 2.31154 1
      vertex -1.91227 2.31154 3.25
      vertex -1.60748 2.53298 1
    endloop
  endfacet
  facet normal -0.587785 0.809017 0
    outer loop
      vertex -1.60748 2.53298 1
      vertex -1.91227 2.31154 3.25
      vertex -1.60748 2.53298 3.25
    endloop
  endfacet
  facet normal -0.684548 0.728968 0
    outer loop
      vertex -2.18691 2.05364 1
      vertex -2.18691 2.05364 3.25
      vertex -1.91227 2.31154 1
    endloop
  endfacet
  facet normal -0.684548 0.728968 0
    outer loop
      vertex -1.91227 2.31154 1
      vertex -2.18691 2.05364 3.25
      vertex -1.91227 2.31154 3.25
    endloop
  endfacet
  facet normal -0.770513 0.637425 0
    outer loop
      vertex -2.42705 1.76336 1
      vertex -2.42705 1.76336 3.25
      vertex -2.18691 2.05364 1
    endloop
  endfacet
  facet normal -0.770513 0.637425 0
    outer loop
      vertex -2.18691 2.05364 1
      vertex -2.42705 1.76336 3.25
      vertex -2.18691 2.05364 3.25
    endloop
  endfacet
  facet normal -0.844328 0.535826 0
    outer loop
      vertex -2.62892 1.44526 1
      vertex -2.62892 1.44526 3.25
      vertex -2.42705 1.76336 1
    endloop
  endfacet
  facet normal -0.844328 0.535826 0
    outer loop
      vertex -2.42705 1.76336 1
      vertex -2.62892 1.44526 3.25
      vertex -2.42705 1.76336 3.25
    endloop
  endfacet
  facet normal -0.904827 0.425779 0
    outer loop
      vertex -2.78933 1.10437 1
      vertex -2.78933 1.10437 3.25
      vertex -2.62892 1.44526 1
    endloop
  endfacet
  facet normal -0.904827 0.425779 0
    outer loop
      vertex -2.62892 1.44526 1
      vertex -2.78933 1.10437 3.25
      vertex -2.62892 1.44526 3.25
    endloop
  endfacet
  facet normal -0.951057 0.309017 0
    outer loop
      vertex -2.90575 0.74607 1
      vertex -2.90575 0.74607 3.25
      vertex -2.78933 1.10437 1
    endloop
  endfacet
  facet normal -0.951057 0.309017 0
    outer loop
      vertex -2.78933 1.10437 1
      vertex -2.90575 0.74607 3.25
      vertex -2.78933 1.10437 3.25
    endloop
  endfacet
  facet normal -0.982287 0.187382 0
    outer loop
      vertex -2.97634 0.376 1
      vertex -2.97634 0.376 3.25
      vertex -2.90575 0.74607 1
    endloop
  endfacet
  facet normal -0.982287 0.187382 0
    outer loop
      vertex -2.90575 0.74607 1
      vertex -2.97634 0.376 3.25
      vertex -2.90575 0.74607 3.25
    endloop
  endfacet
  facet normal -0.998027 0.0627907 0
    outer loop
      vertex -3 0 1
      vertex -3 0 3.25
      vertex -2.97634 0.376 1
    endloop
  endfacet
  facet normal -0.998027 0.0627907 0
    outer loop
      vertex -2.97634 0.376 1
      vertex -3 0 3.25
      vertex -2.97634 0.376 3.25
    endloop
  endfacet
  facet normal 0 0 1
    outer loop
      vertex -2.97634 0.376 3.25
      vertex -3 0 3.25
      vertex -2.97634 -0.376 3.25
    endloop
  endfacet
  facet normal 0 0 1
    outer loop
      vertex -2.78933 -1.10437 3.25
      vertex -2.97634 0.376 3.25
      vertex -2.90575 -0.74607 3.25
    endloop
  endfacet
  facet normal 0 0 1
    outer loop
      vertex -2.90575 -0.74607 3.25
      vertex -2.97634 0.376 3.25
      vertex -2.97634 -0.376 3.25
    endloop
  endfacet
  facet normal 0 0 1
    outer loop
      vertex -2.62892 -1.44526 3.25
      vertex -2.97634 0.376 3.25
      vertex -2.78933 -1.10437 3.25
    endloop
  endfacet
  facet normal 0 0 1
    outer loop
      vertex -2.42705 -1.76336 3.25
      vertex -2.97634 0.376 3.25
      vertex -2.62892 -1.44526 3.25
    endloop
  endfacet
  facet normal 0 0 1
    outer loop
      vertex -2.18691 -2.05364 3.25
      vertex -2.97634 0.376 3.25
      vertex -2.42705 -1.76336 3.25
    endloop
  endfacet
  facet normal 0 0 1
    outer loop
      vertex -1.91227 -2.31154 3.25
      vertex -2.97634 0.376 3.25
      vertex -2.18691 -2.05364 3.25
    endloop
  endfacet
  facet normal 0 0 1
    outer loop
      vertex -1.60748 -2.53298 3.25
      vertex -2.97634 0.376 3.25
      vertex -1.91227 -2.31154 3.25
    endloop
  endfacet
  facet normal 0 0 1
    outer loop
      vertex -1.27734 -2.71448 3.25
      vertex -2.97634 0.376 3.25
      vertex -1.60748 -2.53298 3.25
    endloop
  endfacet
  facet normal 0 0 1
    outer loop
      vertex -0.927051 -2.85317 3.25
      vertex -2.97634 0.376 3.25
      vertex -1.27734 -2.71448 3.25
    endloop
  endfacet
  facet normal 0 0 1
    outer loop
      vertex -0.562144 -2.94686 3.25
      vertex -2.97634 0.376 3.25
      vertex -0.927051 -2.85317 3.25
    endloop
  endfacet
  facet normal 0 0 1
    outer loop
      vertex -0.188372 -2.99408 3.25
      vertex -2.97634 0.376 3.25
      vertex -0.562144 -2.94686 3.25
    endloop
  endfacet
  facet normal 0 0 1
    outer loop
      vertex 0.188372 -2.99408 3.25
      vertex -2.97634 0.376 3.25
      vertex -0.188372 -2.99408 3.25
    endloop
  endfacet
  facet normal 0 0 1
    outer loop
      vertex 0.562144 -2.94686 3.25
      vertex -2.97634 0.376 3.25
      vertex 0.188372 -2.99408 3.25
    endloop
  endfacet
  facet normal 0 0 1
    outer loop
      vertex 0.927051 -2.85317 3.25
      vertex -2.97634 0.376 3.25
      vertex 0.562144 -2.94686 3.25
    endloop
  endfacet
  facet normal 0 0 1
    outer loop
      vertex -0.924265 -1.11724 3.25
      vertex -2.97634 0.376 3.25
      vertex 0.927051 -2.85317 3.25
    endloop
  endfacet
  facet normal 0 0 1
    outer loop
      vertex -0.61738 -1.312 3.25
      vertex -0.776949 -1.22428 3.25
      vertex 1.27734 -2.71448 3.25
    endloop
  endfacet
  facet normal 0 0 1
    outer loop
      vertex -0.091046 -1.44714 3.25
      vertex -0.271703 -1.42432 3.25
      vertex 1.60748 -2.53298 3.25
    endloop
  endfacet
  facet normal 0 0 1
    outer loop
      vertex 0.448075 -1.37903 3.25
      vertex 0.271703 -1.42432 3.25
      vertex 1.91227 -2.31154 3.25
    endloop
  endfacet
  facet normal 0 0 1
    outer loop
      vertex 1.27065 -0.698543 3.25
      vertex 1.17307 -0.852289 3.25
      vertex 2.78933 -1.10437 3.25
    endloop
  endfacet
  facet normal 0 0 1
    outer loop
      vertex -1.40445 0.3606 3.25
      vertex -1.34818 0.533781 3.25
      vertex -2.97634 0.376 3.25
    endloop
  endfacet
  facet normal 0 0 1
    outer loop
      vertex 1.27065 0.698543 3.25
      vertex 1.34818 0.533781 3.25
      vertex 2.90575 0.74607 3.25
    endloop
  endfacet
  facet normal 0 0 1
    outer loop
      vertex -0.448075 1.37903 3.25
      vertex -0.271703 1.42432 3.25
      vertex 1.91227 2.31154 3.25
    endloop
  endfacet
  facet normal 0 0 1
    outer loop
      vertex 0.271703 1.42432 3.25
      vertex 0.448075 1.37903 3.25
      vertex 2.18691 2.05364 3.25
    endloop
  endfacet
  facet normal 0 0 1
    outer loop
      vertex -0.271703 1.42432 3.25
      vertex -0.091046 1.44714 3.25
      vertex 1.91227 2.31154 3.25
    endloop
  endfacet
  facet normal 0 0 1
    outer loop
      vertex 1.27734 2.71448 3.25
      vertex -2.97634 0.376 3.25
      vertex 1.60748 2.53298 3.25
    endloop
  endfacet
  facet normal 0 0 1
    outer loop
      vertex 0.927051 2.85317 3.25
      vertex -2.97634 0.376 3.25
      vertex 1.27734 2.71448 3.25
    endloop
  endfacet
  facet normal 0 0 1
    outer loop
      vertex 0.562144 2.94686 3.25
      vertex -2.97634 0.376 3.25
      vertex 0.927051 2.85317 3.25
    endloop
  endfacet
  facet normal 0 0 1
    outer loop
      vertex 0.188372 2.99408 3.25
      vertex -2.97634 0.376 3.25
      vertex 0.562144 2.94686 3.25
    endloop
  endfacet
  facet normal 0 0 1
    outer loop
      vertex -0.188372 2.99408 3.25
      vertex -2.97634 0.376 3.25
      vertex 0.188372 2.99408 3.25
    endloop
  endfacet
  facet normal 0 0 1
    outer loop
      vertex -0.562144 2.94686 3.25
      vertex -2.97634 0.376 3.25
      vertex -0.188372 2.99408 3.25
    endloop
  endfacet
  facet normal 0 0 1
    outer loop
      vertex -0.927051 2.85317 3.25
      vertex -2.97634 0.376 3.25
      vertex -0.562144 2.94686 3.25
    endloop
  endfacet
  facet normal 0 0 1
    outer loop
      vertex -1.27734 2.71448 3.25
      vertex -2.97634 0.376 3.25
      vertex -0.927051 2.85317 3.25
    endloop
  endfacet
  facet normal 0 0 1
    outer loop
      vertex -1.60748 2.53298 3.25
      vertex -2.97634 0.376 3.25
      vertex -1.27734 2.71448 3.25
    endloop
  endfacet
  facet normal 0 0 1
    outer loop
      vertex -1.91227 2.31154 3.25
      vertex -2.97634 0.376 3.25
      vertex -1.60748 2.53298 3.25
    endloop
  endfacet
  facet normal 0 0 1
    outer loop
      vertex -2.18691 2.05364 3.25
      vertex -2.97634 0.376 3.25
      vertex -1.91227 2.31154 3.25
    endloop
  endfacet
  facet normal 0 0 1
    outer loop
      vertex -2.42705 1.76336 3.25
      vertex -2.97634 0.376 3.25
      vertex -2.18691 2.05364 3.25
    endloop
  endfacet
  facet normal 0 0 1
    outer loop
      vertex -2.62892 1.44526 3.25
      vertex -2.97634 0.376 3.25
      vertex -2.42705 1.76336 3.25
    endloop
  endfacet
  facet normal 0 0 1
    outer loop
      vertex -2.78933 1.10437 3.25
      vertex -2.97634 0.376 3.25
      vertex -2.62892 1.44526 3.25
    endloop
  endfacet
  facet normal 0 0 1
    outer loop
      vertex -2.90575 0.74607 3.25
      vertex -2.97634 0.376 3.25
      vertex -2.78933 1.10437 3.25
    endloop
  endfacet
  facet normal 0 0 1
    outer loop
      vertex 0.61738 -1.312 3.25
      vertex 0.448075 -1.37903 3.25
      vertex 2.18691 -2.05364 3.25
    endloop
  endfacet
  facet normal 0 0 1
    outer loop
      vertex 1.17307 -0.852289 3.25
      vertex 1.057 -0.992593 3.25
      vertex 2.62892 -1.44526 3.25
    endloop
  endfacet
  facet normal 0 0 1
    outer loop
      vertex 1.43857 -0.181733 3.25
      vertex 1.40445 -0.3606 3.25
      vertex 2.97634 -0.376 3.25
    endloop
  endfacet
  facet normal 0 0 1
    outer loop
      vertex -1.27065 0.698543 3.25
      vertex -1.17307 0.852289 3.25
      vertex -2.97634 0.376 3.25
    endloop
  endfacet
  facet normal 0 0 1
    outer loop
      vertex 1.057 0.992593 3.25
      vertex 1.17307 0.852289 3.25
      vertex 2.78933 1.10437 3.25
    endloop
  endfacet
  facet normal 0 0 1
    outer loop
      vertex 1.34818 0.533781 3.25
      vertex 1.40445 0.3606 3.25
      vertex 2.97634 0.376 3.25
    endloop
  endfacet
  facet normal 0 0 1
    outer loop
      vertex -1.34818 -0.533781 3.25
      vertex -1.40445 -0.3606 3.25
      vertex -2.97634 0.376 3.25
    endloop
  endfacet
  facet normal 0 0 1
    outer loop
      vertex -1.057 0.992593 3.25
      vertex -2.97634 0.376 3.25
      vertex -1.17307 0.852289 3.25
    endloop
  endfacet
  facet normal 0 0 1
    outer loop
      vertex -0.776949 1.22428 3.25
      vertex -0.61738 1.312 3.25
      vertex -2.97634 0.376 3.25
    endloop
  endfacet
  facet normal 0 0 1
    outer loop
      vertex 0.776949 1.22428 3.25
      vertex 0.924265 1.11724 3.25
      vertex 2.62892 1.44526 3.25
    endloop
  endfacet
  facet normal 0 0 1
    outer loop
      vertex -0.776949 1.22428 3.25
      vertex -2.97634 0.376 3.25
      vertex -0.924265 1.11724 3.25
    endloop
  endfacet
  facet normal 0 0 1
    outer loop
      vertex 0.091046 1.44714 3.25
      vertex 0.271703 1.42432 3.25
      vertex 2.18691 2.05364 3.25
    endloop
  endfacet
  facet normal 0 0 1
    outer loop
      vertex 1.60748 2.53298 3.25
      vertex -2.97634 0.376 3.25
      vertex -0.61738 1.312 3.25
    endloop
  endfacet
  facet normal 0 0 1
    outer loop
      vertex 1.60748 2.53298 3.25
      vertex -0.448075 1.37903 3.25
      vertex 1.91227 2.31154 3.25
    endloop
  endfacet
  facet normal 0 0 1
    outer loop
      vertex 1.60748 2.53298 3.25
      vertex -0.61738 1.312 3.25
      vertex -0.448075 1.37903 3.25
    endloop
  endfacet
  facet normal 0 0 1
    outer loop
      vertex 1.91227 2.31154 3.25
      vertex -0.091046 1.44714 3.25
      vertex 2.18691 2.05364 3.25
    endloop
  endfacet
  facet normal 0 0 1
    outer loop
      vertex -0.091046 1.44714 3.25
      vertex 0.091046 1.44714 3.25
      vertex 2.18691 2.05364 3.25
    endloop
  endfacet
  facet normal 0 0 1
    outer loop
      vertex 0.61738 1.312 3.25
      vertex 0.776949 1.22428 3.25
      vertex 2.42705 1.76336 3.25
    endloop
  endfacet
  facet normal 0 0 1
    outer loop
      vertex 2.18691 2.05364 3.25
      vertex 0.448075 1.37903 3.25
      vertex 2.42705 1.76336 3.25
    endloop
  endfacet
  facet normal 0 0 1
    outer loop
      vertex 0.448075 1.37903 3.25
      vertex 0.61738 1.312 3.25
      vertex 2.42705 1.76336 3.25
    endloop
  endfacet
  facet normal 0 0 1
    outer loop
      vertex 2.42705 1.76336 3.25
      vertex 0.776949 1.22428 3.25
      vertex 2.62892 1.44526 3.25
    endloop
  endfacet
  facet normal 0 0 1
    outer loop
      vertex -1.057 0.992593 3.25
      vertex -0.924265 1.11724 3.25
      vertex -2.97634 0.376 3.25
    endloop
  endfacet
  facet normal 0 0 1
    outer loop
      vertex 2.62892 1.44526 3.25
      vertex 0.924265 1.11724 3.25
      vertex 2.78933 1.10437 3.25
    endloop
  endfacet
  facet normal 0 0 1
    outer loop
      vertex 0.924265 1.11724 3.25
      vertex 1.057 0.992593 3.25
      vertex 2.78933 1.10437 3.25
    endloop
  endfacet
  facet normal 0 0 1
    outer loop
      vertex 2.78933 1.10437 3.25
      vertex 1.17307 0.852289 3.25
      vertex 2.90575 0.74607 3.25
    endloop
  endfacet
  facet normal 0 0 1
    outer loop
      vertex 1.17307 0.852289 3.25
      vertex 1.27065 0.698543 3.25
      vertex 2.90575 0.74607 3.25
    endloop
  endfacet
  facet normal 0 0 1
    outer loop
      vertex 2.90575 0.74607 3.25
      vertex 1.34818 0.533781 3.25
      vertex 2.97634 0.376 3.25
    endloop
  endfacet
  facet normal 0 0 1
    outer loop
      vertex -1.34818 0.533781 3.25
      vertex -1.27065 0.698543 3.25
      vertex -2.97634 0.376 3.25
    endloop
  endfacet
  facet normal 0 0 1
    outer loop
      vertex 2.97634 0.376 3.25
      vertex 1.40445 0.3606 3.25
      vertex 3 0 3.25
    endloop
  endfacet
  facet normal 0 0 1
    outer loop
      vertex 1.40445 0.3606 3.25
      vertex 1.43857 0.181733 3.25
      vertex 3 0 3.25
    endloop
  endfacet
  facet normal 0 0 1
    outer loop
      vertex 3 0 3.25
      vertex 1.45 0 3.25
      vertex 2.97634 -0.376 3.25
    endloop
  endfacet
  facet normal 0 0 1
    outer loop
      vertex 1.40445 -0.3606 3.25
      vertex 1.34818 -0.533781 3.25
      vertex 2.90575 -0.74607 3.25
    endloop
  endfacet
  facet normal 0 0 1
    outer loop
      vertex 1.45 0 3.25
      vertex 1.43857 -0.181733 3.25
      vertex 2.97634 -0.376 3.25
    endloop
  endfacet
  facet normal 0 0 1
    outer loop
      vertex 1.43857 0.181733 3.25
      vertex 1.45 0 3.25
      vertex 3 0 3.25
    endloop
  endfacet
  facet normal 0 0 1
    outer loop
      vertex 2.97634 -0.376 3.25
      vertex 1.40445 -0.3606 3.25
      vertex 2.90575 -0.74607 3.25
    endloop
  endfacet
  facet normal 0 0 1
    outer loop
      vertex 2.90575 -0.74607 3.25
      vertex 1.34818 -0.533781 3.25
      vertex 2.78933 -1.10437 3.25
    endloop
  endfacet
  facet normal 0 0 1
    outer loop
      vertex 1.34818 -0.533781 3.25
      vertex 1.27065 -0.698543 3.25
      vertex 2.78933 -1.10437 3.25
    endloop
  endfacet
  facet normal 0 0 1
    outer loop
      vertex 2.78933 -1.10437 3.25
      vertex 1.17307 -0.852289 3.25
      vertex 2.62892 -1.44526 3.25
    endloop
  endfacet
  facet normal 0 0 1
    outer loop
      vertex -1.45 0 3.25
      vertex -1.43857 0.181733 3.25
      vertex -2.97634 0.376 3.25
    endloop
  endfacet
  facet normal 0 0 1
    outer loop
      vertex 2.62892 -1.44526 3.25
      vertex 1.057 -0.992593 3.25
      vertex 2.42705 -1.76336 3.25
    endloop
  endfacet
  facet normal 0 0 1
    outer loop
      vertex 1.057 -0.992593 3.25
      vertex 0.924265 -1.11724 3.25
      vertex 2.42705 -1.76336 3.25
    endloop
  endfacet
  facet normal 0 0 1
    outer loop
      vertex 2.42705 -1.76336 3.25
      vertex 0.776949 -1.22428 3.25
      vertex 2.18691 -2.05364 3.25
    endloop
  endfacet
  facet normal 0 0 1
    outer loop
      vertex -0.924265 -1.11724 3.25
      vertex -1.057 -0.992593 3.25
      vertex -2.97634 0.376 3.25
    endloop
  endfacet
  facet normal 0 0 1
    outer loop
      vertex 0.776949 -1.22428 3.25
      vertex 0.61738 -1.312 3.25
      vertex 2.18691 -2.05364 3.25
    endloop
  endfacet
  facet normal 0 0 1
    outer loop
      vertex 2.18691 -2.05364 3.25
      vertex 0.448075 -1.37903 3.25
      vertex 1.91227 -2.31154 3.25
    endloop
  endfacet
  facet normal 0 0 1
    outer loop
      vertex 1.91227 -2.31154 3.25
      vertex 0.271703 -1.42432 3.25
      vertex 1.60748 -2.53298 3.25
    endloop
  endfacet
  facet normal 0 0 1
    outer loop
      vertex -1.27065 -0.698543 3.25
      vertex -1.34818 -0.533781 3.25
      vertex -2.97634 0.376 3.25
    endloop
  endfacet
  facet normal 0 0 1
    outer loop
      vertex 0.271703 -1.42432 3.25
      vertex 0.091046 -1.44714 3.25
      vertex 1.60748 -2.53298 3.25
    endloop
  endfacet
  facet normal 0 0 1
    outer loop
      vertex 0.091046 -1.44714 3.25
      vertex -0.091046 -1.44714 3.25
      vertex 1.60748 -2.53298 3.25
    endloop
  endfacet
  facet normal 0 0 1
    outer loop
      vertex 1.60748 -2.53298 3.25
      vertex -0.271703 -1.42432 3.25
      vertex 1.27734 -2.71448 3.25
    endloop
  endfacet
  facet normal 0 0 1
    outer loop
      vertex -1.057 -0.992593 3.25
      vertex -1.17307 -0.852289 3.25
      vertex -2.97634 0.376 3.25
    endloop
  endfacet
  facet normal 0 0 1
    outer loop
      vertex -0.271703 -1.42432 3.25
      vertex -0.448075 -1.37903 3.25
      vertex 1.27734 -2.71448 3.25
    endloop
  endfacet
  facet normal 0 0 1
    outer loop
      vertex -0.448075 -1.37903 3.25
      vertex -0.61738 -1.312 3.25
      vertex 1.27734 -2.71448 3.25
    endloop
  endfacet
  facet normal 0 0 1
    outer loop
      vertex 1.27734 -2.71448 3.25
      vertex -0.776949 -1.22428 3.25
      vertex 0.927051 -2.85317 3.25
    endloop
  endfacet
  facet normal 0 0 1
    outer loop
      vertex -0.776949 -1.22428 3.25
      vertex -0.924265 -1.11724 3.25
      vertex 0.927051 -2.85317 3.25
    endloop
  endfacet
  facet normal 0 0 1
    outer loop
      vertex -1.17307 -0.852289 3.25
      vertex -1.27065 -0.698543 3.25
      vertex -2.97634 0.376 3.25
    endloop
  endfacet
  facet normal 0 0 1
    outer loop
      vertex 0.924265 -1.11724 3.25
      vertex 0.776949 -1.22428 3.25
      vertex 2.42705 -1.76336 3.25
    endloop
  endfacet
  facet normal 0 0 1
    outer loop
      vertex -1.40445 -0.3606 3.25
      vertex -1.43857 -0.181733 3.25
      vertex -2.97634 0.376 3.25
    endloop
  endfacet
  facet normal 0 0 1
    outer loop
      vertex -1.43857 -0.181733 3.25
      vertex -1.45 0 3.25
      vertex -2.97634 0.376 3.25
    endloop
  endfacet
  facet normal 0 0 1
    outer loop
      vertex -1.43857 0.181733 3.25
      vertex -1.40445 0.3606 3.25
      vertex -2.97634 0.376 3.25
    endloop
  endfacet
endsolid OpenSCAD_Model
