solid OpenSCAD_Model
  facet normal 0 0 -1
    outer loop
      vertex -15 0 -0.75
      vertex -14.8817 1.88 -0.75
      vertex -14.8817 -1.88 -0.75
    endloop
  endfacet
  facet normal 0 0 -1
    outer loop
      vertex -14.8817 -1.88 -0.75
      vertex -14.8817 1.88 -0.75
      vertex -14.5287 3.73035 -0.75
    endloop
  endfacet
  facet normal 0 0 -1
    outer loop
      vertex -14.8817 -1.88 -0.75
      vertex -14.5287 3.73035 -0.75
      vertex -13.9466 5.52187 -0.75
    endloop
  endfacet
  facet normal 0 0 -1
    outer loop
      vertex -14.8817 -1.88 -0.75
      vertex -13.9466 5.52187 -0.75
      vertex -13.1446 7.2263 -0.75
    endloop
  endfacet
  facet normal 0 0 -1
    outer loop
      vertex -14.8817 -1.88 -0.75
      vertex -13.1446 7.2263 -0.75
      vertex -12.1353 8.81678 -0.75
    endloop
  endfacet
  facet normal 0 0 -1
    outer loop
      vertex -14.8817 -1.88 -0.75
      vertex -12.1353 8.81678 -0.75
      vertex -10.9345 10.2682 -0.75
    endloop
  endfacet
  facet normal 0 0 -1
    outer loop
      vertex -14.8817 -1.88 -0.75
      vertex -10.9345 10.2682 -0.75
      vertex -9.56136 11.5577 -0.75
    endloop
  endfacet
  facet normal 0 0 -1
    outer loop
      vertex -14.8817 -1.88 -0.75
      vertex -9.56136 11.5577 -0.75
      vertex -8.0374 12.6649 -0.75
    endloop
  endfacet
  facet normal 0 0 -1
    outer loop
      vertex -14.8817 -1.88 -0.75
      vertex -8.0374 12.6649 -0.75
      vertex -6.38669 13.5724 -0.75
    endloop
  endfacet
  facet normal 0 0 -1
    outer loop
      vertex -14.8817 -1.88 -0.75
      vertex -6.38669 13.5724 -0.75
      vertex -4.63525 14.2658 -0.75
    endloop
  endfacet
  facet normal 0 0 -1
    outer loop
      vertex -14.8817 -1.88 -0.75
      vertex -4.63525 14.2658 -0.75
      vertex -2.81072 14.7343 -0.75
    endloop
  endfacet
  facet normal 0 0 -1
    outer loop
      vertex -14.8817 -1.88 -0.75
      vertex -2.81072 14.7343 -0.75
      vertex -0.941858 14.9704 -0.75
    endloop
  endfacet
  facet normal 0 0 -1
    outer loop
      vertex -14.8817 -1.88 -0.75
      vertex -0.941858 14.9704 -0.75
      vertex 0.941858 14.9704 -0.75
    endloop
  endfacet
  facet normal 0 0 -1
    outer loop
      vertex -14.8817 -1.88 -0.75
      vertex 0.941858 14.9704 -0.75
      vertex 2.81072 14.7343 -0.75
    endloop
  endfacet
  facet normal 0 0 -1
    outer loop
      vertex -14.8817 -1.88 -0.75
      vertex 2.81072 14.7343 -0.75
      vertex 4.63525 14.2658 -0.75
    endloop
  endfacet
  facet normal 0 0 -1
    outer loop
      vertex -14.8817 -1.88 -0.75
      vertex 4.63525 14.2658 -0.75
      vertex 6.38669 13.5724 -0.75
    endloop
  endfacet
  facet normal 0 0 -1
    outer loop
      vertex -14.8817 -1.88 -0.75
      vertex 6.38669 13.5724 -0.75
      vertex 8.0374 12.6649 -0.75
    endloop
  endfacet
  facet normal 0 0 -1
    outer loop
      vertex -14.8817 -1.88 -0.75
      vertex 8.0374 12.6649 -0.75
      vertex 9.56136 11.5577 -0.75
    endloop
  endfacet
  facet normal 0 0 -1
    outer loop
      vertex -14.8817 -1.88 -0.75
      vertex 9.56136 11.5577 -0.75
      vertex 10.9345 10.2682 -0.75
    endloop
  endfacet
  facet normal 0 0 -1
    outer loop
      vertex -0.254302 4.04201 -0.75
      vertex 10.9345 10.2682 -0.75
      vertex 12.1353 8.81678 -0.75
    endloop
  endfacet
  facet normal 0 0 -1
    outer loop
      vertex 1.72441 3.66455 -0.75
      vertex 12.1353 8.81678 -0.75
      vertex 13.1446 7.2263 -0.75
    endloop
  endfacet
  facet normal 0 0 -1
    outer loop
      vertex 2.95232 2.77242 -0.75
      vertex 13.1446 7.2263 -0.75
      vertex 13.9466 5.52187 -0.75
    endloop
  endfacet
  facet normal 0 0 -1
    outer loop
      vertex 3.54904 1.9511 -0.75
      vertex 13.9466 5.52187 -0.75
      vertex 14.5287 3.73035 -0.75
    endloop
  endfacet
  facet normal 0 0 -1
    outer loop
      vertex 3.92276 1.00719 -0.75
      vertex 14.5287 3.73035 -0.75
      vertex 14.8817 1.88 -0.75
    endloop
  endfacet
  facet normal 0 0 -1
    outer loop
      vertex 4.05 0 -0.75
      vertex 14.8817 1.88 -0.75
      vertex 15 0 -0.75
    endloop
  endfacet
  facet normal 0 0 -1
    outer loop
      vertex 3.76559 -1.4909 -0.75
      vertex 15 0 -0.75
      vertex 14.8817 -1.88 -0.75
    endloop
  endfacet
  facet normal 0 0 -1
    outer loop
      vertex 3.27652 -2.38053 -0.75
      vertex 14.8817 -1.88 -0.75
      vertex 14.5287 -3.73035 -0.75
    endloop
  endfacet
  facet normal 0 0 -1
    outer loop
      vertex 2.1701 -3.41953 -0.75
      vertex 14.5287 -3.73035 -0.75
      vertex 13.9466 -5.52187 -0.75
    endloop
  endfacet
  facet normal 0 0 -1
    outer loop
      vertex 0.254302 -4.04201 -0.75
      vertex 13.9466 -5.52187 -0.75
      vertex 13.1446 -7.2263 -0.75
    endloop
  endfacet
  facet normal 0 0 -1
    outer loop
      vertex -14.8817 -1.88 -0.75
      vertex 13.1446 -7.2263 -0.75
      vertex 12.1353 -8.81678 -0.75
    endloop
  endfacet
  facet normal 0 0 -1
    outer loop
      vertex -14.8817 -1.88 -0.75
      vertex 12.1353 -8.81678 -0.75
      vertex 10.9345 -10.2682 -0.75
    endloop
  endfacet
  facet normal 0 0 -1
    outer loop
      vertex -14.8817 -1.88 -0.75
      vertex 10.9345 -10.2682 -0.75
      vertex 9.56136 -11.5577 -0.75
    endloop
  endfacet
  facet normal 0 0 -1
    outer loop
      vertex -14.8817 -1.88 -0.75
      vertex 9.56136 -11.5577 -0.75
      vertex 8.0374 -12.6649 -0.75
    endloop
  endfacet
  facet normal 0 0 -1
    outer loop
      vertex -14.8817 -1.88 -0.75
      vertex 8.0374 -12.6649 -0.75
      vertex 6.38669 -13.5724 -0.75
    endloop
  endfacet
  facet normal 0 0 -1
    outer loop
      vertex -14.8817 -1.88 -0.75
      vertex 6.38669 -13.5724 -0.75
      vertex 4.63525 -14.2658 -0.75
    endloop
  endfacet
  facet normal 0 0 -1
    outer loop
      vertex -14.8817 -1.88 -0.75
      vertex 4.63525 -14.2658 -0.75
      vertex 2.81072 -14.7343 -0.75
    endloop
  endfacet
  facet normal 0 0 -1
    outer loop
      vertex -14.8817 -1.88 -0.75
      vertex 2.81072 -14.7343 -0.75
      vertex 0.941858 -14.9704 -0.75
    endloop
  endfacet
  facet normal 0 0 -1
    outer loop
      vertex -14.8817 -1.88 -0.75
      vertex 0.941858 -14.9704 -0.75
      vertex -0.941858 -14.9704 -0.75
    endloop
  endfacet
  facet normal 0 0 -1
    outer loop
      vertex -14.8817 -1.88 -0.75
      vertex -0.941858 -14.9704 -0.75
      vertex -2.81072 -14.7343 -0.75
    endloop
  endfacet
  facet normal 0 0 -1
    outer loop
      vertex -14.8817 -1.88 -0.75
      vertex -2.81072 -14.7343 -0.75
      vertex -4.63525 -14.2658 -0.75
    endloop
  endfacet
  facet normal 0 0 -1
    outer loop
      vertex -14.8817 -1.88 -0.75
      vertex -4.63525 -14.2658 -0.75
      vertex -6.38669 -13.5724 -0.75
    endloop
  endfacet
  facet normal 0 0 -1
    outer loop
      vertex -14.8817 -1.88 -0.75
      vertex -6.38669 -13.5724 -0.75
      vertex -8.0374 -12.6649 -0.75
    endloop
  endfacet
  facet normal 0 0 -1
    outer loop
      vertex -14.8817 -1.88 -0.75
      vertex -8.0374 -12.6649 -0.75
      vertex -9.56136 -11.5577 -0.75
    endloop
  endfacet
  facet normal 0 0 -1
    outer loop
      vertex -14.8817 -1.88 -0.75
      vertex -9.56136 -11.5577 -0.75
      vertex -10.9345 -10.2682 -0.75
    endloop
  endfacet
  facet normal 0 0 -1
    outer loop
      vertex -14.8817 -1.88 -0.75
      vertex -10.9345 -10.2682 -0.75
      vertex -12.1353 -8.81678 -0.75
    endloop
  endfacet
  facet normal 0 0 -1
    outer loop
      vertex -14.8817 -1.88 -0.75
      vertex -12.1353 -8.81678 -0.75
      vertex -13.1446 -7.2263 -0.75
    endloop
  endfacet
  facet normal 0 0 -1
    outer loop
      vertex -14.8817 -1.88 -0.75
      vertex -13.1446 -7.2263 -0.75
      vertex -13.9466 -5.52187 -0.75
    endloop
  endfacet
  facet normal 0 0 -1
    outer loop
      vertex -14.8817 -1.88 -0.75
      vertex -13.9466 -5.52187 -0.75
      vertex -14.5287 -3.73035 -0.75
    endloop
  endfacet
  facet normal 0 0 -1
    outer loop
      vertex -4.01806 -0.5076 -0.75
      vertex -14.8817 -1.88 -0.75
      vertex -4.05 0 -0.75
    endloop
  endfacet
  facet normal 0 0 -1
    outer loop
      vertex -3.76559 -1.4909 -0.75
      vertex -14.8817 -1.88 -0.75
      vertex -3.92276 -1.00719 -0.75
    endloop
  endfacet
  facet normal 0 0 -1
    outer loop
      vertex -14.8817 -1.88 -0.75
      vertex -4.01806 -0.5076 -0.75
      vertex -3.92276 -1.00719 -0.75
    endloop
  endfacet
  facet normal 0 0 -1
    outer loop
      vertex -3.54904 -1.9511 -0.75
      vertex -14.8817 -1.88 -0.75
      vertex -3.76559 -1.4909 -0.75
    endloop
  endfacet
  facet normal 0 0 -1
    outer loop
      vertex -2.95232 -2.77242 -0.75
      vertex -14.8817 -1.88 -0.75
      vertex -3.27652 -2.38053 -0.75
    endloop
  endfacet
  facet normal 0 0 -1
    outer loop
      vertex -14.8817 -1.88 -0.75
      vertex -3.54904 -1.9511 -0.75
      vertex -3.27652 -2.38053 -0.75
    endloop
  endfacet
  facet normal 0 0 -1
    outer loop
      vertex -1.72441 -3.66455 -0.75
      vertex -14.8817 -1.88 -0.75
      vertex -2.1701 -3.41953 -0.75
    endloop
  endfacet
  facet normal 0 0 -1
    outer loop
      vertex -14.8817 -1.88 -0.75
      vertex -2.95232 -2.77242 -0.75
      vertex -2.58157 -3.12058 -0.75
    endloop
  endfacet
  facet normal 0 0 -1
    outer loop
      vertex -14.8817 -1.88 -0.75
      vertex -2.58157 -3.12058 -0.75
      vertex -2.1701 -3.41953 -0.75
    endloop
  endfacet
  facet normal 0 0 -1
    outer loop
      vertex -0.254302 -4.04201 -0.75
      vertex 13.1446 -7.2263 -0.75
      vertex -0.758894 -3.97826 -0.75
    endloop
  endfacet
  facet normal 0 0 -1
    outer loop
      vertex -14.8817 -1.88 -0.75
      vertex -1.72441 -3.66455 -0.75
      vertex -1.25152 -3.85178 -0.75
    endloop
  endfacet
  facet normal 0 0 -1
    outer loop
      vertex -14.8817 -1.88 -0.75
      vertex -1.25152 -3.85178 -0.75
      vertex -0.758894 -3.97826 -0.75
    endloop
  endfacet
  facet normal 0 0 -1
    outer loop
      vertex -14.8817 -1.88 -0.75
      vertex -0.758894 -3.97826 -0.75
      vertex 13.1446 -7.2263 -0.75
    endloop
  endfacet
  facet normal 0 0 -1
    outer loop
      vertex 0.254302 -4.04201 -0.75
      vertex 13.1446 -7.2263 -0.75
      vertex -0.254302 -4.04201 -0.75
    endloop
  endfacet
  facet normal 0 0 -1
    outer loop
      vertex 0.758894 -3.97826 -0.75
      vertex 13.9466 -5.52187 -0.75
      vertex 0.254302 -4.04201 -0.75
    endloop
  endfacet
  facet normal 0 0 -1
    outer loop
      vertex 1.25152 -3.85178 -0.75
      vertex 13.9466 -5.52187 -0.75
      vertex 0.758894 -3.97826 -0.75
    endloop
  endfacet
  facet normal 0 0 -1
    outer loop
      vertex 1.72441 -3.66455 -0.75
      vertex 13.9466 -5.52187 -0.75
      vertex 1.25152 -3.85178 -0.75
    endloop
  endfacet
  facet normal 0 0 -1
    outer loop
      vertex 2.1701 -3.41953 -0.75
      vertex 13.9466 -5.52187 -0.75
      vertex 1.72441 -3.66455 -0.75
    endloop
  endfacet
  facet normal 0 0 -1
    outer loop
      vertex 2.58157 -3.12058 -0.75
      vertex 14.5287 -3.73035 -0.75
      vertex 2.1701 -3.41953 -0.75
    endloop
  endfacet
  facet normal 0 0 -1
    outer loop
      vertex 2.95232 -2.77242 -0.75
      vertex 14.5287 -3.73035 -0.75
      vertex 2.58157 -3.12058 -0.75
    endloop
  endfacet
  facet normal 0 0 -1
    outer loop
      vertex 3.27652 -2.38053 -0.75
      vertex 14.5287 -3.73035 -0.75
      vertex 2.95232 -2.77242 -0.75
    endloop
  endfacet
  facet normal 0 0 -1
    outer loop
      vertex 3.54904 -1.9511 -0.75
      vertex 14.8817 -1.88 -0.75
      vertex 3.27652 -2.38053 -0.75
    endloop
  endfacet
  facet normal 0 0 -1
    outer loop
      vertex 3.76559 -1.4909 -0.75
      vertex 14.8817 -1.88 -0.75
      vertex 3.54904 -1.9511 -0.75
    endloop
  endfacet
  facet normal 0 0 -1
    outer loop
      vertex 3.92276 -1.00719 -0.75
      vertex 15 0 -0.75
      vertex 3.76559 -1.4909 -0.75
    endloop
  endfacet
  facet normal 0 0 -1
    outer loop
      vertex 4.01806 -0.5076 -0.75
      vertex 15 0 -0.75
      vertex 3.92276 -1.00719 -0.75
    endloop
  endfacet
  facet normal 0 0 -1
    outer loop
      vertex 4.05 0 -0.75
      vertex 15 0 -0.75
      vertex 4.01806 -0.5076 -0.75
    endloop
  endfacet
  facet normal 0 0 -1
    outer loop
      vertex 4.01806 0.5076 -0.75
      vertex 14.8817 1.88 -0.75
      vertex 4.05 0 -0.75
    endloop
  endfacet
  facet normal 0 0 -1
    outer loop
      vertex 3.76559 1.4909 -0.75
      vertex 14.5287 3.73035 -0.75
      vertex 3.92276 1.00719 -0.75
    endloop
  endfacet
  facet normal 0 0 -1
    outer loop
      vertex 3.54904 1.9511 -0.75
      vertex 14.5287 3.73035 -0.75
      vertex 3.76559 1.4909 -0.75
    endloop
  endfacet
  facet normal 0 0 -1
    outer loop
      vertex 3.27652 2.38053 -0.75
      vertex 13.9466 5.52187 -0.75
      vertex 3.54904 1.9511 -0.75
    endloop
  endfacet
  facet normal 0 0 -1
    outer loop
      vertex 3.92276 1.00719 -0.75
      vertex 14.8817 1.88 -0.75
      vertex 4.01806 0.5076 -0.75
    endloop
  endfacet
  facet normal 0 0 -1
    outer loop
      vertex 2.58157 3.12058 -0.75
      vertex 13.1446 7.2263 -0.75
      vertex 2.95232 2.77242 -0.75
    endloop
  endfacet
  facet normal 0 0 -1
    outer loop
      vertex 1.72441 3.66455 -0.75
      vertex 13.1446 7.2263 -0.75
      vertex 2.1701 3.41953 -0.75
    endloop
  endfacet
  facet normal 0 0 -1
    outer loop
      vertex 2.1701 3.41953 -0.75
      vertex 13.1446 7.2263 -0.75
      vertex 2.58157 3.12058 -0.75
    endloop
  endfacet
  facet normal 0 0 -1
    outer loop
      vertex 1.25152 3.85178 -0.75
      vertex 12.1353 8.81678 -0.75
      vertex 1.72441 3.66455 -0.75
    endloop
  endfacet
  facet normal 0 0 -1
    outer loop
      vertex -0.254302 4.04201 -0.75
      vertex 12.1353 8.81678 -0.75
      vertex 0.254302 4.04201 -0.75
    endloop
  endfacet
  facet normal 0 0 -1
    outer loop
      vertex 0.758894 3.97826 -0.75
      vertex 12.1353 8.81678 -0.75
      vertex 1.25152 3.85178 -0.75
    endloop
  endfacet
  facet normal 0 0 -1
    outer loop
      vertex 0.254302 4.04201 -0.75
      vertex 12.1353 8.81678 -0.75
      vertex 0.758894 3.97826 -0.75
    endloop
  endfacet
  facet normal 0 0 -1
    outer loop
      vertex -0.758894 3.97826 -0.75
      vertex 10.9345 10.2682 -0.75
      vertex -0.254302 4.04201 -0.75
    endloop
  endfacet
  facet normal 0 0 -1
    outer loop
      vertex -2.1701 3.41953 -0.75
      vertex -14.8817 -1.88 -0.75
      vertex -1.72441 3.66455 -0.75
    endloop
  endfacet
  facet normal 0 0 -1
    outer loop
      vertex -1.25152 3.85178 -0.75
      vertex 10.9345 10.2682 -0.75
      vertex -0.758894 3.97826 -0.75
    endloop
  endfacet
  facet normal 0 0 -1
    outer loop
      vertex -1.72441 3.66455 -0.75
      vertex 10.9345 10.2682 -0.75
      vertex -1.25152 3.85178 -0.75
    endloop
  endfacet
  facet normal 0 0 -1
    outer loop
      vertex -14.8817 -1.88 -0.75
      vertex 10.9345 10.2682 -0.75
      vertex -1.72441 3.66455 -0.75
    endloop
  endfacet
  facet normal 0 0 -1
    outer loop
      vertex -2.58157 3.12058 -0.75
      vertex -14.8817 -1.88 -0.75
      vertex -2.1701 3.41953 -0.75
    endloop
  endfacet
  facet normal 0 0 -1
    outer loop
      vertex -2.95232 2.77242 -0.75
      vertex -14.8817 -1.88 -0.75
      vertex -2.58157 3.12058 -0.75
    endloop
  endfacet
  facet normal 0 0 -1
    outer loop
      vertex -3.27652 2.38053 -0.75
      vertex -14.8817 -1.88 -0.75
      vertex -2.95232 2.77242 -0.75
    endloop
  endfacet
  facet normal 0 0 -1
    outer loop
      vertex -3.54904 1.9511 -0.75
      vertex -14.8817 -1.88 -0.75
      vertex -3.27652 2.38053 -0.75
    endloop
  endfacet
  facet normal 0 0 -1
    outer loop
      vertex -3.76559 1.4909 -0.75
      vertex -14.8817 -1.88 -0.75
      vertex -3.54904 1.9511 -0.75
    endloop
  endfacet
  facet normal 0 0 -1
    outer loop
      vertex -3.92276 1.00719 -0.75
      vertex -14.8817 -1.88 -0.75
      vertex -3.76559 1.4909 -0.75
    endloop
  endfacet
  facet normal 0 0 -1
    outer loop
      vertex -4.01806 0.5076 -0.75
      vertex -14.8817 -1.88 -0.75
      vertex -3.92276 1.00719 -0.75
    endloop
  endfacet
  facet normal 0 0 -1
    outer loop
      vertex -4.05 0 -0.75
      vertex -14.8817 -1.88 -0.75
      vertex -4.01806 0.5076 -0.75
    endloop
  endfacet
  facet normal 0 0 -1
    outer loop
      vertex 2.95232 2.77242 -0.75
      vertex 13.9466 5.52187 -0.75
      vertex 3.27652 2.38053 -0.75
    endloop
  endfacet
  facet normal -0.998027 0.0627902 0
    outer loop
      vertex -15 0 -0.75
      vertex -15 0 0.75
      vertex -14.8817 1.88 -0.75
    endloop
  endfacet
  facet normal -0.998027 0.0627902 0
    outer loop
      vertex -14.8817 1.88 -0.75
      vertex -15 0 0.75
      vertex -14.8817 1.88 0.75
    endloop
  endfacet
  facet normal -0.998027 -0.0627902 0
    outer loop
      vertex -15 0 -0.75
      vertex -14.8817 -1.88 -0.75
      vertex -15 0 0.75
    endloop
  endfacet
  facet normal -0.998027 -0.0627902 0
    outer loop
      vertex -15 0 0.75
      vertex -14.8817 -1.88 -0.75
      vertex -14.8817 -1.88 0.75
    endloop
  endfacet
  facet normal -0.982287 -0.187382 0
    outer loop
      vertex -14.8817 -1.88 -0.75
      vertex -14.5287 -3.73035 -0.75
      vertex -14.8817 -1.88 0.75
    endloop
  endfacet
  facet normal -0.982287 -0.187382 0
    outer loop
      vertex -14.8817 -1.88 0.75
      vertex -14.5287 -3.73035 -0.75
      vertex -14.5287 -3.73035 0.75
    endloop
  endfacet
  facet normal -0.951057 -0.309017 0
    outer loop
      vertex -14.5287 -3.73035 -0.75
      vertex -13.9466 -5.52187 -0.75
      vertex -14.5287 -3.73035 0.75
    endloop
  endfacet
  facet normal -0.951057 -0.309017 0
    outer loop
      vertex -14.5287 -3.73035 0.75
      vertex -13.9466 -5.52187 -0.75
      vertex -13.9466 -5.52187 0.75
    endloop
  endfacet
  facet normal -0.904827 -0.425779 0
    outer loop
      vertex -13.9466 -5.52187 -0.75
      vertex -13.1446 -7.2263 -0.75
      vertex -13.9466 -5.52187 0.75
    endloop
  endfacet
  facet normal -0.904827 -0.425779 0
    outer loop
      vertex -13.9466 -5.52187 0.75
      vertex -13.1446 -7.2263 -0.75
      vertex -13.1446 -7.2263 0.75
    endloop
  endfacet
  facet normal -0.844328 -0.535827 0
    outer loop
      vertex -13.1446 -7.2263 -0.75
      vertex -12.1353 -8.81678 -0.75
      vertex -13.1446 -7.2263 0.75
    endloop
  endfacet
  facet normal -0.844328 -0.535827 0
    outer loop
      vertex -13.1446 -7.2263 0.75
      vertex -12.1353 -8.81678 -0.75
      vertex -12.1353 -8.81678 0.75
    endloop
  endfacet
  facet normal -0.770513 -0.637424 0
    outer loop
      vertex -12.1353 -8.81678 -0.75
      vertex -10.9345 -10.2682 -0.75
      vertex -12.1353 -8.81678 0.75
    endloop
  endfacet
  facet normal -0.770513 -0.637424 0
    outer loop
      vertex -12.1353 -8.81678 0.75
      vertex -10.9345 -10.2682 -0.75
      vertex -10.9345 -10.2682 0.75
    endloop
  endfacet
  facet normal -0.684547 -0.728969 0
    outer loop
      vertex -10.9345 -10.2682 0.75
      vertex -10.9345 -10.2682 -0.75
      vertex -9.56136 -11.5577 -0.75
    endloop
  endfacet
  facet normal -0.684547 -0.728969 0
    outer loop
      vertex -9.56136 -11.5577 0.75
      vertex -10.9345 -10.2682 0.75
      vertex -9.56136 -11.5577 -0.75
    endloop
  endfacet
  facet normal -0.587785 -0.809017 0
    outer loop
      vertex -9.56136 -11.5577 0.75
      vertex -9.56136 -11.5577 -0.75
      vertex -8.0374 -12.6649 -0.75
    endloop
  endfacet
  facet normal -0.587785 -0.809017 0
    outer loop
      vertex -8.0374 -12.6649 0.75
      vertex -9.56136 -11.5577 0.75
      vertex -8.0374 -12.6649 -0.75
    endloop
  endfacet
  facet normal -0.481754 -0.876307 0
    outer loop
      vertex -8.0374 -12.6649 0.75
      vertex -8.0374 -12.6649 -0.75
      vertex -6.38669 -13.5724 -0.75
    endloop
  endfacet
  facet normal -0.481754 -0.876307 0
    outer loop
      vertex -6.38669 -13.5724 0.75
      vertex -8.0374 -12.6649 0.75
      vertex -6.38669 -13.5724 -0.75
    endloop
  endfacet
  facet normal -0.368125 -0.929776 0
    outer loop
      vertex -6.38669 -13.5724 0.75
      vertex -6.38669 -13.5724 -0.75
      vertex -4.63525 -14.2658 -0.75
    endloop
  endfacet
  facet normal -0.368125 -0.929776 0
    outer loop
      vertex -4.63525 -14.2658 0.75
      vertex -6.38669 -13.5724 0.75
      vertex -4.63525 -14.2658 -0.75
    endloop
  endfacet
  facet normal -0.24869 -0.968583 0
    outer loop
      vertex -4.63525 -14.2658 0.75
      vertex -4.63525 -14.2658 -0.75
      vertex -2.81072 -14.7343 -0.75
    endloop
  endfacet
  facet normal -0.24869 -0.968583 0
    outer loop
      vertex -2.81072 -14.7343 0.75
      vertex -4.63525 -14.2658 0.75
      vertex -2.81072 -14.7343 -0.75
    endloop
  endfacet
  facet normal -0.125333 -0.992115 0
    outer loop
      vertex -2.81072 -14.7343 0.75
      vertex -2.81072 -14.7343 -0.75
      vertex -0.941858 -14.9704 -0.75
    endloop
  endfacet
  facet normal -0.125333 -0.992115 0
    outer loop
      vertex -0.941858 -14.9704 0.75
      vertex -2.81072 -14.7343 0.75
      vertex -0.941858 -14.9704 -0.75
    endloop
  endfacet
  facet normal 0 -1 0
    outer loop
      vertex -0.941858 -14.9704 0.75
      vertex -0.941858 -14.9704 -0.75
      vertex 0.941858 -14.9704 -0.75
    endloop
  endfacet
  facet normal 0 -1 0
    outer loop
      vertex 0.941858 -14.9704 0.75
      vertex -0.941858 -14.9704 0.75
      vertex 0.941858 -14.9704 -0.75
    endloop
  endfacet
  facet normal 0.125333 -0.992115 0
    outer loop
      vertex 0.941858 -14.9704 0.75
      vertex 0.941858 -14.9704 -0.75
      vertex 2.81072 -14.7343 -0.75
    endloop
  endfacet
  facet normal 0.125333 -0.992115 0
    outer loop
      vertex 2.81072 -14.7343 0.75
      vertex 0.941858 -14.9704 0.75
      vertex 2.81072 -14.7343 -0.75
    endloop
  endfacet
  facet normal 0.24869 -0.968583 0
    outer loop
      vertex 2.81072 -14.7343 0.75
      vertex 2.81072 -14.7343 -0.75
      vertex 4.63525 -14.2658 -0.75
    endloop
  endfacet
  facet normal 0.24869 -0.968583 0
    outer loop
      vertex 4.63525 -14.2658 0.75
      vertex 2.81072 -14.7343 0.75
      vertex 4.63525 -14.2658 -0.75
    endloop
  endfacet
  facet normal 0.368125 -0.929776 0
    outer loop
      vertex 4.63525 -14.2658 0.75
      vertex 4.63525 -14.2658 -0.75
      vertex 6.38669 -13.5724 -0.75
    endloop
  endfacet
  facet normal 0.368125 -0.929776 0
    outer loop
      vertex 6.38669 -13.5724 0.75
      vertex 4.63525 -14.2658 0.75
      vertex 6.38669 -13.5724 -0.75
    endloop
  endfacet
  facet normal 0.481754 -0.876307 0
    outer loop
      vertex 6.38669 -13.5724 0.75
      vertex 6.38669 -13.5724 -0.75
      vertex 8.0374 -12.6649 -0.75
    endloop
  endfacet
  facet normal 0.481754 -0.876307 0
    outer loop
      vertex 8.0374 -12.6649 0.75
      vertex 6.38669 -13.5724 0.75
      vertex 8.0374 -12.6649 -0.75
    endloop
  endfacet
  facet normal 0.587785 -0.809017 0
    outer loop
      vertex 8.0374 -12.6649 0.75
      vertex 8.0374 -12.6649 -0.75
      vertex 9.56136 -11.5577 -0.75
    endloop
  endfacet
  facet normal 0.587785 -0.809017 0
    outer loop
      vertex 9.56136 -11.5577 0.75
      vertex 8.0374 -12.6649 0.75
      vertex 9.56136 -11.5577 -0.75
    endloop
  endfacet
  facet normal 0.684547 -0.728969 0
    outer loop
      vertex 9.56136 -11.5577 0.75
      vertex 9.56136 -11.5577 -0.75
      vertex 10.9345 -10.2682 -0.75
    endloop
  endfacet
  facet normal 0.684547 -0.728969 0
    outer loop
      vertex 10.9345 -10.2682 0.75
      vertex 9.56136 -11.5577 0.75
      vertex 10.9345 -10.2682 -0.75
    endloop
  endfacet
  facet normal 0.770513 -0.637424 0
    outer loop
      vertex 10.9345 -10.2682 0.75
      vertex 10.9345 -10.2682 -0.75
      vertex 12.1353 -8.81678 -0.75
    endloop
  endfacet
  facet normal 0.770513 -0.637424 0
    outer loop
      vertex 12.1353 -8.81678 0.75
      vertex 10.9345 -10.2682 0.75
      vertex 12.1353 -8.81678 -0.75
    endloop
  endfacet
  facet normal 0.844328 -0.535827 0
    outer loop
      vertex 12.1353 -8.81678 0.75
      vertex 12.1353 -8.81678 -0.75
      vertex 13.1446 -7.2263 -0.75
    endloop
  endfacet
  facet normal 0.844328 -0.535827 0
    outer loop
      vertex 13.1446 -7.2263 0.75
      vertex 12.1353 -8.81678 0.75
      vertex 13.1446 -7.2263 -0.75
    endloop
  endfacet
  facet normal 0.904827 -0.425779 0
    outer loop
      vertex 13.1446 -7.2263 0.75
      vertex 13.1446 -7.2263 -0.75
      vertex 13.9466 -5.52187 -0.75
    endloop
  endfacet
  facet normal 0.904827 -0.425779 0
    outer loop
      vertex 13.9466 -5.52187 0.75
      vertex 13.1446 -7.2263 0.75
      vertex 13.9466 -5.52187 -0.75
    endloop
  endfacet
  facet normal 0.951057 -0.309017 0
    outer loop
      vertex 13.9466 -5.52187 0.75
      vertex 13.9466 -5.52187 -0.75
      vertex 14.5287 -3.73035 -0.75
    endloop
  endfacet
  facet normal 0.951057 -0.309017 0
    outer loop
      vertex 14.5287 -3.73035 0.75
      vertex 13.9466 -5.52187 0.75
      vertex 14.5287 -3.73035 -0.75
    endloop
  endfacet
  facet normal 0.982287 -0.187382 0
    outer loop
      vertex 14.5287 -3.73035 0.75
      vertex 14.5287 -3.73035 -0.75
      vertex 14.8817 -1.88 -0.75
    endloop
  endfacet
  facet normal 0.982287 -0.187382 0
    outer loop
      vertex 14.8817 -1.88 0.75
      vertex 14.5287 -3.73035 0.75
      vertex 14.8817 -1.88 -0.75
    endloop
  endfacet
  facet normal 0.998027 -0.0627902 0
    outer loop
      vertex 14.8817 -1.88 0.75
      vertex 14.8817 -1.88 -0.75
      vertex 15 0 -0.75
    endloop
  endfacet
  facet normal 0.998027 -0.0627902 0
    outer loop
      vertex 15 0 0.75
      vertex 14.8817 -1.88 0.75
      vertex 15 0 -0.75
    endloop
  endfacet
  facet normal 0.998027 0.0627902 0
    outer loop
      vertex 15 0 -0.75
      vertex 14.8817 1.88 -0.75
      vertex 14.8817 1.88 0.75
    endloop
  endfacet
  facet normal 0.998027 0.0627902 0
    outer loop
      vertex 15 0 0.75
      vertex 15 0 -0.75
      vertex 14.8817 1.88 0.75
    endloop
  endfacet
  facet normal 0.982287 0.187382 0
    outer loop
      vertex 14.8817 1.88 -0.75
      vertex 14.5287 3.73035 -0.75
      vertex 14.5287 3.73035 0.75
    endloop
  endfacet
  facet normal 0.982287 0.187382 0
    outer loop
      vertex 14.8817 1.88 0.75
      vertex 14.8817 1.88 -0.75
      vertex 14.5287 3.73035 0.75
    endloop
  endfacet
  facet normal 0.951057 0.309017 0
    outer loop
      vertex 14.5287 3.73035 -0.75
      vertex 13.9466 5.52187 -0.75
      vertex 13.9466 5.52187 0.75
    endloop
  endfacet
  facet normal 0.951057 0.309017 0
    outer loop
      vertex 14.5287 3.73035 0.75
      vertex 14.5287 3.73035 -0.75
      vertex 13.9466 5.52187 0.75
    endloop
  endfacet
  facet normal 0.904827 0.425779 0
    outer loop
      vertex 13.9466 5.52187 -0.75
      vertex 13.1446 7.2263 -0.75
      vertex 13.1446 7.2263 0.75
    endloop
  endfacet
  facet normal 0.904827 0.425779 0
    outer loop
      vertex 13.9466 5.52187 0.75
      vertex 13.9466 5.52187 -0.75
      vertex 13.1446 7.2263 0.75
    endloop
  endfacet
  facet normal 0.844328 0.535827 0
    outer loop
      vertex 13.1446 7.2263 -0.75
      vertex 12.1353 8.81678 -0.75
      vertex 12.1353 8.81678 0.75
    endloop
  endfacet
  facet normal 0.844328 0.535827 0
    outer loop
      vertex 13.1446 7.2263 0.75
      vertex 13.1446 7.2263 -0.75
      vertex 12.1353 8.81678 0.75
    endloop
  endfacet
  facet normal 0.770513 0.637424 0
    outer loop
      vertex 12.1353 8.81678 -0.75
      vertex 10.9345 10.2682 -0.75
      vertex 10.9345 10.2682 0.75
    endloop
  endfacet
  facet normal 0.770513 0.637424 0
    outer loop
      vertex 12.1353 8.81678 0.75
      vertex 12.1353 8.81678 -0.75
      vertex 10.9345 10.2682 0.75
    endloop
  endfacet
  facet normal 0.684547 0.728969 0
    outer loop
      vertex 9.56136 11.5577 -0.75
      vertex 9.56136 11.5577 0.75
      vertex 10.9345 10.2682 -0.75
    endloop
  endfacet
  facet normal 0.684547 0.728969 0
    outer loop
      vertex 10.9345 10.2682 -0.75
      vertex 9.56136 11.5577 0.75
      vertex 10.9345 10.2682 0.75
    endloop
  endfacet
  facet normal 0.587785 0.809017 0
    outer loop
      vertex 8.0374 12.6649 -0.75
      vertex 8.0374 12.6649 0.75
      vertex 9.56136 11.5577 -0.75
    endloop
  endfacet
  facet normal 0.587785 0.809017 0
    outer loop
      vertex 9.56136 11.5577 -0.75
      vertex 8.0374 12.6649 0.75
      vertex 9.56136 11.5577 0.75
    endloop
  endfacet
  facet normal 0.481754 0.876307 0
    outer loop
      vertex 6.38669 13.5724 -0.75
      vertex 6.38669 13.5724 0.75
      vertex 8.0374 12.6649 -0.75
    endloop
  endfacet
  facet normal 0.481754 0.876307 0
    outer loop
      vertex 8.0374 12.6649 -0.75
      vertex 6.38669 13.5724 0.75
      vertex 8.0374 12.6649 0.75
    endloop
  endfacet
  facet normal 0.368125 0.929776 0
    outer loop
      vertex 4.63525 14.2658 -0.75
      vertex 4.63525 14.2658 0.75
      vertex 6.38669 13.5724 -0.75
    endloop
  endfacet
  facet normal 0.368125 0.929776 0
    outer loop
      vertex 6.38669 13.5724 -0.75
      vertex 4.63525 14.2658 0.75
      vertex 6.38669 13.5724 0.75
    endloop
  endfacet
  facet normal 0.24869 0.968583 0
    outer loop
      vertex 2.81072 14.7343 -0.75
      vertex 2.81072 14.7343 0.75
      vertex 4.63525 14.2658 -0.75
    endloop
  endfacet
  facet normal 0.24869 0.968583 0
    outer loop
      vertex 4.63525 14.2658 -0.75
      vertex 2.81072 14.7343 0.75
      vertex 4.63525 14.2658 0.75
    endloop
  endfacet
  facet normal 0.125333 0.992115 0
    outer loop
      vertex 0.941858 14.9704 -0.75
      vertex 0.941858 14.9704 0.75
      vertex 2.81072 14.7343 -0.75
    endloop
  endfacet
  facet normal 0.125333 0.992115 0
    outer loop
      vertex 2.81072 14.7343 -0.75
      vertex 0.941858 14.9704 0.75
      vertex 2.81072 14.7343 0.75
    endloop
  endfacet
  facet normal 0 1 0
    outer loop
      vertex -0.941858 14.9704 -0.75
      vertex -0.941858 14.9704 0.75
      vertex 0.941858 14.9704 -0.75
    endloop
  endfacet
  facet normal 0 1 0
    outer loop
      vertex 0.941858 14.9704 -0.75
      vertex -0.941858 14.9704 0.75
      vertex 0.941858 14.9704 0.75
    endloop
  endfacet
  facet normal -0.125333 0.992115 0
    outer loop
      vertex -2.81072 14.7343 -0.75
      vertex -2.81072 14.7343 0.75
      vertex -0.941858 14.9704 -0.75
    endloop
  endfacet
  facet normal -0.125333 0.992115 0
    outer loop
      vertex -0.941858 14.9704 -0.75
      vertex -2.81072 14.7343 0.75
      vertex -0.941858 14.9704 0.75
    endloop
  endfacet
  facet normal -0.24869 0.968583 0
    outer loop
      vertex -4.63525 14.2658 -0.75
      vertex -4.63525 14.2658 0.75
      vertex -2.81072 14.7343 -0.75
    endloop
  endfacet
  facet normal -0.24869 0.968583 0
    outer loop
      vertex -2.81072 14.7343 -0.75
      vertex -4.63525 14.2658 0.75
      vertex -2.81072 14.7343 0.75
    endloop
  endfacet
  facet normal -0.368125 0.929776 0
    outer loop
      vertex -6.38669 13.5724 -0.75
      vertex -6.38669 13.5724 0.75
      vertex -4.63525 14.2658 -0.75
    endloop
  endfacet
  facet normal -0.368125 0.929776 0
    outer loop
      vertex -4.63525 14.2658 -0.75
      vertex -6.38669 13.5724 0.75
      vertex -4.63525 14.2658 0.75
    endloop
  endfacet
  facet normal -0.481754 0.876307 0
    outer loop
      vertex -8.0374 12.6649 -0.75
      vertex -8.0374 12.6649 0.75
      vertex -6.38669 13.5724 -0.75
    endloop
  endfacet
  facet normal -0.481754 0.876307 0
    outer loop
      vertex -6.38669 13.5724 -0.75
      vertex -8.0374 12.6649 0.75
      vertex -6.38669 13.5724 0.75
    endloop
  endfacet
  facet normal -0.587785 0.809017 0
    outer loop
      vertex -9.56136 11.5577 -0.75
      vertex -9.56136 11.5577 0.75
      vertex -8.0374 12.6649 -0.75
    endloop
  endfacet
  facet normal -0.587785 0.809017 0
    outer loop
      vertex -8.0374 12.6649 -0.75
      vertex -9.56136 11.5577 0.75
      vertex -8.0374 12.6649 0.75
    endloop
  endfacet
  facet normal -0.684547 0.728969 0
    outer loop
      vertex -10.9345 10.2682 -0.75
      vertex -10.9345 10.2682 0.75
      vertex -9.56136 11.5577 -0.75
    endloop
  endfacet
  facet normal -0.684547 0.728969 0
    outer loop
      vertex -9.56136 11.5577 -0.75
      vertex -10.9345 10.2682 0.75
      vertex -9.56136 11.5577 0.75
    endloop
  endfacet
  facet normal -0.770513 0.637424 0
    outer loop
      vertex -12.1353 8.81678 -0.75
      vertex -12.1353 8.81678 0.75
      vertex -10.9345 10.2682 -0.75
    endloop
  endfacet
  facet normal -0.770513 0.637424 0
    outer loop
      vertex -10.9345 10.2682 -0.75
      vertex -12.1353 8.81678 0.75
      vertex -10.9345 10.2682 0.75
    endloop
  endfacet
  facet normal -0.844328 0.535827 0
    outer loop
      vertex -13.1446 7.2263 -0.75
      vertex -13.1446 7.2263 0.75
      vertex -12.1353 8.81678 -0.75
    endloop
  endfacet
  facet normal -0.844328 0.535827 0
    outer loop
      vertex -12.1353 8.81678 -0.75
      vertex -13.1446 7.2263 0.75
      vertex -12.1353 8.81678 0.75
    endloop
  endfacet
  facet normal -0.904827 0.425779 0
    outer loop
      vertex -13.9466 5.52187 -0.75
      vertex -13.9466 5.52187 0.75
      vertex -13.1446 7.2263 -0.75
    endloop
  endfacet
  facet normal -0.904827 0.425779 0
    outer loop
      vertex -13.1446 7.2263 -0.75
      vertex -13.9466 5.52187 0.75
      vertex -13.1446 7.2263 0.75
    endloop
  endfacet
  facet normal -0.951057 0.309017 0
    outer loop
      vertex -14.5287 3.73035 -0.75
      vertex -14.5287 3.73035 0.75
      vertex -13.9466 5.52187 -0.75
    endloop
  endfacet
  facet normal -0.951057 0.309017 0
    outer loop
      vertex -13.9466 5.52187 -0.75
      vertex -14.5287 3.73035 0.75
      vertex -13.9466 5.52187 0.75
    endloop
  endfacet
  facet normal -0.982287 0.187382 0
    outer loop
      vertex -14.8817 1.88 -0.75
      vertex -14.8817 1.88 0.75
      vertex -14.5287 3.73035 -0.75
    endloop
  endfacet
  facet normal -0.982287 0.187382 0
    outer loop
      vertex -14.5287 3.73035 -0.75
      vertex -14.8817 1.88 0.75
      vertex -14.5287 3.73035 0.75
    endloop
  endfacet
  facet normal 0.998027 0.0627896 0
    outer loop
      vertex -4.05 0 0.75
      vertex -4.01806 -0.5076 0.75
      vertex -4.01806 -0.5076 -0.75
    endloop
  endfacet
  facet normal 0.998027 0.0627896 0
    outer loop
      vertex -4.05 0 -0.75
      vertex -4.05 0 0.75
      vertex -4.01806 -0.5076 -0.75
    endloop
  endfacet
  facet normal 0.998027 -0.0627896 0
    outer loop
      vertex -4.01806 0.5076 -0.75
      vertex -4.01806 0.5076 0.75
      vertex -4.05 0 0.75
    endloop
  endfacet
  facet normal 0.998027 -0.0627896 0
    outer loop
      vertex -4.05 0 -0.75
      vertex -4.01806 0.5076 -0.75
      vertex -4.05 0 0.75
    endloop
  endfacet
  facet normal 0.982287 -0.187382 0
    outer loop
      vertex -3.92276 1.00719 -0.75
      vertex -3.92276 1.00719 0.75
      vertex -4.01806 0.5076 0.75
    endloop
  endfacet
  facet normal 0.982287 -0.187382 0
    outer loop
      vertex -4.01806 0.5076 -0.75
      vertex -3.92276 1.00719 -0.75
      vertex -4.01806 0.5076 0.75
    endloop
  endfacet
  facet normal 0.951056 -0.309017 0
    outer loop
      vertex -3.76559 1.4909 -0.75
      vertex -3.76559 1.4909 0.75
      vertex -3.92276 1.00719 0.75
    endloop
  endfacet
  facet normal 0.951056 -0.309017 0
    outer loop
      vertex -3.92276 1.00719 -0.75
      vertex -3.76559 1.4909 -0.75
      vertex -3.92276 1.00719 0.75
    endloop
  endfacet
  facet normal 0.904827 -0.42578 0
    outer loop
      vertex -3.54904 1.9511 -0.75
      vertex -3.54904 1.9511 0.75
      vertex -3.76559 1.4909 0.75
    endloop
  endfacet
  facet normal 0.904827 -0.42578 0
    outer loop
      vertex -3.76559 1.4909 -0.75
      vertex -3.54904 1.9511 -0.75
      vertex -3.76559 1.4909 0.75
    endloop
  endfacet
  facet normal 0.844328 -0.535826 0
    outer loop
      vertex -3.27652 2.38053 -0.75
      vertex -3.27652 2.38053 0.75
      vertex -3.54904 1.9511 0.75
    endloop
  endfacet
  facet normal 0.844328 -0.535826 0
    outer loop
      vertex -3.54904 1.9511 -0.75
      vertex -3.27652 2.38053 -0.75
      vertex -3.54904 1.9511 0.75
    endloop
  endfacet
  facet normal 0.770514 -0.637424 0
    outer loop
      vertex -2.95232 2.77242 -0.75
      vertex -2.95232 2.77242 0.75
      vertex -3.27652 2.38053 0.75
    endloop
  endfacet
  facet normal 0.770514 -0.637424 0
    outer loop
      vertex -3.27652 2.38053 -0.75
      vertex -2.95232 2.77242 -0.75
      vertex -3.27652 2.38053 0.75
    endloop
  endfacet
  facet normal 0.684547 -0.728969 0
    outer loop
      vertex -2.58157 3.12058 -0.75
      vertex -2.58157 3.12058 0.75
      vertex -2.95232 2.77242 0.75
    endloop
  endfacet
  facet normal 0.684547 -0.728969 0
    outer loop
      vertex -2.95232 2.77242 -0.75
      vertex -2.58157 3.12058 -0.75
      vertex -2.95232 2.77242 0.75
    endloop
  endfacet
  facet normal 0.587785 -0.809017 0
    outer loop
      vertex -2.1701 3.41953 -0.75
      vertex -2.1701 3.41953 0.75
      vertex -2.58157 3.12058 0.75
    endloop
  endfacet
  facet normal 0.587785 -0.809017 0
    outer loop
      vertex -2.58157 3.12058 -0.75
      vertex -2.1701 3.41953 -0.75
      vertex -2.58157 3.12058 0.75
    endloop
  endfacet
  facet normal 0.481754 -0.876307 0
    outer loop
      vertex -1.72441 3.66455 -0.75
      vertex -1.72441 3.66455 0.75
      vertex -2.1701 3.41953 0.75
    endloop
  endfacet
  facet normal 0.481754 -0.876307 0
    outer loop
      vertex -2.1701 3.41953 -0.75
      vertex -1.72441 3.66455 -0.75
      vertex -2.1701 3.41953 0.75
    endloop
  endfacet
  facet normal 0.368124 -0.929777 0
    outer loop
      vertex -1.25152 3.85178 -0.75
      vertex -1.25152 3.85178 0.75
      vertex -1.72441 3.66455 0.75
    endloop
  endfacet
  facet normal 0.368124 -0.929777 0
    outer loop
      vertex -1.72441 3.66455 -0.75
      vertex -1.25152 3.85178 -0.75
      vertex -1.72441 3.66455 0.75
    endloop
  endfacet
  facet normal 0.248689 -0.968583 0
    outer loop
      vertex -0.758894 3.97826 -0.75
      vertex -0.758894 3.97826 0.75
      vertex -1.25152 3.85178 0.75
    endloop
  endfacet
  facet normal 0.248689 -0.968583 0
    outer loop
      vertex -1.25152 3.85178 -0.75
      vertex -0.758894 3.97826 -0.75
      vertex -1.25152 3.85178 0.75
    endloop
  endfacet
  facet normal 0.125334 -0.992115 0
    outer loop
      vertex -0.254302 4.04201 -0.75
      vertex -0.254302 4.04201 0.75
      vertex -0.758894 3.97826 0.75
    endloop
  endfacet
  facet normal 0.125334 -0.992115 0
    outer loop
      vertex -0.758894 3.97826 -0.75
      vertex -0.254302 4.04201 -0.75
      vertex -0.758894 3.97826 0.75
    endloop
  endfacet
  facet normal 0 -1 0
    outer loop
      vertex 0.254302 4.04201 -0.75
      vertex 0.254302 4.04201 0.75
      vertex -0.254302 4.04201 0.75
    endloop
  endfacet
  facet normal 0 -1 0
    outer loop
      vertex -0.254302 4.04201 -0.75
      vertex 0.254302 4.04201 -0.75
      vertex -0.254302 4.04201 0.75
    endloop
  endfacet
  facet normal -0.125334 -0.992115 0
    outer loop
      vertex 0.758894 3.97826 -0.75
      vertex 0.758894 3.97826 0.75
      vertex 0.254302 4.04201 0.75
    endloop
  endfacet
  facet normal -0.125334 -0.992115 0
    outer loop
      vertex 0.254302 4.04201 -0.75
      vertex 0.758894 3.97826 -0.75
      vertex 0.254302 4.04201 0.75
    endloop
  endfacet
  facet normal -0.248689 -0.968583 0
    outer loop
      vertex 1.25152 3.85178 -0.75
      vertex 1.25152 3.85178 0.75
      vertex 0.758894 3.97826 0.75
    endloop
  endfacet
  facet normal -0.248689 -0.968583 0
    outer loop
      vertex 0.758894 3.97826 -0.75
      vertex 1.25152 3.85178 -0.75
      vertex 0.758894 3.97826 0.75
    endloop
  endfacet
  facet normal -0.368124 -0.929777 0
    outer loop
      vertex 1.72441 3.66455 -0.75
      vertex 1.72441 3.66455 0.75
      vertex 1.25152 3.85178 0.75
    endloop
  endfacet
  facet normal -0.368124 -0.929777 0
    outer loop
      vertex 1.25152 3.85178 -0.75
      vertex 1.72441 3.66455 -0.75
      vertex 1.25152 3.85178 0.75
    endloop
  endfacet
  facet normal -0.481754 -0.876307 0
    outer loop
      vertex 2.1701 3.41953 -0.75
      vertex 2.1701 3.41953 0.75
      vertex 1.72441 3.66455 0.75
    endloop
  endfacet
  facet normal -0.481754 -0.876307 0
    outer loop
      vertex 1.72441 3.66455 -0.75
      vertex 2.1701 3.41953 -0.75
      vertex 1.72441 3.66455 0.75
    endloop
  endfacet
  facet normal -0.587785 -0.809017 0
    outer loop
      vertex 2.58157 3.12058 -0.75
      vertex 2.58157 3.12058 0.75
      vertex 2.1701 3.41953 0.75
    endloop
  endfacet
  facet normal -0.587785 -0.809017 0
    outer loop
      vertex 2.1701 3.41953 -0.75
      vertex 2.58157 3.12058 -0.75
      vertex 2.1701 3.41953 0.75
    endloop
  endfacet
  facet normal -0.684547 -0.728969 0
    outer loop
      vertex 2.95232 2.77242 -0.75
      vertex 2.95232 2.77242 0.75
      vertex 2.58157 3.12058 0.75
    endloop
  endfacet
  facet normal -0.684547 -0.728969 0
    outer loop
      vertex 2.58157 3.12058 -0.75
      vertex 2.95232 2.77242 -0.75
      vertex 2.58157 3.12058 0.75
    endloop
  endfacet
  facet normal -0.770514 -0.637424 0
    outer loop
      vertex 3.27652 2.38053 0.75
      vertex 2.95232 2.77242 0.75
      vertex 3.27652 2.38053 -0.75
    endloop
  endfacet
  facet normal -0.770514 -0.637424 0
    outer loop
      vertex 3.27652 2.38053 -0.75
      vertex 2.95232 2.77242 0.75
      vertex 2.95232 2.77242 -0.75
    endloop
  endfacet
  facet normal -0.844328 -0.535826 0
    outer loop
      vertex 3.54904 1.9511 0.75
      vertex 3.27652 2.38053 0.75
      vertex 3.54904 1.9511 -0.75
    endloop
  endfacet
  facet normal -0.844328 -0.535826 0
    outer loop
      vertex 3.54904 1.9511 -0.75
      vertex 3.27652 2.38053 0.75
      vertex 3.27652 2.38053 -0.75
    endloop
  endfacet
  facet normal -0.904827 -0.42578 0
    outer loop
      vertex 3.76559 1.4909 0.75
      vertex 3.54904 1.9511 0.75
      vertex 3.76559 1.4909 -0.75
    endloop
  endfacet
  facet normal -0.904827 -0.42578 0
    outer loop
      vertex 3.76559 1.4909 -0.75
      vertex 3.54904 1.9511 0.75
      vertex 3.54904 1.9511 -0.75
    endloop
  endfacet
  facet normal -0.951056 -0.309017 0
    outer loop
      vertex 3.92276 1.00719 0.75
      vertex 3.76559 1.4909 0.75
      vertex 3.92276 1.00719 -0.75
    endloop
  endfacet
  facet normal -0.951056 -0.309017 0
    outer loop
      vertex 3.92276 1.00719 -0.75
      vertex 3.76559 1.4909 0.75
      vertex 3.76559 1.4909 -0.75
    endloop
  endfacet
  facet normal -0.982287 -0.187382 0
    outer loop
      vertex 4.01806 0.5076 0.75
      vertex 3.92276 1.00719 0.75
      vertex 4.01806 0.5076 -0.75
    endloop
  endfacet
  facet normal -0.982287 -0.187382 0
    outer loop
      vertex 4.01806 0.5076 -0.75
      vertex 3.92276 1.00719 0.75
      vertex 3.92276 1.00719 -0.75
    endloop
  endfacet
  facet normal -0.998027 -0.0627896 0
    outer loop
      vertex 4.05 0 0.75
      vertex 4.01806 0.5076 0.75
      vertex 4.05 0 -0.75
    endloop
  endfacet
  facet normal -0.998027 -0.0627896 0
    outer loop
      vertex 4.05 0 -0.75
      vertex 4.01806 0.5076 0.75
      vertex 4.01806 0.5076 -0.75
    endloop
  endfacet
  facet normal -0.998027 0.0627896 0
    outer loop
      vertex 4.05 0 0.75
      vertex 4.05 0 -0.75
      vertex 4.01806 -0.5076 0.75
    endloop
  endfacet
  facet normal -0.998027 0.0627896 0
    outer loop
      vertex 4.01806 -0.5076 0.75
      vertex 4.05 0 -0.75
      vertex 4.01806 -0.5076 -0.75
    endloop
  endfacet
  facet normal -0.982287 0.187382 0
    outer loop
      vertex 4.01806 -0.5076 0.75
      vertex 4.01806 -0.5076 -0.75
      vertex 3.92276 -1.00719 0.75
    endloop
  endfacet
  facet normal -0.982287 0.187382 0
    outer loop
      vertex 3.92276 -1.00719 0.75
      vertex 4.01806 -0.5076 -0.75
      vertex 3.92276 -1.00719 -0.75
    endloop
  endfacet
  facet normal -0.951056 0.309017 0
    outer loop
      vertex 3.92276 -1.00719 0.75
      vertex 3.92276 -1.00719 -0.75
      vertex 3.76559 -1.4909 0.75
    endloop
  endfacet
  facet normal -0.951056 0.309017 0
    outer loop
      vertex 3.76559 -1.4909 0.75
      vertex 3.92276 -1.00719 -0.75
      vertex 3.76559 -1.4909 -0.75
    endloop
  endfacet
  facet normal -0.904827 0.42578 0
    outer loop
      vertex 3.76559 -1.4909 0.75
      vertex 3.76559 -1.4909 -0.75
      vertex 3.54904 -1.9511 0.75
    endloop
  endfacet
  facet normal -0.904827 0.42578 0
    outer loop
      vertex 3.54904 -1.9511 0.75
      vertex 3.76559 -1.4909 -0.75
      vertex 3.54904 -1.9511 -0.75
    endloop
  endfacet
  facet normal -0.844328 0.535826 0
    outer loop
      vertex 3.54904 -1.9511 0.75
      vertex 3.54904 -1.9511 -0.75
      vertex 3.27652 -2.38053 0.75
    endloop
  endfacet
  facet normal -0.844328 0.535826 0
    outer loop
      vertex 3.27652 -2.38053 0.75
      vertex 3.54904 -1.9511 -0.75
      vertex 3.27652 -2.38053 -0.75
    endloop
  endfacet
  facet normal -0.770514 0.637424 0
    outer loop
      vertex 3.27652 -2.38053 0.75
      vertex 3.27652 -2.38053 -0.75
      vertex 2.95232 -2.77242 0.75
    endloop
  endfacet
  facet normal -0.770514 0.637424 0
    outer loop
      vertex 2.95232 -2.77242 0.75
      vertex 3.27652 -2.38053 -0.75
      vertex 2.95232 -2.77242 -0.75
    endloop
  endfacet
  facet normal -0.684547 0.728969 0
    outer loop
      vertex 2.95232 -2.77242 0.75
      vertex 2.95232 -2.77242 -0.75
      vertex 2.58157 -3.12058 0.75
    endloop
  endfacet
  facet normal -0.684547 0.728969 0
    outer loop
      vertex 2.58157 -3.12058 0.75
      vertex 2.95232 -2.77242 -0.75
      vertex 2.58157 -3.12058 -0.75
    endloop
  endfacet
  facet normal -0.587785 0.809017 0
    outer loop
      vertex 2.58157 -3.12058 0.75
      vertex 2.58157 -3.12058 -0.75
      vertex 2.1701 -3.41953 0.75
    endloop
  endfacet
  facet normal -0.587785 0.809017 0
    outer loop
      vertex 2.1701 -3.41953 0.75
      vertex 2.58157 -3.12058 -0.75
      vertex 2.1701 -3.41953 -0.75
    endloop
  endfacet
  facet normal -0.481754 0.876307 0
    outer loop
      vertex 2.1701 -3.41953 0.75
      vertex 2.1701 -3.41953 -0.75
      vertex 1.72441 -3.66455 0.75
    endloop
  endfacet
  facet normal -0.481754 0.876307 0
    outer loop
      vertex 1.72441 -3.66455 0.75
      vertex 2.1701 -3.41953 -0.75
      vertex 1.72441 -3.66455 -0.75
    endloop
  endfacet
  facet normal -0.368124 0.929777 0
    outer loop
      vertex 1.72441 -3.66455 0.75
      vertex 1.72441 -3.66455 -0.75
      vertex 1.25152 -3.85178 0.75
    endloop
  endfacet
  facet normal -0.368124 0.929777 0
    outer loop
      vertex 1.25152 -3.85178 0.75
      vertex 1.72441 -3.66455 -0.75
      vertex 1.25152 -3.85178 -0.75
    endloop
  endfacet
  facet normal -0.248689 0.968583 0
    outer loop
      vertex 1.25152 -3.85178 0.75
      vertex 1.25152 -3.85178 -0.75
      vertex 0.758894 -3.97826 0.75
    endloop
  endfacet
  facet normal -0.248689 0.968583 0
    outer loop
      vertex 0.758894 -3.97826 0.75
      vertex 1.25152 -3.85178 -0.75
      vertex 0.758894 -3.97826 -0.75
    endloop
  endfacet
  facet normal -0.125334 0.992115 0
    outer loop
      vertex 0.758894 -3.97826 0.75
      vertex 0.758894 -3.97826 -0.75
      vertex 0.254302 -4.04201 0.75
    endloop
  endfacet
  facet normal -0.125334 0.992115 0
    outer loop
      vertex 0.254302 -4.04201 0.75
      vertex 0.758894 -3.97826 -0.75
      vertex 0.254302 -4.04201 -0.75
    endloop
  endfacet
  facet normal 0 1 0
    outer loop
      vertex 0.254302 -4.04201 0.75
      vertex 0.254302 -4.04201 -0.75
      vertex -0.254302 -4.04201 0.75
    endloop
  endfacet
  facet normal 0 1 0
    outer loop
      vertex -0.254302 -4.04201 0.75
      vertex 0.254302 -4.04201 -0.75
      vertex -0.254302 -4.04201 -0.75
    endloop
  endfacet
  facet normal 0.125334 0.992115 0
    outer loop
      vertex -0.254302 -4.04201 0.75
      vertex -0.254302 -4.04201 -0.75
      vertex -0.758894 -3.97826 0.75
    endloop
  endfacet
  facet normal 0.125334 0.992115 0
    outer loop
      vertex -0.758894 -3.97826 0.75
      vertex -0.254302 -4.04201 -0.75
      vertex -0.758894 -3.97826 -0.75
    endloop
  endfacet
  facet normal 0.248689 0.968583 0
    outer loop
      vertex -0.758894 -3.97826 0.75
      vertex -0.758894 -3.97826 -0.75
      vertex -1.25152 -3.85178 0.75
    endloop
  endfacet
  facet normal 0.248689 0.968583 0
    outer loop
      vertex -1.25152 -3.85178 0.75
      vertex -0.758894 -3.97826 -0.75
      vertex -1.25152 -3.85178 -0.75
    endloop
  endfacet
  facet normal 0.368124 0.929777 0
    outer loop
      vertex -1.25152 -3.85178 0.75
      vertex -1.25152 -3.85178 -0.75
      vertex -1.72441 -3.66455 0.75
    endloop
  endfacet
  facet normal 0.368124 0.929777 0
    outer loop
      vertex -1.72441 -3.66455 0.75
      vertex -1.25152 -3.85178 -0.75
      vertex -1.72441 -3.66455 -0.75
    endloop
  endfacet
  facet normal 0.481754 0.876307 0
    outer loop
      vertex -1.72441 -3.66455 0.75
      vertex -1.72441 -3.66455 -0.75
      vertex -2.1701 -3.41953 0.75
    endloop
  endfacet
  facet normal 0.481754 0.876307 0
    outer loop
      vertex -2.1701 -3.41953 0.75
      vertex -1.72441 -3.66455 -0.75
      vertex -2.1701 -3.41953 -0.75
    endloop
  endfacet
  facet normal 0.587785 0.809017 0
    outer loop
      vertex -2.1701 -3.41953 0.75
      vertex -2.1701 -3.41953 -0.75
      vertex -2.58157 -3.12058 0.75
    endloop
  endfacet
  facet normal 0.587785 0.809017 0
    outer loop
      vertex -2.58157 -3.12058 0.75
      vertex -2.1701 -3.41953 -0.75
      vertex -2.58157 -3.12058 -0.75
    endloop
  endfacet
  facet normal 0.684547 0.728969 0
    outer loop
      vertex -2.58157 -3.12058 0.75
      vertex -2.58157 -3.12058 -0.75
      vertex -2.95232 -2.77242 0.75
    endloop
  endfacet
  facet normal 0.684547 0.728969 0
    outer loop
      vertex -2.95232 -2.77242 0.75
      vertex -2.58157 -3.12058 -0.75
      vertex -2.95232 -2.77242 -0.75
    endloop
  endfacet
  facet normal 0.770514 0.637424 0
    outer loop
      vertex -3.27652 -2.38053 0.75
      vertex -2.95232 -2.77242 0.75
      vertex -2.95232 -2.77242 -0.75
    endloop
  endfacet
  facet normal 0.770514 0.637424 0
    outer loop
      vertex -3.27652 -2.38053 -0.75
      vertex -3.27652 -2.38053 0.75
      vertex -2.95232 -2.77242 -0.75
    endloop
  endfacet
  facet normal 0.844328 0.535826 0
    outer loop
      vertex -3.54904 -1.9511 0.75
      vertex -3.27652 -2.38053 0.75
      vertex -3.27652 -2.38053 -0.75
    endloop
  endfacet
  facet normal 0.844328 0.535826 0
    outer loop
      vertex -3.54904 -1.9511 -0.75
      vertex -3.54904 -1.9511 0.75
      vertex -3.27652 -2.38053 -0.75
    endloop
  endfacet
  facet normal 0.904827 0.42578 0
    outer loop
      vertex -3.76559 -1.4909 0.75
      vertex -3.54904 -1.9511 0.75
      vertex -3.54904 -1.9511 -0.75
    endloop
  endfacet
  facet normal 0.904827 0.42578 0
    outer loop
      vertex -3.76559 -1.4909 -0.75
      vertex -3.76559 -1.4909 0.75
      vertex -3.54904 -1.9511 -0.75
    endloop
  endfacet
  facet normal 0.951056 0.309017 0
    outer loop
      vertex -3.92276 -1.00719 0.75
      vertex -3.76559 -1.4909 0.75
      vertex -3.76559 -1.4909 -0.75
    endloop
  endfacet
  facet normal 0.951056 0.309017 0
    outer loop
      vertex -3.92276 -1.00719 -0.75
      vertex -3.92276 -1.00719 0.75
      vertex -3.76559 -1.4909 -0.75
    endloop
  endfacet
  facet normal 0.982287 0.187382 0
    outer loop
      vertex -4.01806 -0.5076 0.75
      vertex -3.92276 -1.00719 0.75
      vertex -3.92276 -1.00719 -0.75
    endloop
  endfacet
  facet normal 0.982287 0.187382 0
    outer loop
      vertex -4.01806 -0.5076 -0.75
      vertex -4.01806 -0.5076 0.75
      vertex -3.92276 -1.00719 -0.75
    endloop
  endfacet
  facet normal 0 0 1
    outer loop
      vertex -14.8817 1.88 0.75
      vertex -15 0 0.75
      vertex -14.8817 -1.88 0.75
    endloop
  endfacet
  facet normal 0 0 1
    outer loop
      vertex -13.9466 -5.52187 0.75
      vertex -14.8817 1.88 0.75
      vertex -14.5287 -3.73035 0.75
    endloop
  endfacet
  facet normal 0 0 1
    outer loop
      vertex -14.5287 -3.73035 0.75
      vertex -14.8817 1.88 0.75
      vertex -14.8817 -1.88 0.75
    endloop
  endfacet
  facet normal 0 0 1
    outer loop
      vertex -13.1446 -7.2263 0.75
      vertex -14.8817 1.88 0.75
      vertex -13.9466 -5.52187 0.75
    endloop
  endfacet
  facet normal 0 0 1
    outer loop
      vertex -12.1353 -8.81678 0.75
      vertex -14.8817 1.88 0.75
      vertex -13.1446 -7.2263 0.75
    endloop
  endfacet
  facet normal 0 0 1
    outer loop
      vertex -10.9345 -10.2682 0.75
      vertex -14.8817 1.88 0.75
      vertex -12.1353 -8.81678 0.75
    endloop
  endfacet
  facet normal 0 0 1
    outer loop
      vertex -9.56136 -11.5577 0.75
      vertex -14.8817 1.88 0.75
      vertex -10.9345 -10.2682 0.75
    endloop
  endfacet
  facet normal 0 0 1
    outer loop
      vertex -8.0374 -12.6649 0.75
      vertex -14.8817 1.88 0.75
      vertex -9.56136 -11.5577 0.75
    endloop
  endfacet
  facet normal 0 0 1
    outer loop
      vertex -6.38669 -13.5724 0.75
      vertex -14.8817 1.88 0.75
      vertex -8.0374 -12.6649 0.75
    endloop
  endfacet
  facet normal 0 0 1
    outer loop
      vertex -4.63525 -14.2658 0.75
      vertex -14.8817 1.88 0.75
      vertex -6.38669 -13.5724 0.75
    endloop
  endfacet
  facet normal 0 0 1
    outer loop
      vertex -2.81072 -14.7343 0.75
      vertex -14.8817 1.88 0.75
      vertex -4.63525 -14.2658 0.75
    endloop
  endfacet
  facet normal 0 0 1
    outer loop
      vertex -0.941858 -14.9704 0.75
      vertex -14.8817 1.88 0.75
      vertex -2.81072 -14.7343 0.75
    endloop
  endfacet
  facet normal 0 0 1
    outer loop
      vertex 0.941858 -14.9704 0.75
      vertex -14.8817 1.88 0.75
      vertex -0.941858 -14.9704 0.75
    endloop
  endfacet
  facet normal 0 0 1
    outer loop
      vertex 2.81072 -14.7343 0.75
      vertex -14.8817 1.88 0.75
      vertex 0.941858 -14.9704 0.75
    endloop
  endfacet
  facet normal 0 0 1
    outer loop
      vertex 4.63525 -14.2658 0.75
      vertex -14.8817 1.88 0.75
      vertex 2.81072 -14.7343 0.75
    endloop
  endfacet
  facet normal 0 0 1
    outer loop
      vertex 6.38669 -13.5724 0.75
      vertex -14.8817 1.88 0.75
      vertex 4.63525 -14.2658 0.75
    endloop
  endfacet
  facet normal 0 0 1
    outer loop
      vertex 8.0374 -12.6649 0.75
      vertex -14.8817 1.88 0.75
      vertex 6.38669 -13.5724 0.75
    endloop
  endfacet
  facet normal 0 0 1
    outer loop
      vertex 9.56136 -11.5577 0.75
      vertex -14.8817 1.88 0.75
      vertex 8.0374 -12.6649 0.75
    endloop
  endfacet
  facet normal 0 0 1
    outer loop
      vertex 10.9345 -10.2682 0.75
      vertex -14.8817 1.88 0.75
      vertex 9.56136 -11.5577 0.75
    endloop
  endfacet
  facet normal 0 0 1
    outer loop
      vertex -1.72441 -3.66455 0.75
      vertex -14.8817 1.88 0.75
      vertex 10.9345 -10.2682 0.75
    endloop
  endfacet
  facet normal 0 0 1
    outer loop
      vertex -1.72441 -3.66455 0.75
      vertex -2.1701 -3.41953 0.75
      vertex -14.8817 1.88 0.75
    endloop
  endfacet
  facet normal 0 0 1
    outer loop
      vertex 0.254302 -4.04201 0.75
      vertex -0.254302 -4.04201 0.75
      vertex 12.1353 -8.81678 0.75
    endloop
  endfacet
  facet normal 0 0 1
    outer loop
      vertex 3.27652 -2.38053 0.75
      vertex 2.95232 -2.77242 0.75
      vertex 13.9466 -5.52187 0.75
    endloop
  endfacet
  facet normal 0 0 1
    outer loop
      vertex 4.01806 0.5076 0.75
      vertex 4.05 0 0.75
      vertex 15 0 0.75
    endloop
  endfacet
  facet normal 0 0 1
    outer loop
      vertex 2.95232 2.77242 0.75
      vertex 3.27652 2.38053 0.75
      vertex 14.5287 3.73035 0.75
    endloop
  endfacet
  facet normal 0 0 1
    outer loop
      vertex 1.25152 3.85178 0.75
      vertex 1.72441 3.66455 0.75
      vertex 13.9466 5.52187 0.75
    endloop
  endfacet
  facet normal 0 0 1
    outer loop
      vertex 12.1353 8.81678 0.75
      vertex -14.8817 1.88 0.75
      vertex 13.1446 7.2263 0.75
    endloop
  endfacet
  facet normal 0 0 1
    outer loop
      vertex 10.9345 10.2682 0.75
      vertex -14.8817 1.88 0.75
      vertex 12.1353 8.81678 0.75
    endloop
  endfacet
  facet normal 0 0 1
    outer loop
      vertex 9.56136 11.5577 0.75
      vertex -14.8817 1.88 0.75
      vertex 10.9345 10.2682 0.75
    endloop
  endfacet
  facet normal 0 0 1
    outer loop
      vertex 8.0374 12.6649 0.75
      vertex -14.8817 1.88 0.75
      vertex 9.56136 11.5577 0.75
    endloop
  endfacet
  facet normal 0 0 1
    outer loop
      vertex 6.38669 13.5724 0.75
      vertex -14.8817 1.88 0.75
      vertex 8.0374 12.6649 0.75
    endloop
  endfacet
  facet normal 0 0 1
    outer loop
      vertex 4.63525 14.2658 0.75
      vertex -14.8817 1.88 0.75
      vertex 6.38669 13.5724 0.75
    endloop
  endfacet
  facet normal 0 0 1
    outer loop
      vertex 2.81072 14.7343 0.75
      vertex -14.8817 1.88 0.75
      vertex 4.63525 14.2658 0.75
    endloop
  endfacet
  facet normal 0 0 1
    outer loop
      vertex 0.941858 14.9704 0.75
      vertex -14.8817 1.88 0.75
      vertex 2.81072 14.7343 0.75
    endloop
  endfacet
  facet normal 0 0 1
    outer loop
      vertex -0.941858 14.9704 0.75
      vertex -14.8817 1.88 0.75
      vertex 0.941858 14.9704 0.75
    endloop
  endfacet
  facet normal 0 0 1
    outer loop
      vertex -2.81072 14.7343 0.75
      vertex -14.8817 1.88 0.75
      vertex -0.941858 14.9704 0.75
    endloop
  endfacet
  facet normal 0 0 1
    outer loop
      vertex -4.63525 14.2658 0.75
      vertex -14.8817 1.88 0.75
      vertex -2.81072 14.7343 0.75
    endloop
  endfacet
  facet normal 0 0 1
    outer loop
      vertex -6.38669 13.5724 0.75
      vertex -14.8817 1.88 0.75
      vertex -4.63525 14.2658 0.75
    endloop
  endfacet
  facet normal 0 0 1
    outer loop
      vertex -8.0374 12.6649 0.75
      vertex -14.8817 1.88 0.75
      vertex -6.38669 13.5724 0.75
    endloop
  endfacet
  facet normal 0 0 1
    outer loop
      vertex -9.56136 11.5577 0.75
      vertex -14.8817 1.88 0.75
      vertex -8.0374 12.6649 0.75
    endloop
  endfacet
  facet normal 0 0 1
    outer loop
      vertex -10.9345 10.2682 0.75
      vertex -14.8817 1.88 0.75
      vertex -9.56136 11.5577 0.75
    endloop
  endfacet
  facet normal 0 0 1
    outer loop
      vertex -12.1353 8.81678 0.75
      vertex -14.8817 1.88 0.75
      vertex -10.9345 10.2682 0.75
    endloop
  endfacet
  facet normal 0 0 1
    outer loop
      vertex -13.1446 7.2263 0.75
      vertex -14.8817 1.88 0.75
      vertex -12.1353 8.81678 0.75
    endloop
  endfacet
  facet normal 0 0 1
    outer loop
      vertex -13.9466 5.52187 0.75
      vertex -14.8817 1.88 0.75
      vertex -13.1446 7.2263 0.75
    endloop
  endfacet
  facet normal 0 0 1
    outer loop
      vertex -14.5287 3.73035 0.75
      vertex -14.8817 1.88 0.75
      vertex -13.9466 5.52187 0.75
    endloop
  endfacet
  facet normal 0 0 1
    outer loop
      vertex 2.1701 -3.41953 0.75
      vertex 1.72441 -3.66455 0.75
      vertex 13.1446 -7.2263 0.75
    endloop
  endfacet
  facet normal 0 0 1
    outer loop
      vertex -2.58157 -3.12058 0.75
      vertex -2.95232 -2.77242 0.75
      vertex -14.8817 1.88 0.75
    endloop
  endfacet
  facet normal 0 0 1
    outer loop
      vertex 0.758894 3.97826 0.75
      vertex 1.25152 3.85178 0.75
      vertex 13.9466 5.52187 0.75
    endloop
  endfacet
  facet normal 0 0 1
    outer loop
      vertex 4.01806 -0.5076 0.75
      vertex 3.92276 -1.00719 0.75
      vertex 14.8817 -1.88 0.75
    endloop
  endfacet
  facet normal 0 0 1
    outer loop
      vertex -3.92276 1.00719 0.75
      vertex -14.8817 1.88 0.75
      vertex -4.01806 0.5076 0.75
    endloop
  endfacet
  facet normal 0 0 1
    outer loop
      vertex -3.76559 1.4909 0.75
      vertex -3.54904 1.9511 0.75
      vertex -14.8817 1.88 0.75
    endloop
  endfacet
  facet normal 0 0 1
    outer loop
      vertex 3.76559 -1.4909 0.75
      vertex 3.54904 -1.9511 0.75
      vertex 14.5287 -3.73035 0.75
    endloop
  endfacet
  facet normal 0 0 1
    outer loop
      vertex -3.27652 2.38053 0.75
      vertex -2.95232 2.77242 0.75
      vertex -14.8817 1.88 0.75
    endloop
  endfacet
  facet normal 0 0 1
    outer loop
      vertex 3.92276 1.00719 0.75
      vertex 4.01806 0.5076 0.75
      vertex 15 0 0.75
    endloop
  endfacet
  facet normal 0 0 1
    outer loop
      vertex -3.27652 2.38053 0.75
      vertex -14.8817 1.88 0.75
      vertex -3.54904 1.9511 0.75
    endloop
  endfacet
  facet normal 0 0 1
    outer loop
      vertex -2.1701 3.41953 0.75
      vertex -1.72441 3.66455 0.75
      vertex -14.8817 1.88 0.75
    endloop
  endfacet
  facet normal 0 0 1
    outer loop
      vertex 3.54904 1.9511 0.75
      vertex 3.76559 1.4909 0.75
      vertex 14.8817 1.88 0.75
    endloop
  endfacet
  facet normal 0 0 1
    outer loop
      vertex -2.58157 3.12058 0.75
      vertex -14.8817 1.88 0.75
      vertex -2.95232 2.77242 0.75
    endloop
  endfacet
  facet normal 0 0 1
    outer loop
      vertex -2.1701 3.41953 0.75
      vertex -14.8817 1.88 0.75
      vertex -2.58157 3.12058 0.75
    endloop
  endfacet
  facet normal 0 0 1
    outer loop
      vertex -0.758894 3.97826 0.75
      vertex -0.254302 4.04201 0.75
      vertex 13.1446 7.2263 0.75
    endloop
  endfacet
  facet normal 0 0 1
    outer loop
      vertex 2.58157 3.12058 0.75
      vertex 2.95232 2.77242 0.75
      vertex 14.5287 3.73035 0.75
    endloop
  endfacet
  facet normal 0 0 1
    outer loop
      vertex -1.25152 3.85178 0.75
      vertex -14.8817 1.88 0.75
      vertex -1.72441 3.66455 0.75
    endloop
  endfacet
  facet normal 0 0 1
    outer loop
      vertex -0.758894 3.97826 0.75
      vertex -14.8817 1.88 0.75
      vertex -1.25152 3.85178 0.75
    endloop
  endfacet
  facet normal 0 0 1
    outer loop
      vertex -0.254302 4.04201 0.75
      vertex 0.254302 4.04201 0.75
      vertex 13.1446 7.2263 0.75
    endloop
  endfacet
  facet normal 0 0 1
    outer loop
      vertex 13.1446 7.2263 0.75
      vertex -14.8817 1.88 0.75
      vertex -0.758894 3.97826 0.75
    endloop
  endfacet
  facet normal 0 0 1
    outer loop
      vertex 13.1446 7.2263 0.75
      vertex 0.254302 4.04201 0.75
      vertex 13.9466 5.52187 0.75
    endloop
  endfacet
  facet normal 0 0 1
    outer loop
      vertex 0.254302 4.04201 0.75
      vertex 0.758894 3.97826 0.75
      vertex 13.9466 5.52187 0.75
    endloop
  endfacet
  facet normal 0 0 1
    outer loop
      vertex 1.72441 3.66455 0.75
      vertex 2.1701 3.41953 0.75
      vertex 13.9466 5.52187 0.75
    endloop
  endfacet
  facet normal 0 0 1
    outer loop
      vertex 13.9466 5.52187 0.75
      vertex 2.1701 3.41953 0.75
      vertex 14.5287 3.73035 0.75
    endloop
  endfacet
  facet normal 0 0 1
    outer loop
      vertex 2.1701 3.41953 0.75
      vertex 2.58157 3.12058 0.75
      vertex 14.5287 3.73035 0.75
    endloop
  endfacet
  facet normal 0 0 1
    outer loop
      vertex 14.5287 3.73035 0.75
      vertex 3.27652 2.38053 0.75
      vertex 14.8817 1.88 0.75
    endloop
  endfacet
  facet normal 0 0 1
    outer loop
      vertex 3.27652 2.38053 0.75
      vertex 3.54904 1.9511 0.75
      vertex 14.8817 1.88 0.75
    endloop
  endfacet
  facet normal 0 0 1
    outer loop
      vertex 14.8817 1.88 0.75
      vertex 3.76559 1.4909 0.75
      vertex 15 0 0.75
    endloop
  endfacet
  facet normal 0 0 1
    outer loop
      vertex 3.76559 1.4909 0.75
      vertex 3.92276 1.00719 0.75
      vertex 15 0 0.75
    endloop
  endfacet
  facet normal 0 0 1
    outer loop
      vertex 4.05 0 0.75
      vertex 4.01806 -0.5076 0.75
      vertex 14.8817 -1.88 0.75
    endloop
  endfacet
  facet normal 0 0 1
    outer loop
      vertex 15 0 0.75
      vertex 4.05 0 0.75
      vertex 14.8817 -1.88 0.75
    endloop
  endfacet
  facet normal 0 0 1
    outer loop
      vertex -3.92276 1.00719 0.75
      vertex -3.76559 1.4909 0.75
      vertex -14.8817 1.88 0.75
    endloop
  endfacet
  facet normal 0 0 1
    outer loop
      vertex 14.8817 -1.88 0.75
      vertex 3.92276 -1.00719 0.75
      vertex 14.5287 -3.73035 0.75
    endloop
  endfacet
  facet normal 0 0 1
    outer loop
      vertex 3.92276 -1.00719 0.75
      vertex 3.76559 -1.4909 0.75
      vertex 14.5287 -3.73035 0.75
    endloop
  endfacet
  facet normal 0 0 1
    outer loop
      vertex 14.5287 -3.73035 0.75
      vertex 3.54904 -1.9511 0.75
      vertex 13.9466 -5.52187 0.75
    endloop
  endfacet
  facet normal 0 0 1
    outer loop
      vertex 3.54904 -1.9511 0.75
      vertex 3.27652 -2.38053 0.75
      vertex 13.9466 -5.52187 0.75
    endloop
  endfacet
  facet normal 0 0 1
    outer loop
      vertex 13.9466 -5.52187 0.75
      vertex 2.95232 -2.77242 0.75
      vertex 13.1446 -7.2263 0.75
    endloop
  endfacet
  facet normal 0 0 1
    outer loop
      vertex -4.01806 -0.5076 0.75
      vertex -4.05 0 0.75
      vertex -14.8817 1.88 0.75
    endloop
  endfacet
  facet normal 0 0 1
    outer loop
      vertex 2.95232 -2.77242 0.75
      vertex 2.58157 -3.12058 0.75
      vertex 13.1446 -7.2263 0.75
    endloop
  endfacet
  facet normal 0 0 1
    outer loop
      vertex 2.58157 -3.12058 0.75
      vertex 2.1701 -3.41953 0.75
      vertex 13.1446 -7.2263 0.75
    endloop
  endfacet
  facet normal 0 0 1
    outer loop
      vertex 13.1446 -7.2263 0.75
      vertex 1.72441 -3.66455 0.75
      vertex 12.1353 -8.81678 0.75
    endloop
  endfacet
  facet normal 0 0 1
    outer loop
      vertex -2.95232 -2.77242 0.75
      vertex -3.27652 -2.38053 0.75
      vertex -14.8817 1.88 0.75
    endloop
  endfacet
  facet normal 0 0 1
    outer loop
      vertex 1.72441 -3.66455 0.75
      vertex 1.25152 -3.85178 0.75
      vertex 12.1353 -8.81678 0.75
    endloop
  endfacet
  facet normal 0 0 1
    outer loop
      vertex 1.25152 -3.85178 0.75
      vertex 0.758894 -3.97826 0.75
      vertex 12.1353 -8.81678 0.75
    endloop
  endfacet
  facet normal 0 0 1
    outer loop
      vertex 0.758894 -3.97826 0.75
      vertex 0.254302 -4.04201 0.75
      vertex 12.1353 -8.81678 0.75
    endloop
  endfacet
  facet normal 0 0 1
    outer loop
      vertex 12.1353 -8.81678 0.75
      vertex -0.254302 -4.04201 0.75
      vertex 10.9345 -10.2682 0.75
    endloop
  endfacet
  facet normal 0 0 1
    outer loop
      vertex -0.254302 -4.04201 0.75
      vertex -0.758894 -3.97826 0.75
      vertex 10.9345 -10.2682 0.75
    endloop
  endfacet
  facet normal 0 0 1
    outer loop
      vertex -0.758894 -3.97826 0.75
      vertex -1.25152 -3.85178 0.75
      vertex 10.9345 -10.2682 0.75
    endloop
  endfacet
  facet normal 0 0 1
    outer loop
      vertex -1.25152 -3.85178 0.75
      vertex -1.72441 -3.66455 0.75
      vertex 10.9345 -10.2682 0.75
    endloop
  endfacet
  facet normal 0 0 1
    outer loop
      vertex -2.1701 -3.41953 0.75
      vertex -2.58157 -3.12058 0.75
      vertex -14.8817 1.88 0.75
    endloop
  endfacet
  facet normal 0 0 1
    outer loop
      vertex -3.54904 -1.9511 0.75
      vertex -3.76559 -1.4909 0.75
      vertex -14.8817 1.88 0.75
    endloop
  endfacet
  facet normal 0 0 1
    outer loop
      vertex -3.27652 -2.38053 0.75
      vertex -3.54904 -1.9511 0.75
      vertex -14.8817 1.88 0.75
    endloop
  endfacet
  facet normal 0 0 1
    outer loop
      vertex -4.05 0 0.75
      vertex -4.01806 0.5076 0.75
      vertex -14.8817 1.88 0.75
    endloop
  endfacet
  facet normal 0 0 1
    outer loop
      vertex -3.76559 -1.4909 0.75
      vertex -3.92276 -1.00719 0.75
      vertex -14.8817 1.88 0.75
    endloop
  endfacet
  facet normal 0 0 1
    outer loop
      vertex -3.92276 -1.00719 0.75
      vertex -4.01806 -0.5076 0.75
      vertex -14.8817 1.88 0.75
    endloop
  endfacet
endsolid OpenSCAD_Model
